<svg width="24" height="24" viewBox="0 0 24 24" fill="none" xmlns="http://www.w3.org/2000/svg">
<g clip-path="url(#clip0_64_73)">
<path d="M0.75 6C0.75 5.25 0.75 4.5 0.75 3.75C0.75 2.05 2.05 0.75 3.75 0.75C5.25 0.75 6.75 0.75 8.25 0.75C9.9 0.75 11.25 2.1 11.25 3.75C11.25 5.25 11.25 6.75 11.25 8.25C11.25 9.95 9.9 11.25 8.25 11.25C6.75 11.25 5.25 11.25 3.75 11.25C2.1 11.25 0.75 9.9 0.75 8.25C0.75 7.5 0.75 6.75 0.75 6Z" fill="#4D4D4D"/>
<path d="M11.2498 18C11.2498 18.75 11.2498 19.45 11.2498 20.2C11.2498 21.9 9.9498 23.25 8.2498 23.25C6.7498 23.25 5.2998 23.25 3.7998 23.25C2.0998 23.25 0.799805 21.9 0.799805 20.2C0.799805 18.7 0.799805 17.25 0.799805 15.75C0.799805 14.05 2.0998 12.7 3.7998 12.7C5.2998 12.7 6.7498 12.7 8.2498 12.7C9.9498 12.7 11.2498 14.05 11.2498 15.75C11.2498 16.5 11.2498 17.25 11.2498 18Z" fill="#4D4D4D"/>
<path d="M18.0002 12.75C18.7502 12.75 19.4502 12.75 20.2002 12.75C21.9002 12.75 23.2502 14.05 23.2502 15.8C23.2502 17.25 23.2502 18.75 23.2502 20.2C23.2502 21.9 21.9502 23.25 20.2002 23.25C18.7002 23.25 17.2502 23.25 15.7502 23.25C14.0502 23.25 12.7002 21.9 12.7002 20.2C12.7002 18.75 12.7002 17.25 12.7002 15.8C12.7002 14.1 14.0002 12.75 15.7502 12.75C16.5002 12.75 17.2502 12.75 18.0002 12.75Z" fill="#4D4D4D"/>
<path d="M23.25 6C23.25 6.35 23 6.65 22.6 6.75C22.05 6.9 21.5 7 20.9 7.15C19.95 7.35 19.35 7.95 19.1 8.95C18.95 9.5 18.85 10.05 18.7 10.6C18.6 11.05 18.35 11.3 17.95 11.3C17.55 11.3 17.3 11.05 17.2 10.6C17.05 10 16.95 9.4 16.8 8.8C16.6 7.95 16.05 7.45 15.2 7.2C14.6 7.05 14 6.9 13.4 6.8C13 6.7 12.75 6.4 12.75 6.05C12.75 5.65 13 5.4 13.45 5.3C14 5.2 14.55 5.05 15.1 4.9C16.05 4.65 16.65 4.05 16.9 3.1C17 2.5 17.1 1.95 17.25 1.4C17.35 1 17.6 0.75 18 0.75C18.4 0.75 18.65 1 18.75 1.4C18.85 1.95 19 2.5 19.1 3.05C19.35 4.05 19.95 4.65 20.9 4.85C21.45 5 22 5.1 22.55 5.25C23 5.35 23.25 5.65 23.25 6Z" fill="#4D4D4D"/>
</g>
<defs>
<clipPath id="clip0_64_73">
<rect width="24" height="24" fill="white"/>
</clipPath>
</defs>
</svg>
