<svg width="20" height="22" viewBox="0 0 20 22" fill="none" xmlns="http://www.w3.org/2000/svg">
<path d="M0.250488 10.9907C0.250488 8.35873 0.250488 5.72679 0.250488 3.09486C0.250488 1.44443 1.43205 0.250366 3.07622 0.250366C7.69618 0.250366 12.3099 0.250366 16.9298 0.250366C18.574 0.250366 19.7556 1.44443 19.7556 3.09486C19.7556 8.37123 19.7556 13.6414 19.7556 18.9177C19.7556 20.5494 18.5678 21.7497 16.9423 21.7497C12.3161 21.756 7.68993 21.756 3.06997 21.7497C1.4383 21.7497 0.25674 20.5494 0.25674 18.9177C0.250488 16.2733 0.250488 13.6351 0.250488 10.9907ZM5.48935 16.7359C5.17677 16.4108 4.87669 16.1045 4.57661 15.8044C4.22652 15.4543 3.77016 15.4293 3.45757 15.7482C3.15124 16.0607 3.17625 16.5234 3.52009 16.8734C3.95145 17.3048 4.38281 17.7362 4.81418 18.1675C5.2768 18.6302 5.65815 18.6364 6.12077 18.18C6.87721 17.4361 7.63366 16.6859 8.38386 15.942C8.47138 15.8544 8.57766 15.7794 8.65268 15.6856C8.88399 15.3856 8.83397 14.9479 8.55265 14.6916C8.26508 14.4353 7.83996 14.4291 7.55239 14.6979C7.27107 14.9604 7.0085 15.2355 6.73968 15.5043C6.32707 15.8919 5.92072 16.3045 5.48935 16.7359ZM5.4956 11.2282C5.17677 10.9031 4.87669 10.5968 4.57661 10.2905C4.22652 9.94039 3.77016 9.92163 3.45757 10.2405C3.1575 10.5468 3.17625 11.0032 3.51384 11.347C3.9577 11.7971 4.40782 12.241 4.85794 12.6911C5.2768 13.11 5.6769 13.11 6.09576 12.6911C6.90222 11.8971 7.70243 11.0969 8.52139 10.3092C8.70269 10.1342 8.77771 9.94039 8.75895 9.70908C8.73395 9.40275 8.57766 9.18394 8.28383 9.07141C7.9775 8.95888 7.70243 9.02765 7.46487 9.25896C6.8147 9.90288 6.17078 10.553 5.4956 11.2282ZM5.53937 5.70804C5.50811 5.68928 5.50186 5.68303 5.4956 5.67678C5.21428 5.39546 4.93296 5.11413 4.65163 4.83281C4.32655 4.51398 3.89519 4.49522 3.58886 4.7953C3.27628 5.09538 3.28253 5.55175 3.60136 5.87683C4.02647 6.30194 4.45158 6.72705 4.87669 7.15216C5.29555 7.57102 5.70191 7.57102 6.11452 7.15842C6.71467 6.56451 7.31483 5.97061 7.91498 5.3767C8.10878 5.1829 8.29633 4.98285 8.50264 4.8078C8.75895 4.59525 8.85273 4.33893 8.74645 4.0326C8.56515 3.48246 7.90873 3.33867 7.48362 3.76378C6.83345 4.4077 6.18953 5.05787 5.53937 5.70804ZM13.4852 11.9972C14.3041 11.9972 15.1231 12.0034 15.9483 11.9972C16.4172 11.9972 16.7485 11.6908 16.7548 11.2657C16.761 10.8281 16.4297 10.4968 15.9546 10.4968C14.3229 10.4905 12.6912 10.4905 11.0596 10.503C10.9095 10.503 10.747 10.5468 10.6157 10.6218C10.3219 10.7781 10.1968 11.1219 10.2844 11.447C10.3656 11.7659 10.6407 11.9972 10.9845 11.9972C11.816 11.9972 12.6537 11.9972 13.4852 11.9972ZM13.4914 6.49574C14.3041 6.49574 15.1169 6.49574 15.9296 6.49574C16.4109 6.49574 16.7485 6.18941 16.7548 5.75805C16.761 5.31418 16.4172 5.0016 15.9296 5.0016C14.3104 5.0016 12.6975 5.0016 11.0783 5.0016C10.5969 5.0016 10.2593 5.30793 10.2531 5.7393C10.2468 6.17691 10.5969 6.49574 11.0846 6.50199C11.8848 6.50199 12.6912 6.49574 13.4914 6.49574ZM13.5039 16.0045C12.6975 16.0045 11.8973 16.0045 11.0908 16.0045C10.9595 16.0045 10.822 16.017 10.7032 16.067C10.3781 16.192 10.2031 16.5484 10.2656 16.8859C10.3406 17.2673 10.6344 17.5049 11.0596 17.5049C12.685 17.5049 14.3104 17.5111 15.9358 17.5049C16.4172 17.5049 16.7485 17.186 16.7548 16.7547C16.7548 16.3233 16.4234 16.0107 15.9421 16.0045C15.1294 16.0045 14.3167 16.0045 13.5039 16.0045Z" fill="#4D4D4D"/>
</svg>
