<svg width="24" height="25" viewBox="0 0 24 25" fill="none" xmlns="http://www.w3.org/2000/svg">
<g clip-path="url(#clip0_62_4792)">
<path d="M11.9885 0C17.5481 0.028766 22.387 3.87191 23.6682 9.30868C25.2068 15.8271 21.2431 22.3109 14.7454 23.8643C12.2631 24.4569 9.82075 24.2555 7.45278 23.2832C7.25259 23.2027 7.07528 23.1797 6.85221 23.2429C5.09625 23.732 3.34029 24.198 1.58433 24.6697C0.857928 24.8711 0.228757 24.5086 0.074324 23.7722C0.0342858 23.5709 0.074324 23.335 0.131521 23.1279C0.560501 21.4767 1.00092 19.8313 1.4299 18.1801C1.46422 18.0536 1.45278 17.8925 1.39558 17.7774C0.663457 16.3909 0.200158 14.9181 0.0571648 13.3647C-0.251701 9.97606 0.646297 6.94412 2.83124 4.32641C4.70731 2.08266 7.1096 0.71915 9.97518 0.207115C10.6387 0.0920513 11.3193 0.0690385 11.9885 0ZM2.47089 22.3052C4.0095 21.8852 5.47375 21.494 6.93228 21.0912C7.21827 21.0107 7.4585 21.0337 7.72733 21.166C9.83219 22.1671 12.0343 22.3972 14.2879 21.8679C19.4699 20.6483 22.7473 15.5509 21.7807 10.2522C20.8084 4.89022 15.6206 1.28296 10.2783 2.25526C7.63581 2.73277 5.51379 4.07327 3.94086 6.24798C2.30502 8.50324 1.75021 11.0462 2.18491 13.8019C2.3851 15.0561 2.83124 16.2355 3.49472 17.3229C3.632 17.5473 3.67204 17.7716 3.59768 18.0305C3.34601 18.9395 3.1115 19.8543 2.87127 20.7691C2.73972 21.2581 2.61389 21.7529 2.47089 22.3052Z" fill="#0073aa"/>
<path d="M9.79738 9.80903C9.09386 9.72273 8.41893 9.63643 7.6582 9.53863C7.76116 9.14741 7.81264 8.74469 7.96707 8.39374C8.53332 7.11078 9.54572 6.36861 10.907 6.11547C11.9423 5.91986 12.9776 5.96014 13.9613 6.35135C15.1511 6.82887 15.9976 7.64583 16.255 8.95756C16.438 9.91259 16.152 10.7468 15.4828 11.4257C14.9509 11.9722 14.3732 12.4728 13.8069 12.9848C13.3779 13.3703 13.0062 13.7787 12.989 14.4001C12.9833 14.6187 12.9718 14.8373 12.9604 15.0732C12.274 15.0732 11.6048 15.0732 10.9013 15.0732C10.8384 14.0491 10.8784 13.0481 11.6449 12.2656C12.2569 11.6385 12.949 11.092 13.5838 10.4879C14.2416 9.86081 14.2416 8.92304 13.5724 8.30744C12.9432 7.72637 12.1882 7.68034 11.4046 7.87595C10.5867 8.08307 10.1463 8.68716 9.90034 9.45233C9.8603 9.55589 9.83742 9.67095 9.79738 9.80903Z" fill="#0073aa"/>
<path d="M10.9199 15.9077C11.6864 15.9077 12.4242 15.9077 13.1792 15.9077C13.1792 16.6614 13.1792 17.4093 13.1792 18.1745C12.4357 18.1745 11.6921 18.1745 10.9199 18.1745C10.9199 17.4323 10.9199 16.6786 10.9199 15.9077Z" fill="#0073aa"/>
</g>
<defs>
<clipPath id="clip0_62_4792">
<rect width="24" height="24.7273" fill="white"/>
</clipPath>
</defs>
</svg>
