<svg width="24" height="24" viewBox="0 0 24 24" fill="#0073aa" xmlns="http://www.w3.org/2000/svg">
<path d="M0 11.1813C2.7076 9.09362 5.42105 7.01175 8.12866 4.92403C9.40351 3.94157 10.6842 2.95912 11.9766 1.96497C13.6667 3.26321 15.3509 4.56146 17.076 5.88894C17.076 5.32169 17.076 4.78953 17.076 4.23982C18.2398 4.23982 19.3801 4.23982 20.5556 4.23982C20.5556 4.32169 20.5556 4.40356 20.5556 4.48543C20.5556 5.77783 20.5556 7.07608 20.5497 8.36847C20.5497 8.51467 20.5965 8.60824 20.7135 8.69596C21.731 9.46789 22.7427 10.2515 23.7544 11.0293C23.8129 11.0761 23.8713 11.1229 23.9474 11.1813C23.3977 11.9006 22.8538 12.6082 22.2982 13.3217C18.8596 10.6726 15.4269 8.03514 11.9766 5.38017C8.54386 8.02345 5.10526 10.6667 1.65497 13.3217C1.20468 12.7369 0.760234 12.1579 0.315789 11.579C0.216374 11.462 0.105263 11.3451 0 11.2281C0 11.2106 0 11.1989 0 11.1813Z" fill="#0073aa"/>
<path d="M13.8713 21.9767C13.8713 19.9006 13.8713 17.848 13.8713 15.7778C12.7017 15.7778 11.5438 15.7778 10.3684 15.7778C10.3684 17.8363 10.3684 19.9006 10.3684 21.9767C8.15787 21.9767 5.95904 21.9767 3.74266 21.9767C3.74266 21.9065 3.74266 21.8422 3.74266 21.772C3.74266 19.0819 3.74266 16.3919 3.73682 13.7018C3.73682 13.5439 3.7836 13.4504 3.90641 13.3568C6.54968 11.3275 9.19296 9.29246 11.8362 7.26322C11.8772 7.22813 11.924 7.19889 11.9766 7.15796C12.6666 7.69012 13.3567 8.22229 14.0468 8.7486C16.0526 10.2925 18.0585 11.8363 20.0643 13.386C20.1345 13.4445 20.2047 13.5556 20.2047 13.6433C20.2105 16.3977 20.2105 19.1463 20.2105 21.9006C20.2105 21.924 20.2047 21.9474 20.1988 21.9767C18.0994 21.9767 16 21.9767 13.8713 21.9767Z" fill="#0073aa"/>
</svg>
