<svg width="24" height="24" viewBox="0 0 24 24" fill="none" xmlns="http://www.w3.org/2000/svg">
<g clip-path="url(#clip0_497_466)">
<path d="M18.55 8.54374C18.0375 8.46874 17.5687 8.39374 17.1 8.33124C16.6312 8.26874 16.1562 8.21249 15.6562 8.14999C15.6875 8.63124 15.7187 9.10624 15.75 9.53749C15.4312 9.63124 15.125 9.68124 14.8562 9.81249C14.5875 9.94374 14.3562 10.15 14.1312 10.3125C14.0875 9.58749 14.0375 8.81249 13.9875 8.02499C11.6437 7.88749 9.33121 7.85624 6.99996 8.02499C6.96246 8.29999 6.91246 8.57499 6.89371 8.85624C6.81246 10.0562 6.82496 11.2562 6.97496 12.4562C6.99996 12.6437 7.10621 12.6437 7.22496 12.6437C8.13121 12.6687 9.03746 12.6937 9.94371 12.7125C10.2125 12.7187 10.4875 12.7125 10.7937 12.7125C10.5187 13.275 10.4437 13.8312 10.7875 14.3875C9.62496 14.3875 8.49371 14.3875 7.34996 14.3875C7.58121 15.3187 7.93746 16.2187 8.46871 17.0437C9.00621 17.8875 9.81246 18.425 10.6187 19.0187C10.4375 19.3687 10.275 19.775 10.425 20.3125C9.74371 20.2312 9.09371 20.2062 8.46871 20.075C4.93121 19.3187 2.44996 17.2437 1.21246 13.8562C-0.512536 9.09374 1.58121 4.06874 5.85621 1.81249C9.30621 -0.00625801 13.8312 0.287492 16.9437 2.93749C19.1687 4.83124 20.35 7.23124 20.3937 10.175C20.3937 10.2312 20.3937 10.2812 20.3937 10.3625C19.85 10.1125 19.3125 9.95624 18.7375 10.2187C18.675 9.64999 18.6125 9.09999 18.55 8.54374ZM13.7187 6.43749C13.6437 6.19374 13.5812 5.93749 13.4937 5.69374C13.15 4.69999 12.7187 3.75624 11.9625 2.99374C11.0437 2.07499 10.075 2.06874 9.16246 2.99374C8.21246 3.95624 7.79371 5.19374 7.39371 6.43749C9.51246 6.43749 11.6062 6.43749 13.7187 6.43749ZM2.51246 8.58124C2.25621 9.74374 2.23121 10.8812 2.44996 12.0312C2.48121 12.1937 2.55621 12.2625 2.71871 12.2812C3.08746 12.325 3.45621 12.4062 3.83121 12.45C4.34371 12.5062 4.84996 12.5375 5.38121 12.5812C5.19996 11.1062 5.22496 9.66874 5.38121 8.19374C4.40621 8.32499 3.45621 8.45624 2.51246 8.58124ZM5.63121 14.3687C4.79996 14.2687 3.97496 14.175 3.14371 14.075C3.61871 15.4062 5.54371 17.3 6.91871 17.7937C6.66871 17.2375 6.39996 16.6875 6.18121 16.1187C5.97496 15.55 5.81871 14.9562 5.63121 14.3687ZM17.9562 6.88749C17.6125 5.68124 15.0437 3.19374 14.1625 3.21249C14.75 4.21874 15.1437 5.29374 15.4062 6.41874C15.4437 6.57499 15.4937 6.64374 15.6562 6.64999C15.8562 6.64999 16.0625 6.66874 16.2625 6.69374C16.825 6.74999 17.3875 6.81874 17.9562 6.88749ZM6.92496 3.19999C5.25621 4.01249 3.97496 5.21249 3.13121 6.88749C3.98746 6.79374 4.82496 6.69999 5.66246 6.60624C5.89996 5.40624 6.35621 4.28749 6.92496 3.19999Z" fill="#1E62B9"/>
<path d="M11.1436 15.4375C11.3124 15.4375 11.4874 15.4563 11.6561 15.4313C11.9686 15.3875 12.1499 15.175 12.2124 14.875C12.2749 14.5938 12.1249 14.4 11.9061 14.2438C11.4936 13.9438 11.4186 13.6625 11.7311 13.2625C12.0499 12.8625 12.4186 12.5 12.7936 12.15C13.0374 11.925 13.2686 11.95 13.5374 12.1438C13.6311 12.2125 13.7186 12.2938 13.8061 12.3688C14.0374 12.575 14.2874 12.575 14.5436 12.4438C14.7999 12.3125 14.9374 12.1063 14.9124 11.8C14.8499 11.05 15.1561 10.7188 15.9186 10.6875C16.2561 10.675 16.5874 10.6563 16.9249 10.6438C17.2561 10.6313 17.4749 10.8125 17.5249 11.1375C17.5436 11.2625 17.5624 11.3875 17.5874 11.5063C17.6561 11.8125 17.8249 11.9688 18.1249 12.0125C18.4311 12.0563 18.6561 11.9438 18.8061 11.675C19.0936 11.1563 19.3436 11.0375 19.8749 11.3063C20.3249 11.5313 20.7374 11.8313 21.1436 12.1313C21.4061 12.325 21.4061 12.55 21.2311 12.8375C21.1811 12.9188 21.1249 12.9938 21.0811 13.075C20.9186 13.35 20.9436 13.6438 21.1499 13.875C21.3624 14.1125 21.6311 14.1813 21.9311 14.0625C22.0061 14.0313 22.0749 14 22.1436 13.975C22.4061 13.8813 22.5936 13.9313 22.7624 14.15C22.8311 14.2438 22.8999 14.3438 22.9374 14.45C23.0749 14.8813 23.2186 15.3063 23.3311 15.7438C23.4499 16.2063 23.3249 16.3875 22.8686 16.5125C22.7624 16.5438 22.6561 16.5688 22.5561 16.6125C22.3124 16.725 22.1811 16.9688 22.2061 17.2688C22.2249 17.5375 22.3499 17.7625 22.6124 17.8063C23.2874 17.9188 23.3624 18.4 23.1811 18.9813C23.0749 19.3063 22.9436 19.625 22.8061 19.9375C22.5936 20.4125 22.2999 20.5188 21.8249 20.3C21.5311 20.1688 21.2686 20.175 21.0124 20.375C20.7311 20.5938 20.6749 20.95 20.8686 21.25C21.1686 21.7063 21.1124 22.0438 20.6311 22.3063C20.2186 22.5375 19.7811 22.7313 19.3436 22.9125C18.9999 23.0563 18.7936 22.9563 18.6061 22.625C18.5436 22.5125 18.4811 22.3875 18.3999 22.2875C18.2061 22.0375 17.9436 21.9688 17.6499 22.05C17.3749 22.125 17.2249 22.3125 17.1811 22.6C17.0874 23.1813 16.8311 23.3563 16.2561 23.25C15.8811 23.1813 15.5061 23.1188 15.1311 23.0313C14.9686 22.9938 14.8061 22.9188 14.6686 22.825C14.4999 22.7125 14.4374 22.5438 14.4936 22.3313C14.5311 22.1875 14.5686 22.0438 14.5686 21.8938C14.5686 21.4188 14.0374 21.0688 13.6061 21.2625C13.4811 21.3188 13.3686 21.4063 13.2561 21.4938C12.9499 21.725 12.7374 21.725 12.4374 21.4875C12.3686 21.4375 12.2999 21.3813 12.2499 21.3125C11.9936 20.9875 11.7249 20.6688 11.4936 20.3313C11.2124 19.9188 11.2686 19.625 11.6686 19.3313C11.9249 19.1375 12.0874 18.9188 11.9999 18.575C11.9124 18.25 11.6811 18.05 11.3436 18.0563C10.8124 18.075 10.5124 18.0438 10.5061 17.2125C10.5061 16.8313 10.5061 16.4438 10.5499 16.0688C10.5999 15.6375 10.8436 15.4125 11.1436 15.4375ZM16.9936 19.1375C18.2686 19.1813 19.1499 18.15 19.1686 17.0188C19.1874 15.85 18.2061 14.8313 17.0686 14.8188C15.8311 14.8063 14.7436 15.8 14.7374 16.9375C14.7311 18.1438 15.7311 19.125 16.9936 19.1375Z" fill="#1E62B9"/>
</g>
<defs>
<clipPath id="clip0_497_466">
<rect width="24" height="24" fill="white"/>
</clipPath>
</defs>
</svg>
