<svg width="198" height="160" viewBox="0 0 198 160" fill="none" xmlns="http://www.w3.org/2000/svg">
<path d="M4.07227 155.854C4.07227 155.854 15.6558 113.411 29.4941 113.411C43.3324 113.411 41.785 130.742 60.354 130.742C78.923 130.742 83.1673 79.3677 103.284 79.3677C123.4 79.3677 114.381 120.971 129.236 120.971C144.091 120.971 148.91 109.034 161.378 109.034C173.846 109.034 191.398 155.81 191.398 155.81L4.07227 155.854Z" fill="#D6E2FF"/>
<path d="M188.87 58.7627L189.707 56.1851L186.402 55.1121C186.676 53.5937 186.532 52.0126 186.037 50.61L189.189 49.0033L187.94 46.5518L184.875 48.1139C184.031 46.8899 182.836 45.8443 181.446 45.1739L182.519 41.8693L179.942 41.0323L178.869 44.3369C177.35 44.0631 175.769 44.2072 174.367 44.7016L172.804 41.6372L170.353 42.8869L171.915 45.9512C170.691 46.7958 169.646 47.9906 168.975 49.3802L165.67 48.3072L164.833 50.8848L168.138 51.9578C167.864 53.4762 168.008 55.0573 168.503 56.4599L165.438 58.022L166.688 60.4735L169.752 58.9114C170.597 60.1354 171.792 61.1809 173.181 61.8513L172.108 65.1559L174.686 65.9929L175.759 62.6883C177.277 62.9622 178.858 62.818 180.261 62.3237L181.823 65.388L184.253 64.2045L182.691 61.1401C183.915 60.2955 184.961 59.1008 185.631 57.7111L188.87 58.7627ZM175.489 59.0206C172.449 58.0334 170.797 54.7939 171.784 51.7537C172.772 48.7134 176.011 47.0621 179.051 48.0493C182.092 49.0365 183.743 52.276 182.756 55.3162C181.768 58.3565 178.529 60.0078 175.489 59.0206Z" fill="#B9D8FF"/>
<path d="M173.009 40.2566L174.189 36.6216L169.563 35.1193C169.897 32.9631 169.727 30.7889 169.052 28.8164L173.342 26.6295L171.602 23.2149L167.311 25.4019C166.112 23.6971 164.452 22.2817 162.511 21.2859L164.013 16.6595L160.444 15.5006L158.942 20.127C156.786 19.7922 154.612 19.9629 152.639 20.6375L150.452 16.3474L147.038 18.088L149.224 22.3781C147.52 23.578 146.104 25.2371 145.108 27.1787L140.482 25.6764L139.302 29.3115L143.928 30.8138C143.593 32.9699 143.764 35.1441 144.439 37.1166L140.149 39.3036L141.889 42.7181L146.179 40.5312C147.379 42.2359 149.038 43.6514 150.98 44.6472L149.478 49.2736L153.113 50.454L154.615 45.8275C156.771 46.1624 158.945 45.9916 160.918 45.317L163.105 49.6071L166.519 47.8665L164.332 43.5764C166.037 42.3765 167.453 40.7174 168.448 38.7758L173.009 40.2566ZM154.245 40.6663C150.015 39.2927 147.694 34.74 149.068 30.5101C150.441 26.2802 154.994 23.9594 159.224 25.3329C163.454 26.7064 165.775 31.2592 164.401 35.4891C163.028 39.719 158.475 42.0398 154.245 40.6663Z" fill="#1E62B9"/>
<path d="M167.424 133.501H27.1827C24.8688 133.501 23.0507 131.576 23.0507 129.126V37.5127C23.0507 35.0627 24.8688 33.1377 27.1827 33.1377H167.424C169.738 33.1377 171.556 35.0627 171.556 37.5127V129.214C171.556 131.576 169.738 133.501 167.424 133.501Z" fill="#1E62B9"/>
<path d="M165.078 128.605H29.5288C28.2056 128.605 27.1304 127.464 27.1304 126.059V39.7632C27.1304 38.3586 28.2056 37.2173 29.5288 37.2173H165.078C166.401 37.2173 167.476 38.3586 167.476 39.7632V126.059C167.476 127.464 166.401 128.605 165.078 128.605Z" fill="#B9D8FF"/>
<path d="M154.887 44.561H39.6771C37.468 44.561 35.6771 46.3519 35.6771 48.561V118.077C35.6771 120.287 37.468 122.077 39.6771 122.077H154.887C157.097 122.077 158.887 120.287 158.887 118.077V48.561C158.887 46.3519 157.097 44.561 154.887 44.561Z" fill="white"/>
<path d="M98.3213 94.7475L100.553 92.5026C100.989 92.0629 101.233 91.4677 101.231 90.8481C101.229 90.2284 100.981 89.6349 100.541 89.1983C100.102 88.7616 99.5065 88.5175 98.8868 88.5196C98.2671 88.5218 97.6737 88.77 97.237 89.2097L95.0056 91.4547L92.0799 88.5492L94.3113 86.3042C94.748 85.8645 94.9921 85.2694 94.99 84.6497C94.9878 84.03 94.7396 83.4366 94.2999 82.9999C93.8602 82.5632 93.2651 82.3191 92.6454 82.3213C92.0257 82.3234 91.4323 82.5716 90.9956 83.0113L88.7642 85.2563L85.7391 82.2559C85.2994 81.8192 84.7042 81.5751 84.0846 81.5772C83.4649 81.5794 82.8714 81.8276 82.4348 82.2673C81.9981 82.707 81.754 83.3021 81.7561 83.9218C81.7583 84.5415 82.0065 85.135 82.4462 85.5716L83.1308 86.2476L79.1677 90.244C77.8601 91.5608 77.1291 93.3431 77.1355 95.1988C77.1419 97.0546 77.8852 98.8317 79.2019 100.139L79.6993 100.631L74.7444 105.619C74.3078 106.058 74.0637 106.654 74.0658 107.273C74.0679 107.893 74.3162 108.486 74.7559 108.923C75.1955 109.36 75.7907 109.604 76.4104 109.602C77.0301 109.6 77.6235 109.351 78.0602 108.912L83.013 103.922L83.5085 104.416C84.8267 105.721 86.6085 106.45 88.4632 106.444C90.318 106.437 92.0947 105.696 93.4039 104.382L97.3689 100.388L98.0535 101.069C98.4932 101.506 99.0884 101.75 99.708 101.748C100.328 101.746 100.921 101.498 101.358 101.058C101.794 100.618 102.039 100.023 102.036 99.4036C102.034 98.7839 101.786 98.1904 101.346 97.7538L98.3213 94.7475ZM90.0901 101.091C89.8742 101.309 89.6173 101.483 89.3342 101.602C89.0511 101.72 88.7473 101.782 88.4403 101.783C88.1334 101.784 87.8292 101.724 87.5453 101.608C87.2613 101.491 87.0033 101.319 86.7858 101.103L82.489 96.8296C82.2708 96.6136 82.0974 96.3567 81.9787 96.0736C81.86 95.7905 81.7983 95.4868 81.7973 95.1798C81.7962 94.8728 81.8557 94.5686 81.9725 94.2847C82.0892 94.0008 82.2609 93.7427 82.4776 93.5253L86.4465 89.5405L94.0532 97.0948L90.0901 101.091ZM118.344 65.0344C118.127 64.8177 117.868 64.6461 117.585 64.5294C117.301 64.4126 116.996 64.3531 116.689 64.3541C116.383 64.3552 116.079 64.4168 115.796 64.5355C115.513 64.6542 115.256 64.8277 115.04 65.0459L110.081 70.039L109.586 69.545C108.268 68.2398 106.486 67.5104 104.631 67.5168C102.776 67.5232 100.999 68.2649 99.6902 69.5792L95.7212 73.5698L95.0366 72.888C94.5969 72.4513 94.0018 72.2072 93.3821 72.2094C92.7624 72.2115 92.169 72.4597 91.7323 72.8994C91.2957 73.3391 91.0515 73.9343 91.0537 74.5539C91.0558 75.1736 91.3041 75.7671 91.7437 76.2037L107.347 91.6997C107.787 92.1363 108.382 92.3804 109.002 92.3783C109.621 92.3762 110.215 92.1279 110.651 91.6882C111.088 91.2486 111.332 90.6534 111.33 90.0337C111.328 89.414 111.08 88.8206 110.64 88.3839L109.959 87.7099L113.928 83.7134C115.236 82.3967 115.967 80.6144 115.96 78.7586C115.954 76.9029 115.211 75.1257 113.894 73.818L113.397 73.326L118.352 68.3388C118.567 68.121 118.738 67.8629 118.854 67.5791C118.97 67.2953 119.029 66.9915 119.027 66.685C119.025 66.3785 118.963 66.0753 118.845 65.7927C118.726 65.5102 118.552 65.2538 118.334 65.0384L118.344 65.0344ZM110.622 80.4166L106.644 84.417L99.037 76.8627L103.006 72.8663C103.222 72.6481 103.479 72.4747 103.762 72.356C104.045 72.2373 104.349 72.1756 104.656 72.1745C104.963 72.1735 105.267 72.233 105.551 72.3498C105.835 72.4665 106.093 72.6382 106.31 72.8549L110.613 77.1279C110.831 77.3438 111.004 77.6007 111.123 77.8838C111.242 78.1669 111.304 78.4707 111.305 78.7776C111.306 79.0846 111.246 79.3888 111.129 79.6727C111.013 79.9566 110.841 80.2147 110.624 80.4322L110.622 80.4166Z" fill="#1E62B9"/>
<path d="M77.1917 66.7619C77.0681 66.8132 76.9568 66.888 76.8642 66.982C76.7713 67.0757 76.6989 67.1869 76.6512 67.309C76.6034 67.4312 76.5813 67.562 76.586 67.6939C76.5907 67.8258 76.6221 67.9563 76.6785 68.0778C76.735 68.1994 76.8152 68.3096 76.9148 68.4021L78.9544 70.2931C79.0537 70.3858 79.1703 70.459 79.2976 70.5088C79.4248 70.5585 79.5602 70.5837 79.696 70.5829C79.8318 70.582 79.9653 70.5553 80.0889 70.5041C80.2126 70.4529 80.3239 70.3782 80.4166 70.2844C80.5093 70.1906 80.5815 70.0794 80.6292 69.9573C80.6768 69.8351 80.6989 69.7044 80.6942 69.5725C80.6895 69.4407 80.6581 69.3103 80.6018 69.1887C80.5455 69.0672 80.4654 68.957 80.366 68.8643L78.3264 66.9733C78.2272 66.8805 78.1106 66.807 77.9834 66.7572C77.8561 66.7073 77.7207 66.6821 77.5848 66.6829C77.449 66.6837 77.3154 66.7106 77.1917 66.7619Z" fill="#1E62B9"/>
<path d="M86.6524 65.5611C86.544 65.4825 86.422 65.4266 86.2935 65.3968C86.1651 65.3666 86.0325 65.3629 85.9034 65.3861C85.7743 65.4092 85.6512 65.4586 85.5412 65.5316C85.4311 65.6045 85.3363 65.6995 85.2622 65.8111C85.1881 65.9227 85.136 66.0488 85.1091 66.182L84.5626 68.9091C84.5355 69.0422 84.5339 69.1799 84.558 69.3144C84.5821 69.4489 84.6314 69.5775 84.7031 69.6928C84.7747 69.8082 84.8673 69.908 84.9756 69.9867C85.0838 70.0654 85.2057 70.1213 85.3341 70.1513C85.4625 70.1813 85.595 70.1848 85.724 70.1616C85.8531 70.1384 85.9761 70.0889 86.086 70.016C86.196 69.9431 86.2908 69.8482 86.365 69.7367C86.4392 69.6252 86.4914 69.4992 86.5185 69.3661L87.065 66.639C87.0923 66.5059 87.094 66.3681 87.07 66.2336C87.046 66.099 86.9968 65.9704 86.9251 65.855C86.8534 65.7396 86.7607 65.6397 86.6524 65.5611Z" fill="#1E62B9"/>
<path d="M76.0085 73.8431C75.9246 73.9475 75.8629 74.0666 75.8268 74.1935C75.7903 74.3203 75.7801 74.4525 75.7969 74.5826C75.8136 74.7127 75.857 74.8381 75.9244 74.9515C75.9918 75.065 76.0821 75.1644 76.1899 75.2439C76.2978 75.3235 76.4211 75.3816 76.5528 75.415L79.2497 76.0949C79.3814 76.1285 79.5189 76.1369 79.6544 76.1194C79.7898 76.1019 79.9207 76.059 80.0394 75.9932C80.1582 75.9273 80.2624 75.8397 80.3463 75.7354C80.4302 75.6312 80.4921 75.5122 80.5284 75.3854C80.5647 75.2586 80.5747 75.1265 80.5578 74.9965C80.541 74.8665 80.4976 74.7412 80.4302 74.6277C80.3628 74.5143 80.2726 74.4149 80.1649 74.3354C80.0572 74.2558 79.934 74.1975 79.8024 74.1639L77.1054 73.484C76.9738 73.4502 76.8363 73.4417 76.7007 73.459C76.5651 73.4764 76.4342 73.5193 76.3154 73.5852C76.1966 73.6511 76.0923 73.7388 76.0085 73.8431Z" fill="#1E62B9"/>
<path d="M116.407 106.082C116.532 106.031 116.643 105.956 116.736 105.862C116.83 105.768 116.902 105.657 116.95 105.535C116.998 105.413 117.02 105.282 117.016 105.15C117.011 105.018 116.979 104.887 116.923 104.766C116.866 104.644 116.786 104.534 116.686 104.441L114.637 102.549C114.538 102.457 114.421 102.383 114.293 102.334C114.165 102.284 114.029 102.259 113.893 102.259C113.756 102.26 113.622 102.287 113.498 102.338C113.374 102.389 113.262 102.464 113.169 102.558C113.076 102.652 113.004 102.763 112.956 102.885C112.908 103.007 112.886 103.138 112.89 103.27C112.895 103.402 112.927 103.533 112.983 103.654C113.04 103.776 113.12 103.886 113.22 103.979L115.268 105.871C115.368 105.964 115.485 106.037 115.613 106.087C115.74 106.137 115.876 106.162 116.013 106.161C116.149 106.16 116.283 106.134 116.407 106.082Z" fill="#1E62B9"/>
<path d="M106.907 107.283C107.016 107.362 107.139 107.418 107.268 107.448C107.397 107.478 107.53 107.482 107.659 107.459C107.789 107.435 107.913 107.386 108.023 107.313C108.134 107.24 108.229 107.145 108.303 107.033C108.378 106.922 108.43 106.796 108.457 106.662L109.006 103.934C109.033 103.801 109.035 103.663 109.01 103.528C108.986 103.394 108.937 103.265 108.865 103.15C108.793 103.034 108.7 102.934 108.591 102.856C108.482 102.777 108.36 102.721 108.231 102.691C108.102 102.661 107.969 102.658 107.84 102.681C107.71 102.704 107.586 102.753 107.476 102.826C107.366 102.899 107.27 102.994 107.196 103.106C107.121 103.217 107.069 103.343 107.042 103.477L106.493 106.205C106.465 106.338 106.464 106.476 106.488 106.611C106.512 106.745 106.561 106.874 106.633 106.989C106.705 107.105 106.798 107.205 106.907 107.283Z" fill="#1E62B9"/>
<path d="M117.596 98.9976C117.68 98.8931 117.742 98.774 117.778 98.647C117.815 98.5202 117.825 98.3879 117.808 98.2577C117.791 98.1276 117.748 98.0022 117.68 97.8886C117.612 97.7751 117.522 97.6757 117.413 97.5961C117.305 97.5165 117.181 97.4584 117.049 97.4249L114.341 96.7447C114.209 96.7111 114.071 96.7028 113.935 96.7203C113.799 96.7377 113.667 96.7806 113.548 96.8466C113.429 96.9125 113.324 97.0001 113.24 97.1044C113.155 97.2087 113.093 97.3277 113.057 97.4546C113.02 97.5814 113.01 97.7137 113.027 97.8437C113.044 97.9738 113.088 98.0992 113.156 98.2127C113.223 98.3261 113.314 98.4255 113.422 98.5052C113.53 98.5848 113.654 98.6431 113.786 98.6767L116.494 99.3569C116.626 99.3907 116.764 99.3992 116.901 99.3818C117.037 99.3645 117.168 99.3216 117.287 99.2556C117.407 99.1897 117.511 99.102 117.596 98.9976Z" fill="#1E62B9"/>
<path d="M156.5 44.561H37.29C36.1855 44.561 35.29 45.4565 35.29 46.561V53.5366H158.5V46.561C158.5 45.4565 157.605 44.561 156.5 44.561Z" fill="#1E62B9"/>
<path d="M115.05 133.137H79.6533V149.347H115.05V133.137Z" fill="#1A5DB3"/>
<path d="M137.793 154.971H56.9095C55.4208 154.971 54.1803 153.73 54.1803 152.242V152.076C54.1803 150.588 55.4208 149.347 56.9095 149.347H137.793C139.281 149.347 140.522 150.588 140.522 152.076V152.242C140.522 153.73 139.281 154.971 137.793 154.971Z" fill="#1E62B9"/>
<path d="M104.273 13.227L104.936 13.448C105.246 13.5365 105.246 13.9786 104.936 14.067L104.273 14.2881C103.433 14.5533 102.814 15.2165 102.549 16.0123L102.328 16.6755C102.239 16.985 101.797 16.985 101.709 16.6755L101.488 16.0123C101.223 15.1723 100.559 14.5533 99.7636 14.2881L99.1005 14.067C98.791 13.9786 98.791 13.5365 99.1005 13.448L99.7636 13.227C100.604 12.9617 101.223 12.2985 101.488 11.5027L101.709 10.8395C101.797 10.5301 102.239 10.5301 102.328 10.8395L102.549 11.5027C102.814 12.2985 103.433 12.9617 104.273 13.227Z" fill="#B7CDFF"/>
<path d="M108.694 18.798L109.18 18.9749C109.402 19.0633 109.402 19.3728 109.18 19.417L108.694 19.5939C108.075 19.7707 107.589 20.257 107.412 20.876L107.235 21.3623C107.147 21.5834 106.837 21.5834 106.793 21.3623L106.616 20.876C106.439 20.257 105.953 19.7707 105.334 19.5939L104.848 19.417C104.627 19.3286 104.627 19.0191 104.848 18.9749L105.334 18.798C105.953 18.6212 106.439 18.1349 106.616 17.5159L106.793 17.0296C106.881 16.8085 107.191 16.8085 107.235 17.0296L107.412 17.5159C107.633 18.1349 108.075 18.577 108.694 18.798Z" fill="#B7CDFF"/>
<path d="M31.8837 18.841L32.3701 19.0179C32.5911 19.1063 32.5911 19.4158 32.3701 19.46L31.8837 19.6368C31.2648 19.8137 30.7785 20.3 30.6016 20.919L30.4248 21.4053C30.3363 21.6264 30.0268 21.6264 29.9826 21.4053L29.8058 20.919C29.6289 20.3 29.1426 19.8137 28.5236 19.6368L28.0373 19.46C27.8163 19.3716 27.8163 19.0621 28.0373 19.0179L28.5236 18.841C29.1426 18.6642 29.6289 18.1778 29.8058 17.5589L29.9826 17.0725C30.0711 16.8515 30.3805 16.8515 30.4248 17.0725L30.6016 17.5589C30.7785 18.1336 31.2648 18.6199 31.8837 18.841Z" fill="#B7CDFF"/>
<path d="M11.5529 111.217L12.0393 111.394C12.2603 111.483 12.2603 111.792 12.0393 111.836L11.5529 112.013C10.934 112.19 10.4476 112.676 10.2708 113.295L10.0939 113.782C10.0055 114.003 9.69604 114.003 9.65183 113.782L9.47498 113.295C9.29813 112.676 8.8118 112.19 8.19284 112.013L7.70651 111.836C7.48545 111.748 7.48545 111.439 7.70651 111.394L8.19284 111.217C8.8118 111.041 9.29813 110.554 9.47498 109.935L9.65183 109.449C9.74025 109.228 10.0497 109.228 10.0939 109.449L10.2708 109.935C10.4919 110.554 10.934 111.041 11.5529 111.217Z" fill="#B7CDFF"/>
<path d="M180.215 75.3874L180.701 75.5642C180.922 75.6527 180.922 75.9621 180.701 76.0064L180.215 76.1832C179.596 76.3601 179.109 76.8464 178.932 77.4653L178.756 77.9517C178.667 78.1727 178.358 78.1727 178.313 77.9517L178.137 77.4653C177.96 76.8464 177.473 76.3601 176.854 76.1832L176.368 76.0064C176.147 75.9179 176.147 75.6085 176.368 75.5642L176.854 75.3874C177.473 75.2105 177.96 74.7242 178.137 74.1053L178.313 73.6189C178.402 73.3979 178.711 73.3979 178.756 73.6189L178.932 74.1053C179.109 74.68 179.596 75.1663 180.215 75.3874Z" fill="#B7CDFF"/>
<path d="M195.846 159.612H2.10966C1.18121 159.612 0.473816 158.86 0.473816 157.976V157.49C0.473816 156.561 1.22542 155.854 2.10966 155.854H195.89C196.819 155.854 197.526 156.606 197.526 157.49V157.976C197.526 158.86 196.775 159.612 195.846 159.612Z" fill="#EDF5FF"/>
<ellipse cx="54.6616" cy="1.04974" rx="1.04974" ry="1.04974" fill="white"/>
<ellipse cx="58.8607" cy="1.04974" rx="1.04974" ry="1.04974" fill="white"/>
<ellipse cx="63.0596" cy="1.04974" rx="1.04974" ry="1.04974" fill="white"/>
</svg>
