<svg width="27" height="24" viewBox="0 0 27 24" fill="none" xmlns="http://www.w3.org/2000/svg">
<g clip-path="url(#clip0_70_2026)">
<path d="M2.02837 20.545L3.2116 22.5887C3.45747 23.019 3.81086 23.3571 4.22578 23.603C5.41425 22.0944 6.24136 20.9368 6.70753 20.1301C7.18051 19.3115 7.76185 18.0309 8.45156 16.2885C6.59277 16.0438 5.18421 15.9215 4.22589 15.9215C3.30603 15.9215 1.89747 16.0438 0 16.2885C0 16.7649 0.122934 17.2412 0.368803 17.6715L2.02837 20.545Z" fill="#0066DA"/>
<path d="M22.6042 23.603C23.0192 23.3571 23.3726 23.019 23.6184 22.5888L24.1101 21.7437L26.4613 17.6715C26.7026 17.2505 26.8297 16.7738 26.83 16.2885C24.9215 16.0438 23.5155 15.9215 22.6119 15.9215C21.6408 15.9215 20.2348 16.0438 18.3938 16.2885C19.0753 18.0404 19.649 19.321 20.1149 20.1301C20.5847 20.9464 21.4144 22.104 22.6042 23.603Z" fill="#EA4335"/>
<path d="M13.415 7.68325C14.79 6.02264 15.7376 4.74204 16.2578 3.84168C16.6767 3.11665 17.1377 1.95899 17.6408 0.368804C17.2259 0.122935 16.7495 0 16.2578 0H10.5722C10.0805 0 9.60423 0.138341 9.18921 0.368804C9.82914 2.19259 10.3722 3.49059 10.8183 4.26267C11.3113 5.11598 12.1768 6.25614 13.415 7.68325Z" fill="#00832D"/>
<path d="M18.3783 16.2886H8.45151L4.22583 23.603C4.64064 23.8489 5.11697 23.9718 5.60871 23.9718H21.2211C21.7128 23.9718 22.1893 23.8335 22.6041 23.6029L18.3783 16.2886Z" fill="#2684FC"/>
<path d="M13.415 7.68324L9.18927 0.368896C8.77425 0.614765 8.42086 0.952757 8.17499 1.38308L0.368804 14.9056C0.127454 15.3265 0.000318862 15.8033 0 16.2885H8.45156L13.415 7.68324Z" fill="#00AC47"/>
<path d="M22.5581 8.14425L18.6549 1.38296C18.4091 0.952635 18.0556 0.614643 17.6407 0.368774L13.415 7.68322L18.3783 16.2885H26.8146C26.8146 15.8121 26.6917 15.3359 26.4458 14.9055L22.5581 8.14425Z" fill="#FFBA00"/>
</g>
<defs>
<clipPath id="clip0_70_2026">
<rect width="26.8297" height="24" fill="white"/>
</clipPath>
</defs>
</svg>
