<svg width="24" height="24" viewBox="0 0 24 24" fill="none" xmlns="http://www.w3.org/2000/svg">
<path d="M24 12C24 18.6277 18.6273 24 12 24C9.92208 24 7.96752 23.4721 6.26329 22.5426C2.53177 20.5078 0 16.5497 0 12C0 5.37266 5.37258 0 11.9999 0C18.6273 0 24 5.37266 24 12Z" fill="#20B276"/>
<path d="M16.5402 15.1662C15.2704 16.475 13.7296 17.1296 11.9177 17.1296C10.8119 17.1296 9.77763 16.8577 8.81459 16.314L8.81357 23.5729C8.81357 23.5729 8.57918 23.5083 8.27411 23.4098C8.19888 23.3856 8.12293 23.3595 8.04335 23.3315C8.00551 23.318 7.98705 23.3101 7.94808 23.2989C7.84828 23.2702 7.72178 23.2146 7.6243 23.1767C7.29669 23.0491 7.03123 22.9276 7.02483 22.9245C7.01843 22.9215 6.08071 22.4743 5.97496 22.4081C5.88028 22.349 5.79596 22.3026 5.72371 22.2507C5.70061 22.2343 5.68317 22.2225 5.66129 22.2074C5.48951 22.0893 5.39351 22.0215 5.39351 22.0215L5.39062 10.3856C5.39062 8.51942 6.02544 6.93455 7.29529 5.63071C8.56499 4.32659 10.1058 3.6748 11.9178 3.6748C13.7297 3.6748 15.2705 4.329 16.5403 5.63785C17.81 6.9465 18.4451 8.53473 18.4451 10.4021C18.4449 12.2696 17.8099 13.8576 16.5402 15.1662ZM14.1166 8.13376C13.5136 7.51183 12.7808 7.20102 11.9176 7.20102C11.0544 7.20102 10.3214 7.51183 9.71874 8.13376C9.11585 8.75567 8.81448 9.51162 8.81448 10.4021C8.81448 11.2926 9.11585 12.0485 9.71874 12.6703C10.3214 13.2925 11.0544 13.6034 11.9176 13.6034C12.7807 13.6034 13.5136 13.2925 14.1166 12.6703C14.7193 12.0485 15.0208 11.2926 15.0208 10.4021C15.0208 9.51162 14.7193 8.75567 14.1166 8.13376Z" fill="white"/>
</svg>
