<svg width="24" height="24" viewBox="0 0 24 24" fill="none" xmlns="http://www.w3.org/2000/svg">
<g clip-path="url(#clip0_70_2060)">
<path d="M24 2.9008C24 3.15086 24 3.40093 24 3.65099C23.9688 3.73226 23.9312 3.81978 23.9125 3.90106C22.7437 9.37123 21.5812 14.8414 20.4062 20.3116C20.325 20.6804 20.2312 21.0618 20.0812 21.4056C19.85 21.9245 19.4 22.1058 18.8563 21.9433C18.6125 21.8682 18.3688 21.7557 18.1688 21.6119C16.4625 20.3741 14.7625 19.1238 13.0625 17.8797C12.975 17.8172 12.8875 17.7547 12.7937 17.6921C12.7063 17.7734 12.6312 17.8422 12.5562 17.9172C11.7 18.7362 10.8375 19.5551 9.98125 20.3803C9.71875 20.6304 9.41875 20.7867 9.025 20.7617C9.05 20.4116 9.06875 20.074 9.09375 19.7427C9.2 18.2923 9.3 16.8419 9.4125 15.3978C9.425 15.279 9.5 15.129 9.5875 15.0477C12.9062 12.0594 16.2312 9.07115 19.5562 6.08287C19.6187 6.02661 19.6875 5.97034 19.7375 5.90158C19.8625 5.73278 19.7937 5.56399 19.5875 5.59525C19.3562 5.62651 19.1125 5.70152 18.9188 5.82031C17.275 6.83307 15.6438 7.85834 14.0125 8.8836C11.5063 10.4528 9 12.0219 6.4875 13.5911C6.40625 13.6411 6.28125 13.6849 6.19375 13.6598C4.38125 13.1035 2.575 12.5408 0.76875 11.9782C0.45 11.8781 0.175 11.7031 0 11.4093C0 11.3155 0 11.2217 0 11.1279C0.05625 11.0342 0.10625 10.9341 0.18125 10.8591C0.4625 10.5465 0.8375 10.384 1.2125 10.2402C7.75625 7.7333 14.3 5.2264 20.8438 2.7195C21.425 2.49444 22 2.25688 22.6 2.06933C23.2688 1.86302 23.7687 2.17561 23.9562 2.84453C23.9625 2.85703 23.9875 2.88204 24 2.9008Z" fill="#049BE4"/>
</g>
<defs>
<clipPath id="clip0_70_2060">
<rect width="24" height="24" fill="white"/>
</clipPath>
</defs>
</svg>
