<svg width="26" height="24" viewBox="0 0 26 24" fill="none" xmlns="http://www.w3.org/2000/svg">
<g clip-path="url(#clip0_70_2049)">
<path d="M12.0039 10.0924C10.9385 11.8834 9.91776 13.6178 8.87573 15.3392C8.60811 15.7811 8.47566 16.1411 8.68945 16.7029C9.27971 18.2547 8.44704 19.7649 6.88213 20.1748C5.4063 20.5615 3.96841 19.5916 3.6756 18.0115C3.41612 16.613 4.50143 15.242 6.04345 15.0234C6.17258 15.0049 6.30453 15.0028 6.52163 14.9865L8.86719 11.0534C7.39196 9.58646 6.5139 7.87183 6.70821 5.74699C6.84558 4.24504 7.43624 2.94704 8.51573 1.88322C10.5833 -0.154059 13.7377 -0.483932 16.1722 1.07977C18.5103 2.58182 19.5812 5.50759 18.6684 8.01171C17.9801 7.82513 17.287 7.63695 16.5251 7.43029C16.8117 6.038 16.5998 4.7878 15.6608 3.71674C15.0404 3.0096 14.2443 2.63896 13.3391 2.50239C11.5243 2.22825 9.74263 3.3941 9.21393 5.17531C8.61384 7.19672 9.52212 8.84799 12.0039 10.0924Z" fill="#C73A63"/>
<path d="M15.0468 7.9743C15.7974 9.29851 16.5596 10.6427 17.3149 11.9745C21.1328 10.7933 24.0114 12.9068 25.0441 15.1695C26.2915 17.9028 25.4387 21.1401 22.989 22.8264C20.4746 24.5574 17.2946 24.2617 15.0669 22.038C15.6346 21.5627 16.2052 21.0853 16.8148 20.5753C19.0152 22.0004 20.9397 21.9334 22.3685 20.2458C23.5868 18.8061 23.5604 16.6594 22.3067 15.25C20.8599 13.6235 18.9219 13.5739 16.5794 15.1352C15.6076 13.4112 14.619 11.701 13.678 9.96458C13.3607 9.37935 13.0104 9.03973 12.2952 8.91592C11.101 8.70886 10.33 7.68329 10.2837 6.53431C10.2382 5.39798 10.9077 4.37081 11.954 3.97065C12.9905 3.5741 14.2069 3.89413 14.9041 4.77539C15.4739 5.49539 15.6549 6.30576 15.3551 7.19375C15.2717 7.44138 15.1638 7.68088 15.0468 7.9743Z" fill="#4B4B4B"/>
<path d="M16.8407 18.7992H12.2445C11.804 20.6112 10.8524 22.0741 9.21292 23.0043C7.93832 23.7273 6.56461 23.9724 5.10252 23.7364C2.41052 23.3023 0.209367 20.8789 0.0155612 18.1501C-0.203751 15.0589 1.92099 12.3111 4.75307 11.694C4.94858 12.404 5.1462 13.1209 5.34172 13.8293C2.74331 15.155 1.84397 16.8253 2.57119 18.914C3.21136 20.7521 5.02982 21.7595 7.00433 21.3699C9.02072 20.9721 10.0374 19.2963 9.91324 16.6069C11.8248 16.6069 13.7379 16.5871 15.6497 16.6166C16.3962 16.6284 16.9725 16.551 17.5348 15.8928C18.4607 14.8099 20.1649 14.9076 21.162 15.9304C22.1811 16.9756 22.1323 18.6574 21.0539 19.6586C20.0135 20.6246 18.3697 20.573 17.3963 19.5321C17.1962 19.3176 17.0386 19.0628 16.8407 18.7992Z" fill="#4A4A4A"/>
</g>
<defs>
<clipPath id="clip0_70_2049">
<rect width="25.7069" height="24" fill="white"/>
</clipPath>
</defs>
</svg>
