<svg width="24" height="24" viewBox="0 0 24 24" fill="none" xmlns="http://www.w3.org/2000/svg">
<g clip-path="url(#clip0_253_3545)">
<path d="M0 18.6528C0 14.2156 0 9.77844 0 5.34126C0.0297398 5.25204 0.0713755 5.16283 0.0832714 5.06766C0.428253 2.77769 2.20074 0.808922 4.45502 0.226022C4.76431 0.148699 5.07955 0.0773234 5.38885 0C5.56134 0 5.73383 0 5.90632 0C5.9777 0.0178439 5.92268 0 6 0C9.9197 0 14.0803 0 18 0C18.0714 0 18.0223 0.0178439 18.0937 0C18.2364 0 18.3732 0 18.516 0C18.8134 0.0654275 19.1167 0.113011 19.4082 0.190335C21.6803 0.820818 23.1375 2.27807 23.7978 4.53829C23.881 4.82974 23.9346 5.13309 24 5.43048C24 9.83792 24 14.2454 24 18.6468C23.9703 18.7361 23.9286 18.8253 23.9167 18.9204C23.5717 21.2104 21.7993 23.1792 19.5509 23.7621C19.2119 23.8513 18.861 23.9167 18.5219 23.9881C18.3673 23.9881 18.2067 23.9881 18.052 23.9881C17.9628 23.9703 17.8736 23.9405 17.7903 23.9405C13.8885 23.9405 9.98662 23.9405 6.08476 23.9405C6.01338 23.9405 5.94201 23.9703 5.87063 23.9881C5.71598 23.9881 5.55539 23.9881 5.40074 23.9881C5.32342 23.9584 5.25204 23.9286 5.17472 23.9108C4.73457 23.7918 4.27063 23.7264 3.84833 23.5599C2.01041 22.8164 0.802974 21.49 0.237918 19.5807C0.136803 19.2833 0.0773234 18.968 0 18.6528ZM4.49665 19.4677C4.57398 19.4439 4.62751 19.4379 4.67509 19.4201C5.90632 19.0275 7.13755 18.6349 8.36877 18.2543C8.47584 18.2245 8.61859 18.2245 8.71375 18.2721C11.2 19.4796 13.6565 19.4082 16.0119 17.9747C18.058 16.7257 19.2059 14.8461 19.432 12.461C19.6342 10.3257 18.9918 8.42231 17.5048 6.86394C15.6193 4.88922 13.2937 4.16357 10.623 4.68699C8.51747 5.0974 6.88773 6.2632 5.79926 8.11896C4.54424 10.2721 4.44312 12.5145 5.42454 14.8045C5.54349 15.084 5.76952 15.3457 5.78141 15.6253C5.79331 15.9167 5.60297 16.2141 5.50186 16.5056C5.17472 17.481 4.84164 18.4565 4.49665 19.4677Z" fill="url(#paint0_linear_253_3545)"/>
<path d="M5.85876 24C5.93014 23.9821 6.00152 23.9524 6.07289 23.9524C9.97475 23.9524 13.8766 23.9524 17.7785 23.9524C17.8677 23.9524 17.9569 23.9821 18.0402 24C13.9837 24 9.92122 24 5.85876 24Z" fill="#2F2F2F"/>
<path d="M4.49664 19.4676C4.84162 18.4624 5.17471 17.487 5.5078 16.5056C5.60891 16.2082 5.79925 15.9108 5.78735 15.6253C5.77545 15.3457 5.54943 15.084 5.43047 14.8044C4.44906 12.5145 4.55017 10.2721 5.80519 8.11893C6.88772 6.26317 8.52341 5.09737 10.629 4.68696C13.2996 4.16354 15.6253 4.88919 17.5108 6.86392C18.9978 8.42228 19.6342 10.3256 19.4379 12.4609C19.2119 14.8461 18.0639 16.7256 16.0178 17.9747C13.6624 19.4082 11.2059 19.4736 8.71969 18.2721C8.62452 18.2245 8.48177 18.2186 8.37471 18.2543C7.14348 18.6349 5.91226 19.0334 4.68103 19.42C4.6275 19.4319 4.57397 19.4438 4.49664 19.4676ZM6.35835 17.6892C7.10185 17.4513 7.80371 17.2312 8.50557 17.0052C8.66616 16.9516 8.78512 16.9576 8.93382 17.0468C10.3316 17.8914 11.8483 18.1353 13.4364 17.7963C16.7197 17.0944 18.7658 13.9836 18.2364 10.8669C17.9331 9.05871 17.0052 7.63715 15.4587 6.66763C13.4721 5.43046 11.3784 5.3234 9.29069 6.38213C7.35761 7.36949 6.25724 9.00518 6.00148 11.1643C5.82304 12.6572 6.20371 14.0253 7.04237 15.2684C7.08995 15.3398 7.1078 15.4766 7.07806 15.5598C6.85203 16.2617 6.60817 16.9516 6.35835 17.6892Z" fill="#FCFCFC"/>
<path d="M6.35834 17.6892C6.60816 16.9517 6.84608 16.2617 7.0721 15.5658C7.10184 15.4825 7.08399 15.3457 7.03641 15.2744C6.19775 14.0253 5.82303 12.6573 5.99552 11.1703C6.25128 9.01116 7.35165 7.37547 9.28474 6.38811C11.3725 5.32343 13.4661 5.43049 15.4528 6.67362C16.9992 7.63718 17.9271 9.05875 18.2305 10.8729C18.7598 13.9896 16.7137 17.1004 13.4305 17.8022C11.8424 18.1413 10.3256 17.8974 8.92786 17.0528C8.77916 16.9636 8.65425 16.9576 8.49961 17.0112C7.8037 17.2312 7.10184 17.4513 6.35834 17.6892ZM8.52935 10.3613C8.52935 10.6468 8.66615 11.087 8.90407 11.4855C9.95091 13.2521 11.3487 14.5784 13.3888 15.1316C14.0788 15.316 14.6855 15.2506 15.2803 14.858C15.7145 14.5725 15.8572 14.1621 15.8394 13.6744C15.8334 13.5911 15.768 13.4721 15.6907 13.4364C15.2148 13.1926 14.7271 12.9606 14.2394 12.7346C14.0728 12.6573 13.9301 12.687 13.8111 12.8476C13.6505 13.0677 13.4721 13.2758 13.2996 13.484C13.1925 13.6208 13.0676 13.6446 12.907 13.5732C11.9911 13.1807 11.2238 12.6037 10.6587 11.771C10.2661 11.1881 10.3018 11.313 10.7004 10.8372C10.7955 10.7242 10.8669 10.5933 10.9323 10.4625C10.9621 10.397 10.974 10.3019 10.9442 10.2424C10.736 9.73086 10.5219 9.21934 10.3018 8.71376C10.2721 8.64239 10.1948 8.55317 10.1293 8.54127C9.76652 8.48774 9.4037 8.44611 9.11225 8.7673C8.74347 9.16581 8.52935 9.6238 8.52935 10.3613Z" fill="url(#paint1_linear_253_3545)"/>
<path d="M8.52936 10.3613C8.52936 9.62975 8.74348 9.17176 9.11226 8.76729C9.40966 8.44611 9.76653 8.48774 10.1294 8.54127C10.1948 8.55317 10.2721 8.64239 10.3018 8.71376C10.5219 9.21934 10.736 9.73086 10.9442 10.2424C10.968 10.3078 10.9621 10.403 10.9323 10.4625C10.8669 10.5933 10.7955 10.7242 10.7004 10.8372C10.3018 11.313 10.2662 11.1881 10.6587 11.771C11.2238 12.6037 11.9851 13.1866 12.9071 13.5732C13.0676 13.6387 13.1926 13.6149 13.2996 13.484C13.4721 13.2699 13.6505 13.0617 13.8111 12.8476C13.9301 12.687 14.0729 12.6573 14.2394 12.7346C14.7271 12.9606 15.2089 13.1926 15.6907 13.4364C15.7621 13.4721 15.8334 13.5911 15.8394 13.6744C15.8572 14.1621 15.7145 14.5725 15.2803 14.858C14.6914 15.2506 14.0847 15.3219 13.3888 15.1316C11.3427 14.5784 9.95092 13.2521 8.90408 11.4855C8.66616 11.0811 8.52936 10.6468 8.52936 10.3613Z" fill="#FCFCFC"/>
</g>
<defs>
<linearGradient id="paint0_linear_253_3545" x1="12" y1="0" x2="12" y2="23.9881" gradientUnits="userSpaceOnUse">
<stop stop-color="#60FB7B"/>
<stop offset="1" stop-color="#2CBA28"/>
</linearGradient>
<linearGradient id="paint1_linear_253_3545" x1="12.134" y1="5.65918" x2="12.134" y2="17.9497" gradientUnits="userSpaceOnUse">
<stop stop-color="#56EF6B"/>
<stop offset="1" stop-color="#38C83A"/>
</linearGradient>
<clipPath id="clip0_253_3545">
<rect width="24" height="24" fill="white"/>
</clipPath>
</defs>
</svg>
