<svg width="40" height="40" viewBox="0 0 40 40" fill="none" xmlns="http://www.w3.org/2000/svg">
<rect width="40" height="40" rx="4" fill="#1E62B9" fill-opacity="0.1"/>
<g clip-path="url(#clip0_1061_8313)">
<path d="M19.9972 8.27539C26.4676 8.27539 31.7252 13.533 31.719 20.0034C31.7127 26.4676 26.4614 31.7127 19.9972 31.7127C13.5268 31.719 8.27539 26.4614 8.27539 19.9847C8.28164 13.5268 13.533 8.27539 19.9972 8.27539ZM19.2595 19.9847C19.2595 20.3473 19.2532 20.6724 19.2658 20.9975C19.272 21.1537 19.2282 21.2225 19.0657 21.2725C17.4653 21.7977 16.4588 23.4418 16.7401 25.0485C17.0839 27.0178 18.8094 28.2368 20.7786 27.9118C22.079 27.6992 23.048 26.7677 23.2543 25.5049C23.3356 24.9985 23.3231 24.4921 23.1105 24.0107C22.9542 23.6669 22.7417 23.5731 22.3916 23.7169C22.004 23.8795 21.8414 24.1858 21.8227 24.5984C21.7852 25.3111 21.4226 25.8237 20.7599 26.0925C20.0972 26.3551 19.4846 26.2238 18.9657 25.7299C18.4718 25.2611 18.3155 24.5359 18.5718 23.917C18.8531 23.2543 19.3595 22.8854 20.0847 22.8417C20.6661 22.8104 21.0037 22.4791 21.0225 21.8914C21.0225 21.8414 21.035 21.7914 21.0412 21.7226C21.235 21.7226 21.4101 21.7164 21.5914 21.7226C21.7602 21.7289 21.8352 21.6476 21.8289 21.4851C21.8227 21.2225 21.8227 20.9537 21.8289 20.6911C21.8352 20.4973 21.7476 20.4161 21.5664 20.4223C21.3913 20.4223 21.2163 20.4223 21.0287 20.4223C21.0287 20.2598 21.0287 20.1285 21.0287 19.9847C21.1162 19.9784 21.1913 19.9722 21.2663 19.9722C21.7414 19.9722 22.2165 19.9784 22.6979 19.9722C23.123 19.9659 23.4043 19.7159 23.4106 19.3283C23.4231 18.9219 23.4231 18.5156 23.4106 18.1092C23.3981 17.7716 23.1793 17.5403 22.8542 17.484C22.7854 17.4715 22.7167 17.4653 22.6291 17.4465C22.6291 17.3528 22.6291 17.2715 22.6291 17.184C22.6291 16.3025 22.6416 15.421 22.6229 14.5333C22.5979 13.1392 21.4226 12.0076 20.0097 12.0014C18.5843 11.9951 17.3965 13.1142 17.3653 14.527C17.3465 15.4148 17.359 16.3087 17.359 17.1965C17.359 17.2777 17.359 17.359 17.359 17.4403C16.6963 17.5591 16.5713 17.7154 16.5713 18.3718C16.5713 18.6281 16.5713 18.8844 16.5713 19.147C16.5713 19.7346 16.8089 19.9659 17.3965 19.9659C18.0092 19.9909 18.6218 19.9847 19.2595 19.9847Z" fill="#1E62B9"/>
<path d="M19.6284 19.9972C19.9785 19.9972 20.2973 19.9972 20.6474 19.9972C20.6474 20.1097 20.6474 20.2285 20.6474 20.341C20.6474 20.8537 20.6474 21.3726 20.6474 21.8852C20.6474 22.2853 20.4661 22.4666 20.066 22.4853C18.9532 22.5354 18.078 23.4418 18.0842 24.5484C18.0842 25.6487 18.972 26.5552 20.0785 26.5989C21.185 26.6427 22.1415 25.7549 22.1915 24.6234C22.204 24.3858 22.2666 24.1983 22.4854 24.0795C22.6354 24.0045 22.7417 24.0295 22.7854 24.1983C23.0355 25.0923 22.9855 25.9487 22.3416 26.6614C21.5289 27.5617 20.2035 27.843 19.047 27.4116C17.9092 26.9865 17.1215 25.905 17.0715 24.6922C17.0089 23.2355 17.8967 21.9915 19.3095 21.5914C19.5534 21.5226 19.6409 21.4163 19.6221 21.1662C19.6159 20.7911 19.6284 20.4098 19.6284 19.9972Z" fill="#1E62B9"/>
<path d="M19.9908 19.6159C19.1156 19.6159 18.2404 19.6159 17.3651 19.6159C17.0276 19.6159 16.9463 19.5346 16.9463 19.2033C16.9463 18.8844 16.9463 18.5594 16.9463 18.2405C16.9463 17.9342 17.0401 17.8467 17.3339 17.8467C18.0653 17.8529 18.803 17.8654 19.5345 17.8654C20.3097 17.8654 21.0786 17.8529 21.8538 17.8467C22.1289 17.8467 22.3977 17.8467 22.6728 17.8467C22.9541 17.8467 23.0479 17.9405 23.0479 18.228C23.0479 18.5656 23.0479 18.9032 23.0479 19.2345C23.0479 19.5159 22.9541 19.6096 22.6665 19.6096C21.7725 19.6221 20.8848 19.6159 19.9908 19.6159Z" fill="#1E62B9"/>
<path d="M21.3914 17.4715C21.1976 17.4715 21.0163 17.4715 20.7975 17.4715C20.7975 17.0526 20.7975 16.64 20.7975 16.2274C20.7975 15.9211 20.7662 15.8898 20.4662 15.8898C20.1536 15.8898 19.841 15.8898 19.5284 15.8898C19.2346 15.8898 19.1971 15.9274 19.1971 16.2337C19.1971 16.64 19.1971 17.0464 19.1971 17.4653C18.997 17.4653 18.8157 17.4653 18.6032 17.4653C18.5969 17.409 18.5907 17.3402 18.5907 17.2777C18.5907 16.4087 18.5844 15.546 18.5907 14.677C18.5969 13.9268 19.1283 13.3267 19.8472 13.2517C20.5787 13.1704 21.2289 13.6643 21.3851 14.402C21.3977 14.4645 21.4039 14.527 21.4039 14.5895C21.4039 15.5085 21.4039 16.4337 21.4039 17.3527C21.4102 17.3902 21.3977 17.4277 21.3914 17.4715Z" fill="#1E62B9"/>
<path d="M22.2482 17.4718C22.0919 17.4718 21.9481 17.4718 21.7794 17.4718C21.7794 17.378 21.7794 17.2905 21.7794 17.2092C21.7794 16.3903 21.7794 15.5713 21.7794 14.7461C21.7794 13.677 21.0167 12.8768 20.0039 12.8706C18.9974 12.8643 18.2222 13.6708 18.2222 14.7336C18.2222 15.5525 18.2222 16.3715 18.2222 17.1967C18.2222 17.2842 18.2222 17.3655 18.2222 17.4655C18.0596 17.4655 17.9158 17.4655 17.7596 17.4655C17.7533 17.4155 17.7346 17.3593 17.7346 17.3092C17.7346 16.409 17.722 15.515 17.7408 14.6148C17.7658 13.5082 18.491 12.6518 19.5663 12.4205C20.8791 12.1391 22.2107 13.1457 22.2545 14.4835C22.2857 15.4338 22.267 16.3902 22.267 17.3405C22.267 17.3905 22.2545 17.428 22.2482 17.4718Z" fill="#1E62B9"/>
<path d="M20.416 17.4655C20.1347 17.4655 19.8721 17.4655 19.5908 17.4655C19.5908 17.0717 19.5908 16.6778 19.5908 16.2715C19.8596 16.2715 20.1347 16.2715 20.416 16.2715C20.416 16.6653 20.416 17.0529 20.416 17.4655Z" fill="#1E62B9"/>
<path d="M21.4474 20.8164C21.4474 21.004 21.4474 21.1727 21.4474 21.3603C21.3098 21.3603 21.1786 21.3603 21.041 21.3603C21.041 21.1727 21.041 21.004 21.041 20.8164C21.1786 20.8164 21.3098 20.8164 21.4474 20.8164Z" fill="#1E62B9"/>
</g>
<defs>
<clipPath id="clip0_1061_8313">
<rect width="24" height="24" fill="white" transform="translate(8 8)"/>
</clipPath>
</defs>
</svg>
