<svg width="40" height="40" viewBox="0 0 40 40" fill="none" xmlns="http://www.w3.org/2000/svg">
<rect width="40" height="40" rx="4" fill="#1E62B9" fill-opacity="0.1"/>
<path d="M9 31.4935C9 30.1378 9 28.782 9 27.3942C10.7559 26.8995 12.5119 26.4047 14.2743 25.9035C14.5735 26.2698 14.8271 26.6553 14.8597 27.15C15.3474 27.15 15.8287 27.15 16.3099 27.15C16.3425 26.6489 16.5896 26.2505 16.9018 25.8843C17.1554 25.5823 17.4286 25.2931 17.6952 25.004C17.7342 24.9655 17.7797 24.9205 17.8253 24.9012C19.0479 24.5542 20.2706 24.2137 21.5128 23.8667C21.6884 24.2137 21.8639 24.5607 22.033 24.9012C23.1061 27.028 24.1857 29.1547 25.2588 31.2815C25.2913 31.3521 25.3108 31.4292 25.3368 31.4999C19.8934 31.4935 14.4434 31.4935 9 31.4935Z" fill="#1E62B9"/>
<path d="M26.9957 31.4935C26.3844 30.2791 25.7795 29.0712 25.1682 27.8568C24.4333 26.3983 23.6919 24.9333 22.9375 23.4555C25.6039 22.7038 28.2574 21.952 30.9433 21.1939C30.9433 24.6442 30.9433 28.0689 30.9433 31.4871C29.6296 31.4935 28.3159 31.4935 26.9957 31.4935Z" fill="#1E62B9"/>
<path d="M20.6091 7.50643C20.9928 7.58995 21.3765 7.65421 21.7537 7.75058C22.8268 8.03329 23.9649 8.70152 24.5958 9.39544C24.2576 9.72955 23.9259 10.0637 23.5877 10.3978C21.6757 8.54731 18.3134 8.51519 16.3428 10.4171C16.2908 10.3656 16.2388 10.3207 16.1867 10.2693C15.8941 9.99299 15.6079 9.71028 15.3022 9.42114C16.3038 8.44451 17.4744 7.84054 18.8272 7.59638C18.9637 7.57068 19.1003 7.53213 19.2369 7.5C19.6986 7.50643 20.1474 7.50643 20.6091 7.50643Z" fill="#1E62B9"/>
<path d="M30.9429 15.604C30.9429 16.9662 30.9429 18.3155 30.9429 19.6905C27.0082 20.802 23.0671 21.9136 19.074 23.038C19.3796 22.0871 19.2496 21.2004 18.7943 20.3715C18.3391 19.5427 17.6497 18.9644 16.7392 18.6689C15.2109 18.1677 13.533 18.6946 12.616 19.9924C11.7965 21.149 11.3998 22.8452 13.1948 24.7021C11.7965 25.0941 10.4178 25.486 9.01953 25.8844C9.01953 22.4469 9.01953 19.0351 9.01953 15.604C16.31 15.604 23.6134 15.604 30.9429 15.604Z" fill="#1E62B9"/>
<path d="M15.5881 25.171C15.0158 24.5349 14.4304 23.9309 13.9102 23.2756C13.0972 22.2604 13.2988 21.0332 14.3459 20.3071C15.3474 19.6132 16.7522 19.8895 17.4286 20.9111C17.9163 21.6564 17.9163 22.4339 17.3635 23.1471C16.9928 23.6225 16.5636 24.053 16.1669 24.5092C15.9718 24.7277 15.7832 24.9461 15.5881 25.171ZM16.2969 22.8129C16.2969 22.3182 16.2969 21.8492 16.2969 21.3865C15.8092 21.3865 15.3344 21.3865 14.8662 21.3865C14.8662 21.8684 14.8662 22.3375 14.8662 22.8129C15.3474 22.8129 15.8157 22.8129 16.2969 22.8129Z" fill="#1E62B9"/>
<path d="M18.4299 12.4666C18.0917 12.126 17.7536 11.7855 17.4219 11.4514C18.6445 10.1149 21.2394 10.0764 22.5141 11.4449C22.1759 11.7791 21.8378 12.1132 21.4931 12.4537C21.0768 12.0682 20.5566 11.869 19.9713 11.869C19.3859 11.869 18.8657 12.0618 18.4299 12.4666Z" fill="#1E62B9"/>
<path d="M19.2427 14.7221C19.2427 14.2466 19.2427 13.784 19.2427 13.3021C19.7239 13.3021 20.1987 13.3021 20.6865 13.3021C20.6865 13.7647 20.6865 14.2338 20.6865 14.7221C20.2182 14.7221 19.7434 14.7221 19.2427 14.7221Z" fill="#1E62B9"/>
</svg>
