<svg width="40" height="40" viewBox="0 0 40 40" fill="none" xmlns="http://www.w3.org/2000/svg">
<rect width="40" height="40" rx="4" fill="#1E62B9" fill-opacity="0.1"/>
<path d="M19.8636 31.9999C19.6372 31.9999 19.4109 31.9999 19.1846 31.9999C16.9214 31.9999 14.6581 31.9999 12.3949 31.9999C10.6974 31.9999 9.33949 30.8939 9 29.2349C9 29.0137 9 28.7925 9 28.5713C9 24.5896 9 20.608 9 16.6264C9 16.5158 9 16.5158 9 16.4052C15.6766 16.4052 22.24 16.4052 28.8034 16.4052C28.8034 17.5112 28.8034 18.5066 28.8034 19.6126C27.8981 19.8338 27.2191 20.3868 26.6533 21.0504C24.7295 22.9306 22.8058 24.8108 20.882 26.6911C20.3162 27.2441 19.9767 27.9077 19.8636 28.6819C19.7504 29.2349 19.6372 29.7879 19.5241 30.3409C19.4109 30.8939 19.5241 31.4469 19.8636 31.9999ZM18.8451 20.4974C20.4294 20.4974 21.9005 20.4974 23.4848 20.4974C23.5979 20.4974 23.7111 20.4974 23.8242 20.4974C24.1637 20.4974 24.3901 20.1656 24.5032 19.8338C24.5032 19.502 24.2769 19.1702 23.9374 19.0596C23.8243 19.0596 23.7111 19.0596 23.4848 19.0596C20.4294 19.0596 17.374 19.0596 14.2055 19.0596C14.0923 19.0596 13.9791 19.0596 13.866 19.0596C13.5265 19.0596 13.187 19.3914 13.187 19.7232C13.187 20.1656 13.5265 20.4974 13.9791 20.4974C15.6766 20.4974 17.2608 20.4974 18.8451 20.4974ZM17.4872 24.5896C18.1661 24.5896 18.732 24.5896 19.4109 24.5896C19.9767 24.5896 20.4294 24.5896 20.9952 24.5896C21.3347 24.5896 21.6742 24.3684 21.6742 23.926C21.6742 23.5942 21.561 23.2624 21.2215 23.1518C21.1084 23.1518 20.882 23.0412 20.7689 23.0412C18.6188 23.0412 16.4687 23.0412 14.2055 23.0412C14.0923 23.0412 14.0923 23.0412 13.9791 23.0412C13.5265 23.0412 13.187 23.4836 13.3002 23.926C13.4133 24.2578 13.6397 24.479 14.0923 24.479C15.2239 24.5896 16.3555 24.5896 17.4872 24.5896ZM15.9029 28.6819C16.4687 28.6819 17.0345 28.6819 17.6003 28.6819C18.053 28.6819 18.3925 28.3501 18.3925 27.9077C18.3925 27.4653 18.053 27.1335 17.6003 27.1335C16.4687 27.1335 15.2239 27.1335 14.0923 27.1335C13.6397 27.1335 13.3002 27.4653 13.3002 27.9077C13.3002 28.3501 13.6397 28.5713 14.0923 28.5713C14.6581 28.6819 15.3371 28.6819 15.9029 28.6819Z" fill="#1E62B9"/>
<path d="M24.8427 9.54841C25.4085 9.65902 25.8612 9.65902 26.3138 9.76962C27.7849 10.1014 28.6902 11.4286 28.8034 12.8664C28.8034 13.5301 28.8034 14.1937 28.8034 14.8573C22.24 14.8573 15.5634 14.8573 9 14.8573C9 13.9725 9 13.0876 9.11316 12.2028C9.33949 10.765 10.8106 9.65902 12.3949 9.65902C12.6212 9.65902 12.7344 9.65902 12.9607 9.65902C12.9607 9.43781 12.9607 9.10601 12.9607 8.88481C12.9607 8.3318 13.3002 8 13.7528 8C14.2055 8 14.5449 8.3318 14.5449 8.88481C14.5449 9.10601 14.5449 9.32721 14.5449 9.65902C15.7897 9.65902 16.9214 9.65902 18.1661 9.65902C18.1661 9.43781 18.1661 9.21661 18.1661 8.88481C18.1661 8.3318 18.5056 8 18.9583 8.1106C19.4109 8.1106 19.7504 8.4424 19.7504 8.88481C19.7504 9.10601 19.7504 9.32721 19.7504 9.65902C20.9952 9.65902 22.1268 9.65902 23.3716 9.65902C23.3716 9.43781 23.3716 9.10601 23.3716 8.88481C23.3716 8.4424 23.7111 8.1106 24.1637 8.1106C24.6164 8.1106 24.9559 8.4424 24.9559 8.77421C24.8427 8.99541 24.8427 9.32721 24.8427 9.54841Z" fill="#1E62B9"/>
<path d="M26.3133 23.4844C27.3317 24.4798 28.3502 25.4752 29.2555 26.36L29.1423 26.4706C27.6712 27.9084 26.2001 29.3462 24.729 30.784C24.6158 30.8946 24.3895 31.0052 24.1632 31.1158C23.4842 31.2264 22.6921 31.337 22.0131 31.4477C21.4473 31.5583 20.9946 31.1158 21.1078 30.5628C21.221 29.8992 21.3341 29.2356 21.4473 28.4614C21.4473 28.2402 21.5604 28.019 21.7868 27.7978C23.1447 26.4706 24.729 25.0328 26.3133 23.4844C26.2001 23.595 26.2001 23.595 26.3133 23.4844Z" fill="#1E62B9"/>
<path d="M30.3875 25.3645C29.3691 24.3691 28.3506 23.3737 27.4453 22.4889C27.7848 22.1571 28.1243 21.8253 28.4638 21.4935C29.2559 20.8299 30.6139 20.8299 31.406 21.6041C32.1981 22.3783 32.1981 23.5949 31.406 24.3691C31.0665 24.7009 30.727 25.0327 30.3875 25.3645Z" fill="#1E62B9"/>
</svg>
