<svg width="40" height="40" viewBox="0 0 40 40" fill="none" xmlns="http://www.w3.org/2000/svg">
<rect width="40" height="40" rx="4" fill="#1E62B9" fill-opacity="0.1"/>
<path d="M20.5879 9.39745C17.718 9.31117 14.9242 10.3322 12.7802 12.251L13.4906 8.33776L11.6464 8L10.3977 14.8689L17.2362 16.1224L17.5723 14.2694L14.0607 13.6252C15.743 12.1428 17.899 11.3163 20.1365 11.2962C22.374 11.2762 24.5444 12.0638 26.2527 13.5158C27.9611 14.9679 29.0939 16.9878 29.4452 19.2083C29.7965 21.4287 29.3428 23.702 28.1667 25.6148C26.9907 27.5275 25.1703 28.9525 23.0369 29.6305C20.9035 30.3085 18.5987 30.1945 16.5419 29.3093C14.485 28.424 12.8128 26.8263 11.8293 24.8068C10.8459 22.7872 10.6166 20.4801 11.1832 18.3051L9.36847 17.8269C8.77609 20.0949 8.90036 22.492 9.72406 24.6859C10.5478 26.8799 12.0301 28.7622 13.9658 30.072C15.9015 31.3819 18.1947 32.0544 20.5277 31.9966C22.8607 31.9387 25.118 31.1532 26.987 29.749C28.856 28.3448 30.2441 26.3913 30.9591 24.1592C31.674 21.9271 31.6804 19.5268 30.9774 17.2908C30.2743 15.0549 28.8966 13.094 27.0351 11.6797C25.1737 10.2655 22.9205 9.46787 20.5879 9.39745Z" fill="#1E62B9"/>
<path fill-rule="evenodd" clip-rule="evenodd" d="M27.2491 17.9037L25.5632 16.2097L18.9494 22.8557L16.3191 20.214L14.6309 21.9098L18.9529 26.253L20.6411 24.5567L20.6347 24.5498L27.2491 17.9037Z" fill="#1E62B9"/>
</svg>
