<svg width="40" height="40" viewBox="0 0 40 40" fill="none" xmlns="http://www.w3.org/2000/svg">
<rect width="40" height="40" rx="4" fill="#1E62B9" fill-opacity="0.1"/>
<g clip-path="url(#clip0_1061_7574)">
<path d="M25.9917 11.6394C26.6168 11.0203 27.2232 10.4075 27.8359 9.81343C28.1922 9.4695 28.5673 9.15684 29.0737 9.04428C29.8614 8.86919 30.6991 9.20061 31.1617 9.88222C31.6181 10.5576 31.6306 11.4455 31.1492 12.0959C30.8992 12.4335 30.5991 12.7337 30.3115 13.0401C29.8489 13.5279 29.3738 14.0031 28.9362 14.4471C29.0112 14.6972 29.1237 14.9411 29.1425 15.1912C29.1737 15.5914 28.9612 15.8979 28.6048 16.0792C28.2485 16.2605 27.8921 16.2293 27.5608 16.0042C27.492 15.9541 27.4233 15.8979 27.367 15.8416C26.4918 14.9724 25.6166 14.1032 24.7413 13.2277C24.5225 13.0088 24.3037 12.7837 24.3037 12.4335C24.3037 12.0208 24.46 11.7019 24.8163 11.5018C25.1852 11.2955 25.5478 11.333 25.8979 11.5706C25.9291 11.5831 25.9541 11.6144 25.9917 11.6394Z" fill="#1E62B9"/>
<path d="M19.6155 21.5508C19.4217 21.7571 19.2217 21.9822 19.0154 22.1886C18.7778 22.4262 18.4777 22.4387 18.2714 22.2324C18.0589 22.0197 18.0776 21.7321 18.3089 21.4882C18.5027 21.2881 18.7028 21.088 18.9028 20.8879C18.9153 20.8754 18.9216 20.8629 18.9278 20.8441C18.8903 20.7879 18.8466 20.7316 18.809 20.6753C18.5715 20.3064 18.5715 19.8749 18.8716 19.5497C19.4842 18.8931 20.1156 18.2553 20.7408 17.6112C21.8849 16.4356 23.0352 15.2662 24.1604 14.1094C24.9169 14.866 25.6171 15.5664 26.361 16.3168C26.3423 16.3293 26.2735 16.348 26.2297 16.3981C24.5543 18.0677 22.8851 19.7436 21.2097 21.4194C20.6845 21.951 20.2719 21.9885 19.6155 21.5508Z" fill="#1E62B9"/>
<path d="M14.3888 17.6487C13.5886 18.6055 13.1197 19.7123 13.0009 20.988C11.513 20.988 10.0251 20.988 8.54351 20.988C8.23093 19.556 9.78133 15.7853 11.2255 14.4658C12.2757 15.5226 13.326 16.5794 14.3888 17.6487Z" fill="#1E62B9"/>
<path d="M19.5088 32.0125C19.5088 30.493 19.5088 29.011 19.5088 27.5102C20.7716 27.3851 21.8907 26.9224 22.8472 26.1219C23.9224 27.1787 24.9915 28.223 26.0793 29.2924C24.1913 30.962 22.0219 31.8624 19.5088 32.0125Z" fill="#1E62B9"/>
<path d="M11.9688 13.6903C13.8005 12.0519 15.9823 11.1514 18.4892 10.9951C18.4892 12.4959 18.4892 13.9842 18.4892 15.4975C17.2326 15.6225 16.1136 16.0853 15.1571 16.8857C14.0943 15.8164 13.0378 14.7596 11.9688 13.6903Z" fill="#1E62B9"/>
<path d="M26.7854 28.5671C26.7354 28.5171 26.6916 28.4858 26.6541 28.4483C25.6351 27.4352 24.6223 26.416 23.5908 25.3842C24.4098 24.4024 24.8849 23.2768 25.0037 22.0137C26.5103 22.0137 28.0045 22.0137 29.5049 22.0137C29.3548 24.5212 28.4483 26.6974 26.7854 28.5671Z" fill="#1E62B9"/>
<path d="M8.51855 22.0135C10.0064 22.0135 11.4943 22.0135 13.001 22.0135C13.1198 23.2705 13.5886 24.3898 14.3826 25.3403C13.3198 26.4096 12.2633 27.4664 11.2068 28.5232C9.55007 26.8035 8.55606 24.1834 8.51855 22.0135Z" fill="#1E62B9"/>
<path d="M15.1895 26.1221C16.1147 26.9162 17.215 27.3852 18.4841 27.504C18.4841 28.9986 18.4841 30.4931 18.4841 32.0126C15.996 31.8626 13.8267 30.9621 11.9824 29.3237C13.0452 28.2607 14.1017 27.2039 15.1895 26.1221Z" fill="#1E62B9"/>
<path d="M25.0288 20.9942C24.9475 20.6065 24.91 20.2001 24.7599 19.8374C24.6224 19.4935 24.7162 19.2996 24.96 19.0682C25.6414 18.4117 26.2978 17.7363 26.9543 17.0609C27.0605 16.9546 27.1418 16.9109 27.2919 16.9922C27.692 17.2048 28.1296 17.2173 28.5672 17.1547C29.1236 18.3804 29.4362 19.6498 29.4924 20.9942C27.9983 20.9942 26.5167 20.9942 25.0288 20.9942Z" fill="#1E62B9"/>
<path d="M23.3479 11.946C23.2854 12.415 23.3229 12.859 23.5417 13.2779C23.5604 13.3217 23.5354 13.4155 23.5042 13.453C22.729 14.2284 21.9538 14.9976 21.1786 15.7667C21.141 15.8042 21.0723 15.8355 21.0223 15.823C20.5221 15.7042 20.0283 15.5791 19.5156 15.4478C19.5156 13.9908 19.5156 12.5025 19.5156 11.0205C20.4659 10.9705 22.2663 11.4082 23.3479 11.946Z" fill="#1E62B9"/>
</g>
<defs>
<clipPath id="clip0_1061_7574">
<rect width="24" height="24" fill="white" transform="translate(8 8.5)"/>
</clipPath>
</defs>
</svg>
