<svg width="40" height="40" viewBox="0 0 40 40" fill="none" xmlns="http://www.w3.org/2000/svg">
<rect width="40" height="40" rx="4" fill="#1E62B9" fill-opacity="0.1"/>
<path d="M16.9404 8C22.2384 8 27.702 8 33 8C33 10.0281 33 12.2252 33 14.2534C27.702 14.2534 22.2384 14.2534 16.9404 14.2534C16.9404 12.2252 16.9404 10.0281 16.9404 8Z" fill="#1E62B9"/>
<path d="M16.9404 31.9999C16.9404 29.9718 16.9404 27.7747 16.9404 25.7466C22.2384 25.7466 27.702 25.7466 33 25.7466C33 27.7747 33 29.9718 33 31.9999C27.5364 31.9999 22.2384 31.9999 16.9404 31.9999Z" fill="#1E62B9"/>
<path d="M33 16.7891C33 18.8172 33 21.0143 33 23.0424C27.702 23.0424 22.2384 23.0424 16.9404 23.0424C16.9404 21.0143 16.9404 18.8172 16.9404 16.7891C22.2384 16.7891 27.5364 16.7891 33 16.7891Z" fill="#1E62B9"/>
<path d="M14.2914 8C14.2914 10.0281 14.2914 12.2252 14.2914 14.2534C12.3046 14.2534 10.1523 14.2534 8 14.2534C8 12.2252 8 10.0281 8 8C10.1523 8 12.3046 8 14.2914 8Z" fill="#1E62B9"/>
<path d="M8.16602 25.7466C10.3183 25.7466 12.3051 25.7466 14.4574 25.7466C14.4574 27.7747 14.4574 29.9718 14.4574 31.9999C12.3051 31.9999 10.3183 31.9999 8.16602 31.9999C8.16602 29.9718 8.16602 27.7747 8.16602 25.7466Z" fill="#1E62B9"/>
<path d="M14.2914 23.2113C12.1391 23.2113 10.1523 23.2113 8 23.2113C8 21.1831 8 18.986 8 16.9579C9.98675 16.9579 12.1391 16.9579 14.2914 16.9579C14.2914 18.986 14.2914 21.0141 14.2914 23.2113Z" fill="#1E62B9"/>
</svg>
