<svg width="40" height="40" viewBox="0 0 40 40" fill="none" xmlns="http://www.w3.org/2000/svg">
<rect width="40" height="40" rx="4" fill="#1E62B9" fill-opacity="0.1"/>
<path fill-rule="evenodd" clip-rule="evenodd" d="M30.7658 23.3279C29.936 22.2948 28.8343 21.6946 27.5163 21.4572V21.1501V10.08C27.5163 8.83061 26.7004 8 25.4662 8H10.0414C8.82807 8 8.00523 8.82363 8.00523 10.0312C7.99826 16.676 7.99826 23.3139 8.00523 29.9518C8.00523 30.1821 8.03312 30.4194 8.10286 30.6428C8.36784 31.5013 9.107 31.9969 10.0833 31.9969C11.8532 31.9969 13.6238 31.9977 15.3948 31.9984H15.3956H15.3963H15.3971H15.3979C18.9426 32 22.4884 32.0016 26.031 31.9969C26.0934 31.9969 26.1561 31.9971 26.2189 31.9974H26.2194H26.2199H26.2204H26.2209C26.6347 31.999 27.0555 32.0006 27.4605 31.9341C29.4618 31.613 30.8844 30.4962 31.6096 28.6116C32.3418 26.7131 32.035 24.9193 30.7658 23.3279ZM26.6865 23.0836C28.6948 23.0836 30.2986 24.6889 30.2986 26.6992C30.2986 28.3601 29.1913 29.7523 27.6681 30.1796C27.3541 30.2677 27.0225 30.3148 26.6792 30.3148L26.6512 30.3147C24.8731 30.3074 23.4177 29.0304 23.1222 27.3264C23.086 27.1185 23.0671 26.9043 23.0671 26.6853C23.0671 26.4686 23.0861 26.2565 23.1227 26.0505C23.4221 24.3547 24.9018 23.0836 26.6865 23.0836ZM22.4886 18.5955H17.7329C17.1843 18.5955 16.6358 18.5963 16.0872 18.597C14.9901 18.5986 13.893 18.6001 12.7958 18.5955C12.7251 18.5955 12.6572 18.589 12.5926 18.5766C12.0964 18.482 11.7953 18.0425 11.931 17.5484C12.0147 17.2343 12.217 17.0389 12.5307 16.9551C12.6144 16.9342 12.7051 16.9202 12.7888 16.9202H22.7186C23.2459 16.9202 23.6144 17.2726 23.6113 17.7573L23.6113 17.7649L23.6112 17.7719C23.6094 17.988 23.5268 18.1835 23.3899 18.3291C23.251 18.4784 23.0558 18.5744 22.8303 18.5885C22.7187 18.5955 22.6002 18.5955 22.4886 18.5955ZM11.8995 13.251C11.8691 13.7283 12.2421 14.1355 12.7746 14.1355H17.7674C19.4201 14.1355 21.0727 14.1355 22.7324 14.1425C23.1039 14.1425 23.3909 13.9601 23.5243 13.6776C23.5885 13.545 23.6178 13.3899 23.6043 13.221C23.5695 12.7743 23.1999 12.4602 22.7048 12.4602H14.2951C14.1228 12.4602 13.9513 12.4594 13.7801 12.4586C13.4384 12.4571 13.0978 12.4555 12.754 12.4602C12.6139 12.4626 12.4834 12.4937 12.3685 12.5485C12.1884 12.6312 12.0478 12.7731 11.9694 12.9561C11.9545 12.9896 11.9417 13.0244 11.9312 13.0604C11.9135 13.1248 11.9031 13.1886 11.8995 13.251ZM12.7748 21.3945C12.6029 21.3969 12.4474 21.4386 12.3166 21.5111C12.0614 21.6496 11.8986 21.9077 11.8893 22.2181C11.8754 22.6787 12.2519 23.0766 12.754 23.0766C15.1528 23.0836 17.5446 23.0836 19.9434 23.0696C20.1596 23.0696 20.4176 22.944 20.5849 22.7904C20.5995 22.7778 20.6134 22.7648 20.6267 22.7515C20.854 22.5295 20.8921 22.2174 20.7592 21.918C20.6127 21.59 20.3547 21.4015 19.9851 21.4015H17.2386L16.3527 21.4014H16.3522H16.0961C15.5839 21.401 15.0708 21.3995 14.5583 21.398H14.5582C13.962 21.3963 13.3667 21.3945 12.7748 21.3945ZM19.4454 26.0989C19.2795 25.9491 19.0436 25.8616 18.7649 25.8616H12.8307C12.2728 25.8616 11.8963 26.1966 11.8893 26.6922C11.8893 26.6945 11.8893 26.6969 11.8893 26.6992C11.8861 27.1911 12.2756 27.5368 12.8447 27.5368H15.7735H18.7511C19.3229 27.5368 19.7134 27.1878 19.7064 26.6923C19.703 26.4508 19.6075 26.2451 19.4454 26.0989Z" fill="#1E62B9"/>
<path d="M26.0939 26.6643C26.6727 26.0779 27.2026 25.5405 27.7466 25.01C28.2347 24.5284 29.0087 24.7448 29.1621 25.3939C29.2319 25.6871 29.1551 25.9523 28.946 26.1617C28.1998 26.9155 27.4537 27.6694 26.6936 28.4162C26.3589 28.7443 25.8777 28.7303 25.543 28.4092C25.1595 28.0393 24.7829 27.6624 24.4134 27.2855C24.0786 26.9365 24.0856 26.4409 24.4064 26.1128C24.7341 25.7778 25.2432 25.7708 25.5988 26.1128C25.7731 26.2804 25.9196 26.4688 26.0939 26.6643Z" fill="#1E62B9"/>
</svg>
