<svg width="40" height="40" viewBox="0 0 40 40" fill="none" xmlns="http://www.w3.org/2000/svg">
<rect width="40" height="40" rx="4" fill="#1E62B9" fill-opacity="0.1"/>
<path fill-rule="evenodd" clip-rule="evenodd" d="M8.99986 9C8.44757 9 8 9.44732 8 9.99961V30.0004C8 30.5527 8.44757 31 8.99986 31H32.0001C32.5524 31 33 30.5527 33 30.0004V9.99961C33 9.44732 32.5524 9 32.0001 9H8.99986ZM29.3788 12.4248L27.6427 10.7362H31.1149L29.3788 12.4248ZM9.78494 11.2362C9.78494 10.9601 10.0088 10.7362 10.2849 10.7362H21.7849C22.0611 10.7362 22.2849 10.9601 22.2849 11.2362V11.973C22.2849 12.2492 22.0611 12.473 21.7849 12.473H10.2849C10.0088 12.473 9.78494 12.2492 9.78494 11.973V11.2362ZM17.3328 25.7896C16.7806 25.7896 16.3328 26.2373 16.3328 26.7896V27.1054C16.3328 27.6577 16.7806 28.1054 17.3328 28.1054H30.2138C30.7661 28.1054 31.2138 27.6577 31.2138 27.1054V26.7896C31.2138 26.2373 30.7661 25.7896 30.2138 25.7896H17.3328ZM16.3328 21.5787C16.3328 21.0265 16.7806 20.5787 17.3328 20.5787H30.2138C30.7661 20.5787 31.2138 21.0265 31.2138 21.5787V21.8945C31.2138 22.4468 30.7661 22.8945 30.2138 22.8945H17.3328C16.7806 22.8945 16.3328 22.4468 16.3328 21.8945V21.5787ZM17.3328 15.3683C16.7806 15.3683 16.3328 15.816 16.3328 16.3683V16.6841C16.3328 17.2364 16.7806 17.6841 17.3328 17.6841H30.2138C30.7661 17.6841 31.2138 17.2364 31.2138 16.6841V16.3683C31.2138 15.816 30.7661 15.3683 30.2138 15.3683H17.3328Z" fill="#1E62B9"/>
<path d="M9.78662 26.9475C9.78662 26.7545 9.78662 26.5614 9.78662 26.3684C11.6013 26.3684 13.4159 26.3684 15.2305 26.3684C15.2305 26.5614 15.2305 26.7545 15.2305 26.9475C15.1157 26.9475 15.0009 26.9475 14.8846 26.9475C13.1862 26.9475 11.4864 26.9475 9.78662 26.9475Z" fill="#FEE05A"/>
<path d="M15.2305 28.1061C15.2305 28.2992 15.2305 28.4922 15.2305 28.6853C15.2079 28.6853 15.1852 28.6853 15.1611 28.6853C13.5151 28.6853 11.8678 28.6853 10.2219 28.6853C10.0772 28.6853 9.93123 28.6853 9.78662 28.6853C9.78662 28.4922 9.78662 28.2992 9.78662 28.1061C9.80222 28.1061 9.81781 28.1048 9.83482 28.1048C11.6183 28.1048 13.4003 28.1048 15.1838 28.1048C15.1994 28.1048 15.2149 28.1048 15.2305 28.1061Z" fill="#FEE05A"/>
<path d="M15.2301 26.3687C13.4154 26.3687 11.6008 26.3687 9.78613 26.3687C9.78613 26.2832 9.78613 26.1964 9.78613 26.1095C9.7918 26.0971 9.79889 26.0861 9.80315 26.0736C9.85985 25.9054 10.0002 25.8006 10.1817 25.791C10.1987 25.7896 10.2171 25.7896 10.2341 25.7896C11.7496 25.7896 13.2637 25.7896 14.7792 25.7896C15.0174 25.7896 15.1549 25.8903 15.2215 26.1123C15.223 26.115 15.2272 26.1164 15.2286 26.1178C15.2301 26.2033 15.2301 26.286 15.2301 26.3687Z" fill="#474755"/>
<path d="M9.78657 28.6848C9.93118 28.6848 10.0772 28.6848 10.2218 28.6848C11.8677 28.6848 13.5151 28.6848 15.161 28.6848C15.1837 28.6848 15.2064 28.6848 15.2305 28.6848C15.2305 28.7717 15.2305 28.8572 15.2305 28.9441C15.2248 28.9565 15.2163 28.9675 15.2121 28.9799C15.1539 29.1523 15.0093 29.2571 14.8222 29.2626C14.8052 29.2626 14.7868 29.2626 14.7697 29.2626C13.2613 29.2626 11.7543 29.2626 10.2459 29.2626C10.0035 29.2626 9.87731 29.1757 9.79508 28.9551C9.79366 28.951 9.78799 28.9482 9.78516 28.9441C9.78657 28.8572 9.78657 28.7703 9.78657 28.6848Z" fill="#FE4C55"/>
<path d="M15.2305 28.1055C15.2149 28.1055 15.1993 28.1042 15.1823 28.1042C13.3988 28.1042 11.6168 28.1042 9.83336 28.1042C9.81776 28.1042 9.80217 28.1042 9.78516 28.1055C9.78516 27.9125 9.78516 27.7194 9.78516 27.5264C10.5039 27.5264 11.2227 27.5264 11.9415 27.5264C11.9429 27.5333 11.9429 27.5402 11.9443 27.5471C11.9641 27.9056 12.3044 28.1455 12.6588 28.0531C12.897 27.9911 13.0487 27.7967 13.0728 27.5264C13.7915 27.5264 14.5103 27.5264 15.2291 27.5264C15.2305 27.7194 15.2305 27.9125 15.2305 28.1055Z" fill="#474655"/>
<path d="M15.2311 27.5272C14.5123 27.5272 13.7935 27.5272 13.0748 27.5272C13.0734 27.5148 13.0734 27.5037 13.0719 27.4913C13.0493 27.1425 12.6906 26.8998 12.3475 27.0018C12.1434 27.0625 11.9548 27.2404 11.9449 27.5272C11.2261 27.5272 10.5073 27.5272 9.78857 27.5272C9.78857 27.3341 9.78857 27.1411 9.78857 26.948C11.4884 26.948 13.1882 26.948 14.8866 26.948C15.0014 26.948 15.1162 26.948 15.2325 26.948C15.2311 27.1411 15.2311 27.3341 15.2311 27.5272Z" fill="#FE4B55"/>
<path d="M11.9438 27.526C11.9552 27.2392 12.1437 27.0613 12.3465 27.0006C12.6896 26.8986 13.0468 27.1399 13.0709 27.4901C13.0723 27.5025 13.0723 27.5136 13.0737 27.526C13.0511 27.7976 12.898 27.9907 12.6598 28.0527C12.3054 28.1451 11.9651 27.9038 11.9453 27.5467C11.9467 27.5398 11.9453 27.5329 11.9438 27.526ZM12.4868 27.0696C12.4585 27.0737 12.4301 27.0792 12.3947 27.0847C12.4103 27.1137 12.4202 27.1316 12.4301 27.1495C12.4074 27.184 12.3777 27.2157 12.4103 27.2612C12.4188 27.2723 12.4074 27.3026 12.3975 27.3191C12.3847 27.3426 12.3621 27.3619 12.3465 27.3853C12.2954 27.4681 12.3124 27.5453 12.3918 27.6018C12.4074 27.6128 12.4244 27.6239 12.4415 27.6308C12.5081 27.657 12.5308 27.7025 12.5152 27.7659C12.4514 27.8018 12.3465 27.7218 12.311 27.8445C12.3394 27.8417 12.3706 27.8486 12.3805 27.8376C12.4216 27.7893 12.4726 27.8114 12.5237 27.8045C12.5265 27.8542 12.5279 27.8955 12.5308 27.9383C12.4925 27.9465 12.4613 27.9534 12.4287 27.9617C12.4301 27.9686 12.4301 27.9741 12.4315 27.981C12.4868 27.9783 12.5435 27.9755 12.5988 27.9727C12.5237 27.9245 12.5733 27.861 12.5577 27.8045C12.579 27.8045 12.5903 27.8045 12.6031 27.8045C12.6569 27.8031 12.6655 27.7907 12.6385 27.7438C12.6286 27.7273 12.6215 27.7094 12.6102 27.6859C12.6541 27.6914 12.6867 27.6942 12.7207 27.6983C12.7321 27.7107 12.7434 27.7232 12.7619 27.7425C12.7463 27.7618 12.725 27.7893 12.7051 27.8128C12.7292 27.8238 12.7519 27.8335 12.7789 27.8459C12.8923 27.7645 12.898 27.6404 12.7817 27.5508C12.7533 27.5287 12.7193 27.5122 12.6881 27.4915C12.6428 27.4708 12.5974 27.4515 12.5506 27.4308C12.5308 27.4267 12.5109 27.4226 12.4911 27.4184C12.4812 27.3619 12.4967 27.315 12.5364 27.2695C12.5549 27.2474 12.5563 27.2116 12.5648 27.1826C12.6201 27.1675 12.6059 27.1399 12.5804 27.1096C12.5591 27.0778 12.5279 27.0627 12.4868 27.0696Z" fill="#F3F2F2"/>
<path d="M12.7222 27.6992C12.6896 27.695 12.6556 27.6909 12.6116 27.6867C12.623 27.7102 12.6301 27.7281 12.64 27.7447C12.6655 27.7915 12.6584 27.804 12.6045 27.8053C12.5918 27.8053 12.5804 27.8053 12.5592 27.8053C12.5748 27.8605 12.5237 27.9239 12.6003 27.9736C12.545 27.9763 12.4883 27.9791 12.433 27.9818C12.4316 27.9749 12.4316 27.9694 12.4302 27.9625C12.4628 27.9556 12.4954 27.9474 12.5322 27.9391C12.5294 27.8963 12.528 27.855 12.5252 27.8053C12.4741 27.8122 12.4231 27.7888 12.382 27.8384C12.372 27.8495 12.3409 27.8439 12.3125 27.8453C12.3479 27.724 12.4543 27.8026 12.5166 27.7667C12.5322 27.7033 12.5096 27.6578 12.4429 27.6316C12.4245 27.6247 12.4089 27.6137 12.3933 27.6026C12.3125 27.5461 12.2969 27.4689 12.3479 27.3862C12.3621 27.3627 12.3848 27.3448 12.399 27.32C12.4089 27.3034 12.4188 27.2731 12.4117 27.2621C12.3791 27.2152 12.4089 27.1848 12.4316 27.1504C12.4486 27.1435 12.4642 27.1366 12.4812 27.1297C12.5011 27.1352 12.5209 27.1407 12.5407 27.1462C12.5493 27.1586 12.5592 27.1724 12.5677 27.1848C12.5592 27.2138 12.5578 27.2496 12.5393 27.2717C12.5011 27.3172 12.484 27.3641 12.494 27.4206C12.4599 27.4661 12.4543 27.5144 12.494 27.5433C12.5592 27.5888 12.6329 27.6233 12.7038 27.6619C12.7095 27.6743 12.7165 27.6867 12.7222 27.6992Z" fill="#4C4B5A"/>
<path d="M12.7205 27.6995C12.7134 27.6871 12.7077 27.6747 12.7006 27.6609C12.6709 27.6264 12.6411 27.5919 12.6113 27.5575C12.6241 27.5368 12.6368 27.5161 12.651 27.4927C12.6595 27.4927 12.6737 27.4927 12.6865 27.4927C12.7177 27.512 12.7517 27.5285 12.78 27.552C12.8963 27.6416 12.892 27.7657 12.7772 27.847C12.7503 27.8346 12.729 27.825 12.7035 27.8139C12.7219 27.7891 12.7446 27.7616 12.7602 27.7436C12.7446 27.7243 12.7318 27.7119 12.7205 27.6995Z" fill="#FC515B"/>
<path d="M12.6125 27.5589C12.6423 27.5934 12.6721 27.6279 12.7019 27.6624C12.631 27.6238 12.5573 27.5907 12.492 27.5438C12.4523 27.5148 12.458 27.4679 12.492 27.4211C12.5119 27.4252 12.5317 27.4293 12.5516 27.4335C12.536 27.4928 12.5544 27.5341 12.6125 27.5589Z" fill="#6B6F7E"/>
<path d="M12.6113 27.559C12.5531 27.5342 12.5333 27.4928 12.5503 27.4349C12.5957 27.4556 12.641 27.4749 12.6878 27.4956C12.6736 27.4956 12.6595 27.4956 12.6524 27.4956C12.6368 27.5177 12.624 27.5383 12.6113 27.559Z" fill="#F9EDF1"/>
<path d="M12.5381 27.1463C12.5182 27.1408 12.4984 27.1352 12.4785 27.1297C12.4814 27.1104 12.4828 27.0897 12.4856 27.0704C12.5267 27.0635 12.5579 27.0787 12.5806 27.1118C12.5664 27.1228 12.5522 27.1352 12.5381 27.1463Z" fill="#FAD35F"/>
<path d="M12.4848 27.0715C12.482 27.0908 12.4806 27.1115 12.4778 27.1308C12.4609 27.1377 12.4455 27.1446 12.4286 27.1515C12.4188 27.1335 12.4104 27.1156 12.3936 27.0867C12.4286 27.0811 12.4567 27.0756 12.4848 27.0715Z" fill="#FB565D"/>
<path d="M12.5386 27.1462C12.5526 27.1352 12.5666 27.1242 12.5807 27.1118C12.6059 27.1421 12.62 27.1711 12.5652 27.1849C12.5568 27.1724 12.5484 27.1587 12.5386 27.1462Z" fill="#FD535C"/>
<path d="M9.78906 15.6884C9.79899 15.665 9.80892 15.6415 9.81743 15.6195C9.87984 15.4663 10.0302 15.3684 10.2103 15.3684C10.7351 15.3684 11.2585 15.3684 11.7833 15.3684C11.9407 15.3684 12.0982 15.3698 12.2556 15.3698C12.3052 15.3918 12.3265 15.4291 12.3237 15.4843C12.3208 15.5353 12.3251 15.5864 12.3265 15.6374C12.3265 15.7271 12.3265 15.8154 12.3265 15.905C12.3265 15.9947 12.3265 16.0844 12.3265 16.1727C12.3265 16.261 12.3265 16.3479 12.3265 16.4362C12.3265 16.5258 12.3265 16.6141 12.3265 16.7038C12.3265 16.7921 12.3265 16.8817 12.3265 16.97C12.3251 17.0197 12.3208 17.0694 12.3237 17.119C12.3265 17.1728 12.3081 17.2128 12.257 17.2363C12.2442 17.2363 12.2329 17.2377 12.2201 17.2377C11.4471 17.2377 10.6741 17.2377 9.90111 17.2391C9.84863 17.2391 9.81459 17.217 9.78906 17.177C9.78906 16.6817 9.78906 16.1851 9.78906 15.6884ZM10.6075 15.7657C10.5933 15.7147 10.6032 15.676 10.6557 15.654C10.6486 15.6498 10.5493 15.5767 10.5422 15.5726C10.5422 15.6346 10.4968 15.6429 10.4358 15.6429C10.4656 15.6678 10.4826 15.6815 10.4997 15.6953C10.494 15.7188 10.4897 15.7395 10.4812 15.7712C10.511 15.7547 10.5294 15.7436 10.5507 15.7312C10.5692 15.7422 10.589 15.7547 10.6075 15.7657ZM10.8032 15.7257C10.7918 15.7864 10.755 15.8057 10.6954 15.8043C10.7635 15.8305 10.7535 15.8747 10.7337 15.9285C10.7649 15.9106 10.7862 15.8981 10.8046 15.8871C10.8245 15.8995 10.8429 15.9106 10.8727 15.9285C10.8642 15.894 10.8585 15.8733 10.8543 15.8526C10.8727 15.8374 10.8897 15.8223 10.9067 15.8071C10.8457 15.8085 10.8174 15.7823 10.8032 15.7257ZM10.8032 16.679C10.7918 16.7397 10.7535 16.7548 10.6968 16.7548C10.7535 16.7824 10.7578 16.8238 10.728 16.8831C10.7649 16.8611 10.7848 16.85 10.8032 16.8376C10.8245 16.8486 10.8429 16.8597 10.8727 16.8762C10.8642 16.8417 10.8585 16.821 10.8543 16.8004C10.8727 16.7852 10.8897 16.7714 10.9067 16.7576C10.8514 16.7548 10.8145 16.7383 10.8032 16.679ZM12.1194 16.6486C12.1379 16.6321 12.1549 16.6183 12.1719 16.6045C12.118 16.6017 12.0811 16.5824 12.0684 16.5217C12.057 16.5824 12.0201 16.6017 11.962 16.6003C12.0201 16.6279 12.023 16.6679 11.9918 16.7272C12.0301 16.7052 12.0513 16.6941 12.0698 16.6845C12.0911 16.6969 12.1095 16.7079 12.1393 16.7259C12.1308 16.69 12.1251 16.6707 12.1194 16.6486ZM12.1265 15.7643C12.1336 15.7629 12.1407 15.7629 12.1478 15.7616C12.0953 15.705 12.1379 15.6774 12.1747 15.6429C12.1152 15.6512 12.084 15.6236 12.0684 15.5698C12.0599 15.6319 12.0187 15.6443 11.9549 15.6415C11.9847 15.6678 12.0088 15.6788 12.0159 15.6967C12.0216 15.7147 12.0102 15.7381 12.0045 15.7671C12.0315 15.7519 12.0513 15.7409 12.0712 15.7298C12.0882 15.7422 12.1081 15.7533 12.1265 15.7643ZM11.745 15.9257C11.7748 15.9106 11.796 15.8995 11.8173 15.8885C11.8372 15.8995 11.857 15.9119 11.8854 15.9285C11.8769 15.894 11.8712 15.8733 11.8655 15.8526C11.884 15.8374 11.901 15.8223 11.918 15.8085C11.8613 15.8085 11.8301 15.7823 11.8116 15.7216C11.8145 15.7974 11.7606 15.7961 11.7038 15.8002C11.7322 15.8236 11.7492 15.8374 11.7663 15.8512C11.7606 15.8733 11.7549 15.894 11.745 15.9257ZM10.5507 16.6831C10.572 16.6955 10.5919 16.7065 10.6103 16.7162C10.6174 16.7162 10.6245 16.7162 10.6301 16.7162C10.5763 16.6596 10.6202 16.6293 10.6528 16.592C10.589 16.6072 10.5663 16.5714 10.5493 16.5189C10.5408 16.581 10.5011 16.5976 10.4344 16.5893C10.4656 16.6155 10.4826 16.6307 10.5011 16.6458C10.4954 16.6665 10.4897 16.6872 10.4798 16.7231C10.511 16.7065 10.5294 16.6955 10.5507 16.6831ZM11.6202 15.7643C11.6031 15.7119 11.6216 15.676 11.6684 15.6457C11.6074 15.6512 11.579 15.6236 11.5606 15.567C11.5606 15.6402 11.5095 15.6415 11.4528 15.6498C11.528 15.6691 11.511 15.716 11.501 15.7671C11.528 15.7519 11.5478 15.7409 11.5663 15.7312C11.5833 15.7436 11.6017 15.7547 11.6202 15.7643ZM10.2954 15.7243C10.2954 15.7974 10.2415 15.7961 10.1905 15.8043C10.2472 15.8305 10.2529 15.8692 10.2259 15.9271C10.2614 15.9078 10.2798 15.8981 10.2983 15.8885C10.3195 15.9009 10.338 15.9106 10.3564 15.9216C10.3351 15.8678 10.3578 15.8333 10.4004 15.8016C10.3436 15.8043 10.3096 15.7864 10.2954 15.7243ZM10.2288 16.8776C10.2614 16.8597 10.2812 16.8486 10.2997 16.8404C10.3209 16.8528 10.3394 16.8624 10.3578 16.8721C10.3635 16.8707 10.3692 16.8707 10.3748 16.8693C10.3224 16.8142 10.3692 16.7866 10.399 16.7493C10.3351 16.7645 10.3139 16.7272 10.2954 16.6762C10.2912 16.7438 10.2429 16.7493 10.1876 16.7576C10.2514 16.7797 10.2486 16.821 10.2288 16.8776ZM11.918 16.759C11.9194 16.7548 11.9194 16.7493 11.9209 16.7452C11.8584 16.7631 11.8343 16.7259 11.8102 16.6803C11.8088 16.7479 11.7606 16.7493 11.7053 16.7507C11.7322 16.7741 11.7492 16.7879 11.7663 16.8031C11.7606 16.8252 11.7563 16.8459 11.7478 16.8776C11.779 16.8611 11.7989 16.8486 11.8173 16.8376C11.8386 16.85 11.857 16.8624 11.8854 16.8804C11.8769 16.8459 11.8712 16.8238 11.8655 16.8017C11.8854 16.7866 11.901 16.7728 11.918 16.759ZM11.6698 16.5976C11.6074 16.6031 11.5762 16.5769 11.5606 16.5203C11.5535 16.5851 11.5124 16.5976 11.4556 16.5976C11.511 16.6238 11.518 16.6638 11.4925 16.7217C11.5266 16.7024 11.5436 16.6928 11.5634 16.6817C11.5833 16.6928 11.6031 16.7038 11.6216 16.7148C11.606 16.6665 11.6145 16.6279 11.6698 16.5976ZM10.1323 15.6429C10.0841 15.654 10.0614 15.6195 10.0401 15.5698C10.0373 15.636 9.99331 15.6443 9.93799 15.6484C9.99614 15.6747 9.99756 15.7147 9.97061 15.7726C10.0061 15.7519 10.0259 15.7409 10.0444 15.7312C10.0642 15.7436 10.0827 15.7533 10.0926 15.7588C10.1068 15.7202 10.1181 15.6843 10.1323 15.6429ZM11.3081 15.8871C11.3266 15.8981 11.3478 15.9092 11.3677 15.9202C11.3464 15.8678 11.3677 15.8319 11.4131 15.8016C11.3521 15.8085 11.3251 15.7781 11.3053 15.7257C11.301 15.7919 11.2571 15.7988 11.2032 15.8043C11.2571 15.8305 11.2656 15.8692 11.2386 15.9202C11.2429 15.9202 11.2486 15.9202 11.2528 15.9216C11.2712 15.9106 11.2883 15.8995 11.3081 15.8871ZM11.3677 16.8721C11.3464 16.8197 11.3677 16.7852 11.4159 16.7507C11.3493 16.7645 11.328 16.7272 11.3053 16.6776C11.3039 16.7438 11.2571 16.7493 11.206 16.7576C11.2216 16.7769 11.2471 16.7879 11.2542 16.8045C11.2613 16.821 11.2486 16.8459 11.2443 16.8762C11.2727 16.8597 11.2911 16.8486 11.3095 16.839C11.3308 16.85 11.3493 16.8611 11.3677 16.8721ZM11.162 15.6443C11.0982 15.6567 11.0741 15.6195 11.0528 15.5712C11.0514 15.6388 11.0032 15.6429 10.9535 15.6484C11.006 15.6774 11.0117 15.7147 10.9847 15.7726C11.0188 15.7547 11.0401 15.7436 11.0585 15.7326C11.0784 15.7436 11.0954 15.7547 11.1138 15.7643C11.094 15.7119 11.1124 15.676 11.162 15.6443ZM9.93941 16.5989C9.99047 16.6279 10.0047 16.6652 9.98621 16.7176C10.0047 16.7065 10.0245 16.6955 10.0444 16.6845C10.0628 16.6955 10.0827 16.7065 10.1011 16.7176C10.0827 16.6665 10.0983 16.6293 10.1493 16.5976C10.0841 16.6072 10.0586 16.5769 10.0429 16.5258C10.0302 16.5769 10.0004 16.6031 9.93941 16.5989ZM11.884 16.5603C11.8556 16.5051 11.8712 16.4679 11.9237 16.4334C11.8499 16.4555 11.8358 16.4072 11.8131 16.3617C11.8046 16.4224 11.7691 16.4403 11.7081 16.4403C11.7804 16.4637 11.762 16.5107 11.745 16.5727C11.796 16.5217 11.8372 16.5162 11.884 16.5603ZM11.0571 16.6845C11.0784 16.6955 11.0968 16.7065 11.1152 16.7162C11.0911 16.6596 11.1209 16.6293 11.1635 16.5962C11.0996 16.6072 11.0727 16.5755 11.0542 16.5231C11.0486 16.5865 11.006 16.5976 10.9507 16.6003C11.0103 16.6279 11.0103 16.6679 10.9833 16.7272C11.0174 16.7065 11.0358 16.6955 11.0571 16.6845ZM10.6557 16.2816C10.5876 16.2954 10.5677 16.2554 10.5479 16.2058C10.5394 16.2665 10.5025 16.2858 10.4415 16.2844C10.5138 16.3079 10.4954 16.3548 10.4798 16.4155C10.5294 16.3644 10.5706 16.3617 10.616 16.4044C10.6004 16.3534 10.5947 16.3106 10.6557 16.2816ZM9.97912 16.083C10.0245 16.0444 10.0642 16.0457 10.111 16.0858C10.0784 16.0278 10.1082 15.9947 10.1493 15.9602C10.0855 15.9754 10.0614 15.9395 10.0429 15.8912C10.0316 15.9478 9.99756 15.9685 9.94083 15.9616C9.98196 15.9947 10.0089 16.0278 9.97912 16.083ZM10.4841 16.0789C10.4855 16.0844 10.4869 16.0899 10.4883 16.0954C10.5294 16.0361 10.5706 16.054 10.6188 16.0858C10.5876 16.032 10.6103 15.9961 10.6585 15.9588C10.5848 15.985 10.5706 15.9354 10.5479 15.8912C10.5408 15.9547 10.4997 15.9644 10.4387 15.9602C10.467 15.985 10.4855 16.0002 10.5011 16.014C10.4954 16.0375 10.4897 16.0582 10.4841 16.0789ZM10.9521 15.9699C11.0174 15.9906 11.006 16.0361 10.9932 16.0844C11.0372 16.0457 11.0769 16.043 11.1223 16.0844C11.0911 16.0264 11.1195 15.9933 11.162 15.9602C11.0996 15.9713 11.0698 15.945 11.0627 15.8885C11.0188 15.9533 11.0188 15.9533 10.9521 15.9699ZM12.1733 16.2816C12.1095 16.2927 12.084 16.2582 12.0655 16.203C12.0641 16.272 12.0201 16.2816 11.9648 16.2858C12.0258 16.312 12.0201 16.3548 12.0031 16.4044C12.0485 16.3644 12.0896 16.363 12.1379 16.4044C12.1038 16.3479 12.1237 16.3134 12.1733 16.2816ZM9.98054 17.0349C10.0245 16.9976 10.0642 16.9963 10.1139 17.039C10.0685 16.9769 10.111 16.948 10.1479 16.9121C10.0841 16.9259 10.06 16.8928 10.0387 16.839C10.0415 16.9135 9.98763 16.9107 9.93799 16.9176C9.99047 16.9452 10.0018 16.9811 9.98054 17.0349ZM10.6202 17.0363C10.5748 16.9756 10.6174 16.948 10.6543 16.9121C10.5947 16.9231 10.5649 16.8942 10.5493 16.839C10.5408 16.9038 10.5011 16.9162 10.4344 16.9093C10.4685 16.9369 10.4855 16.9507 10.5025 16.9645C10.4968 16.9866 10.4897 17.0073 10.4841 17.028C10.4855 17.0335 10.4869 17.039 10.4883 17.0432C10.5294 16.9921 10.5706 16.999 10.6202 17.0363ZM12.101 16.908C12.0911 16.8873 12.0811 16.8666 12.0712 16.8473C12.0669 16.8445 12.0613 16.8417 12.057 16.839C12.0627 16.9107 12.0173 16.9135 11.9521 16.9135C11.9818 16.9383 12.0074 16.9493 12.0131 16.9659C12.0187 16.9852 12.0074 17.01 12.0003 17.0501C12.0485 16.9949 12.0896 16.999 12.135 17.0376C12.1052 16.9811 12.1265 16.9452 12.1875 16.9135C12.1464 16.9107 12.1237 16.9093 12.101 16.908ZM11.8159 16.2044C11.8358 16.2154 11.857 16.2278 11.8769 16.2389C11.8528 16.1837 11.8811 16.1506 11.9223 16.1133C11.8499 16.1382 11.8358 16.0913 11.8173 16.0388C11.8031 16.0692 11.7946 16.0899 11.7861 16.1106C11.762 16.1133 11.7393 16.1147 11.7067 16.1175C11.7322 16.1396 11.7492 16.1534 11.7663 16.1685C11.7606 16.1906 11.7549 16.2127 11.7478 16.2444C11.7776 16.2278 11.796 16.2154 11.8159 16.2044ZM11.2613 16.232C11.2911 16.1989 11.3308 16.2016 11.3776 16.2403C11.345 16.1823 11.3748 16.1492 11.4173 16.1106C11.3436 16.1382 11.3308 16.0885 11.3053 16.0444C11.301 16.1092 11.2571 16.1175 11.223 16.1161C11.2358 16.1561 11.2471 16.192 11.2613 16.232ZM10.8528 16.1699C10.8713 16.1547 10.8883 16.1396 10.9053 16.1244C10.9067 16.1189 10.9081 16.112 10.9096 16.1064C10.8401 16.1354 10.8202 16.0954 10.8004 16.0457C10.7904 16.1051 10.7535 16.1216 10.6926 16.1216C10.7621 16.1451 10.7507 16.1906 10.7365 16.2458C10.7805 16.1865 10.823 16.2099 10.8741 16.2499C10.8656 16.2113 10.8599 16.1906 10.8528 16.1699ZM12.1719 15.9699C12.1719 15.9644 12.1719 15.9602 12.1719 15.9547C12.1109 15.9726 12.084 15.945 12.0669 15.8843C12.0655 15.9575 12.0187 15.9616 11.9634 15.9657C12.023 15.9933 12.023 16.0333 12.0031 16.0844C12.0485 16.0499 12.0896 16.0402 12.135 16.0775C12.1294 16.0554 12.1251 16.0333 12.1194 16.0113C12.1379 15.9975 12.1549 15.9837 12.1719 15.9699ZM11.4641 15.9602C11.4613 15.9644 11.4571 15.9671 11.4542 15.9713C11.5138 15.9919 11.518 16.032 11.4939 16.083C11.562 16.0554 11.562 16.0554 11.6443 16.0885C11.5918 16.0292 11.6258 15.9961 11.6656 15.9602C11.6003 15.9754 11.5776 15.9395 11.5648 15.8788C11.5492 15.9147 11.5407 15.934 11.5308 15.9547C11.5081 15.9575 11.4868 15.9588 11.4641 15.9602ZM11.6273 17.0363C11.6017 16.9825 11.6202 16.9466 11.667 16.9121C11.6003 16.9273 11.579 16.89 11.5606 16.8404C11.5535 16.9066 11.511 16.9162 11.4556 16.9176C11.5166 16.9438 11.5166 16.9852 11.4996 17.0363C11.5436 17.0018 11.5819 16.9935 11.6273 17.0363ZM10.3649 16.2389C10.3252 16.1823 10.3635 16.152 10.4117 16.1106C10.3394 16.1258 10.3124 16.0968 10.294 16.043C10.2897 16.1106 10.2444 16.1175 10.189 16.1216C10.2486 16.1451 10.2472 16.1892 10.2344 16.2389C10.2798 16.1961 10.3181 16.2058 10.3649 16.2389ZM10.7011 16.4431C10.7606 16.4665 10.755 16.5093 10.7379 16.5603C10.7833 16.5189 10.8245 16.5189 10.8713 16.5603C10.8429 16.5038 10.8628 16.4679 10.911 16.4362C10.8457 16.4486 10.8202 16.4182 10.8103 16.363C10.7635 16.4279 10.7635 16.4279 10.7011 16.4431ZM11.1209 17.0349C11.0883 16.9783 11.1223 16.9452 11.162 16.9107C11.0982 16.9259 11.0741 16.8914 11.0557 16.8417C11.0429 16.8955 11.0117 16.919 10.9521 16.9149C11.0074 16.9438 11.0103 16.9838 10.9918 17.0349C11.0372 17.0004 11.0741 16.9935 11.1209 17.0349ZM11.3762 16.5576C11.3507 16.5051 11.3663 16.4679 11.4145 16.4334C11.3436 16.4541 11.3308 16.4044 11.3081 16.363C11.2968 16.4196 11.2656 16.4431 11.2046 16.4362C11.2585 16.4651 11.267 16.5051 11.2457 16.5603C11.2897 16.5107 11.3308 16.5231 11.3762 16.5576ZM11.667 16.2803C11.5989 16.2968 11.5819 16.2527 11.5663 16.2058C11.5294 16.2706 11.5294 16.2706 11.4528 16.2858C11.5095 16.312 11.5223 16.3492 11.4968 16.4072C11.5436 16.3534 11.5847 16.3699 11.6301 16.403C11.6102 16.352 11.6102 16.312 11.667 16.2803ZM10.1465 16.2803C10.0756 16.301 10.0642 16.2485 10.0415 16.2085C10.033 16.2651 9.99898 16.2858 9.94083 16.2858C9.99898 16.3134 9.99614 16.3548 9.98054 16.4072C10.0245 16.3561 10.0642 16.3686 10.1096 16.403C10.0883 16.352 10.094 16.3134 10.1465 16.2803ZM10.3621 16.5576C10.3365 16.5051 10.3536 16.4679 10.4018 16.432C10.3295 16.4569 10.3181 16.4044 10.2926 16.3644C10.2869 16.4279 10.2444 16.4375 10.1905 16.4403C10.2514 16.4651 10.2472 16.5079 10.2344 16.5576C10.2798 16.5162 10.3181 16.5189 10.3621 16.5576ZM11.1209 16.4044C11.0954 16.3492 11.1138 16.312 11.162 16.2789C11.0982 16.2927 11.0713 16.261 11.0557 16.2085C11.0415 16.261 11.0117 16.2872 10.9535 16.283C11.0089 16.312 11.0103 16.352 10.9904 16.403C11.0358 16.3672 11.0755 16.3575 11.1209 16.4044Z" fill="#43489B"/>
<path d="M9.78857 17.1791C9.8141 17.2191 9.84815 17.2426 9.90062 17.2412C10.6736 17.2398 11.4466 17.2398 12.2196 17.2398C12.2324 17.2398 12.2438 17.2384 12.2565 17.2384C12.2792 17.2384 12.3019 17.2398 12.326 17.2398C13.2962 17.2398 14.2649 17.2398 15.2351 17.2398C15.2351 17.3295 15.2351 17.4191 15.2351 17.5088C15.2181 17.5088 15.1996 17.5074 15.1826 17.5074C13.4026 17.5074 11.6225 17.5074 9.84247 17.5074C9.82545 17.5074 9.80701 17.5088 9.78999 17.5088C9.78857 17.3998 9.78857 17.2895 9.78857 17.1791Z" fill="#F4F2F2"/>
<path d="M15.2345 18.0385C15.2345 18.1281 15.2345 18.2178 15.2345 18.3075C15.2118 18.3075 15.1892 18.3075 15.165 18.3075C13.3949 18.3075 11.6262 18.3075 9.85612 18.3075C9.83343 18.3075 9.81073 18.3075 9.78662 18.3075C9.78662 18.2178 9.78662 18.1281 9.78662 18.0385C9.80364 18.0385 9.82208 18.0398 9.8391 18.0398C11.6191 18.0398 13.3992 18.0398 15.1792 18.0398C15.1991 18.0398 15.2175 18.0385 15.2345 18.0385Z" fill="#FE4D57"/>
<path d="M9.78799 17.5096C9.80501 17.5096 9.82345 17.5082 9.84047 17.5082C11.6205 17.5082 13.4006 17.5082 15.1806 17.5082C15.1976 17.5082 15.2161 17.5096 15.2331 17.5096C15.2331 17.5993 15.2331 17.689 15.2331 17.7786C15.2118 17.7772 15.1905 17.7745 15.1692 17.7745C13.3963 17.7745 11.6233 17.7745 9.84898 17.7745C9.82771 17.7745 9.80643 17.7772 9.78516 17.7786C9.78799 17.689 9.78799 17.5993 9.78799 17.5096Z" fill="#FE4E58"/>
<path d="M9.78857 18.3075C9.81127 18.3075 9.83396 18.3075 9.85807 18.3075C11.6282 18.3075 13.3969 18.3075 15.167 18.3075C15.1897 18.3075 15.2124 18.3075 15.2365 18.3075C15.2365 18.3902 15.2365 18.473 15.2365 18.5558C15.228 18.5627 15.2181 18.5696 15.2095 18.5765C13.4125 18.5765 11.614 18.5765 9.81694 18.5765C9.80843 18.5696 9.7985 18.5627 9.78999 18.5558C9.78857 18.473 9.78857 18.3902 9.78857 18.3075Z" fill="#F4F3F3"/>
<path d="M9.78857 17.7784C9.80985 17.777 9.83113 17.7742 9.8524 17.7742C11.6253 17.7742 13.3983 17.7742 15.1727 17.7742C15.1939 17.7742 15.2152 17.777 15.2365 17.7784C15.2365 17.8653 15.2365 17.9508 15.2365 18.0363C15.2195 18.0363 15.201 18.0377 15.184 18.0377C13.404 18.0377 11.6239 18.0377 9.84389 18.0377C9.82687 18.0377 9.80843 18.0363 9.79141 18.0363C9.78857 17.9508 9.78857 17.8653 9.78857 17.7784Z" fill="#F4F4F4"/>
<path d="M15.2354 17.241C14.2652 17.241 13.2965 17.241 12.3263 17.241C12.3036 17.241 12.2809 17.2396 12.2568 17.2396C12.3079 17.2162 12.3263 17.1762 12.3235 17.1224C12.3207 17.0727 12.3249 17.023 12.3263 16.9734C13.2965 16.9734 14.2652 16.9734 15.2354 16.9734C15.2354 17.0617 15.2354 17.1513 15.2354 17.241Z" fill="#FE4C56"/>
<path d="M12.3252 16.7049C12.3252 16.6152 12.3252 16.527 12.3252 16.4373C13.2812 16.4373 14.2371 16.4373 15.1931 16.4373C15.2073 16.4373 15.2215 16.4345 15.2357 16.4331C15.2357 16.5228 15.2357 16.6125 15.2357 16.7022C15.213 16.7022 15.1903 16.7035 15.1662 16.7035C14.2187 16.7049 13.2712 16.7049 12.3252 16.7049Z" fill="#FE4E58"/>
<path d="M12.3252 16.7053C13.2712 16.7053 14.2187 16.7053 15.1648 16.7053C15.1874 16.7053 15.2101 16.7039 15.2343 16.7039C15.2343 16.7936 15.2343 16.8833 15.2343 16.9729C14.2641 16.9729 13.2954 16.9729 12.3252 16.9729C12.3252 16.8833 12.3252 16.7936 12.3252 16.7053Z" fill="#F4F2F2"/>
<path d="M12.3252 16.1722C12.3252 16.0825 12.3252 15.9928 12.3252 15.9045C12.4443 15.9045 12.5621 15.9045 12.6812 15.9045C13.5322 15.9045 14.3832 15.9045 15.2343 15.9059C15.2343 15.9956 15.2343 16.0853 15.2343 16.1749C15.2215 16.1749 15.2101 16.1735 15.1974 16.1735C14.24 16.1722 13.2826 16.1722 12.3252 16.1722Z" fill="#FE4D57"/>
<path d="M15.2343 15.9063C14.3832 15.9063 13.5322 15.9063 12.6812 15.905C12.5621 15.905 12.4443 15.905 12.3252 15.905C12.3252 15.8153 12.3252 15.727 12.3252 15.6373C13.2854 15.6373 14.2471 15.6373 15.2073 15.6373C15.2158 15.6442 15.2257 15.6511 15.2343 15.658C15.2343 15.7408 15.2343 15.8236 15.2343 15.9063Z" fill="#F4F3F3"/>
<path d="M12.3256 16.1722C13.283 16.1722 14.2404 16.1722 15.1978 16.1722C15.2106 16.1722 15.2219 16.1736 15.2347 16.1736C15.2347 16.2591 15.2347 16.346 15.2347 16.4329C15.2205 16.4343 15.2063 16.4371 15.1921 16.4371C14.2362 16.4371 13.2802 16.4371 12.3242 16.4371C12.3256 16.3488 12.3256 16.2605 12.3256 16.1722Z" fill="#F4F4F4"/>
<path d="M9.81543 18.5749C11.6125 18.5749 13.4096 18.5749 15.208 18.5749C15.1683 18.7211 15.0123 18.8356 14.8364 18.8425C14.8222 18.8425 14.8081 18.8425 14.7939 18.8425C13.272 18.8425 11.7501 18.8425 10.2282 18.8425C10.0594 18.8425 9.92606 18.7804 9.83954 18.6356C9.82819 18.6176 9.82394 18.5956 9.81543 18.5749Z" fill="#FE4C56"/>
<path d="M15.2079 15.6373C14.2477 15.6373 13.286 15.6373 12.3258 15.6373C12.3244 15.5863 12.3201 15.5352 12.323 15.4842C12.3258 15.429 12.3045 15.3932 12.2549 15.3697C12.4407 15.3697 12.6265 15.3683 12.8123 15.3683C13.4761 15.3683 14.1413 15.3683 14.8051 15.3683C14.9682 15.3683 15.0959 15.4318 15.181 15.5697C15.1923 15.5918 15.1994 15.6153 15.2079 15.6373Z" fill="#FE4D56"/>
<path d="M10.6067 15.7656C10.5882 15.7545 10.5684 15.7421 10.5499 15.7311C10.5301 15.7421 10.5102 15.7531 10.4804 15.7711C10.4875 15.7394 10.4932 15.7187 10.4989 15.6952C10.4833 15.6814 10.4663 15.6676 10.4351 15.6428C10.496 15.6428 10.5414 15.6345 10.5414 15.5724C10.5485 15.5766 10.6478 15.6497 10.6549 15.6538C10.6024 15.6759 10.5939 15.7145 10.6067 15.7656Z" fill="#E8E8EE"/>
<path d="M10.8026 15.7259C10.8168 15.7825 10.8452 15.8101 10.9062 15.8073C10.8891 15.8225 10.8721 15.8377 10.8537 15.8529C10.8579 15.8736 10.8636 15.8942 10.8721 15.9287C10.8423 15.9108 10.8239 15.8998 10.804 15.8874C10.7842 15.8984 10.7643 15.9108 10.7331 15.9287C10.753 15.8736 10.7629 15.8294 10.6948 15.8046C10.7544 15.8046 10.7913 15.7853 10.8026 15.7259Z" fill="#E8E8EE"/>
<path d="M10.8027 16.6789C10.8126 16.7382 10.8509 16.7547 10.9062 16.7589C10.8892 16.7727 10.8736 16.7865 10.8537 16.8017C10.8594 16.821 10.8637 16.8417 10.8722 16.8775C10.8424 16.861 10.8225 16.8499 10.8027 16.8389C10.7842 16.8499 10.7644 16.861 10.7275 16.8844C10.7587 16.8237 10.7544 16.7837 10.6963 16.7561C10.753 16.7547 10.7913 16.7396 10.8027 16.6789Z" fill="#E8E8EE"/>
<path d="M12.1184 16.6487C12.1241 16.6708 12.1298 16.6901 12.1397 16.7246C12.1099 16.7067 12.0915 16.6956 12.0702 16.6832C12.0518 16.6942 12.0305 16.7053 11.9922 16.726C12.0234 16.6667 12.0206 16.6266 11.9624 16.5991C12.0206 16.6004 12.0574 16.5811 12.0688 16.5204C12.0801 16.5811 12.117 16.6004 12.1723 16.6032C12.1539 16.6184 12.1369 16.6322 12.1184 16.6487Z" fill="#E9E9EF"/>
<path d="M12.1257 15.7638C12.1072 15.7527 12.0874 15.7417 12.0689 15.7307C12.0491 15.7417 12.0292 15.7527 12.0023 15.7679C12.008 15.7389 12.0193 15.7155 12.0136 15.6976C12.0065 15.6796 11.9824 15.6672 11.9526 15.6424C12.0165 15.6451 12.0576 15.6327 12.0661 15.5706C12.0831 15.6244 12.1129 15.652 12.1725 15.6437C12.1356 15.6782 12.0931 15.7058 12.1455 15.7624C12.1399 15.7624 12.1328 15.7638 12.1257 15.7638Z" fill="#E8E8EE"/>
<path d="M11.7452 15.9256C11.7537 15.8939 11.7594 15.8746 11.7665 15.8525C11.7495 15.8387 11.7325 15.8249 11.7041 15.8015C11.7608 15.7959 11.8147 15.7987 11.8119 15.7228C11.8303 15.7821 11.8615 15.8083 11.9183 15.8097C11.9013 15.8235 11.8842 15.8387 11.8658 15.8539C11.8715 15.8746 11.8771 15.8953 11.8857 15.9297C11.8559 15.9132 11.836 15.9008 11.8176 15.8897C11.7963 15.8994 11.775 15.9104 11.7452 15.9256Z" fill="#E7E8EE"/>
<path d="M10.5504 16.6832C10.5291 16.6956 10.5107 16.7067 10.4795 16.7246C10.4894 16.6887 10.4951 16.668 10.5007 16.6473C10.4823 16.6322 10.4653 16.6184 10.4341 16.5908C10.5007 16.5991 10.5405 16.5825 10.549 16.5204C10.566 16.5728 10.5887 16.6073 10.6525 16.5935C10.6199 16.6308 10.5759 16.6611 10.6298 16.7177C10.6227 16.7177 10.6156 16.7177 10.61 16.7177C10.5901 16.7067 10.5717 16.6956 10.5504 16.6832Z" fill="#E7E8EE"/>
<path d="M11.62 15.7647C11.6015 15.7551 11.5845 15.744 11.5646 15.733C11.5462 15.7427 11.5263 15.7537 11.4994 15.7689C11.5093 15.7178 11.5278 15.6695 11.4512 15.6516C11.5079 15.642 11.5604 15.642 11.559 15.5688C11.5774 15.6254 11.6058 15.653 11.6668 15.6475C11.62 15.6778 11.6029 15.7123 11.62 15.7647Z" fill="#E7E8EE"/>
<path d="M10.2954 15.7242C10.3096 15.7849 10.3437 15.8042 10.4018 15.8014C10.3593 15.8331 10.3366 15.8676 10.3578 15.9214C10.3394 15.9118 10.321 15.9007 10.2997 15.8883C10.2813 15.898 10.2614 15.909 10.2274 15.927C10.2543 15.8704 10.2486 15.8304 10.1919 15.8042C10.2415 15.7959 10.2954 15.7973 10.2954 15.7242Z" fill="#E5E5EC"/>
<path d="M10.2282 16.8767C10.2495 16.8201 10.2523 16.7788 10.1885 16.7567C10.2438 16.7498 10.2906 16.7429 10.2963 16.6753C10.3147 16.7263 10.336 16.7622 10.3998 16.7484C10.37 16.787 10.3232 16.8146 10.3757 16.8684C10.37 16.8698 10.3644 16.8698 10.3587 16.8712C10.3402 16.8615 10.3218 16.8505 10.3005 16.8395C10.2807 16.8491 10.2608 16.8588 10.2282 16.8767Z" fill="#E7E7ED"/>
<path d="M11.9169 16.7588C11.8999 16.7726 11.8843 16.7864 11.8658 16.8016C11.8715 16.8223 11.8772 16.8444 11.8857 16.8802C11.8573 16.8623 11.8389 16.8513 11.8176 16.8375C11.7992 16.8485 11.7779 16.8596 11.7481 16.8775C11.7552 16.8458 11.7609 16.8251 11.7666 16.803C11.7495 16.7892 11.7325 16.774 11.7056 16.7506C11.7623 16.7492 11.8091 16.7478 11.8105 16.6802C11.8346 16.7257 11.8587 16.763 11.9212 16.7451C11.9183 16.7506 11.9183 16.7547 11.9169 16.7588Z" fill="#E8E8EE"/>
<path d="M11.6693 16.5981C11.6139 16.6284 11.6054 16.6671 11.621 16.7167C11.6012 16.7057 11.5827 16.6947 11.5629 16.6836C11.5444 16.6947 11.526 16.7043 11.492 16.7236C11.5175 16.6657 11.5104 16.6257 11.4551 16.5995C11.5118 16.5981 11.5529 16.587 11.56 16.5222C11.5756 16.5788 11.6068 16.605 11.6693 16.5981Z" fill="#E9E9EF"/>
<path d="M10.1323 15.642C10.1195 15.682 10.1068 15.7178 10.0926 15.7578C10.0827 15.7523 10.0642 15.7413 10.0444 15.7302C10.0259 15.7413 10.0061 15.7523 9.97061 15.7716C9.99756 15.7137 9.99472 15.6737 9.93799 15.6475C9.99189 15.6433 10.0359 15.6351 10.0401 15.5688C10.0614 15.6185 10.0841 15.6544 10.1323 15.642Z" fill="#E6E7ED"/>
<path d="M11.3076 15.8874C11.2878 15.8998 11.2708 15.9108 11.2537 15.9218C11.2495 15.9218 11.2438 15.9218 11.2396 15.9205C11.2665 15.8694 11.258 15.8308 11.2041 15.8046C11.258 15.7991 11.302 15.7922 11.3062 15.7259C11.3247 15.7784 11.3516 15.8087 11.414 15.8018C11.3686 15.8322 11.3474 15.8667 11.3686 15.9205C11.3474 15.9094 11.3275 15.8984 11.3076 15.8874Z" fill="#E6E7ED"/>
<path d="M11.3677 16.8716C11.3493 16.8606 11.3295 16.8509 11.3096 16.8385C11.2912 16.8495 11.2727 16.8606 11.2444 16.8757C11.25 16.8454 11.2614 16.8219 11.2543 16.804C11.2472 16.7861 11.2217 16.7764 11.2061 16.7571C11.2571 16.7488 11.3039 16.7433 11.3053 16.6771C11.3266 16.7267 11.3493 16.764 11.416 16.7502C11.3677 16.7847 11.3479 16.8192 11.3677 16.8716Z" fill="#E7E7ED"/>
<path d="M11.1616 15.6437C11.1119 15.6755 11.0935 15.71 11.1119 15.7638C11.0949 15.7541 11.0765 15.7431 11.0566 15.732C11.0368 15.7431 11.0169 15.7541 10.9829 15.772C11.0098 15.7155 11.0041 15.6769 10.9517 15.6479C11.0013 15.6424 11.0495 15.6382 11.0509 15.5706C11.0736 15.6189 11.0978 15.6562 11.1616 15.6437Z" fill="#E7E7ED"/>
<path d="M9.93799 16.598C9.99756 16.6021 10.0288 16.5759 10.0429 16.5249C10.0585 16.5759 10.0855 16.6063 10.1493 16.5966C10.0968 16.6284 10.0827 16.6656 10.1011 16.7167C10.0827 16.7056 10.0628 16.6946 10.0444 16.6835C10.0245 16.6946 10.0047 16.7056 9.98621 16.7167C10.0032 16.6642 9.98905 16.627 9.93799 16.598Z" fill="#E8E8EE"/>
<path d="M11.8824 16.5611C11.8356 16.5169 11.7945 16.5224 11.7434 16.5735C11.759 16.5114 11.7789 16.4645 11.7065 16.4411C11.7675 16.4411 11.8044 16.4231 11.8115 16.3624C11.8342 16.4079 11.8484 16.4576 11.9221 16.4342C11.8682 16.4686 11.8541 16.5059 11.8824 16.5611Z" fill="#EBEBEF"/>
<path d="M11.0566 16.6854C11.0353 16.6978 11.0169 16.7075 10.9828 16.7282C11.0112 16.6702 11.0098 16.6288 10.9502 16.6013C11.0055 16.5985 11.0466 16.5888 11.0537 16.524C11.0722 16.575 11.1005 16.6068 11.1629 16.5971C11.119 16.6288 11.0906 16.6606 11.1147 16.7171C11.0949 16.7061 11.0764 16.6964 11.0566 16.6854Z" fill="#E7E8EE"/>
<path d="M10.6551 16.2812C10.5941 16.3115 10.5998 16.3529 10.6154 16.404C10.57 16.3612 10.5289 16.364 10.4792 16.415C10.4948 16.3529 10.5133 16.3074 10.4409 16.2839C10.5019 16.2853 10.5388 16.266 10.5473 16.2053C10.5672 16.255 10.5884 16.295 10.6551 16.2812Z" fill="#EBEBF0"/>
<path d="M9.9777 16.0829C10.0075 16.0263 9.98054 15.9946 9.93799 15.9615C9.99472 15.967 10.0288 15.9477 10.0401 15.8911C10.0585 15.9394 10.0827 15.9739 10.1465 15.9601C10.1054 15.9946 10.0756 16.0277 10.1082 16.0856C10.0642 16.0456 10.0231 16.0456 9.9777 16.0829Z" fill="#EBEBEF"/>
<path d="M10.4829 16.0787C10.4886 16.058 10.4928 16.0373 10.4999 16.0139C10.4829 16.0001 10.4659 15.9849 10.4375 15.9601C10.4985 15.9642 10.5396 15.9546 10.5467 15.8911C10.5708 15.9339 10.5836 15.9849 10.6573 15.9587C10.6091 15.996 10.5864 16.0318 10.6176 16.0856C10.5708 16.0539 10.5297 16.036 10.4871 16.0953C10.4857 16.0884 10.4843 16.0842 10.4829 16.0787Z" fill="#EBEBF0"/>
<path d="M10.9517 15.9703C11.0183 15.9523 11.0183 15.9523 11.0623 15.8889C11.0694 15.9454 11.1006 15.9716 11.1616 15.9606C11.1176 15.9937 11.0907 16.0282 11.1219 16.0848C11.0751 16.0434 11.0353 16.0461 10.9928 16.0848C11.0041 16.0365 11.0169 15.9923 10.9517 15.9703Z" fill="#ECECF0"/>
<path d="M12.1729 16.2808C12.1218 16.3125 12.1034 16.347 12.1374 16.4049C12.0892 16.3622 12.048 16.3636 12.0027 16.4049C12.0197 16.3539 12.0253 16.3125 11.9644 16.2863C12.0183 16.2822 12.0636 16.2725 12.0651 16.2035C12.0849 16.2573 12.109 16.2918 12.1729 16.2808Z" fill="#EBEBF0"/>
<path d="M9.97912 17.0346C10.0004 16.9808 9.98905 16.9449 9.93799 16.9173C9.98763 16.9118 10.0401 16.9132 10.0387 16.8387C10.06 16.8925 10.0855 16.9256 10.1479 16.9118C10.111 16.9476 10.0685 16.9766 10.1139 17.0387C10.0628 16.9959 10.0231 16.9973 9.97912 17.0346Z" fill="#EBEBEF"/>
<path d="M10.6199 17.0359C10.5702 16.9987 10.5291 16.9918 10.488 17.0442C10.4866 17.0387 10.4851 17.0331 10.4837 17.029C10.4894 17.0083 10.4951 16.9876 10.5022 16.9655C10.4851 16.9517 10.4681 16.938 10.4341 16.9104C10.5007 16.9186 10.5419 16.9048 10.549 16.84C10.5646 16.8952 10.5944 16.9228 10.6539 16.9131C10.6185 16.9476 10.5745 16.9766 10.6199 17.0359Z" fill="#ECECF0"/>
<path d="M12.0996 16.9076C12.1223 16.909 12.1436 16.9104 12.1861 16.9132C12.1266 16.9449 12.1053 16.9808 12.1337 17.0373C12.0883 16.9987 12.0471 16.9959 11.9989 17.0497C12.006 17.0083 12.0173 16.9835 12.0117 16.9656C12.006 16.9476 11.9805 16.9366 11.9507 16.9132C12.0159 16.9145 12.0613 16.9104 12.0556 16.8387C12.0599 16.8414 12.0656 16.8442 12.0698 16.8469C12.0812 16.8663 12.0897 16.8856 12.0996 16.9076Z" fill="#EBEBEF"/>
<path d="M11.8148 16.2048C11.7949 16.2158 11.7765 16.2283 11.7467 16.2448C11.7552 16.2117 11.7595 16.191 11.7651 16.1689C11.7481 16.1538 11.7311 16.14 11.7056 16.1179C11.7382 16.1151 11.7623 16.1124 11.785 16.111C11.7935 16.0903 11.8034 16.071 11.8162 16.0393C11.8346 16.0903 11.8488 16.1372 11.9212 16.1138C11.88 16.151 11.8517 16.1841 11.8758 16.2393C11.8545 16.2283 11.8346 16.2158 11.8148 16.2048Z" fill="#EBEBF0"/>
<path d="M11.26 16.2314C11.2472 16.1914 11.2359 16.1555 11.2217 16.1155C11.2557 16.1169 11.2997 16.1086 11.3039 16.0437C11.3295 16.0879 11.3422 16.1375 11.416 16.11C11.3734 16.1486 11.3422 16.1817 11.3763 16.2396C11.3295 16.201 11.2898 16.1996 11.26 16.2314Z" fill="#EAEAEF"/>
<path d="M10.8512 16.1697C10.8569 16.1904 10.8626 16.2111 10.8739 16.2497C10.8229 16.2097 10.7817 16.1862 10.7364 16.2456C10.7505 16.1904 10.7619 16.1449 10.6924 16.1214C10.7534 16.1214 10.7888 16.1048 10.8002 16.0455C10.82 16.0938 10.8399 16.1352 10.9094 16.1062C10.908 16.1117 10.9066 16.1186 10.9051 16.1242C10.8881 16.1393 10.8697 16.1531 10.8512 16.1697Z" fill="#EBEBF0"/>
<path d="M12.1714 15.9699C12.1544 15.9837 12.1388 15.9975 12.1204 16.0127C12.126 16.0347 12.1303 16.0568 12.136 16.0789C12.0906 16.0416 12.0495 16.0499 12.0041 16.0858C12.0239 16.0347 12.0239 15.9933 11.9644 15.9671C12.0183 15.963 12.0665 15.9589 12.0679 15.8857C12.0849 15.9451 12.1133 15.974 12.1729 15.9561C12.1714 15.9602 12.1714 15.9644 12.1714 15.9699Z" fill="#ECECF0"/>
<path d="M11.4631 15.9609C11.4857 15.9595 11.507 15.9581 11.5297 15.9553C11.5382 15.9347 11.5482 15.9153 11.5638 15.8795C11.5779 15.9388 11.6006 15.9747 11.6645 15.9609C11.6247 15.9967 11.5907 16.0298 11.6432 16.0892C11.5609 16.0547 11.5609 16.0547 11.4928 16.0836C11.517 16.0326 11.5127 15.9926 11.4531 15.9719C11.456 15.9691 11.4602 15.965 11.4631 15.9609Z" fill="#ECECF0"/>
<path d="M11.6262 17.0359C11.5794 16.9918 11.5411 17.0014 11.4971 17.0346C11.5141 16.9849 11.5141 16.9421 11.4531 16.9159C11.5084 16.9145 11.5524 16.9035 11.5581 16.8387C11.5765 16.8883 11.5978 16.927 11.6645 16.9104C11.6205 16.9463 11.6006 16.9835 11.6262 17.0359Z" fill="#ECECF0"/>
<path d="M10.3649 16.2383C10.3181 16.2051 10.2798 16.1955 10.2358 16.2396C10.2486 16.1886 10.25 16.1458 10.1904 16.1224C10.2443 16.1169 10.2911 16.1113 10.2954 16.0437C10.3138 16.0975 10.3408 16.1265 10.4131 16.1113C10.3635 16.1513 10.3252 16.1817 10.3649 16.2383Z" fill="#EBEBF0"/>
<path d="M10.7002 16.4438C10.764 16.4286 10.764 16.4286 10.8094 16.3624C10.8179 16.4176 10.8449 16.448 10.9101 16.4355C10.8619 16.4673 10.842 16.5031 10.8704 16.5597C10.8236 16.5197 10.7825 16.5197 10.7371 16.5597C10.7541 16.51 10.7598 16.4673 10.7002 16.4438Z" fill="#EBECF0"/>
<path d="M11.1205 17.0353C11.0737 16.994 11.0368 17.0008 10.9928 17.0367C11.0113 16.9857 11.0084 16.9457 10.9531 16.9167C11.0127 16.9208 11.0439 16.896 11.0567 16.8436C11.0737 16.8932 11.0978 16.9264 11.163 16.9126C11.1219 16.947 11.0879 16.9788 11.1205 17.0353Z" fill="#ECECF0"/>
<path d="M11.3757 16.5569C11.3303 16.5224 11.2906 16.5086 11.2452 16.561C11.2665 16.5059 11.258 16.4658 11.2041 16.4369C11.2651 16.4438 11.2963 16.4189 11.3076 16.3638C11.3303 16.4051 11.3431 16.4548 11.414 16.4341C11.3658 16.4672 11.3502 16.5045 11.3757 16.5569Z" fill="#EBECF0"/>
<path d="M11.6668 16.2794C11.6086 16.3111 11.6086 16.3511 11.6285 16.4008C11.5831 16.3677 11.5419 16.3511 11.4951 16.4049C11.5207 16.347 11.5079 16.3098 11.4512 16.2835C11.5278 16.2684 11.5278 16.2684 11.5646 16.2035C11.5817 16.2518 11.5987 16.296 11.6668 16.2794Z" fill="#EBEBF0"/>
<path d="M10.1451 16.2802C10.0926 16.3133 10.087 16.3519 10.1082 16.403C10.0629 16.3685 10.0231 16.3561 9.97917 16.4071C9.99619 16.3547 9.99902 16.3133 9.93945 16.2857C9.99761 16.2871 10.0302 16.265 10.0402 16.2085C10.0643 16.2485 10.0742 16.2995 10.1451 16.2802Z" fill="#EBEBF0"/>
<path d="M10.3621 16.5569C10.3167 16.5197 10.2784 16.5169 10.2344 16.5569C10.2457 16.5072 10.25 16.4631 10.1904 16.4396C10.2443 16.4369 10.2869 16.4272 10.2926 16.3638C10.3181 16.4038 10.328 16.4562 10.4018 16.4314C10.355 16.4672 10.3365 16.5045 10.3621 16.5569Z" fill="#EBECF0"/>
<path d="M11.1205 16.4048C11.0751 16.3579 11.034 16.3675 10.99 16.4048C11.0099 16.3537 11.0084 16.3123 10.9531 16.2847C11.0113 16.2889 11.0411 16.2627 11.0552 16.2102C11.0708 16.2627 11.0978 16.293 11.1616 16.2806C11.1134 16.3109 11.0964 16.3482 11.1205 16.4048Z" fill="#EBEBEF"/>
<path d="M15.1302 21.9906C15.1302 22.2072 15.1302 22.4237 15.1302 22.6402C14.3525 22.6402 13.5747 22.6402 12.7928 22.6402C12.7928 22.6645 12.7928 22.6821 12.7928 22.7011C12.7928 23.13 12.7928 23.5604 12.7928 23.9893C12.7928 24.0096 12.7915 24.0299 12.7901 24.0502C12.5702 24.0502 12.349 24.0502 12.1292 24.0502C12.1278 24.0299 12.1264 24.0096 12.1264 23.9893C12.1264 23.5577 12.1264 23.1273 12.1264 22.6957C12.1264 22.6781 12.1264 22.6605 12.1264 22.6402C11.3431 22.6402 10.5654 22.6402 9.78906 22.6402C9.78906 22.4237 9.78906 22.2072 9.78906 21.9906C10.5668 21.9906 11.3445 21.9906 12.1264 21.9906C12.1264 21.9663 12.1264 21.9487 12.1264 21.9297C12.1264 21.5008 12.1264 21.0705 12.1264 20.6415C12.1264 20.6212 12.1278 20.6009 12.1292 20.5806C12.3504 20.5806 12.5702 20.5806 12.7915 20.5806C12.7928 20.6009 12.7942 20.6212 12.7942 20.6415C12.7942 21.0732 12.7942 21.5035 12.7942 21.9352C12.7942 21.9527 12.7942 21.9703 12.7942 21.9906C13.5761 21.9906 14.3539 21.9906 15.1302 21.9906Z" fill="#D70027"/>
<path d="M15.1232 24.0481C14.9353 24.0481 14.7489 24.0481 14.5611 24.0481C14.5472 24.0387 14.5346 24.0265 14.5193 24.0184C14.0435 23.7613 13.5663 23.5028 13.0905 23.2457C13.0766 23.2376 13.0613 23.2308 13.0432 23.2227C13.0404 23.2349 13.039 23.2416 13.039 23.2484C13.039 23.5055 13.039 23.7626 13.039 24.0197C13.039 24.0292 13.0418 24.04 13.0446 24.0495C12.9597 24.0495 12.8734 24.0495 12.7886 24.0495C12.79 24.0292 12.7914 24.0089 12.7914 23.9886C12.7914 23.5596 12.7914 23.1293 12.7914 22.7003C12.7914 22.6814 12.7914 22.6638 12.7914 22.6395C13.5733 22.6395 14.351 22.6395 15.1287 22.6395C15.1287 22.7315 15.1287 22.8221 15.1287 22.9142C15.1078 22.9155 15.087 22.9169 15.0661 22.9169C14.7002 22.9169 14.3343 22.9169 13.967 22.9169C13.9503 22.9169 13.9336 22.9169 13.9169 22.9169C13.9155 22.9209 13.9141 22.925 13.9127 22.9277C14.3176 23.1469 14.7225 23.3648 15.1273 23.584C15.1273 23.6314 15.1273 23.6787 15.1273 23.7261C14.6418 23.4636 14.1562 23.201 13.6693 22.9399C13.6414 22.925 13.608 22.9169 13.576 22.9169C13.416 22.9142 13.256 22.9155 13.096 22.9155C13.0821 22.9155 13.0682 22.9169 13.0418 22.9182C13.0654 22.9317 13.0794 22.9399 13.0919 22.9466C13.5774 23.2092 14.063 23.4717 14.5485 23.7342C14.7419 23.8384 14.9325 23.9439 15.1232 24.0481Z" fill="#EEEEEE"/>
<path d="M11.8713 20.5805C11.9561 20.5805 12.0424 20.5805 12.1273 20.5805C12.1259 20.6008 12.1245 20.6211 12.1245 20.6414C12.1245 21.0703 12.1245 21.5007 12.1245 21.9296C12.1245 21.9486 12.1245 21.9662 12.1245 21.9905C11.3426 21.9905 10.5648 21.9905 9.78711 21.9905C9.78711 21.8985 9.78711 21.8078 9.78711 21.7158C9.80798 21.7145 9.82885 21.7131 9.84972 21.7131C10.2142 21.7131 10.5801 21.7131 10.9447 21.7131C10.9627 21.7131 10.9808 21.7131 10.9989 21.7131C11.0003 21.7091 11.0003 21.705 11.0017 21.7009C10.5968 21.4831 10.192 21.2652 9.78711 21.046C9.78711 20.9986 9.78711 20.9513 9.78711 20.9039C9.79685 20.908 9.80659 20.912 9.81494 20.9174C10.2921 21.1745 10.768 21.433 11.2452 21.6888C11.273 21.7036 11.3064 21.7118 11.3384 21.7118C11.4998 21.7145 11.6612 21.7131 11.824 21.7131C11.8365 21.7131 11.849 21.7118 11.874 21.7091C11.8504 21.6969 11.8393 21.6901 11.8267 21.6833C11.3648 21.4344 10.9043 21.1854 10.4424 20.935C10.2254 20.8186 10.0097 20.6996 9.79267 20.5818C9.9805 20.5818 10.1669 20.5818 10.3548 20.5818C10.3701 20.5927 10.3854 20.6048 10.4007 20.613C10.8751 20.8701 11.3495 21.1258 11.8253 21.3829C11.8393 21.3911 11.8546 21.3978 11.8699 21.4046C11.874 21.3978 11.8768 21.3938 11.8768 21.3911C11.8768 21.1258 11.8768 20.8606 11.8768 20.5954C11.8754 20.59 11.8726 20.5859 11.8713 20.5805Z" fill="#EEEEEE"/>
<path d="M10.0621 24.0483C9.97723 24.0456 9.89236 24.0429 9.80749 24.0402C9.8214 24.0307 9.83532 24.0213 9.85062 24.0131C10.5059 23.6586 11.1612 23.3054 11.8165 22.9509C11.8318 22.9428 11.8471 22.9333 11.8749 22.9171C11.676 22.9171 11.4937 22.9171 11.3115 22.9184C11.292 22.9184 11.2711 22.9279 11.2544 22.9373C11.1167 23.0118 10.9776 23.0862 10.8398 23.1606C10.4892 23.3501 10.1386 23.5382 9.78801 23.7276C9.78801 23.6261 9.78801 23.5246 9.78801 23.4232C9.79636 23.4204 9.80471 23.4191 9.81166 23.415C10.1052 23.2554 10.3988 23.0957 10.6923 22.9373C10.6993 22.9333 10.7049 22.9265 10.716 22.9157C10.6353 22.9157 10.563 22.9157 10.4892 22.9157C10.2555 22.9143 10.0204 22.9143 9.78662 22.913C9.78662 22.821 9.78662 22.7303 9.78662 22.6383C10.563 22.6383 11.3407 22.6383 12.124 22.6383C12.124 22.6586 12.124 22.6762 12.124 22.6938C12.124 23.1254 12.124 23.5558 12.124 23.9874C12.124 24.0077 12.1254 24.028 12.1268 24.0483C12.0419 24.0483 11.9556 24.0483 11.8708 24.0483C11.8722 24.0334 11.8763 24.0186 11.8763 24.0037C11.8763 23.7033 11.8763 23.4029 11.8763 23.1011C11.8763 23.0903 11.8749 23.0794 11.8735 23.0632C11.8596 23.07 11.8499 23.074 11.8415 23.0794C11.2614 23.3934 10.6798 23.7073 10.0997 24.0213C10.0857 24.028 10.0746 24.0389 10.0621 24.0483Z" fill="#EEEEEE"/>
<path d="M14.8546 20.5819C14.9269 20.5819 14.9993 20.5805 15.0702 20.5805C15.0827 20.5805 15.0953 20.5873 15.1092 20.5913C15.0883 20.6035 15.0688 20.6171 15.0479 20.6279C14.401 20.977 13.7554 21.3261 13.1085 21.6753C13.0932 21.6834 13.0779 21.6929 13.0612 21.701C13.0807 21.7118 13.0974 21.7132 13.1141 21.7132C13.2476 21.7132 13.3826 21.7104 13.5161 21.7145C13.5954 21.7172 13.6636 21.6969 13.7318 21.659C14.1965 21.406 14.6626 21.1556 15.1286 20.9039C15.1286 21.0054 15.1286 21.1069 15.1286 21.2084C15.1189 21.2111 15.1092 21.2138 15.0994 21.2192C14.8073 21.3762 14.5165 21.5345 14.2257 21.6915C14.2174 21.6956 14.2104 21.7023 14.1951 21.7132C14.2786 21.7132 14.3509 21.7132 14.4233 21.7132C14.6584 21.7145 14.8921 21.7145 15.1273 21.7159C15.1273 21.8079 15.1273 21.8985 15.1273 21.9906C14.3509 21.9906 13.5732 21.9906 12.7899 21.9906C12.7899 21.9703 12.7899 21.9527 12.7899 21.9351C12.7899 21.5034 12.7899 21.0731 12.7899 20.6414C12.7899 20.6211 12.7885 20.6008 12.7871 20.5805C12.872 20.5805 12.9582 20.5805 13.0431 20.5805C13.0417 20.5954 13.0375 20.6103 13.0375 20.6252C13.0375 20.9256 13.0375 21.226 13.0375 21.5278C13.0375 21.5386 13.0389 21.5494 13.0403 21.5657C13.0542 21.5589 13.064 21.5548 13.0723 21.5494C13.6525 21.2355 14.234 20.9215 14.8142 20.6076C14.8309 20.6008 14.842 20.59 14.8546 20.5819Z" fill="#EEEDEE"/>
<path d="M9.79267 20.5815C10.0097 20.6992 10.2254 20.8183 10.4424 20.9347C10.9029 21.185 11.3648 21.434 11.8267 21.683C11.8393 21.6897 11.8504 21.6952 11.874 21.7087C11.849 21.7114 11.8365 21.7127 11.824 21.7127C11.6626 21.7127 11.5012 21.7141 11.3384 21.7114C11.3078 21.7114 11.273 21.7033 11.2452 21.6884C10.768 21.4326 10.2908 21.1742 9.81494 20.9171C9.8052 20.9116 9.79685 20.9076 9.78711 20.9035C9.78711 20.7953 9.78711 20.687 9.78711 20.5788C9.7885 20.5801 9.79128 20.5801 9.79267 20.5815Z" fill="#D7032A"/>
<path d="M15.1235 24.0481C14.9329 23.9439 14.7423 23.8397 14.5517 23.7355C14.0661 23.473 13.5806 23.2105 13.095 22.948C13.0811 22.9412 13.0686 22.9331 13.0449 22.9195C13.07 22.9182 13.0853 22.9168 13.0992 22.9168C13.2592 22.9168 13.4192 22.9155 13.5792 22.9182C13.6098 22.9182 13.6446 22.9263 13.6724 22.9412C14.1593 23.2024 14.6449 23.4649 15.1305 23.7274C15.1305 23.8357 15.1305 23.9439 15.1305 24.0522C15.1277 24.0495 15.1249 24.0481 15.1235 24.0481Z" fill="#D7032A"/>
<path d="M15.1299 20.9034C14.6639 21.1551 14.1978 21.4041 13.7331 21.6585C13.6635 21.6964 13.5968 21.7167 13.5175 21.714C13.3839 21.7099 13.2503 21.7126 13.1154 21.7126C13.0987 21.7126 13.082 21.7113 13.0625 21.7005C13.0778 21.6923 13.0931 21.6829 13.1098 21.6747C13.7568 21.3256 14.4023 20.9765 15.0493 20.6274C15.0701 20.6165 15.0896 20.603 15.1105 20.5908C15.1174 20.5908 15.1244 20.5908 15.1313 20.5895C15.1299 20.6937 15.1299 20.7992 15.1299 20.9034Z" fill="#D70329"/>
<path d="M9.78655 23.7256C10.1372 23.5375 10.4878 23.348 10.8384 23.1586C10.9761 23.0842 11.1138 23.0097 11.253 22.9353C11.271 22.9258 11.2919 22.9164 11.31 22.9164C11.4923 22.915 11.6745 22.915 11.8735 22.915C11.8456 22.9312 11.8303 22.9407 11.815 22.9488C11.1597 23.3034 10.5045 23.6566 9.84916 24.0111C9.83385 24.0192 9.81994 24.0287 9.80603 24.0382C9.79907 24.0382 9.79211 24.0382 9.78516 24.0382C9.78655 23.9353 9.78655 23.8311 9.78655 23.7256Z" fill="#D70329"/>
<path d="M9.78655 21.0463C10.1914 21.2642 10.5963 21.4834 10.9997 21.7012C10.9984 21.7053 10.9984 21.7094 10.997 21.7134C10.9789 21.7134 10.9608 21.7134 10.9427 21.7134C10.5782 21.7134 10.2123 21.7134 9.84776 21.7134C9.82689 21.7134 9.80603 21.7161 9.78516 21.7161C9.78655 21.4928 9.78655 21.2696 9.78655 21.0463Z" fill="#0454B4"/>
<path d="M15.1282 23.5832C14.7233 23.364 14.3184 23.1461 13.9136 22.9269C13.915 22.9228 13.9164 22.9188 13.9177 22.9161C13.9344 22.9161 13.9511 22.9161 13.9678 22.9161C14.3337 22.9161 14.6997 22.9161 15.0669 22.9161C15.0878 22.9161 15.1087 22.9147 15.1296 22.9134C15.1282 23.1367 15.1282 23.3599 15.1282 23.5832Z" fill="#0454B4"/>
<path d="M15.1294 21.7159C14.8943 21.7146 14.6606 21.7146 14.4254 21.7132C14.3531 21.7132 14.2807 21.7132 14.1973 21.7132C14.2126 21.7024 14.2195 21.6957 14.2279 21.6916C14.5187 21.5333 14.8108 21.3763 15.1016 21.2193C15.1099 21.2139 15.1211 21.2126 15.1308 21.2085C15.1294 21.3776 15.1294 21.5468 15.1294 21.7159Z" fill="#0454B4"/>
<path d="M9.78662 22.9133C10.0204 22.9146 10.2555 22.9146 10.4892 22.916C10.5616 22.916 10.6353 22.916 10.716 22.916C10.7049 22.9255 10.6993 22.9336 10.6923 22.9376C10.3988 23.096 10.1052 23.2556 9.81027 23.414C9.80332 23.418 9.79497 23.4194 9.78662 23.4221C9.78662 23.2516 9.78662 23.0824 9.78662 22.9133Z" fill="#0555B4"/>
<path d="M14.8548 20.5816C14.8422 20.5911 14.8311 20.6005 14.8172 20.6086C14.237 20.9226 13.6555 21.2365 13.0753 21.5505C13.067 21.5559 13.0572 21.5599 13.0433 21.5667C13.0419 21.5505 13.0405 21.5397 13.0405 21.5288C13.0405 21.2284 13.0405 20.928 13.0405 20.6262C13.0405 20.6114 13.0433 20.5965 13.0461 20.5816C13.6485 20.5802 14.2523 20.5816 14.8548 20.5816Z" fill="#0253B4"/>
<path d="M11.8709 20.5805C11.8723 20.5859 11.8751 20.59 11.8751 20.5954C11.8751 20.8606 11.8751 21.1259 11.8751 21.3911C11.8751 21.3938 11.8723 21.3965 11.8681 21.4046C11.8528 21.3979 11.8389 21.3911 11.8236 21.383C11.3492 21.1259 10.8734 20.8701 10.3989 20.613C10.3822 20.6035 10.3683 20.5927 10.353 20.5819C10.8595 20.5805 11.3659 20.5805 11.8709 20.5805Z" fill="#0353B4"/>
<path d="M10.0615 24.0489C10.074 24.0394 10.0852 24.03 10.0991 24.0218C10.6793 23.7079 11.2594 23.3939 11.841 23.08C11.8493 23.0746 11.8591 23.0705 11.873 23.0638C11.8744 23.08 11.8758 23.0908 11.8758 23.1017C11.8758 23.4021 11.8758 23.7025 11.8758 24.0042C11.8758 24.0191 11.873 24.034 11.8702 24.0489C11.2678 24.0489 10.6639 24.0489 10.0615 24.0489Z" fill="#0253B4"/>
<path d="M13.0461 24.0486C13.0447 24.0391 13.0405 24.0283 13.0405 24.0188C13.0405 23.7617 13.0405 23.5046 13.0405 23.2475C13.0405 23.2407 13.0419 23.2353 13.0447 23.2218C13.0628 23.2312 13.0781 23.238 13.092 23.2448C13.5692 23.5019 14.045 23.759 14.5209 24.0174C14.5362 24.0256 14.5487 24.0364 14.5626 24.0472C14.0576 24.0486 13.5511 24.0486 13.0461 24.0486Z" fill="#0354B4"/>
</svg>
