<svg width="40" height="40" viewBox="0 0 40 40" fill="none" xmlns="http://www.w3.org/2000/svg">
<rect width="40" height="40" rx="4" fill="#1E62B9" fill-opacity="0.1"/>
<path d="M28.2066 12.918C28.2066 16.818 28.2066 20.7055 28.2066 24.6055C22.7379 24.6055 17.2816 24.6055 11.8066 24.6055C11.8066 20.718 11.8066 16.8242 11.8066 12.918C17.2629 12.918 22.7191 12.918 28.2066 12.918ZM18.8316 21.9555C19.0316 21.9492 19.1191 21.7992 19.1816 21.6055C19.6691 20.168 20.1629 18.7367 20.6504 17.2992C20.8316 16.768 21.0129 16.243 21.1879 15.7117C21.2566 15.4992 21.1816 15.318 20.9941 15.2492C20.8066 15.1742 20.6254 15.2492 20.5316 15.4492C20.5004 15.5117 20.4816 15.5805 20.4629 15.6492C20.0441 16.868 19.6254 18.093 19.2066 19.3117C18.9629 20.0242 18.7191 20.7367 18.4816 21.4555C18.4004 21.7242 18.5441 21.9492 18.8316 21.9555ZM23.6441 18.5805C23.5754 18.6555 23.5254 18.7117 23.4691 18.7617C23.0504 19.1805 22.6254 19.5992 22.2129 20.018C22.0316 20.2055 22.0254 20.3992 22.1754 20.5555C22.3254 20.7055 22.5379 20.693 22.7129 20.518C23.2629 19.9742 23.8066 19.4305 24.3504 18.8805C24.5566 18.6742 24.5504 18.4992 24.3441 18.293C24.0504 17.993 23.7504 17.6992 23.4504 17.3992C23.1879 17.143 22.9379 16.8742 22.6691 16.6242C22.5129 16.4742 22.3066 16.4805 22.1691 16.618C22.0254 16.7617 22.0316 16.9555 22.1754 17.118C22.2254 17.1742 22.2879 17.2305 22.3379 17.2867C22.7754 17.7117 23.2066 18.143 23.6441 18.5805ZM16.3504 18.5805C16.8254 18.1055 17.2879 17.6492 17.7504 17.1867C17.9629 16.9742 17.9879 16.7805 17.8254 16.618C17.6691 16.4555 17.4629 16.4805 17.2566 16.6867C16.7379 17.2055 16.2191 17.7242 15.7004 18.243C15.4254 18.518 15.4254 18.6617 15.6941 18.9305C16.1566 19.393 16.6191 19.8555 17.0816 20.3242C17.1691 20.4117 17.2504 20.5117 17.3504 20.5867C17.5066 20.7055 17.6754 20.7055 17.8191 20.5617C17.9629 20.4242 17.9691 20.2555 17.8504 20.0992C17.8066 20.0367 17.7441 19.9867 17.6879 19.9305C17.2504 19.4805 16.8129 19.043 16.3504 18.5805Z" fill="#1E62B9"/>
<path d="M30.4068 25.3373C30.4068 26.0873 30.4256 26.8248 30.4006 27.5623C30.3818 28.0248 29.9506 28.3811 29.4631 28.4123C29.4006 28.4186 29.3381 28.4123 29.2756 28.4123C23.0881 28.4123 16.9068 28.4123 10.7193 28.4123C10.1443 28.4123 9.76934 28.1561 9.63184 27.6811C9.61934 27.6311 9.60059 27.5748 9.60059 27.5186C9.60059 26.7936 9.60059 26.0686 9.60059 25.3311C16.5318 25.3373 23.4631 25.3373 30.4068 25.3373Z" fill="#1E62B9"/>
<path d="M11.7939 12.1871C11.7939 11.5496 11.7751 10.9184 11.8001 10.2871C11.8189 9.81836 12.2564 9.42461 12.7314 9.38711C12.8001 9.38086 12.8689 9.38086 12.9439 9.38086C16.3626 9.38086 19.7876 9.38086 23.2064 9.38086C23.2626 9.38086 23.3126 9.38086 23.3814 9.38086C23.3814 10.3184 23.3814 11.2434 23.3814 12.1871C19.5251 12.1871 15.6626 12.1871 11.7939 12.1871ZM13.6001 11.3184C13.7001 11.3184 13.8064 11.3246 13.9064 11.3184C14.1064 11.2996 14.2251 11.1871 14.2314 10.9871C14.2439 10.7871 14.1251 10.6496 13.9376 10.6246C13.7251 10.5996 13.5001 10.5996 13.2814 10.6246C13.0876 10.6496 12.9751 10.7934 12.9876 10.9871C13.0001 11.1809 13.1126 11.2996 13.3189 11.3184C13.4126 11.3246 13.5064 11.3184 13.6001 11.3184ZM17.5001 11.3184C17.5939 11.3184 17.6876 11.3246 17.7814 11.3184C17.9876 11.3059 18.1251 11.1684 18.1251 10.9746C18.1251 10.7746 18.0126 10.6434 17.8189 10.6246C17.6126 10.5996 17.3939 10.5996 17.1876 10.6246C16.9939 10.6434 16.8814 10.7809 16.8751 10.9746C16.8689 11.1621 17.0126 11.2996 17.2189 11.3184C17.3126 11.3246 17.4064 11.3184 17.5001 11.3184ZM15.5689 11.3184C15.6626 11.3184 15.7564 11.3246 15.8501 11.3184C16.0501 11.3059 16.1689 11.1809 16.1751 10.9871C16.1876 10.7871 16.0751 10.6496 15.8814 10.6246C15.6689 10.5996 15.4439 10.5996 15.2251 10.6246C15.0376 10.6496 14.9189 10.7809 14.9314 10.9871C14.9439 11.1871 15.0626 11.2996 15.2564 11.3184C15.3689 11.3246 15.4689 11.3184 15.5689 11.3184Z" fill="#1E62B9"/>
<path d="M16.7506 30.9123C16.7506 30.5998 16.7506 30.3123 16.7506 30.0248C16.7506 29.7373 16.7506 29.4498 16.7506 29.1436C18.9693 29.1436 21.1818 29.1436 23.4131 29.1436C23.4131 29.7248 23.4131 30.3061 23.4131 30.9186C23.8568 30.9186 24.2818 30.9186 24.7131 30.9186C24.9006 30.9186 25.0881 30.9123 25.2756 30.9186C25.4943 30.9248 25.6381 31.0686 25.6381 31.2686C25.6381 31.4686 25.5006 31.6061 25.2818 31.6186C25.2193 31.6248 25.1568 31.6186 25.0943 31.6186C21.7506 31.6186 18.4131 31.6186 15.0693 31.6186C14.6943 31.6186 14.5193 31.4998 14.5256 31.2623C14.5318 31.0248 14.7006 30.9186 15.0631 30.9186C15.6068 30.9123 16.1631 30.9123 16.7506 30.9123Z" fill="#1E62B9"/>
<path d="M11.0753 13.4121C11.0753 17.1559 11.0753 20.8746 11.0753 24.6059C10.5878 24.6059 10.1065 24.6059 9.58776 24.6059C9.58776 24.5246 9.58776 24.4371 9.58776 24.3434C9.58776 21.1121 9.60026 17.8746 9.57526 14.6434C9.56901 13.9059 10.044 13.3434 10.819 13.4121C10.894 13.4184 10.9753 13.4121 11.0753 13.4121Z" fill="#1E62B9"/>
<path d="M28.9375 13.4312C29.1625 13.4312 29.3812 13.3999 29.5937 13.4374C30.0875 13.5312 30.4125 13.9624 30.4125 14.4937C30.4188 16.0312 30.4125 17.5687 30.4125 19.1124C30.4125 20.8562 30.4125 22.5937 30.4125 24.3374C30.4125 24.4249 30.4125 24.5062 30.4125 24.6062C29.9188 24.6062 29.4375 24.6062 28.9375 24.6062C28.9375 20.8874 28.9375 17.1687 28.9375 13.4312Z" fill="#1E62B9"/>
<path d="M24.1064 12.1934C24.1064 11.2559 24.1064 10.3309 24.1064 9.41837C24.1252 9.40587 24.1377 9.39337 24.1502 9.39337C25.1814 9.39337 26.2127 9.38087 27.2439 9.39337C27.7314 9.39962 28.1752 9.81212 28.1939 10.2934C28.2189 10.9246 28.2002 11.5559 28.2002 12.1934C26.8377 12.1934 25.4814 12.1934 24.1064 12.1934Z" fill="#1E62B9"/>
</svg>
