<svg width="40" height="40" viewBox="0 0 40 40" fill="none" xmlns="http://www.w3.org/2000/svg">
<rect width="40" height="40" rx="4" fill="#1E62B9" fill-opacity="0.1"/>
<path d="M33 16.8586C33 21.0049 33 25.1444 33 29.2906C32.7852 30.036 32.2578 30.5019 31.6198 30.8479C31.3138 31.0143 30.9948 31.1607 30.6628 31.2805C29.2044 31.8129 27.694 31.9926 26.1576 31.9993C24.4779 32.0126 22.8242 31.8462 21.2487 31.2206C20.2201 30.8146 19.2305 30.3355 19.0091 29.031C18.9049 29.031 18.8073 29.031 18.7096 29.031C15.513 29.031 12.3164 29.0244 9.11979 29.0377C8.63151 29.0377 8.24089 28.9445 8 28.4853C8 26.9879 8 25.4905 8 23.993C8.27344 23.5072 8.70964 23.4207 9.21094 23.4606C9.41927 23.4806 9.6276 23.4606 9.83594 23.4606C9.83594 22.7152 9.83594 22.0164 9.83594 21.291C9.58854 21.291 9.35417 21.2711 9.11979 21.2977C8.63151 21.3443 8.24089 21.2112 8 20.7453C8 19.2479 8 17.7504 8 16.253C8.27344 15.7672 8.70964 15.6807 9.21094 15.7206C9.41927 15.7406 9.6276 15.7206 9.83594 15.7206C9.83594 14.9752 9.83594 14.2764 9.83594 13.551C9.58854 13.551 9.35417 13.531 9.11979 13.5577C8.63151 13.6176 8.24089 13.4845 8 13.0186C8 11.5212 8 10.0237 8 8.52631C8.27344 8.04048 8.71615 7.9939 9.21094 8.00055C13.4818 8.01386 17.7526 8.00721 22.0234 8.00721C23.8138 8.00721 25.6042 8.00721 27.3945 8.00721C27.9479 8.00721 28.2604 8.32 28.2604 8.8857C28.2604 10.1568 28.2604 11.428 28.2604 12.7058C28.2604 13.2449 27.9349 13.571 27.401 13.571C27.0755 13.571 26.7565 13.571 26.4049 13.571C26.4049 13.6908 26.4049 13.7906 26.4049 13.8904C26.4049 13.9836 26.4049 14.0834 26.4049 14.1833C26.6328 14.1966 26.8281 14.2032 27.0234 14.2165C28.1693 14.2831 29.3086 14.4428 30.3958 14.8222C31.4896 15.1948 32.5443 15.6341 33 16.8586ZM27.4792 12.7524C27.4792 12.6392 27.4792 12.5594 27.4792 12.4729C27.4792 11.3481 27.4727 10.2301 27.4857 9.10532C27.4857 8.86573 27.4206 8.79918 27.1862 8.79918C21.151 8.80583 15.1159 8.80583 9.08073 8.80583C8.98958 8.80583 8.89193 8.81914 8.80078 8.8258C8.80078 10.1502 8.80078 11.4413 8.80078 12.7524C15.0247 12.7524 21.2357 12.7524 27.4792 12.7524ZM26.0208 14.9752C24.6081 14.9752 23.3125 15.1483 22.069 15.5143C21.431 15.7006 20.819 15.9469 20.2982 16.3795C19.6732 16.8919 19.6602 17.411 20.2917 17.9168C20.5911 18.1564 20.9297 18.3494 21.2812 18.5025C22.3685 18.9817 23.5208 19.188 24.6927 19.2745C26.4896 19.4076 28.2734 19.3144 30.0117 18.7887C30.6758 18.5824 31.3268 18.3295 31.8477 17.8436C32.349 17.3778 32.3424 16.9319 31.8411 16.466C31.7435 16.3795 31.6458 16.2863 31.5286 16.2264C31.1641 16.0334 30.7995 15.8204 30.4089 15.674C28.9961 15.1349 27.5117 14.9952 26.0208 14.9752ZM19.8164 18.5957C19.8164 18.7155 19.8164 18.7953 19.8164 18.8818C19.8164 19.5474 19.8359 20.2129 19.8099 20.8784C19.7904 21.3176 19.9466 21.6637 20.2917 21.8767C20.7539 22.1629 21.2292 22.449 21.737 22.6354C22.8958 23.0746 24.1198 23.2277 25.3503 23.2743C27.0755 23.3408 28.7812 23.2011 30.4219 22.5954C30.8906 22.4224 31.3268 22.1496 31.75 21.8767C32.082 21.6637 32.2383 21.3243 32.2253 20.8984C32.1992 20.2262 32.2188 19.554 32.2188 18.8752C32.2188 18.7887 32.2122 18.7088 32.2057 18.589C31.6133 19.0283 30.9948 19.3078 30.3503 19.5141C28.6966 20.0398 27.0039 20.1929 25.2852 20.1064C23.3776 20.0132 21.5156 19.727 19.8164 18.5957ZM32.2188 22.5755C32.1667 22.5954 32.1406 22.5954 32.1211 22.6088C31.2031 23.2676 30.1549 23.5871 29.0677 23.8C27.2057 24.1661 25.3307 24.186 23.4622 23.8866C22.1992 23.6869 20.9753 23.3675 19.9076 22.5954C19.888 22.5821 19.862 22.5888 19.8164 22.5821C19.8164 23.3209 19.8424 24.0529 19.8099 24.785C19.7904 25.2842 19.9922 25.6302 20.3633 25.9097C20.8516 26.2824 21.4115 26.5087 21.9909 26.6951C23 27.0145 24.0352 27.1676 25.0898 27.2208C26.7826 27.3073 28.4557 27.1942 30.0898 26.6818C30.7474 26.4754 31.3789 26.2159 31.8932 25.7234C32.1146 25.5104 32.2383 25.2575 32.2318 24.9248C32.2188 24.4323 32.2253 23.9465 32.2253 23.454C32.2188 23.1678 32.2188 22.8816 32.2188 22.5755ZM32.2188 26.522C32.1536 26.5553 32.1276 26.5686 32.1016 26.5819C31.4115 27.0877 30.6237 27.3806 29.8099 27.5935C28.0586 28.0527 26.2747 28.1392 24.4844 27.9795C23.2344 27.8664 22.0039 27.6401 20.8451 27.101C20.5 26.9413 20.1745 26.735 19.8294 26.5486C19.8229 26.6219 19.8164 26.6951 19.8164 26.7683C19.8164 27.4737 19.8229 28.1792 19.8099 28.8913C19.8034 29.2041 19.8945 29.4836 20.1354 29.6633C20.474 29.9162 20.819 30.1757 21.1966 30.3488C22.4401 30.9211 23.7682 31.1208 25.1094 31.1873C26.7891 31.2739 28.4557 31.1607 30.0768 30.6483C30.6758 30.4553 31.2552 30.2157 31.75 29.8031C32.056 29.5502 32.2318 29.244 32.2122 28.8114C32.1862 28.2724 32.2057 27.7333 32.2057 27.1876C32.2187 26.9746 32.2188 26.7616 32.2188 26.522ZM19.1003 16.5592C15.6823 16.5592 12.2383 16.5592 8.80078 16.5592C8.80078 17.8836 8.80078 19.188 8.80078 20.4924C12.2188 20.4924 15.6172 20.4924 19.0352 20.4924C19.0352 20.3859 19.0352 20.2994 19.0352 20.2062C19.0352 19.3277 19.0286 18.4426 19.0352 17.5641C19.0417 17.238 19.0742 16.9119 19.1003 16.5592ZM8.79427 28.2258C12.2187 28.2258 15.6172 28.2258 19.0221 28.2258C19.0221 26.908 19.0221 25.6036 19.0221 24.2925C15.6042 24.2925 12.1992 24.2925 8.79427 24.2925C8.79427 25.6103 8.79427 26.908 8.79427 28.2258ZM10.6367 15.7339C10.7604 15.7339 10.8646 15.7339 10.9687 15.7339C13.8138 15.7339 16.6654 15.7339 19.5104 15.7339C19.7122 15.7339 19.8815 15.6873 20.0508 15.5675C20.3112 15.3878 20.5911 15.2348 20.8841 15.1017C21.9909 14.6025 23.1628 14.3763 24.3542 14.2565C24.7708 14.2165 25.1875 14.1899 25.6042 14.1633C25.6042 13.9503 25.6042 13.764 25.6042 13.5776C20.6042 13.5776 15.6237 13.5776 10.6302 13.5776C10.6367 14.2964 10.6367 14.9952 10.6367 15.7339ZM10.6432 23.454C13.4492 23.454 16.2357 23.454 19.0286 23.454C19.0286 22.7352 19.0286 22.0298 19.0286 21.3243C16.2227 21.3243 13.4362 21.3243 10.6432 21.3243C10.6432 22.0364 10.6432 22.7352 10.6432 23.454Z" fill="#1E62B9" fill-opacity="0.16"/>
<path d="M27.4792 12.752C21.2357 12.752 15.0247 12.752 8.80078 12.752C8.80078 11.4476 8.80078 10.1498 8.80078 8.82545C8.89193 8.81879 8.98958 8.80548 9.08073 8.80548C15.1159 8.80548 21.151 8.80548 27.1862 8.79883C27.4206 8.79883 27.4922 8.86538 27.4857 9.10497C27.4727 10.2297 27.4792 11.3478 27.4792 12.4725C27.4792 12.559 27.4792 12.6389 27.4792 12.752ZM23.0391 11.1747C24.1849 11.1747 25.3307 11.1747 26.4766 11.1747C26.8086 11.1747 26.9909 11.035 26.9909 10.7821C26.9909 10.5292 26.8021 10.3828 26.4766 10.3761C26.4505 10.3761 26.431 10.3761 26.4049 10.3761C24.1784 10.3761 21.9453 10.3761 19.7187 10.3761C19.6146 10.3761 19.5039 10.3761 19.4062 10.4094C19.224 10.4626 19.1198 10.609 19.1393 10.802C19.1523 11.0084 19.276 11.1348 19.4779 11.1681C19.556 11.1814 19.6406 11.1747 19.7187 11.1747C20.8255 11.1747 21.9323 11.1747 23.0391 11.1747ZM15.6562 11.9268C16.2812 11.9268 16.7891 11.4077 16.7826 10.7688C16.776 10.1498 16.2682 9.63073 15.6628 9.62408C15.0378 9.61742 14.5299 10.1365 14.5299 10.7754C14.5299 11.4276 15.0182 11.9268 15.6562 11.9268ZM10.3242 11.9268C10.9492 11.9334 11.457 11.421 11.457 10.7821C11.4635 10.1631 10.9557 9.63739 10.3438 9.63073C9.71875 9.62408 9.21094 10.1299 9.20443 10.7688C9.20443 11.421 9.69271 11.9268 10.3242 11.9268ZM13 11.9268C13.6315 11.9268 14.1198 11.421 14.1133 10.7688C14.1068 10.1432 13.6055 9.63073 13 9.63073C12.3815 9.63073 11.8672 10.1565 11.8672 10.7821C11.8607 11.421 12.3685 11.9268 13 11.9268Z" fill="#1E62B9"/>
<path d="M26.0213 14.9746C27.5187 14.9946 28.9966 15.141 30.4094 15.6668C30.7935 15.8132 31.1581 16.0261 31.5292 16.2191C31.6398 16.279 31.744 16.3722 31.8417 16.4587C32.343 16.9246 32.3495 17.3705 31.8482 17.8364C31.3208 18.3222 30.6763 18.5817 30.0122 18.7814C28.274 19.3138 26.4901 19.407 24.6932 19.2672C23.5213 19.1807 22.369 18.9744 21.2818 18.4952C20.9367 18.3422 20.5917 18.1491 20.2922 17.9096C19.6607 17.4104 19.6737 16.8847 20.2987 16.3722C20.8195 15.9463 21.438 15.7 22.0695 15.507C23.313 15.1476 24.6021 14.9746 26.0213 14.9746Z" fill="#1E62B9"/>
<path d="M19.8169 18.5955C21.5096 19.7269 23.3715 20.0131 25.2856 20.1063C27.0044 20.1861 28.6971 20.0397 30.3507 19.5139C30.9952 19.3076 31.6137 19.0281 32.2062 18.5889C32.2127 18.7087 32.2192 18.7952 32.2192 18.875C32.2192 19.5472 32.1997 20.2261 32.2257 20.8982C32.2387 21.3308 32.0825 21.6636 31.7505 21.8765C31.3273 22.1494 30.8911 22.4223 30.4223 22.5953C28.7882 23.2076 27.076 23.3407 25.3507 23.2741C24.1202 23.2276 22.8963 23.0745 21.7374 22.6352C21.2296 22.4422 20.7544 22.1627 20.2921 21.8765C19.9471 21.6636 19.7973 21.3175 19.8103 20.8783C19.8364 20.2127 19.8169 19.5472 19.8169 18.8817C19.8169 18.8018 19.8169 18.722 19.8169 18.5955Z" fill="#1E62B9"/>
<path d="M32.2184 22.5752C32.2184 22.8747 32.2184 23.1675 32.2184 23.4537C32.2184 23.9462 32.2054 24.4387 32.2249 24.9245C32.2314 25.2506 32.1143 25.5035 31.8864 25.7231C31.3721 26.2156 30.7406 26.4752 30.083 26.6815C28.4554 27.1939 26.7757 27.3071 25.083 27.2205C24.0348 27.1673 22.9932 27.0076 21.984 26.6948C21.4046 26.5151 20.8512 26.2822 20.3564 25.9095C19.9853 25.6299 19.7835 25.2905 19.8031 24.7847C19.8356 24.0593 19.8096 23.3272 19.8096 22.5818C19.8551 22.5885 19.8812 22.5885 19.9007 22.5952C20.9684 23.3605 22.1924 23.68 23.4554 23.8863C25.3304 24.1858 27.1989 24.1658 29.0609 23.7998C30.1481 23.5868 31.1963 23.2673 32.1143 22.6085C32.1403 22.5952 32.1663 22.5952 32.2184 22.5752Z" fill="#1E62B9"/>
<path d="M32.2194 26.5225C32.2194 26.762 32.2194 26.975 32.2194 27.188C32.2194 27.7271 32.1999 28.2728 32.2259 28.8119C32.2454 29.2378 32.0697 29.5439 31.7637 29.8035C31.2689 30.2161 30.6895 30.4557 30.0905 30.6487C28.4694 31.1611 26.8027 31.2743 25.123 31.1878C23.7754 31.1212 22.4473 30.9216 21.2103 30.3492C20.8327 30.1762 20.4811 29.9166 20.1491 29.6637C19.9082 29.484 19.8171 29.2045 19.8236 28.8917C19.8366 28.1863 19.8236 27.4808 19.8301 26.7687C19.8301 26.6955 19.8366 26.6289 19.8431 26.5491C20.1881 26.7421 20.5137 26.9417 20.8587 27.1015C22.0111 27.6405 23.2415 27.8668 24.498 27.98C26.2949 28.1397 28.0723 28.0532 29.8236 27.594C30.6374 27.381 31.4251 27.0882 32.1152 26.5824C32.1283 26.5624 32.1543 26.5557 32.2194 26.5225Z" fill="#1E62B9"/>
<path d="M19.0996 16.5594C19.0801 16.9188 19.041 17.2382 19.041 17.5577C19.0345 18.4362 19.041 19.3213 19.041 20.1998C19.041 20.2863 19.041 20.3795 19.041 20.486C15.6165 20.486 12.2181 20.486 8.80664 20.486C8.80664 19.1815 8.80664 17.8838 8.80664 16.5527C12.2376 16.5594 15.6816 16.5594 19.0996 16.5594ZM10.3366 19.6674C10.9551 19.6674 11.4499 19.1616 11.4629 18.5293C11.4694 17.9037 10.9486 17.3647 10.3301 17.3713C9.71159 17.378 9.2168 17.8838 9.2168 18.516C9.20378 19.1616 9.69857 19.6674 10.3366 19.6674ZM14.5293 18.5227C14.5293 19.1749 15.0241 19.6674 15.6686 19.6674C16.2806 19.6607 16.7819 19.1483 16.7819 18.516C16.7819 17.8971 16.2676 17.3713 15.6621 17.3647C15.0371 17.3647 14.5293 17.8771 14.5293 18.5227ZM12.9863 19.6674C13.6243 19.674 14.1126 19.1682 14.1126 18.516C14.1126 17.8838 13.6113 17.3713 12.9993 17.3647C12.3809 17.3647 11.86 17.8904 11.86 18.5227C11.8665 19.1549 12.3678 19.6607 12.9863 19.6674Z" fill="#1E62B9"/>
<path d="M8.79492 28.2257C8.79492 26.908 8.79492 25.6102 8.79492 24.2925C12.2064 24.2925 15.6048 24.2925 19.0228 24.2925C19.0228 25.6036 19.0228 26.908 19.0228 28.2257C15.6178 28.2257 12.2194 28.2257 8.79492 28.2257ZM9.21159 26.2558C9.21159 26.908 9.70638 27.4005 10.3444 27.4005C10.9564 27.4005 11.4577 26.8814 11.4577 26.2491C11.4577 25.6302 10.9499 25.0978 10.3379 25.0978C9.71289 25.0978 9.21159 25.6102 9.21159 26.2558ZM14.5306 26.2558C14.5306 26.908 15.0254 27.4005 15.6699 27.4005C16.2819 27.3938 16.7832 26.8814 16.7832 26.2491C16.7832 25.6302 16.2689 25.0978 15.6634 25.0978C15.0384 25.0978 14.5306 25.6169 14.5306 26.2558ZM12.9941 27.4005C13.6322 27.4005 14.1204 26.8947 14.1139 26.2425C14.1074 25.6102 13.6061 25.0978 12.9941 25.1044C12.3691 25.1111 11.8548 25.6368 11.8678 26.2691C11.8743 26.9013 12.3757 27.4005 12.9941 27.4005Z" fill="#1E62B9"/>
<path d="M16.001 10.7888C16.001 10.9751 15.8447 11.1282 15.6559 11.1282C15.4606 11.1282 15.3174 10.9818 15.3174 10.7888C15.3174 10.5825 15.4736 10.4227 15.6689 10.4294C15.8512 10.4361 16.001 10.6024 16.001 10.7888Z" fill="#1E62B9"/>
<path d="M10.675 10.7753C10.6815 10.9616 10.5318 11.1213 10.343 11.128C10.1477 11.1347 9.99793 10.9949 9.99142 10.8019C9.9849 10.5956 10.1346 10.4292 10.33 10.4292C10.5122 10.4292 10.6685 10.5889 10.675 10.7753Z" fill="#1E62B9"/>
<path d="M13.0064 10.4294C13.1952 10.4361 13.3384 10.5958 13.3319 10.7888C13.3319 10.9951 13.1756 11.1415 12.9673 11.1282C12.7785 11.1149 12.6353 10.9485 12.6483 10.7622C12.6613 10.5758 12.8241 10.4228 13.0064 10.4294Z" fill="#1E62B9"/>
<path d="M10.3433 18.1623C10.5256 18.169 10.6819 18.3354 10.6819 18.5217C10.6819 18.7147 10.5126 18.8744 10.3173 18.8678C10.122 18.8545 9.99177 18.7014 9.99828 18.5017C9.99828 18.3087 10.161 18.1557 10.3433 18.1623Z" fill="#1E62B9"/>
<path d="M16.0012 18.5148C16.0077 18.7012 15.8514 18.8609 15.6691 18.8676C15.4738 18.8742 15.3241 18.7345 15.3176 18.5348C15.3111 18.3285 15.4673 18.1621 15.6561 18.1621C15.8384 18.1688 15.9947 18.3285 16.0012 18.5148Z" fill="#1E62B9"/>
<path d="M13.0002 18.8687C12.8114 18.8687 12.6551 18.7223 12.6486 18.536C12.6421 18.343 12.8114 18.1699 13.0002 18.1699C13.189 18.1766 13.3322 18.3296 13.3322 18.5226C13.3322 18.7157 13.1955 18.8621 13.0002 18.8687Z" fill="#1E62B9"/>
<path d="M10.6758 26.2691C10.6693 26.4555 10.513 26.6085 10.3242 26.6019C10.1289 26.6019 9.99219 26.4555 9.99219 26.2558C9.99219 26.0562 10.1549 25.8898 10.3503 25.9031C10.5326 25.9164 10.6823 26.0828 10.6758 26.2691Z" fill="#1E62B9"/>
<path d="M15.6431 25.903C15.8254 25.8964 15.9882 26.0561 16.0012 26.2424C16.0142 26.4355 15.8514 26.6085 15.6561 26.6085C15.4608 26.6085 15.3176 26.4621 15.3176 26.2624C15.3111 26.0694 15.4608 25.9097 15.6431 25.903Z" fill="#1E62B9"/>
<path d="M12.9937 25.9028C13.1825 25.9028 13.3322 26.0559 13.3322 26.2489C13.3387 26.4486 13.1955 26.595 13.0067 26.6016C12.8114 26.6083 12.6421 26.4419 12.6486 26.2489C12.6486 26.0626 12.8114 25.9028 12.9937 25.9028Z" fill="#1E62B9"/>
</svg>
