<svg width="40" height="40" viewBox="0 0 40 40" fill="none" xmlns="http://www.w3.org/2000/svg">
<rect width="40" height="40" rx="4" fill="#1E62B9" fill-opacity="0.1"/>
<g clip-path="url(#clip0_1061_7697)">
<path d="M8 28.625C8 24.1109 8 19.5922 8 15.0781C15.5094 15.0781 23.0234 15.0781 30.5281 15.0781C30.5281 16.6062 30.5281 18.1156 30.5281 19.6531C29.1453 18.5375 27.5797 17.9656 25.7844 17.8906C26.2156 17.675 26.3891 17.375 26.3141 17.0422C26.2344 16.6859 25.9531 16.4844 25.5312 16.4844C25.1094 16.4844 24.6875 16.4797 24.2656 16.4844C23.8297 16.4891 23.5203 16.7844 23.5203 17.1875C23.5203 17.5906 23.8297 17.8812 24.2656 17.8906C24.3687 17.8906 24.4672 17.8906 24.5703 17.8906C24.6594 17.8906 24.7531 17.8906 24.8422 17.8906C24.0734 18.0172 23.3281 18.2047 22.6156 18.5094C21.9031 18.8141 21.2516 19.2219 20.6469 19.7188C20.4641 19.3859 20.1922 19.2875 19.8547 19.2969C19.4656 19.3063 19.0719 19.2969 18.6828 19.3016C18.2094 19.3063 17.8906 19.5922 17.8953 20.0094C17.9 20.4172 18.2141 20.7031 18.6734 20.7078C18.9875 20.7078 19.3062 20.7078 19.6203 20.7078C19.3625 21.1297 19.1094 21.5281 18.875 21.9359C18.8 22.0625 18.7297 22.1234 18.5703 22.1234C18.2703 22.1281 18.0547 22.2875 17.9469 22.5687C17.8344 22.8547 17.9 23.1172 18.1297 23.3141C18.2469 23.4172 18.2281 23.5016 18.1906 23.6188C17.8016 24.9875 17.7922 26.3609 18.1953 27.7297C18.3359 28.2125 18.5375 28.6766 18.7109 29.15C18.6312 29.15 18.5469 29.15 18.4625 29.15C15.2937 29.15 12.1203 29.1453 8.95156 29.1547C8.50625 29.15 8.1875 29.0281 8 28.625ZM13.6672 17.8906C13.9109 17.8906 14.15 17.9 14.3937 17.8859C14.7781 17.8719 15.0734 17.5672 15.0781 17.1922C15.0828 16.8078 14.7828 16.4937 14.3891 16.4844C13.9156 16.475 13.4375 16.475 12.9641 16.4844C12.5656 16.4937 12.2656 16.8031 12.2703 17.1875C12.2703 17.5719 12.5703 17.8719 12.9734 17.8859C13.2031 17.8953 13.4375 17.8906 13.6672 17.8906ZM19.2781 17.8906C19.5219 17.8906 19.7609 17.8953 20.0047 17.8906C20.4031 17.8766 20.7031 17.5719 20.7031 17.1922C20.7031 16.8078 20.4031 16.4984 20.0047 16.4891C19.5359 16.4797 19.0672 16.4797 18.6031 16.4891C18.1906 16.4938 17.8859 16.8078 17.8953 17.2016C17.9 17.5813 18.2 17.8812 18.6031 17.8906C18.8281 17.8953 19.0531 17.8906 19.2781 17.8906ZM13.6625 20.7031C13.8969 20.7031 14.1312 20.7078 14.3656 20.7031C14.7781 20.6937 15.0828 20.3844 15.0781 19.9953C15.0734 19.6109 14.7734 19.3109 14.3703 19.3016C13.9016 19.2922 13.4328 19.2922 12.9687 19.3016C12.5703 19.3109 12.2703 19.6156 12.2656 20C12.2656 20.3844 12.5609 20.6891 12.9594 20.7031C13.1937 20.7078 13.4281 20.7031 13.6625 20.7031ZM13.6719 23.5156C13.8969 23.5156 14.1219 23.5203 14.3516 23.5156C14.7687 23.5063 15.0734 23.2109 15.0781 22.8172C15.0781 22.4234 14.7734 22.1188 14.3609 22.1141C13.9016 22.1047 13.4422 22.1047 12.9828 22.1141C12.5703 22.1188 12.2656 22.4328 12.2703 22.8219C12.275 23.2063 12.575 23.5016 12.9734 23.5156C13.2078 23.5203 13.4422 23.5156 13.6719 23.5156ZM13.6531 26.3281C13.8969 26.3281 14.1359 26.3328 14.3797 26.3281C14.7781 26.3141 15.0781 26.0094 15.0781 25.625C15.0781 25.2406 14.7781 24.9313 14.3797 24.9266C13.9109 24.9172 13.4422 24.9172 12.9781 24.9266C12.575 24.9313 12.275 25.2359 12.2703 25.6156C12.2656 26.0047 12.5703 26.3188 12.9781 26.3281C13.2031 26.3328 13.4281 26.3281 13.6531 26.3281Z" fill="#1E62B9"/>
<path d="M24.9684 31.9998C24.6778 31.9295 24.3825 31.8732 24.0965 31.7935C21.72 31.1092 20.1684 29.581 19.5403 27.1904C18.659 23.8435 20.7403 20.4076 24.134 19.5357C27.495 18.6732 30.9403 20.7404 31.8075 24.1388C31.8825 24.4295 31.9387 24.7201 31.9997 25.0107C31.9997 25.4654 31.9997 25.9154 31.9997 26.3701C31.9387 26.6373 31.8825 26.9092 31.8122 27.1717C31.1512 29.5717 29.6184 31.1138 27.2231 31.7935C26.9137 31.8826 26.595 31.9295 26.2809 31.9951C25.845 31.9998 25.4044 31.9998 24.9684 31.9998ZM26.3747 24.9685C26.3747 24.2373 26.3794 23.5435 26.37 22.8498C26.3653 22.4513 26.0465 22.1513 25.6622 22.156C25.2872 22.1607 24.9731 22.4513 24.9684 22.8357C24.959 23.7873 24.959 24.7388 24.9684 25.6904C24.9731 26.0467 25.245 26.356 25.5965 26.3607C26.5809 26.3795 27.5653 26.3748 28.545 26.3607C28.8872 26.356 29.1544 26.056 29.1825 25.7232C29.2106 25.3951 29.0044 25.0951 28.6762 25.0013C28.5731 24.9732 28.4606 24.9685 28.3528 24.9685C27.7012 24.9685 27.0497 24.9685 26.3747 24.9685Z" fill="#1E62B9"/>
<path d="M26.3236 9.45782C27.4814 9.45782 28.6346 9.45313 29.7924 9.45782C30.2471 9.45782 30.5424 9.73438 30.5471 10.175C30.5518 11.3234 30.5471 12.4719 30.5471 13.6203C30.5471 13.6344 30.5377 13.6484 30.5236 13.6813C23.0236 13.6813 15.5143 13.6813 8.00488 13.6813C8.00488 12.4484 8.00488 11.2109 8.00488 9.97813C8.18301 9.57969 8.49238 9.44844 8.92363 9.45782C10.0393 9.47657 11.1596 9.46719 12.2752 9.46719L12.2658 9.46251C12.2658 10.1563 12.2658 10.85 12.2705 11.5438C12.2705 11.8719 12.4393 12.1203 12.7111 12.2234C13.1799 12.4063 13.6674 12.0828 13.6721 11.5672C13.6814 10.8641 13.6768 10.1609 13.6768 9.46251L13.6674 9.46719C14.6096 9.46719 15.5471 9.46719 16.4893 9.46719L16.4799 9.46251C16.4799 10.1563 16.4799 10.85 16.4846 11.5438C16.4846 11.8719 16.6533 12.1203 16.9252 12.2234C17.3939 12.4063 17.8814 12.0828 17.8861 11.5672C17.8955 10.8641 17.8908 10.1609 17.8908 9.46251L17.8814 9.46719C18.8236 9.46719 19.7611 9.46719 20.7033 9.46719L20.6939 9.46251C20.6939 10.1563 20.6939 10.85 20.6986 11.5438C20.6986 11.8719 20.8674 12.1203 21.1393 12.2234C21.608 12.4063 22.0955 12.0828 22.1002 11.5672C22.1096 10.8641 22.1049 10.1609 22.1049 9.46251L22.0955 9.46719C23.0377 9.46719 23.9752 9.46719 24.9174 9.46719L24.908 9.46251C24.908 10.1563 24.908 10.85 24.9127 11.5438C24.9127 11.8719 25.0814 12.1203 25.3533 12.2234C25.8221 12.4063 26.3096 12.0828 26.3143 11.5672C26.3236 10.8641 26.3189 10.1609 26.3189 9.46251L26.3236 9.45782Z" fill="#1E62B9"/>
<path d="M13.1094 8C13.5594 8.1875 13.6719 8.36094 13.6719 8.87187C13.6719 9.06875 13.6672 9.26094 13.6672 9.45781L13.6766 9.45312C13.2078 9.45312 12.7344 9.45312 12.2656 9.45312L12.275 9.45781C12.275 9.26094 12.2703 9.06875 12.2703 8.87187C12.2656 8.36094 12.3781 8.1875 12.8281 8C12.9219 8 13.0156 8 13.1094 8Z" fill="#1E62B9"/>
<path d="M17.3281 8C17.7781 8.1875 17.8906 8.36094 17.8906 8.87187C17.8906 9.06875 17.8859 9.26094 17.8859 9.45781L17.8953 9.45312C17.4266 9.45312 16.9531 9.45312 16.4844 9.45312L16.4937 9.45781C16.4937 9.26094 16.4891 9.06875 16.4891 8.87187C16.4844 8.36094 16.5969 8.1875 17.0469 8C17.1406 8 17.2344 8 17.3281 8Z" fill="#1E62B9"/>
<path d="M21.5469 8C21.9969 8.1875 22.1094 8.36094 22.1094 8.87187C22.1094 9.06875 22.1047 9.26094 22.1047 9.45781L22.1141 9.45312C21.6453 9.45312 21.1719 9.45312 20.7031 9.45312L20.7125 9.45781C20.7125 9.26094 20.7078 9.06875 20.7078 8.87187C20.7031 8.36094 20.8156 8.1875 21.2656 8C21.3594 8 21.4531 8 21.5469 8Z" fill="#1E62B9"/>
<path d="M24.9266 9.45781C24.9266 9.26094 24.9219 9.06875 24.9219 8.87187C24.9219 8.36094 25.0344 8.1875 25.4844 8C25.5781 8 25.6719 8 25.7656 8C26.2156 8.1875 26.3281 8.36094 26.3281 8.87187C26.3281 9.06875 26.3234 9.26094 26.3234 9.45781L26.3328 9.45312C25.8641 9.45312 25.3906 9.45312 24.9219 9.45312L24.9266 9.45781Z" fill="#1E62B9"/>
</g>
<defs>
<clipPath id="clip0_1061_7697">
<rect width="24" height="24" fill="white" transform="translate(8 8)"/>
</clipPath>
</defs>
</svg>
