<svg width="40" height="40" viewBox="0 0 40 40" fill="none" xmlns="http://www.w3.org/2000/svg">
<rect width="40" height="40" rx="4" fill="#1E62B9" fill-opacity="0.1"/>
<path fill-rule="evenodd" clip-rule="evenodd" d="M28.5276 13.1084C28.3228 13.3149 28.1115 13.5279 27.8853 13.7541V13.4278C27.8853 13.0164 27.886 12.6044 27.8867 12.1921V12.1914V12.1907V12.1906V12.1904C27.888 11.3643 27.8894 10.5373 27.8853 9.71305C27.879 8.69024 27.1825 8 26.1659 8H9.70054C8.70283 8 7.99377 8.70279 8.00004 9.69423V30.3011C8.00004 31.2862 8.70283 31.9953 9.68799 31.9953C15.1911 32.0016 20.7005 32.0016 26.2036 31.9953C26.3856 31.9953 26.5675 31.9702 26.7369 31.92C27.4648 31.7004 27.8915 31.0729 27.8915 30.232C27.8915 26.4922 27.8915 22.7523 27.8853 19.0125C27.8853 18.8431 27.9355 18.7238 28.0547 18.6046L31.6314 15.0279C32.1208 14.5385 32.1208 13.9549 31.6314 13.4592C31.3302 13.1517 31.0227 12.8442 30.7152 12.543C30.1882 12.0159 29.6171 12.0097 29.0963 12.5368C28.9077 12.7254 28.7205 12.9141 28.5276 13.1084ZM10.077 10.077V10.077H25.8145L25.816 10.0929C25.8217 10.1557 25.8271 10.2141 25.8271 10.2778C25.8271 12.0599 25.8271 13.8357 25.8208 15.6178C25.8208 15.737 25.7581 15.8813 25.6765 15.9629C24.7321 16.9104 23.7877 17.8563 22.8434 18.8023C21.899 19.7482 20.9546 20.6942 20.0102 21.6417C19.8973 21.7609 19.8032 21.9115 19.7404 22.0684C19.6435 22.3141 19.5562 22.5617 19.4689 22.8091C19.3979 23.0103 19.327 23.2114 19.251 23.4112C19.2259 23.4802 19.1568 23.5555 19.0941 23.5806C18.8519 23.6703 18.6064 23.7504 18.3623 23.8301L18.3623 23.8301C18.265 23.8619 18.1679 23.8935 18.0713 23.9257C18.0119 23.9452 17.9536 23.9595 17.8964 23.9685C17.5979 24.0219 17.3314 23.9261 17.1237 23.6811C16.9291 23.4489 16.7534 23.1979 16.5903 22.9406C16.4955 22.7869 16.4028 22.6907 16.3053 22.6529C16.1677 22.6074 16.0202 22.6753 15.8437 22.859C15.6791 23.0341 15.5146 23.2071 15.3457 23.3848L15.3453 23.3853C15.2116 23.5259 15.0751 23.6694 14.9338 23.8191L14.9324 23.8072L14.9212 23.8191C14.8521 23.2293 14.7894 22.6771 14.7329 22.1249C14.7141 21.9178 14.6451 21.7547 14.4317 21.6982C14.4004 21.6908 14.3707 21.6871 14.3425 21.6867C14.1853 21.6898 14.075 21.7968 13.9863 21.9429C13.8043 22.2409 13.6192 22.5358 13.4341 22.8308C13.249 23.1257 13.0639 23.4206 12.8819 23.7187C12.6532 24.0918 12.3438 24.2918 11.9092 24.2909C11.8865 24.2911 11.8635 24.2907 11.8402 24.2897C11.7372 24.2864 11.6324 24.2848 11.5277 24.285C11.4389 24.2853 11.3503 24.2869 11.263 24.2897C11.0183 24.3022 10.874 24.4528 10.874 24.6725C10.8802 24.8921 11.0308 25.0364 11.2755 25.0427L11.2803 25.0428L11.2807 25.0428C11.4243 25.0461 11.5662 25.0493 11.7082 25.0489C11.8347 25.0485 11.9605 25.0451 12.0849 25.0364C12.681 24.9925 13.1328 24.7039 13.4528 24.2019C13.621 23.942 13.7808 23.6822 13.9593 23.3921L13.9593 23.3921L13.9593 23.392L14.0866 23.1853L14.0886 23.2023L14.0993 23.1853L14.1156 23.3227C14.1718 23.7939 14.2223 24.2175 14.2624 24.6411C14.275 24.8231 14.344 24.9611 14.5197 25.0239C14.5617 25.0394 14.6022 25.0469 14.6412 25.0473C14.758 25.0453 14.8589 24.9824 14.9463 24.8858C15.1601 24.658 15.3759 24.4301 15.5959 24.1978L15.5961 24.1976L15.5964 24.1973L15.5971 24.1966C15.7704 24.0135 15.9464 23.8278 16.1259 23.6371L16.1308 23.6454L16.1386 23.6371C16.5764 24.3696 17.1183 24.7338 17.7643 24.735C18.1057 24.7328 18.476 24.6302 18.8744 24.4278L18.8749 24.4339L18.887 24.4277C18.9184 24.8733 19.1004 25.1682 19.5145 25.2372C19.6206 25.2517 19.7414 25.2402 19.8515 25.2142C19.8803 25.2063 19.9082 25.1972 19.9348 25.187C20.6815 24.9298 21.422 24.6599 22.1624 24.3838C22.2816 24.3399 22.3946 24.2521 22.4824 24.1642C23.5178 23.1351 24.5469 22.1061 25.576 21.0707C25.6178 21.0289 25.6485 20.9815 25.6791 20.9341L25.6792 20.934C25.6945 20.9103 25.7098 20.8866 25.7266 20.8636L25.7351 20.8693L25.7392 20.8636C25.7581 20.8824 25.7769 20.895 25.7957 20.9075V27.7409H25.783V27.7409H10.0644C10.0769 21.8551 10.0769 15.9755 10.0769 10.077H10.077ZM22.1249 23.4112L22.1249 23.4112L29.8493 15.6868L29.8491 15.6865C29.3911 15.2286 28.9205 14.758 28.4688 14.3C28.6936 14.5248 28.9231 14.7558 29.1533 14.9876L29.154 14.9884L29.1543 14.9886L29.1547 14.989C29.3867 15.2226 29.6196 15.4571 29.8493 15.6868L22.1249 23.4112ZM18.2282 30.08L18.2274 30.0801C18.1314 30.0807 18.0355 30.0814 17.9395 30.0814C17.8944 30.0814 17.8494 30.0813 17.8046 30.0811H17.0852C17.0793 30.0812 17.0733 30.0813 17.0673 30.0814C16.9104 30.0814 16.7912 30.0312 16.7975 29.8618C16.8034 29.7137 16.9045 29.6607 17.0372 29.6552C17.047 29.6547 17.057 29.6544 17.0671 29.6544H18.8241C18.9684 29.6544 19.0814 29.7171 19.0814 29.8677C19.0814 30.0144 18.992 30.067 18.8704 30.0785C18.8497 30.0805 18.8279 30.0814 18.8055 30.0814C18.613 30.0773 18.4206 30.0787 18.2282 30.08Z" fill="#1E62B9"/>
<path d="M17.9524 13.9044C19.6215 13.9044 21.2906 13.9044 22.9598 13.9044C23.0476 13.9044 23.1355 13.9044 23.217 13.917C23.4116 13.9483 23.5245 14.0676 23.5308 14.2684C23.5371 14.4754 23.4304 14.6072 23.2233 14.6511C23.1543 14.6637 23.0853 14.6637 23.01 14.6637C19.6215 14.6637 16.2393 14.6637 12.8509 14.6637C12.763 14.6637 12.6501 14.6825 12.5999 14.6323C12.4932 14.5382 12.3677 14.4127 12.3426 14.2809C12.3112 14.1115 12.4242 13.9672 12.6124 13.9232C12.7128 13.9044 12.8132 13.9044 12.9136 13.9044C14.6016 13.9044 16.277 13.9044 17.9524 13.9044Z" fill="#1E62B9"/>
<path d="M17.9519 16.8166C16.264 16.8166 14.5823 16.8166 12.8943 16.8166C12.8065 16.8166 12.7186 16.8228 12.6371 16.804C12.4488 16.7726 12.3233 16.6346 12.3484 16.4589C12.3672 16.3271 12.4802 16.1954 12.5869 16.095C12.6433 16.0448 12.7688 16.0573 12.8567 16.0573C16.2451 16.0573 19.6273 16.0573 23.0158 16.0573C23.1099 16.0573 23.2103 16.0573 23.2919 16.0887C23.4676 16.1514 23.5491 16.2895 23.5303 16.4777C23.5115 16.6534 23.4111 16.7664 23.2417 16.7977C23.1601 16.8166 23.0722 16.8103 22.9844 16.8103C21.3027 16.8166 19.6273 16.8166 17.9519 16.8166Z" fill="#1E62B9"/>
<path d="M17.9589 11.7525C19.6343 11.7525 21.316 11.7525 22.9914 11.7525C23.0604 11.7525 23.1357 11.7463 23.2047 11.7588C23.393 11.7776 23.5059 11.8906 23.531 12.0726C23.5561 12.2671 23.4745 12.4177 23.2863 12.4742C23.1859 12.5055 23.0729 12.5055 22.96 12.5055C19.6155 12.5055 16.2647 12.5055 12.9201 12.5055C12.8135 12.5055 12.7005 12.4993 12.5938 12.4742C12.4119 12.424 12.324 12.2796 12.3428 12.0977C12.3617 11.9094 12.4683 11.7776 12.6691 11.7588C12.7444 11.7525 12.826 11.7525 12.9013 11.7525C14.5893 11.7525 16.2772 11.7525 17.9589 11.7525Z" fill="#1E62B9"/>
</svg>
