<svg width="40" height="40" viewBox="0 0 40 40" fill="none" xmlns="http://www.w3.org/2000/svg">
<rect width="40" height="40" rx="4" fill="#1E62B9" fill-opacity="0.1"/>
<path d="M14.4193 24.2802C14.5693 23.9381 14.7193 23.6157 14.8498 23.2933C14.8824 23.2078 14.8759 23.0894 14.8432 23.0039C14.6476 22.5104 14.4454 22.017 14.2367 21.5368C14.1976 21.4512 14.1194 21.3657 14.0411 21.3328C13.7737 21.2144 13.4998 21.1091 13.2259 21.0105C13.102 20.9644 13.0433 20.9118 13.0498 20.767C13.0628 20.2473 13.0563 19.7342 13.0498 19.2144C13.0498 19.0894 13.0889 19.0236 13.2063 18.9842C13.5194 18.8723 13.8976 18.8197 14.1194 18.6026C14.3346 18.3921 14.3672 18.0039 14.4976 17.7013C14.6019 17.4579 14.7324 17.2342 14.8367 16.9908C14.8759 16.8987 14.8824 16.7671 14.8498 16.6816C14.7454 16.3987 14.602 16.1289 14.4911 15.846C14.465 15.7802 14.4846 15.675 14.5237 15.6158C14.6215 15.4842 14.7519 15.3789 14.8628 15.2605C15.1563 14.9645 15.4432 14.6618 15.7432 14.3592C16.0824 14.5105 16.4019 14.6618 16.7345 14.8C16.8128 14.8329 16.9367 14.8197 17.0215 14.7868C17.5041 14.596 17.9801 14.3921 18.4562 14.1816C18.5475 14.1421 18.6388 14.0566 18.678 13.9711C18.8019 13.6947 18.8932 13.4053 19.0171 13.129C19.0432 13.0697 19.1345 12.9974 19.1997 12.9974C19.7279 12.9842 20.2562 12.9842 20.791 12.9974C20.8627 12.9974 20.9605 13.0697 20.9931 13.1421C21.117 13.4184 21.2083 13.7079 21.3323 13.9842C21.3714 14.0697 21.4692 14.1487 21.5605 14.1882C22.0301 14.3921 22.4996 14.596 22.9757 14.7803C23.067 14.8197 23.1909 14.8329 23.2822 14.8C23.5627 14.6947 23.83 14.55 24.1105 14.4382C24.1757 14.4118 24.3061 14.425 24.3518 14.4776C24.7365 14.846 25.1083 15.2276 25.4735 15.6092C25.5191 15.6618 25.5387 15.7868 25.5126 15.8526C25.4017 16.1421 25.2583 16.4184 25.1474 16.7079C25.1148 16.7868 25.1278 16.8921 25.1604 16.971C25.3561 17.4579 25.5517 17.9381 25.7604 18.4184C25.7996 18.5105 25.8778 18.6157 25.9626 18.6486C26.2822 18.7868 26.6082 18.9052 26.9474 19.0368C26.9474 19.6289 26.9539 20.221 26.9408 20.8131C26.9408 20.8723 26.8691 20.9578 26.8169 20.9776C26.4974 21.1157 26.093 21.1618 25.8648 21.3855C25.6496 21.6026 25.617 22.0039 25.4865 22.3197C25.3952 22.5433 25.2648 22.7539 25.1735 22.9841C25.1344 23.0762 25.1278 23.2012 25.1604 23.2933C25.2844 23.6223 25.4409 23.9381 25.5909 24.2802C25.18 24.6881 24.7692 25.1025 24.3518 25.5038C24.2996 25.5499 24.1757 25.563 24.1039 25.5302C23.8235 25.4183 23.5561 25.2802 23.2757 25.1749C23.1909 25.142 23.0735 25.1552 22.9887 25.1881C22.5127 25.3788 22.0431 25.5762 21.5736 25.7802C21.4757 25.8262 21.3714 25.9117 21.3323 26.0038C21.2083 26.2736 21.1236 26.5565 21.0062 26.8262C20.9736 26.8986 20.8692 26.9841 20.791 26.9841C20.2692 26.9972 19.7475 26.9972 19.2258 26.9841C19.154 26.9841 19.0562 26.9051 19.0236 26.8394C18.8997 26.563 18.8084 26.2736 18.6845 25.9973C18.6454 25.9117 18.554 25.8262 18.4627 25.7867C17.9867 25.5762 17.5106 25.3788 17.028 25.1881C16.9432 25.1552 16.8258 25.1486 16.741 25.1815C16.4606 25.2867 16.1932 25.4315 15.9128 25.5367C15.8411 25.563 15.7171 25.5499 15.665 25.5038C15.2476 25.1091 14.8432 24.7012 14.4193 24.2802ZM20.0149 16.3658C18.0323 16.3592 16.428 17.971 16.4215 19.9776C16.415 21.971 17.9932 23.5894 19.9692 23.6091C21.9714 23.6223 23.5822 22.017 23.5887 20.0039C23.5953 17.9973 21.9975 16.3789 20.0149 16.3658Z" fill="#1E62B9"/>
<path d="M28.376 8.48524C30.2347 8.49182 31.7412 10.0247 31.7281 11.8997C31.7151 13.7747 30.2021 15.2747 28.3304 15.2681C26.4782 15.2615 24.9783 13.722 24.9913 11.8471C25.0043 9.97865 26.5239 8.47208 28.376 8.48524ZM28.3564 13.2286C28.8456 13.2286 29.3347 13.2286 29.8238 13.2286C30.0455 13.2286 30.0782 13.176 29.9738 12.9852C29.4847 12.1234 28.989 11.2681 28.4999 10.4063C28.4086 10.2418 28.3238 10.2286 28.226 10.3997C27.7369 11.2615 27.2413 12.1168 26.7521 12.9786C26.6413 13.1694 26.6739 13.2286 26.8891 13.2286C27.3782 13.2286 27.8673 13.2286 28.3564 13.2286Z" fill="#1E62B9"/>
<path d="M15.0069 28.3471C15.0069 30.2221 13.4873 31.7418 11.6287 31.7352C9.78306 31.7287 8.27656 30.2089 8.27004 28.3471C8.26352 26.4787 9.78306 24.9392 11.6352 24.9392C13.5004 24.9458 15.0134 26.4721 15.0069 28.3471ZM13.2069 28.3537C13.2069 27.8932 13.2004 27.4326 13.2069 26.9721C13.2069 26.8142 13.1678 26.755 12.9982 26.755C12.0917 26.7616 11.1917 26.7616 10.2852 26.755C10.1352 26.755 10.0635 26.7879 10.0635 26.959C10.07 27.88 10.07 28.8011 10.0635 29.7155C10.0635 29.8668 10.1091 29.9195 10.2591 29.9195C11.1722 29.9129 12.0852 29.9129 12.9917 29.9195C13.1547 29.9195 13.2004 29.8603 13.2004 29.7024C13.2004 29.2616 13.2069 28.8076 13.2069 28.3537Z" fill="#1E62B9"/>
<path d="M11.6482 8.47766C13.5134 8.48424 15.0134 10.004 15.0068 11.8855C15.0068 13.7605 13.4938 15.2671 11.6221 15.2671C9.77651 15.2605 8.27002 13.7408 8.27002 11.8789C8.27654 9.99738 9.78956 8.47766 11.6482 8.47766ZM11.6417 10.0697C10.6504 10.0697 9.85477 10.8592 9.84825 11.8592C9.83521 12.8592 10.6504 13.6816 11.6417 13.6816C12.6265 13.6816 13.4351 12.8789 13.4417 11.8855C13.4482 10.8855 12.6395 10.0697 11.6417 10.0697Z" fill="#1E62B9"/>
<path d="M31.748 28.3462C31.748 30.2277 30.2416 31.7409 28.3829 31.7409C26.5242 31.7409 25.0243 30.2146 25.0308 28.333C25.0373 26.4646 26.5308 24.9515 28.3829 24.9449C30.235 24.9383 31.748 26.4646 31.748 28.3462ZM30.235 28.3528C30.235 28.0501 30.2481 27.7475 30.2285 27.4449C30.222 27.3528 30.1503 27.2278 30.0785 27.1817C29.5698 26.8725 29.0611 26.5699 28.5394 26.2804C28.4677 26.2409 28.3307 26.2344 28.259 26.2804C27.7307 26.5699 27.2155 26.8791 26.7003 27.1883C26.6286 27.2343 26.5634 27.3462 26.5568 27.4317C26.5438 28.037 26.5438 28.6488 26.5568 29.2541C26.5568 29.3396 26.6221 29.458 26.6938 29.5041C27.209 29.8198 27.7307 30.1225 28.2525 30.4119C28.3242 30.4514 28.4612 30.4514 28.5329 30.4054C29.0546 30.1159 29.5633 29.8198 30.072 29.5106C30.1503 29.4646 30.2155 29.3396 30.222 29.2409C30.2481 28.9449 30.235 28.6488 30.235 28.3528Z" fill="#1E62B9"/>
<path d="M23.1983 9.51762C22.5526 9.39262 21.907 9.22815 21.2548 9.15578C19.3766 8.9321 17.5571 9.18867 15.8028 9.93209C15.5158 10.0571 15.3006 9.97814 15.2093 9.7413C15.118 9.50446 15.2223 9.32025 15.5158 9.19525C18.0918 8.13605 20.7135 8.00447 23.3809 8.79394C23.4461 8.81368 23.5178 8.83341 23.6222 8.85973C23.5635 8.74789 23.5178 8.66894 23.4722 8.58341C23.3678 8.35973 23.4265 8.16894 23.6222 8.0571C23.8113 7.95184 24.02 7.99131 24.1309 8.1821C24.3852 8.60315 24.6265 9.03078 24.8613 9.46498C24.9852 9.69525 24.8743 9.94524 24.633 10.0242C24.1765 10.1689 23.7135 10.3005 23.2504 10.4255C23.0352 10.4847 22.8526 10.3729 22.7874 10.1689C22.7157 9.94524 22.8004 9.76761 23.0222 9.67551C23.0809 9.64919 23.133 9.62946 23.1917 9.60972C23.1917 9.57025 23.1983 9.54393 23.1983 9.51762Z" fill="#1E62B9"/>
<path d="M16.5582 31.1817C16.6234 31.3001 16.6821 31.3725 16.7147 31.458C16.793 31.6619 16.7343 31.833 16.5387 31.9382C16.3626 32.0369 16.1735 32.0238 16.0561 31.8527C15.7691 31.4251 15.4952 30.9843 15.2409 30.5369C15.1235 30.3396 15.2343 30.0962 15.4561 30.0172C15.9061 29.8527 16.3626 29.708 16.8191 29.5633C17.0539 29.4909 17.2365 29.5962 17.3017 29.8067C17.3669 30.0304 17.2821 30.208 17.0604 30.3001C16.9887 30.3264 16.9169 30.3527 16.8452 30.3791C16.8452 30.4054 16.8452 30.4317 16.8387 30.458C17.406 30.5698 17.9734 30.708 18.5473 30.7869C20.4842 31.0567 22.3625 30.7935 24.169 30.0501C24.4885 29.9185 24.7037 29.9909 24.782 30.2541C24.8537 30.4843 24.7689 30.6422 24.5146 30.754C23.6603 31.129 22.7668 31.379 21.8473 31.5304C20.1125 31.8067 18.4038 31.708 16.7213 31.208C16.6887 31.2014 16.643 31.1948 16.5582 31.1817Z" fill="#1E62B9"/>
<path d="M31.1609 23.2804C31.2718 23.2146 31.3501 23.162 31.4348 23.116C31.637 23.0173 31.8 23.0765 31.924 23.2541C32.0479 23.4252 32.0218 23.6554 31.8392 23.7804C31.4218 24.0567 31.0044 24.3265 30.574 24.5765C30.3392 24.7146 30.1109 24.6028 30.0196 24.3265C29.8696 23.8989 29.7327 23.4712 29.5957 23.0436C29.5044 22.7607 29.6023 22.5699 29.8436 22.491C30.0653 22.4186 30.2349 22.5239 30.3392 22.8002C30.3522 22.8397 30.3653 22.8791 30.4044 22.991C30.4827 22.6554 30.5544 22.3923 30.6066 22.1226C31.0044 20.037 30.8348 18.0042 30.0718 16.0239C29.9544 15.7213 29.987 15.5568 30.1762 15.4318C30.4044 15.2805 30.6522 15.366 30.7631 15.6489C31.1283 16.5502 31.3631 17.4844 31.487 18.4515C31.6957 20.0502 31.5914 21.6291 31.1479 23.1883C31.1544 23.2015 31.1609 23.2278 31.1609 23.2804Z" fill="#1E62B9"/>
<path d="M8.80455 16.886C8.71325 16.9452 8.64803 16.9847 8.58282 17.0242C8.38717 17.136 8.21761 17.0834 8.08717 16.9123C7.95674 16.7478 7.96979 16.5176 8.14587 16.386C8.54369 16.09 8.95455 15.8005 9.36541 15.5242C9.5741 15.386 9.82192 15.465 9.91323 15.6952C10.1024 16.1557 10.2784 16.6229 10.448 17.0965C10.5197 17.2873 10.4089 17.4847 10.2197 17.5571C10.0176 17.636 9.82845 17.5702 9.7241 17.3663C9.67845 17.2742 9.64584 17.1755 9.54802 17.0768C9.46324 17.5242 9.35237 17.9715 9.29367 18.4189C9.02629 20.3333 9.2415 22.2017 9.94583 24.0044C10.0632 24.3004 9.98496 24.4978 9.73714 24.5899C9.50236 24.682 9.31976 24.5767 9.20889 24.2675C8.30891 21.9057 8.15891 19.4978 8.77194 17.0373C8.77847 17.011 8.78499 16.9584 8.80455 16.886Z" fill="#1E62B9"/>
<path d="M19.9984 20.6284C19.8099 20.6284 19.6214 20.6298 19.4315 20.627C19.3874 20.627 19.3646 20.6383 19.3459 20.6838C19.2577 20.8957 19.1667 21.1061 19.0758 21.318C19.0491 21.382 19.0023 21.4175 18.9367 21.4218C18.8752 21.426 18.8258 21.399 18.7923 21.3436C18.7576 21.2867 18.7616 21.227 18.787 21.1658C18.9367 20.8175 19.0852 20.4706 19.2336 20.1222C19.4382 19.643 19.6414 19.1653 19.846 18.6861C19.8754 18.6179 19.9249 18.5795 19.9944 18.5781C20.0653 18.5767 20.1174 18.615 20.1469 18.6861C20.4972 19.508 20.8489 20.3298 21.1992 21.1531C21.2139 21.1886 21.2259 21.2313 21.2246 21.2696C21.2206 21.3464 21.1644 21.4076 21.0976 21.4204C21.02 21.4346 20.9532 21.3976 20.9184 21.318C20.8275 21.109 20.7379 20.9 20.651 20.6895C20.6322 20.644 20.6109 20.627 20.5641 20.6284C20.3755 20.6298 20.187 20.6284 19.9984 20.6284ZM19.9984 19.1625C19.8353 19.5435 19.6789 19.9118 19.5197 20.2829C19.842 20.2829 20.1562 20.2829 20.4771 20.2829C20.318 19.9089 20.1602 19.5421 19.9984 19.1625Z" fill="#1E62B9"/>
<path d="M19.9993 17.8983C20.6304 17.8983 21.2629 17.8983 21.894 17.8983C21.9435 17.8983 21.9903 17.9011 22.0291 17.941C22.0759 17.9865 22.0959 18.0433 22.0799 18.1087C22.0639 18.1756 22.0224 18.2196 21.9582 18.2339C21.9368 18.2381 21.9154 18.2395 21.894 18.2395C20.6304 18.2395 19.3682 18.2381 18.1046 18.241C17.9508 18.241 17.8906 18.1087 17.9214 18.0177C17.9441 17.9481 17.9962 17.9026 18.0658 17.8983C18.0845 17.8969 18.1019 17.8983 18.1206 17.8983C18.7464 17.8983 19.3735 17.8983 19.9993 17.8983Z" fill="#1E62B9"/>
<path d="M19.9988 22.1049C19.3677 22.1049 18.7352 22.1063 18.1041 22.1035C18.06 22.1035 18.0105 22.0893 17.9744 22.0651C17.9209 22.0296 17.9035 21.967 17.9169 21.9016C17.9316 21.8319 17.9731 21.785 18.0399 21.7708C18.06 21.7665 18.08 21.7651 18.1001 21.7651C19.3664 21.7651 20.6327 21.7665 21.8989 21.7637C22.0433 21.7637 22.1142 21.8931 22.0741 21.9969C22.05 22.0608 22.0046 22.0992 21.9377 22.1063C21.9177 22.1078 21.8976 22.1078 21.8775 22.1078C21.2518 22.1049 20.6246 22.1049 19.9988 22.1049Z" fill="#1E62B9"/>
</svg>
