<svg width="40" height="40" viewBox="0 0 40 40" fill="none" xmlns="http://www.w3.org/2000/svg">
<rect width="40" height="40" rx="4" fill="#1E62B9" fill-opacity="0.1"/>
<path d="M19.8671 30.3125C19.7679 30.3125 19.6829 30.3125 19.5979 30.3125C17.2958 30.3125 14.9937 30.3125 12.6917 30.3125C11.0696 30.3125 10 29.25 10 27.6279C10 21.9825 10 16.3371 10 10.6846C10 9.0625 11.0696 8 12.6917 8C14.6821 8 16.6725 8 18.6629 8C18.7479 8 18.84 8 18.9533 8C18.9533 8.10625 18.9533 8.20542 18.9533 8.2975C18.9533 9.67166 18.9533 11.0387 18.9533 12.4129C18.9604 14.2758 20.2637 15.5862 22.1266 15.5862C23.5008 15.5862 24.8679 15.5862 26.242 15.5862C26.327 15.5862 26.412 15.5862 26.5112 15.5862C26.5112 17.1446 26.5112 18.6746 26.5112 20.2258C23.6991 19.8079 21.3687 20.6508 19.7891 23.0379C18.2237 25.425 18.3725 27.8829 19.8671 30.3125ZM18.2875 17.1941C17.8554 17.1941 17.4233 17.1941 16.9842 17.1941C15.7446 17.1941 14.505 17.1941 13.2654 17.1941C12.7554 17.1941 12.4154 17.52 12.4296 17.9804C12.4437 18.4266 12.7767 18.7241 13.2867 18.7241C15.9712 18.7241 18.6487 18.7241 21.3333 18.7241C21.985 18.7241 22.6437 18.7241 23.2954 18.7241C23.6779 18.7241 23.9683 18.5187 24.0746 18.1929C24.2446 17.6758 23.8691 17.1871 23.2812 17.1871C21.6166 17.1941 19.9521 17.1941 18.2875 17.1941ZM15.7729 22.8325C16.63 22.8325 17.4871 22.8325 18.3441 22.8325C18.6912 22.8325 18.9391 22.6837 19.0808 22.365C19.3075 21.8408 18.9321 21.3166 18.3158 21.3096C16.6229 21.3025 14.9371 21.3025 13.2442 21.3096C13.1308 21.3096 13.0104 21.3308 12.9042 21.3662C12.5571 21.4937 12.3729 21.8408 12.4367 22.2162C12.4933 22.5633 12.7908 22.8183 13.1662 22.8254C14.0375 22.8396 14.9087 22.8325 15.7729 22.8325ZM15.2204 14.6017C15.865 14.6017 16.5096 14.6087 17.1542 14.6017C17.2817 14.6017 17.4233 14.5875 17.5437 14.545C17.8696 14.4246 18.0679 14.0846 18.0183 13.7446C17.9758 13.4046 17.6996 13.1 17.3525 13.1C15.9358 13.0858 14.5262 13.0929 13.1096 13.0929C13.0387 13.0929 12.9679 13.1142 12.9042 13.1425C12.5642 13.2771 12.3871 13.5958 12.4367 13.9712C12.4862 14.3183 12.7767 14.5946 13.145 14.6017C13.8392 14.6087 14.5333 14.6017 15.2204 14.6017ZM15.0929 26.962C15.7021 26.962 16.3112 26.962 16.9204 26.962C17.4304 26.962 17.7846 26.6433 17.7775 26.19C17.7775 25.7508 17.4304 25.425 16.9346 25.425C15.7092 25.4179 14.4767 25.4179 13.2512 25.425C12.7554 25.425 12.4225 25.7508 12.4225 26.197C12.4225 26.6433 12.7625 26.955 13.2583 26.955C13.8746 26.962 14.4837 26.962 15.0929 26.962Z" fill="#1E62B9"/>
<path d="M20.2354 8.19855C20.4833 8.37563 20.7029 8.48896 20.8729 8.65896C22.5516 10.3235 24.2162 11.9952 25.8808 13.6669C26.0508 13.8369 26.1641 14.0565 26.3412 14.3044C26.1995 14.3114 26.1358 14.3185 26.072 14.3185C24.7616 14.3185 23.4512 14.3185 22.1478 14.3185C20.9791 14.3185 20.2424 13.5819 20.2424 12.4131C20.2424 11.1098 20.2424 9.81354 20.2424 8.51021C20.2354 8.4323 20.2354 8.35438 20.2354 8.19855Z" fill="#1E62B9"/>
<path fill-rule="evenodd" clip-rule="evenodd" d="M25.5325 32.0005C28.4071 32.0005 30.7375 29.6702 30.7375 26.7956C30.7375 23.921 28.4071 21.5907 25.5325 21.5907C22.658 21.5907 20.3276 23.921 20.3276 26.7956C20.3276 29.6702 22.658 32.0005 25.5325 32.0005ZM21.9585 27.7209V28.1335C21.9723 28.1977 21.9843 28.262 21.9947 28.3263C22.1361 28.9565 22.4466 29.4022 22.9692 29.6096C23.0658 29.6469 23.171 29.6676 23.2728 29.6697C23.6449 29.6741 24.017 29.6733 24.389 29.6724C24.5379 29.6721 24.6867 29.6717 24.8355 29.6717C24.8469 29.6717 24.8572 29.6703 24.8692 29.6687C24.8717 29.6683 24.8742 29.668 24.8769 29.6676V27.9116H24.6492C24.6228 27.9116 24.5963 27.9114 24.5699 27.9112C24.517 27.9107 24.4641 27.9103 24.4112 27.9116C24.3457 27.9137 24.2956 27.8826 24.2663 27.8121C24.2353 27.7416 24.2508 27.6753 24.2887 27.6131C24.3577 27.4991 24.4263 27.3845 24.4949 27.27C24.5634 27.1555 24.632 27.0409 24.701 26.9269L25.1874 26.1184C25.2788 25.967 25.384 25.967 25.4737 26.1163C25.6221 26.362 25.77 26.6082 25.9179 26.8544C26.0658 27.1006 26.2137 27.3467 26.362 27.5924C26.4051 27.6629 26.4327 27.7333 26.3948 27.8183C26.3637 27.8868 26.3137 27.9137 26.2482 27.9137H25.7894V29.6738H25.8601H27.1451C27.5573 29.6717 27.9057 29.4852 28.2007 29.1493C28.4698 28.8425 28.6319 28.4631 28.6905 28.0215C28.6928 28.004 28.6979 27.9874 28.7031 27.9706C28.706 27.9614 28.7088 27.9522 28.7112 27.9427V27.5302C28.7057 27.5012 28.7008 27.4721 28.6958 27.4431C28.6883 27.3996 28.6809 27.356 28.6716 27.3125C28.5215 26.5869 28.1627 26.0831 27.5642 25.8571C27.44 25.8095 27.3969 25.7556 27.3676 25.598C27.1951 24.6547 26.7121 24.0556 25.9325 23.8234C25.1408 23.5891 24.2629 24.0805 23.8834 24.9574C23.8696 24.9906 23.8558 25.0237 23.8455 25.0445C23.8116 25.0391 23.7783 25.0327 23.7452 25.0263C23.6635 25.0106 23.5837 24.9953 23.5039 24.9968C22.8864 25.003 22.4449 25.7265 22.6225 26.4376C22.6346 26.4853 22.6346 26.5123 22.5967 26.5413C22.2603 26.8046 22.0533 27.1757 21.9809 27.6525C21.9787 27.6667 21.9732 27.681 21.9677 27.6953C21.9644 27.7038 21.9611 27.7124 21.9585 27.7209Z" fill="#1E62B9"/>
</svg>
