<svg width="40" height="40" viewBox="0 0 40 40" fill="none" xmlns="http://www.w3.org/2000/svg">
<rect width="40" height="40" rx="4" fill="#1E62B9" fill-opacity="0.1"/>
<path d="M30.0001 19.1226C30.0001 22.6769 30.0001 26.2311 30.0001 29.7854C30.0001 30.2764 29.9487 30.3232 29.426 30.3232C23.753 30.3232 18.0715 30.3232 12.3986 30.3232C11.8759 30.3232 11.833 30.2842 11.833 29.8087C11.833 22.708 11.833 15.6073 11.833 8.50664C11.833 8.01559 11.8501 8 12.3986 8C18.1058 8 23.813 8 29.5202 8C29.983 8 29.983 8 29.983 8.4209C29.983 11.9829 29.983 15.5528 29.983 19.1148C29.9916 19.1226 30.0001 19.1226 30.0001 19.1226ZM24.0444 12.3883C24.4472 12.3883 24.8328 12.3883 25.2098 12.3883C25.4412 12.3883 25.6297 12.3181 25.6212 12.0843C25.6126 11.866 25.4326 11.8037 25.2098 11.8115C24.8242 11.8193 24.4386 11.8115 24.0615 11.8115C23.9073 11.0086 23.8816 10.9775 22.9647 10.8294C22.9647 10.4864 22.9561 10.1357 22.9647 9.78492C22.9647 9.57447 22.9132 9.40299 22.6476 9.40299C22.3819 9.40299 22.3305 9.59006 22.3305 9.79271C22.3305 10.1435 22.3305 10.4864 22.3305 10.845C21.9363 10.845 21.585 10.845 21.2079 10.845C21.2079 10.4942 21.2079 10.1668 21.2079 9.83948C21.2079 9.62124 21.1908 9.40299 20.8737 9.40299C20.5824 9.40299 20.5652 9.61344 20.5652 9.82389C20.5738 10.1668 20.5652 10.502 20.5652 10.845C20.171 10.845 19.8025 10.845 19.4169 10.845C19.4169 10.4864 19.4084 10.1435 19.4169 9.8083C19.4169 9.59006 19.3826 9.40299 19.0913 9.41079C18.8256 9.41858 18.7828 9.60565 18.7828 9.8083C18.7828 10.1591 18.7828 10.502 18.7828 10.845C17.9344 10.9463 17.8402 11.032 17.703 11.8193C17.3517 11.8193 17.0004 11.8193 16.649 11.8193C16.4091 11.8193 16.1263 11.8037 16.1348 12.1077C16.1434 12.4116 16.4262 12.3883 16.6661 12.3883C17.0175 12.3883 17.3603 12.3883 17.7202 12.3883C17.7202 12.7468 17.7202 13.0742 17.7202 13.4171C17.3089 13.4171 16.9147 13.4171 16.5205 13.4171C16.3062 13.4171 16.1263 13.4873 16.1348 13.7133C16.1434 13.9393 16.3148 13.9939 16.5376 13.9939C16.9318 13.9861 17.326 13.9939 17.7202 13.9939C17.7202 14.3602 17.7202 14.6954 17.7202 15.0383C17.326 15.0383 16.9575 15.0461 16.5805 15.0383C16.3576 15.0383 16.152 15.0773 16.1434 15.3112C16.1348 15.5684 16.3405 15.6151 16.589 15.6151C16.9746 15.6073 17.3517 15.6151 17.7288 15.6151C17.7716 16.3322 17.9087 16.4569 18.7828 16.5972C18.7828 16.9324 18.7828 17.2753 18.7828 17.6105C18.7828 17.821 18.8256 18.0236 19.117 18.0158C19.3912 18.008 19.4255 17.8209 19.4255 17.6183C19.4169 17.2675 19.4255 16.9246 19.4255 16.5816C19.8283 16.5816 20.1967 16.5816 20.5738 16.5816C20.5738 16.948 20.5738 17.2831 20.5738 17.6261C20.5738 17.8287 20.6081 18.0158 20.8823 18.0158C21.1479 18.0158 21.2079 17.8365 21.2079 17.6339C21.2079 17.2831 21.2079 16.9402 21.2079 16.5738C21.5935 16.5738 21.9535 16.5738 22.3305 16.5738C22.3305 16.9246 22.3305 17.2675 22.3305 17.6105C22.3305 17.821 22.3648 18.0236 22.6647 18.0158C22.9389 18.0158 22.9732 17.8209 22.9647 17.6183C22.9561 17.2675 22.9647 16.9246 22.9647 16.6596C23.2817 16.5349 23.5988 16.4959 23.7787 16.3322C23.9587 16.1685 24.0015 15.8801 24.113 15.6151C24.4386 15.6151 24.8156 15.6073 25.1841 15.6151C25.4155 15.6229 25.6126 15.5606 25.6126 15.3267C25.6126 15.0929 25.4241 15.0306 25.1927 15.0306C24.8071 15.0383 24.43 15.0306 24.0444 15.0306C24.0444 14.672 24.0444 14.3369 24.0444 13.9861C24.43 13.9861 24.7899 13.9783 25.1498 13.9861C25.3812 13.9939 25.6126 13.9627 25.6126 13.7055C25.6126 13.4483 25.3898 13.4093 25.1584 13.4093C24.7899 13.4093 24.4129 13.4093 24.0358 13.4093C24.0444 13.0664 24.0444 12.7468 24.0444 12.3883ZM20.9337 19.3642C18.6628 19.3642 16.3919 19.3642 14.121 19.3642C13.5469 19.3642 13.3841 19.5123 13.3841 20.0424C13.3841 20.3931 13.3755 20.7439 13.3841 21.0946C13.3926 21.4453 13.5897 21.6324 13.9839 21.6324C18.6028 21.6324 23.2132 21.6324 27.8321 21.6324C28.2348 21.6324 28.4234 21.4531 28.4319 21.1024C28.4405 20.7439 28.4319 20.3853 28.4319 20.019C28.4319 19.5045 28.2691 19.3564 27.7121 19.3564C25.4498 19.3642 23.196 19.3642 20.9337 19.3642ZM20.8994 23.4407C18.5857 23.4407 16.272 23.4407 13.9668 23.4407C13.5383 23.4407 13.3584 23.5265 13.3926 23.7369C13.4441 24.0565 13.7183 24.0175 13.9668 24.0175C18.5771 24.0175 23.196 24.0175 27.8064 24.0175C27.9092 24.0175 28.0463 24.0409 28.1234 23.9941C28.2348 23.9318 28.3719 23.8071 28.3634 23.7135C28.3634 23.62 28.2091 23.5187 28.0977 23.4563C28.0292 23.4173 27.9092 23.4485 27.8149 23.4485C25.5012 23.4407 23.196 23.4407 20.8994 23.4407ZM20.8652 25.9037C18.56 25.9037 16.2634 25.9037 13.9582 25.9037C13.8725 25.9037 13.7697 25.8726 13.7097 25.9115C13.5897 25.9817 13.4098 26.083 13.4098 26.1766C13.4098 26.2701 13.5726 26.387 13.684 26.4649C13.7354 26.5039 13.8468 26.4727 13.9325 26.4727C18.5686 26.4727 23.2046 26.4727 27.8321 26.4727C27.9349 26.4727 28.072 26.4961 28.1406 26.4494C28.2348 26.387 28.3548 26.2623 28.3462 26.1688C28.3377 26.0752 28.2091 25.9661 28.1063 25.9115C28.0206 25.8726 27.9006 25.896 27.7892 25.896C25.4841 25.9037 23.1703 25.9037 20.8652 25.9037ZM20.8994 28.359C18.5857 28.359 16.2805 28.359 13.9668 28.359C13.5469 28.359 13.3584 28.4525 13.3926 28.6552C13.4441 28.9669 13.7183 28.9358 13.9668 28.9358C18.5771 28.9358 23.1875 28.9358 27.8064 28.9358C27.9263 28.9358 28.0634 28.9592 28.1491 28.9124C28.252 28.8578 28.3634 28.7253 28.3634 28.6318C28.3634 28.5383 28.2263 28.4291 28.1234 28.3746C28.0549 28.3356 27.9349 28.359 27.8406 28.359C25.5269 28.359 23.2132 28.359 20.8994 28.359Z" fill="#1E62B9"/>
<path d="M28.1586 30.8928C28.1586 31.1734 28.1586 31.415 28.1586 31.6644C28.1586 31.8983 28.0386 32.0074 27.7815 31.9996C27.7215 31.9996 27.653 31.9996 27.593 31.9996C21.92 31.9996 16.2385 31.9996 10.5656 31.9996C10.0343 31.9996 10 31.9606 10 31.493C10 24.3922 10 17.2915 10 10.1908C10 9.73097 10.0514 9.6842 10.5741 9.6842C10.7712 9.6842 10.9769 9.6842 11.1997 9.6842C11.1997 9.8245 11.1997 9.94142 11.1997 10.0583C11.1997 16.6446 11.1997 23.2231 11.1997 29.8094C11.1997 30.6278 11.5082 30.9084 12.4166 30.9084C17.5239 30.9084 22.6313 30.9084 27.7386 30.9084C27.8672 30.8928 27.9957 30.8928 28.1586 30.8928Z" fill="#1E62B9"/>
<path d="M20.865 15.9835C20.1452 15.9835 19.4339 15.9757 18.7141 15.9835C18.4656 15.9835 18.3799 15.9212 18.3799 15.6873C18.3885 14.3623 18.3885 13.0373 18.3799 11.7122C18.3799 11.5018 18.4484 11.416 18.6884 11.416C20.1537 11.4238 21.6191 11.4238 23.0931 11.416C23.3416 11.416 23.4015 11.5095 23.4015 11.72C23.393 13.045 23.393 14.3701 23.4015 15.6951C23.4015 15.9056 23.3244 15.9913 23.0845 15.9835C22.3475 15.9835 21.602 15.9835 20.865 15.9835ZM20.8821 14.9157C21.1735 14.9157 21.4563 14.9157 21.7477 14.9157C22.0476 14.9157 22.2104 14.7832 22.219 14.5104C22.2275 13.9726 22.2275 13.4426 22.219 12.9047C22.219 12.6319 22.0562 12.4994 21.7562 12.4994C21.1821 12.4994 20.5994 12.4994 20.0252 12.4994C19.7253 12.4994 19.571 12.6475 19.571 12.9125C19.5625 13.4348 19.5625 13.9648 19.571 14.487C19.5796 14.7754 19.7338 14.9001 20.0595 14.9079C20.3251 14.9235 20.5994 14.9157 20.8821 14.9157Z" fill="#1E62B9"/>
<path d="M27.8074 19.9561C27.8074 20.3224 27.8074 20.6731 27.8074 21.0473C23.2227 21.0473 18.6467 21.0473 14.0449 21.0473C14.0449 20.6965 14.0449 20.3302 14.0449 19.9561C18.621 19.9561 23.2056 19.9561 27.8074 19.9561Z" fill="#1E62B9"/>
<path d="M20.2065 14.3219C20.2065 13.9166 20.2065 13.5112 20.2065 13.0981C20.6607 13.0981 21.1149 13.0981 21.5862 13.0981C21.5862 13.5112 21.5862 13.9088 21.5862 14.3219C21.1235 14.3219 20.6779 14.3219 20.2065 14.3219Z" fill="#1E62B9"/>
</svg>
