<svg width="40" height="40" viewBox="0 0 40 40" fill="none" xmlns="http://www.w3.org/2000/svg">
<rect width="40" height="40" rx="4" fill="#1E62B9" fill-opacity="0.1"/>
<path d="M11.7896 17.7767C16.5536 17.7767 21.3176 17.7767 26.0321 17.7767C26.0321 17.8764 26.0321 17.9762 26.0321 18.026C26.0321 22.2153 26.0321 26.4544 26.0321 30.6436C26.0321 31.3917 25.6847 31.7408 24.9403 31.7408C20.9206 31.7408 16.901 31.7408 12.8813 31.7408C12.1369 31.7906 11.7896 31.4415 11.7896 30.6934C11.7896 26.4544 11.7896 22.2153 11.7896 17.9762C11.7896 17.9263 11.7896 17.8764 11.7896 17.7767ZM18.9356 19.5721C17.8439 19.5721 16.7025 19.5721 15.6107 19.5721C15.5611 19.5721 15.4618 19.5721 15.4122 19.5721C15.313 19.6219 15.2137 19.7217 15.1641 19.8214C15.1145 19.971 15.2633 20.0708 15.4122 20.1206C15.4618 20.1206 15.5611 20.1206 15.6107 20.1206C17.8439 20.1206 20.077 20.1206 22.3101 20.1206C22.4094 20.1206 22.5086 20.1206 22.5583 20.1206C22.6575 20.0708 22.7568 19.971 22.7568 19.8713C22.7568 19.7715 22.6575 19.6718 22.5583 19.5721C22.5086 19.5222 22.4094 19.5721 22.3101 19.5721C21.1688 19.5721 20.0274 19.5721 18.9356 19.5721ZM18.9356 22.315C20.077 22.315 21.1688 22.315 22.3101 22.315C22.3598 22.315 22.459 22.3649 22.5086 22.315C22.6079 22.2153 22.7568 22.1155 22.7568 22.0158C22.7568 21.916 22.6079 21.8163 22.5086 21.7664C22.459 21.7165 22.3598 21.7664 22.3101 21.7664C20.077 21.7664 17.8439 21.7664 15.6107 21.7664C15.5611 21.7664 15.4618 21.7165 15.4122 21.7664C15.313 21.8163 15.1641 21.916 15.1641 22.0158C15.1641 22.1155 15.2633 22.2153 15.3626 22.315C15.4122 22.3649 15.5115 22.315 15.5611 22.315C16.7025 22.315 17.7942 22.315 18.9356 22.315ZM16.6528 27.2523C16.9506 27.2523 17.2483 27.2523 17.5461 27.2523C17.9927 27.2523 18.489 27.2523 18.9356 27.2523C19.1341 27.2523 19.2334 27.1526 19.2334 26.9531C19.2334 26.7536 19.1341 26.6538 18.9356 26.6538C18.886 26.6538 18.8364 26.6538 18.8364 26.6538C17.3476 26.6538 15.9085 26.6538 14.4197 26.6538C14.3701 26.6538 14.2708 26.6538 14.2212 26.6538C14.1219 26.7037 14.0227 26.8035 14.0227 26.9032C14.0227 27.0029 14.1716 27.1526 14.2708 27.2024H14.5189C14.5189 27.2024 15.9581 27.2523 16.6528 27.2523ZM16.6528 25.1078C17.3972 25.1078 18.1912 25.1078 18.9356 25.1078C19.1837 25.1078 19.283 25.0081 19.283 24.8086C19.2334 24.6091 19.1341 24.5592 18.9356 24.5592C18.1912 24.5592 17.4469 24.5592 16.6528 24.5592C15.9085 24.5592 15.1145 24.5592 14.3701 24.5592C14.1219 24.5592 13.9731 24.7088 14.0227 24.8585C14.0723 25.0579 14.1716 25.1078 14.3701 25.1078C15.1641 25.1078 15.9085 25.1078 16.6528 25.1078ZM16.6528 28.8482C15.9085 28.8482 15.1145 28.8482 14.3701 28.8482C14.1716 28.8482 14.0723 28.9479 14.0723 29.0976C14.0723 29.297 14.2212 29.3968 14.3701 29.3968C15.9085 29.3968 17.4469 29.3968 18.9852 29.3968C19.0845 29.3968 19.2334 29.297 19.283 29.1973C19.3822 28.9978 19.2334 28.8482 18.9852 28.8482C18.1912 28.8482 17.4469 28.8482 16.6528 28.8482ZM22.3598 27.2523C22.7071 27.2523 23.1042 27.2523 23.4515 27.2523C23.65 27.2523 23.7989 27.2024 23.7989 26.9531C23.7989 26.7536 23.65 26.6538 23.4515 26.6538C22.7071 26.6538 21.9628 26.6538 21.2184 26.6538C21.0199 26.6538 20.871 26.7037 20.871 26.9531C20.871 27.1526 21.0199 27.2523 21.268 27.2523C21.6154 27.2523 22.0124 27.2523 22.3598 27.2523ZM22.3598 25.1078C22.7071 25.1078 23.1042 25.1078 23.4515 25.1078C23.65 25.1078 23.7989 25.0579 23.7989 24.8086C23.7989 24.6091 23.65 24.5094 23.4515 24.5094C22.7071 24.5094 21.9628 24.5094 21.268 24.5094C21.0695 24.5094 20.9206 24.5592 20.9206 24.8086C20.9206 25.0081 21.0695 25.1078 21.268 25.1078C21.6154 25.1078 21.9628 25.1078 22.3598 25.1078ZM22.3598 28.8482C21.9628 28.8482 21.6154 28.8482 21.2184 28.8482C21.0199 28.8482 20.871 28.8981 20.871 29.0976C20.871 29.297 21.0199 29.3968 21.2184 29.3968C21.9628 29.3968 22.7568 29.3968 23.5012 29.3968C23.6997 29.3968 23.8485 29.297 23.8485 29.0976C23.8485 28.8981 23.6997 28.7983 23.5012 28.8482C23.1042 28.8482 22.7071 28.8482 22.3598 28.8482Z" fill="#1E62B9"/>
<path d="M14.8667 13.1385C14.8667 12.7894 14.8667 12.4902 14.8667 12.191C19.6307 12.191 24.3452 12.191 29.1092 12.191C29.1092 12.2907 29.1092 12.3905 29.1092 12.4403C29.1092 16.7293 29.1092 21.0183 29.1092 25.3072C29.1092 26.1052 28.7618 26.4543 27.9678 26.4543C27.5212 26.4543 27.0746 26.4543 26.5783 26.4543C26.5783 26.3545 26.5783 26.2548 26.5783 26.1551C26.5783 22.3149 26.5783 18.5247 26.5783 14.6846C26.5783 13.8866 26.1813 13.2882 25.4369 13.1385C25.288 13.0887 25.0895 13.0887 24.9407 13.0887C21.6654 13.0887 18.4397 13.0887 15.1645 13.0887C15.1148 13.1385 15.0156 13.1385 14.8667 13.1385Z" fill="#1E62B9"/>
<path d="M11.7896 17.1782C11.7896 16.2805 11.7896 15.4326 11.7896 14.5848C11.7896 14.0362 12.1866 13.6871 12.7324 13.6871C16.8513 13.6871 20.9703 13.6871 25.0892 13.6871C25.5854 13.6871 26.0321 14.0362 26.0321 14.535C26.0321 15.3828 26.0321 16.2805 26.0321 17.1782C21.3176 17.1782 16.5536 17.1782 11.7896 17.1782ZM20.6229 15.7319C21.1191 15.7319 21.6154 15.7319 22.1116 15.7319C22.3598 15.7319 22.6079 15.7319 22.8064 15.7319C22.9553 15.7319 23.1042 15.6321 23.1042 15.4825C23.1042 15.283 23.0049 15.2332 22.856 15.1833C22.8064 15.1833 22.7071 15.1833 22.6575 15.1833C21.5658 15.1833 20.5236 15.1833 19.4319 15.1833C19.0845 15.1833 18.7867 15.1833 18.4394 15.1833C18.1912 15.1833 18.092 15.3329 18.1416 15.5324C18.1912 15.7319 18.3401 15.7319 18.489 15.7319C19.2334 15.7319 19.9281 15.7319 20.6229 15.7319ZM15.8092 15.7319C16.0573 15.7319 16.3551 15.7319 16.6032 15.7319C16.8017 15.7319 16.9506 15.6321 16.9506 15.4326C16.9506 15.2332 16.8017 15.1334 16.6032 15.1334C16.0573 15.1334 15.5115 15.1334 14.9656 15.1334C14.7671 15.1334 14.6182 15.2332 14.6182 15.4326C14.6182 15.6321 14.7671 15.7319 14.9656 15.7319C15.313 15.7319 15.5611 15.7319 15.8092 15.7319Z" fill="#1E62B9"/>
<path d="M14.8667 11.5925C14.8667 10.6948 14.8667 9.84701 14.8667 8.94932C14.8667 8.50048 15.2637 8.15137 15.7103 8.1015C15.76 8.1015 15.8592 8.1015 15.9088 8.1015C19.9285 8.1015 23.9978 8.1015 28.0174 8.1015C28.7122 8.1015 29.1092 8.4506 29.1092 9.19868C29.1092 9.99663 29.1092 10.7946 29.1092 11.5925C24.3948 11.5925 19.6804 11.5925 14.8667 11.5925ZM23.7497 10.1462C24.2955 10.1462 24.891 10.1462 25.4369 10.1462C25.5858 10.1462 25.7843 10.1462 25.9332 10.1462C26.1317 10.1462 26.2309 10.0465 26.2309 9.84701C26.2309 9.64752 26.082 9.59765 25.9332 9.59765C25.8835 9.59765 25.8339 9.59765 25.7843 9.59765C24.3948 9.59765 23.0549 9.59765 21.6654 9.59765C21.6158 9.59765 21.5165 9.59765 21.4669 9.59765C21.3676 9.64752 21.2684 9.74727 21.2684 9.84701C21.2684 9.94676 21.3676 10.0465 21.4669 10.0964C21.571 10.0964 21.6178 10.0964 21.7171 10.0964C21.6654 10.1001 23.0549 10.1462 23.7497 10.1462ZM18.8864 10.1462C19.1345 10.1462 19.4322 10.1462 19.6804 10.1462C19.8789 10.1462 20.0277 10.0964 20.0277 9.84701C20.0277 9.64752 19.8789 9.54778 19.6804 9.54778C19.1345 9.54778 18.5886 9.54778 18.0427 9.54778C17.8442 9.54778 17.6953 9.64752 17.745 9.84701C17.745 10.0465 17.8939 10.1462 18.0924 10.1462C18.3901 10.1961 18.6382 10.1462 18.8864 10.1462Z" fill="#1E62B9"/>
</svg>
