<svg width="40" height="40" viewBox="0 0 40 40" fill="none" xmlns="http://www.w3.org/2000/svg">
<rect width="40" height="40" rx="4" fill="#1E62B9" fill-opacity="0.1"/>
<path d="M30 32C23.6667 32 17.3333 32 11 32C11 24 11 16 11 8C15.3846 8 19.7692 8 24.1538 8C24.1538 9.86875 24.1538 11.7437 24.1538 13.6312C26.1156 13.6312 28.0513 13.6312 30 13.6312C30 19.7687 30 25.8813 30 32ZM27.0574 22.15C27.0574 21.675 27.0574 21.2125 27.0574 20.7375C26.5638 20.7375 26.0896 20.7375 25.5959 20.7375C25.5959 20.2625 25.5959 19.8063 25.5959 19.3625C25.1022 19.3625 24.628 19.3625 24.1344 19.3625C24.1344 19.8375 24.1344 20.2937 24.1344 20.7375C21.692 20.7375 19.2691 20.7375 16.8267 20.7375C16.8267 20.2625 16.8267 19.8063 16.8267 19.3625C16.333 19.3625 15.8588 19.3625 15.3651 19.3625C15.3651 19.8375 15.3651 20.2937 15.3651 20.7688C14.8715 20.7688 14.3973 20.7688 13.9361 20.7688C13.9361 21.2438 13.9361 21.7 13.9361 22.175C14.4297 22.175 14.9039 22.175 15.3651 22.175C15.3651 23.5875 15.3651 24.9812 15.3651 26.3937C14.8715 26.3937 14.3973 26.3937 13.9361 26.3937C13.9361 26.8687 13.9361 27.325 13.9361 27.8C14.4297 27.8 14.9039 27.8 15.3976 27.8C15.3976 28.275 15.3976 28.7312 15.3976 29.175C15.8913 29.175 16.3655 29.175 16.8591 29.175C16.8591 28.7 16.8591 28.2437 16.8591 27.8C19.3015 27.8 21.7244 27.8 24.1668 27.8C24.1668 28.275 24.1668 28.7312 24.1668 29.175C24.6605 29.175 25.1347 29.175 25.6284 29.175C25.6284 28.7 25.6284 28.2437 25.6284 27.7687C26.1221 27.7687 26.5962 27.7687 27.0574 27.7687C27.0574 27.2937 27.0574 26.8375 27.0574 26.3625C26.5638 26.3625 26.0896 26.3625 25.6284 26.3625C25.6284 24.95 25.6284 23.5562 25.6284 22.15C26.1156 22.15 26.5832 22.15 27.0574 22.15ZM16.8591 16.4438C16.8591 16.925 16.8591 17.3813 16.8591 17.8313C20.2694 17.8313 23.6667 17.8313 27.0574 17.8313C27.0574 17.3625 27.0574 16.9062 27.0574 16.4438C23.6537 16.4438 20.2629 16.4438 16.8591 16.4438ZM22.6793 10.8312C20.7306 10.8312 18.7884 10.8312 16.8526 10.8312C16.8526 11.3 16.8526 11.75 16.8526 12.2C18.8014 12.2 20.7436 12.2 22.6793 12.2C22.6793 11.7312 22.6793 11.2812 22.6793 10.8312ZM16.8462 15.0188C18.8079 15.0188 20.7436 15.0188 22.6728 15.0188C22.6728 14.55 22.6728 14.0938 22.6728 13.6375C20.7241 13.6375 18.7884 13.6375 16.8462 13.6375C16.8462 14.1 16.8462 14.5563 16.8462 15.0188ZM13.9361 10.8187C13.9361 11.3 13.9361 11.7563 13.9361 12.2063C14.4232 12.2063 14.8974 12.2063 15.3716 12.2063C15.3716 11.7375 15.3716 11.2812 15.3716 10.8187C14.8844 10.8187 14.4168 10.8187 13.9361 10.8187ZM13.9361 13.6312C13.9361 14.1062 13.9361 14.5625 13.9361 15.0188C14.4232 15.0188 14.8974 15.0188 15.3716 15.0188C15.3716 14.55 15.3716 14.0938 15.3716 13.6312C14.8844 13.6312 14.4168 13.6312 13.9361 13.6312ZM13.9361 16.4438C13.9361 16.9188 13.9361 17.375 13.9361 17.8313C14.4232 17.8313 14.8974 17.8313 15.3716 17.8313C15.3716 17.3625 15.3716 16.9062 15.3716 16.4438C14.8844 16.4438 14.4168 16.4438 13.9361 16.4438Z" fill="#1E62B9"/>
<path d="M29.4545 12.2119C28.2204 12.2119 26.9277 12.2119 25.6221 12.2119C25.6221 10.9557 25.6221 9.71191 25.6221 8.52441C26.8887 9.73691 28.1814 10.9807 29.4545 12.2119Z" fill="#1E62B9"/>
<path d="M16.8457 26.3622C16.8457 24.956 16.8457 23.5685 16.8457 22.1685C19.2751 22.1685 21.698 22.1685 24.1339 22.1685C24.1339 23.5622 24.1339 24.956 24.1339 26.3622C21.7175 26.3622 19.2946 26.3622 16.8457 26.3622Z" fill="#1E62B9"/>
</svg>
