<svg width="40" height="40" viewBox="0 0 40 40" fill="none" xmlns="http://www.w3.org/2000/svg">
<rect width="40" height="40" rx="4" fill="#1E62B9" fill-opacity="0.1"/>
<path d="M27.0601 30.9995C26.9684 30.9995 26.8833 30.9995 26.8047 30.9995C21.0691 30.9995 15.3334 30.9995 9.59123 30.9995C9.10671 30.9995 9.00195 30.8947 9.00195 30.4102C9.00195 24.4126 9.00195 18.4151 9.00195 12.411C9.00195 12.3324 9.00195 12.2473 9.00195 12.1556C15.0257 12.1556 21.0363 12.1556 27.0601 12.1556C27.0601 18.4282 27.0601 24.7007 27.0601 30.9995ZM18.0637 22.3567C15.7394 22.3567 13.415 22.3567 11.0906 22.3567C10.6978 22.3567 10.5668 22.4811 10.5668 22.8609C10.5668 24.8841 10.5668 26.9007 10.5668 28.9239C10.5668 29.2905 10.6978 29.428 11.071 29.428C15.7066 29.428 20.3488 29.428 24.9845 29.428C25.3643 29.428 25.4952 29.2971 25.4952 28.9108C25.4952 26.9072 25.4952 24.9037 25.4952 22.9002C25.4952 22.4811 25.3708 22.3633 24.9518 22.3633C22.6601 22.3567 20.3619 22.3567 18.0637 22.3567ZM18.0114 16.0711C20.3161 16.0711 22.6274 16.0711 24.9321 16.0711C25.0107 16.0711 25.0958 16.0776 25.1744 16.0645C25.3708 16.0187 25.4952 15.8943 25.4952 15.6913C25.5017 15.4752 25.3773 15.3443 25.1678 15.2985C25.0958 15.2854 25.0238 15.2919 24.9452 15.2919C20.3423 15.2919 15.7328 15.2919 11.1299 15.2919C11.0644 15.2919 10.999 15.2854 10.9335 15.2919C10.7174 15.3181 10.5668 15.4818 10.5734 15.6848C10.5734 15.8877 10.724 16.0514 10.94 16.0711C11.012 16.0776 11.0841 16.0711 11.1626 16.0711C13.4477 16.0711 15.7263 16.0711 18.0114 16.0711ZM18.0376 17.6425C20.3685 17.6425 22.6994 17.6425 25.0303 17.6425C25.3184 17.6425 25.4952 17.4919 25.5018 17.2562C25.5083 17.0139 25.3315 16.8633 25.0434 16.8568C25.0041 16.8568 24.9649 16.8568 24.919 16.8568C20.3292 16.8568 15.7394 16.8568 11.1561 16.8568C11.0775 16.8568 10.9924 16.8502 10.9138 16.8633C10.7043 16.9092 10.5799 17.0401 10.5799 17.2562C10.5799 17.4591 10.7043 17.5901 10.9007 17.6359C10.9793 17.6556 11.0644 17.6425 11.143 17.6425C13.4412 17.6425 15.7394 17.6425 18.0376 17.6425ZM18.0114 19.2139C18.4631 19.2139 18.9084 19.2139 19.3602 19.2139C21.2393 19.2139 23.125 19.2139 25.0041 19.2139C25.3184 19.2139 25.4952 19.0764 25.5018 18.8276C25.5083 18.5722 25.325 18.4282 24.9976 18.4282C24.9714 18.4282 24.9518 18.4282 24.9256 18.4282C20.3357 18.4282 15.7459 18.4282 11.1626 18.4282C11.0906 18.4282 11.012 18.4216 10.94 18.4282C10.724 18.4544 10.5799 18.6181 10.5799 18.821C10.5799 19.024 10.7305 19.1877 10.9466 19.2073C11.0186 19.2139 11.0906 19.2073 11.1692 19.2073C13.4477 19.2139 15.7263 19.2139 18.0114 19.2139ZM17.0554 14.4997C19.0197 14.4997 20.9839 14.4997 22.9417 14.4997C23.0071 14.4997 23.0726 14.4997 23.1381 14.4997C23.3738 14.4866 23.5309 14.3294 23.5309 14.1134C23.5309 13.8973 23.3738 13.7336 23.1446 13.714C23.0857 13.7074 23.0333 13.714 22.9744 13.714C19.0262 13.714 15.0715 13.714 11.1234 13.714C11.0513 13.714 10.9728 13.7074 10.9007 13.7205C10.6912 13.7663 10.5668 13.8973 10.5668 14.1134C10.5668 14.3163 10.6912 14.4473 10.8876 14.4931C10.9662 14.5128 11.0513 14.4997 11.1299 14.4997C13.1138 14.4997 15.0846 14.4997 17.0554 14.4997ZM19.0459 19.9996C17.0751 19.9996 15.1043 19.9996 13.1335 19.9996C13.0614 19.9996 12.9829 19.993 12.9108 19.9996C12.6948 20.0192 12.5442 20.1764 12.5376 20.3793C12.5311 20.5954 12.6882 20.7591 12.9174 20.7787C12.9829 20.7853 13.0483 20.7787 13.1138 20.7787C17.0489 20.7787 20.9839 20.7787 24.919 20.7787C24.9976 20.7787 25.0827 20.7853 25.1613 20.7722C25.3708 20.7329 25.4952 20.602 25.4952 20.3793C25.4952 20.1633 25.3643 20.0323 25.1547 19.993C25.0827 19.9799 25.0107 19.9865 24.9321 19.9865C22.9744 19.9996 21.0101 19.9996 19.0459 19.9996ZM24.9125 14.4997C25.3119 14.4997 25.4952 14.3818 25.5018 14.1134C25.5083 13.8384 25.3184 13.714 24.8994 13.714C24.5065 13.714 24.3166 13.8449 24.3232 14.1134C24.3297 14.3818 24.5065 14.4997 24.9125 14.4997ZM11.1626 19.9996C11.1037 19.9996 11.0513 19.9996 10.9924 19.9996C10.7436 20.0127 10.5799 20.1633 10.5734 20.3859C10.5734 20.6085 10.7371 20.7722 10.9793 20.7853C11.0382 20.7853 11.0906 20.7853 11.1495 20.7853C11.562 20.7853 11.7519 20.6609 11.7519 20.3859C11.7454 20.1174 11.562 19.9996 11.1626 19.9996Z" fill="#1E62B9"/>
<path d="M9.00164 11.344C9.00164 10.6827 8.99509 10.0345 9.00818 9.37976C9.01473 9.15059 9.15878 9.02619 9.38139 9.00655C9.44687 9 9.51234 9.00655 9.57782 9.00655C16.5248 9 23.4717 9 30.4121 9C30.8966 9 31.0014 9.10476 31.0014 9.58928C31.0014 10.172 31.0014 10.7482 31.0014 11.344C23.6747 11.344 16.3545 11.344 9.00164 11.344ZM23.1247 10.5714C24.6372 10.5714 26.1496 10.5714 27.6621 10.5714C27.7341 10.5714 27.8127 10.578 27.8847 10.5714C28.1008 10.5518 28.2514 10.3881 28.2514 10.1851C28.2514 9.98213 28.1008 9.81844 27.8913 9.79225C27.8324 9.7857 27.78 9.79225 27.721 9.79225C24.6699 9.79225 21.6187 9.79225 18.5676 9.79225C18.5021 9.79225 18.4366 9.7857 18.3712 9.7988C18.1747 9.83808 18.0503 9.96249 18.0438 10.172C18.0372 10.3881 18.1616 10.5256 18.3646 10.5714C18.4432 10.5911 18.5283 10.578 18.6069 10.578C20.1128 10.5714 21.6187 10.5714 23.1247 10.5714ZM10.3701 10.5714C10.429 10.5714 10.4814 10.5714 10.5403 10.5714C10.8022 10.5583 10.9724 10.4012 10.9659 10.1655C10.9594 9.94285 10.7957 9.79225 10.5469 9.7857C10.4552 9.77916 10.3701 9.7857 10.2784 9.7857C9.97067 9.7857 9.79389 9.92975 9.79389 10.1786C9.79389 10.4274 9.97067 10.5714 10.2784 10.5714C10.3046 10.5714 10.3373 10.5714 10.3701 10.5714ZM12.3409 10.5714C12.354 10.5714 12.3736 10.5714 12.3867 10.5714C12.7403 10.5714 12.9236 10.4405 12.9236 10.1786C12.9236 9.91666 12.7403 9.7857 12.3933 9.77916C12.3802 9.77916 12.3605 9.77916 12.3474 9.77916C11.9349 9.77916 11.7451 9.91011 11.7516 10.1786C11.7582 10.4536 11.9415 10.5714 12.3409 10.5714ZM14.3117 9.7857C13.9057 9.7857 13.729 9.90356 13.7159 10.1655C13.7093 10.4405 13.8992 10.5714 14.3117 10.5714C14.7045 10.5714 14.8944 10.447 14.8944 10.1786C14.8944 9.91011 14.7111 9.7857 14.3117 9.7857ZM29.6264 10.5714C30.0258 10.5714 30.2091 10.4536 30.2157 10.1851C30.2222 9.91011 30.0323 9.7857 29.6133 9.7857C29.2204 9.7857 29.0306 9.91666 29.0371 10.1851C29.0437 10.4536 29.2204 10.5714 29.6264 10.5714Z" fill="#1E62B9"/>
<path d="M27.8652 21.1657C27.8652 19.7318 27.8652 18.311 27.8652 16.8771C28.8997 16.8771 29.9343 16.8771 30.9884 16.8771C30.9884 18.2979 30.9884 19.7253 30.9884 21.1657C29.9604 21.1657 28.9259 21.1657 27.8652 21.1657Z" fill="#1E62B9"/>
<path d="M27.8711 21.9714C28.9122 21.9714 29.9401 21.9714 30.9877 21.9714C30.9877 23.4053 30.9877 24.8327 30.9877 26.2732C29.9598 26.2732 28.9187 26.2732 27.8711 26.2732C27.8711 24.8458 27.8711 23.4184 27.8711 21.9714Z" fill="#1E62B9"/>
<path d="M30.9943 12.1556C30.9943 13.4586 30.9943 14.7485 30.9943 16.058C29.9532 16.058 28.9187 16.058 27.8711 16.058C27.8711 14.7681 27.8711 13.4651 27.8711 12.1556C28.9056 12.1556 29.9401 12.1556 30.9943 12.1556Z" fill="#1E62B9"/>
<path d="M27.8711 27.0778C28.9122 27.0778 29.9401 27.0778 30.9877 27.0778C30.9943 27.1433 31.0008 27.2088 31.0008 27.2677C31.0008 28.3415 31.0008 29.4087 31.0008 30.4825C31.0008 30.8688 30.8699 30.9998 30.4836 30.9998C29.6193 30.9998 28.7485 30.9998 27.8711 30.9998C27.8711 29.6903 27.8711 28.3939 27.8711 27.0778Z" fill="#1E62B9"/>
<path d="M11.3716 23.1495C15.8174 23.1495 20.25 23.1495 24.7024 23.1495C24.7024 24.9763 24.7024 26.7965 24.7024 28.6298C20.2631 28.6298 15.8239 28.6298 11.3716 28.6298C11.3716 26.8096 11.3716 24.9894 11.3716 23.1495Z" fill="#1E62B9"/>
</svg>
