<svg width="40" height="40" viewBox="0 0 40 40" fill="none" xmlns="http://www.w3.org/2000/svg">
<rect width="40" height="40" rx="4" fill="#1E62B9" fill-opacity="0.1"/>
<path fill-rule="evenodd" clip-rule="evenodd" d="M18.9755 12.4243H27.5607C29.2176 12.4243 30.5607 13.7675 30.5607 15.4243V20.0003V22.1215L30.435 22.0903C29.7142 21.9112 28.9633 21.8884 28.2329 22.0235L28.0921 22.0496C28.0104 22.0647 27.9301 22.0868 27.8521 22.1156L27.3365 22.3063C26.1153 22.7579 25.2063 23.798 24.9222 25.0687L24.8729 25.2893C24.8032 25.6008 24.7681 25.9191 24.7681 26.2383C24.7681 26.5235 24.7961 26.808 24.8518 27.0877L24.9491 27.5762H19.2804H11C9.34314 27.5762 8 26.2331 8 24.5762V13C8 11.3431 9.34315 10 11 10H16.2316L18.9755 12.4243ZM17.3154 15.9976C17.3101 16.003 17.3049 16.0084 17.2943 16.0353C18.2037 17.6462 19.1132 19.2516 20.0332 20.8517C20.0649 20.911 20.1707 20.9594 20.2447 20.9594C20.9746 20.9675 21.7074 20.9665 22.4387 20.9655H22.4392H22.4397C22.6829 20.9652 22.926 20.9648 23.1687 20.9648C23.2038 20.9648 23.2424 20.9611 23.2878 20.9568H23.2878L23.3168 20.9541C22.328 19.1439 21.3498 17.3606 20.361 15.5774C20.3293 15.5181 20.2183 15.475 20.1443 15.475C19.945 15.4732 19.7457 15.4762 19.5466 15.4792H19.5466C19.1488 15.4852 18.7518 15.4912 18.3571 15.4588C17.8706 15.4211 17.5375 15.5666 17.3154 15.9976ZM17.0726 16.4658L17.2563 16.8011L17.2565 16.8015C17.3694 17.0074 17.4785 17.2065 17.5854 17.4032C17.6868 17.5884 17.7876 17.7741 17.8885 17.96C18.1195 18.3851 18.3509 18.8114 18.5901 19.235C18.6747 19.3804 18.6641 19.4936 18.5848 19.639C17.9058 20.8898 17.2345 22.1483 16.5644 23.4046L16.2107 24.0675C16.1314 24.2184 16.0415 24.2561 15.8776 24.2776C15.555 24.3154 15.3805 24.1861 15.2219 23.9059C15.0126 23.5318 14.7895 23.1678 14.5659 22.8028C14.4223 22.5684 14.2785 22.3337 14.138 22.0957C14.101 22.0311 14.0798 21.9125 14.1115 21.8533C14.62 20.9264 15.1299 19.9995 15.6427 19.0673L15.643 19.0667C16.1166 18.2056 16.5928 17.3401 17.0726 16.4658ZM23.2685 21.5201H18.1502C17.9297 21.9198 17.7102 22.3184 17.4913 22.716C17.2115 23.2242 16.9326 23.7307 16.6538 24.2354C16.6602 24.242 16.6649 24.2477 16.6686 24.2521C16.674 24.2586 16.6771 24.2624 16.6802 24.2624C17.3235 24.2624 17.9669 24.263 18.6102 24.2636C19.8968 24.2648 21.1834 24.266 22.4701 24.2624C22.5282 24.2624 22.6023 24.2139 22.634 24.1654L22.6342 24.165C23.0571 23.5025 23.4801 22.84 23.903 22.172C23.9294 22.1289 23.9559 22.0589 23.94 22.0212C23.9239 21.9903 23.9081 21.9587 23.8923 21.9269C23.825 21.792 23.7562 21.6538 23.6492 21.5579C23.5887 21.5044 23.4759 21.5106 23.3671 21.5165C23.3333 21.5183 23.2998 21.5201 23.2685 21.5201Z" fill="#1E62B9"/>
<path fill-rule="evenodd" clip-rule="evenodd" d="M29.3406 30.0005C31.3612 30.0005 32.9991 28.3724 32.9991 26.364C32.9991 24.3556 31.3612 22.7275 29.3406 22.7275C27.3201 22.7275 25.6821 24.3556 25.6821 26.364C25.6821 28.3724 27.3201 30.0005 29.3406 30.0005ZM26.8145 27.0436V27.318C26.825 27.3608 26.8341 27.4035 26.8419 27.4463C26.9486 27.8655 27.1829 28.162 27.5773 28.2999C27.6502 28.3248 27.7296 28.3386 27.8064 28.3399C28.0871 28.3429 28.3679 28.3423 28.6487 28.3418C28.761 28.3415 28.8733 28.3413 28.9856 28.3413C28.9942 28.3413 29.002 28.3404 29.011 28.3393C29.0129 28.339 29.0148 28.3388 29.0168 28.3386V27.1705H28.845C28.8251 27.1705 28.8051 27.1703 28.7852 27.1701C28.7452 27.1698 28.7053 27.1695 28.6654 27.1705C28.616 27.1718 28.5782 27.1511 28.5561 27.1043C28.5326 27.0574 28.5444 27.0132 28.573 26.9719C28.6251 26.896 28.6768 26.8198 28.7285 26.7436C28.7803 26.6674 28.832 26.5912 28.8841 26.5154L29.2511 25.9775C29.3201 25.8769 29.3995 25.8769 29.4672 25.9761C29.5791 26.1396 29.6907 26.3033 29.8023 26.4671C29.914 26.6309 30.0256 26.7946 30.1375 26.9581C30.1701 27.005 30.1909 27.0519 30.1623 27.1084C30.1388 27.1539 30.1011 27.1718 30.0516 27.1718H29.7054V28.3427H29.7588H30.7284C31.0395 28.3413 31.3025 28.2172 31.525 27.9938C31.7281 27.7897 31.8504 27.5373 31.8947 27.2435C31.8964 27.2319 31.9002 27.2209 31.9042 27.2097C31.9063 27.2036 31.9085 27.1974 31.9103 27.1911V26.9167C31.9061 26.8974 31.9024 26.8781 31.8986 26.8588C31.893 26.8298 31.8874 26.8009 31.8804 26.7719C31.7671 26.2892 31.4964 25.9541 31.0447 25.8038C30.951 25.772 30.9185 25.7362 30.8964 25.6314C30.7662 25.0039 30.4017 24.6053 29.8134 24.4509C29.216 24.295 28.5535 24.6219 28.2671 25.2052L28.2671 25.2052C28.2567 25.2273 28.2463 25.2494 28.2385 25.2631C28.213 25.2596 28.1878 25.2553 28.1628 25.2511C28.1012 25.2406 28.041 25.2304 27.9808 25.2314C27.5148 25.2356 27.1816 25.7169 27.3157 26.1899C27.3248 26.2216 27.3248 26.2396 27.2961 26.2589C27.0423 26.434 26.8861 26.6809 26.8315 26.9981C26.8298 27.0075 26.8257 27.017 26.8215 27.0265C26.819 27.0322 26.8165 27.0379 26.8145 27.0436Z" fill="#1E62B9"/>
</svg>
