<svg width="40" height="40" viewBox="0 0 40 40" fill="none" xmlns="http://www.w3.org/2000/svg">
<rect width="40" height="40" rx="4" fill="#1E62B9" fill-opacity="0.1"/>
<g clip-path="url(#clip0_1061_8127)">
<path d="M9.85934 27.8333L10.944 29.7067C11.1693 30.1011 11.4933 30.4111 11.8736 30.6364C12.9631 29.2536 13.7212 28.1924 14.1486 27.453C14.5821 26.7026 15.115 25.5287 15.7473 23.9315C14.0434 23.7072 12.7522 23.5951 11.8737 23.5951C11.0305 23.5951 9.73934 23.7072 8 23.9315C8 24.3682 8.11269 24.8048 8.33807 25.1993L9.85934 27.8333Z" fill="#528DDA"/>
<path d="M28.7203 30.6364C29.1008 30.4111 29.4247 30.1011 29.65 29.7068L30.1008 28.9321L32.256 25.1993C32.4772 24.8134 32.5937 24.3763 32.594 23.9315C30.8446 23.7072 29.5558 23.5951 28.7275 23.5951C27.8373 23.5951 26.5484 23.7072 24.8608 23.9315C25.4856 25.5374 26.0115 26.7113 26.4385 27.453C26.8692 28.2013 27.6298 29.2624 28.7203 30.6364Z" fill="#528DDA"/>
<path d="M20.2975 16.043C21.5579 14.5208 22.4266 13.3469 22.9034 12.5215C23.2873 11.8569 23.71 10.7957 24.1711 9.33807C23.7908 9.11269 23.3541 9 22.9034 9H17.6916C17.2408 9 16.8043 9.12681 16.4238 9.33807C17.0104 11.0099 17.5083 12.1997 17.9171 12.9074C18.3691 13.6897 19.1625 14.7348 20.2975 16.043Z" fill="#528DDA"/>
<path d="M24.8466 23.9308H15.7471L11.8735 30.6357C12.2538 30.8611 12.6904 30.9738 13.1412 30.9738H27.4525C27.9033 30.9738 28.34 30.847 28.7203 30.6356L24.8466 23.9308Z" fill="#1E62B9"/>
<path d="M20.297 16.0429L16.4235 9.33813C16.0431 9.56351 15.7191 9.87334 15.4937 10.2678L8.33807 22.6634C8.11683 23.0493 8.00029 23.4863 8 23.9311H15.7473L20.297 16.0429Z" fill="#1E62B9"/>
<path d="M28.678 16.4659L25.1001 10.268C24.8748 9.87358 24.5508 9.56376 24.1704 9.33838L20.2969 16.0433L24.8466 23.9315H32.5798C32.5798 23.4948 32.4671 23.0582 32.2417 22.6637L28.678 16.4659Z" fill="#1E62B9"/>
</g>
<defs>
<clipPath id="clip0_1061_8127">
<rect width="24.5939" height="22" fill="white" transform="translate(8 9)"/>
</clipPath>
</defs>
</svg>
