<svg width="40" height="40" viewBox="0 0 40 40" fill="none" xmlns="http://www.w3.org/2000/svg">
<rect width="40" height="40" rx="4" fill="#1E62B9" fill-opacity="0.1"/>
<g clip-path="url(#clip0_1061_8663)">
<path opacity="0.502" d="M23 29H26.0001V31.9997H23V29Z" fill="#1E62B9"/>
<path opacity="0.702" d="M19.9997 29H22.9994V31.9997H19.9997V29ZM17 29H19.9997V31.9997H17V29Z" fill="#1E62B9"/>
<path opacity="0.502" d="M14 29H17.0001V31.9997H14V29Z" fill="#1E62B9"/>
<path opacity="0.702" d="M26 26.0002H29.0001V29.0003H26V26.0002Z" fill="#1E62B9"/>
<path opacity="0.8" d="M23 26H26.0001V29.0001H23V26Z" fill="#1E62B9"/>
<path d="M19.9997 26H22.9994V29.0001H19.9997V26ZM17 26H19.9997V29.0001H17V26Z" fill="#1E62B9"/>
<path opacity="0.8" d="M14 26.0002H17.0001V29.0003H14V26.0002Z" fill="#1E62B9"/>
<path opacity="0.702" d="M11 26H14.0001V29.0001H11V26Z" fill="#1E62B9"/>
<path opacity="0.502" d="M29 23H31.9997V26.0001H29V23Z" fill="#1E62B9"/>
<path opacity="0.8" d="M26 23H29.0001V26.0001H26V23Z" fill="#1E62B9"/>
<path d="M22.9994 23H25.9995V26.0001H22.9994V23ZM19.9997 23H22.9994V26.0001H19.9997V23ZM17 23H19.9997V26.0001H17V23Z" fill="#1E62B9"/>
<path d="M14 23H17.0001V26.0001H14V23Z" fill="#1E62B9"/>
<path opacity="0.8" d="M11 23H14.0001V26.0001H11V23Z" fill="#1E62B9"/>
<path opacity="0.502" d="M8 23H10.9997V26.0001H8V23Z" fill="#1E62B9"/>
<path opacity="0.702" d="M29 20H31.9997V22.9997H29V20Z" fill="#1E62B9"/>
<path d="M25.9999 20H29V22.9997H25.9999V20ZM22.9994 20H25.9995V22.9997H22.9994V20ZM19.9997 20H22.9994V22.9997H19.9997V20ZM17 20H19.9997V22.9997H17V20Z" fill="#1E62B9"/>
<path d="M14.0005 20H17.0006V22.9997H14.0005V20ZM11 20H14.0001V22.9997H11V20Z" fill="#1E62B9"/>
<path opacity="0.702" d="M8 20H10.9997V22.9997H8V20Z" fill="#1E62B9"/>
<path opacity="0.702" d="M29 17H31.9997V19.9997H29V17Z" fill="#1E62B9"/>
<path d="M25.9999 17H29V19.9997H25.9999V17ZM22.9994 17H25.9995V19.9997H22.9994V17ZM19.9997 17H22.9994V19.9997H19.9997V17ZM17 17H19.9997V19.9997H17V17Z" fill="#1E62B9"/>
<path d="M14.0005 17H17.0006V19.9997H14.0005V17ZM11 17H14.0001V19.9997H11V17Z" fill="#1E62B9"/>
<path opacity="0.702" d="M8 17H10.9997V19.9997H8V17Z" fill="#1E62B9"/>
<path opacity="0.502" d="M29 14.0002H31.9997V17.0003H29V14.0002Z" fill="#1E62B9"/>
<path opacity="0.8" d="M26 14.0002H29.0001V17.0003H26V14.0002Z" fill="#1E62B9"/>
<path d="M22.9994 14.0002H25.9995V17.0003H22.9994V14.0002ZM19.9997 14.0002H22.9994V17.0003H19.9997V14.0002ZM17 14.0002H19.9997V17.0003H17V14.0002Z" fill="#1E62B9"/>
<path d="M14 14.0002H17.0001V17.0003H14V14.0002Z" fill="#1E62B9"/>
<path opacity="0.8" d="M11 14.0002H14.0001V17.0003H11V14.0002Z" fill="#1E62B9"/>
<path opacity="0.502" d="M8 14.0002H10.9997V17.0003H8V14.0002Z" fill="#1E62B9"/>
<path opacity="0.702" d="M26 11H29.0001V14.0001H26V11Z" fill="#1E62B9"/>
<path opacity="0.8" d="M23 11H26.0001V14.0001H23V11Z" fill="#1E62B9"/>
<path d="M19.9997 11H22.9994V14.0001H19.9997V11ZM17 11H19.9997V14.0001H17V11Z" fill="#1E62B9"/>
<path opacity="0.8" d="M14 11H17.0001V14.0001H14V11Z" fill="#1E62B9"/>
<path opacity="0.702" d="M11 11H14.0001V14.0001H11V11Z" fill="#1E62B9"/>
<path opacity="0.502" d="M23 8H26.0001V10.9997H23V8Z" fill="#1E62B9"/>
<path opacity="0.702" d="M19.9997 8H22.9994V10.9997H19.9997V8ZM17 8H19.9997V10.9997H17V8Z" fill="#1E62B9"/>
<path opacity="0.502" d="M14 8H17.0001V10.9997H14V8Z" fill="#1E62B9"/>
<path d="M15.8986 19.053L16.7345 17.1821C17.0393 16.7026 16.9989 16.115 16.6656 15.7818C16.6544 15.7705 16.6432 15.7597 16.6312 15.7493C16.6196 15.7389 16.6075 15.7285 16.5955 15.7189C16.5709 15.6992 16.5453 15.6808 16.5186 15.664C16.4617 15.629 16.4011 15.6004 16.338 15.5787C16.2747 15.5567 16.2094 15.5418 16.1429 15.5338C16.0764 15.5262 16.0091 15.5258 15.9426 15.5326C15.8761 15.5394 15.8104 15.553 15.7472 15.5743C15.6755 15.5963 15.6058 15.6251 15.5393 15.6596C15.4729 15.6944 15.4096 15.7348 15.3502 15.7806C15.2909 15.8267 15.2357 15.8779 15.1852 15.9336C15.135 15.9893 15.0899 16.0494 15.0502 16.113C15.011 16.1767 13.9058 18.7831 13.4801 19.9831C13.0543 21.1831 13.2241 23.3841 14.8664 25.0296C16.6079 26.7712 19.1294 27.1689 20.7376 25.9621C20.7544 25.9537 20.7712 25.9444 20.7872 25.9352C20.8037 25.926 20.8197 25.916 20.8353 25.9056C20.8513 25.8956 20.8666 25.8848 20.8818 25.8736C20.897 25.8627 20.9118 25.8511 20.9262 25.8391L25.8822 21.7006C26.1229 21.5016 26.479 21.0918 26.1594 20.624C25.8474 20.1678 25.2562 20.4782 25.015 20.6324L22.1627 22.7064C22.1495 22.7172 22.1339 22.7256 22.1175 22.7305C22.1006 22.7353 22.0834 22.7369 22.0662 22.7349C22.049 22.7329 22.0321 22.7273 22.0173 22.7188C22.0021 22.7104 21.9889 22.6988 21.9785 22.6848C21.906 22.5959 21.8932 22.3599 22.0069 22.2666L26.3793 18.5559C26.757 18.2159 26.8095 17.7212 26.5035 17.3823C26.2051 17.0503 25.7308 17.0603 25.3499 17.4036L21.4133 20.481C21.3949 20.4962 21.3736 20.5074 21.3508 20.5138C21.328 20.5202 21.304 20.5222 21.2803 20.519C21.2567 20.5158 21.2343 20.5082 21.2138 20.4958C21.1934 20.4838 21.1754 20.4678 21.1618 20.4485C21.0841 20.3612 21.054 20.2126 21.1417 20.1253L25.5998 15.799C25.6835 15.7209 25.7512 15.6271 25.7985 15.5234C25.8458 15.4193 25.8726 15.3067 25.8766 15.1926C25.8806 15.0784 25.8622 14.9642 25.8221 14.8573C25.7821 14.7499 25.7216 14.6518 25.6439 14.5681C25.605 14.5268 25.5618 14.49 25.5157 14.4579C25.4693 14.4257 25.4198 14.3982 25.3679 14.3758C25.3158 14.3538 25.2618 14.337 25.2065 14.3254C25.1512 14.3142 25.0947 14.3085 25.0383 14.3089C24.9806 14.3081 24.9229 14.313 24.8664 14.3238C24.7529 14.3446 24.6445 14.3876 24.5476 14.4503C24.4991 14.4816 24.4539 14.5176 24.4122 14.5577L19.8568 18.8367C19.7478 18.9457 19.5347 18.8367 19.5087 18.7094C19.5063 18.6981 19.5055 18.6865 19.5059 18.6749C19.5063 18.6633 19.5083 18.6517 19.5119 18.6409C19.5151 18.6297 19.5199 18.6188 19.5259 18.6092C19.5319 18.5992 19.5391 18.59 19.5476 18.582L23.0343 14.6118C23.1188 14.5333 23.1865 14.4385 23.2334 14.3332C23.2804 14.2279 23.3056 14.1142 23.3075 13.9989C23.3119 13.7662 23.2214 13.5415 23.0571 13.3769C22.8925 13.2118 22.6682 13.1205 22.4355 13.1241C22.2028 13.1277 21.9813 13.2255 21.8219 13.3953L16.5342 19.2413C16.3448 19.4307 16.0656 19.4404 15.9326 19.3302C15.9122 19.3142 15.8954 19.2942 15.8829 19.2717C15.8701 19.2493 15.8621 19.2245 15.8589 19.1988C15.8557 19.1728 15.8577 19.1468 15.8645 19.1219C15.8713 19.0971 15.8829 19.0735 15.8986 19.053Z" fill="white"/>
</g>
<defs>
<clipPath id="clip0_1061_8663">
<rect width="24" height="24" fill="white" transform="translate(8 8)"/>
</clipPath>
</defs>
</svg>
