<svg width="40" height="40" viewBox="0 0 40 40" fill="none" xmlns="http://www.w3.org/2000/svg">
<rect width="40" height="40" rx="4" fill="#1E62B9" fill-opacity="0.1"/>
<g clip-path="url(#clip0_1061_8395)">
<path d="M31.9994 20.3747C31.5682 21.481 30.6557 22.2122 29.8557 23.0122C28.2244 24.6372 26.4119 26.0122 24.2869 26.9497C22.9307 27.5497 21.5182 27.9122 20.0307 27.9185C18.4182 27.9247 16.9057 27.506 15.4307 26.8185C15.4807 26.7622 15.5244 26.7122 15.5744 26.6622C16.2182 26.0122 16.8682 25.3685 17.5119 24.7185C17.6057 24.6247 17.6744 24.5997 17.8057 24.6622C20.9432 26.1122 24.5432 24.2122 25.0994 20.7997C25.2682 19.7685 25.1182 18.781 24.6869 17.831C24.6619 17.7747 24.6369 17.7185 24.6119 17.6622C24.6119 17.656 24.6119 17.6497 24.6119 17.681C25.5557 16.7372 26.4744 15.8185 27.4369 14.8497C28.1557 15.4747 28.9119 16.0872 29.6182 16.7622C30.2744 17.3872 30.8932 18.0497 31.4869 18.731C31.7182 18.9935 31.8369 19.3497 32.0119 19.6685C31.9994 19.906 31.9994 20.1435 31.9994 20.3747Z" fill="#1E62B9"/>
<path d="M8 19.625C8.45 18.5188 9.3625 17.7875 10.1688 16.975C11.6688 15.4688 13.35 14.1938 15.275 13.2625C16.7 12.5688 18.1938 12.1375 19.7875 12.1C21.4625 12.0625 23.0375 12.475 24.5312 13.1688C23.8 13.9063 23.0687 14.6375 22.3375 15.375C20.075 14.4188 17.9937 14.7 16.2312 16.5063C14.8375 17.9313 14.3562 20.2313 15.3875 22.3313C14.4562 23.2625 13.5312 24.1875 12.6 25.1188C11.5375 24.3375 10.55 23.4438 9.61875 22.4875C9.35 22.2063 9.0875 21.9125 8.81875 21.6313C8.46875 21.2563 8.1625 20.8625 8 20.375C8 20.125 8 19.875 8 19.625Z" fill="#1E62B9"/>
<path d="M30.3623 10.6188C30.3123 10.7188 30.2373 10.9063 30.1373 11.0875C30.0936 11.1688 30.0123 11.225 29.9436 11.2938C23.7436 17.4938 17.5373 23.7 11.3373 29.9C11.2436 29.9938 11.1498 30.0938 11.0498 30.175C10.6873 30.4563 10.1936 30.4188 9.88107 30.0875C9.56857 29.7563 9.55607 29.2625 9.85607 28.9188C9.89982 28.8688 9.94357 28.8313 9.98732 28.7875C16.2498 22.5125 22.5123 16.25 28.7811 9.98754C29.1873 9.58129 29.6748 9.52504 30.0498 9.85004C30.2498 10.025 30.3498 10.2438 30.3623 10.6188Z" fill="#1E62B9"/>
<path d="M21.2563 16.4878C19.6625 18.0816 18.0813 19.6628 16.5 21.2441C16.05 20.3753 16.1625 18.7316 17.125 17.5941C18.2125 16.2878 19.9875 15.9691 21.2563 16.4878Z" fill="#1E62B9"/>
<path d="M23.5318 18.7872C23.9756 19.8122 23.8006 21.4497 22.7256 22.581C21.7006 23.656 20.0443 24.0497 18.7881 23.531C20.3631 21.9497 21.9506 20.3622 23.5318 18.7872Z" fill="#1E62B9"/>
</g>
<defs>
<clipPath id="clip0_1061_8395">
<rect width="24" height="24" fill="white" transform="translate(8 8)"/>
</clipPath>
</defs>
</svg>
