<svg width="40" height="40" viewBox="0 0 40 40" fill="none" xmlns="http://www.w3.org/2000/svg">
<rect width="40" height="40" rx="4" fill="#1E62B9" fill-opacity="0.1"/>
<g clip-path="url(#clip0_1060_6720)">
<path d="M24.9685 32.0009C21.6248 32.0009 18.281 32.0009 14.9373 32.0009C14.906 31.9821 14.881 31.9571 14.8498 31.9446C14.2873 31.7884 13.8623 31.4571 13.5685 30.9571C13.1435 30.2321 12.681 29.5259 12.2873 28.7821C10.9998 26.3884 9.98101 23.8946 9.66226 21.1634C9.49976 19.7634 9.56851 18.3759 10.0435 17.0259C10.206 16.5571 10.3935 16.5009 10.831 16.7384C12.581 17.6946 14.3185 17.6509 16.0248 16.6196C16.331 16.4384 16.4185 16.4321 16.6935 16.6446C17.6373 17.3696 18.706 17.7259 19.8873 17.7446C21.1623 17.7696 22.3185 17.4071 23.331 16.6134C23.531 16.4571 23.7185 16.4446 23.9248 16.5884C24.0623 16.6884 24.2123 16.7759 24.3623 16.8509C25.9873 17.6384 27.5935 17.6134 29.1748 16.7259C29.5935 16.4946 29.806 16.5571 29.9373 17.0259C30.081 17.5134 30.2185 18.0009 30.2935 18.5009C30.5373 20.0946 30.3435 21.6634 29.9498 23.2071C29.2185 26.0696 27.906 28.6696 26.306 31.1321C26.0435 31.5384 25.656 31.8009 25.1873 31.9321C25.1185 31.9509 25.0435 31.9759 24.9685 32.0009ZM17.556 24.2071C17.556 24.7821 17.556 25.3509 17.556 25.9196C17.556 26.3821 17.7685 26.7259 18.156 26.9634C18.556 27.2071 18.9623 27.4321 19.3685 27.6634C19.7873 27.9009 20.2123 27.9009 20.6373 27.6571C21.0248 27.4384 21.406 27.2134 21.7935 26.9946C22.2373 26.7384 22.456 26.3571 22.4498 25.8384C22.4435 25.2946 22.4498 24.7446 22.4498 24.2071C22.9185 23.9384 23.3935 23.6696 23.8623 23.3946C24.2935 23.1446 24.506 22.7696 24.506 22.2759C24.506 21.8321 24.506 21.3884 24.506 20.9384C24.506 20.4446 24.2935 20.0696 23.8623 19.8196C23.4873 19.6009 23.106 19.3821 22.731 19.1634C22.2685 18.8946 21.8185 18.9009 21.3623 19.1759C20.9123 19.4509 20.4498 19.7071 20.006 19.9634C19.4998 19.6759 19.0123 19.3821 18.5185 19.1071C18.1373 18.8946 17.7373 18.9134 17.356 19.1259C16.9435 19.3571 16.531 19.5946 16.1248 19.8384C15.7123 20.0821 15.5123 20.4446 15.506 20.9196C15.506 21.3571 15.5123 21.7946 15.506 22.2321C15.4998 22.7696 15.731 23.1571 16.1935 23.4196C16.6498 23.6821 17.0998 23.9509 17.556 24.2071Z" fill="#1E62B9"/>
<path d="M26.0498 8.00039C26.1248 8.02539 26.1998 8.05039 26.281 8.07539C26.9373 8.27539 27.3873 8.87539 27.406 9.58164C27.4123 9.83164 27.406 10.0754 27.406 10.3441C27.631 10.3441 27.8435 10.3441 28.0498 10.3441C28.5185 10.3441 28.7185 10.4629 28.7185 10.7379C28.7248 11.0254 28.5248 11.1441 28.0373 11.1441C25.406 11.1441 22.7748 11.1441 20.1435 11.1441C17.3873 11.1441 14.631 11.1441 11.8748 11.1441C11.4748 11.1441 11.281 11.0066 11.2873 10.7379C11.2935 10.4754 11.4873 10.3441 11.8685 10.3441C12.0998 10.3441 12.3373 10.3441 12.5998 10.3441C12.5998 10.1379 12.5998 9.93789 12.5998 9.73789C12.5998 8.86914 12.9748 8.33789 13.7935 8.04414C13.8185 8.03789 13.8373 8.01289 13.8623 7.99414C17.9248 8.00039 21.9873 8.00039 26.0498 8.00039Z" fill="#1E62B9"/>
<path d="M16.412 15.2129C15.6683 16.0754 14.7245 16.5004 13.612 16.6066C11.9495 16.7566 10.237 15.7316 9.72454 14.2629C9.64329 14.0254 9.67454 13.8504 9.84329 13.6691C10.2808 13.1941 10.7183 12.7129 11.1433 12.2254C11.312 12.0316 11.4933 11.9504 11.7495 11.9504C14.4058 11.9566 17.062 11.9566 19.7183 11.9566C22.5558 11.9566 25.387 11.9566 28.2245 11.9504C28.4995 11.9504 28.6933 12.0316 28.8745 12.2441C29.2933 12.7316 29.7245 13.2066 30.1558 13.6754C30.3308 13.8691 30.362 14.0566 30.2683 14.2941C29.762 15.5691 28.787 16.2816 27.4808 16.5379C25.9558 16.8379 24.6433 16.3941 23.5808 15.2379C22.6745 16.3941 21.462 16.9566 20.012 16.9566C18.5558 16.9441 17.3433 16.3941 16.412 15.2129Z" fill="#1E62B9"/>
<path d="M20.3995 21.6008C20.3995 21.3758 20.3682 21.1446 20.412 20.9258C20.437 20.7821 20.5307 20.6133 20.6432 20.5321C21.0182 20.2821 21.4245 20.0758 21.812 19.8446C21.9682 19.7508 22.1182 19.7508 22.2745 19.8383C22.6745 20.0696 23.0807 20.2821 23.462 20.5321C23.5745 20.6071 23.6745 20.7883 23.687 20.9321C23.712 21.3821 23.7182 21.8383 23.687 22.2883C23.6807 22.4258 23.5745 22.6071 23.462 22.6821C23.0807 22.9321 22.6682 23.1508 22.2745 23.3758C22.1182 23.4696 21.9682 23.4633 21.812 23.3696C21.4245 23.1446 21.0182 22.9321 20.6432 22.6821C20.5245 22.6071 20.437 22.4321 20.412 22.2883C20.3745 22.0696 20.3995 21.8321 20.3995 21.6008Z" fill="#1E62B9"/>
<path d="M16.2998 21.5938C16.2998 21.375 16.2998 21.1563 16.2998 20.9375C16.2998 20.75 16.3811 20.6125 16.5436 20.5188C16.9311 20.3 17.3123 20.0813 17.6998 19.8563C17.8748 19.7563 18.0311 19.7563 18.2061 19.8563C18.5873 20.0813 18.9748 20.3 19.3623 20.5188C19.5248 20.6125 19.6061 20.75 19.6061 20.9375C19.6061 21.3875 19.6248 21.8438 19.5936 22.2938C19.5873 22.4313 19.4811 22.6125 19.3686 22.6875C18.9936 22.9375 18.5936 23.1438 18.1998 23.375C18.0373 23.4688 17.8811 23.4688 17.7123 23.375C17.3311 23.15 16.9436 22.9312 16.5561 22.7125C16.3873 22.6125 16.2998 22.475 16.2998 22.275C16.2998 22.0437 16.2998 21.8188 16.2998 21.5938Z" fill="#1E62B9"/>
<path d="M18.3555 25.1696C18.3555 24.9509 18.3555 24.7321 18.3555 24.5134C18.3555 24.3321 18.4305 24.2009 18.5867 24.1134C18.9805 23.8884 19.3617 23.6446 19.7617 23.4446C19.8867 23.3821 20.093 23.3759 20.218 23.4321C20.6305 23.6384 21.018 23.8821 21.418 24.1134C21.5742 24.2009 21.6492 24.3321 21.6492 24.5196C21.643 24.9696 21.643 25.4259 21.6492 25.8759C21.6492 26.0696 21.568 26.2009 21.4055 26.2946C21.018 26.5134 20.6367 26.7384 20.2555 26.9634C20.0867 27.0634 19.9242 27.0634 19.7492 26.9571C19.3742 26.7321 18.9992 26.5196 18.618 26.3071C18.4367 26.2071 18.3492 26.0571 18.3617 25.8509C18.3617 25.6259 18.3555 25.3946 18.3555 25.1696Z" fill="#1E62B9"/>
</g>
<defs>
<clipPath id="clip0_1060_6720">
<rect width="24" height="24" fill="white" transform="translate(8 8)"/>
</clipPath>
</defs>
</svg>
