<svg width="40" height="40" viewBox="0 0 40 40" fill="none" xmlns="http://www.w3.org/2000/svg">
<rect width="40" height="40" rx="4" fill="#1E62B9" fill-opacity="0.1"/>
<path d="M8.125 21.1784C8.125 20.0079 8.125 18.6954 8.125 17.5249C8.125 15.3966 8.125 13.2595 8.125 11.1312C8.125 9.85426 9.19292 9 10.4745 9C16.8822 9 23.1832 9 29.591 9C30.8725 9 31.8329 10.0395 31.8329 11.21C31.8329 14.8281 31.8337 18.258 31.8337 21.876V21.9903C31.5133 21.7952 31.6307 21.8866 31.5133 21.7696C29.3774 19.6413 27.3483 17.6195 25.2123 15.4912C24.4648 14.7463 23.6104 14.7463 22.8628 15.4912C21.0473 17.1938 19.3385 19.0029 17.523 20.7055C17.4162 20.8119 17.3094 20.9183 17.2026 21.1311C16.0279 19.9606 14.9599 18.8965 13.8919 17.8323C13.0376 16.981 12.29 16.981 11.5424 17.8323C10.4745 18.8965 9.68046 20.0522 8.44534 20.9183C8.125 21.1429 8.41363 20.9183 8.125 21.1784C8.2318 21.1784 8.2318 21.1784 8.125 21.1784ZM18.6978 13.5758C18.6978 12.4052 17.7366 11.3411 16.5618 11.3411C15.3871 11.3411 14.3191 12.2988 14.3191 13.4694C14.3191 14.7463 15.2803 15.704 16.5618 15.704C17.6298 15.8105 18.6978 14.7463 18.6978 13.5758Z" fill="#1E62B9"/>
<path d="M21.3495 26.9564C21.1359 26.9564 20.8155 26.9564 20.6019 26.9564C17.1845 26.9564 13.8738 26.9564 10.4563 26.9564C9.06796 26.9564 8 25.9987 8 24.5089C8 23.4447 8.21359 22.6998 9.06796 21.9549C10.2427 20.8908 11.3107 19.8267 12.3786 18.7625C12.5922 18.5497 12.699 18.5497 12.9126 18.7625C13.9806 19.8267 15.1553 20.9972 16.2233 22.0614C15.6893 22.5934 15.2621 23.0191 14.7282 23.5511C14.6214 23.6576 14.5146 23.8704 14.5146 24.0832C14.5146 24.296 14.6214 24.5089 14.835 24.6153C14.9417 24.7217 15.2621 24.6153 15.4757 24.6153C15.5825 24.6153 15.6893 24.4024 15.7961 24.4024C18.466 21.8485 21.0291 19.1882 23.699 16.6343C24.0194 16.315 24.0194 16.315 24.3398 16.6343C25.7282 18.0176 27.0097 19.2946 28.3981 20.678C28.5049 20.7844 28.5049 20.8908 28.6117 20.9972C26.6893 20.5716 24.8738 20.9972 23.3786 22.2742C21.8835 23.3383 21.2427 25.0409 21.3495 26.9564Z" fill="#1E62B9"/>
<path d="M31.8153 26.4243C31.8153 28.9782 29.7862 31.0001 27.2231 31.0001C24.66 31.0001 22.6309 28.8718 22.6309 26.4243C22.6309 23.8704 24.66 21.8485 27.2231 21.8485C29.6794 21.8485 31.8153 23.8704 31.8153 26.4243ZM27.7571 26.2115C27.9707 26.4243 28.0775 26.6371 28.2911 26.7435C28.6114 27.0628 28.9318 27.0628 29.1454 26.7435C29.359 26.5307 29.359 26.105 29.0386 25.8922C28.5046 25.3602 28.0775 24.9345 27.5435 24.4024C27.2231 24.0832 26.9027 24.0832 26.5823 24.4024C26.0483 24.9345 25.5144 25.3602 25.0872 25.8922C24.7668 26.2115 24.7668 26.5307 25.0872 26.7435C25.3008 26.9564 25.7279 26.9564 25.9415 26.7435C26.1551 26.6371 26.2619 26.4243 26.4755 26.2115C26.4755 26.8499 26.4755 27.2756 26.4755 27.8077C26.4755 28.2333 26.6891 28.5526 27.1163 28.5526C27.4367 28.5526 27.7571 28.2333 27.7571 27.8077C27.7571 27.382 27.7571 26.8499 27.7571 26.2115Z" fill="#1E62B9"/>
<circle cx="27.2503" cy="26.4167" r="4.58333" fill="#1E62B9"/>
<path d="M24.5 27.4404C24.5 27.3413 24.5 27.2407 24.5 27.1417C24.5056 27.1252 24.5155 27.1087 24.5183 27.0921C24.5773 26.7469 24.7458 26.4783 25.0198 26.2877C25.0507 26.2666 25.0507 26.2471 25.0409 26.2126C24.8962 25.6978 25.2558 25.174 25.7587 25.1695C25.8501 25.168 25.9414 25.1905 26.0369 25.204C26.0453 25.189 26.0566 25.165 26.0678 25.1409C26.3769 24.5061 27.092 24.1503 27.7368 24.3199C28.3718 24.488 28.7651 24.9218 28.9056 25.6047C28.9295 25.7188 28.9646 25.7578 29.0658 25.7923C29.5533 25.9559 29.8455 26.3207 29.9677 26.846C29.9803 26.8985 29.9888 26.9511 30 27.0036C30 27.1027 30 27.2032 30 27.3023C29.9944 27.3218 29.986 27.3398 29.9831 27.3593C29.9354 27.679 29.8033 27.9537 29.5842 28.1758C29.3439 28.419 29.0602 28.554 28.7244 28.5555C28.376 28.5555 28.0262 28.5555 27.6778 28.5555C27.6581 28.5555 27.6398 28.5555 27.6202 28.5555C27.6202 28.1278 27.6202 27.706 27.6202 27.2813C27.748 27.2813 27.8702 27.2813 27.9939 27.2813C28.0473 27.2813 28.088 27.2618 28.1133 27.2122C28.1442 27.1507 28.1217 27.0997 28.0866 27.0486C27.845 26.6929 27.6047 26.3357 27.3631 25.98C27.29 25.8719 27.2043 25.8719 27.1299 25.9815C26.9978 26.1766 26.8658 26.3717 26.7337 26.5668C26.6213 26.7319 26.5103 26.8985 26.398 27.0636C26.367 27.1087 26.3544 27.1567 26.3797 27.2077C26.4036 27.2587 26.4443 27.2813 26.4977 27.2798C26.5623 27.2783 26.6269 27.2798 26.6916 27.2798C26.7534 27.2798 26.8152 27.2798 26.877 27.2798C26.877 27.7075 26.877 28.1278 26.877 28.551C26.8644 28.5525 26.8545 28.554 26.8433 28.554C26.419 28.554 25.9948 28.557 25.5705 28.5525C25.4876 28.551 25.4019 28.536 25.3232 28.509C24.8976 28.3589 24.6447 28.0362 24.5295 27.5799C24.5211 27.5334 24.5112 27.4869 24.5 27.4404Z" fill="#BED3F2"/>
<path d="M17.3984 13.6545C17.3984 14.1865 16.9712 14.6122 16.4372 14.6122C15.9033 14.6122 15.4761 14.1865 15.4761 13.6545C15.4761 13.1224 15.9033 12.6967 16.4372 12.6967C16.8644 12.5903 17.3984 13.1224 17.3984 13.6545Z" fill="#1E62B9"/>
</svg>
