<svg width="40" height="40" viewBox="0 0 40 40" fill="none" xmlns="http://www.w3.org/2000/svg">
<rect width="40" height="40" rx="4" fill="#1E62B9" fill-opacity="0.1"/>
<ellipse cx="15.1761" cy="10.9775" rx="0.87822" ry="0.87822" fill="#1E62B9"/>
<path d="M8 13.2365C8 12.0937 8 10.9508 8 9.80796C8 8.68384 8.68384 8 9.81733 8C12.1124 8 14.4075 8 16.7119 8C17.8454 8 18.5293 8.67447 18.5293 9.80796C18.5293 12.1124 18.5386 14.4262 18.5293 16.7307C18.5293 17.8454 17.8548 18.5199 16.7307 18.5199C14.4262 18.5293 12.1124 18.5293 9.80796 18.5199C8.67447 18.5199 8.00937 17.8361 8.00937 16.6932C8 15.5503 8 14.3981 8 13.2365ZM8.9555 16.9368C9.10539 16.815 9.1897 16.7588 9.26464 16.6838C10.2201 15.7845 11.185 14.8852 12.1405 13.9859C12.9368 13.2365 13.6019 13.2365 14.4075 13.9859C15.363 14.8852 16.3185 15.7845 17.2834 16.6838C17.3583 16.7588 17.4426 16.815 17.5831 16.9274C17.5925 16.7494 17.6019 16.6557 17.6019 16.5527C17.6019 14.3138 17.6019 12.0749 17.6019 9.83607C17.6019 9.19906 17.3489 8.9555 16.7026 8.9555C14.4169 8.9555 12.1311 8.9555 9.84543 8.9555C9.18969 8.9555 8.9555 9.1897 8.9555 9.84543C8.9555 12.0843 8.9555 14.3232 8.9555 16.5621C8.9555 16.6557 8.9555 16.7494 8.9555 16.9368Z" fill="#1E62B9"/>
<path d="M21.4707 13.2459C21.4707 12.1124 21.4707 10.9789 21.4707 9.85477C21.4707 8.67444 22.1358 8.00934 23.3161 8.00934C25.5925 8.00934 27.8688 8.00934 30.1358 8.00934C31.3161 8.00934 31.9906 8.68381 31.9906 9.85477C31.9906 12.1405 31.9906 14.4262 31.9906 16.7119C31.9906 17.8548 31.3255 18.5386 30.192 18.5386C27.8876 18.548 25.5737 18.548 23.2693 18.5386C22.1358 18.5386 21.4707 17.8641 21.4707 16.7119C21.4707 15.5503 21.4707 14.3981 21.4707 13.2459ZM30.9695 16.8805C30.9976 16.8712 31.0257 16.8524 31.0538 16.8431C31.0538 16.7681 31.0538 16.6932 31.0538 16.6089C31.0538 14.3325 31.0538 12.0562 31.0538 9.7892C31.0538 9.18967 30.8009 8.94611 30.192 8.94611C27.8969 8.94611 25.6018 8.94611 23.2974 8.94611C22.651 8.94611 22.4075 9.18967 22.4075 9.83604C22.4075 12.0655 22.4075 14.2951 22.4075 16.5246C22.4075 16.637 22.4168 16.74 22.4262 16.9274C22.5761 16.7962 22.6698 16.7213 22.7541 16.637C23.7377 15.7189 24.7213 14.7915 25.7049 13.8641C26.3794 13.2365 27.0913 13.2365 27.7658 13.8735C28.3372 14.4075 28.8993 14.9414 29.4613 15.4754C29.9672 15.9531 30.4637 16.4215 30.9695 16.8805Z" fill="#1E62B9"/>
<ellipse cx="29.075" cy="10.9252" rx="0.87822" ry="0.87822" fill="#1E62B9"/>
<ellipse cx="29.075" cy="24.3912" rx="0.87822" ry="0.87822" fill="#1E62B9"/>
<ellipse cx="15.6087" cy="24.3912" rx="0.87822" ry="0.87822" fill="#1E62B9"/>
<path d="M18.5297 26.7353C18.5297 27.8782 18.5297 29.0211 18.5297 30.1639C18.5297 31.3442 17.8552 32 16.6749 32C14.3985 32 12.1222 32 9.8552 32C8.68424 32 8.00977 31.3255 8.00977 30.1452C8.00977 27.8595 8.00977 25.5738 8.00977 23.288C8.00977 22.1546 8.67487 21.4707 9.81773 21.4707C12.1222 21.4613 14.436 21.4613 16.7404 21.4707C17.8646 21.4707 18.5297 22.1452 18.5297 23.2693C18.5297 24.4215 18.5297 25.5831 18.5297 26.7353ZM8.9559 30.4356C9.12452 30.2763 9.2182 30.2014 9.30251 30.1171C10.2674 29.2084 11.2322 28.2997 12.2065 27.4005C12.9372 26.7166 13.621 26.726 14.3423 27.4005C15.3259 28.3279 16.3095 29.2459 17.2931 30.1639C17.3681 30.2389 17.4524 30.2951 17.5742 30.3981C17.5835 30.2201 17.5929 30.1171 17.5929 30.0234C17.5929 27.7845 17.5929 25.5457 17.5929 23.3068C17.5929 22.6791 17.3306 22.4168 16.6936 22.4168C14.4079 22.4168 12.1222 22.4168 9.83646 22.4168C9.19946 22.4168 8.9559 22.6698 8.9559 23.3161C8.9559 25.555 8.9559 27.7939 8.9559 30.0328C8.9559 30.1264 8.9559 30.2295 8.9559 30.4356Z" fill="#1E62B9"/>
<path d="M32 26.7634C32 27.9063 32 29.0491 32 30.192C32 31.3161 31.3068 32 30.1826 32C27.8876 32 25.5925 32 23.288 32C22.1545 32 21.4801 31.3255 21.4707 30.192C21.4707 27.8875 21.4707 25.5737 21.4707 23.2693C21.4707 22.1545 22.1452 21.48 23.2693 21.48C25.5737 21.4707 27.8876 21.4707 30.192 21.48C31.3255 21.48 31.9906 22.1639 31.9906 23.3067C32 24.4496 32 25.6112 32 26.7634ZM22.4356 30.4074C22.5667 30.2857 22.6417 30.2295 22.7072 30.1733C23.7002 29.2459 24.6932 28.3185 25.6862 27.3817C26.3887 26.7166 27.0913 26.7166 27.8033 27.3723C28.7869 28.2904 29.7705 29.2178 30.7541 30.1452C30.8384 30.2201 30.9321 30.295 31.0726 30.4168C31.0726 27.9812 31.0726 25.6393 31.0726 23.2974C31.0726 22.6604 30.829 22.4168 30.1733 22.4168C27.8876 22.4168 25.6018 22.4168 23.3161 22.4168C22.6885 22.4168 22.4262 22.6791 22.4262 23.3161C22.4262 25.5456 22.4262 27.7751 22.4262 30.0046C22.4168 30.1077 22.4262 30.2107 22.4356 30.4074Z" fill="#1E62B9"/>
<g filter="url(#filter0_d_1078_2521)">
<circle cx="17.5606" cy="16.5847" r="2.4395" fill="#1E62B9"/>
<circle cx="17.5606" cy="16.5847" r="2.1395" stroke="#C1D5F3" stroke-width="0.6"/>
</g>
<path d="M17.236 17.0268C17.6972 16.5656 18.1539 16.1089 18.6106 15.6522C18.6867 15.5746 18.7748 15.5403 18.8823 15.5746C19.0464 15.6283 19.1046 15.8298 18.9957 15.9627C18.9808 15.9806 18.9643 15.9985 18.9464 16.0149C18.445 16.5134 17.9435 17.0104 17.442 17.5074C17.3181 17.6298 17.1912 17.6328 17.0614 17.5149C16.8002 17.2761 16.5375 17.0373 16.2763 16.8C16.1972 16.7268 16.1629 16.6403 16.1913 16.5358C16.2345 16.3761 16.4331 16.3089 16.5614 16.4164C16.7002 16.5328 16.8301 16.6582 16.9644 16.7806C17.0524 16.8597 17.142 16.9417 17.236 17.0268Z" fill="white"/>
<defs>
<filter id="filter0_d_1078_2521" x="14.1211" y="13.1452" width="6.87891" height="6.87903" filterUnits="userSpaceOnUse" color-interpolation-filters="sRGB">
<feFlood flood-opacity="0" result="BackgroundImageFix"/>
<feColorMatrix in="SourceAlpha" type="matrix" values="0 0 0 0 0 0 0 0 0 0 0 0 0 0 0 0 0 0 127 0" result="hardAlpha"/>
<feOffset/>
<feGaussianBlur stdDeviation="0.5"/>
<feComposite in2="hardAlpha" operator="out"/>
<feColorMatrix type="matrix" values="0 0 0 0 0 0 0 0 0 0 0 0 0 0 0 0 0 0 0.25 0"/>
<feBlend mode="normal" in2="BackgroundImageFix" result="effect1_dropShadow_1078_2521"/>
<feBlend mode="normal" in="SourceGraphic" in2="effect1_dropShadow_1078_2521" result="shape"/>
</filter>
</defs>
</svg>
