<svg width="40" height="40" viewBox="0 0 40 40" fill="none" xmlns="http://www.w3.org/2000/svg">
<rect width="40" height="40" rx="4" fill="#1E62B9" fill-opacity="0.1"/>
<rect x="11" y="11.9286" width="18" height="17.6327" rx="3" fill="#1E62B9"/>
<path d="M17.75 18.0511C17.75 19.2663 18.7595 20.2552 20 20.2552C21.2405 20.2552 22.25 19.2663 22.25 18.0511C22.25 16.8359 21.2405 15.847 20 15.847C18.7595 15.847 17.75 16.8359 17.75 18.0511ZM24 25.1532H24.0102C24.2807 25.1532 24.5 24.9339 24.5 24.6634C24.5 22.7732 22.9295 21.2348 21 21.2348H19C17.07 21.2348 15.5 22.7732 15.5 24.6634C15.5 24.9339 15.7193 25.1532 15.9898 25.1532H24Z" fill="white"/>
<rect x="8" y="19.7659" width="6" height="1.95918" rx="0.979592" fill="white"/>
<rect x="8.5" y="20.2554" width="5" height="0.979592" rx="0.489796" fill="#1E62B9"/>
<rect x="26" y="19.7659" width="6" height="1.95918" rx="0.979592" fill="white"/>
<rect x="26.5" y="20.2554" width="5" height="0.979592" rx="0.489796" fill="#1E62B9"/>
<rect x="19" y="14.3776" width="5.87755" height="2" rx="1" transform="rotate(-90 19 14.3776)" fill="white"/>
<rect x="19.5" y="13.888" width="4.89796" height="1" rx="0.5" transform="rotate(-90 19.5 13.888)" fill="#1E62B9"/>
<rect x="19" y="32.5002" width="5.87755" height="2" rx="1" transform="rotate(-90 19 32.5002)" fill="white"/>
<rect x="19.5" y="32.0107" width="4.89796" height="1" rx="0.5" transform="rotate(-90 19.5 32.0107)" fill="#1E62B9"/>
</svg>
