<svg width="40" height="40" viewBox="0 0 40 40" fill="none" xmlns="http://www.w3.org/2000/svg">
<rect width="40" height="40" rx="4" fill="#1E62B9" fill-opacity="0.1"/>
<g clip-path="url(#clip0_1061_8519)">
<path d="M29.108 29.5682C29.0701 29.5932 29.031 29.6056 28.9903 29.6056C28.9301 29.6056 28.8778 29.5841 28.8338 29.541C28.7897 29.4978 28.7676 29.4413 28.7676 29.3713C28.7676 29.3058 28.7866 29.2501 28.8247 29.2041C28.8626 29.1581 28.9146 29.1351 28.9805 29.1351C29.0227 29.1351 29.0591 29.1438 29.09 29.1611C29.1404 29.1893 29.1716 29.2385 29.1838 29.3087L29.0825 29.3071C29.0764 29.2745 29.0635 29.2527 29.0437 29.2414C29.0275 29.231 29.0086 29.2256 28.9893 29.2257C28.9594 29.2257 28.9349 29.2381 28.9159 29.2625C28.8969 29.2871 28.8874 29.3242 28.8874 29.3736C28.8874 29.4228 28.8978 29.4585 28.9189 29.4807C28.94 29.5029 28.9651 29.514 28.9946 29.514C29.0215 29.514 29.042 29.5067 29.0558 29.492C29.0696 29.4773 29.0786 29.4587 29.0825 29.4365H29.181C29.1703 29.4991 29.1461 29.5431 29.108 29.5682ZM28.7472 29.1401C28.6839 29.2047 28.6523 29.2814 28.6523 29.3702C28.6523 29.4622 28.6845 29.5404 28.7489 29.6045C28.813 29.669 28.8902 29.7011 28.9806 29.7011C29.0709 29.7011 29.148 29.6687 29.2118 29.6041C29.2428 29.5736 29.2672 29.5371 29.2837 29.4969C29.3002 29.4567 29.3084 29.4136 29.3077 29.3702C29.3077 29.2818 29.276 29.2051 29.2123 29.1401C29.1481 29.0739 29.0709 29.0408 28.9805 29.0408C28.8894 29.0408 28.8116 29.0739 28.7471 29.1401M29.2586 29.6553C29.1814 29.73 29.0887 29.7673 28.9805 29.7673C28.8689 29.7673 28.7746 29.7291 28.6982 29.6525C28.6215 29.5761 28.5833 29.4819 28.5833 29.3702C28.5833 29.2541 28.6247 29.1576 28.7072 29.0808C28.7848 29.0088 28.876 28.973 28.9805 28.973C29.0902 28.973 29.1838 29.0117 29.2613 29.0895C29.3389 29.167 29.3778 29.2605 29.3778 29.3702C29.3778 29.483 29.3381 29.578 29.2586 29.6553ZM30.1077 25.3913C30.1062 25.3533 30.103 25.3154 30.0982 25.2777C30.0954 25.2541 30.091 25.2307 30.085 25.2076C30.0758 25.1547 30.0625 25.1027 30.0452 25.0519L30.0448 25.051C30.0078 24.9456 29.9514 24.8479 29.8787 24.7631C29.8094 24.6832 29.7259 24.6166 29.6325 24.5669L29.6296 24.5652C29.5459 24.5218 29.4562 24.491 29.3634 24.4738C29.3391 24.4695 29.3165 24.4672 29.2939 24.4646C29.3994 24.0124 29.2673 23.6671 29.1819 23.5057C29.1885 23.4992 29.1955 23.4929 29.2017 23.4868C29.3145 23.3779 29.4102 23.2738 29.4909 23.1692L29.5061 23.1483C29.5649 23.0638 29.6104 22.9708 29.641 22.8725C29.6616 22.8056 29.6755 22.7369 29.6826 22.6673L29.6835 22.6674L29.684 22.6637L29.6845 22.6549L29.6871 22.6357H29.6855L29.6867 22.6143H29.6873L29.6875 22.6014C29.688 22.5887 29.6883 22.5756 29.6883 22.5617C29.689 22.5361 29.6888 22.5095 29.6875 22.4803C29.6813 22.3403 29.656 22.1582 29.564 21.9611C29.5142 21.8544 29.4489 21.7558 29.3701 21.6683C29.281 21.57 29.1763 21.4869 29.0604 21.4224L29.061 21.4227C29.0523 21.4177 29.0454 21.413 29.0373 21.4083C28.7868 21.0395 28.5007 20.7537 28.247 20.5368C28.1309 20.4379 28.0112 20.3436 27.8879 20.2539C27.7843 20.1777 27.6968 20.1175 27.6482 20.0815L27.6487 20.0817C27.5371 19.9999 27.4541 19.9507 27.4144 19.9283C27.3229 19.8728 27.255 19.8284 27.2139 19.7974C27.1948 19.7836 27.1769 19.7682 27.1604 19.7513L27.1574 19.7472C27.1568 19.7464 27.1532 19.7395 27.1485 19.7148C27.1433 19.6902 27.1378 19.648 27.1354 19.5871C27.1311 19.4915 27.1344 19.3513 27.145 19.1661C27.1617 18.8684 27.1956 18.4577 27.2305 17.901C27.2421 17.7239 27.2437 17.557 27.2373 17.3998C27.2268 17.1478 27.1942 16.9195 27.1415 16.7125L27.1414 16.7114C27.1298 16.6643 27.1163 16.6182 27.1022 16.5725L27.1019 16.5721L27.1017 16.5716C27.0911 16.5376 27.0817 16.5119 27.076 16.4956L27.0764 16.4965C27.0657 16.4661 27.0544 16.4358 27.0426 16.4058L27.0422 16.4045C27.0361 16.3897 27.0285 16.3707 27.0185 16.3469L27.0182 16.3463L27.0181 16.346C26.9974 16.2967 26.9746 16.2483 26.9498 16.201L26.9424 16.1871L26.9287 16.1626L26.9189 16.1461C26.8702 16.066 26.8166 15.9889 26.7584 15.9155C26.7182 15.7343 26.665 15.5564 26.5993 15.3829C26.5268 15.1934 26.4296 14.9832 26.2915 14.7758C26.2417 14.7022 26.1875 14.6316 26.1293 14.5644L26.1491 14.5438C26.1771 14.5146 26.8407 13.8196 27.3603 12.9178C28.3287 11.2368 28.0064 10.2091 27.5656 9.64298L27.5531 9.62715L27.5399 9.6123C27.1148 9.13989 26.5368 8.85519 25.8218 8.76644C24.341 8.58228 22.6664 9.30888 22.2273 9.51556L21.4292 8.63391L21.4262 8.63061C21.3558 8.55355 21.2778 8.48394 21.1932 8.42286C21.1084 8.36187 21.0179 8.30912 20.9231 8.26533C20.7323 8.17675 20.5231 8.12141 20.3004 8.0937C19.8536 8.03869 19.3522 8.09205 18.8067 8.23193C17.9892 8.44282 17.0711 8.85123 16.1114 9.4269C15.1523 10.0027 14.1527 10.7466 13.1822 11.6318C11.9962 12.7133 11.0167 13.8569 10.3029 14.9423C9.94632 15.485 9.65592 16.0134 9.44017 16.5145C9.22483 17.0159 9.08322 17.4899 9.02863 17.9285C8.98904 18.2473 8.99539 18.5485 9.05939 18.8262C9.08686 18.9463 9.12692 19.0631 9.17889 19.1749C9.24435 19.3173 9.33121 19.449 9.43646 19.5652L9.4391 19.568L10.3678 20.5407L10.3624 20.55C10.3523 20.5675 10.3429 20.5853 10.333 20.6031C10.3188 20.6295 10.3043 20.6558 10.2906 20.6825C10.2813 20.7008 10.2723 20.7189 10.2636 20.7373C10.2279 20.8101 10.195 20.8841 10.165 20.9594L10.1429 21.0155C10.132 21.0442 10.1217 21.0737 10.1114 21.1027C10.105 21.1217 10.0984 21.1406 10.0923 21.1596C10.0826 21.1893 10.0737 21.2193 10.0647 21.2495C10.0622 21.2579 10.0594 21.266 10.057 21.2744C10.0539 21.285 10.0511 21.2958 10.0483 21.3065C10.0396 21.3373 10.032 21.3686 10.0243 21.3998C10.0199 21.4185 10.015 21.4373 10.0106 21.4563L10.002 21.4975C9.99794 21.5167 9.99448 21.536 9.9906 21.5556C9.98731 21.573 9.98343 21.5906 9.98046 21.6083C9.97353 21.6475 9.96784 21.6874 9.96232 21.727C9.96083 21.7388 9.9586 21.7503 9.9572 21.7621L9.95679 21.7654L9.95588 21.7761C9.95275 21.8019 9.95052 21.8281 9.94772 21.8544C9.94392 21.8954 9.94063 21.9365 9.9384 21.978C9.93708 21.9961 9.93625 22.0146 9.93543 22.0331C9.93485 22.0474 9.93378 22.0614 9.93329 22.0757C9.93246 22.1046 9.93287 22.1339 9.93271 22.1633C9.93271 22.1807 9.93254 22.1983 9.93271 22.2161C9.93287 22.2266 9.93254 22.237 9.93271 22.2474V22.2535C9.93329 22.2723 9.93403 22.2911 9.93444 22.3098C9.93543 22.3306 9.93733 22.3508 9.93856 22.3712C9.93947 22.3865 9.93988 22.4017 9.94079 22.4168C9.94211 22.4303 9.94277 22.4404 9.94368 22.4492C9.94533 22.4684 9.94722 22.4879 9.94929 22.507C9.95126 22.5291 9.95366 22.5527 9.95696 22.5796L9.9572 22.5819V22.5815L9.96083 22.6073C9.9638 22.629 9.96726 22.651 9.97056 22.6726C9.9732 22.6921 9.97667 22.7139 9.98112 22.7413L9.98656 22.7693C9.98904 22.7825 9.99176 22.7956 9.99423 22.8085L9.99448 22.8095L9.99481 22.8113L9.99836 22.828C10.0017 22.846 10.0062 22.8685 10.0131 22.8995L10.0181 22.9203C10.023 22.9399 10.0266 22.9547 10.0294 22.965L10.0342 22.985C10.0359 22.9916 10.0375 22.9975 10.0398 23.0069L10.0445 23.0252L10.0487 23.0406L10.0523 23.0545L10.0577 23.0727L10.0627 23.0916C10.0671 23.1063 10.072 23.1208 10.0765 23.1356C10.0818 23.1528 10.0886 23.1756 10.0986 23.2062L10.0969 23.2012L10.0988 23.207C10.1011 23.2143 10.103 23.2191 10.1052 23.2252C10.1141 23.2507 10.1212 23.2701 10.1247 23.2802L10.1253 23.2813V23.2815C10.1311 23.2982 10.1397 23.3226 10.1519 23.3543L10.1521 23.3548L10.1523 23.3556L10.1521 23.3547L10.1531 23.3577L10.1527 23.3563L10.158 23.3694C10.1657 23.389 10.1719 23.4041 10.177 23.4157L10.1829 23.4305L10.1839 23.433C10.1933 23.4558 10.2029 23.4785 10.2128 23.5011L10.2122 23.4999L10.2188 23.5141C10.225 23.5277 10.2306 23.5405 10.2358 23.5509C10.2407 23.5609 10.2449 23.5699 10.2484 23.5772L10.2479 23.5761L10.2486 23.5777C10.2564 23.5939 10.2658 23.6148 10.279 23.6408L10.28 23.6433L10.2808 23.6446L10.2864 23.6555C10.292 23.6662 10.2973 23.6766 10.3022 23.6856C10.309 23.6986 10.3151 23.7095 10.3199 23.7189L10.3209 23.721C10.3281 23.734 10.3381 23.7531 10.3516 23.7776L10.3525 23.7792L10.3535 23.781L10.3591 23.7904C10.3647 23.8003 10.3701 23.8097 10.3751 23.8182C10.3838 23.8329 10.3919 23.846 10.3982 23.857L10.4002 23.8601L10.4006 23.861C10.4072 23.8717 10.4172 23.8886 10.4314 23.9114L10.4327 23.9135L10.4369 23.9201C10.4438 23.9311 10.4506 23.9415 10.4567 23.9511C10.467 23.9661 10.476 23.9798 10.4837 23.9915L10.4824 23.9895C10.4909 24.002 10.5024 24.0198 10.5183 24.0422L10.5195 24.0441L10.5203 24.0455L10.5189 24.0431L10.5205 24.0456L10.5217 24.0474L10.5213 24.0471L10.5219 24.0479L10.5222 24.0481C10.5296 24.0587 10.5372 24.0691 10.5447 24.0797C10.5551 24.0943 10.5651 24.1077 10.574 24.1196L10.5734 24.1188C10.5819 24.1303 10.5926 24.1447 10.6054 24.1617L10.6082 24.1653C10.6179 24.1779 10.6271 24.1896 10.6362 24.2011C10.6479 24.2158 10.6591 24.2295 10.6695 24.2423L10.6731 24.2468C10.6802 24.2554 10.6885 24.2657 10.6997 24.2789L10.7047 24.2848L10.7045 24.2849L10.7062 24.2869L10.7091 24.2901C10.7259 24.3097 10.741 24.3266 10.756 24.3434L10.772 24.3618L10.7722 24.3621L10.7729 24.3627L10.7741 24.364L10.7737 24.3637C10.7812 24.372 10.7904 24.3824 10.8017 24.3945L10.8054 24.3985V24.3988L10.806 24.3993L10.8083 24.4015L10.8077 24.401C10.8258 24.4206 10.8436 24.4387 10.8615 24.4569C10.869 24.4643 10.8762 24.4726 10.8837 24.4798L10.8845 24.4806C10.8884 24.4843 10.8971 24.4934 10.9111 24.5074L10.9138 24.5099L10.9218 24.5182C10.9433 24.5393 10.9659 24.5596 10.9881 24.5801L10.9932 24.5852L10.9947 24.5864L10.9952 24.5869L10.996 24.5877C11.0018 24.5928 11.0109 24.6012 11.0242 24.6132L11.0256 24.6147C11.0538 24.6396 11.0824 24.6642 11.1113 24.6883L11.113 24.6897L11.1292 24.703L11.1401 24.712L11.1398 24.7116L11.1563 24.7247C11.1805 24.744 11.2041 24.7627 11.227 24.7801L11.2334 24.7852L11.2364 24.7874C11.2451 24.7939 11.2516 24.7986 11.2551 24.8014L11.2596 24.8049L11.263 24.8073C11.2696 24.8121 11.2762 24.8167 11.2831 24.8215C11.3033 24.8361 11.3236 24.8504 11.3439 24.8645L11.3611 24.8765L11.3631 24.878L11.3843 24.8924L11.3852 24.8928L11.396 24.8997C11.4166 24.9137 11.4387 24.9274 11.4605 24.9414C11.472 24.9487 11.4824 24.9556 11.4944 24.9629L11.5129 24.9742L11.5234 24.9803L11.5302 24.9844C11.5643 25.0048 11.5962 25.0232 11.6255 25.0394L11.6283 25.0408L11.6464 25.0507L11.6478 25.0516C11.6882 25.0732 11.7267 25.0929 11.7631 25.111L11.7693 25.114L11.7892 25.1236L11.7894 25.1233C11.8091 25.1329 11.8281 25.1411 11.8477 25.1499C11.8567 25.1542 11.8661 25.1584 11.8752 25.1624C11.8863 25.1674 11.8978 25.1733 11.9089 25.178L11.9183 25.182L11.921 25.1831L11.9254 25.1851C11.9444 25.1931 11.9629 25.1999 11.9815 25.2075L11.9911 25.2111C12.012 25.2196 12.0331 25.2285 12.0539 25.2363L12.0589 25.2381L12.0744 25.2437C12.0842 25.2472 12.0943 25.2503 12.1041 25.2539L12.1134 25.2569C12.1433 25.2676 12.1734 25.2785 12.2039 25.2883L12.2111 25.2905L12.2137 25.2913L12.2147 25.2919C12.2616 25.3065 12.3085 25.3199 12.3552 25.3325L12.357 25.333L12.365 25.335L12.3622 25.3344C12.4036 25.3452 12.4443 25.3546 12.4845 25.3636H12.485L12.5 25.3676L12.5156 25.3709C12.5541 25.3793 12.5932 25.3861 12.6327 25.3929L12.6438 25.396L12.6715 25.4002C12.6953 25.4041 12.719 25.4071 12.7428 25.4103L12.753 25.4382L12.7534 25.4395C12.8186 25.6175 12.8889 25.7936 12.9641 25.9676C14.078 29.05 17.1571 31.4395 20.6707 31.8764C24.1845 32.3132 27.9352 29.9778 29.4633 26.822C29.5267 26.7056 29.587 26.5876 29.644 26.4681C29.7956 26.312 29.9132 26.1502 29.9914 25.9787C30.085 25.7771 30.1165 25.5649 30.1077 25.3913Z" fill="#1E62B9"/>
<path d="M27.0185 16.3447L27.0188 16.3456L27.0189 16.3459L27.0185 16.3447ZM11.5139 24.974L11.5136 24.9738H11.5135L11.5139 24.974ZM10.5188 24.0417L10.519 24.0421V24.0419L10.5188 24.0417ZM10.5193 24.0427L10.5196 24.0428L10.519 24.0421L10.5193 24.0427ZM10.0533 23.0556L10.053 23.0542L10.0528 23.0538L10.0533 23.0556ZM10.0139 22.8996L10.0138 22.8991L10.0137 22.8989L10.0139 22.8996ZM10.6094 24.1654L10.6105 24.1669L10.6089 24.1649L10.608 24.1637L10.6094 24.1654Z" fill="#1E62B9"/>
<path d="M27.1022 9.98637C26.932 9.79717 26.7352 9.65466 26.5214 9.54909C26.482 9.53401 26.442 9.52036 26.4016 9.50818C26.3818 9.49499 26.3616 9.48262 26.341 9.47049C26.1519 9.39808 25.9518 9.35082 25.7461 9.32435C24.7252 9.19297 23.563 9.5646 22.8983 9.82851C22.8618 9.84377 22.8251 9.85903 22.7879 9.8747C22.6332 9.94079 22.4795 10.0094 22.3269 10.0805C22.3126 10.0871 22.2982 10.094 22.2839 10.1008L22.0221 9.79651L21.947 9.70926L21.9146 9.67132L21.2295 8.87594L21.1701 8.80682L21.0964 8.72146L21.0833 8.72435L20.8895 8.76823L20.6657 8.81886C20.542 8.76146 20.395 8.72047 20.2249 8.69928C19.8841 8.65639 19.4515 8.69581 18.9586 8.82324C18.4656 8.94975 17.913 9.16254 17.3268 9.45449C16.1545 10.0378 14.8493 10.937 13.5934 12.0827C13.168 12.4702 12.7601 12.8763 12.3708 13.3C12.0201 13.6808 11.6871 14.0775 11.3729 14.4889C10.7648 15.287 10.2987 16.0632 10.0011 16.7556C9.8023 17.217 9.67933 17.6409 9.63438 18.0037C9.60123 18.2674 9.60989 18.4981 9.65409 18.6887C9.66836 18.7503 9.68733 18.8064 9.70869 18.8599C9.75315 18.9726 9.81154 19.0697 9.88692 19.1527L10.6468 19.9488L10.7282 20.034L10.7336 20.0283C10.7567 20.0015 10.7805 19.9747 10.8045 19.9485L10.811 19.9416C10.8198 19.9321 10.8289 19.9233 10.8377 19.9143C10.8604 19.8903 10.8836 19.8667 10.907 19.8434C10.9216 19.8289 10.9364 19.8151 10.9513 19.8011C10.9658 19.7874 10.9799 19.7733 10.9945 19.7598C11.0011 19.7538 11.008 19.7483 11.0148 19.7422C11.0302 19.7282 11.0462 19.7145 11.0622 19.7006C11.0975 19.6699 11.1335 19.6401 11.1701 19.611L11.1761 19.6064C11.2154 19.5757 11.2552 19.5457 11.2957 19.5165C11.321 19.4985 11.3468 19.4806 11.3729 19.4632C11.3885 19.4527 11.404 19.4422 11.4197 19.432C11.4463 19.4147 11.4736 19.3978 11.5008 19.3813C11.5167 19.3716 11.5321 19.362 11.5479 19.3529C11.5764 19.3361 11.6054 19.3203 11.6341 19.3045C11.6496 19.2962 11.6647 19.2876 11.6802 19.2794L11.6975 19.2703L11.7001 19.2688C11.7246 19.2561 11.7496 19.2445 11.7745 19.2325C11.7885 19.2259 11.8018 19.2189 11.8161 19.2124C11.8369 19.2025 11.8581 19.1935 11.8793 19.1842C11.8976 19.1762 11.9159 19.1681 11.9345 19.1603L11.955 19.1512C12.0019 19.1321 12.0493 19.1141 12.097 19.0971C12.1121 19.0917 12.1277 19.0871 12.1429 19.0818C12.1594 19.0764 12.1757 19.0708 12.1925 19.0655L12.2118 19.0589C12.2217 19.0559 12.2316 19.0525 12.2414 19.0496C12.2618 19.0436 12.2824 19.0382 12.3028 19.0323L12.3179 19.0282C12.3416 19.0214 12.3652 19.0148 12.3891 19.0088C12.4114 19.003 12.4336 18.9982 12.4562 18.9931C12.484 18.9867 12.5118 18.9805 12.5396 18.9747C12.5513 18.9724 12.5629 18.9699 12.5746 18.9676C12.5862 18.9654 12.5983 18.9637 12.6101 18.9615C12.6374 18.9566 12.6651 18.952 12.6925 18.9477C12.7169 18.9441 12.7412 18.9408 12.7655 18.9375C12.7852 18.935 12.8045 18.9323 12.8241 18.93C12.8321 18.9292 12.84 18.9286 12.848 18.928C12.857 18.9269 12.8656 18.9256 12.8745 18.9248L12.8892 18.924C12.9961 18.9198 13.1032 18.9216 13.2099 18.9295L13.2276 18.9307C13.3454 18.9403 13.4727 18.959 13.6063 18.9874C13.6383 18.9942 13.6701 19.0008 13.7031 19.0088C13.7098 18.9963 13.7168 18.9834 13.7237 18.9709C13.7945 18.8439 13.8661 18.7201 13.9385 18.5984C14.3616 17.8891 14.8154 17.2689 15.2787 16.7282C15.4327 16.5482 15.5918 16.3725 15.7555 16.2012C16.42 15.5073 17.0883 14.9669 17.6995 14.5497C17.8304 14.4603 17.9631 14.3735 18.0976 14.2895C18.2641 14.1854 18.4334 14.0857 18.6052 13.9904C18.7296 13.9215 18.8554 13.855 18.9825 13.7911C19.1602 13.7015 19.3407 13.6175 19.5235 13.539C19.6341 13.4917 19.7457 13.4467 19.8582 13.4041C19.8079 13.3988 19.7568 13.3948 19.7045 13.3921C19.6558 13.3895 19.6063 13.3885 19.5563 13.3884L19.5186 13.3885C19.3668 13.3899 19.2152 13.4024 19.0652 13.4259C19.0311 13.4312 18.9968 13.4373 18.962 13.4441C19.2014 13.3203 19.4515 13.2183 19.7093 13.1394C19.8702 13.0899 20.0275 13.0511 20.1784 13.0216C20.4845 12.9626 20.7957 12.9341 21.1074 12.9365C21.2141 12.9375 21.3123 12.9422 21.4007 12.9488C21.7092 12.9719 21.8952 13.0191 21.8952 13.0191C21.8514 12.9574 21.7962 12.9036 21.7362 12.8567C21.627 12.7721 21.5012 12.7115 21.3908 12.6685C21.3257 12.6431 21.2592 12.6211 21.1917 12.6027C21.2437 12.5938 21.2951 12.5862 21.3457 12.5794C21.3987 12.5723 21.4517 12.5661 21.5049 12.561C21.8807 12.5261 22.2595 12.5433 22.6307 12.6119C22.983 12.6771 23.1951 12.7657 23.1951 12.7657C23.1449 12.6678 23.0704 12.5842 22.9889 12.5136C22.9319 12.4647 22.871 12.4203 22.8069 12.381C23.1683 12.4646 23.5194 12.5877 23.8538 12.7483C23.9239 12.7821 23.9931 12.8177 24.0614 12.8551C24.2339 12.9492 24.3292 13.0168 24.3292 13.0168C24.3004 12.9154 24.2418 12.8194 24.1735 12.7334C24.1564 12.7118 24.1389 12.6905 24.1211 12.6703L24.1293 12.6741C24.1357 12.6762 24.1492 12.6804 24.1681 12.6868C24.1818 12.6914 24.1983 12.6971 24.2182 12.7043C24.2933 12.7316 24.4081 12.7775 24.543 12.8445L24.5626 12.8543C24.5809 12.8637 24.5997 12.8733 24.6184 12.8832C24.6647 12.9076 24.7126 12.9347 24.7614 12.9638C24.8336 13.0067 24.904 13.0528 24.9724 13.1017C25.0238 13.1385 25.075 13.1782 25.1258 13.2206C25.1786 13.2647 25.2294 13.3111 25.2783 13.3596C25.2879 13.3695 25.2979 13.379 25.3076 13.3892C25.3437 13.4263 25.3785 13.4654 25.4122 13.506C25.4775 13.5837 25.5363 13.6666 25.5881 13.7539C25.6532 13.8633 25.7059 13.9796 25.745 14.1008C25.7471 14.1079 25.7491 14.1152 25.751 14.1222C25.7801 14.0909 25.8314 14.0348 25.8982 13.9581C26.4529 13.3206 28.0863 11.2499 27.1022 9.98637Z" fill="#184F96"/>
<path d="M29.543 25.4559L29.5434 25.4558C29.5434 25.4558 29.5625 25.3124 29.4867 25.1842L29.485 25.1806C29.4807 25.1733 29.476 25.1661 29.471 25.1592L29.4661 25.1518C29.4572 25.1403 29.4476 25.1293 29.4374 25.119C29.4177 25.0983 29.3955 25.0802 29.3714 25.0649C29.3574 25.0558 29.3428 25.0476 29.3278 25.0403C29.2848 25.0197 29.2332 25.0041 29.1721 24.9952C29.1218 24.9886 29.0711 24.9864 29.0205 24.9886C28.998 24.9892 28.9758 24.9897 28.9515 24.992L28.9405 24.9927L28.9446 25.0074L28.9554 25.048L28.9609 25.0703C28.9688 25.102 28.9784 25.1423 28.9881 25.1878C28.9852 25.1966 28.9819 25.2053 28.9781 25.2137L28.9744 25.2225C28.9465 25.2874 28.8707 25.437 28.7019 25.6316C28.6731 25.6646 28.6413 25.6992 28.6071 25.7349C28.1362 26.2215 27.1168 26.9144 24.9725 27.302C24.2448 27.4047 23.5739 27.4103 23.0008 27.3391C22.1535 27.2337 21.5186 26.963 21.2233 26.5989C21.1977 26.5677 21.1742 26.5354 21.1518 26.503C21.1354 26.4792 21.1197 26.4549 21.1048 26.4301C21.0996 26.4211 21.0947 26.4119 21.0896 26.4029C20.9683 26.1876 20.9065 25.944 20.9104 25.6969C20.9146 25.4093 21.0042 25.134 21.1561 24.9225C21.2794 24.7509 21.4431 24.6213 21.6348 24.5614C21.7317 24.5311 21.8335 24.5191 21.9348 24.5261C21.9561 24.5276 21.9843 24.5306 22.0194 24.535C22.0898 24.5438 22.1882 24.5576 22.3089 24.5731L22.3491 24.5782C22.7516 24.6282 23.3924 24.6888 24.1674 24.6414C25.5773 24.5556 27.4331 24.1119 29.1182 22.5924L29.1228 22.5864V22.5838C29.1284 22.4565 29.1114 22.2267 28.9506 22.0479C28.921 22.0152 28.8881 21.9856 28.8525 21.9596C28.8307 21.9434 28.8079 21.9286 28.7843 21.9151C28.7596 21.9014 28.7369 21.8875 28.7151 21.8736C28.6867 21.856 28.6591 21.8374 28.6322 21.8177L28.6285 21.8123C28.6171 21.7945 28.605 21.7772 28.5933 21.7594C28.1562 21.0973 27.5541 20.7131 27.3139 20.537C27.2007 20.4537 27.1286 20.4158 27.1286 20.4158C26.6086 20.0991 26.5323 19.994 26.581 19.1338C26.5983 18.824 26.6318 18.4168 26.6664 17.8649C26.6707 17.796 26.6733 17.727 26.6744 17.6579C26.6747 17.6418 26.6751 17.6262 26.6751 17.6105C26.6757 17.5489 26.6748 17.4874 26.6724 17.4258L26.6718 17.4088L26.6704 17.3905C26.6667 17.3257 26.6616 17.2609 26.655 17.1963C26.6501 17.1504 26.644 17.1046 26.6365 17.059C26.6329 17.0364 26.6285 17.0146 26.6243 16.9926C26.6198 16.9683 26.6148 16.9441 26.6095 16.9199C26.6046 16.8967 26.5993 16.8736 26.5936 16.8506L26.5933 16.8504L26.5936 16.8502V16.8504C26.5866 16.8227 26.5785 16.7964 26.5708 16.7702C26.568 16.7605 26.5658 16.7505 26.5627 16.7413C26.5598 16.7324 26.5566 16.7243 26.5538 16.7154L26.5509 16.7067L26.542 16.6814L26.5418 16.6798C26.5345 16.6594 26.5269 16.6396 26.5196 16.6204L26.5173 16.614L26.5098 16.5957L26.5007 16.5731L26.4987 16.5688V16.5683C26.483 16.5318 26.4667 16.4964 26.4494 16.4633L26.4356 16.4388C26.4165 16.4073 26.3963 16.3765 26.3751 16.3463L26.3669 16.334L26.3565 16.3204C26.3417 16.3001 26.3269 16.2803 26.312 16.2617L26.2916 16.2361C26.2723 16.213 26.2523 16.1904 26.2318 16.1683V16.1681L26.2314 16.1647L26.2308 16.1606L26.2296 16.1548L26.2281 16.1466L26.2269 16.1384L26.2243 16.1252L26.223 16.1171L26.2194 16.0986L26.2179 16.092C26.2088 16.0467 26.1987 16.0015 26.1876 15.9566L26.1867 15.9527C26.1833 15.9396 26.1798 15.9258 26.1762 15.9116L26.1746 15.9062C26.1706 15.891 26.1665 15.8759 26.1622 15.8607L26.1617 15.8597C26.1507 15.8207 26.139 15.7819 26.1266 15.7433C26.1226 15.7301 26.1177 15.7162 26.1128 15.7025C26.1033 15.6734 26.0933 15.6445 26.0827 15.6158C26.0765 15.5987 26.0696 15.5818 26.0629 15.5643C26.0522 15.5362 26.0409 15.5084 26.029 15.4808C26.0213 15.4621 26.0126 15.4437 26.0045 15.4249C25.9829 15.3774 25.9601 15.3304 25.936 15.2841C25.9208 15.2555 25.9049 15.2272 25.8885 15.1993C25.8778 15.1813 25.8673 15.1632 25.8565 15.1451C25.8375 15.1148 25.8171 15.0852 25.7965 15.0556C25.7861 15.041 25.7763 15.0258 25.7655 15.0111C25.7559 14.9984 25.7451 14.9866 25.7351 14.9742C25.7114 14.9439 25.6879 14.9135 25.662 14.885L25.6588 14.8818L25.6441 14.8678C25.6107 14.8319 25.5755 14.7969 25.5377 14.7647L25.531 14.759C25.5143 14.7448 25.4972 14.7312 25.4797 14.718L25.4779 14.7166L25.4716 14.712C25.4566 14.7007 25.4411 14.6899 25.4254 14.6794L25.4172 14.6736L25.4205 14.6763C25.404 14.6641 25.374 14.6483 25.3345 14.6307C25.3196 14.6242 25.3046 14.6179 25.2896 14.6117C25.2084 14.5792 25.0987 14.5423 24.9688 14.5077C24.9607 14.5054 24.9521 14.5034 24.9442 14.5015C24.7845 14.46 24.6222 14.429 24.4585 14.4088C24.4377 14.4061 24.4163 14.4051 24.3954 14.4028C24.387 14.402 24.3783 14.4013 24.3698 14.4004C24.2689 14.39 24.1676 14.3849 24.0662 14.3852L24.0601 14.3854C23.9287 14.3867 23.797 14.3975 23.6715 14.4224C23.701 14.3735 23.7808 14.3194 23.8608 14.2742C23.9256 14.238 23.9922 14.2052 24.0604 14.1759C24.0034 14.1801 23.9449 14.1882 23.8867 14.1976C23.868 14.2008 23.849 14.2033 23.8301 14.2068C23.8177 14.209 23.8056 14.2115 23.7935 14.2137L23.7828 14.2159C23.7725 14.218 23.7626 14.2201 23.7524 14.2223C23.4593 14.2847 23.1773 14.3903 23.0204 14.4543C22.9981 14.4634 22.9787 14.4716 22.9615 14.4788L22.9516 14.4829C22.9359 14.4848 22.92 14.4872 22.9043 14.4891L22.9048 14.4886C23.0204 14.2747 23.191 14.1595 23.321 14.0987C23.3437 14.088 23.3654 14.0785 23.385 14.071C23.3924 14.0681 23.3985 14.0663 23.405 14.0639C23.4238 14.0573 23.4398 14.0521 23.4537 14.048C23.4844 14.0391 23.5043 14.0352 23.5043 14.0352C23.4903 14.0355 23.4774 14.0373 23.4638 14.038C23.4522 14.0389 23.4408 14.0399 23.4294 14.0408C23.4125 14.042 23.3953 14.0429 23.3787 14.0445C23.3687 14.0455 23.3582 14.0457 23.3481 14.0467C23.0241 14.0818 22.7359 14.1917 22.4889 14.3282C22.3303 14.416 22.18 14.5182 22.04 14.6335C22.006 14.6406 21.9711 14.6479 21.9358 14.6554C21.5815 14.731 21.1768 14.8284 20.7512 14.959C20.5904 15.0083 20.4308 15.0613 20.2724 15.1179C20.0522 15.1974 19.8348 15.2848 19.6208 15.3799C18.9674 15.6716 18.3235 16.0588 17.7824 16.5784C17.763 16.5971 17.7425 16.6147 17.7234 16.6338C17.6765 16.6811 17.6306 16.7293 17.5857 16.7786C17.5671 16.7985 17.5476 16.8173 17.5294 16.8376C17.5066 16.8629 17.4855 16.8901 17.4632 16.916C17.361 17.0338 17.265 17.1569 17.1756 17.2846C17.1082 17.3816 17.0448 17.4813 16.9856 17.5835L16.9782 17.5957C16.8511 17.8167 16.7434 18.0483 16.6564 18.288C16.5984 18.448 16.5492 18.611 16.509 18.7764L16.5042 18.7948C16.4696 18.9417 16.4416 19.0901 16.4205 19.2395C16.4163 19.2696 16.4115 19.2994 16.4074 19.33C16.3979 19.4064 16.3904 19.4842 16.3839 19.5632C16.378 19.6362 16.3734 19.7093 16.3702 19.7825L16.3695 19.7997C16.3681 19.836 16.366 19.8719 16.3653 19.9088C16.3645 19.9508 16.3648 19.9936 16.3648 20.0364C16.3646 20.0463 16.3646 20.0562 16.3646 20.0663C16.3647 20.1509 16.3665 20.2356 16.3699 20.3201L16.3708 20.3338C16.3745 20.4192 16.3806 20.5064 16.388 20.5944C16.3911 20.6309 16.3942 20.6675 16.3979 20.7045C16.3988 20.7134 16.3994 20.7225 16.4002 20.7317C16.4023 20.7522 16.4048 20.7729 16.4071 20.7934C16.4179 20.8907 16.431 20.9896 16.4463 21.09C16.4503 21.1179 16.4541 21.1457 16.4587 21.1737C16.4727 21.2615 16.4879 21.35 16.5053 21.4401C16.5053 21.4401 16.4896 21.3246 16.4994 21.1547C16.5019 21.1156 16.5055 21.0738 16.5108 21.0293C16.5229 20.9328 16.5435 20.8264 16.5787 20.7166C16.5873 20.6898 16.597 20.6627 16.6075 20.6355C16.6118 20.6236 16.6171 20.612 16.6219 20.6C16.6427 20.5498 16.666 20.4994 16.6942 20.4495C16.7006 20.485 16.7074 20.5204 16.7145 20.5561L16.7168 20.5677L16.7166 20.5839L16.7158 20.6548C16.7148 20.7872 16.7163 20.9196 16.7204 21.052C16.7302 21.3717 16.7577 21.7575 16.8268 22.0862C16.8268 22.0862 16.8398 21.4884 16.941 21.4208C16.941 21.4208 17.1179 22.5278 17.2821 22.9457C17.3034 22.9998 17.3246 23.043 17.345 23.07L17.3408 22.9602L17.3174 22.3449C17.3174 22.3449 17.3184 22.3219 17.3207 22.2817C17.4505 22.5464 17.591 22.8057 17.742 23.059C17.7859 23.1326 17.8307 23.2066 17.8772 23.2814C17.573 23.5489 17.2918 23.9274 17.0899 24.38C17.0573 24.4531 17.0272 24.5272 16.9994 24.6023C16.9502 24.7375 16.9088 24.8754 16.8754 25.0153C16.8718 25.0303 16.868 25.0453 16.8648 25.0605C16.8544 25.1066 16.8446 25.1528 16.8359 25.1999L16.8352 25.2042C16.8267 25.2512 16.8192 25.2988 16.8126 25.3467C16.8104 25.3621 16.8084 25.3777 16.8067 25.393C16.8022 25.4272 16.7984 25.4615 16.7951 25.4959C16.7933 25.5133 16.7918 25.5307 16.7903 25.5484C16.7874 25.5833 16.7851 25.6182 16.7834 25.6531C16.7796 25.7198 16.7777 25.7866 16.7778 25.8534L16.778 25.86C16.778 25.8994 16.7791 25.9387 16.7806 25.9784C16.7823 26.0184 16.7847 26.0584 16.7876 26.0987L16.7886 26.1149L16.7892 26.125C16.793 26.1739 16.7983 26.2228 16.8042 26.2722C16.8061 26.2879 16.8088 26.3034 16.8109 26.3192C16.8155 26.3528 16.8201 26.3867 16.8259 26.4207C16.8289 26.4394 16.8326 26.4587 16.8358 26.4774C16.8417 26.5086 16.8474 26.5396 16.8541 26.5708C16.8584 26.5909 16.863 26.6109 16.8673 26.631C16.8862 26.7134 16.9078 26.7951 16.9321 26.876C16.9382 26.8961 16.9443 26.9165 16.9507 26.9367C16.9609 26.9685 16.9719 27.0006 16.9829 27.0324C16.9896 27.0515 16.996 27.0706 17.003 27.0898C17.0159 27.1251 17.0298 27.1604 17.0441 27.1957C17.0504 27.2116 17.0562 27.2273 17.0629 27.2432C17.1065 27.348 17.1545 27.4509 17.2067 27.5517C17.2148 27.5668 17.2234 27.5822 17.2314 27.5975C17.2507 27.6336 17.2704 27.6697 17.2908 27.7058C17.3017 27.7246 17.313 27.7434 17.3244 27.7625C17.3437 27.795 17.3631 27.8277 17.3838 27.8603C17.3963 27.8804 17.4095 27.9007 17.4225 27.9209C17.4569 27.9736 17.4923 28.0257 17.5286 28.0771C17.5505 28.1082 17.5733 28.1394 17.5968 28.1704C17.612 28.1909 17.6271 28.2113 17.6427 28.2318C17.6675 28.2637 17.6927 28.2955 17.7188 28.3273C17.7343 28.3467 17.7498 28.3662 17.7658 28.3855C17.7948 28.4201 17.825 28.4549 17.8555 28.4894C17.8699 28.5058 17.8834 28.5221 17.898 28.5383C17.9438 28.5891 17.9906 28.6398 18.0396 28.6903L18.0394 28.69C18.0152 28.6537 17.9928 28.6161 17.9725 28.5775L17.9711 28.5752C17.964 28.5619 17.9565 28.5472 17.9488 28.5316L17.9463 28.5274C17.9378 28.5102 17.9296 28.4928 17.9216 28.4754L17.9198 28.4723C17.9105 28.4518 17.9015 28.4312 17.8928 28.4104C17.8207 28.2371 17.7506 27.9964 17.7597 27.728C17.7876 27.7654 17.816 27.8014 17.8442 27.8381C17.9004 27.9522 17.9587 28.0653 18.0188 28.1774C18.0966 28.3215 18.1783 28.4634 18.2638 28.603C18.3726 28.7791 18.4921 28.9554 18.6156 29.1075L18.6154 29.1073C18.6148 29.1063 18.4717 28.8075 18.4238 28.6115C18.4103 28.5564 18.404 28.5091 18.4109 28.4793L18.4455 28.5149C18.457 28.5269 18.4686 28.5385 18.4802 28.5505C18.503 28.5808 18.5319 28.6191 18.5641 28.6615L18.5805 28.6829C18.5965 28.7039 18.613 28.7258 18.6308 28.749L18.6318 28.7503L18.6961 28.8336C18.8975 29.0925 19.1654 29.4233 19.3565 29.6051C19.4202 29.6657 19.4753 29.7098 19.5166 29.7288L19.2409 29.2349C19.8649 29.7427 22.4398 30.3947 24.9764 29.6669C25.2877 29.5781 25.5928 29.4689 25.8897 29.3399C26.0736 29.2606 26.254 29.1734 26.4304 29.0787L26.4563 29.0643C26.5824 28.9951 26.7063 28.9222 26.8279 28.8455L26.8306 28.8438C27.0824 28.6852 27.3236 28.5104 27.5526 28.3204L27.553 28.3202L27.5536 28.3197C27.562 28.3123 27.5707 28.305 27.5795 28.2976C27.7209 28.1741 27.8566 28.0442 27.9861 27.9081C28.1465 27.739 28.2972 27.5609 28.4374 27.3746L28.4473 27.3618C28.4803 27.3175 28.5128 27.2735 28.5442 27.2298L28.5531 27.217C28.5633 27.2021 28.5724 27.1878 28.5825 27.1731C28.626 27.111 28.6685 27.0482 28.71 26.9847L28.7393 26.9393C28.7603 26.9062 28.7806 26.8731 28.8008 26.8404C28.816 26.8147 28.8317 26.7891 28.8464 26.7637C28.8629 26.7359 28.8794 26.7082 28.8955 26.6807C28.9236 26.6313 28.9511 26.5817 28.9781 26.5317C28.9886 26.5122 28.9984 26.4931 29.0086 26.4738C29.0289 26.4354 29.0487 26.3975 29.0675 26.3599C29.0762 26.3424 29.085 26.3249 29.0935 26.3075L29.1012 26.291C29.1243 26.2444 29.1469 26.1975 29.1689 26.1503L29.173 26.1404C29.245 26.0741 29.3107 26.0012 29.369 25.9226C29.3764 25.9127 29.3841 25.9028 29.3909 25.893C29.5039 25.7298 29.541 25.5855 29.543 25.4559ZM14.3897 23.6221C14.3874 23.6106 14.3854 23.5991 14.3834 23.5877L14.3854 23.5869C14.3555 23.4206 14.3327 23.253 14.3171 23.0847C14.3161 23.0725 14.3144 23.0607 14.3131 23.0486C14.2849 23.0574 14.253 23.0948 14.221 23.1458C14.2085 23.1661 14.1967 23.1868 14.1856 23.2079C14.0998 23.3689 14.0226 23.5922 14.0226 23.5922C14.029 23.5155 14.0368 23.4389 14.046 23.3625C14.047 23.3534 14.0483 23.3446 14.0495 23.3354C14.059 23.2563 14.07 23.1764 14.0817 23.0971C14.0831 23.0874 14.0846 23.078 14.086 23.0686C14.0997 22.9791 14.1142 22.8902 14.1293 22.8044L14.1351 22.7714L14.1363 22.7657L14.1415 22.7359C14.1559 22.6557 14.171 22.5756 14.1869 22.4957C14.198 22.4394 14.2089 22.386 14.2193 22.3359L14.2226 22.3197C14.2242 22.3118 14.2259 22.3046 14.2274 22.2971C14.229 22.2898 14.2305 22.2822 14.232 22.2745L14.2326 22.2719C14.2353 22.2593 14.2382 22.2465 14.2407 22.2346L14.2415 22.2313C14.2438 22.2195 14.2461 22.2095 14.2484 22.1985C14.2523 22.1812 14.2559 22.1636 14.2596 22.1474L14.2606 22.143C14.2635 22.1298 14.2662 22.1166 14.269 22.1046C14.2729 22.0874 14.2766 22.0716 14.2797 22.0566L14.2798 22.0562L14.2801 22.0558C14.2819 22.0472 14.2837 22.0398 14.2855 22.0319L14.2859 22.0305C14.2876 22.0233 14.2892 22.0158 14.2907 22.0094L14.3003 21.9683L14.3027 21.9585L14.3036 21.9549L14.3063 21.9434L14.3082 21.9354L14.3086 21.9342L14.3073 21.9353L14.29 21.9509C14.2747 21.9646 14.2591 21.9778 14.2448 21.9928L14.229 22.0102C14.2119 22.0292 14.1957 22.0491 14.1806 22.0698L14.1725 22.0799C14.1535 22.1063 14.1359 22.134 14.1192 22.1622V22.1622L14.117 22.166V22.1661L14.1101 22.1787C14.1062 22.1855 14.1026 22.1926 14.0989 22.1995C14.0893 22.2172 14.0792 22.2343 14.0705 22.2521L14.0701 22.2527L14.0698 22.2533L14.0694 22.2548L14.066 22.2615L14.0629 22.2682C14.0496 22.2958 14.0371 22.3237 14.0253 22.3519C13.9879 22.4412 13.9562 22.5328 13.9305 22.6262C13.9194 22.6661 13.9117 22.6973 13.9082 22.7125L13.9081 22.7138L13.9056 22.7241L13.9066 22.7121C13.9079 22.6884 13.9106 22.6648 13.9125 22.6413C13.9161 22.5919 13.9193 22.5421 13.9247 22.4929C13.9291 22.4515 13.9354 22.411 13.9413 22.3699L13.9471 22.3315C13.9495 22.3125 13.9522 22.2935 13.9553 22.2747C13.958 22.2572 13.9619 22.2399 13.9652 22.2226L13.9654 22.2213L13.9691 22.2019L13.9702 22.1966C13.9755 22.1672 13.981 22.1378 13.9867 22.1084L13.9897 22.0938L13.9903 22.0911L13.9947 22.0704C13.9963 22.0617 13.9988 22.0533 14.0005 22.0451C14.0075 22.0141 14.015 21.9838 14.0223 21.9532L14.0235 21.9481C14.0289 21.9253 14.0338 21.9024 14.0397 21.8799L14.0398 21.8789L14.0404 21.8775L14.0422 21.8709C14.0542 21.8247 14.0675 21.7796 14.0808 21.7341L14.0877 21.7091C14.0902 21.7007 14.0924 21.6918 14.0951 21.6834C14.117 21.6097 14.1405 21.5368 14.1654 21.4657L14.1686 21.4568C14.19 21.3963 14.2116 21.3368 14.2343 21.2781L14.2368 21.2714C14.2471 21.2456 14.2577 21.2209 14.2677 21.1953L14.2694 21.1916C14.2849 21.1536 14.3001 21.1153 14.316 21.0785V21.078L14.3163 21.0775L14.3181 21.0728C14.3223 21.0636 14.3321 21.0413 14.3474 21.0083L14.3476 21.0077L14.3497 21.0032C14.3556 20.9902 14.3613 20.9776 14.367 20.9644L14.3951 20.902L14.4034 20.884L14.4036 20.8832L14.5643 20.5943C14.571 20.5821 14.5776 20.5701 14.584 20.5579L14.5874 20.5521L14.5956 20.5373C14.6131 20.5052 14.6307 20.4729 14.6478 20.4418L14.7215 20.3091C14.7687 20.2241 14.8091 20.1521 14.8337 20.1086C14.8421 20.0937 14.8505 20.0788 14.8587 20.0638L14.8599 20.0616H14.8597L14.8591 20.0611L14.8577 20.06C14.8514 20.0558 14.8027 20.0221 14.7223 19.9735C14.546 19.8676 14.362 19.7751 14.1719 19.6968C14.101 19.6675 14.0292 19.6406 13.9566 19.6161C13.9373 19.6098 13.917 19.6046 13.8975 19.5985C13.8348 19.5787 13.7705 19.5609 13.7047 19.5453L13.7009 19.5444C13.6557 19.5335 13.6108 19.5222 13.5645 19.5137C13.528 19.5065 13.4914 19.5003 13.4547 19.495C13.437 19.4925 13.4188 19.4911 13.4011 19.4895L13.3482 19.4841C13.2984 19.4799 13.2484 19.4773 13.1984 19.4762C13.1741 19.4757 13.1498 19.4749 13.1255 19.4754C13.0167 19.4779 12.9098 19.4875 12.8048 19.5025L12.7857 19.5054C12.5993 19.5331 12.4164 19.5806 12.24 19.647C12.181 19.6693 12.1228 19.6932 12.0657 19.7194C12.0494 19.7271 12.0333 19.7348 12.0173 19.7428C11.9977 19.7523 11.9778 19.7616 11.9585 19.7715C11.787 19.8601 11.6255 19.9669 11.477 20.0902L11.4717 20.0945C11.3076 20.2306 11.1604 20.3857 11.0332 20.5567C10.9996 20.6015 10.9673 20.6473 10.9365 20.6941C10.8784 20.7831 10.8256 20.8753 10.7783 20.9705C10.7617 21.0041 10.7453 21.0378 10.7301 21.0721C10.7272 21.0785 10.7246 21.0853 10.7219 21.0918C10.6226 21.3188 10.5554 21.5585 10.5221 21.804C10.5153 21.8532 10.5099 21.9026 10.5058 21.9522L10.5044 21.9708C10.4979 22.0594 10.4957 22.1482 10.4978 22.237C10.4979 22.245 10.4987 22.2525 10.4989 22.2603C10.5001 22.2986 10.5016 22.3367 10.5044 22.3746L10.5066 22.3946L10.509 22.4208C10.5114 22.4508 10.5143 22.4806 10.5178 22.5099L10.519 22.5166V22.5185L10.5192 22.5189C10.5213 22.5336 10.5238 22.5486 10.5259 22.5634C10.5297 22.59 10.5335 22.6168 10.5378 22.6432C10.5414 22.6625 10.5456 22.6813 10.5493 22.7003C10.5542 22.7249 10.5586 22.7498 10.5643 22.7742C10.5688 22.7943 10.5742 22.814 10.5791 22.8336L10.5824 22.8474L10.5879 22.8681L10.5919 22.8837L10.5969 22.9028C10.6026 22.9232 10.6093 22.9437 10.6153 22.964C10.6219 22.9854 10.6282 23.0074 10.6353 23.0284C10.6421 23.0493 10.6498 23.0699 10.6573 23.0906L10.6634 23.1071C10.6686 23.1219 10.6737 23.1369 10.6797 23.1516C10.6878 23.1726 10.6967 23.1934 10.7053 23.2144C10.7133 23.2333 10.7212 23.2526 10.7295 23.2715C10.7343 23.2823 10.7394 23.293 10.7443 23.3033C10.7495 23.3138 10.7542 23.3244 10.759 23.3348C10.7776 23.3746 10.7975 23.4138 10.8187 23.4523C10.8277 23.469 10.8363 23.4856 10.8455 23.5021C10.8577 23.5238 10.8707 23.5452 10.8836 23.5667C10.8927 23.5817 10.9016 23.597 10.911 23.6122C10.9248 23.6341 10.9391 23.6552 10.9536 23.6766C10.9629 23.6908 10.9722 23.7048 10.9817 23.7186C10.997 23.7403 11.0128 23.7618 11.0287 23.7834C11.0543 23.8185 11.0811 23.8528 11.1089 23.8862C11.118 23.8976 11.127 23.9091 11.1368 23.9202C11.1551 23.942 11.1742 23.9634 11.1935 23.9848C11.2024 23.9948 11.2115 24.0048 11.2209 24.0149C11.2408 24.0367 11.2615 24.0582 11.2825 24.0789C11.2916 24.0877 11.3001 24.0968 11.3091 24.1056C11.3393 24.1349 11.37 24.1637 11.4013 24.1919C11.4248 24.2127 11.4488 24.2333 11.4733 24.2536C11.4814 24.2602 11.4892 24.2671 11.4973 24.2736C11.5227 24.2944 11.5486 24.3142 11.5746 24.3341C11.582 24.3395 11.5898 24.3454 11.597 24.351C11.6243 24.3708 11.6517 24.3902 11.6796 24.4093L11.7003 24.4234C11.7292 24.4427 11.7584 24.4616 11.788 24.4797L11.8069 24.4911C11.8374 24.5098 11.8687 24.5272 11.9001 24.5447L11.9163 24.5538C11.9489 24.5714 11.9819 24.5881 12.0149 24.6044L12.0291 24.6112C12.0633 24.6277 12.0977 24.6433 12.1326 24.6585L12.145 24.6639C12.1807 24.6788 12.2168 24.6931 12.253 24.7069L12.2632 24.7105C12.3007 24.7242 12.3381 24.7373 12.3763 24.7495L12.384 24.752C12.4026 24.7578 12.4216 24.7627 12.4403 24.7683C12.4607 24.7742 12.4811 24.7806 12.5017 24.7862L12.5075 24.7878C12.5479 24.7983 12.5886 24.8079 12.6295 24.8167L12.6331 24.8177C12.6333 24.8178 12.6337 24.8178 12.6337 24.8179C12.6751 24.8267 12.717 24.8346 12.7593 24.8412L12.7612 24.8418C12.8925 24.8629 13.0252 24.8743 13.1582 24.8759C13.1903 24.8765 13.2224 24.8768 13.2546 24.8765C13.3606 24.873 13.4662 24.8633 13.5711 24.8474C13.7105 24.8263 13.8483 24.796 13.9838 24.7567C14.2258 24.6865 14.4397 24.5926 14.5675 24.4973C14.5675 24.4973 14.4834 24.1248 14.4123 23.7464C14.4046 23.705 14.3971 23.6636 14.3897 23.6221Z" fill="#6CA7F3"/>
<path d="M25.4167 14.6734L25.4171 14.6736L25.416 14.6729L25.4167 14.6734Z" fill="#856249"/>
<path d="M20.433 9.63099L20.4022 9.25375L20.5911 8.83561L20.6657 8.81886C20.542 8.76146 20.395 8.72047 20.2249 8.69928C19.8841 8.65639 19.4515 8.69581 18.9586 8.82324C18.4656 8.94975 17.913 9.16254 17.3268 9.45449C16.1545 10.0378 14.8493 10.937 13.5934 12.0827C13.168 12.4702 12.7601 12.8763 12.3708 13.3C12.0201 13.6808 11.6871 14.0775 11.3729 14.4889C10.7648 15.287 10.2987 16.0632 10.0011 16.7556C9.8023 17.217 9.67933 17.6409 9.63438 18.0037C9.60123 18.2674 9.60989 18.4981 9.65409 18.6887C9.66836 18.7503 9.68733 18.8064 9.70869 18.8599C9.75315 18.9726 9.81154 19.0697 9.88692 19.1527L10.6468 19.9488L10.7282 20.034L10.7336 20.0283C10.7567 20.0015 10.7805 19.9747 10.8045 19.9485L10.811 19.9416C10.8198 19.9321 10.8289 19.9233 10.8377 19.9143C10.8604 19.8903 10.8836 19.8667 10.907 19.8434C10.9216 19.8289 10.9364 19.8151 10.9513 19.8011C10.9658 19.7874 10.9799 19.7733 10.9945 19.7598C11.0011 19.7538 11.008 19.7483 11.0148 19.7422C11.0302 19.7282 11.0462 19.7145 11.0622 19.7006C11.0975 19.6699 11.1335 19.6401 11.1701 19.611L11.1761 19.6064C11.2154 19.5757 11.2552 19.5457 11.2957 19.5165C11.321 19.4985 11.3468 19.4806 11.3729 19.4632C11.3885 19.4527 11.404 19.4422 11.4197 19.432C11.4463 19.4147 11.4736 19.3978 11.5008 19.3813C11.5167 19.3716 11.5321 19.362 11.5479 19.3529C11.5764 19.3361 11.6054 19.3203 11.6341 19.3045C11.6496 19.2962 11.6647 19.2876 11.6802 19.2794L11.6975 19.2703L11.6985 19.2672C11.8805 18.7635 12.153 18.2168 12.5062 17.6472C12.9402 16.9474 13.4947 16.2136 14.1531 15.4827C14.5836 15.0054 15.0373 14.5495 15.5125 14.1166C16.1475 13.5378 16.7948 13.0213 17.4333 12.5739C17.8439 12.2854 18.2681 12.0166 18.7044 11.7685C18.7438 11.7462 18.7833 11.723 18.8225 11.7014C18.9314 11.6412 19.0412 11.5827 19.1519 11.5258C19.3806 11.4071 19.6133 11.2963 19.8496 11.1935L19.7382 11.0598L19.7197 11.0378L18.797 9.92806L18.8041 9.25202L18.7955 9.24221L19.35 9.07684L20.433 9.63099Z" fill="#6398DD"/>
<path d="M29.5431 25.4559L29.5434 25.4558C29.5434 25.4558 29.5625 25.3124 29.4867 25.1842L29.4851 25.1806C29.4807 25.1733 29.4761 25.1661 29.4711 25.1592L29.4661 25.1518C29.4572 25.1403 29.4477 25.1293 29.4374 25.119C29.4178 25.0983 29.3956 25.0802 29.3714 25.0649C29.3574 25.0558 29.3429 25.0476 29.3278 25.0403C29.2848 25.0197 29.2333 25.0042 29.1721 24.9952C29.1219 24.9886 29.0712 24.9864 29.0206 24.9886C28.9981 24.9892 28.9759 24.9897 28.9516 24.992L28.9406 24.9927L28.9446 25.0075L28.9554 25.048L28.961 25.0703C28.9689 25.102 28.9785 25.1423 28.9882 25.1878C28.9853 25.1966 28.9819 25.2053 28.9781 25.2137L28.9744 25.2225C28.9465 25.2874 28.8707 25.437 28.7019 25.6316C28.6731 25.6646 28.6413 25.6992 28.6072 25.7349C28.1362 26.2215 27.1168 26.9144 24.9725 27.302C24.2448 27.4047 23.5739 27.4103 23.0009 27.3391C22.1535 27.2337 21.5187 26.963 21.2233 26.599C21.1978 26.5677 21.1742 26.5355 21.1519 26.503C21.1355 26.4792 21.1198 26.4549 21.1049 26.4301C21.0996 26.4211 21.0947 26.4119 21.0896 26.4029C20.9684 26.1876 20.9065 25.944 20.9105 25.6969C20.9146 25.4093 21.0043 25.134 21.1562 24.9225C21.2794 24.751 21.4432 24.6213 21.6349 24.5614C21.7318 24.5311 21.8335 24.5191 21.9348 24.5261C21.9561 24.5276 21.9843 24.5306 22.0194 24.535C22.0899 24.5438 22.1883 24.5576 22.3089 24.5731L22.3492 24.5783C22.7517 24.6282 23.3925 24.6888 24.1674 24.6414C25.5774 24.5556 27.4331 24.1119 29.1182 22.5924L29.1229 22.5864V22.5838C29.1285 22.4565 29.1115 22.2267 28.9507 22.0479C28.9211 22.0152 28.8882 21.9856 28.8525 21.9596C28.8307 21.9434 28.808 21.9286 28.7844 21.9151C28.7597 21.9014 28.737 21.8875 28.7151 21.8736C28.6868 21.856 28.6591 21.8374 28.6322 21.8177L28.6285 21.8123C28.6171 21.7945 28.605 21.7772 28.5934 21.7594C28.1563 21.0973 27.5541 20.7131 27.314 20.537C27.2007 20.4537 27.1286 20.4158 27.1286 20.4158C26.6086 20.0991 26.5324 19.994 26.581 19.1338C26.5983 18.824 26.6319 18.4169 26.6665 17.8649C26.6707 17.796 26.6734 17.727 26.6745 17.6579C26.6748 17.6418 26.6751 17.6263 26.6751 17.6105C26.6757 17.5489 26.6748 17.4874 26.6725 17.4258L26.6719 17.4088L26.6705 17.3905C26.6668 17.3257 26.6616 17.2609 26.6551 17.1963C26.6502 17.1504 26.644 17.1046 26.6366 17.059C26.633 17.0364 26.6285 17.0146 26.6244 16.9926C26.6198 16.9683 26.6149 16.9441 26.6095 16.9199C26.6046 16.8967 26.5993 16.8736 26.5936 16.8506L26.5934 16.8504L26.5936 16.8502V16.8504C26.5866 16.8227 26.5785 16.7964 26.5709 16.7702C26.5681 16.7605 26.5658 16.7505 26.5627 16.7413C26.5598 16.7324 26.5567 16.7243 26.5539 16.7154L26.5509 16.7067L26.5421 16.6814L26.5418 16.6798C26.5346 16.6594 26.527 16.6396 26.5197 16.6204L26.5173 16.614L26.5098 16.5957L26.5008 16.5731L26.4987 16.5689V16.5683C26.483 16.5318 26.4668 16.4964 26.4495 16.4633L26.4357 16.4388C26.4165 16.4073 26.3963 16.3765 26.3752 16.3463L26.3669 16.334L26.3566 16.3204C26.3418 16.3001 26.3269 16.2803 26.3121 16.2617L26.2917 16.2362C26.2723 16.213 26.2524 16.1904 26.2318 16.1683V16.1681C26.208 16.1429 26.1832 16.1185 26.1576 16.0951C26.13 16.0778 26.1015 16.0618 26.0724 16.0472C26.0632 16.0424 26.0539 16.0388 26.0444 16.0347C26.026 16.0259 26.0073 16.0179 25.9883 16.0106C25.9773 16.0065 25.9667 16.0032 25.9559 15.9995C25.9391 15.9939 25.9222 15.9888 25.9051 15.9842C25.894 15.9815 25.8828 15.9791 25.8716 15.9769C25.8443 15.9709 25.8168 15.9668 25.789 15.9643C25.7728 15.9627 25.7565 15.962 25.7404 15.9613C25.7295 15.961 25.7186 15.9608 25.7078 15.961C25.6911 15.9613 25.6745 15.9621 25.658 15.9635C25.6478 15.9643 25.6375 15.9651 25.6274 15.9662L25.6052 15.9695C25.595 15.9713 25.5849 15.9724 25.5744 15.9745C25.5656 15.9759 25.5566 15.9774 25.5478 15.9792C25.5272 15.9835 25.5067 15.9888 25.4864 15.9947L25.4685 15.9993C25.4149 16.0153 25.3613 16.0358 25.3084 16.0599L25.2906 16.0683C25.27 16.0778 25.2494 16.0878 25.2287 16.0983L25.2049 16.1111C25.1862 16.1209 25.1675 16.1312 25.1489 16.1416L25.1235 16.1565C25.1051 16.1672 25.0867 16.1781 25.0683 16.1895L25.0433 16.2049C25.0241 16.2169 25.0048 16.2292 24.9855 16.2418L24.9643 16.2557C24.9426 16.2699 24.9207 16.2844 24.899 16.2992L24.8859 16.3079C24.8615 16.3246 24.8366 16.3417 24.8117 16.3589L24.8109 16.3596L24.8071 16.3619H24.8073C24.761 16.3938 24.7148 16.4263 24.6679 16.4588C24.6288 16.4861 24.5888 16.5134 24.5488 16.5406L24.5295 16.5538C24.4891 16.581 24.4482 16.6075 24.4072 16.6338L24.3866 16.6467C24.3454 16.6723 24.3041 16.6973 24.2623 16.7209L24.2404 16.7331C24.1985 16.7566 24.156 16.7789 24.1128 16.7999L24.0914 16.81C24.0478 16.8306 24.0034 16.85 23.9585 16.8669L23.9399 16.874C23.8936 16.8912 23.8465 16.9063 23.7987 16.9191L23.7862 16.922C23.7357 16.935 23.6851 16.9454 23.6331 16.9525C23.5461 16.9635 23.4586 16.9689 23.371 16.9685C23.2271 16.9687 23.0834 16.9579 22.9411 16.9362C22.8928 16.9288 22.8446 16.9206 22.7966 16.9117C22.7794 16.9084 22.7624 16.9058 22.7455 16.9025C22.6201 16.8781 22.4939 16.849 22.3669 16.8184C22.3135 16.8057 22.2602 16.7929 22.2066 16.7798C22.1206 16.7589 22.0336 16.7386 21.9466 16.7188C21.9294 16.7148 21.9128 16.7105 21.8953 16.7067L21.8961 16.7066L21.8593 16.6988C21.84 16.6946 21.8207 16.6905 21.8015 16.6861L21.7462 16.6752L21.7366 16.6732L21.7301 16.6719L21.6793 16.6619C21.6399 16.6545 21.6001 16.6474 21.5604 16.6408C21.5486 16.6387 21.5367 16.6372 21.5251 16.6354C21.4957 16.6307 21.4662 16.6264 21.4367 16.6223C21.4218 16.6202 21.4067 16.6188 21.392 16.6169L21.3887 16.6166C21.363 16.6133 21.3372 16.6103 21.3114 16.6077C21.2943 16.6061 21.277 16.6046 21.2601 16.603C21.2524 16.6024 21.2447 16.602 21.2368 16.6013C21.2193 16.6 21.2015 16.5985 21.1837 16.5976C21.1399 16.5945 21.096 16.5928 21.0521 16.5924C21.044 16.5924 21.0359 16.5923 21.0279 16.5921C21.0204 16.592 21.0128 16.5917 21.0053 16.5917C20.9716 16.5918 20.9379 16.5925 20.9042 16.594C20.8955 16.5943 20.8862 16.5942 20.8773 16.5948C20.8341 16.5967 20.7909 16.5999 20.7479 16.6045C20.7367 16.6056 20.7255 16.6074 20.7141 16.6084C20.6861 16.6117 20.658 16.6155 20.63 16.6198L20.6174 16.6216C20.602 16.6239 20.5865 16.6268 20.5712 16.6296C20.5423 16.6348 20.5138 16.6404 20.4849 16.6466C20.4683 16.6503 20.4517 16.654 20.4351 16.6582C20.4067 16.6649 20.378 16.6726 20.3493 16.6807C20.3013 16.6937 20.2539 16.7088 20.2072 16.7258C20.1931 16.7308 20.1791 16.7351 20.165 16.7406C20.119 16.7575 20.0735 16.776 20.0288 16.7959C19.6714 17.0017 19.3644 17.2825 19.1204 17.61C19.0391 17.7192 18.9648 17.8334 18.8979 17.9519C18.8274 18.0774 18.7654 18.2073 18.7123 18.341C18.6704 18.4454 18.6339 18.5519 18.6031 18.6602C18.6011 18.6673 18.5995 18.6748 18.5975 18.6821C18.5546 18.8385 18.5243 18.998 18.5068 19.1592C18.5018 19.2037 18.4974 19.248 18.4944 19.2926C18.4871 19.4124 18.4872 19.5325 18.4948 19.6523C18.4952 19.6631 18.4962 19.6742 18.497 19.6849C18.499 19.7156 18.5001 19.7459 18.5034 19.7767C18.5122 19.862 18.5244 19.9473 18.5415 20.0319C18.5475 20.0633 18.556 20.0926 18.5635 20.1228C18.5706 20.1517 18.577 20.1814 18.5847 20.2095V20.2093C18.6419 20.4151 18.7253 20.6126 18.8327 20.7971C19.2221 21.4698 19.8622 21.8721 20.3261 22.0879C20.5103 22.169 20.6987 22.2401 20.8905 22.3011C20.8905 22.3011 20.8812 22.3068 20.867 22.3165C20.7482 22.3468 20.6306 22.3815 20.5145 22.4206C20.4074 22.4567 20.3017 22.4963 20.1973 22.5394C19.8963 22.6641 19.5545 22.8415 19.2518 23.0865C19.2138 23.1171 19.1766 23.1487 19.1401 23.1814C19.0778 23.2378 19.0182 23.2972 18.9617 23.3594C18.9552 23.3665 18.9483 23.3732 18.9421 23.3804C18.9334 23.39 18.9249 23.3999 18.9165 23.4097C18.895 23.4348 18.8736 23.4605 18.853 23.4867L18.8283 23.5182C18.8011 23.5542 18.7744 23.5906 18.7493 23.6285C18.7246 23.6656 18.7009 23.7039 18.6785 23.7428C18.499 24.056 18.3973 24.4311 18.4285 24.8784L18.4294 24.8738L18.43 24.8705L18.4333 24.8538L18.4343 24.8501C18.4356 24.8433 18.4376 24.8352 18.4397 24.8265L18.4409 24.8209C18.4434 24.8108 18.4462 24.799 18.4495 24.7863L18.4518 24.7781L18.464 24.7339H18.4642C18.4686 24.7182 18.4741 24.7013 18.4797 24.6839L18.4832 24.6733C18.4891 24.6555 18.4955 24.637 18.5025 24.6179L18.5062 24.6088C18.5127 24.5906 18.52 24.5722 18.5278 24.553L18.5315 24.5442C18.54 24.5236 18.5494 24.5023 18.5592 24.4807L18.5654 24.4672C18.5759 24.4451 18.5865 24.4226 18.5984 24.3999L18.6 24.3972C18.6177 24.3633 18.6377 24.3288 18.659 24.294C18.667 24.2808 18.6746 24.2677 18.6835 24.2545L18.6903 24.2435L18.6905 24.2432C18.7244 24.1921 18.7615 24.143 18.8013 24.0963C18.8071 24.0895 18.8133 24.0828 18.8194 24.0759C18.834 24.0594 18.8493 24.0429 18.8651 24.0268C18.8717 24.0203 18.878 24.0136 18.8845 24.0072C18.9062 23.986 18.9284 23.9653 18.952 23.9453L18.954 23.9434C18.954 23.9434 18.5465 24.8649 18.7237 25.5957C18.7237 25.5957 18.7235 25.5935 18.7235 25.5896V25.5851C18.7234 25.581 18.7234 25.5764 18.7234 25.5701C18.7234 25.5689 18.7234 25.5675 18.7232 25.5661C18.7234 25.5587 18.7234 25.55 18.7237 25.5396C18.7237 25.5383 18.7237 25.5371 18.7239 25.5355C18.7239 25.5248 18.7247 25.5127 18.7252 25.4992L18.7254 25.4954C18.7272 25.4615 18.7299 25.4277 18.7333 25.394L18.7338 25.3896C18.7357 25.3712 18.7383 25.3521 18.741 25.3321C18.7412 25.3303 18.7416 25.3285 18.7418 25.3267C18.7449 25.3055 18.7484 25.2835 18.7526 25.2608L18.7535 25.2555L18.7557 25.2441V25.2436C18.7606 25.218 18.7667 25.1919 18.7734 25.1656C18.7739 25.1639 18.7743 25.162 18.7747 25.1603C18.7816 25.1345 18.789 25.1083 18.7973 25.0821L18.8051 25.058L18.8107 25.0413V25.0409C18.8185 25.0194 18.8269 24.9978 18.836 24.9764L18.8374 24.9729L18.8375 24.9727C18.8539 24.9347 18.8728 24.8977 18.8939 24.862C18.9108 24.8334 18.9286 24.8055 18.9487 24.779L18.9495 24.7777C18.9495 24.7777 18.9262 25.0046 18.9323 25.2747C18.9343 25.3475 18.9384 25.4203 18.9444 25.4929C18.9444 25.493 18.9444 25.4931 18.9445 25.4932C18.9325 25.6854 18.9359 25.8782 18.9545 26.0698C18.9869 26.4018 19.0658 26.7531 19.2048 27.1229C19.2048 27.1229 19.0773 26.6977 19.2608 26.2724C19.2774 26.3111 19.2952 26.35 19.3136 26.3893C19.3287 26.5155 19.3542 26.6946 19.3913 26.8919C19.4268 27.2206 19.5841 28.2067 20.254 28.9003C20.254 28.9003 20.0008 28.5717 20.0401 28.144C20.0665 28.2002 20.0928 28.2509 20.1177 28.2945C20.2323 28.5091 20.4603 28.9086 20.7088 29.1855C20.7088 29.1855 20.5071 28.795 20.5541 28.7109C20.5541 28.7109 21.2115 29.5284 21.4207 29.6081L21.1457 29.1522L21.1395 29.1388C22.0948 29.8315 23.4055 30.0887 25.0266 29.6372C25.3198 29.5548 25.608 29.4555 25.8898 29.3399C26.0737 29.2606 26.2541 29.1734 26.4305 29.0787L26.4564 29.0643C26.5824 28.9951 26.7064 28.9222 26.8279 28.8455L26.8307 28.8438C27.0825 28.6852 27.3236 28.5104 27.5526 28.3204L27.5531 28.3202L27.5536 28.3197C27.562 28.3123 27.5707 28.305 27.5795 28.2976C27.721 28.1741 27.8567 28.0442 27.9861 27.9082C28.1466 27.739 28.2973 27.5609 28.4374 27.3746L28.4473 27.3618C28.4804 27.3175 28.5128 27.2735 28.5442 27.2298L28.5531 27.217C28.5634 27.2021 28.5724 27.1878 28.5826 27.1731C28.6261 27.111 28.6685 27.0482 28.71 26.9847L28.7394 26.9393C28.7604 26.9063 28.7806 26.8731 28.8008 26.8404C28.8161 26.8147 28.8317 26.7891 28.8465 26.7637C28.863 26.7359 28.8795 26.7082 28.8956 26.6807C28.9236 26.6313 28.9512 26.5817 28.9781 26.5317C28.9886 26.5122 28.9985 26.4931 29.0086 26.4738C29.0289 26.4354 29.0487 26.3975 29.0675 26.3599C29.0763 26.3424 29.0851 26.3249 29.0936 26.3075L29.1013 26.291C29.1244 26.2444 29.147 26.1975 29.169 26.1503L29.1731 26.1404C29.2451 26.0741 29.3107 26.0012 29.3691 25.9226C29.3765 25.9127 29.3841 25.9028 29.3909 25.893C29.504 25.7298 29.541 25.5855 29.5431 25.4559ZM14.3131 23.0486C14.2849 23.0574 14.2531 23.0948 14.2211 23.1458C14.2086 23.1661 14.1967 23.1868 14.1856 23.2079C14.0999 23.3689 14.0227 23.5922 14.0227 23.5922C14.0291 23.5155 14.0369 23.4389 14.046 23.3625C14.0471 23.3534 14.0484 23.3446 14.0495 23.3355C14.059 23.2563 14.0701 23.1764 14.0818 23.0971C14.0831 23.0875 14.0847 23.078 14.0861 23.0686C14.0998 22.9791 14.1143 22.8902 14.1294 22.8044L14.1352 22.7714L14.1363 22.7657L14.1416 22.7359C14.1559 22.6557 14.1711 22.5756 14.187 22.4957C14.1981 22.4394 14.209 22.386 14.2194 22.3359L14.2227 22.3197C14.2242 22.3118 14.226 22.3046 14.2274 22.2971C14.2291 22.2898 14.2306 22.2822 14.2321 22.2745L14.2326 22.2719C14.2354 22.2593 14.2382 22.2465 14.2407 22.2346L14.2415 22.2313C14.2439 22.2195 14.2462 22.2095 14.2485 22.1985C14.2524 22.1812 14.256 22.1636 14.2596 22.1474L14.2606 22.143C14.2636 22.1298 14.2663 22.1166 14.269 22.1046C14.273 22.0875 14.2766 22.0716 14.2797 22.0566L14.2799 22.0562L14.2801 22.0558C14.282 22.0472 14.2838 22.0398 14.2856 22.0319L14.2859 22.0305C14.2877 22.0233 14.2892 22.0158 14.2908 22.0094L14.3004 21.9683L14.3027 21.9585L14.3037 21.9549L14.3064 21.9434L14.3083 21.9354L14.3087 21.9342L14.3074 21.9353L14.29 21.951C14.2748 21.9646 14.2591 21.9778 14.2448 21.9929L14.2291 22.0102C14.2119 22.0292 14.1957 22.0491 14.1806 22.0698L14.1725 22.0799C14.1535 22.1063 14.136 22.1341 14.1192 22.1622V22.1623L14.117 22.166V22.1661L14.1102 22.1787C14.1063 22.1855 14.1027 22.1926 14.099 22.1995C14.0893 22.2172 14.0792 22.2343 14.0706 22.2521L14.0702 22.2527L14.0698 22.2533L14.0694 22.2548L14.066 22.2615L14.0629 22.2682C14.0497 22.2958 14.0372 22.3237 14.0254 22.3519C13.9879 22.4412 13.9562 22.5329 13.9305 22.6263C13.9195 22.6661 13.9117 22.6973 13.9083 22.7125L13.9081 22.7138L13.9056 22.7241L13.9066 22.7121C13.9079 22.6884 13.9107 22.6649 13.9126 22.6413C13.9162 22.5919 13.9193 22.5421 13.9248 22.4929C13.9291 22.4515 13.9355 22.411 13.9413 22.3699L13.9471 22.3315C13.9496 22.3125 13.9522 22.2936 13.9554 22.2748C13.9581 22.2572 13.962 22.2399 13.9653 22.2226L13.9654 22.2213L13.9691 22.2019L13.9702 22.1966C13.9756 22.1672 13.9811 22.1378 13.9868 22.1084L13.9898 22.0938L13.9903 22.0911L13.9947 22.0704C13.9964 22.0617 13.9988 22.0533 14.0006 22.0451C14.0076 22.0141 14.0151 21.9838 14.0223 21.9532L14.0236 21.9481C14.0289 21.9253 14.0339 21.9024 14.0397 21.8799L14.0399 21.879L14.0405 21.8775L14.0423 21.8709C14.0542 21.8247 14.0675 21.7796 14.0808 21.7341L14.0877 21.7091C14.0903 21.7007 14.0924 21.6918 14.0952 21.6834C14.117 21.6097 14.1405 21.5369 14.1654 21.4657L14.1686 21.4568C14.1901 21.3963 14.2117 21.3368 14.2344 21.2781L14.2368 21.2715C14.2472 21.2456 14.2577 21.2209 14.2678 21.1953L14.2694 21.1916C14.2849 21.1536 14.3002 21.1153 14.316 21.0785V21.078L14.3164 21.0775L14.3182 21.0729C14.3224 21.0636 14.3322 21.0413 14.3474 21.0083L14.3477 21.0077L14.3498 21.0032C14.3557 20.9902 14.3613 20.9776 14.3671 20.9644L14.3951 20.902L14.4034 20.884C14.3902 20.8768 14.3765 20.8705 14.3629 20.8636L14.3552 20.8598L14.3408 20.8526C14.252 20.8101 14.1593 20.7763 14.0641 20.7517L14.0488 20.7479C13.9502 20.7233 13.8493 20.7087 13.7478 20.7042C13.7162 20.7028 13.6846 20.7025 13.653 20.7031C13.6052 20.7041 13.5582 20.7082 13.5118 20.7133C13.497 20.7152 13.4827 20.7177 13.4684 20.7196C13.4454 20.7231 13.4227 20.7275 13.3999 20.7317C13.3911 20.7336 13.3818 20.7346 13.3729 20.7366C13.326 20.7465 13.2795 20.7587 13.2338 20.7731C13.2198 20.7776 13.2058 20.7811 13.1921 20.7859C13.1513 20.8003 13.1113 20.8159 13.0721 20.8333C13.0564 20.8403 13.042 20.8483 13.0267 20.8555C13.0088 20.8643 12.9911 20.8738 12.9735 20.8828L12.9554 20.8921C12.9182 20.913 12.8818 20.9354 12.8464 20.9592C12.8256 20.9729 12.8054 20.9868 12.7857 21.0013C12.7736 21.0105 12.762 21.0201 12.7498 21.0295C12.7016 21.0681 12.6557 21.1096 12.6124 21.1538C12.5862 21.1797 12.5606 21.2062 12.5367 21.234L12.5245 21.2479C12.5119 21.263 12.5002 21.2789 12.4884 21.2946L12.4865 21.2969L12.485 21.2989C12.477 21.3095 12.4684 21.3196 12.4605 21.3304L12.4574 21.3346L12.4543 21.3388L12.4541 21.3392L12.4539 21.3395C12.4056 21.4073 12.363 21.4791 12.3265 21.5539C12.3211 21.5646 12.3164 21.5757 12.3112 21.5866C12.2942 21.6234 12.2786 21.6609 12.2646 21.6989C12.259 21.7141 12.2528 21.7288 12.2477 21.7441L12.2474 21.7443V21.7444L12.2472 21.7447C12.2344 21.7835 12.223 21.823 12.2133 21.8636L12.2095 21.8786L12.206 21.8978L12.2055 21.8994C12.1989 21.9289 12.1925 21.9582 12.1879 21.9881C12.1855 22.0028 12.184 22.0178 12.1821 22.0326L12.1814 22.0368C12.1795 22.0526 12.178 22.0686 12.1763 22.0846C12.1749 22.0966 12.1732 22.1088 12.1722 22.121C12.1687 22.1681 12.1672 22.2155 12.1683 22.2637C12.1693 22.3008 12.1726 22.3374 12.1761 22.3741L12.1763 22.3761L12.1775 22.3932C12.1795 22.4134 12.1831 22.4333 12.186 22.4534C12.218 22.6784 12.3015 22.893 12.43 23.0804C12.5457 23.2522 12.6949 23.3988 12.8688 23.5113C12.9684 23.5752 13.0752 23.6271 13.1869 23.6661C13.2949 23.7043 13.4077 23.7321 13.5253 23.7449C13.5517 23.7477 13.5785 23.7496 13.6053 23.7515C13.6455 23.7542 13.6855 23.7559 13.7264 23.7551C13.764 23.7543 13.8006 23.7496 13.8377 23.746C13.8588 23.744 13.8806 23.7439 13.9014 23.7409C13.9546 23.7335 14.0067 23.7227 14.0581 23.7099L14.0697 23.7073C14.0911 23.7017 14.1109 23.694 14.1316 23.6875C14.1958 23.668 14.2586 23.6442 14.3195 23.6162L14.3327 23.6103C14.3496 23.6031 14.3672 23.5961 14.3835 23.5877L14.3855 23.5869C14.3555 23.4206 14.3327 23.253 14.3172 23.0847C14.3162 23.0725 14.3145 23.0607 14.3131 23.0486Z" fill="white"/>
<path d="M20.6699 9.7522L20.698 9.76655L20.6976 9.76275L20.6699 9.7522Z" fill="#4D94C3"/>
<path d="M28.9613 25.0707C28.9594 25.0633 28.9576 25.0559 28.9558 25.0485L28.945 25.008C28.8988 24.8581 28.8403 24.7411 28.7883 24.6577C28.7217 24.55 28.6666 24.4968 28.6666 24.4968C28.6903 24.4146 28.7074 24.3306 28.7177 24.2457C28.7578 23.9042 28.6664 23.6384 28.5932 23.4885C28.5829 23.4673 28.5719 23.4463 28.5604 23.4258C28.5076 23.4633 28.4543 23.5003 28.401 23.5363C27.3886 24.2218 26.2492 24.6617 25.0154 24.8507C24.1651 24.981 23.2707 24.9932 22.3406 24.88L22.3569 24.8847C22.3569 24.8847 21.7963 24.9614 21.6443 25.4991L21.6538 25.5046L21.6074 25.8653C21.6238 26.3536 21.8471 26.6593 22.1012 26.8201C22.3654 26.9209 22.6843 26.9977 23.0384 27.0417C23.6548 27.1183 24.3623 27.098 25.0845 26.9834L25.0882 26.9828L25.0919 26.9823C26.0524 26.8536 27.4082 26.3407 28.3773 25.6786C28.5981 25.5277 28.7989 25.3695 28.9704 25.2059L28.9768 25.1996L28.9885 25.1883C28.9801 25.149 28.971 25.1098 28.9613 25.0707Z" fill="white"/>
<path d="M27.1286 20.4161C26.6086 20.0994 26.5323 19.9942 26.5809 19.134C26.5983 18.8242 26.6318 18.4171 26.6664 17.8651C26.6707 17.7962 26.6733 17.7272 26.6744 17.6581C26.6747 17.642 26.6751 17.6265 26.6751 17.6107C26.6757 17.5491 26.6748 17.4876 26.6724 17.426L26.6718 17.409L26.6704 17.3907C26.6667 17.3259 26.6616 17.2611 26.655 17.1965C26.6501 17.1506 26.6439 17.1048 26.6365 17.0592C26.6329 17.0366 26.6285 17.0148 26.6243 16.9928C26.6198 16.9685 26.6148 16.9443 26.6095 16.9201C26.6046 16.8969 26.5993 16.8738 26.5936 16.8508L26.5933 16.8506L26.5936 16.8504C26.5202 16.7402 26.4307 16.6417 26.3282 16.558L26.308 16.5429L26.3038 16.5399L26.2887 16.5285L26.2835 16.5246C26.2686 16.5131 26.2529 16.5019 26.2375 16.4916C26.221 16.4806 26.2043 16.4699 26.1873 16.4596C26.0336 16.3661 25.8622 16.3074 25.6788 16.2801C25.5748 16.2652 25.4698 16.2598 25.3649 16.2641C25.3149 16.266 25.2642 16.2703 25.2134 16.2764C25.0757 16.2928 24.9398 16.3215 24.8073 16.3621C24.7609 16.394 24.7147 16.4265 24.6679 16.459C24.6288 16.4863 24.5888 16.5136 24.5487 16.5408L24.5294 16.554C24.489 16.5812 24.4482 16.6076 24.4072 16.634L24.3866 16.6469C24.3453 16.6725 24.304 16.6975 24.2623 16.7211L24.2403 16.7333C24.1985 16.7568 24.1559 16.7791 24.1127 16.8001L24.0913 16.8102C24.0478 16.8308 24.0034 16.8502 23.9584 16.8671L23.9399 16.8742C23.8935 16.8914 23.8464 16.9065 23.7987 16.9193L23.7861 16.9222C23.7356 16.9352 23.685 16.9456 23.633 16.9527C23.5461 16.9637 23.4585 16.9691 23.3709 16.9687C23.227 16.9689 23.0833 16.9581 22.941 16.9364C22.8927 16.929 22.8446 16.9208 22.7965 16.9119C22.7794 16.9086 22.7623 16.906 22.7454 16.9027C22.62 16.8783 22.4939 16.8492 22.3668 16.8186C22.3134 16.8059 22.2601 16.7931 22.2065 16.78C22.1205 16.7591 22.0336 16.7388 21.9466 16.719C21.9293 16.7149 21.9127 16.7107 21.8953 16.7069C21.8223 16.7108 21.749 16.718 21.6755 16.7272L21.6595 16.7292C21.4415 16.7582 21.2271 16.8091 21.0195 16.8814C21.0078 16.8854 20.996 16.8888 20.9843 16.8931C20.9513 16.9049 20.9183 16.9178 20.8854 16.9308C20.8412 16.9483 20.7971 16.9665 20.7534 16.9859C20.4463 17.1215 20.148 17.3059 19.8707 17.5404C19.7598 17.6344 19.6544 17.7346 19.5548 17.8405C19.4066 17.9984 19.2723 18.1687 19.1535 18.3498C19.147 18.3596 19.1405 18.3695 19.1344 18.3796C19.0725 18.4753 19.0153 18.5739 18.9631 18.6751C18.9444 18.7109 18.9256 18.7469 18.9085 18.783L18.905 18.79C18.8499 18.907 18.8013 19.0269 18.7593 19.1492C18.7569 19.1564 18.7549 19.1636 18.7528 19.1708C18.7469 19.1884 18.7424 19.2061 18.7368 19.2236C18.7006 19.3371 18.6705 19.4525 18.6466 19.5692C18.6443 19.5819 18.6414 19.5946 18.6393 19.6073C18.6325 19.6433 18.6261 19.6792 18.6203 19.7152C18.6005 19.8462 18.5892 19.9782 18.5865 20.1107C18.5855 20.1436 18.5842 20.1769 18.5847 20.2095C18.6419 20.4153 18.7252 20.6128 18.8327 20.7973C19.222 21.47 19.8622 21.8723 20.326 22.0881C20.5102 22.1692 20.6986 22.2403 20.8904 22.3013L20.8953 22.3098H20.8956L20.8964 22.3094L20.909 22.2998C20.934 22.2808 20.9589 22.2617 20.9847 22.2429C20.9938 22.2359 21.0031 22.2293 21.0124 22.2224C21.0483 22.1961 21.0847 22.1703 21.1214 22.1451C21.149 22.1258 21.1775 22.1061 21.2065 22.0871C21.2161 22.0805 21.2258 22.0744 21.2355 22.0679C21.2648 22.0486 21.2946 22.0292 21.3251 22.01L21.3552 21.9912L21.4487 21.9341C21.4595 21.9276 21.4706 21.9211 21.4814 21.9145C21.5131 21.8962 21.5451 21.8774 21.5779 21.8588C21.5898 21.8524 21.6016 21.8458 21.6134 21.839C21.6456 21.8208 21.6785 21.8029 21.7121 21.785C21.7253 21.778 21.7386 21.7708 21.7522 21.7638C21.7852 21.7463 21.8185 21.729 21.8524 21.7118L21.8961 21.6899C21.9298 21.6731 21.964 21.6564 21.9983 21.6398C22.0145 21.632 22.0311 21.6244 22.0475 21.6166C22.0812 21.6006 22.1154 21.5848 22.1501 21.5691C22.1681 21.5607 22.187 21.5527 22.2055 21.5444C22.2396 21.5292 22.2738 21.5144 22.3081 21.4999C22.3285 21.4908 22.3494 21.4822 22.3701 21.4736C22.4037 21.4596 22.4378 21.4456 22.4723 21.4316C22.4953 21.4225 22.5188 21.4134 22.542 21.4041C22.5754 21.3912 22.609 21.378 22.6431 21.3652C22.6687 21.3553 22.6948 21.3456 22.7206 21.3363C22.7536 21.3242 22.7865 21.3121 22.8203 21.3L22.9067 21.2702C22.9391 21.2589 22.9715 21.2476 23.0045 21.2369C23.0361 21.2262 23.0682 21.2161 23.1002 21.2058C23.1318 21.1955 23.1633 21.1854 23.1954 21.1754C23.2305 21.1644 23.2662 21.1538 23.3023 21.1429C23.3323 21.1342 23.3625 21.1248 23.3931 21.1161C23.4318 21.1047 23.4717 21.0938 23.511 21.0828C23.5308 21.0774 23.5499 21.0714 23.5698 21.0663C23.7238 20.6787 24.1807 19.7177 24.9635 19.6125C25.0403 19.6015 25.1179 19.5957 25.1955 19.5952C25.2135 19.5949 25.2328 19.5936 25.25 19.594C25.2409 19.5383 25.2338 19.4802 25.2302 19.4199C25.2056 19.0058 25.3329 18.6615 25.5144 18.6505C25.6549 18.6392 25.7668 18.8444 25.7858 18.9163C25.8393 19.0422 25.8767 19.203 25.8875 19.3814C25.8972 19.5444 25.8821 19.6948 25.851 19.8203C25.8668 19.8366 25.8798 19.8547 25.894 19.872C26.0733 20.0945 26.1037 20.4031 26.0962 20.6218C26.1659 20.6147 26.2375 20.6086 26.309 20.6025L26.3637 20.5973L26.375 20.5964C26.3853 20.5953 26.3956 20.5947 26.4059 20.5939C26.4945 20.5865 26.5841 20.5797 26.6749 20.5733L26.679 20.573C26.8847 20.5587 27.0959 20.5465 27.3139 20.5372C27.2007 20.4539 27.1286 20.416 27.1286 20.416M29.0981 26.2133C28.7748 26.5006 28.4203 26.7509 28.0414 26.9595C27.8696 27.0538 27.6934 27.14 27.5136 27.2178C27.1636 27.37 26.8012 27.4921 26.4304 27.5826C25.71 27.7581 25.202 27.7584 25.202 27.7584C25.596 27.9763 26.0946 27.9784 26.4366 27.9438C26.6721 27.9204 26.8339 27.8799 26.8339 27.8799C26.8273 28.015 26.8102 28.1493 26.7828 28.2818C26.7562 28.4106 26.7178 28.5366 26.668 28.6583L26.6643 28.6682L26.664 28.6688C26.6094 28.8012 26.5396 28.9268 26.456 29.0432C26.4474 29.0549 26.4391 29.0675 26.4304 29.0789L26.4563 29.0645C26.5824 28.9953 26.7063 28.9224 26.8279 28.8457L26.8306 28.844C27.0824 28.6854 27.3236 28.5106 27.5526 28.3206L27.553 28.3204L27.5536 28.3199C27.562 28.3125 27.5706 28.3052 27.5795 28.2978C27.7209 28.1743 27.8566 28.0444 27.9861 27.9084C28.1465 27.7392 28.2972 27.5611 28.4374 27.3748L28.4473 27.362C28.4803 27.3177 28.5127 27.2737 28.5442 27.23L28.5531 27.2172C28.5633 27.2023 28.5724 27.188 28.5825 27.1733C28.626 27.1112 28.6685 27.0484 28.7099 26.9849L28.7393 26.9395C28.7603 26.9065 28.7805 26.8733 28.8007 26.8406C28.816 26.8149 28.8317 26.7893 28.8464 26.7639C28.8629 26.7361 28.8794 26.7084 28.8955 26.6809C28.9236 26.6315 28.9511 26.5819 28.9781 26.5319C28.9885 26.5124 28.9984 26.4933 29.0086 26.474C29.0289 26.4356 29.0487 26.3977 29.0675 26.3601C29.0762 26.3426 29.085 26.3251 29.0935 26.3077L29.1012 26.2912C29.1243 26.2446 29.1469 26.1977 29.1689 26.1505C29.1452 26.1721 29.1216 26.1926 29.0981 26.2132M20.5143 22.4208C20.4073 22.4569 20.3016 22.4965 20.1973 22.5396C19.8962 22.6643 19.5545 22.8417 19.2517 23.0867C19.2138 23.1173 19.1766 23.1489 19.14 23.1816C19.0777 23.238 19.0182 23.2974 18.9616 23.3596C18.9551 23.3667 18.9482 23.3734 18.942 23.3806C18.9334 23.3902 18.9249 23.4001 18.9165 23.4099C18.8949 23.435 18.8736 23.4607 18.8529 23.4869L18.8282 23.5184C18.801 23.5544 18.7743 23.5908 18.7493 23.6287C18.7245 23.6658 18.7009 23.7041 18.6784 23.743C18.499 24.0562 18.3972 24.4313 18.4285 24.8786L18.4294 24.874L18.4299 24.8707L18.4332 24.854L18.4342 24.8503C18.4355 24.8435 18.4375 24.8354 18.4396 24.8267L18.4408 24.8211C18.4433 24.8109 18.4462 24.7992 18.4495 24.7865L18.4517 24.7783L18.4639 24.7341H18.4642C18.4685 24.7184 18.4741 24.7015 18.4796 24.6841L18.4831 24.6735C18.489 24.6557 18.4954 24.6372 18.5024 24.6181L18.5061 24.609C18.5127 24.5908 18.5199 24.5724 18.5278 24.5532L18.5315 24.5444C18.54 24.5238 18.5494 24.5025 18.5591 24.4809L18.5654 24.4674C18.5758 24.4453 18.5865 24.4228 18.5984 24.4001L18.5999 24.3974C18.6176 24.3635 18.6376 24.329 18.6589 24.2942C18.6669 24.281 18.6746 24.2679 18.6835 24.2547L18.6902 24.2437L18.6904 24.2434C18.7244 24.1923 18.7614 24.1432 18.8012 24.0965C18.807 24.0897 18.8132 24.0829 18.8194 24.0761C18.834 24.0596 18.8492 24.0431 18.8651 24.0269C18.8716 24.0205 18.8779 24.0138 18.8845 24.0074C18.9061 23.9862 18.9283 23.9655 18.9519 23.9455L18.9539 23.9436C18.9539 23.9436 18.5465 24.8651 18.7236 25.5959C18.7236 25.5959 18.7235 25.5937 18.7235 25.5898V25.5853C18.7233 25.5812 18.7233 25.5766 18.7233 25.5703C18.7233 25.5691 18.7233 25.5676 18.7231 25.5663C18.7233 25.5589 18.7233 25.5502 18.7236 25.5398C18.7236 25.5385 18.7236 25.5373 18.7238 25.5357C18.7238 25.525 18.7246 25.5129 18.7251 25.4994L18.7254 25.4956C18.7272 25.4617 18.7298 25.4279 18.7333 25.3942L18.7338 25.3898C18.7356 25.3714 18.7382 25.3523 18.7409 25.3323C18.7411 25.3305 18.7415 25.3287 18.7418 25.3269C18.7448 25.3057 18.7484 25.2837 18.7525 25.261L18.7535 25.2556L18.7556 25.2443V25.2438C18.7606 25.2182 18.7666 25.1921 18.7734 25.1658C18.7739 25.1641 18.7742 25.1622 18.7746 25.1605C18.7815 25.1347 18.7889 25.1085 18.7973 25.0823L18.805 25.0582L18.8106 25.0415V25.0411C18.8184 25.0196 18.8268 24.998 18.836 24.9766L18.8374 24.9731L18.8374 24.9729C18.8539 24.9348 18.8727 24.8979 18.8939 24.8622C18.9108 24.8336 18.9285 24.8057 18.9486 24.7792L18.9494 24.7779C18.9494 24.7779 18.9262 25.0048 18.9322 25.2749C18.9343 25.3477 18.9383 25.4205 18.9443 25.4931C18.9617 25.2159 19.0115 24.9417 19.0925 24.6761C19.1141 24.606 19.1376 24.5378 19.1626 24.4705C19.1661 24.4608 19.1695 24.451 19.1731 24.4414C19.2247 24.3057 19.2836 24.1728 19.3495 24.0434C19.3543 24.0345 19.3588 24.0258 19.3635 24.0169C19.4246 23.8994 19.4911 23.7849 19.5628 23.6735L19.5781 23.6496C19.6046 23.6091 19.6318 23.57 19.659 23.5313C19.6661 23.521 19.673 23.5101 19.6801 23.4999C19.6868 23.4909 19.693 23.4818 19.6995 23.4727C19.7342 23.4249 19.769 23.3783 19.8041 23.3333L19.8209 23.3121C19.8574 23.2657 19.8939 23.2205 19.9305 23.1774L19.9325 23.1751C19.9773 23.1221 20.0232 23.07 20.0702 23.0189C20.1037 22.9825 20.1368 22.9475 20.1697 22.9139C20.1821 22.9013 20.1949 22.8887 20.2076 22.8759C20.2804 22.8025 20.3554 22.7312 20.4325 22.6623C20.6444 22.4727 20.8094 22.3555 20.8669 22.3168C20.7481 22.347 20.6305 22.3818 20.5144 22.4209" fill="#D8E9FF"/>
<path d="M25.933 20.3807C25.933 20.3807 25.9307 20.3571 25.9223 20.3217C25.8892 20.1869 25.756 19.869 25.2317 19.9194C24.6835 19.9722 24.4993 20.4146 24.4522 20.5653C24.4424 20.5966 24.4381 20.6163 24.4381 20.6163L24.4531 20.629C24.5226 20.5699 24.6552 20.5769 24.7756 20.6533C24.8269 20.6854 24.8708 20.7281 24.9042 20.7786V20.7789C24.9506 20.8502 24.9634 20.9272 24.9306 20.9843C24.9237 20.9966 24.9149 21.0069 24.9049 21.016C24.9049 21.016 24.926 21.0242 24.9615 21.0345C25.1139 21.0794 25.5363 21.1681 25.7648 20.8728C25.7759 20.8586 25.7871 20.8454 25.7972 20.8296C25.7522 20.8066 25.7271 20.7406 25.727 20.6624C25.7266 20.6224 25.7323 20.5825 25.7439 20.5443C25.7814 20.4202 25.8662 20.347 25.933 20.3807ZM23.2153 24.4075C22.9146 24.4695 22.6126 24.525 22.3096 24.5739L22.3498 24.5791C22.7523 24.629 23.3931 24.6896 24.168 24.6422C25.578 24.5564 27.4338 24.1127 29.1189 22.5932L29.1235 22.5872V22.5846C29.1291 22.4573 29.1121 22.2275 28.9513 22.0487C28.9217 22.016 28.8888 21.9864 28.8532 21.9604C28.8469 21.9568 28.841 21.9527 28.8345 21.949C28.7903 21.9242 28.7516 21.8991 28.7158 21.8744C28.6874 21.8568 28.6598 21.8382 28.6329 21.8185L28.6292 21.8131C28.5225 21.9652 28.4027 22.1076 28.2711 22.2387C28.2226 22.2865 28.1728 22.333 28.1219 22.3782C27.657 22.797 27.0563 23.1458 26.4078 23.4331C25.3302 23.9104 24.1257 24.22 23.2152 24.4075M14.2907 21.9518C14.2754 21.9654 14.2598 21.9786 14.2455 21.9937L14.2297 22.011C14.2126 22.03 14.1964 22.0499 14.1812 22.0706L14.1732 22.0807C14.1542 22.1071 14.1366 22.1348 14.1199 22.163V22.1631L14.1177 22.1668V22.1669L14.1108 22.1795C14.1069 22.1863 14.1033 22.1934 14.0996 22.2003C14.0899 22.218 14.0799 22.2351 14.0712 22.2529L14.0708 22.2535L14.0705 22.2541L14.0701 22.2556L14.0667 22.2623L14.0636 22.269C14.0503 22.2966 14.0378 22.3245 14.026 22.3527C13.9886 22.442 13.9569 22.5337 13.9312 22.6271C13.9201 22.6669 13.9124 22.6981 13.9089 22.7133L13.9087 22.7146L13.9063 22.7249L13.9073 22.7129C13.9086 22.6892 13.9113 22.6657 13.9132 22.6421C13.9168 22.5927 13.92 22.5429 13.9254 22.4937C13.9298 22.4523 13.9361 22.4118 13.942 22.3707L13.9478 22.3323C13.9502 22.3133 13.9529 22.2944 13.956 22.2756C13.9587 22.258 13.9626 22.2407 13.9659 22.2234L13.9661 22.2221L13.9698 22.2027L13.9709 22.1974C13.9762 22.168 13.9817 22.1386 13.9874 22.1092L13.9904 22.0946L13.991 22.0919L13.9953 22.0712C13.997 22.0625 13.9995 22.0541 14.0012 22.0459C14.0082 22.0149 14.0157 21.9846 14.023 21.954L14.0242 21.9489C14.0296 21.9261 14.0345 21.9032 14.0404 21.8807L14.0405 21.8798L14.0411 21.8783L14.0429 21.8717C14.0549 21.8255 14.0682 21.7804 14.0814 21.7349L14.0884 21.7099C14.0909 21.7015 14.0931 21.6926 14.0958 21.6842C14.1177 21.6105 14.1412 21.5377 14.1661 21.4665L14.1693 21.4576C14.1907 21.3971 14.2123 21.3376 14.235 21.2789L14.2375 21.2723C14.2478 21.2464 14.2584 21.2217 14.2684 21.1961L14.2701 21.1924C14.2856 21.1544 14.3008 21.1161 14.3167 21.0793V21.0788L14.317 21.0783L14.3188 21.0737C14.323 21.0644 14.3328 21.0421 14.3481 21.0091L14.3483 21.0085L14.3504 21.004C14.3563 20.991 14.3619 20.9784 14.3677 20.9652L14.3958 20.9028L14.4041 20.8848C14.3909 20.8776 14.3771 20.8713 14.3635 20.8644L14.3558 20.8606L14.3414 20.8534C14.2526 20.8109 14.16 20.7771 14.0647 20.7525L14.0494 20.7487C13.9508 20.7241 13.85 20.7095 13.7484 20.705C13.7168 20.7036 13.6852 20.7033 13.6537 20.7039C13.6058 20.7049 13.5588 20.709 13.5125 20.7141C13.4976 20.7159 13.4833 20.7185 13.469 20.7204C13.4461 20.7239 13.4234 20.7283 13.4005 20.7325C13.3917 20.7344 13.3824 20.7354 13.3736 20.7374C13.3266 20.7473 13.2802 20.7595 13.2344 20.7739C13.2204 20.7784 13.2064 20.7819 13.1928 20.7867C13.152 20.8011 13.112 20.8167 13.0727 20.8341C13.057 20.8411 13.0426 20.8491 13.0273 20.8564C13.0094 20.8651 12.9917 20.8746 12.9742 20.8836L12.956 20.8929C12.9188 20.9138 12.8825 20.9362 12.8471 20.96C12.8263 20.9737 12.8061 20.9875 12.7864 21.0021C12.7742 21.0113 12.7627 21.0209 12.7505 21.0303C12.7023 21.0689 12.6564 21.1104 12.6131 21.1546C12.5869 21.1804 12.5616 21.2071 12.5374 21.2348L12.5252 21.2487C12.5125 21.2638 12.5008 21.2797 12.489 21.2954L12.4871 21.2977L12.4857 21.2997C12.4777 21.3103 12.469 21.3204 12.4612 21.3313L12.458 21.3354L12.455 21.3396L12.4547 21.34L12.4546 21.3403C12.4062 21.4082 12.3638 21.4801 12.3271 21.5551C12.3218 21.5658 12.317 21.5765 12.3121 21.5874C12.295 21.624 12.2796 21.6615 12.2652 21.6997C12.2597 21.7149 12.2535 21.7296 12.2483 21.7449L12.248 21.7451V21.7452C12.251 21.7551 12.2543 21.7644 12.2573 21.7741C12.2678 21.8081 12.2784 21.8411 12.2896 21.8731L12.2935 21.884L12.2977 21.8952C12.3407 22.0148 12.3922 22.1312 12.452 22.2435C12.458 22.2544 12.464 22.2659 12.4698 22.2764L12.474 22.2841L12.4796 22.2934C12.5067 22.3416 12.5356 22.3887 12.5661 22.4348C12.5998 22.486 12.636 22.5356 12.6744 22.5834L12.69 22.6024C12.694 22.6072 12.6977 22.6115 12.7012 22.6153C12.7115 22.6271 12.7178 22.634 12.7178 22.6341C12.7139 22.6173 12.7119 22.6008 12.7084 22.5838C12.6847 22.4668 12.6712 22.348 12.6681 22.2286V22.2217L12.6678 22.2083C12.666 22.1349 12.6679 22.0614 12.6735 21.9882C12.6923 22.0543 12.7133 22.1198 12.7365 22.1845L12.7411 22.1978L12.743 22.2026C12.794 22.341 12.8569 22.4746 12.9309 22.6021C13.0057 22.7307 13.0741 22.8219 13.115 22.872C13.1276 22.8876 13.1406 22.9028 13.1542 22.9175C13.1258 22.7935 13.1093 22.667 13.105 22.5398C13.1029 22.4984 13.1021 22.457 13.1025 22.4156C13.1032 22.3633 13.1059 22.3118 13.1102 22.2611C13.133 22.3479 13.1591 22.4282 13.1871 22.5039L13.1891 22.5097C13.2895 22.7819 13.4136 22.9822 13.4992 23.1008L13.5089 23.1139C13.524 23.134 13.537 23.151 13.5487 23.1662C13.5569 23.1764 13.5646 23.1863 13.571 23.1937C13.5806 23.2055 13.5906 23.2171 13.6009 23.2284L13.5973 23.2106C13.5935 23.1928 13.5899 23.1751 13.5864 23.1573C13.5745 23.0944 13.5657 23.031 13.56 22.9673C13.5556 22.9257 13.5524 22.884 13.5505 22.8422C13.5492 22.8033 13.5489 22.7643 13.5497 22.7254L13.5503 22.7045C13.551 22.6845 13.5514 22.6643 13.5525 22.6445L13.5532 22.6323L13.554 22.6234C13.5571 22.5725 13.5614 22.522 13.5678 22.4725C13.5842 22.5278 13.6025 22.5826 13.6228 22.6366L13.6245 22.6412L13.6273 22.649L13.6323 22.6628C13.6599 22.7353 13.6908 22.8065 13.7248 22.8762C13.75 22.9283 13.7756 22.9763 13.8004 23.0203C13.8148 23.045 13.8285 23.0684 13.8422 23.0907C13.8709 23.1375 13.9013 23.1833 13.9335 23.2278L13.9433 23.2412C13.9611 23.2655 13.9796 23.2894 13.9986 23.3128C14.0156 23.3334 14.0275 23.3468 14.0329 23.3527L14.0359 23.356L14.0466 23.3633C14.0477 23.3542 14.049 23.3454 14.0502 23.3363C14.0597 23.2571 14.0707 23.1772 14.0824 23.0979C14.0838 23.0883 14.0853 23.0788 14.0867 23.0694C14.1004 22.9799 14.1149 22.891 14.13 22.8052L14.1358 22.7722L14.137 22.7665L14.1422 22.7367C14.1566 22.6565 14.1717 22.5764 14.1876 22.4965C14.1987 22.4402 14.2096 22.3868 14.22 22.3367L14.2233 22.3205C14.2249 22.3126 14.2266 22.3054 14.2281 22.2979C14.2297 22.2906 14.2312 22.283 14.2327 22.2753L14.2333 22.2727C14.236 22.2601 14.2389 22.2473 14.2414 22.2354L14.2422 22.2321C14.2445 22.2203 14.2468 22.2103 14.2491 22.1993C14.253 22.182 14.2566 22.1644 14.2603 22.1482L14.2612 22.1438C14.2642 22.1306 14.2669 22.1174 14.2697 22.1054C14.2736 22.0883 14.2772 22.0724 14.2804 22.0574L14.2805 22.057L14.2808 22.0566C14.2826 22.048 14.2844 22.0406 14.2862 22.0327L14.2866 22.0313C14.2883 22.0241 14.2899 22.0166 14.2914 22.0102L14.301 21.9691L14.3034 21.9593L14.3043 21.9557L14.307 21.9442L14.3089 21.9362L14.3093 21.935L14.308 21.9361L14.2907 21.9518ZM25.7017 25.8908C25.8346 25.8448 25.9504 25.8077 26.0402 25.7685C26.2203 25.6918 26.3169 25.6401 26.3109 25.621C26.3048 25.6015 26.1962 25.6163 26.0049 25.6595C25.9092 25.6818 25.7931 25.7014 25.6598 25.7312C25.5934 25.7472 25.5202 25.7563 25.4443 25.771C25.3678 25.7843 25.2874 25.8011 25.2025 25.8101C25.035 25.8339 24.8433 25.8555 24.6399 25.8792C24.5396 25.8874 24.4362 25.8959 24.3298 25.9045C24.2223 25.9099 24.112 25.9154 23.9987 25.9209C23.5461 25.9341 23.0465 25.9137 22.5381 25.8201C22.2701 25.773 21.9118 25.6512 21.6541 25.5049L21.6446 25.4995C21.7966 24.9617 22.3572 24.885 22.3572 24.885L22.3409 24.8803L22.3127 24.877C22.2311 24.867 22.1595 24.8572 22.098 24.849C22.0542 24.8431 22.0156 24.8378 21.9831 24.8337C21.9519 24.8299 21.9295 24.8276 21.9166 24.8267C21.5789 24.8036 21.3939 25.0895 21.3299 25.2134C21.3209 25.2313 21.3125 25.2497 21.304 25.2684C21.2525 25.3871 21.2221 25.5139 21.2141 25.6431C21.1975 25.8958 21.2626 26.1733 21.4562 26.4095C21.5854 26.5688 21.81 26.7093 22.1015 26.8204C21.8474 26.6595 21.6241 26.3539 21.6077 25.8656C21.8956 25.9893 22.231 26.065 22.4829 26.1098C23.0226 26.2092 23.5433 26.2211 24.0114 26.1923C24.1284 26.1826 24.2422 26.174 24.3527 26.1629C24.4634 26.1485 24.5708 26.1347 24.6749 26.1212C24.8775 26.087 25.0644 26.0539 25.2399 26.0153C25.3273 25.9988 25.4085 25.9748 25.4853 25.954C25.5622 25.9317 25.635 25.9149 25.7017 25.8908Z" fill="#1E62B9"/>
<path d="M25.2538 19.5964C25.5357 19.603 25.7272 19.6925 25.8548 19.8227C25.8859 19.6972 25.9012 19.5467 25.8912 19.3838C25.8804 19.2054 25.8431 19.0446 25.7897 18.9185C25.7708 18.8468 25.6588 18.6414 25.5181 18.6528C25.3366 18.6638 25.2097 19.0081 25.2342 19.4221C25.2377 19.4826 25.2446 19.5406 25.2538 19.5964ZM25.73 20.6641C25.7303 20.7424 25.7553 20.8083 25.8002 20.8313C25.8677 20.8651 25.9517 20.7914 25.9891 20.6673C25.9926 20.6564 25.9946 20.6456 25.9971 20.635V20.6347C26.021 20.522 25.9967 20.413 25.9359 20.3824C25.8691 20.3486 25.7844 20.422 25.747 20.5458C25.7349 20.5862 25.7298 20.6264 25.73 20.6641ZM24.4499 20.8639C24.4798 20.9126 24.5248 20.9596 24.5824 20.9963C24.7041 21.0735 24.8394 21.08 24.9079 21.0178C24.9181 21.0088 24.9269 20.9982 24.9337 20.986C24.9666 20.9288 24.9537 20.852 24.9075 20.7805L24.9073 20.7803C24.8739 20.7298 24.83 20.6871 24.7787 20.6549C24.6584 20.5786 24.5257 20.5716 24.4562 20.6308C24.4446 20.6403 24.4347 20.6518 24.427 20.6648C24.3956 20.7201 24.4072 20.794 24.4499 20.8638V20.8639ZM29.1233 22.5871V22.5846L29.1154 22.5961C29.1166 22.595 29.1178 22.5942 29.1189 22.5931L29.1233 22.5871Z" fill="#1E62B9"/>
<path d="M28.9773 25.2005L28.9709 25.2066C28.7994 25.3702 28.5984 25.5286 28.3778 25.6795C27.4086 26.3415 26.0529 26.8543 25.0922 26.9831L25.0885 26.9836L25.0849 26.9842C24.3626 27.0989 23.6552 27.1192 23.0388 27.0425C22.6845 26.9984 22.3658 26.9217 22.1015 26.8208C21.8103 26.7098 21.5856 26.5693 21.4562 26.41C21.2626 26.1738 21.1975 25.8963 21.2143 25.6436C21.2223 25.5144 21.2527 25.3877 21.3042 25.2689C21.3125 25.2502 21.3211 25.2318 21.3301 25.2139C21.3941 25.09 21.579 24.804 21.9168 24.8271C21.9296 24.8282 21.9521 24.8304 21.9832 24.8343C22.0157 24.8382 22.0543 24.8435 22.0982 24.8495C22.1595 24.8577 22.2314 24.8674 22.3129 24.8775C22.3224 24.8787 22.3316 24.8796 22.3409 24.8807C23.271 24.9939 24.1654 24.9818 25.0157 24.8515C26.2495 24.6625 27.3891 24.2226 28.4013 23.5372C28.4549 23.501 28.508 23.4641 28.5607 23.4265L29.1156 22.5967C27.4316 24.1137 25.5774 24.5568 24.1681 24.6427C23.3931 24.69 22.7522 24.6296 22.35 24.5796C22.3365 24.5779 22.3231 24.5762 22.3096 24.5744C22.1889 24.5591 22.0905 24.5451 22.0203 24.5363C21.9851 24.5319 21.9568 24.5289 21.9355 24.5274C21.8342 24.5204 21.7325 24.5324 21.6357 24.5628C21.4439 24.6227 21.2801 24.7522 21.157 24.9239C21.0049 25.1354 20.9154 25.4105 20.9112 25.6983C20.9083 25.9351 20.9634 26.1799 21.0905 26.4043C21.0954 26.4133 21.1003 26.4224 21.1056 26.4316C21.1203 26.4561 21.1362 26.4804 21.1526 26.5041C21.1749 26.5368 21.1983 26.569 21.2242 26.6003C21.5194 26.9643 22.1544 27.235 23.0016 27.3404C23.5748 27.4117 24.2457 27.4059 24.9733 27.3033C27.1177 26.9157 28.1371 26.2229 28.6078 25.7361C28.6422 25.7007 28.6738 25.666 28.7027 25.633C28.8714 25.4383 28.9474 25.2886 28.9751 25.2239L28.9789 25.2151C28.986 25.1983 28.9888 25.1895 28.9889 25.1891L28.9773 25.2005Z" fill="#1E62B9"/>
<path d="M22.1528 17.7634C22.0852 17.7265 22.0114 17.7003 21.9369 17.6818C21.8704 17.6656 21.8026 17.6548 21.7343 17.6494C21.4833 17.6275 21.2662 17.6701 21.2662 17.6701C21.2197 17.6806 21.1751 17.6927 21.132 17.7058C20.791 17.8093 20.5537 17.9868 20.3877 18.1917C20.2535 18.3575 20.1662 18.5411 20.1104 18.7184C20.092 18.7784 20.076 18.8391 20.0626 18.9005C20.0355 19.0306 20.0198 19.1628 20.0156 19.2957C20.0113 19.4445 20.0229 19.5403 20.0229 19.5403C20.079 19.4173 20.1409 19.2969 20.2083 19.1797C20.3671 18.903 20.5393 18.6801 20.7133 18.5011C21.0524 18.1522 21.3978 17.9682 21.6655 17.8715C21.9547 17.767 22.1528 17.7634 22.1528 17.7634ZM26.2257 17.2778L26.2144 17.2628C26.1748 17.2125 26.1279 17.1684 26.0752 17.1321C25.9457 17.043 25.7671 16.9966 25.5194 17.0474C25.5194 17.0474 25.2253 17.1168 25.0534 17.3091C25.0534 17.3091 25.5659 17.0903 26.1084 17.4759C26.1579 17.511 26.2074 17.5518 26.257 17.5976C26.3105 17.6471 26.361 17.6998 26.4082 17.7554C26.4082 17.7554 26.3867 17.519 26.252 17.3154C26.2437 17.3025 26.235 17.29 26.2257 17.2778Z" fill="#1E62B9"/>
<path d="M22.215 21.0313C22.4251 20.967 22.6376 20.9108 22.8521 20.8628C22.8916 20.6855 22.9015 20.4658 22.8734 20.2313C22.8085 19.6812 22.5603 19.2598 22.3194 19.2896C22.0784 19.3193 21.9361 19.7894 22.0011 20.3391C22.0339 20.6161 22.1132 20.8607 22.2149 21.0312" fill="#1E62B9"/>
<path d="M21.0968 8.72168L20.5914 8.83591L20.6974 9.76275L19.3505 9.07714L18.7959 9.2425L18.8046 9.25232L20.4409 11.1174L20.4566 11.1075L20.4777 11.0943C20.5286 11.0618 20.5797 11.0295 20.6311 10.9976C20.649 10.9863 20.6669 10.9747 20.6849 10.9637C20.7591 10.9181 20.8333 10.8734 20.908 10.829L20.2129 10.0328L21.3376 10.5827L21.3419 10.5803C21.3757 10.5618 21.4093 10.5431 21.4432 10.5247L21.3395 9.72168L21.8498 10.3119L21.856 10.309C21.8992 10.2872 21.9415 10.2666 21.984 10.2456L21.9972 10.2392L22.0178 10.2288C22.0252 10.2253 22.0326 10.2216 22.0398 10.218C22.0578 10.2093 22.0764 10.1999 22.0942 10.1911C22.0978 10.1893 22.1013 10.1878 22.105 10.186C22.1646 10.1574 22.2244 10.129 22.2844 10.1011L21.0968 8.72168Z" fill="#1E62B9"/>
<path d="M20.5951 8.86522L20.5918 8.83594L20.5951 8.86538V8.86522Z" fill="#4D94C3"/>
<path d="M20.5914 8.83593L20.666 8.81911C20.5423 8.76171 20.3953 8.72072 20.2252 8.69952C19.8844 8.65663 19.4518 8.69606 18.9589 8.82348C18.4659 8.95 17.9133 9.16278 17.3271 9.45474C16.1548 10.038 14.8496 10.9372 13.5937 12.0829C13.1683 12.4704 12.7604 12.8766 12.3711 13.3003L13.8967 15.1687C14.3237 14.6982 14.7727 14.2482 15.2424 13.8203C15.89 13.2298 16.5503 12.7031 17.2032 12.2453C17.8358 11.802 18.4607 11.4258 19.0622 11.1214L18.7973 9.9283L18.8044 9.25226L18.7958 9.24245L19.3503 9.07709L20.4333 9.63132L20.4025 9.254L20.5914 8.83593Z" fill="#6CA7F3"/>
<path d="M20.5915 8.83582L20.4027 9.25388L20.4334 9.63111L20.6975 9.76266L20.5915 8.83582ZM20.2129 10.0326L21.3376 10.5825L20.908 10.8288L20.2129 10.0326ZM21.3395 9.72151L21.4432 10.5246L21.8498 10.3118L21.3395 9.72151Z" fill="#184F96"/>
<path d="M25.5948 9.42429C25.6627 9.42155 25.7307 9.42087 25.7987 9.42223C25.988 9.4261 26.1657 9.44845 26.3342 9.49052C26.3433 9.49291 26.3527 9.49423 26.3616 9.49662L26.3637 9.4972L26.3703 9.4986L26.3868 9.50338L26.4021 9.508C26.3823 9.4948 26.362 9.48243 26.3415 9.47031C26.1524 9.3979 25.9523 9.35064 25.7465 9.32417C24.7256 9.19278 23.5634 9.56441 22.8988 9.82833C22.8623 9.84359 22.8256 9.85885 22.7884 9.87452C22.6336 9.94061 22.4799 10.0092 22.3274 10.0803C22.313 10.0869 22.2987 10.0938 22.2844 10.1006C22.225 10.1285 22.1656 10.1563 22.105 10.1855C22.1013 10.1873 22.0979 10.1888 22.0942 10.1906C22.0764 10.1994 22.0579 10.2088 22.0398 10.2175C22.0326 10.2212 22.0253 10.2248 22.0179 10.2283L21.9973 10.2387L21.984 10.2451C21.9416 10.2661 21.8993 10.2867 21.856 10.3085L21.8499 10.3115C21.8485 10.3123 21.8472 10.3129 21.846 10.3135C21.8353 10.3186 21.8252 10.3237 21.8146 10.3289L21.8092 10.3315L21.7859 10.3438C21.6735 10.4014 21.5617 10.4603 21.4506 10.5203L21.4432 10.5242C21.4094 10.5426 21.3758 10.5614 21.3419 10.5798L21.3376 10.5822C21.2275 10.6431 21.1181 10.7053 21.0094 10.7688C20.998 10.7754 20.9866 10.7817 20.9751 10.7885L20.9461 10.8056C20.937 10.8108 20.9282 10.8163 20.9195 10.8216L20.908 10.8285C20.8334 10.8729 20.7591 10.9176 20.6849 10.9632C20.6669 10.9742 20.649 10.9859 20.631 10.997C20.5797 11.029 20.5286 11.0613 20.4776 11.0938L20.4566 11.107L20.4409 11.1169C20.0633 11.3598 19.694 11.6155 19.3338 11.8835C19.3046 11.9053 19.2756 11.9274 19.2463 11.9495C18.6558 12.394 18.0856 12.871 17.5391 13.3664C16.9622 13.8896 16.4125 14.4334 15.8932 14.9796C15.6488 15.2242 15.4088 15.4731 15.1732 15.7263C14.7777 16.1523 14.5619 16.4156 14.5708 16.4216C14.5744 16.4254 14.6092 16.3931 14.671 16.3313C14.6198 16.3907 14.5687 16.4499 14.5186 16.5089C15.3808 15.5896 16.3372 14.6481 17.3641 13.7611C17.9879 13.2228 18.637 12.7046 19.3076 12.2238V12.224C19.6935 11.9467 20.0884 11.682 20.4915 11.4304C20.54 11.4002 20.589 11.371 20.6376 11.3412C20.6651 11.3243 20.6927 11.3073 20.7205 11.2906C20.7725 11.2593 20.8248 11.2283 20.8769 11.1973C20.9281 11.1672 20.9792 11.1371 21.0305 11.1073C21.0574 11.0919 21.0842 11.0763 21.1111 11.0611C21.1763 11.0239 21.2417 10.9872 21.3073 10.951C21.3463 10.9294 21.3857 10.9075 21.4249 10.8862L21.4252 10.8861C21.5486 10.819 21.6729 10.7535 21.798 10.6896C21.8082 10.6842 21.8187 10.6791 21.8292 10.6738L21.8877 10.6441C21.9136 10.6309 21.9392 10.6175 21.9652 10.6046C21.9751 10.5998 21.9846 10.5947 21.9944 10.5897L21.9986 10.5878C22.0162 10.5791 22.0335 10.5708 22.051 10.5623L22.062 10.5571L22.0681 10.5538L22.2305 10.4751C22.2402 10.4706 22.2501 10.4654 22.2602 10.4608C22.2775 10.4523 22.2946 10.4447 22.3121 10.4363C22.3741 10.407 22.4362 10.378 22.4984 10.3492C22.5153 10.3415 22.5326 10.3331 22.5493 10.3255L22.5757 10.3137L22.6282 10.2901C22.7004 10.2574 22.7722 10.2252 22.8426 10.1946C22.9071 10.1666 22.9696 10.1409 23.0325 10.1144C23.3877 9.96516 23.7215 9.83955 24.0318 9.73975C24.6282 9.5485 25.143 9.44367 25.5948 9.42429Z" fill="white"/>
</g>
<defs>
<clipPath id="clip0_1061_8519">
<rect width="21.1134" height="24" fill="white" transform="translate(9 8)"/>
</clipPath>
</defs>
</svg>
