<svg width="40" height="40" viewBox="0 0 40 40" fill="none" xmlns="http://www.w3.org/2000/svg">
<rect width="40" height="40" rx="4" fill="#1E62B9" fill-opacity="0.1"/>
<path d="M11.6683 22.9182L11.7418 21.6238L10.6552 22.3365L10.2653 21.659L11.4254 21.0773L10.2653 20.4956L10.6552 19.8181L11.7418 20.5308L11.6683 19.2364H12.445L12.3746 20.5308L13.4613 19.8181L13.8512 20.4956L12.6879 21.0773L13.8512 21.659L13.4613 22.3365L12.3746 21.6238L12.445 22.9182H11.6683Z" fill="#1E62B9"/>
<path d="M16.1844 22.9182L16.2579 21.6238L15.1713 22.3365L14.7814 21.659L15.9415 21.0773L14.7814 20.4956L15.1713 19.8181L16.2579 20.5308L16.1844 19.2364H16.9611L16.8908 20.5308L17.9774 19.8181L18.3673 20.4956L17.204 21.0773L18.3673 21.659L17.9774 22.3365L16.8908 21.6238L16.9611 22.9182H16.1844Z" fill="#1E62B9"/>
<path d="M21.6034 22.9182L21.6769 21.6238L20.5902 22.3365L20.2003 21.659L21.3605 21.0773L20.2003 20.4956L20.5902 19.8181L21.6769 20.5308L21.6034 19.2364H22.38L22.3097 20.5308L23.3964 19.8181L23.7863 20.4956L22.6229 21.0773L23.7863 21.659L23.3964 22.3365L22.3097 21.6238L22.38 22.9182H21.6034Z" fill="#1E62B9"/>
<rect x="7" y="15" width="25.8188" height="10.9821" rx="1" stroke="#1E62B9" stroke-width="2"/>
<line x1="24.9678" y1="20.9183" x2="30.0257" y2="20.9183" stroke="#1E62B9"/>
</svg>
