<svg width="40" height="40" viewBox="0 0 40 40" fill="none" xmlns="http://www.w3.org/2000/svg">
<rect width="40" height="40" rx="4" fill="#1E62B9" fill-opacity="0.1"/>
<g clip-path="url(#clip0_1061_7537)">
<path d="M32.0002 21.5953C31.9709 21.7947 31.9299 22 31.9181 22.1994C31.8126 23.8534 31.5546 25.4839 31.1969 27.1026C31.0855 27.6129 30.7747 27.7243 30.376 27.3959C29.8952 27.0088 29.4144 26.6217 28.9277 26.2229C26.9692 29.1378 24.225 30.8153 20.7654 31.2786C18.3613 31.6012 16.0804 31.1378 13.9225 29.9707C14.6086 28.9032 15.2888 27.8416 15.9748 26.7742C18.1092 27.7889 20.2612 27.8651 22.4307 26.9384C23.9377 26.2933 25.1163 25.2669 25.9313 23.8006C25.5737 23.5132 25.2218 23.2258 24.8759 22.9443C23.8497 22.1114 22.8236 21.2845 21.7975 20.4516C21.7681 20.4282 21.7388 20.4047 21.7095 20.3754C21.4163 20.1173 21.4104 19.8651 21.7212 19.6129C22.5187 18.9619 23.322 18.3109 24.1253 17.6657C24.7117 17.1906 25.3039 16.7155 25.9196 16.217C24.612 13.9707 22.6594 12.7155 20.1087 12.4633C17.5522 12.2111 15.4236 13.1496 13.6704 15.0264C12.5504 14.3871 11.4481 13.7478 10.3457 13.1085C15.195 6.75074 24.8407 7.31965 28.8866 13.8065C29.385 13.4018 29.8835 13.0029 30.376 12.5982C30.7747 12.2757 31.0855 12.3871 31.1969 12.8974C31.6015 14.6979 31.8654 16.5161 31.9533 18.3636C31.9533 18.393 31.9826 18.4282 31.9944 18.4575C32.0002 19.5015 32.0002 20.5513 32.0002 21.5953ZM30.4815 26.4047C31.367 22.1232 31.3728 17.8768 30.4815 13.5953C27.8312 15.7419 25.2101 17.8651 22.5715 20C25.216 22.1408 27.837 24.2639 30.4815 26.4047Z" fill="#1E62B9"/>
<path d="M8 19.0675C8.02932 18.9208 8.07037 18.7742 8.08796 18.6276C8.29319 16.8856 8.89128 15.2903 9.84706 13.8006C10.9436 14.434 12.0283 15.0675 13.119 15.695C10.6504 19.3372 11.7762 24.1114 15.2299 26.3636C14.5556 27.4194 13.8754 28.4692 13.1776 29.5601C12.7848 29.261 12.386 28.9853 12.0225 28.6745C10.0171 26.9443 8.73883 24.7742 8.20523 22.1642C8.13487 21.8065 8.09969 21.437 8.04691 21.0733C8.04105 21.0264 8.01173 20.9795 7.99414 20.9326C8 20.3167 8 19.6892 8 19.0675Z" fill="#1E62B9"/>
</g>
<defs>
<clipPath id="clip0_1061_7537">
<rect width="24" height="24" fill="white" transform="translate(8 8)"/>
</clipPath>
</defs>
</svg>
