<svg width="40" height="40" viewBox="0 0 40 40" fill="none" xmlns="http://www.w3.org/2000/svg">
<rect width="40" height="40" rx="4" fill="#1E62B9" fill-opacity="0.1"/>
<path d="M32.0681 20C32.0681 26.6277 26.6801 32 20.0341 32C17.9502 32 15.9901 31.4721 14.2811 30.5426C10.539 28.5078 8 24.5497 8 20C8 13.3727 13.3878 8 20.034 8C26.6801 8 32.0681 13.3727 32.0681 20Z" fill="#1E62B9"/>
<path d="M24.8371 23.4131C23.5637 24.7217 22.0184 25.3764 20.2014 25.3764C19.0925 25.3764 18.0622 25.1893 17.0963 24.6455L17.0846 31.6135L16.9931 31.5889L16.9365 31.5744L16.8696 31.5382L16.8381 31.4812L16.809 31.4171L16.8412 31.3768L13.6548 27.5882L13.6557 18.6323C13.6557 16.7662 14.2923 15.1813 15.5658 13.8774C16.839 12.5734 18.3843 11.9215 20.2014 11.9215C22.0184 11.9215 23.5637 12.5757 24.8371 13.8845C26.1104 15.1932 26.7472 16.7814 26.7472 18.6489C26.7472 20.5166 26.1104 22.1045 24.8371 23.4131ZM22.4065 16.3806C21.8019 15.7587 21.0669 15.4479 20.2014 15.4479C19.3357 15.4479 18.6007 15.7587 17.9963 16.3806C17.3917 17.0025 17.0894 17.7585 17.0894 18.6491C17.0894 19.5394 17.3916 20.2954 17.9963 20.9173C18.6007 21.5393 19.3357 21.8503 20.2014 21.8503C21.0669 21.8503 21.8019 21.5393 22.4065 20.9173C23.011 20.2954 23.3133 19.5394 23.3133 18.6491C23.3133 17.7585 23.011 17.0024 22.4065 16.3806Z" fill="white"/>
</svg>
