<svg width="40" height="40" viewBox="0 0 40 40" fill="none" xmlns="http://www.w3.org/2000/svg">
<rect width="40" height="40" rx="4" fill="#1E62B9" fill-opacity="0.1"/>
<path d="M27.0414 32C22.7079 32 18.3806 32 14.0471 32C14.0221 31.9813 14.0033 31.9625 13.9783 31.95C12.834 31.5939 12.3149 30.8878 12.3149 29.6881C12.3149 27.6511 12.3149 25.6142 12.3149 23.5772C12.3149 23.5022 12.3149 23.4272 12.3149 23.3273C12.415 23.3273 12.5025 23.3273 12.5838 23.3273C16.4921 23.3273 20.3942 23.3273 24.3024 23.3273C26.0033 23.3273 27.229 22.1088 27.229 20.4093C27.229 18.3036 27.229 16.1916 27.229 14.0859C27.229 12.3551 26.0221 11.1429 24.2837 11.1429C20.3754 11.1429 16.4734 11.1429 12.5651 11.1429C12.4838 11.1429 12.4025 11.1429 12.3212 11.1429C12.3212 10.743 12.3087 10.3744 12.3212 10.012C12.3525 9.1372 12.9778 8.33741 13.822 8.09373C13.9158 8.06873 14.0096 8.03124 14.0971 8C19.0059 8.00625 23.9147 8.00625 28.8235 8.00625C28.8298 8.01875 28.836 8.03749 28.8423 8.04374C29.9992 8.31867 30.5995 9.08097 30.6057 10.2682C30.6057 14.4171 30.6057 18.5598 30.6057 22.7087C30.6057 22.7899 30.6057 22.8711 30.6057 22.9024C29.9866 22.8899 29.3863 22.8649 28.786 22.8649C27.4853 22.8649 26.5849 23.7709 26.5786 25.0768C26.5786 25.6517 26.5849 26.2328 26.5724 26.8076C26.5724 26.8763 26.5098 26.9826 26.4536 27.0138C25.0966 27.6636 24.7589 29.2382 25.7344 30.3817C26.1409 30.8565 26.5474 31.3314 26.9538 31.8063C26.9976 31.8563 27.0101 31.9313 27.0414 32Z" fill="#1E62B9"/>
<path d="M8 20.8466C8 18.441 8 16.0354 8 13.6297C8.01876 13.6172 8.03752 13.6047 8.05003 13.586C8.36894 12.8174 8.7629 12.5488 9.58207 12.5488C14.4659 12.5488 19.3497 12.5488 24.2335 12.5488C25.2527 12.5488 25.8155 13.1049 25.8155 14.1171C25.8155 16.2041 25.8155 18.2848 25.8155 20.3717C25.8155 21.3527 25.2402 21.9213 24.2522 21.9213C20.8817 21.9213 17.5175 21.9213 14.147 21.9213C12.5774 21.9213 11.0078 21.9213 9.432 21.9213C8.79416 21.9213 8.30016 21.5839 8.07504 20.9966C8.06253 20.9466 8.03127 20.8966 8 20.8466ZM15.21 17.2288H15.2163C15.2163 17.9911 15.2163 18.7597 15.2163 19.522C15.2163 19.8594 15.3976 20.0406 15.7353 20.0468C16.1668 20.0468 16.5982 20.0531 17.0234 20.0406C17.8676 20.0156 18.5305 19.6344 18.9369 18.8971C19.506 17.8661 19.5185 16.7852 19.037 15.7229C18.6493 14.8732 17.9489 14.4483 17.0109 14.4295C16.5982 14.4233 16.1855 14.4295 15.7665 14.4295C15.3788 14.4295 15.21 14.592 15.21 14.9856C15.21 15.7292 15.21 16.479 15.21 17.2288ZM11.6144 17.9973C11.9583 17.9973 12.271 18.0098 12.5836 17.9973C13.5091 17.9411 14.222 17.2163 14.272 16.2853C14.322 15.4293 13.6842 14.6045 12.7962 14.4795C12.2835 14.4045 11.752 14.4358 11.2329 14.4358C10.8515 14.4295 10.6764 14.6107 10.6764 14.9981C10.6764 16.4977 10.6764 17.9973 10.6764 19.4907C10.6764 19.8406 10.864 20.0656 11.1579 20.0593C11.4393 20.0531 11.6144 19.8406 11.6144 19.497C11.6144 19.0033 11.6144 18.5222 11.6144 17.9973ZM21.2507 15.3668C21.7071 15.3668 22.1511 15.3668 22.5951 15.3668C22.9328 15.3668 23.1454 15.1793 23.1454 14.8982C23.1454 14.617 22.9265 14.4358 22.5888 14.4295C22.0198 14.4295 21.4508 14.4295 20.8755 14.4295C20.4752 14.4295 20.3002 14.5982 20.3002 14.9981C20.3002 16.4915 20.3002 17.9786 20.3002 19.472C20.3002 19.8344 20.4815 20.0531 20.7691 20.0531C21.0631 20.0531 21.2381 19.8406 21.2381 19.4782C21.2381 19.0033 21.2381 18.5285 21.2381 18.0473C21.2381 17.9224 21.2381 17.8036 21.2381 17.6599C21.6509 17.6599 22.0386 17.6599 22.4263 17.6599C22.7639 17.6599 22.9828 17.4787 22.9891 17.2038C22.9953 16.9164 22.7702 16.7289 22.42 16.7227C22.0323 16.7227 21.6384 16.7227 21.2444 16.7227C21.2507 16.2665 21.2507 15.8354 21.2507 15.3668Z" fill="#1E62B9"/>
<path d="M29.1052 31.9997C28.9301 31.8497 28.7362 31.7123 28.5861 31.5435C27.9921 30.8687 27.4168 30.1814 26.829 29.5003C26.6101 29.2504 26.4976 28.988 26.6476 28.6693C26.7977 28.3444 27.0729 28.2319 27.4105 28.2507C27.5981 28.2569 27.7795 28.2507 27.9796 28.2507C27.9796 27.3946 27.9796 26.5636 27.9796 25.7263C27.9796 25.4826 27.9733 25.2452 27.9796 25.0015C27.9921 24.5641 28.286 24.2704 28.7175 24.2642C29.0739 24.2579 29.4366 24.2642 29.793 24.2642C30.312 24.2642 30.5934 24.5454 30.5934 25.0577C30.5934 26.1137 30.5934 27.1634 30.5934 28.2507C30.7748 28.2507 30.9499 28.2631 31.125 28.2507C31.5627 28.2194 31.8566 28.4006 32.0004 28.813C32.0004 28.9255 32.0004 29.0317 32.0004 29.1442C31.9191 29.2629 31.8441 29.3941 31.7503 29.5003C31.1687 30.1814 30.5872 30.8687 29.9994 31.5373C29.843 31.7122 29.6492 31.8435 29.4678 31.9997C29.3553 31.9997 29.2302 31.9997 29.1052 31.9997Z" fill="#1E62B9"/>
<path d="M16.1606 19.1097C16.1606 17.86 16.1606 16.6291 16.1606 15.3481C16.5734 15.3731 16.9986 15.3606 17.405 15.4294C17.7865 15.4981 18.0491 15.7793 18.1992 16.1292C18.5119 16.8603 18.5244 17.5976 18.1867 18.3224C17.9428 18.841 17.5239 19.1097 16.936 19.1034C16.6859 19.1034 16.4358 19.1097 16.1606 19.1097Z" fill="#1E62B9"/>
<path d="M11.627 15.3669C11.9271 15.3669 12.2023 15.3606 12.4836 15.3669C12.9401 15.3856 13.3216 15.7669 13.3278 16.2044C13.3341 16.6356 12.9839 17.0231 12.5274 17.0544C12.2335 17.0731 11.9334 17.0606 11.627 17.0606C11.627 16.5044 11.627 15.9481 11.627 15.3669Z" fill="#1E62B9"/>
</svg>
