<svg width="40" height="40" viewBox="0 0 40 40" fill="none" xmlns="http://www.w3.org/2000/svg">
<rect width="40" height="40" rx="4" fill="#1E62B9" fill-opacity="0.1"/>
<g clip-path="url(#clip0_1061_7612)">
<path d="M9 26.0706C9 22.0126 9 17.9492 9 13.8913C9.01634 13.8477 9.03813 13.8096 9.05447 13.766C9.16341 13.3466 9.23422 12.9109 9.39218 12.5132C10.0676 10.8302 11.2877 9.72444 13.0307 9.21243C13.3248 9.12528 13.6299 9.07081 13.9349 9C17.9547 9 21.9691 9 25.9889 9C26.0215 9.01634 26.0597 9.03268 26.0924 9.04358C26.4355 9.11983 26.7841 9.15796 27.1164 9.2669C29.4259 10.0131 30.951 12.0884 30.9619 14.534C30.9728 18.1726 30.9673 21.8111 30.9619 25.4442C30.9619 26.4137 30.7386 27.3288 30.2374 28.1622C29.1208 30.025 27.4595 30.9564 25.2917 30.9619C21.7403 30.9673 18.1889 30.9619 14.6375 30.9619C13.9022 30.9619 13.1832 30.8584 12.5024 30.5751C10.8302 29.8834 9.72444 28.6687 9.21243 26.9312C9.12528 26.6479 9.07081 26.3538 9 26.0706ZM12.6821 15.6779C12.6821 16.1082 12.7747 16.4459 13.0253 17.0342C13.9567 19.2075 15.2476 21.1302 16.947 22.7752C18.6628 24.431 20.6455 25.6729 22.8351 26.5989C23.2709 26.7841 23.7175 26.8985 24.2023 26.7351C25.0248 26.4573 25.6512 25.9453 26.0978 25.2154C26.5499 24.4746 26.4627 23.9299 25.7819 23.3961C25.1228 22.8841 24.4419 22.3994 23.7447 21.9364C23.2709 21.6259 22.7316 21.4897 22.2196 21.8329C21.9636 22.0017 21.7675 22.2577 21.566 22.4974C21.2882 22.8297 20.945 22.9876 20.542 22.846C20.0844 22.6826 19.6323 22.4756 19.2129 22.2196C18.08 21.5387 17.2466 20.5801 16.7455 19.3491C16.5439 18.8534 16.5603 18.385 16.9743 17.9928C17.1104 17.8675 17.2684 17.764 17.4155 17.6551C17.9547 17.252 18.0636 16.8217 17.7695 16.2171C17.3446 15.3565 16.7782 14.5994 16.1136 13.9131C15.9067 13.6952 15.6507 13.5046 15.3783 13.3793C15.0243 13.2159 14.6539 13.3412 14.2998 13.4828C13.2704 13.9077 12.6821 14.6974 12.6821 15.6779ZM26.2503 19.2946C26.2503 18.4558 26.0651 17.6551 25.7056 16.898C25.0357 15.4764 23.9844 14.4251 22.5791 13.7333C21.7076 13.303 20.7762 13.107 19.8066 13.1342C19.6923 13.1396 19.5452 13.1941 19.4744 13.2813C19.2892 13.5046 19.3981 13.766 19.6868 13.8205C20.0953 13.8913 20.5038 13.9403 20.9069 14.0275C21.7512 14.2072 22.5464 14.5014 23.26 14.997C24.3984 15.7868 24.9975 16.9198 25.2917 18.2325C25.4115 18.7499 25.4605 19.2892 25.5422 19.8175C25.5749 20.0409 25.6784 20.128 25.9017 20.1226C26.1196 20.1171 26.2285 20.0191 26.2394 19.7957C26.2558 19.6214 26.2503 19.458 26.2503 19.2946ZM24.5563 18.8425C24.5727 18.8371 24.5945 18.8371 24.6108 18.8316C24.5291 18.434 24.4855 18.0255 24.3548 17.6497C23.8155 16.0592 22.2686 14.8663 20.3078 14.7574C20.0626 14.741 19.9374 14.8554 19.8992 15.1005C19.872 15.3129 19.9646 15.4219 20.2043 15.4872C20.7544 15.6343 21.3154 15.7487 21.8492 15.9393C22.6771 16.2335 23.2491 16.8163 23.5051 17.6606C23.6576 18.1617 23.7393 18.6846 23.8537 19.1966C23.9027 19.4254 24.0062 19.5125 24.2186 19.5016C24.431 19.4907 24.54 19.3872 24.5618 19.1639C24.5672 19.055 24.5563 18.946 24.5563 18.8425ZM22.9767 18.3741C22.9767 18.3578 22.9713 18.2815 22.9604 18.2161C22.8242 17.5571 22.4484 17.0668 21.8928 16.7074C21.5442 16.4786 21.1738 16.3315 20.7435 16.4132C20.5256 16.4568 20.4003 16.6093 20.4058 16.8163C20.4112 17.0342 20.5801 17.0614 20.7435 17.1104C20.9668 17.1758 21.2065 17.2194 21.4135 17.3174C21.9146 17.5571 22.1434 17.9928 22.2142 18.5266C22.2577 18.8425 22.4048 19.0059 22.6172 18.995C22.8514 18.9842 22.9713 18.8099 22.9822 18.4776C22.9767 18.4558 22.9767 18.4449 22.9767 18.3741Z" fill="#1E62B9"/>
</g>
<defs>
<clipPath id="clip0_1061_7612">
<rect width="22" height="22" fill="white" transform="translate(9 9)"/>
</clipPath>
</defs>
</svg>
