<svg width="40" height="40" viewBox="0 0 40 40" fill="none" xmlns="http://www.w3.org/2000/svg">
<rect width="40" height="40" rx="4" fill="#1E62B9" fill-opacity="0.1"/>
<path d="M10.0047 21.7453C10.0047 19.4868 10.0047 18.1233 10.0047 15.8648C10.0047 15.2782 10.3354 14.8466 10.9036 14.6916C11.0341 14.6581 11.1784 14.6371 11.3135 14.6371C15.0119 14.6329 18.7056 14.6329 22.404 14.6371C23.1725 14.6371 23.7128 15.1315 23.7128 15.8313C23.7175 17.3062 23.7128 17.8946 23.7128 19.3695C23.7128 22.4282 23.7128 25.487 23.7128 28.5458C23.7128 29.1324 23.3728 29.5723 22.7952 29.7232C22.6648 29.7567 22.5204 29.7735 22.3807 29.7735C18.6963 29.7777 15.0119 29.7777 11.3275 29.7735C10.5357 29.7735 10 29.2832 10 28.5625C10.0047 26.2873 10.0047 24.0163 10.0047 21.7453ZM10.368 17.1739C10.368 17.22 10.368 17.2535 10.368 17.2828C10.368 21.0413 10.368 24.804 10.368 28.5625C10.368 29.0905 10.7453 29.4341 11.3415 29.4341C15.0165 29.4341 18.687 29.4341 22.362 29.4341C22.9769 29.4341 23.3495 29.0947 23.3495 28.5416C23.3495 24.7956 23.3495 21.0539 23.3495 17.3079C23.3495 17.2619 23.3449 17.22 23.3402 17.1739C19.013 17.1739 14.6998 17.1739 10.368 17.1739ZM19.9679 15.7337C19.4276 15.7337 18.8873 15.7337 18.3423 15.7337C18.2864 15.7337 18.2119 15.7169 18.1699 15.7379C18.1001 15.7756 18.0023 15.8384 17.9976 15.8971C17.9976 15.9516 18.0908 16.0186 18.156 16.0689C18.1793 16.0857 18.2352 16.0731 18.2771 16.0731C19.395 16.0731 20.5129 16.0731 21.6308 16.0731C21.6727 16.0731 21.7239 16.0857 21.7519 16.0689C21.8171 16.0186 21.9149 15.96 21.9149 15.9013C21.9149 15.8468 21.8171 15.784 21.7472 15.7379C21.7146 15.7169 21.6587 15.7337 21.6121 15.7337C21.0625 15.7337 20.5129 15.7337 19.9679 15.7337ZM12.0961 16.0731C12.1473 16.0689 12.2172 16.0899 12.2498 16.0689C12.315 16.0228 12.4081 15.9558 12.4081 15.9013C12.4035 15.8468 12.3103 15.7714 12.2358 15.7463C12.1613 15.7211 12.0541 15.7211 11.9796 15.7463C11.9051 15.7714 11.8212 15.8384 11.8026 15.9013C11.7747 16.0019 11.8632 16.0605 11.9749 16.0773C12.0169 16.0773 12.0588 16.0731 12.0961 16.0731ZM13.2512 16.0731C13.2838 16.0731 13.3211 16.0731 13.3537 16.0731C13.4794 16.0689 13.5726 16.0144 13.5679 15.8929C13.5633 15.7798 13.4748 15.7337 13.3537 15.7295C13.2838 15.7295 13.2139 15.7253 13.1441 15.7295C13.0323 15.7337 12.9531 15.7882 12.9484 15.8887C12.9438 16.0019 13.0276 16.0563 13.1441 16.0647C13.1813 16.0773 13.2186 16.0731 13.2512 16.0731ZM14.3738 16.0731C14.4483 16.0731 14.4762 16.0731 14.5088 16.0731C14.6346 16.0689 14.7324 16.0228 14.7278 15.9013C14.7278 15.7798 14.6299 15.7337 14.5042 15.7337C14.4297 15.7337 14.3412 15.7127 14.2806 15.7421C14.2107 15.7756 14.1269 15.8468 14.1176 15.9055C14.1129 15.9558 14.2061 16.0228 14.2666 16.0647C14.2992 16.0899 14.3644 16.0731 14.3738 16.0731Z" fill="#1E62B9"/>
<rect x="11.3062" y="18.6144" width="11.1025" height="0.663392" fill="#1E62B9"/>
<rect x="11.3062" y="19.9416" width="11.1025" height="0.663392" fill="#1E62B9"/>
<rect x="11.3062" y="21.2682" width="11.1025" height="0.663392" fill="#1E62B9"/>
<rect x="11.3062" y="26.5754" width="11.1025" height="1.32678" rx="0.663392" fill="#1E62B9"/>
<rect x="11.3062" y="22.5949" width="11.1025" height="3.31696" fill="#1E62B9"/>
<path d="M28.9997 10.9115C28.9805 10.95 28.955 10.9885 28.9422 11.0334C28.6738 12.0212 28.0539 12.6562 27.0569 12.9064C27.0185 12.9128 26.9802 12.932 26.9355 12.9449C26.9355 13.0347 26.9355 13.1245 26.9355 13.2078C26.9355 17.2552 26.9355 19.9693 26.9355 24.0231C26.9355 24.5106 26.8204 24.626 26.3219 24.626C23.2601 24.626 27.5211 24.626 23.8656 24.626C23.7889 24.626 23.7058 24.626 23.6099 24.626C23.6099 24.3502 23.6099 24.0872 23.6099 23.7986C27.2783 23.7986 22.4235 23.7986 26.1046 23.7986C26.1046 19.7256 26.1046 17.0051 26.1046 12.8871C25.7467 12.8294 25.3633 12.7204 24.9862 12.7204C20.3145 12.7075 17.5427 12.714 12.8646 12.714C12.7687 12.714 12.6792 12.714 12.5578 12.714C12.5578 15.363 12.5578 12.6758 12.5578 15.312C12.2766 15.312 12.0146 15.312 11.7334 15.312C11.7334 15.2158 11.7334 15.126 11.7334 15.0426C11.7334 11.5469 11.7334 13.3618 11.7334 9.86603C11.7334 9.35289 11.842 9.23743 12.3469 9.23743C16.91 9.23743 19.5668 9.23743 24.1299 9.24385C24.3088 9.24385 24.4111 9.19253 24.5197 9.045C25.1332 8.21757 25.964 7.85837 26.9738 8.0508C28.0283 8.24964 28.6802 8.92955 28.9486 9.97507C28.9614 10.0136 28.9805 10.052 28.9997 10.0969C28.9997 10.3663 28.9997 10.6357 28.9997 10.9115ZM12.5706 11.8673C17.1784 11.8673 19.8608 11.8673 24.4814 11.8673C24.1171 11.3092 23.9957 10.7127 24.0851 10.0777C19.6051 10.0777 17.0442 10.0777 12.577 10.0777C12.5706 10.6806 12.5706 11.2707 12.5706 11.8673ZM26.5392 8.82692C25.6317 8.81409 24.884 9.5389 24.8712 10.4497C24.8584 11.3862 25.587 12.1367 26.52 12.1495C27.4084 12.1559 28.1689 11.4054 28.1817 10.5075C28.1945 9.59021 27.4595 8.83975 26.5392 8.82692Z" fill="#1E62B9"/>
<path d="M26 10L27 11M27 10L26 11" stroke="#1E62B9" stroke-width="0.5" stroke-linecap="round" stroke-linejoin="round"/>
<path d="M21.8538 27.1991C21.5878 27.097 21.3036 27.3005 21.3123 27.5869L21.3755 29.6698C21.3845 29.9675 21.7015 30.1512 21.9626 30.01L22.4631 29.7392L23.4629 31.3718L24.4499 30.6238L23.3216 29.0129L23.8335 28.6099C24.078 28.4174 24.0205 28.0305 23.7309 27.9194L21.8538 27.1991Z" fill="#5995E1"/>
</svg>
