<svg width="40" height="40" viewBox="0 0 40 40" fill="none" xmlns="http://www.w3.org/2000/svg">
<rect width="40" height="40" rx="4" fill="#1E62B9" fill-opacity="0.1"/>
<path d="M12.9556 11.9451C13.7535 11.9451 14.5384 11.9387 15.3167 11.958C15.4148 11.958 15.5456 12.0934 15.6044 12.1966C15.8661 12.7061 16.2716 12.964 16.8537 12.964C19.2867 12.9575 21.7263 12.964 24.1594 12.964C24.7218 12.964 25.1077 12.7061 25.3824 12.2224C25.4478 12.0999 25.6179 11.9645 25.7487 11.958C26.5008 11.9322 27.2464 11.9451 28.0378 11.9451C28.0378 17.9939 28.0378 24.0297 28.0378 30.085C23.0148 30.085 18.0048 30.085 12.9621 30.085C12.9556 24.0555 12.9556 18.039 12.9556 11.9451ZM16.4089 21.3471C16.252 21.3987 16.1342 21.4374 16.023 21.4761C15.4344 21.6889 15.0289 22.0758 14.8327 22.6691C14.728 22.9915 14.7869 23.1914 15.2055 23.185C16.1211 23.1656 17.0368 23.1785 17.9525 23.1785C18.286 23.1785 18.3907 23.0431 18.3057 22.7271C18.1291 22.0629 17.56 21.5535 16.8668 21.4439C16.7686 21.431 16.6836 21.3729 16.5267 21.3149C17.2003 21.1472 17.4816 20.8442 17.4619 20.3541C17.4489 19.9413 17.1284 19.5802 16.7229 19.5093C16.2847 19.4384 15.8399 19.6834 15.7091 20.0832C15.5325 20.5798 15.7287 20.9538 16.4089 21.3471ZM22.8251 16.9428C21.9421 16.9428 21.0592 16.9428 20.1762 16.9428C19.8819 16.9428 19.581 16.9686 19.5941 17.3555C19.6072 17.7166 19.895 17.723 20.1697 17.723C21.916 17.723 23.6688 17.723 25.4151 17.723C25.7094 17.723 26.0103 17.7101 25.9972 17.3168C25.9841 16.9621 25.6964 16.9428 25.4217 16.9428C24.5583 16.9428 23.695 16.9428 22.8251 16.9428ZM22.7924 25.7386C23.6754 25.7386 24.5583 25.7386 25.4413 25.7386C25.7225 25.7386 25.9972 25.7193 25.9972 25.3582C25.9972 25.0099 25.7291 24.9583 25.4478 24.9583C23.6819 24.9583 21.916 24.9583 20.1501 24.9583C19.8688 24.9583 19.5941 25.0035 19.5941 25.3517C19.5876 25.7128 19.8623 25.7386 20.1435 25.7386C21.0265 25.7386 21.9094 25.7386 22.7924 25.7386ZM16.5528 18.0777C17.0237 18.0777 17.4946 18.0713 17.9655 18.0777C18.2272 18.0842 18.3645 18.0068 18.3122 17.7101C18.1814 16.9686 17.4096 16.3366 16.5986 16.3173C15.7549 16.2979 14.9504 16.8976 14.8 17.6586C14.7476 17.9294 14.8 18.0906 15.127 18.0777C15.611 18.0648 16.0819 18.0777 16.5528 18.0777ZM22.8055 15.5692C23.6884 15.5692 24.5714 15.5692 25.4544 15.5692C25.7356 15.5692 26.0103 15.537 25.9972 15.1759C25.9907 14.8276 25.7225 14.7889 25.4413 14.7889C23.6754 14.7889 21.9094 14.7889 20.1435 14.7889C19.8557 14.7889 19.5941 14.847 19.5941 15.1888C19.5941 15.5499 19.8754 15.5692 20.1501 15.5692C21.0396 15.5692 21.9225 15.5692 22.8055 15.5692ZM16.5332 28.2536C17.0237 28.2536 17.5077 28.2536 17.9983 28.2536C18.2402 28.2536 18.3645 28.1697 18.3253 27.9053C18.2141 27.1638 17.4031 26.4995 16.579 26.4867C15.7549 26.4738 14.9308 27.1186 14.8065 27.8602C14.7607 28.1181 14.8327 28.26 15.1205 28.2536C15.5914 28.2471 16.0623 28.2536 16.5332 28.2536ZM22.8055 27.1315C21.9225 27.1315 21.0396 27.1315 20.1566 27.1315C19.8754 27.1315 19.6007 27.1444 19.5941 27.5055C19.5876 27.8537 19.8557 27.9118 20.137 27.9118C21.9029 27.9118 23.6688 27.9118 25.4347 27.9118C25.7094 27.9118 25.9841 27.8795 25.9972 27.5249C26.0038 27.1638 25.7356 27.1315 25.4544 27.1315C24.5714 27.1315 23.6884 27.1315 22.8055 27.1315ZM22.7532 20.6636C23.6492 20.6636 24.5518 20.6636 25.4478 20.6636C25.7356 20.6636 25.9972 20.6185 25.9972 20.2702C25.9972 19.9156 25.7225 19.8898 25.4413 19.8898C23.6754 19.8898 21.9094 19.8898 20.1501 19.8898C19.8623 19.8898 19.6007 19.9285 19.6007 20.2831C19.6072 20.6313 19.8754 20.67 20.1566 20.67C21.0199 20.6636 21.8898 20.6636 22.7532 20.6636ZM22.8513 22.0371C21.9552 22.0371 21.0526 22.0371 20.1566 22.0371C19.8688 22.0371 19.6072 22.0758 19.6007 22.4241C19.5941 22.7787 19.8623 22.8174 20.1435 22.8174C21.9094 22.8174 23.6688 22.8174 25.4347 22.8174C25.716 22.8174 25.9907 22.7916 25.9907 22.4369C25.9907 22.0887 25.7356 22.0371 25.4478 22.0436C24.5845 22.0371 23.7146 22.0371 22.8513 22.0371ZM17.4619 15.2919C17.4554 14.8083 17.0433 14.402 16.5594 14.402C16.0754 14.402 15.6633 14.8083 15.6568 15.2919C15.6502 15.7949 16.0884 16.227 16.5855 16.2076C17.0695 16.1947 17.4685 15.7756 17.4619 15.2919ZM17.4554 25.4871C17.4554 24.997 17.063 24.5972 16.5724 24.5908C16.0819 24.5779 15.6699 24.9648 15.6568 25.4549C15.6437 25.9643 16.0557 26.3835 16.5659 26.377C17.0564 26.3706 17.4554 25.9708 17.4554 25.4871Z" fill="#1E62B9"/>
<path d="M15.4867 10.0489C15.4867 10.4551 15.4867 10.7905 15.4867 11.1774C14.7215 11.1774 13.9759 11.1774 13.2303 11.1774C12.4258 11.1838 12.1446 11.4611 12.1446 12.2543C12.1446 18.1032 12.1446 23.9585 12.1446 29.8073C12.1446 30.594 12.4389 30.8842 13.2368 30.8907C18.0768 30.8971 22.9167 30.8971 27.7566 30.8907C28.5611 30.8907 28.8554 30.594 28.8554 29.8138C28.8554 23.9649 28.8554 18.1096 28.8554 12.2607C28.8554 11.4676 28.5676 11.1903 27.7697 11.1838C27.0372 11.1838 26.3046 11.1838 25.5329 11.1838C25.5329 10.8163 25.5329 10.4745 25.5329 10.0553C25.7814 10.0553 26.0496 10.0553 26.3177 10.0553C27.1353 10.0553 27.9528 10.0489 28.7704 10.0553C29.5487 10.0618 29.9738 10.4874 30 11.2548C30 11.3322 30 11.416 30 11.4934C30 17.8452 30 24.1971 30 30.5425C30 31.6323 29.6337 31.9998 28.5415 31.9998C23.1652 31.9998 17.7824 31.9998 12.4062 31.9998C11.3793 31.9998 11 31.6194 11 30.594C11 24.21 11 17.8259 11 11.4482C11 10.4358 11.3924 10.0553 12.4258 10.0553C13.433 10.0489 14.4468 10.0489 15.4867 10.0489Z" fill="#1E62B9"/>
<path d="M20.4839 12.19C19.3066 12.19 18.1293 12.1964 16.9586 12.19C16.4419 12.19 16.298 12.0417 16.2915 11.5258C16.2849 11.0099 16.2915 10.494 16.2915 9.97812C16.2915 9.60411 16.4877 9.41065 16.867 9.4042C17.3053 9.39775 17.75 9.39775 18.1882 9.4042C18.4956 9.41065 18.6918 9.28813 18.8488 9.01729C19.6533 7.65019 21.3211 7.66953 22.1713 9.02373C22.2825 9.20429 22.5638 9.35906 22.7796 9.38485C23.2113 9.44289 23.6626 9.39775 24.1008 9.4042C24.4997 9.4042 24.7025 9.60411 24.7025 10.0039C24.7025 10.5327 24.7025 11.0679 24.7025 11.5967C24.7025 12.0223 24.4867 12.1964 24.0615 12.1964C22.8712 12.1835 21.6808 12.19 20.4839 12.19Z" fill="#1E62B9"/>
</svg>
