<svg width="40" height="40" viewBox="0 0 40 40" fill="none" xmlns="http://www.w3.org/2000/svg">
<rect width="40" height="40" rx="4" fill="#1E62B9" fill-opacity="0.1"/>
<path d="M9 29.5027C9 23.1676 9 16.8324 9 10.4973C9.17756 10.1184 9.4794 10 9.88778 10C16.8717 10.0059 23.8556 10.0059 30.8395 10C31.2538 10 31.5497 10.1125 31.7273 10.4973C31.7273 16.8324 31.7273 23.1676 31.7273 29.5027C31.5497 29.8875 31.2479 30 30.8336 30C23.8497 29.9941 16.8717 29.9941 9.88778 30C9.4794 29.9941 9.17756 29.8816 9 29.5027ZM14.4806 14.0024C14.1255 14.0024 13.7763 14.0024 13.4271 14.0024C13.072 14.0024 12.7169 13.9964 12.3617 14.0024C12.0125 14.0083 11.7344 14.2688 11.7048 14.6063C11.6752 14.9378 11.9001 15.2516 12.2375 15.3227C12.3203 15.3404 12.415 15.3345 12.5038 15.3345C13.1667 15.3345 13.8295 15.3345 14.4806 15.3345C14.889 16.2463 15.5696 16.6963 16.5521 16.6667C16.8598 16.6607 17.1735 16.6548 17.4813 16.6667C18.4815 16.7022 19.174 16.2581 19.5824 15.3345C19.6534 15.3345 19.7363 15.3345 19.8191 15.3345C22.6068 15.3345 25.3944 15.3345 28.1821 15.3345C28.2531 15.3345 28.33 15.3404 28.401 15.3345C28.6792 15.3108 28.8923 15.1332 28.9811 14.8609C29.0698 14.5885 28.9988 14.3458 28.7857 14.1859C28.6437 14.0793 28.4366 14.0142 28.259 14.0142C25.4418 14.0024 22.6245 14.0083 19.8073 14.0083C19.7304 14.0083 19.6475 14.0083 19.5824 14.0083C19.174 13.0847 18.4875 12.6465 17.4931 12.6761C17.1854 12.688 16.8717 12.688 16.5639 12.6761C15.5755 12.6406 14.889 13.0847 14.4806 14.0024ZM21.139 19.331C21.0443 19.331 20.9614 19.331 20.8845 19.331C18.1027 19.331 15.321 19.331 12.5452 19.331C12.4742 19.331 12.3973 19.325 12.3262 19.331C12.0125 19.3546 11.758 19.6033 11.7166 19.9112C11.6752 20.2191 11.8587 20.521 12.1664 20.6157C12.2789 20.6513 12.3973 20.6572 12.5156 20.6572C15.321 20.6572 18.1205 20.6572 20.9259 20.6572C21.0028 20.6572 21.0857 20.6572 21.1508 20.6572C21.5592 21.569 22.2339 22.013 23.2164 21.9893C23.607 21.9775 23.9976 22.0012 24.3942 21.9834C25.1932 21.9538 25.7791 21.5749 26.152 20.8703C26.1875 20.7993 26.223 20.7282 26.2585 20.6572C26.951 20.6572 27.6316 20.6572 28.3063 20.6572C28.7325 20.6572 29.0343 20.373 29.0284 19.9882C29.0284 19.5974 28.7266 19.331 28.2945 19.325C28.1229 19.325 27.9571 19.325 27.7855 19.325C27.2706 19.325 26.7557 19.325 26.2526 19.325C25.8442 18.4073 25.1636 17.9633 24.1811 17.9929C23.8733 17.9988 23.5597 18.0047 23.2519 17.9929C22.2457 17.9633 21.5473 18.4073 21.139 19.331ZM17.1439 24.6596C17.0907 24.6596 17.0433 24.6596 17.0019 24.6596C15.4808 24.6596 13.9538 24.6596 12.4328 24.6596C12.1309 24.6596 11.9001 24.778 11.7699 25.0503C11.5568 25.5003 11.8942 25.9858 12.4209 25.9917C13.9242 25.9917 15.4216 25.9917 16.925 25.9917C17.0019 25.9917 17.0848 25.9917 17.1499 25.9917C17.5582 26.9035 18.2389 27.3475 19.2214 27.3239C19.6061 27.312 19.9908 27.3298 20.3755 27.3179C21.2041 27.2943 21.8018 26.8976 22.1747 26.1634C22.2043 26.1042 22.228 26.045 22.2517 25.9917C22.3464 25.9917 22.4292 25.9917 22.5121 25.9917C24.4356 25.9917 26.3591 25.9917 28.2827 25.9917C28.5904 25.9917 28.8331 25.8792 28.9692 25.595C29.1823 25.1391 28.8449 24.6596 28.3182 24.6596C26.371 24.6596 24.4297 24.6596 22.4825 24.6596C22.4055 24.6596 22.3227 24.6596 22.2576 24.6596C21.8492 23.7419 21.1745 23.2978 20.192 23.3274C19.8724 23.3333 19.5587 23.3393 19.2391 23.3274C18.233 23.2978 17.5523 23.7478 17.1439 24.6596Z" fill="#1E62B9"/>
<path d="M17.0319 14.0021C17.2509 14.0021 17.4758 13.9962 17.6948 14.0021C18.0736 14.008 18.3577 14.2922 18.3636 14.6593C18.3695 15.0323 18.0795 15.3283 17.6889 15.3342C17.245 15.3402 16.8011 15.3402 16.3572 15.3342C15.9843 15.3283 15.6943 15.0323 15.6943 14.6711C15.6943 14.31 15.9843 14.0198 16.3572 14.008C16.588 14.0021 16.807 14.0021 17.0319 14.0021Z" fill="#1E62B9"/>
<path d="M23.69 20.6632C23.471 20.6632 23.2461 20.6691 23.0271 20.6632C22.6543 20.6513 22.3643 20.3612 22.3643 20.0001C22.3643 19.6389 22.6483 19.337 23.0212 19.331C23.471 19.3251 23.9208 19.3251 24.3707 19.331C24.7435 19.337 25.0276 19.6389 25.0276 20.0001C25.0217 20.3494 24.7435 20.6454 24.3825 20.6573C24.1517 20.6691 23.9208 20.6632 23.69 20.6632Z" fill="#1E62B9"/>
<path d="M19.6783 25.992C19.4652 25.992 19.2521 25.9979 19.0331 25.992C18.6603 25.9801 18.3703 25.696 18.3643 25.3348C18.3584 24.9677 18.6544 24.6658 19.0391 24.6658C19.477 24.6598 19.9091 24.6598 20.3471 24.6658C20.7377 24.6717 21.0277 24.9618 21.0277 25.3348C21.0277 25.7078 20.7318 25.992 20.3411 25.9979C20.1222 25.9979 19.8973 25.992 19.6783 25.992Z" fill="#1E62B9"/>
</svg>
