<svg width="40" height="40" viewBox="0 0 40 40" fill="none" xmlns="http://www.w3.org/2000/svg">
<rect width="40" height="40" rx="4" fill="#1E62B9" fill-opacity="0.1"/>
<path d="M30.9996 19.9844C30.9991 19.8262 30.9954 19.6688 30.9883 19.5122V10.5839L28.5272 13.0522C26.513 10.5794 23.4487 9 20.0165 9C16.4447 9 13.2715 10.7099 11.2656 13.3579L15.2997 17.4464C15.695 16.7131 16.2566 16.0832 16.9338 15.6075C17.6381 15.0563 18.636 14.6057 20.0164 14.6057C20.1831 14.6057 20.3119 14.6252 20.4064 14.662C22.1167 14.7974 23.5993 15.744 24.4722 17.118L21.6167 19.9819C25.2335 19.9677 29.3194 19.9593 30.9993 19.9837" fill="#1C3AA9"/>
<path d="M19.9523 9C19.7945 9.00053 19.6376 9.00418 19.4815 9.01127H10.5792L13.0403 11.4796C10.5748 13.4998 9 16.573 9 20.0152C9 23.5975 10.7049 26.78 13.3452 28.7918L17.4217 24.7459C16.6905 24.3494 16.0625 23.7861 15.5882 23.107C15.0387 22.4006 14.5893 21.3998 14.5893 20.0154C14.5893 19.8481 14.6088 19.719 14.6455 19.6242C14.7805 17.9089 15.7243 16.422 17.0943 15.5465L19.9498 18.4104C19.9356 14.783 19.9273 10.6851 19.9517 9.00032" fill="#4285F4"/>
<path d="M9.00098 20.0156C9.0015 20.1738 9.00514 20.3312 9.01221 20.4878V29.4161L11.4733 26.9478C13.4876 29.4206 16.5518 31 19.984 31C23.5558 31 26.729 29.2901 28.7349 26.6421L24.7009 22.5537C24.3055 23.2869 23.7439 23.9168 23.0667 24.3925C22.3625 24.9437 21.3646 25.3944 19.9842 25.3944C19.8174 25.3944 19.6887 25.3748 19.5941 25.338C17.8838 25.2026 16.4013 24.256 15.5284 22.882L18.3839 20.0181C14.767 20.0323 10.6811 20.0407 9.00129 20.0163" fill="#ABABAB"/>
</svg>
