<svg width="40" height="40" viewBox="0 0 40 40" fill="none" xmlns="http://www.w3.org/2000/svg">
<rect width="40" height="40" rx="4" fill="#1E62B9" fill-opacity="0.1"/>
<path d="M8 27.9522C8 23.3689 8 18.7856 8 14.2022C14.3486 14.2022 20.7029 14.2022 27.0571 14.2022C27.0571 15.2163 27.0571 16.2074 27.0571 17.2215C26.5285 16.9809 26.0112 16.9866 25.5107 17.2616C25.0046 17.5423 24.7235 17.9949 24.6279 18.5793C24.2005 18.5793 23.7844 18.5621 23.3739 18.585C22.969 18.6022 22.5529 18.6137 22.1593 18.7054C19.7076 19.2668 18.0543 21.3809 18.0487 23.9475C18.0431 25.3569 18.0487 26.7663 18.0487 28.1814C18.0487 28.2559 18.0487 28.3361 18.0487 28.4335C17.9587 28.4335 17.8856 28.4335 17.8069 28.4335C14.821 28.4335 11.835 28.4277 8.84911 28.4392C8.45548 28.4277 8.1687 28.3189 8 27.9522ZM13.2915 19.3585C14.1181 19.3585 14.9503 19.3585 15.7769 19.3585C16.1874 19.3585 16.4742 19.0949 16.4742 18.7225C16.4798 18.3387 16.193 18.0694 15.7657 18.0694C14.1293 18.0694 12.493 18.0694 10.8566 18.0694C10.4349 18.0694 10.1424 18.333 10.1481 18.7168C10.1481 19.1007 10.4349 19.3585 10.8678 19.3585C11.6776 19.3585 12.4817 19.3585 13.2915 19.3585ZM13.3139 20.6418C12.493 20.6418 11.672 20.6361 10.851 20.6475C10.7104 20.6475 10.5586 20.6934 10.4349 20.7621C10.1987 20.8996 10.1031 21.1975 10.1762 21.4496C10.2605 21.7533 10.4911 21.9309 10.8172 21.9309C12.4705 21.9309 14.1181 21.9309 15.7713 21.9309C16.193 21.9309 16.4798 21.6673 16.4798 21.2835C16.4742 20.8996 16.1874 20.6475 15.76 20.6475C14.9447 20.6418 14.1293 20.6418 13.3139 20.6418ZM13.3308 24.5147C14.1462 24.5147 14.9616 24.5147 15.7769 24.5147C16.1874 24.5147 16.4742 24.2512 16.4742 23.8788C16.4798 23.4949 16.193 23.2257 15.7657 23.2257C14.1406 23.2257 12.5211 23.2257 10.896 23.2257C10.4742 23.2257 10.1818 23.4892 10.1874 23.8731C10.1874 24.2569 10.4798 24.5147 10.9016 24.5147C11.717 24.5147 12.5267 24.5147 13.3308 24.5147Z" fill="#1E62B9"/>
<path d="M26.6016 9C26.9615 9.17187 27.0796 9.45833 27.074 9.85937C27.0571 10.8677 27.0684 11.876 27.0684 12.9073C20.7085 12.9073 14.3542 12.9073 8.00562 12.9073C8 11.7786 8 10.65 8 9.51562C8.08435 9.25781 8.25305 9.08594 8.50609 9C14.5398 9 20.5679 9 26.6016 9ZM20.2699 10.9594C20.2699 10.6099 19.9887 10.3177 19.6457 10.312C19.3027 10.3062 19.0103 10.5927 19.0046 10.9422C18.999 11.3031 19.2858 11.601 19.6401 11.5953C19.9887 11.5953 20.2699 11.3089 20.2699 10.9594ZM22.8059 10.9536C22.8059 10.6042 22.5248 10.3177 22.1761 10.312C21.8331 10.3062 21.5463 10.5927 21.5407 10.9422C21.5351 11.3031 21.8275 11.5953 22.1761 11.5953C22.5192 11.5953 22.8059 11.3031 22.8059 10.9536ZM25.3308 10.9651C25.3364 10.6156 25.0609 10.3234 24.7122 10.312C24.3692 10.3062 24.0768 10.587 24.0656 10.9365C24.0543 11.2974 24.3411 11.5953 24.6954 11.601C25.044 11.601 25.3308 11.3146 25.3308 10.9651Z" fill="#1E62B9"/>
<path d="M19.602 30.9997C19.3827 30.868 19.3096 30.6732 19.3096 30.4153C19.3152 28.244 19.3096 26.0784 19.3152 23.907C19.3208 22.0279 20.5129 20.4466 22.2843 19.9883C22.6273 19.9023 22.9928 19.8737 23.347 19.8622C24.1174 19.845 24.8934 19.8565 25.6638 19.8565C25.7313 19.8565 25.7988 19.8565 25.8887 19.8565C25.8887 19.5013 25.8944 19.169 25.8887 18.831C25.8831 18.6247 25.9506 18.4643 26.1362 18.3727C26.3274 18.281 26.4848 18.344 26.6366 18.4758C27.5588 19.2607 28.481 20.0398 29.4033 20.8305C29.482 20.8992 29.5326 20.9909 29.6001 21.0768C29.6001 21.1628 29.6001 21.2487 29.6001 21.3346C29.4989 21.4435 29.4089 21.5581 29.302 21.6497C28.4248 22.4003 27.542 23.145 26.6647 23.8898C26.5017 24.0273 26.333 24.1075 26.1305 24.0044C25.9281 23.907 25.8887 23.7294 25.8944 23.5232C25.9 23.1966 25.8944 22.87 25.8944 22.5378C24.9722 22.5378 24.0724 22.5378 23.1727 22.5378C23.1334 22.5378 23.0884 22.5435 23.049 22.5549C22.3742 22.6867 21.9581 23.2138 21.9581 23.9471C21.9581 26.0956 21.9525 28.244 21.9581 30.3867C21.9581 30.6502 21.8963 30.8565 21.6713 30.9997C20.9797 30.9997 20.288 30.9997 19.602 30.9997Z" fill="#1E62B9"/>
<g filter="url(#filter0_d_1061_7404)">
<path d="M25.7631 29.6632V30.8091C25.7631 30.86 25.745 30.9046 25.7086 30.9428C25.6722 30.9809 25.6298 31 25.5814 31H24.4906C24.4421 31 24.3997 30.9809 24.3634 30.9428C24.327 30.9046 24.3088 30.86 24.3088 30.8091V29.6632C24.3088 29.6123 24.327 29.5678 24.3634 29.5296C24.3997 29.4914 24.4421 29.4723 24.4906 29.4723H25.5814C25.6298 29.4723 25.6722 29.4914 25.7086 29.5296C25.745 29.5678 25.7631 29.6123 25.7631 29.6632ZM27.1993 26.7987C27.1993 26.9705 27.1758 27.1313 27.1288 27.2809C27.0819 27.4305 27.0289 27.5522 26.9698 27.6461C26.9107 27.74 26.8274 27.8347 26.7198 27.9302C26.6123 28.0257 26.5251 28.0949 26.4585 28.1379C26.3918 28.1808 26.2994 28.2373 26.1813 28.3073C26.057 28.3805 25.9533 28.484 25.8699 28.6177C25.7866 28.7514 25.745 28.858 25.745 28.9375C25.745 28.9917 25.7268 29.0434 25.6904 29.0927C25.6541 29.142 25.6117 29.1667 25.5632 29.1667H24.4724C24.427 29.1667 24.3884 29.1373 24.3565 29.0784C24.3247 29.0195 24.3088 28.9598 24.3088 28.8994V28.6845C24.3088 28.4203 24.4073 28.1713 24.6042 27.9373C24.8012 27.7034 25.0178 27.5307 25.2541 27.4193C25.4329 27.3334 25.5601 27.2443 25.6359 27.152C25.7116 27.0597 25.7495 26.9387 25.7495 26.7891C25.7495 26.6554 25.6791 26.5377 25.5382 26.4358C25.3973 26.334 25.2344 26.283 25.0496 26.283C24.8527 26.283 24.6891 26.3292 24.5588 26.4215C24.4527 26.5011 24.2906 26.6841 24.0725 26.9705C24.0331 27.0215 23.9862 27.0469 23.9316 27.0469C23.8953 27.0469 23.8574 27.0342 23.818 27.0087L23.0727 26.4119C23.0333 26.3801 23.0098 26.3403 23.0022 26.2926C22.9946 26.2448 23.003 26.2003 23.0272 26.1589C23.512 25.3123 24.2149 24.8889 25.136 24.8889C25.3784 24.8889 25.6223 24.9383 25.8677 25.0369C26.1131 25.1356 26.3343 25.2677 26.5312 25.4332C26.7281 25.5987 26.8887 25.8016 27.0129 26.0419C27.1372 26.2822 27.1993 26.5345 27.1993 26.7987Z" fill="#1E62B9"/>
</g>
<rect x="27.8003" y="26.111" width="4.19977" height="1.22222" rx="0.61111" fill="#1E62B9"/>
<rect x="27.8003" y="27.9441" width="4.19977" height="1.22222" rx="0.61111" fill="#1E62B9"/>
<defs>
<filter id="filter0_d_1061_7404" x="16.9995" y="14.8889" width="20.1997" height="22.1111" filterUnits="userSpaceOnUse" color-interpolation-filters="sRGB">
<feFlood flood-opacity="0" result="BackgroundImageFix"/>
<feColorMatrix in="SourceAlpha" type="matrix" values="0 0 0 0 0 0 0 0 0 0 0 0 0 0 0 0 0 0 127 0" result="hardAlpha"/>
<feOffset dx="2" dy="-2"/>
<feGaussianBlur stdDeviation="4"/>
<feComposite in2="hardAlpha" operator="out"/>
<feColorMatrix type="matrix" values="0 0 0 0 0 0 0 0 0 0 0 0 0 0 0 0 0 0 0.55 0"/>
<feBlend mode="normal" in2="BackgroundImageFix" result="effect1_dropShadow_1061_7404"/>
<feBlend mode="normal" in="SourceGraphic" in2="effect1_dropShadow_1061_7404" result="shape"/>
</filter>
</defs>
</svg>
