<svg width="40" height="40" viewBox="0 0 40 40" fill="none" xmlns="http://www.w3.org/2000/svg">
<rect width="40" height="40" rx="4" fill="#1E62B9" fill-opacity="0.1"/>
<path d="M9 20C9 17.0143 9 14.081 9 11.0952C9 9.73333 9.73333 9 11.1476 9C17.0667 9 22.9857 9 28.8524 9C30.2667 9 31 9.73333 31 11.1476C31 17.0667 31 22.9857 31 28.8524C31 30.2143 30.2667 31 28.9048 31C22.9857 31 17.0667 31 11.1476 31C9.73333 31 9 30.2667 9 28.8524C9 25.919 9 22.9857 9 20ZM28.3286 16.4381C28.3286 16.1762 28.3286 16.019 28.3286 15.8619C28.3286 14.7095 28.3286 13.6095 28.3286 12.4571C28.3286 11.881 28.119 11.6714 27.5429 11.6714C25.7095 11.6714 23.8238 11.6714 21.9905 11.6714C21.4667 11.6714 21.1524 11.9333 21.1524 12.3C21.1524 12.719 21.4143 12.9286 21.9905 12.9286C23.5619 12.9286 25.081 12.9286 26.6524 12.9286C26.8095 12.9286 26.9667 12.9286 27.1238 12.9286C27.1238 14.081 27.1238 15.181 27.1238 16.3857C26.9667 16.2286 26.9143 16.1238 26.8095 16.0714C26.5476 15.7571 26.2333 15.7048 25.919 15.9667C25.6048 16.2286 25.6048 16.5429 25.8667 16.8048C26.3381 17.381 26.8095 17.9571 27.281 18.5333C27.5429 18.8476 27.8571 18.8476 28.119 18.5333C28.6429 17.9571 29.1143 17.381 29.5857 16.7524C29.7952 16.4381 29.7429 16.1238 29.481 15.8619C29.219 15.6 28.9048 15.7048 28.6429 15.9667C28.5905 16.1238 28.4857 16.2286 28.3286 16.4381ZM27.0714 27.019C25.919 27.019 24.819 27.019 23.6667 27.019C23.7714 26.9143 23.8238 26.9143 23.8762 26.8619C24.2952 26.5476 24.3476 26.2333 24.0857 25.919C23.8238 25.6048 23.5095 25.6048 23.1429 25.919C22.619 26.3381 22.0429 26.8095 21.519 27.281C21.1524 27.5952 21.1524 27.9095 21.519 28.2238C22.0952 28.6952 22.6714 29.1667 23.2476 29.6381C23.5619 29.8476 23.8238 29.7952 24.0857 29.5333C24.3476 29.2714 24.2952 28.9571 24.0333 28.6952C23.9286 28.5905 23.8238 28.4857 23.6143 28.2762C23.8762 28.2762 24.0333 28.2762 24.1905 28.2762C25.2381 28.2762 26.3381 28.2762 27.3857 28.2762C28.1714 28.2762 28.381 28.0667 28.381 27.281C28.381 26.0238 28.381 24.7667 28.381 23.5095C28.381 22.9333 28.381 22.4095 28.381 21.8333C28.381 21.4143 28.119 21.2048 27.7 21.2048C27.3333 21.2048 27.1238 21.4667 27.1238 21.8333C27.1238 21.9905 27.1238 22.1476 27.1238 22.2524C27.0714 23.8238 27.0714 25.3952 27.0714 27.019ZM16.3857 11.6714C15.0238 11.6714 13.7667 11.6714 12.5095 11.6714C11.9333 11.6714 11.7238 11.881 11.7238 12.4571C11.7238 14.3429 11.7238 16.1762 11.7238 18.0619C11.7238 18.5857 11.9333 18.8476 12.3524 18.8476C12.719 18.8476 12.981 18.5857 12.981 18.0619C12.981 16.5429 12.981 14.9714 12.981 13.4524C12.981 13.2952 12.981 13.1381 12.981 12.981C14.1857 12.981 15.2857 12.981 16.4905 12.981C16.3857 13.0857 16.3333 13.0857 16.281 13.1381C15.8619 13.5048 15.7571 13.819 16.019 14.1333C16.281 14.4476 16.5952 14.4476 17.0143 14.081C17.5381 13.6619 18.0619 13.2429 18.5857 12.8238C18.9 12.5619 18.9524 12.1952 18.6381 11.881C18.0619 11.3571 17.4333 10.8333 16.8048 10.3619C16.5429 10.1524 16.2286 10.2571 16.019 10.4667C15.7571 10.7286 15.8095 10.9905 16.019 11.2524C16.0714 11.4095 16.2286 11.5143 16.3857 11.6714ZM12.981 27.0714C12.981 25.919 12.981 24.819 12.981 23.6667C13.0857 23.7714 13.0857 23.8238 13.1381 23.8238C13.4524 24.2429 13.7667 24.2952 14.081 24.0333C14.3952 23.7714 14.3952 23.4571 14.081 23.0381C13.6619 22.5143 13.2429 21.9905 12.7714 21.4667C12.4571 21.1 12.1429 21.1 11.8286 21.4667C11.3571 22.0429 10.8857 22.619 10.4143 23.1952C10.1524 23.5095 10.2571 23.8238 10.519 24.0333C10.8333 24.2952 11.0952 24.1905 11.3571 23.9286C11.4619 23.8238 11.5143 23.719 11.619 23.6143C11.619 23.719 11.6714 23.719 11.6714 23.7714C11.6714 24.9238 11.6714 26.0762 11.6714 27.281C11.6714 28.119 11.8286 28.2762 12.6667 28.2762C14.3952 28.2762 16.1762 28.2762 17.9048 28.2762C18.0619 28.2762 18.219 28.3286 18.3238 28.2238C18.5333 28.0667 18.7429 27.8571 18.7952 27.6476C18.8476 27.3333 18.6381 27.1238 18.3238 27.019C18.1667 26.9667 18.0095 27.019 17.9048 27.019C16.281 27.0714 14.6571 27.0714 12.981 27.0714Z" fill="#1E62B9"/>
</svg>
