<svg width="40" height="40" viewBox="0 0 40 40" fill="none" xmlns="http://www.w3.org/2000/svg">
<rect width="40" height="40" rx="4" fill="#1E62B9" fill-opacity="0.1"/>
<path d="M19.8505 30.0183C19.4892 30.0183 19.2002 30.0183 18.9111 30.0183C16.0208 30.0183 13.2027 30.0183 10.3123 30.0183C8.86711 30.0183 8 29.1376 8 27.6697C8 21.8716 8 16.0734 8 10.2752C8 9.17431 8.57807 8.36697 9.5897 8.07339C9.80648 8 10.0233 8 10.24 8C15.9485 8 21.657 8 27.4377 8C28.8106 8 29.6777 8.88073 29.6777 10.2752C29.6777 12.7706 29.6777 15.3394 29.6777 17.8349C29.6777 18.055 29.6055 18.1284 29.3887 18.2752C29.1719 18.3486 28.8829 18.5688 28.7383 18.7156C25.9202 21.945 23.1744 25.1009 20.3563 28.3303C20.1395 28.6239 20.0673 28.9908 19.995 29.3578C19.8505 29.578 19.8505 29.7982 19.8505 30.0183ZM18.2608 23.7064C18.1163 23.7064 18.044 23.7064 17.8995 23.7064C17.755 23.7064 17.6827 23.7064 17.5382 23.7064C17.1769 23.7064 16.9601 23.9266 16.9601 24.2202C16.9601 24.5872 17.1046 24.8073 17.4659 24.8073C18.333 24.8073 19.2002 24.8073 20.0673 24.8073C20.4286 24.8073 20.5731 24.5872 20.5731 24.2202C20.5731 23.9266 20.3563 23.7064 20.0673 23.7064C19.8505 23.7064 19.6337 23.7064 19.3447 23.7064C19.3447 20.5505 19.3447 17.3945 19.3447 14.3119C20.7176 14.3119 22.0183 14.3119 23.3912 14.3119C23.3912 14.6055 23.3912 14.8991 23.3912 15.1927C23.3912 15.3394 23.3912 15.4862 23.4634 15.5596C23.608 15.8532 23.8247 15.9266 24.1138 15.7798C24.2583 15.7064 24.4751 15.4862 24.4751 15.3394C24.5473 14.8991 24.4751 14.5321 24.4751 14.0917C24.4751 13.4312 24.2583 13.211 23.608 13.211C22.0905 13.211 20.5731 13.211 19.1279 13.211C17.3937 13.211 15.7317 13.211 13.9975 13.211C13.4917 13.211 13.2027 13.4312 13.1304 13.945C13.1304 14.3853 13.1304 14.8991 13.1304 15.3394C13.1304 15.7064 13.3472 15.9266 13.7085 15.9266C13.9975 15.9266 14.2143 15.7064 14.2143 15.3394C14.2143 15.0459 14.2143 14.6789 14.2143 14.3119C15.5872 14.3119 16.8879 14.3119 18.2608 14.3119C18.2608 17.4679 18.2608 20.5505 18.2608 23.7064Z" fill="#1E62B9"/>
<path d="M20.645 31.9997C20.7173 31.5593 20.7895 31.119 20.8618 30.752C20.9341 30.3116 21.0063 29.8713 21.0786 29.4309C21.1508 29.2107 21.2231 28.9905 21.3676 28.7704C23.6076 26.2015 25.7754 23.7061 28.0154 21.1373C28.0877 21.0639 28.16 20.9171 28.3045 20.8438C29.0993 21.5043 29.8219 22.2382 30.6168 22.8988C30.111 23.486 29.6051 24.0731 29.0993 24.6603C27.2928 26.7887 25.4141 28.8438 23.6076 30.9722C23.4631 31.119 23.3186 31.1924 23.1741 31.2658C22.3792 31.5593 21.5121 31.7795 20.645 31.9997Z" fill="#1E62B9"/>
<path d="M25.9204 30.0186C27.1488 28.5507 28.3772 27.2296 29.6779 25.7617C29.6779 25.9819 29.6779 26.2021 29.6779 26.3489C29.6779 26.936 29.6779 27.5232 29.6779 28.0369C29.6056 29.1379 28.8108 29.9452 27.7269 30.0186C27.0766 30.0186 26.5707 30.0186 25.9204 30.0186Z" fill="#1E62B9"/>
<path d="M29.0273 20.1098C29.1719 19.8896 29.3164 19.7428 29.4609 19.5226C29.7499 19.2291 30.039 19.1557 30.328 19.4493C30.8338 19.8896 31.2674 20.33 31.7732 20.7704C32.0622 20.9905 32.0622 21.2841 31.8454 21.5777C31.7009 21.7979 31.5564 22.0181 31.3396 22.2382C30.5448 21.5043 29.7499 20.7704 29.0273 20.1098Z" fill="#1E62B9"/>
</svg>
