<svg width="40" height="40" viewBox="0 0 40 40" fill="none" xmlns="http://www.w3.org/2000/svg">
<rect width="40" height="40" rx="4" fill="#1E62B9" fill-opacity="0.1"/>
<path d="M23.4444 9C23.4444 9.92976 23.438 10.8333 23.4444 11.7369C23.4509 12.6405 24.0018 13.3869 24.8574 13.6292C25.0583 13.6881 25.2722 13.7077 25.4796 13.7077C26.3481 13.7143 27.2102 13.7143 28.0981 13.7143C28.1046 13.7798 28.1111 13.8452 28.1111 13.9042C28.1111 19.1815 28.1111 24.4589 28.1111 29.7363C28.1111 30.5024 27.625 31 26.8731 31C21.9991 31 17.1185 31 12.2444 31C11.4926 31 11 30.5024 11 29.7363C11 23.2476 11 16.7589 11 10.2702C11 9.49107 11.4861 9 12.2574 9C15.9713 9 19.6917 9 23.4444 9ZM22.8741 15.6131C22.7769 15.5083 22.6926 15.3643 22.563 15.3054C22.375 15.2202 22.2 15.3119 22.0963 15.4952C21.8565 15.9208 21.6102 16.3399 21.3704 16.7655C21.2278 17.0143 21.2667 17.2435 21.4676 17.3679C21.675 17.4923 21.8954 17.4137 22.0444 17.1518C22.2778 16.7524 22.5046 16.3464 22.738 15.947C22.7833 15.8619 22.8157 15.7637 22.8741 15.6131ZM24.7343 17.5315C24.6306 17.5577 24.5981 17.5577 24.5722 17.5708C24.0667 17.8589 23.5546 18.1405 23.062 18.4548C22.8935 18.5595 22.887 18.7625 22.9907 18.9393C23.0944 19.1161 23.2824 19.1881 23.4509 19.0964C23.95 18.828 24.4361 18.5399 24.9157 18.2387C25.0713 18.1405 25.1037 17.9506 25.013 17.8C24.9481 17.6821 24.812 17.6036 24.7343 17.5315ZM16.1787 22.9137C16.1852 22.5339 15.8676 22.3506 15.5889 22.5012C15.1417 22.75 14.7009 23.0054 14.2667 23.2738C14.0463 23.4048 13.9944 23.6208 14.1046 23.8173C14.2148 24.0137 14.4352 24.0726 14.6491 23.9482C15.0963 23.6994 15.537 23.444 15.9713 23.1756C16.075 23.1167 16.1333 22.9726 16.1787 22.9137ZM25.1037 23.4637C25.0713 23.4179 25.0389 23.2804 24.9481 23.228C24.4815 22.9399 24.0083 22.6583 23.5222 22.3964C23.3343 22.2917 23.1528 22.3637 23.0426 22.547C22.9324 22.7304 22.9519 22.9333 23.1333 23.0446C23.613 23.3458 24.0991 23.6339 24.6046 23.8958C24.8315 24.0137 25.0972 23.8042 25.1037 23.4637ZM22.8611 25.9714C22.8352 25.8536 22.8287 25.8012 22.8093 25.7619C22.537 25.2708 22.2648 24.7798 21.9731 24.3018C21.863 24.1185 21.662 24.1054 21.4741 24.2101C21.2926 24.3149 21.2278 24.5048 21.312 24.675C21.5778 25.1792 21.863 25.6702 22.1546 26.1548C22.2454 26.3054 22.4333 26.3512 22.5824 26.2595C22.712 26.1875 22.7898 26.05 22.8611 25.9714ZM16.7296 26.2923C16.775 26.2661 16.9111 26.2268 16.963 26.1351C17.2481 25.6637 17.5269 25.1857 17.7926 24.7012C17.8963 24.5113 17.8056 24.2887 17.6241 24.197C17.4361 24.1054 17.2417 24.1315 17.1315 24.3149C16.8463 24.7798 16.5741 25.2512 16.3213 25.7292C16.1787 25.9976 16.3731 26.2923 16.7296 26.2923ZM19.1667 15.6589C19.1667 15.9143 19.1667 16.1631 19.1667 16.4185C19.1731 16.6869 19.3222 16.8571 19.5491 16.8637C19.7759 16.8702 19.938 16.6935 19.9444 16.4315C19.9509 15.9339 19.9509 15.4363 19.9444 14.9387C19.9444 14.6768 19.7824 14.5065 19.5491 14.5065C19.3222 14.5131 19.1731 14.6833 19.1667 14.9518C19.1602 15.181 19.1667 15.4167 19.1667 15.6589ZM14.4935 21.1786C14.7528 21.1786 15.012 21.1851 15.2713 21.1786C15.5046 21.172 15.6602 21.0083 15.6667 20.7988C15.6731 20.5762 15.5111 20.3994 15.2648 20.3994C14.7528 20.3929 14.2472 20.3929 13.7352 20.3994C13.4889 20.3994 13.3269 20.5696 13.3269 20.7923C13.3269 21.0149 13.4889 21.172 13.7352 21.1786C13.9944 21.1851 14.2472 21.1786 14.4935 21.1786ZM24.6111 21.1786C24.8509 21.1786 25.0972 21.1786 25.337 21.1786C25.6028 21.172 25.7713 21.0214 25.7778 20.7923C25.7843 20.5631 25.6093 20.3994 25.35 20.3929C24.8574 20.3863 24.3648 20.3863 23.8722 20.3929C23.613 20.3929 23.4444 20.5565 23.4444 20.7923C23.4509 21.0214 23.613 21.172 23.8852 21.1786C24.125 21.1851 24.3713 21.1786 24.6111 21.1786ZM19.9444 25.8929C19.9444 25.6506 19.9444 25.4018 19.9444 25.1595C19.938 24.8911 19.7889 24.7208 19.562 24.7143C19.3352 24.7077 19.1731 24.878 19.1667 25.1464C19.1602 25.644 19.1602 26.1417 19.1667 26.6393C19.1667 26.9012 19.3287 27.0714 19.562 27.0714C19.7889 27.0649 19.938 26.8946 19.9444 26.6262C19.9444 26.3839 19.9444 26.1417 19.9444 25.8929ZM17.987 20.3929C17.7796 20.3994 17.6046 20.5762 17.6111 20.7923C17.6111 21.0083 17.7861 21.1786 18 21.1786C18.2204 21.1786 18.4019 20.9887 18.3889 20.7726C18.3759 20.5565 18.2009 20.3863 17.987 20.3929ZM19.5491 20.3929C19.3352 20.3994 19.1667 20.5762 19.1667 20.7857C19.1667 21.0018 19.3417 21.1786 19.5491 21.1786C19.7694 21.1786 19.9509 20.9952 19.9444 20.7726C19.938 20.5631 19.7565 20.3929 19.5491 20.3929ZM21.1176 20.3929C20.9037 20.3863 20.7287 20.5565 20.7222 20.7726C20.7157 20.9952 20.8972 21.1851 21.1176 21.1786C21.325 21.1786 21.5 21.0018 21.5 20.7857C21.5 20.5762 21.3315 20.3994 21.1176 20.3929Z" fill="#1E62B9"/>
<path d="M27.4564 12.9285C26.7629 12.9285 26.0175 12.9481 25.2721 12.9219C24.7083 12.9023 24.2351 12.3981 24.2221 11.8219C24.2027 11.0886 24.2157 10.3487 24.2157 9.65466C25.2916 10.7416 26.3805 11.8416 27.4564 12.9285Z" fill="#1E62B9"/>
</svg>
