<svg width="40" height="40" viewBox="0 0 40 40" fill="none" xmlns="http://www.w3.org/2000/svg">
<rect width="40" height="40" rx="4" fill="#1E62B9" fill-opacity="0.1"/>
<path d="M8 24.7872C8 24.5111 8.22386 24.2872 8.5 24.2872C12.7237 24.2872 16.9474 24.2871 21.1711 24.2825C21.3341 24.2825 21.4491 24.3206 21.5689 24.4396C22.4173 25.2917 23.2704 26.1344 24.1236 26.9818V26.9818C24.217 27.0746 24.2121 27.227 24.1176 27.3187C23.9991 27.4335 23.8829 27.5445 23.7689 27.6578C23.0404 28.3814 22.307 29.1003 21.5881 29.8287C21.4683 29.9524 21.3484 30.0001 21.1711 30.0001C16.9474 30.0001 12.7237 30.0001 8.5 30.0001C8.22386 30.0001 8 29.7762 8 29.5001C8 27.9291 8 26.3582 8 24.7872Z" fill="#1E62B9"/>
<path d="M32.5407 22.3585C32.5407 22.6346 32.3168 22.8585 32.0407 22.8585C27.6863 22.8585 23.3325 22.8585 18.996 22.8585C18.5497 22.8585 18.3272 22.3184 18.6441 22.0042C19.1765 21.4763 19.7126 20.9448 20.2506 20.409C20.4468 20.2135 20.4464 19.8957 20.2499 19.7005C19.672 19.1266 19.1081 18.5667 18.5379 18.0018C18.2205 17.6873 18.4431 17.1456 18.89 17.1456C23.3084 17.1456 27.672 17.1456 32.0371 17.1456C32.3128 17.1456 32.5365 17.3687 32.537 17.6444C32.5403 19.2157 32.5406 20.7871 32.5407 22.3585Z" fill="#1E62B9"/>
<path d="M8 10.5048C8 10.2286 8.22386 10.0048 8.5 10.0048C11.7651 10.0047 15.0302 10.0045 18.2953 10C18.4583 10 18.5733 10.0381 18.6931 10.1571C19.5415 11.0093 20.3946 11.8519 21.2478 12.6993V12.6993C21.3369 12.7878 21.3362 12.9338 21.2477 13.023C21.243 13.0278 21.2382 13.0326 21.2334 13.0373C20.3851 13.88 19.5367 14.7178 18.6979 15.5605C18.5829 15.6795 18.4631 15.7176 18.3001 15.7176C15.0304 15.7176 11.7651 15.7176 8.5 15.7176C8.22386 15.7176 8 15.4937 8 15.2176C8 13.6466 8 12.0757 8 10.5048Z" fill="#1E62B9"/>
<path d="M32.5405 15.2182C32.5405 15.4943 32.3166 15.7182 32.0405 15.7182C28.6455 15.7182 25.2515 15.7182 21.8763 15.7182C21.4301 15.7182 21.2074 15.1779 21.5241 14.8635C22.0548 14.3367 22.589 13.8067 23.1277 13.2738C23.3253 13.0783 23.3257 12.7591 23.1285 12.5633C22.5497 11.9884 21.9849 11.4274 21.4138 10.8601C21.0972 10.5456 21.3199 10.0054 21.7662 10.0054C25.2246 10.0054 28.6354 10.0054 32.044 10.0054C32.3206 10.0054 32.5447 10.23 32.5441 10.5066C32.5408 12.0772 32.5405 13.6477 32.5405 15.2182Z" fill="#1E62B9"/>
<path d="M8 17.645C8 17.3689 8.22386 17.145 8.5 17.145C10.8065 17.145 13.113 17.1447 15.4195 17.1403C15.5825 17.1403 15.6975 17.1783 15.8174 17.2974C16.6657 18.1495 17.5189 18.9922 18.372 19.8396V19.8396C18.4654 19.9324 18.4606 20.0848 18.366 20.1765C18.2476 20.2913 18.1313 20.4023 18.0173 20.5156C17.2888 21.2392 16.5603 21.9581 15.8365 22.6865C15.7167 22.8102 15.5969 22.8626 15.4243 22.8626C13.1133 22.8537 10.8065 22.8573 8.5 22.8578C8.22386 22.8578 8 22.634 8 22.3578C8 20.7869 8 19.216 8 17.645Z" fill="#1E62B9"/>
<path d="M32.5406 29.4997C32.5406 29.7758 32.3167 29.9997 32.0406 29.9997C29.6044 29.9997 27.1691 29.9997 24.7474 29.9997C24.3012 29.9997 24.0787 29.4596 24.3956 29.1454C24.928 28.6175 25.464 28.0861 26.0021 27.5502C26.1983 27.3547 26.1979 27.037 26.0013 26.8418C25.4235 26.2678 24.8596 25.708 24.2894 25.143C23.972 24.8285 24.1946 24.2869 24.6414 24.2869C27.1362 24.2869 29.5897 24.2869 32.0406 24.2869C32.3167 24.2869 32.5406 24.5107 32.5406 24.7869C32.5406 26.3578 32.5406 27.9287 32.5406 29.4997Z" fill="#1E62B9"/>
</svg>
