<svg width="40" height="40" viewBox="0 0 40 40" fill="none" xmlns="http://www.w3.org/2000/svg">
<rect width="40" height="40" rx="4" fill="#1E62B9" fill-opacity="0.1"/>
<g clip-path="url(#clip0_1061_8194)">
<path d="M31 15.4855C31 20.1089 31 24.7381 31 29.3615C30.9771 29.4188 30.9427 29.4704 30.9255 29.5277C30.6734 30.387 29.9516 30.9485 29.0521 30.9485C23.0193 30.9485 16.9807 30.9485 10.9479 30.9485C10.0542 30.9485 9.32656 30.387 9.07448 29.5277C9.05729 29.4704 9.02865 29.4131 9 29.3615C9 24.7381 9 20.1146 9 15.4855C16.3333 15.4855 23.6667 15.4855 31 15.4855ZM18.1094 27.7344C18.3958 27.7172 18.5849 27.5339 18.7109 27.2417C19.6964 24.9329 20.6875 22.624 21.6786 20.3152C21.9651 19.6506 22.2516 18.9917 22.5266 18.3271C22.6526 18.0292 22.5609 17.7198 22.3146 17.5422C22.0797 17.3704 21.7589 17.3704 21.5411 17.5652C21.438 17.6626 21.3521 17.8001 21.2948 17.9318C20.3208 20.1891 19.3526 22.4521 18.3844 24.7152C18.0865 25.4084 17.7885 26.1016 17.4964 26.8006C17.2958 27.2646 17.5995 27.7344 18.1094 27.7344ZM13.9443 22.5782C14.8094 21.885 15.6516 21.2204 16.488 20.5443C16.8146 20.2808 16.8719 19.8969 16.6427 19.599C16.4078 19.3011 16.0182 19.2667 15.6917 19.5303C14.6432 20.3667 13.5948 21.2032 12.5521 22.0396C12.1625 22.3547 12.1625 22.8016 12.5464 23.111C13.5891 23.9475 14.6318 24.7839 15.6802 25.6204C16.0068 25.8839 16.3964 25.8553 16.637 25.5631C16.8719 25.2709 16.8146 24.8813 16.4938 24.6178C16.2073 24.3829 15.9151 24.1537 15.6229 23.9188C15.0672 23.4777 14.5172 23.0365 13.9443 22.5782ZM26.0557 22.5725C25.9984 22.6183 25.9698 22.6469 25.9354 22.6756C25.1333 23.3172 24.3255 23.9646 23.5234 24.6063C23.1854 24.8756 23.1281 25.2652 23.3688 25.5631C23.6094 25.8553 23.9932 25.8782 24.3255 25.6146C25.3682 24.7839 26.4052 23.9532 27.4422 23.1225C27.8375 22.8016 27.8375 22.349 27.4422 22.0282C27.1901 21.8277 26.938 21.6271 26.6859 21.4266C25.8896 20.7907 25.0875 20.149 24.2911 19.5131C23.9818 19.2725 23.5979 19.3068 23.3688 19.5876C23.1339 19.874 23.1854 20.2636 23.4891 20.5214C23.5578 20.5787 23.6323 20.636 23.7068 20.6933C24.4802 21.3178 25.2594 21.9365 26.0557 22.5725Z" fill="#1E62B9"/>
<path d="M31 10.673C31 11.8474 31 13.0219 31 14.1964C23.6667 14.1964 16.3333 14.1964 9 14.1964C9 13.0105 9 11.8188 9 10.6329C9.01146 10.6157 9.03437 10.6042 9.0401 10.587C9.36667 9.52139 10.0083 9.04014 11.1198 9.04014C16.6312 9.04014 22.1427 9.04014 27.6599 9.04014C28.1411 9.04014 28.6167 9.03441 29.0979 9.04014C29.9229 9.0516 30.6391 9.58441 30.9026 10.3579C30.9312 10.4667 30.9656 10.5698 31 10.673ZM25.8036 12.9073C26.4167 12.9073 27.0354 12.9073 27.6484 12.9073C28.0839 12.9073 28.376 12.6495 28.376 12.2657C28.376 11.8818 28.0839 11.6183 27.6542 11.6183C26.4167 11.6183 25.1792 11.6183 23.9417 11.6183C23.512 11.6183 23.2198 11.8875 23.2198 12.2714C23.2255 12.6438 23.5177 12.9073 23.9302 12.9073C24.5547 12.9131 25.1792 12.9073 25.8036 12.9073ZM12.2599 11.6183C11.9104 11.624 11.624 11.9162 11.624 12.2657C11.624 12.6151 11.9161 12.9073 12.2656 12.9073C12.6208 12.9073 12.9188 12.6094 12.913 12.2485C12.9016 11.9047 12.6094 11.6183 12.2599 11.6183ZM15.4854 12.2714C15.4854 11.9219 15.199 11.6297 14.8495 11.624C14.5 11.6183 14.2021 11.9047 14.1964 12.2542C14.1906 12.6094 14.4828 12.9131 14.8438 12.9131C15.1932 12.9073 15.4854 12.6151 15.4854 12.2714ZM17.4219 11.6183C17.0724 11.6183 16.7802 11.9105 16.7802 12.2599C16.7802 12.6094 17.0667 12.9016 17.4161 12.9073C17.7714 12.9131 18.075 12.6151 18.0693 12.2542C18.0635 11.9105 17.7714 11.6183 17.4219 11.6183Z" fill="#1E62B9"/>
</g>
<defs>
<clipPath id="clip0_1061_8194">
<rect width="22" height="22" fill="white" transform="translate(9 9)"/>
</clipPath>
</defs>
</svg>
