<svg width="40" height="40" viewBox="0 0 40 40" fill="none" xmlns="http://www.w3.org/2000/svg">
<rect width="40" height="40" rx="4" fill="#1E62B9" fill-opacity="0.1"/>
<path d="M30.7827 16.9161C30.7186 19.6279 30.3059 22.2685 29.2172 24.7667C27.6233 28.4251 24.9336 30.9375 21.2122 32.3539C20.4437 32.6457 19.7179 32.4606 18.9921 32.1475C14.6018 30.2756 11.9192 26.9517 10.6953 22.3966C9.99089 19.7845 9.84858 17.1225 10.1474 14.4322C10.1759 14.1403 10.2186 13.8485 10.2613 13.5638C10.368 12.8592 10.7594 12.3539 11.414 12.0763C14.1535 10.9304 16.893 9.78446 19.6325 8.64567C20.1662 8.42503 20.6856 8.46773 21.2051 8.68837C23.5746 9.68482 25.9441 10.667 28.3207 11.6563C28.648 11.7916 28.9753 11.9268 29.3026 12.0692C29.9999 12.3681 30.4055 12.9019 30.4838 13.6492C30.6048 14.7382 30.683 15.8272 30.7827 16.9161ZM11.4994 16.9233C11.5563 18.9802 11.8481 21.03 12.4102 22.7596C13.6554 26.6101 16.1032 29.3361 19.8887 30.8308C20.1804 30.9446 20.4579 30.9873 20.7639 30.8663C24.2932 29.4998 26.7268 27.0443 28.0716 23.5069C28.6693 21.9339 28.9895 20.304 29.1176 18.6243C29.2386 17.03 29.203 15.4428 28.9682 13.8628C28.9397 13.6492 28.8401 13.5282 28.648 13.4499C25.9654 12.3396 23.2828 11.2151 20.6002 10.1047C20.4722 10.0478 20.28 10.0549 20.1448 10.1047C17.4623 11.2151 14.7797 12.3396 12.0971 13.4571C11.8908 13.5425 11.7911 13.6777 11.7698 13.8912C11.6773 14.909 11.5919 15.9126 11.4994 16.9233Z" fill="#1E62B9"/>
<path d="M20.1797 10.7276C20.3007 10.6778 20.4786 10.6631 20.5996 10.713C23.1042 11.7521 25.6018 12.7989 28.1064 13.838C28.3196 13.9233 28.3976 14.0368 28.4189 14.2501C28.796 17.645 28.5545 20.9626 27.1172 24.1085C25.7937 27.0121 23.5947 29.005 20.6348 30.1651C20.4925 30.2219 20.2792 30.2073 20.1299 30.1505C16.2164 28.606 13.875 25.6881 12.8076 21.6739C12.3949 20.0939 12.2243 18.4779 12.1816 16.8409C12.2528 15.9657 12.3166 15.0904 12.3877 14.2081C12.4019 14.0302 12.4667 13.9296 12.6445 13.8585C15.1561 12.8194 17.6681 11.7667 20.1797 10.7276ZM16.5576 18.1231C15.9326 18.1233 15.4541 18.6169 15.4541 19.2618V23.8145C15.4545 24.459 15.9329 24.9521 16.5576 24.9522H23.9121C24.5368 24.9521 25.0142 24.459 25.0146 23.8145V21.1915C24.0944 21.4218 23.2063 21.3259 22.502 20.9532L22.3662 20.877L21.8896 21.5382L24.2061 23.9659L21.3379 21.8419L20.2344 22.6007L19.0947 21.8419L16.2627 23.9659L18.5801 21.5001L15.748 19.2237L20.2344 21.7276L21.9297 20.5528L21.9346 20.5567C21.3311 20.0085 20.9705 19.1788 21.0195 18.1231H16.5576ZM23.9287 16.1368C22.6717 16.137 21.6524 17.1561 21.6523 18.4132C21.6526 19.6701 22.6718 20.6893 23.9287 20.6895C25.1858 20.6895 26.2048 19.6702 26.2051 18.4132C26.2051 17.156 25.1859 16.1368 23.9287 16.1368ZM23.9287 17.502C24.1791 17.502 24.3837 17.7068 24.3838 17.9571V18.2989H24.498C24.5548 18.299 24.6111 18.3554 24.6113 18.4122V19.2091C24.611 19.2658 24.5548 19.3232 24.498 19.3233H23.3594C23.3028 19.3229 23.2464 19.2656 23.2461 19.2091V18.4122C23.2463 18.3556 23.3028 18.2994 23.3594 18.2989H23.4736V17.9571C23.4737 17.7069 23.6786 17.5023 23.9287 17.502ZM23.9287 18.5264C23.8378 18.5267 23.7578 18.6064 23.7578 18.6973C23.7582 18.754 23.8038 18.822 23.8604 18.8448L23.8154 19.0958H24.043L23.9971 18.8448C24.0651 18.8221 24.0994 18.7653 24.0996 18.6973C24.0996 18.6063 24.0198 18.5264 23.9287 18.5264ZM23.9287 17.7296C23.8038 17.7298 23.7012 17.8321 23.7012 17.9571V18.2989H24.1562V17.9571C24.1562 17.832 24.0539 17.7296 23.9287 17.7296Z" fill="#1E62B9"/>
</svg>
