<svg width="40" height="40" viewBox="0 0 40 40" fill="none" xmlns="http://www.w3.org/2000/svg">
<rect width="40" height="40" rx="4" fill="#1E62B9" fill-opacity="0.1"/>
<path d="M8 10.2C8 9.53726 8.53726 9 9.2 9H29.8333C30.9379 9 31.8333 9.89543 31.8333 11V24.2308V29C31.8333 30.1046 30.9379 31 29.8333 31H10C8.89543 31 8 30.1046 8 29V10.2Z" fill="#1E62B9"/>
<path d="M29.4438 15.5363C29.3917 15.5363 29.3454 15.5407 29.2932 15.5407C25.0242 15.5407 20.7494 15.5407 16.4803 15.5407C16.4398 15.5407 16.3934 15.5407 16.3413 15.5407C16.3413 14.5556 16.3413 13.5749 16.3413 12.5721C16.4224 12.5721 16.5093 12.5721 16.5904 12.5721C20.7899 12.5721 24.9894 12.5721 29.189 12.5721C29.2759 12.5721 29.3628 12.5677 29.4496 12.5677C29.4438 13.5573 29.4438 14.5468 29.4438 15.5363Z" fill="white"/>
<path d="M13.0646 11.3785L13.6665 13.2273H15.6146L14.0386 14.37L14.6405 16.2188L13.0646 15.0762L11.4886 16.2188L12.0905 14.37L10.5145 13.2273H12.4626L13.0646 11.3785Z" fill="white"/>
<path d="M25.8704 21.4822C25.8325 21.4822 25.7988 21.4866 25.7609 21.4866C22.6561 21.4866 19.5472 21.4866 16.4424 21.4866C16.4129 21.4866 16.3792 21.4866 16.3413 21.4866C16.3413 20.5014 16.3413 19.5207 16.3413 18.518C16.4003 18.518 16.4635 18.518 16.5225 18.518C19.5767 18.518 22.6309 18.518 25.6851 18.518C25.7483 18.518 25.8115 18.5136 25.8746 18.5136C25.8704 19.5031 25.8704 20.4926 25.8704 21.4822Z" fill="white"/>
<path d="M13.0646 17.3243L13.6665 19.1732H15.6146L14.0386 20.3158L14.6405 22.1647L13.0646 21.022L11.4886 22.1647L12.0905 20.3158L10.5145 19.1732H12.4626L13.0646 17.3243Z" fill="white"/>
<path d="M21.1059 27.4281C21.0869 27.4281 21.0701 27.4325 21.0511 27.4325C19.4987 27.4325 17.9442 27.4325 16.3919 27.4325C16.3771 27.4325 16.3603 27.4325 16.3413 27.4325C16.3413 26.4474 16.3413 25.4667 16.3413 24.4639C16.3708 24.4639 16.4024 24.4639 16.4319 24.4639C17.959 24.4639 19.4861 24.4639 21.0132 24.4639C21.0448 24.4639 21.0764 24.4595 21.108 24.4595C21.1059 25.4491 21.1059 26.4386 21.1059 27.4281Z" fill="white"/>
<path d="M13.0646 23.2703L13.6665 25.1191H15.6146L14.0386 26.2618L14.6405 28.1106L13.0646 26.968L11.4886 28.1106L12.0905 26.2618L10.5145 25.1191H12.4626L13.0646 23.2703Z" fill="white"/>
</svg>
