<svg width="40" height="40" viewBox="0 0 40 40" fill="none" xmlns="http://www.w3.org/2000/svg">
<rect width="40" height="40" rx="4" fill="#1E62B9" fill-opacity="0.1"/>
<path d="M9.00712 20.5C9.01425 19.1667 9 19.2975 9.00712 18.5473C9.02136 15.904 9.01424 13.2537 9.01424 10.6104C9.01424 9.18011 9.71918 8.5 11.1789 8.5C16.854 8.5 22.5291 8.5 28.2043 8.5C29.6213 8.5 30.3262 9.20114 30.3262 10.6034C30.3262 13.2677 30.3191 15.9321 30.3333 18.5894C30.3333 19.3186 30.3333 19.5 30.3333 20.5C30.3333 21.5 30.3333 21.7375 30.3262 22.5018C30.312 25.131 30.3191 27.7603 30.3191 30.3826C30.3191 31.8059 29.6142 32.5 28.1544 32.5C22.4793 32.5 16.8042 32.5 11.1291 32.5C9.71918 32.5 9.01424 31.7989 9.00712 30.3896C9.00712 27.7252 9.01424 25.0609 9 22.4036C9 21.6674 9 21.8333 9.00712 20.5ZM19.6097 31.7708C22.4579 31.7708 25.2991 31.7708 28.1473 31.7708C29.2154 31.7708 29.5786 31.4062 29.5786 30.3405C29.5786 27.6621 29.5786 24.9838 29.5786 22.2984C29.5786 21.2467 29.2012 20.8611 28.1473 20.8611C22.4935 20.8611 16.8327 20.8611 11.1789 20.8611C10.1251 20.8611 9.74766 21.2467 9.74766 22.2984C9.74766 24.9768 9.74766 27.6551 9.74766 30.3405C9.74766 31.4062 10.1108 31.7708 11.1789 31.7708C13.9915 31.7708 16.8042 31.7708 19.6097 31.7708ZM28.4535 14.663C28.4464 12.2511 26.4455 10.2879 24.0102 10.3019C21.5964 10.316 19.6097 12.2721 19.5955 14.656C19.5812 17.0539 21.5821 19.0311 24.0316 19.0311C26.4882 19.0311 28.4606 17.089 28.4535 14.663ZM14.8033 13.8427C15.7076 13.8427 16.619 13.8567 17.5234 13.8357C18.3209 13.8216 18.7695 13.3659 18.7908 12.5876C18.8051 12.202 18.8122 11.8164 18.7837 11.4308C18.741 10.7647 18.2924 10.3089 17.6159 10.3019C15.7503 10.2809 13.8847 10.2809 12.0191 10.3019C11.3427 10.3089 10.9083 10.7647 10.8727 11.4378C10.8514 11.8024 10.8585 12.174 10.8656 12.5386C10.8941 13.408 11.3142 13.8357 12.19 13.8427C13.0659 13.8497 13.9346 13.8427 14.8033 13.8427ZM14.8033 15.5184C13.8776 15.5184 12.9519 15.5044 12.0334 15.5254C11.3284 15.5394 10.9154 15.9601 10.8798 16.6402C10.8585 17.0609 10.8585 17.4816 10.8798 17.9023C10.9154 18.6034 11.3569 19.0241 12.0832 19.0311C13.9132 19.0381 15.7432 19.0381 17.5732 19.0311C18.3066 19.0311 18.7624 18.5824 18.798 17.8602C18.8122 17.5657 18.8051 17.2642 18.798 16.9698C18.798 15.911 18.3992 15.5254 17.3097 15.5254C16.4766 15.5184 15.6364 15.5184 14.8033 15.5184Z" fill="#1E62B9"/>
<path d="M14.1981 30.6911C13.2938 30.6911 12.3824 30.677 11.4781 30.6981C11.0508 30.7051 10.8586 30.5508 10.8728 30.1161C10.8942 29.5412 10.8586 28.9592 10.8942 28.3843C10.9511 27.3817 11.7486 26.6174 12.7669 26.5964C13.7424 26.5754 14.7251 26.5754 15.7006 26.5964C16.6761 26.6174 17.4665 27.3256 17.5591 28.2861C17.616 28.9312 17.5875 29.5833 17.5947 30.2283C17.5947 30.5929 17.3739 30.6981 17.0393 30.6981C16.0851 30.684 15.138 30.6911 14.1981 30.6911Z" fill="#1E62B9"/>
<path d="M16.149 23.9321C16.1276 24.9838 15.2589 25.7971 14.1837 25.7831C13.1156 25.7691 12.2825 24.9207 12.2896 23.8549C12.2967 22.7892 13.201 21.9408 14.2834 21.9689C15.3443 22.0039 16.1703 22.8663 16.149 23.9321Z" fill="#1E62B9"/>
<path d="M24.0957 23.7498C25.3418 23.7498 26.5879 23.7498 27.8269 23.7498C28.1117 23.7498 28.4535 23.7217 28.4393 24.1354C28.4251 24.5 28.1117 24.486 27.8412 24.486C25.3347 24.486 22.8283 24.486 20.3218 24.486C20.0227 24.486 19.6952 24.486 19.7094 24.0933C19.7237 23.7498 20.037 23.7428 20.3147 23.7498C21.575 23.7568 22.8354 23.7498 24.0957 23.7498Z" fill="#1E62B9"/>
<path d="M24.1028 28.2791C22.8425 28.2791 21.5821 28.2791 20.3146 28.2791C20.0156 28.2791 19.6738 28.2721 19.7236 27.8935C19.7379 27.7533 20.1081 27.564 20.3146 27.564C22.8211 27.5429 25.3275 27.55 27.834 27.55C28.1259 27.55 28.4606 27.5289 28.4392 27.9426C28.425 28.3142 28.1046 28.2791 27.834 28.2791C26.5879 28.2791 25.3489 28.2791 24.1028 28.2791Z" fill="#1E62B9"/>
<path d="M24.0458 30.1792C22.7997 30.1792 21.5536 30.1792 20.3146 30.1792C20.0156 30.1792 19.6738 30.1792 19.7236 29.7936C19.7379 29.6534 20.1081 29.4641 20.3146 29.4641C22.8211 29.443 25.3275 29.45 27.834 29.45C28.1259 29.45 28.4535 29.436 28.4392 29.8427C28.425 30.2213 28.0975 30.1792 27.834 30.1792C26.5737 30.1792 25.3133 30.1792 24.0458 30.1792Z" fill="#1E62B9"/>
<path d="M24.0886 26.3791C22.8425 26.3791 21.6035 26.3791 20.3574 26.3791C20.0654 26.3791 19.7165 26.4071 19.7094 26.0215C19.6952 25.6429 20.037 25.6429 20.336 25.6429C22.8425 25.6429 25.3489 25.6429 27.8554 25.6429C28.126 25.6429 28.4393 25.6218 28.4464 25.9934C28.4535 26.4001 28.1189 26.372 27.8269 26.372C26.5737 26.3791 25.3347 26.3791 24.0886 26.3791Z" fill="#1E62B9"/>
<path d="M23.2625 15.4974C24.0671 14.6981 24.7507 14.011 25.4414 13.3308C25.6407 13.1345 25.8615 12.8681 26.1534 13.1696C26.4098 13.436 26.1748 13.6464 25.9825 13.8287C25.242 14.5578 24.4943 15.28 23.7609 16.0232C23.4476 16.3387 23.1913 16.3878 22.8779 16.0372C22.5931 15.7217 22.2585 15.4553 21.995 15.1328C21.8953 15.0136 21.9451 14.7752 21.9309 14.5859C22.1232 14.5929 22.3724 14.5298 22.4863 14.628C22.7569 14.8663 22.9776 15.1748 23.2625 15.4974Z" fill="#1E62B9"/>
</svg>
