<svg width="40" height="40" viewBox="0 0 40 40" fill="none" xmlns="http://www.w3.org/2000/svg">
<rect width="40" height="40" rx="4" fill="#1E62B9" fill-opacity="0.1"/>
<path d="M30.5262 9C30.7795 9 30.9821 9.20655 30.9858 9.45977C30.9858 9.46246 30.9858 9.46512 30.9859 9.46774C31.002 10.4839 30.994 11.5081 30.994 12.5565C23.6472 12.5565 16.3488 12.5565 9.00202 12.5565C9.00202 11.5081 8.99395 10.4839 9.01008 9.46774C9.01008 9.46497 9.01008 9.46225 9.01008 9.45957C9.01008 9.20569 9.21588 9 9.46976 9V9C9.69407 9 10.0125 9 10.2222 9C16.819 9.00806 23.1729 9.00806 29.7778 9C29.9875 9 30.3053 9 30.5262 9V9ZM24.9052 10.9355C26.1149 10.9355 27.3246 10.9435 28.5343 10.9274C28.7036 10.9274 28.8649 10.7984 29.0343 10.7258C28.8649 10.6371 28.6956 10.4677 28.5262 10.4677C26.0907 10.4516 23.6472 10.4516 21.2117 10.4677C21.0504 10.4677 20.881 10.6048 20.7198 10.6774C20.8891 10.7661 21.0504 10.9194 21.2198 10.9274C22.4456 10.9435 23.6794 10.9355 24.9052 10.9355ZM11.9294 10.9274C12.1472 10.9274 12.373 10.9516 12.5827 10.9194C12.6875 10.9032 12.7681 10.7661 12.8649 10.6935C12.7843 10.621 12.7117 10.4839 12.631 10.4758C12.1552 10.4516 11.6714 10.4516 11.1956 10.4758C11.1149 10.4758 10.9859 10.629 10.9859 10.7097C10.9859 10.7823 11.123 10.9113 11.2117 10.9194C11.4456 10.9516 11.6875 10.9274 11.9294 10.9274ZM14.4698 11.0323C14.4778 11 14.494 10.9677 14.502 10.9355C14.7036 10.9355 14.9052 10.9677 15.0988 10.9274C15.244 10.8952 15.3649 10.7742 15.494 10.6855C15.373 10.6129 15.2601 10.4919 15.123 10.4677C14.9294 10.4274 14.7198 10.4274 14.5262 10.4677C14.2117 10.5323 13.9052 10.629 13.5988 10.7177C13.8891 10.8226 14.1794 10.9274 14.4698 11.0323ZM17.1714 10.9355C17.3488 10.9355 17.5423 10.9677 17.7117 10.9274C17.8569 10.8952 17.9698 10.7661 18.0988 10.6855C17.9778 10.6129 17.8569 10.4839 17.7359 10.4677C17.3569 10.4355 16.9698 10.4355 16.5907 10.4677C16.4698 10.4758 16.3488 10.6129 16.2359 10.6855C16.3488 10.7661 16.4456 10.8952 16.5746 10.9194C16.7601 10.9597 16.9698 10.9355 17.1714 10.9355Z" fill="#1E62B9"/>
<path d="M9.01051 13.0564C16.3653 13.0564 23.6476 13.0564 31.0024 13.0564C31.0024 13.2741 31.0024 13.4677 31.0024 13.6612C31.0024 19.1451 31.0024 24.629 31.0024 30.1128C31.0024 30.9435 30.946 30.9999 30.1073 30.9999C23.3734 30.9999 16.6395 30.9999 9.90567 30.9999C9.06696 30.9999 9.00244 30.9435 9.00244 30.1128C9.00244 24.629 9.00244 19.1451 9.00244 13.6612C9.01051 13.4838 9.01051 13.3064 9.01051 13.0564ZM20.2363 27.3064C20.4057 26.9838 20.5024 26.8387 20.567 26.6774C21.9218 23.0483 23.2686 19.4112 24.6153 15.7741C24.6718 15.6209 24.6557 15.4354 24.6799 15.2661C24.4944 15.2741 24.2928 15.2419 24.1234 15.2983C20.4863 16.6451 16.8573 17.9999 13.2282 19.3548C13.0589 19.4193 12.9057 19.5322 12.6234 19.6854C12.9379 19.8548 13.1153 19.9677 13.3089 20.0483C14.6879 20.6532 16.075 21.2419 17.446 21.8628C17.6879 21.9757 17.9299 22.2177 18.0428 22.4677C18.6718 23.8387 19.2524 25.2257 19.8573 26.6048C19.9379 26.7983 20.0508 26.9757 20.2363 27.3064ZM14.6557 28.8628C15.6234 28.8628 16.5912 28.8709 17.5589 28.8548C17.7363 28.8467 17.9057 28.7016 18.075 28.6209C17.9137 28.5403 17.7524 28.3951 17.5912 28.3951C15.6395 28.379 13.6879 28.379 11.7282 28.3951C11.575 28.3951 11.4218 28.5564 11.2766 28.6451C11.4379 28.7177 11.5992 28.8467 11.7605 28.8548C12.7202 28.8709 13.6879 28.8628 14.6557 28.8628ZM25.2928 28.8628C26.2766 28.8628 27.2686 28.8709 28.2524 28.8548C28.4137 28.8548 28.575 28.7257 28.7363 28.6532C28.567 28.5645 28.3976 28.3951 28.2282 28.3951C26.317 28.379 24.3976 28.379 22.4863 28.3951C22.3008 28.3951 22.1234 28.5403 21.9379 28.6128C22.1073 28.6935 22.2766 28.8467 22.4541 28.8548C23.3976 28.8709 24.3492 28.8628 25.2928 28.8628ZM14.0347 27.0403C14.8412 27.0403 15.6476 27.0483 16.446 27.0322C16.5831 27.0322 16.7121 26.887 16.8492 26.8064C16.7121 26.7257 16.575 26.5806 16.4299 26.5725C14.8412 26.5564 13.2524 26.5564 11.6637 26.5725C11.5266 26.5725 11.3976 26.7338 11.2605 26.8145C11.3976 26.887 11.5347 27.0241 11.6718 27.0241C12.4702 27.0483 13.2524 27.0403 14.0347 27.0403ZM25.9621 27.0403C26.7282 27.0403 27.4944 27.0564 28.2605 27.0322C28.4218 27.0241 28.5831 26.9032 28.7444 26.8306C28.575 26.7419 28.4057 26.5806 28.2363 26.5725C26.7282 26.5483 25.2121 26.5564 23.7041 26.5725C23.5186 26.5725 23.3412 26.7177 23.1557 26.7983C23.3492 26.879 23.5347 27.0241 23.7282 27.0322C24.4702 27.0564 25.2121 27.0403 25.9621 27.0403ZM13.1799 24.7419C12.6557 24.7419 12.1315 24.7257 11.6153 24.7499C11.4944 24.758 11.3815 24.9032 11.2686 24.9838C11.3815 25.0564 11.5024 25.2016 11.6153 25.2016C12.6395 25.2177 13.6637 25.2177 14.6879 25.2016C14.8089 25.2016 14.9218 25.0564 15.0347 24.9838C14.9137 24.9032 14.8008 24.758 14.6799 24.7499C14.1879 24.7257 13.6879 24.7419 13.1799 24.7419ZM26.8653 25.2177C27.3653 25.2177 27.8734 25.2338 28.3734 25.2096C28.5024 25.2016 28.6234 25.0806 28.7444 25.0161C28.6395 24.9274 28.5266 24.758 28.4218 24.758C27.3815 24.7419 26.3331 24.7419 25.2928 24.758C25.1879 24.758 25.0831 24.9274 24.9782 25.0241C25.0912 25.0887 25.196 25.2016 25.3089 25.2096C25.817 25.2257 26.3412 25.2177 26.8653 25.2177Z" fill="#1E62B9"/>
<path d="M23.8008 16.605C22.5992 19.8389 21.4218 23.0001 20.204 26.2743C19.575 24.8147 18.9863 23.4679 18.4137 22.113C18.3734 22.0082 18.4379 21.8066 18.5186 21.7179C20.196 20.0324 21.8815 18.355 23.5669 16.6776C23.5992 16.6453 23.6476 16.6453 23.8008 16.605Z" fill="#1E62B9"/>
<path d="M13.6387 19.6935C16.9048 18.4757 20.058 17.2983 22.9854 16.2096C21.3564 17.8386 19.5822 19.6048 17.7274 21.4677C16.5661 20.9596 15.1467 20.3467 13.6387 19.6935Z" fill="#1E62B9"/>
</svg>
