<svg width="40" height="40" viewBox="0 0 40 40" fill="none" xmlns="http://www.w3.org/2000/svg">
<rect width="40" height="40" rx="4" fill="#1E62B9" fill-opacity="0.1"/>
<path d="M26.2002 20.6C29.0002 20.95 30.9002 23.35 30.7002 26C30.5002 28.75 28.2502 30.75 25.5002 30.7C22.9502 30.65 20.7502 28.5 20.6002 25.9C20.5002 23.2 22.4502 20.9 25.1002 20.6C25.1002 20.55 25.1002 20.45 25.1002 20.4C25.1002 17.3 25.1002 14.25 25.1002 11.15C25.1002 10.65 24.9002 10.45 24.4002 10.45C20.0002 10.45 15.5502 10.45 11.1502 10.45C10.7002 10.45 10.4502 10.65 10.4502 11.1C10.4502 16.65 10.4502 22.2 10.4502 27.75C10.4502 28.2 10.6502 28.4 11.1002 28.4C14.0002 28.4 16.9002 28.4 19.8002 28.4C19.9002 28.4 19.9502 28.4 20.0502 28.4C20.3502 28.45 20.5502 28.7 20.5502 28.95C20.5502 29.25 20.3502 29.45 20.0502 29.5C20.0002 29.5 19.9002 29.5 19.8502 29.5C16.9502 29.5 14.0502 29.5 11.1502 29.5C10.0502 29.5 9.35017 28.8 9.35017 27.7C9.35017 22.15 9.35017 16.6 9.35017 11.05C9.30017 9.99999 10.0002 9.29999 11.1002 9.29999C15.5002 9.29999 19.9502 9.29999 24.3502 9.29999C25.4502 9.29999 26.1502 9.99999 26.1502 11.1C26.1502 14.15 26.1502 17.2 26.1502 20.3C26.2002 20.4 26.2002 20.5 26.2002 20.6ZM24.9502 26.35C24.9002 26.3 24.8502 26.2 24.8002 26.15C24.4502 25.8 24.0502 25.4 23.7002 25.05C23.3502 24.75 22.8502 24.9 22.7502 25.3C22.7002 25.55 22.8002 25.7 22.9502 25.9C23.4502 26.4 23.9502 26.9 24.4502 27.4C24.8502 27.8 25.1002 27.8 25.5002 27.4C26.4002 26.5 27.3502 25.55 28.2502 24.65C28.3002 24.6 28.4002 24.5 28.4502 24.45C28.6002 24.2 28.5502 23.95 28.3502 23.75C28.1502 23.55 27.8502 23.55 27.6502 23.7C27.5502 23.75 27.5002 23.85 27.4502 23.9C26.6002 24.7 25.8002 25.5 24.9502 26.35Z" fill="#1E62B9"/>
<path d="M13.9004 15.2C13.9004 13.05 15.6004 11.35 17.7504 11.35C19.9004 11.35 21.6004 13.05 21.6504 15.2C21.6504 17.35 19.9504 19.05 17.8004 19.05C15.6504 19.05 13.9004 17.35 13.9004 15.2ZM16.2004 15.9C15.7504 14.95 15.8504 14.1 16.5504 13.5C17.2004 12.95 18.1004 12.9 18.8004 13.4C19.1504 13.65 19.3504 13.95 19.5004 14.35C19.6504 14.9 19.6004 15.4 19.3004 15.9C19.6004 16.1 19.9004 16.25 20.2004 16.45C20.8004 15.4 20.5004 13.9 19.5004 13.1C18.4504 12.25 16.9004 12.3 15.9004 13.25C14.8004 14.3 14.9504 15.8 15.3504 16.45C15.6004 16.25 15.9004 16.1 16.2004 15.9ZM19.4504 17.35C18.5504 16.5 16.8004 16.6 16.1004 17.35C17.0504 18.15 18.4504 18.15 19.4504 17.35ZM17.7504 15.6C18.1504 15.6 18.4504 15.3 18.4504 14.9C18.4504 14.5 18.1504 14.2 17.7504 14.2C17.3504 14.2 17.0504 14.5 17.0504 14.9C17.0504 15.3 17.3504 15.6 17.7504 15.6Z" fill="#1E62B9"/>
<path d="M17.2006 19.8C18.8506 19.8 20.5006 19.8 22.1506 19.8C22.3006 19.8 22.4506 19.8 22.5506 19.9C22.7506 20 22.8506 20.25 22.8006 20.5C22.7506 20.75 22.5506 20.9 22.3006 20.95C22.2506 20.95 22.1506 20.95 22.1006 20.95C18.8506 20.95 15.5506 20.95 12.3006 20.95C12.2506 20.95 12.1506 20.95 12.1006 20.95C11.8006 20.9 11.6006 20.65 11.6006 20.4C11.6006 20.1 11.8506 19.9 12.1006 19.85C12.2006 19.85 12.2506 19.85 12.3506 19.85C13.9506 19.8 15.5506 19.8 17.2006 19.8Z" fill="#1E62B9"/>
<path d="M16.0503 23.2C14.7503 23.2 13.4503 23.2 12.1503 23.2C11.7003 23.2 11.4003 22.8 11.6003 22.45C11.7003 22.2 11.9003 22.1 12.1503 22.1C12.6503 22.1 13.1503 22.1 13.6503 22.1C15.7003 22.1 17.8003 22.1 19.8503 22.1C20.0003 22.1 20.1503 22.1 20.2503 22.2C20.4503 22.3 20.6003 22.6 20.5003 22.8C20.5003 23 20.2503 23.15 20.0003 23.2C19.5003 23.2 19.0503 23.2 18.5503 23.2C17.7003 23.2 16.9003 23.2 16.0503 23.2Z" fill="#1E62B9"/>
<path d="M15.0001 25.9002C15.4001 25.6502 15.7501 25.5002 16.2001 25.5002C16.8501 25.5002 17.4501 26.0502 17.5501 26.7002C17.6001 26.9502 17.4001 27.2502 17.1501 27.3002C16.9001 27.4002 16.6001 27.2502 16.5001 27.0002C16.4501 26.9502 16.4501 26.8502 16.4001 26.8002C16.3001 26.6002 16.1501 26.5502 15.9501 26.6502C15.8001 26.7502 15.6501 26.8002 15.5001 26.9002C14.8001 27.3002 14.2001 27.0502 13.9001 26.3002C13.8501 26.1002 13.7501 25.8502 13.7001 25.6002C13.5001 25.7002 13.3001 25.7502 13.2001 25.9002C13.0001 26.1002 12.8001 26.3502 12.6501 26.6002C12.4501 26.9002 12.1501 27.0502 11.8501 26.8502C11.5501 26.7002 11.5001 26.3502 11.7001 26.0502C12.0501 25.5002 12.4501 25.0002 13.0501 24.7002C13.2001 24.6502 13.3501 24.6002 13.5501 24.5502C14.1001 24.4502 14.5501 24.7002 14.7501 25.2002C14.8501 25.4002 14.9001 25.6002 15.0001 25.9002Z" fill="#1E62B9"/>
</svg>
