<svg width="40" height="40" viewBox="0 0 40 40" fill="none" xmlns="http://www.w3.org/2000/svg">
<rect width="40" height="40" rx="4" fill="#1E62B9" fill-opacity="0.1"/>
<path fill-rule="evenodd" clip-rule="evenodd" d="M7 9C6.44772 9 6 9.44772 6 10V23.085C6 23.6373 6.44772 24.085 7 24.085H14.7611H17.5226C18.0749 24.085 18.5226 23.6373 18.5226 23.085V17.5933V15.0566C18.5226 14.5955 18.8964 14.2217 19.3574 14.2217H21.3123C21.8646 14.2217 22.3123 13.774 22.3123 13.2217V10C22.3123 9.44772 21.8646 9 21.3123 9H7ZM13.0454 16.6978C13.0811 16.76 13.1169 16.8221 13.1645 16.8718C13.498 16.6233 13.8316 16.4742 14.2604 16.4742C14.6892 16.5239 15.0227 16.7227 15.2609 17.0706C15.6421 17.6173 15.6421 18.4124 15.2133 18.9094C15.0227 19.1579 14.7845 19.3567 14.451 19.4064C14.0222 19.5058 13.641 19.4064 13.2598 19.1579L12.831 19.7543C13.5457 20.301 14.5939 20.4004 15.4039 19.7543C16.2139 19.1082 16.4997 17.9651 16.0709 17.0209C15.8327 16.5239 15.4992 16.176 15.0227 15.9275C14.4986 15.679 13.9269 15.679 13.3551 15.8778C13.3075 15.8033 13.2479 15.7163 13.1883 15.6293C13.1288 15.5423 13.0692 15.4554 13.0216 15.3808V15.2317C13.1169 14.9335 13.0692 14.685 12.8787 14.4863C12.6881 14.2875 12.4498 14.2378 12.164 14.2875C11.8304 14.3869 11.5922 14.685 11.6399 15.0329C11.6875 15.4305 11.9734 15.7287 12.3545 15.7287C12.3784 15.7287 12.3903 15.7411 12.4022 15.7536C12.4141 15.766 12.426 15.7784 12.4498 15.7784C12.5213 15.9027 12.6047 16.0269 12.6881 16.1512C12.7714 16.2754 12.8548 16.3996 12.9263 16.5239C12.9739 16.5736 13.0097 16.6357 13.0454 16.6978ZM10.9716 16.7241C10.114 15.9289 10.0187 14.6865 10.5428 13.7919C11.0669 12.947 12.0675 12.5494 13.0204 12.8973C13.9733 13.1955 14.4974 14.1398 14.4974 15.0344H13.7827C13.7827 14.935 13.7827 14.8356 13.7351 14.7362C13.5921 13.9907 13.0204 13.4937 12.3534 13.4937C11.6863 13.4937 11.1146 13.9907 10.9716 14.6865C10.8287 15.3326 11.1146 15.9786 11.6387 16.2768C11.6863 16.3017 11.7459 16.339 11.8054 16.3762C11.865 16.4135 11.9245 16.4508 11.9722 16.4756C11.8531 16.6496 11.734 16.8359 11.6148 17.0223L11.6148 17.0223C11.4957 17.2087 11.3766 17.3951 11.2575 17.569C11.2099 17.6187 11.2099 17.6684 11.2575 17.7181C11.3528 18.0163 11.2575 18.3642 11.0193 18.563C10.781 18.7618 10.4475 18.7618 10.1617 18.563C9.92342 18.3642 9.78049 18.066 9.87578 17.7181C9.97107 17.4199 10.2569 17.1714 10.5428 17.1714C10.5905 17.1714 10.6381 17.1714 10.6381 17.1217C10.781 17.0223 10.8763 16.8732 10.9716 16.7241ZM9.2562 16.6996C9.17282 16.6126 9.08944 16.5257 9.01797 16.4263C8.39858 17.0724 8.25564 18.0663 8.58916 19.0106C8.92268 19.8555 9.78031 20.4022 10.7332 20.3028C11.162 20.2531 11.5432 20.104 11.8767 19.8058C12.2579 19.4579 12.4961 19.0106 12.5914 18.4639H13.3537C13.3738 18.4639 13.3854 18.4639 13.3957 18.4676C13.4098 18.4727 13.4214 18.4848 13.449 18.5136C13.6396 18.7621 13.8778 18.8615 14.1637 18.8118C14.4496 18.7621 14.7355 18.4639 14.7355 18.1657C14.7355 17.8178 14.5925 17.4699 14.259 17.3705C13.9731 17.2214 13.6396 17.3208 13.449 17.619C13.449 17.6687 13.4014 17.6687 13.3537 17.6687H12.0197H11.9244V18.0663C11.9244 19.0106 11.1144 19.7064 10.2568 19.5076C9.73266 19.4082 9.35149 19.0603 9.16091 18.5136C8.97033 17.9669 9.06562 17.4699 9.44679 17.0227C9.49443 17.0227 9.49443 16.973 9.49443 16.973C9.42296 16.8736 9.33958 16.7866 9.2562 16.6996Z" fill="#1E62B9"/>
<path fill-rule="evenodd" clip-rule="evenodd" d="M20.9346 15.9604C20.3823 15.9604 19.9346 16.4082 19.9346 16.9604V30C19.9346 30.5523 20.3823 31 20.9346 31H34.0003C34.5525 31 35.0003 30.5523 35.0003 30V26.3724V16.9604C35.0003 16.4082 34.5525 15.9604 34.0003 15.9604H20.9346ZM30.5946 21.0011L28.8562 19.2675L28.8154 19.2315C28.7317 19.1668 28.6273 19.1348 28.5217 19.1415C28.4161 19.1482 28.3165 19.1932 28.2417 19.2679L28.2057 19.3091C28.1409 19.3927 28.1088 19.4969 28.1155 19.6024C28.1223 19.7078 28.1673 19.8071 28.2422 19.8818L29.24 20.8766H24.6377L24.5869 20.8796C24.4812 20.892 24.3837 20.9428 24.313 21.0222C24.2422 21.1016 24.2031 21.2041 24.2031 21.3104L24.2062 21.3616C24.2186 21.4671 24.2694 21.5644 24.349 21.635C24.4285 21.7057 24.5313 21.7447 24.6377 21.7447H29.2369L28.2417 22.739L28.2057 22.7798C28.1373 22.867 28.105 22.9769 28.1152 23.0871C28.1254 23.1973 28.1774 23.2995 28.2606 23.3727C28.3438 23.4458 28.4519 23.4845 28.5627 23.4807C28.6735 23.477 28.7787 23.4311 28.8567 23.3525L30.595 21.6145L30.6311 21.5737C30.6959 21.4902 30.728 21.386 30.7212 21.2805C30.7145 21.1751 30.6695 21.0757 30.5946 21.0011ZM30.7206 25.6487L30.718 25.598C30.7056 25.4925 30.6547 25.3952 30.5752 25.3245C30.4957 25.2539 30.3929 25.2149 30.2865 25.2149H25.6885L26.6837 24.2201L26.7198 24.1793C26.7881 24.0922 26.8205 23.9822 26.8103 23.872C26.8001 23.7618 26.7481 23.6597 26.6649 23.5865C26.5817 23.5133 26.4736 23.4747 26.3628 23.4784C26.252 23.4822 26.1468 23.5281 26.0688 23.6067L24.3305 25.3438L24.2944 25.3845C24.2296 25.4681 24.1975 25.5723 24.2043 25.6778C24.211 25.7832 24.256 25.8825 24.3309 25.9572L26.0692 27.6908L26.1101 27.7272C26.1938 27.7919 26.2982 27.8239 26.4038 27.8172C26.5094 27.8105 26.609 27.7656 26.6837 27.6908L26.7198 27.65C26.7847 27.5665 26.8168 27.4623 26.8102 27.3569C26.8035 27.2514 26.7586 27.1521 26.6837 27.0774L25.6868 26.0826H30.286L30.3369 26.0795C30.4426 26.0671 30.5401 26.0164 30.6108 25.937C30.6815 25.8576 30.7206 25.755 30.7206 25.6487Z" fill="#1E62B9"/>
</svg>
