<svg width="40" height="40" viewBox="0 0 40 40" fill="none" xmlns="http://www.w3.org/2000/svg">
<rect width="40" height="40" rx="4" fill="#1E62B9" fill-opacity="0.1"/>
<g clip-path="url(#clip0_1061_7945)">
<path d="M9 26.0984C9 22.031 9 17.9636 9 13.8962C9.02726 13.8144 9.06543 13.7326 9.07633 13.6454C9.39257 11.5462 11.0173 9.74151 13.0838 9.20719C13.3673 9.13631 13.6563 9.07088 13.9398 9C14.0979 9 14.256 9 14.4141 9C14.4796 9.01636 14.4291 9 14.5 9C18.0931 9 21.9069 9 25.5 9C25.5654 9 25.5204 9.01636 25.5859 9C25.7167 9 25.8421 9 25.973 9C26.2456 9.05998 26.5237 9.10359 26.7908 9.17447C28.8736 9.75242 30.2094 11.0882 30.8146 13.1601C30.891 13.4273 30.94 13.7053 31 13.9779C31 18.0181 31 22.0582 31 26.0929C30.9727 26.1747 30.9346 26.2565 30.9237 26.3437C30.6074 28.4429 28.9827 30.2476 26.9217 30.7819C26.6109 30.8637 26.2892 30.9237 25.9784 30.9891C25.8367 30.9891 25.6895 30.9891 25.5477 30.9891C25.4659 30.9727 25.3841 30.9455 25.3078 30.9455C21.7311 30.9455 18.1544 30.9455 14.5777 30.9455C14.5123 30.9455 14.4468 30.9727 14.3814 30.9891C14.2397 30.9891 14.0924 30.9891 13.9507 30.9891C13.8798 30.9618 13.8144 30.9346 13.7435 30.9182C13.34 30.8092 12.9147 30.7492 12.5276 30.5965C10.8429 29.915 9.73606 28.6991 9.21809 26.9489C9.1254 26.6763 9.07088 26.3874 9 26.0984ZM13.1219 26.8454C13.1928 26.8235 13.2419 26.8181 13.2855 26.8017C14.4141 26.4419 15.5428 26.082 16.6714 25.7331C16.7695 25.7058 16.9004 25.7058 16.9876 25.7494C19.2667 26.8563 21.5185 26.7908 23.6776 25.4768C25.5532 24.3318 26.6055 22.6089 26.8126 20.4226C26.998 18.4652 26.4092 16.7204 25.0461 15.2919C23.3177 13.4818 21.1859 12.8166 18.7378 13.2964C16.8077 13.6726 15.3138 14.7413 14.316 16.4424C13.1656 18.4161 13.0729 20.4716 13.9725 22.5708C14.0815 22.827 14.2887 23.0669 14.2996 23.3232C14.3105 23.5903 14.1361 23.863 14.0434 24.1301C13.7435 25.0243 13.4382 25.9185 13.1219 26.8454Z" fill="#1E62B9"/>
<path d="M14.3701 30.9998C14.4355 30.9834 14.501 30.9562 14.5664 30.9562C18.1431 30.9562 21.7198 30.9562 25.2965 30.9562C25.3783 30.9562 25.4601 30.9834 25.5364 30.9998C21.8179 30.9998 18.094 30.9998 14.3701 30.9998Z" fill="#2F2F2F"/>
<path d="M13.1221 26.8454C13.4383 25.9239 13.7436 25.0298 14.049 24.1301C14.1416 23.8575 14.3161 23.5849 14.3052 23.3232C14.2943 23.0669 14.0871 22.827 13.9781 22.5708C13.0785 20.4716 13.1711 18.4161 14.3216 16.4424C15.3139 14.7413 16.8133 13.6726 18.7434 13.2964C21.1915 12.8166 23.3233 13.4818 25.0517 15.292C26.4148 16.7205 26.9982 18.4652 26.8182 20.4226C26.611 22.6089 25.5587 24.3319 23.6832 25.4768C21.5241 26.7908 19.2723 26.8508 16.9932 25.7495C16.906 25.7058 16.7751 25.7004 16.677 25.7331C15.5483 26.0821 14.4197 26.4474 13.2911 26.8018C13.242 26.8127 13.193 26.8236 13.1221 26.8454ZM14.8286 25.2151C15.5102 24.997 16.1535 24.7953 16.7969 24.5881C16.9441 24.5391 17.0532 24.5445 17.1895 24.6263C18.4708 25.4005 19.8611 25.6241 21.3169 25.3133C24.3265 24.6699 26.2021 21.8184 25.7169 18.9614C25.4388 17.3039 24.5882 16.0008 23.1706 15.112C21.3496 13.978 19.4304 13.8798 17.5166 14.8503C15.7446 15.7554 14.7359 17.2548 14.5015 19.234C14.3379 20.6025 14.6869 21.8565 15.4557 22.9961C15.4993 23.0615 15.5156 23.1869 15.4884 23.2632C15.2812 23.9066 15.0576 24.5391 14.8286 25.2151Z" fill="#FCFCFC"/>
<path d="M14.8283 25.2152C15.0573 24.5391 15.2754 23.9066 15.4826 23.2687C15.5098 23.1924 15.4935 23.067 15.4498 23.0015C14.6811 21.8566 14.3376 20.6025 14.4957 19.2395C14.7301 17.2603 15.7388 15.7609 17.5108 14.8558C19.4246 13.8799 21.3438 13.978 23.1648 15.1175C24.5824 16.0008 25.433 17.3039 25.7111 18.9668C26.1963 21.8238 24.3207 24.6754 21.3111 25.3188C19.8553 25.6295 18.465 25.406 17.1837 24.6318C17.0474 24.55 16.9329 24.5445 16.7911 24.5936C16.1532 24.7953 15.5098 24.9971 14.8283 25.2152ZM16.8184 18.4979C16.8184 18.7597 16.9438 19.1631 17.1619 19.5284C18.1215 21.1478 19.4028 22.3636 21.2729 22.8707C21.9054 23.0397 22.4615 22.9797 23.0067 22.6199C23.4047 22.3582 23.5356 21.982 23.5192 21.5349C23.5138 21.4585 23.4538 21.3495 23.3829 21.3168C22.9467 21.0932 22.4997 20.8806 22.0526 20.6734C21.8999 20.6025 21.7691 20.6298 21.66 20.777C21.5128 20.9787 21.3492 21.1696 21.1911 21.3604C21.093 21.4858 20.9785 21.5076 20.8313 21.4422C19.9916 21.0823 19.2883 20.5535 18.7703 19.7901C18.4104 19.2558 18.4432 19.3703 18.8085 18.9341C18.8957 18.8305 18.9611 18.7106 19.0211 18.5906C19.0484 18.5307 19.0593 18.4434 19.032 18.3889C18.8412 17.92 18.6449 17.4511 18.4432 16.9877C18.4159 16.9222 18.345 16.8404 18.285 16.8295C17.9524 16.7805 17.6199 16.7423 17.3527 17.0367C17.0147 17.402 16.8184 17.8219 16.8184 18.4979Z" fill="#1E62B9"/>
<path d="M16.8184 18.4983C16.8184 17.8277 17.0146 17.4078 17.3527 17.0371C17.6253 16.7427 17.9524 16.7808 18.285 16.8299C18.345 16.8408 18.4159 16.9226 18.4431 16.988C18.6449 17.4515 18.8412 17.9204 19.032 18.3892C19.0538 18.4492 19.0483 18.5365 19.0211 18.591C18.9611 18.7109 18.8957 18.8309 18.8084 18.9345C18.4431 19.3707 18.4104 19.2562 18.7703 19.7905C19.2882 20.5538 19.9861 21.0881 20.8312 21.4425C20.9785 21.5025 21.093 21.4807 21.1911 21.3607C21.3492 21.1645 21.5128 20.9736 21.66 20.7774C21.769 20.6301 21.8999 20.6029 22.0526 20.6738C22.4996 20.8809 22.9413 21.0936 23.3829 21.3171C23.4483 21.3498 23.5138 21.4589 23.5192 21.5352C23.5356 21.9823 23.4047 22.3585 23.0067 22.6202C22.4669 22.9801 21.9108 23.0455 21.2729 22.871C19.3973 22.364 18.1215 21.1481 17.1619 19.5288C16.9438 19.158 16.8184 18.76 16.8184 18.4983Z" fill="#FCFCFC"/>
</g>
<defs>
<clipPath id="clip0_1061_7945">
<rect width="22" height="22" fill="white" transform="translate(9 9)"/>
</clipPath>
</defs>
</svg>
