<svg width="40" height="40" viewBox="0 0 40 40" fill="none" xmlns="http://www.w3.org/2000/svg">
<rect width="40" height="40" rx="4" fill="#1E62B9" fill-opacity="0.1"/>
<path fill-rule="evenodd" clip-rule="evenodd" d="M9.2 9C8.53726 9 8 9.53726 8 10.2V29C8 30.1046 8.89543 31 10 31H30C31.1046 31 32 30.1046 32 29V24.2308V11C32 9.89543 31.1046 9 30 9H9.2ZM12.7999 14.9322L12.7999 14.9322V15.1013C12.8056 15.1168 12.8121 15.1319 12.8187 15.1469L12.8187 15.1469C12.8318 15.177 12.8449 15.2071 12.8506 15.2409C12.9321 15.7484 13.0156 16.256 13.099 16.7635C13.2659 17.7786 13.4328 18.7937 13.5847 19.8087C13.7028 20.6039 14.3399 20.9845 14.9348 20.9719C15.8569 20.9537 16.7768 20.9572 17.6976 20.9606C18.0661 20.962 18.4348 20.9634 18.8038 20.9634H18.9515C19.3734 17.8801 22.7993 16.3533 25.3224 18.0493C25.458 17.2268 25.5923 16.4044 25.7268 15.5813C25.8392 14.8932 25.9516 14.2047 26.065 13.5153H27.1999V12.5679H25.2591C25.1605 13.1841 25.0593 13.7978 24.9576 14.415L24.871 14.9406H24.7444H12.9265C12.8843 14.9406 12.8421 14.9364 12.7999 14.9322ZM23.0268 18.3111C24.7735 18.3153 26.1742 19.7322 26.1658 21.4832C26.1574 23.2215 24.7397 24.6257 23.0014 24.6172C21.2716 24.6088 19.8666 23.1919 19.875 21.462C19.8835 19.7153 21.2927 18.3026 23.0268 18.3111ZM23.0057 23.0904L25.0477 21.0433C24.8494 20.8403 24.6343 20.6204 24.4149 20.3962C23.9592 20.8572 23.4951 21.3225 23.0225 21.7962C22.783 21.5561 22.5457 21.317 22.3116 21.0813C22.0838 20.852 21.8592 20.6257 21.6386 20.4047C21.4151 20.633 21.1957 20.8529 20.9848 21.0644L20.9847 21.0645C21.4359 21.5139 21.8909 21.971 22.3408 22.423L22.3411 22.4233L22.3424 22.4246C22.5651 22.6483 22.7865 22.8707 23.0057 23.0904ZM13.7902 23.6574H19.5367C19.4358 23.4436 19.3369 23.2297 19.2386 23.0173L19.2384 23.0167C19.1929 22.9184 19.1475 22.8203 19.1021 22.7227H13.7902V23.6574ZM13.7833 25.7295C13.7833 25.1163 14.277 24.6172 14.8845 24.6172C15.4921 24.6172 15.9899 25.1163 15.9942 25.7253C15.9984 26.3344 15.5005 26.8377 14.8887 26.8377C14.2812 26.8377 13.7833 26.3428 13.7833 25.7295ZM24.0359 25.4424C23.3356 25.6158 22.631 25.6115 21.9221 25.417C21.7787 25.8653 21.9517 26.3517 22.3356 26.6309C22.7238 26.91 23.2512 26.9058 23.6351 26.6224C24.0064 26.3475 24.171 25.8611 24.0359 25.4424Z" fill="#1E62B9"/>
</svg>
