<svg width="40" height="40" viewBox="0 0 40 40" fill="none" xmlns="http://www.w3.org/2000/svg">
<rect width="40" height="40" rx="4" fill="#1E62B9" fill-opacity="0.1"/>
<g clip-path="url(#clip0_1061_7876)">
<path d="M30.513 31C25.2708 31 14.7578 31 9.51563 31C9.25781 30.9141 9.08594 30.7422 9 30.4844C9 26.0443 9 21.6042 9 17.1641C14.5802 17.1641 25.437 17.1641 31.0286 17.1641C31.0286 17.2557 31.0286 17.3245 31.0286 17.399C31.0286 21.6672 31.0286 25.9354 31.0344 30.2036C31.0344 30.599 30.8911 30.8682 30.513 31ZM17.376 19.6563C17.1641 19.6563 16.9464 19.6563 16.7344 19.6563C15.2391 19.6563 13.7438 19.6563 12.2484 19.6563C11.8932 19.6563 11.6182 19.8969 11.5839 20.2292C11.5495 20.55 11.7672 20.8536 12.088 20.9281C12.1797 20.9453 12.2714 20.9453 12.363 20.9453C15.3422 20.9453 23.5865 20.9453 26.5656 20.9453C26.9724 20.9453 27.3792 20.951 27.7917 20.9453C28.0781 20.9453 28.2844 20.8078 28.399 20.5443C28.588 20.1089 28.2615 19.6563 27.7573 19.6563C26.0557 19.6563 19.0833 19.6563 17.376 19.6563ZM17.3589 24.7266C17.5823 24.7266 17.8 24.7266 18.0234 24.7266C19.5073 24.7266 26.2563 24.7266 27.7401 24.7266C28.0667 24.7266 28.3016 24.5833 28.4047 24.3198C28.5766 23.8786 28.2557 23.4375 27.7516 23.4375C25.0073 23.4375 16.9979 23.4375 14.2536 23.4375C13.5891 23.4375 12.9245 23.4375 12.2542 23.4375C11.962 23.4375 11.7443 23.5693 11.624 23.8385C11.4349 24.274 11.7615 24.7266 12.2599 24.7266C13.9615 24.7266 15.6573 24.7266 17.3589 24.7266ZM17.3818 28.5078C17.7885 28.5078 18.1953 28.5078 18.6078 28.5078C19.8969 28.5078 26.4568 28.5078 27.7458 28.5078C28.0724 28.5078 28.3073 28.3589 28.4104 28.0953C28.5823 27.6542 28.2615 27.2188 27.7516 27.2188C24.7552 27.2188 16.4823 27.2188 13.4859 27.2188C13.0734 27.2188 12.6552 27.213 12.2427 27.2188C11.9562 27.2188 11.75 27.3563 11.6354 27.6198C11.4521 28.0552 11.7729 28.5078 12.2771 28.5078C13.9729 28.5078 15.6802 28.5078 17.3818 28.5078Z" fill="#1E62B9"/>
<path d="M21.3177 9C21.3177 11.2859 21.3177 13.5661 21.3177 15.875C17.6093 15.875 12.6979 15.875 9 15.875C9 13.7552 9 11.6354 9 9.51563C9.07879 9.25781 9.23637 9.08594 9.47275 9C13.0184 9 17.7721 9 21.3177 9Z" fill="#1E62B9"/>
<path d="M31.0004 15.4049C30.8285 15.7772 30.5363 15.8861 30.1353 15.8861C27.6431 15.8746 25.1509 15.8804 22.6587 15.8804C22.5785 15.8804 22.504 15.8804 22.4009 15.8804C22.4009 13.583 22.4009 11.2913 22.4009 9.00537C25.0936 9.00537 27.7863 9.00537 30.479 9.00537C30.7368 9.09131 30.9087 9.26318 30.9946 9.521C31.0004 11.4804 31.0004 13.4397 31.0004 15.4049ZM26.6978 12.3913C26.2681 11.9616 25.867 11.5434 25.4545 11.1366C25.1795 10.8674 24.7842 10.8674 24.5321 11.1194C24.2743 11.3772 24.2743 11.7668 24.5436 12.0418C25.105 12.6147 25.6722 13.1819 26.2452 13.7434C26.5144 14.0069 26.8868 14.0127 27.1504 13.7549C27.7347 13.1877 28.3077 12.609 28.8806 12.0246C29.041 11.8642 29.104 11.658 29.0467 11.4288C28.9207 10.9246 28.3363 10.7585 27.9467 11.1366C27.5342 11.5434 27.1332 11.9559 26.6978 12.3913Z" fill="#1E62B9"/>
</g>
<defs>
<clipPath id="clip0_1061_7876">
<rect width="22" height="22" fill="white" transform="translate(9 9)"/>
</clipPath>
</defs>
</svg>
