<svg width="40" height="40" viewBox="0 0 40 40" fill="none" xmlns="http://www.w3.org/2000/svg">
<rect width="40" height="40" rx="4" fill="#1E62B9" fill-opacity="0.1"/>
<g clip-path="url(#clip0_1061_8590)">
<path d="M22.9999 20.0053C22.9995 20.897 22.8363 21.7503 22.5391 22.5388C21.7511 22.8359 20.897 22.9992 20.0049 23.0003H19.9947C19.1033 22.9992 18.2493 22.8363 17.4612 22.5391C17.1641 21.7511 17.0005 20.897 17.0001 20.0053V19.9947C17.0005 19.1033 17.1637 18.2493 17.4605 17.4616C18.2485 17.1641 19.103 17.0005 19.9947 17.0001H20.0049C20.897 17.0005 21.7511 17.1641 22.5391 17.4616C22.8363 18.2493 22.9995 19.1033 22.9999 19.9947V20.0053ZM31.8333 18.0001H24.8287L29.7814 13.047C29.3922 12.5002 28.9582 11.9874 28.485 11.5142C28.0118 11.0414 27.499 10.6078 26.9526 10.2186L21.9996 15.1717V8.16704C21.3514 8.05807 20.6855 8.00038 20.006 8H19.9936C19.3141 8.00038 18.6486 8.05807 18.0001 8.16704V15.1717L13.047 10.2186C12.5002 10.6078 11.9878 11.0414 11.5153 11.5146L11.5127 11.5165C11.0403 11.9889 10.6074 12.501 10.2183 13.047L15.1717 18.0001H8.16704C8.16704 18.0001 8 19.3156 8 19.9959V20.0041C8 20.6844 8.05769 21.351 8.16704 21.9999H15.1717L10.2183 26.953C10.9973 28.0461 11.9539 29.0031 13.047 29.7817L18.0001 24.8283V31.8333C18.6482 31.9419 19.313 31.9992 19.9913 32H20.0083C20.687 31.9992 21.3525 31.9419 21.9996 31.8333V24.8283L26.953 29.7817C27.4994 29.3926 28.0118 28.959 28.485 28.4862L28.4862 28.485C28.9586 28.0118 29.3926 27.499 29.7814 26.953L24.8279 21.9999H31.8333C31.9423 21.3521 31.9992 20.6874 32 20.0087V19.9913C31.9992 19.3126 31.9423 18.6479 31.8333 18.0001Z" fill="#1E62B9"/>
</g>
<defs>
<clipPath id="clip0_1061_8590">
<rect width="24" height="24" fill="white" transform="translate(8 8)"/>
</clipPath>
</defs>
</svg>
