<svg width="21" height="24" viewBox="0 0 21 24" fill="none" xmlns="http://www.w3.org/2000/svg">
<path fill-rule="evenodd" clip-rule="evenodd" d="M20.1637 3.82206C20.6175 3.82206 20.9954 4.20273 20.9954 4.68712V5.13497C20.9954 5.60757 20.6175 6.00003 20.1637 6.00003H0.82819C0.373198 6.00003 -0.00463867 5.60757 -0.00463867 5.13497V4.68712C-0.00463867 4.20273 0.373198 3.82206 0.82819 3.82206H4.22985C4.92085 3.82206 5.52221 3.32588 5.67766 2.62582L5.8558 1.82205C6.13265 0.727169 7.04377 0 8.08651 0H12.9042C13.9356 0 14.8569 0.727169 15.1236 1.7643L15.3142 2.62464C15.4685 3.32588 16.0699 3.82206 16.762 3.82206H20.1637ZM18.5041 20.4453C18.8624 16.9265 19.4897 8.56668 19.4897 8.48234C19.5126 8.22683 19.4336 7.98497 19.2768 7.79024C19.1085 7.60791 18.8956 7.5 18.661 7.5H2.33496C2.09914 7.5 1.87478 7.60791 1.7191 7.79024C1.56112 7.98497 1.48328 8.22683 1.49473 8.48234C1.49683 8.49784 1.51934 8.7923 1.55698 9.28461C1.72415 11.4716 2.18976 17.5629 2.49064 20.4453C2.70356 22.5687 4.02571 23.9033 5.94082 23.9517C7.41866 23.9877 8.94114 24.0001 10.498 24.0001C11.9643 24.0001 13.4536 23.9877 14.9772 23.9517C16.9588 23.9157 18.2798 22.6047 18.5041 20.4453Z" fill="#FE5C73"/>
</svg>
