<svg width="18" height="18" viewBox="0 0 18 18" fill="none" xmlns="http://www.w3.org/2000/svg">
<path d="M3.48281 0C6.06093 0 8.63906 0 11.2172 0C11.3484 0.09375 11.4937 0.16875 11.6062 0.276563C12.9469 1.6125 14.2828 2.94844 15.6234 4.28438C15.7875 4.44844 15.8625 4.62656 15.8625 4.86094C15.8578 7.35469 15.8578 9.84844 15.8578 12.3469C15.8578 13.6922 15.8578 15.0422 15.8578 16.3875C15.8578 17.0953 15.4406 17.6812 14.7984 17.9109C14.6953 17.9484 14.5922 17.9719 14.4891 18C10.8094 18 7.12968 18 3.45 18C3.43125 17.9859 3.41718 17.9719 3.39843 17.9625C2.54062 17.6953 2.15156 17.1656 2.15156 16.2656C2.15156 11.9531 2.15156 7.64531 2.15156 3.33281C2.15156 2.74219 2.14687 2.15156 2.15156 1.55625C2.16093 0.885938 2.59687 0.295312 3.22968 0.0796875C3.30937 0.0515625 3.39375 0.028125 3.48281 0ZM10.5797 1.05469C10.5047 1.05469 10.4531 1.05469 10.4016 1.05469C8.2125 1.05469 6.01875 1.05469 3.82968 1.05469C3.39843 1.05469 3.20156 1.25156 3.20156 1.6875C3.20156 6.5625 3.20156 11.4375 3.20156 16.3125C3.20156 16.7484 3.39843 16.9453 3.82968 16.9453C7.275 16.9453 10.7203 16.9453 14.1656 16.9453C14.6016 16.9453 14.8031 16.7484 14.8031 16.3172C14.8031 12.6891 14.8031 9.06563 14.8031 5.4375C14.8031 5.38594 14.8031 5.33437 14.8031 5.27344C14.7469 5.27344 14.7094 5.27344 14.6672 5.27344C13.8656 5.27344 13.0641 5.27344 12.2578 5.27344C12.1594 5.27344 12.0562 5.27344 11.9578 5.25937C11.1234 5.12344 10.5844 4.48594 10.5797 3.6375C10.5797 2.77969 10.5797 1.92656 10.5797 1.05469ZM11.6391 1.84688C11.6391 2.47969 11.6297 3.12188 11.6437 3.76406C11.6484 4.02188 11.8922 4.21406 12.1641 4.21875C12.4219 4.22344 12.6797 4.21875 12.9375 4.21875C13.2984 4.21875 13.6594 4.21875 14.0156 4.21875C13.2187 3.42188 12.4312 2.63438 11.6391 1.84688Z" fill="#BCBCBC"/>
<path d="M8.99998 7.45308C10.0406 7.45308 11.0859 7.45308 12.1265 7.45308C12.5437 7.45308 12.8109 7.83745 12.6422 8.1937C12.539 8.41401 12.3562 8.50776 12.1172 8.50776C11.039 8.50776 9.96092 8.50776 8.88279 8.50776C7.87498 8.50776 6.86717 8.50776 5.85936 8.50776C5.58748 8.50776 5.39529 8.36245 5.32498 8.11401C5.26404 7.90308 5.34373 7.65933 5.54061 7.55151C5.64842 7.49058 5.78436 7.45776 5.90623 7.45776C6.93748 7.44839 7.96873 7.45308 8.99998 7.45308Z" fill="#BCBCBC"/>
<path d="M9.01875 9.56245C10.0547 9.56245 11.0906 9.56245 12.1266 9.56245C12.5438 9.56245 12.8063 9.94683 12.6375 10.3078C12.5344 10.5281 12.3516 10.6171 12.1125 10.6171C10.9172 10.6171 9.72187 10.6171 8.52656 10.6171C7.63594 10.6171 6.74531 10.6171 5.85469 10.6171C5.58281 10.6171 5.39062 10.4671 5.32031 10.2234C5.25937 10.0125 5.33906 9.7687 5.53594 9.66089C5.64375 9.59995 5.77969 9.56714 5.90156 9.56714C6.94687 9.55776 7.98281 9.56245 9.01875 9.56245Z" fill="#BCBCBC"/>
<path d="M9 12.7266C7.95937 12.7266 6.91406 12.7266 5.87344 12.7266C5.45625 12.7266 5.18906 12.3422 5.35781 11.9859C5.46094 11.7703 5.63906 11.6719 5.88281 11.6719C6.95625 11.6719 8.025 11.6719 9.09844 11.6719C10.1109 11.6719 11.1234 11.6719 12.1359 11.6719C12.5437 11.6719 12.8062 12.0516 12.6469 12.4078C12.5437 12.6328 12.3562 12.7313 12.1125 12.7313C11.0719 12.7266 10.0359 12.7266 9 12.7266Z" fill="#BCBCBC"/>
<path d="M7.94531 14.8359C7.26562 14.8359 6.58594 14.8359 5.90625 14.8359C5.55 14.8359 5.31094 14.625 5.30625 14.3156C5.30156 13.9969 5.54531 13.7812 5.91094 13.7812C7.275 13.7812 8.63906 13.7812 10.0031 13.7812C10.4156 13.7812 10.6828 14.1375 10.5375 14.4984C10.4531 14.7094 10.2656 14.8312 10.0125 14.8359C9.32812 14.8359 8.63906 14.8359 7.94531 14.8359Z" fill="#BCBCBC"/>
</svg>
