<svg width="14" height="18" viewBox="0 0 14 18" fill="none" xmlns="http://www.w3.org/2000/svg">
<path d="M1.48275 0C4.06087 0 6.639 0 9.21712 0C9.34837 0.09375 9.49368 0.16875 9.60618 0.276563C10.9468 1.6125 12.2827 2.94844 13.6234 4.28438C13.7874 4.44844 13.8624 4.62656 13.8624 4.86094C13.8577 7.35469 13.8577 9.84844 13.8577 12.3469C13.8577 13.6922 13.8577 15.0422 13.8577 16.3875C13.8577 17.0953 13.4406 17.6812 12.7984 17.9109C12.6952 17.9484 12.5921 17.9719 12.489 18C8.80931 18 5.12962 18 1.44993 18C1.43118 17.9859 1.41712 17.9719 1.39837 17.9625C0.54056 17.6953 0.151497 17.1656 0.151497 16.2656C0.151497 11.9531 0.151497 7.64531 0.151497 3.33281C0.151497 2.74219 0.14681 2.15156 0.151497 1.55625C0.160872 0.885938 0.59681 0.295312 1.22962 0.0796875C1.30931 0.0515625 1.39368 0.028125 1.48275 0ZM8.57962 1.05469C8.50462 1.05469 8.45306 1.05469 8.4015 1.05469C6.21243 1.05469 4.01868 1.05469 1.82962 1.05469C1.39837 1.05469 1.2015 1.25156 1.2015 1.6875C1.2015 6.5625 1.2015 11.4375 1.2015 16.3125C1.2015 16.7484 1.39837 16.9453 1.82962 16.9453C5.27493 16.9453 8.72025 16.9453 12.1656 16.9453C12.6015 16.9453 12.8031 16.7484 12.8031 16.3172C12.8031 12.6891 12.8031 9.06563 12.8031 5.4375C12.8031 5.38594 12.8031 5.33437 12.8031 5.27344C12.7468 5.27344 12.7093 5.27344 12.6671 5.27344C11.8656 5.27344 11.064 5.27344 10.2577 5.27344C10.1593 5.27344 10.0562 5.27344 9.95775 5.25937C9.12337 5.12344 8.58431 4.48594 8.57962 3.6375C8.57962 2.77969 8.57962 1.92656 8.57962 1.05469ZM9.639 1.84688C9.639 2.47969 9.62962 3.12188 9.64368 3.76406C9.64837 4.02188 9.89212 4.21406 10.164 4.21875C10.4218 4.22344 10.6796 4.21875 10.9374 4.21875C11.2984 4.21875 11.6593 4.21875 12.0156 4.21875C11.2187 3.42188 10.4312 2.63438 9.639 1.84688Z" fill="#1E62B9"/>
<path d="M6.99998 7.45332C8.04061 7.45332 9.08592 7.45332 10.1265 7.45332C10.5437 7.45332 10.8109 7.8377 10.6422 8.19395C10.539 8.41426 10.3562 8.50801 10.1172 8.50801C9.03904 8.50801 7.96092 8.50801 6.88279 8.50801C5.87498 8.50801 4.86717 8.50801 3.85936 8.50801C3.58748 8.50801 3.39529 8.3627 3.32498 8.11426C3.26404 7.90332 3.34373 7.65957 3.54061 7.55176C3.64842 7.49082 3.78436 7.45801 3.90623 7.45801C4.93748 7.44863 5.96873 7.45332 6.99998 7.45332Z" fill="#1E62B9"/>
<path d="M7.01878 9.5627C8.05472 9.5627 9.09066 9.5627 10.1266 9.5627C10.5438 9.5627 10.8063 9.94707 10.6375 10.308C10.5344 10.5283 10.3516 10.6174 10.1125 10.6174C8.91722 10.6174 7.7219 10.6174 6.52659 10.6174C5.63597 10.6174 4.74534 10.6174 3.85472 10.6174C3.58284 10.6174 3.39066 10.4674 3.32034 10.2236C3.25941 10.0127 3.33909 9.76895 3.53597 9.66113C3.64378 9.6002 3.77972 9.56738 3.90159 9.56738C4.94691 9.55801 5.98284 9.5627 7.01878 9.5627Z" fill="#1E62B9"/>
<path d="M6.99988 12.7266C5.95925 12.7266 4.91394 12.7266 3.87331 12.7266C3.45613 12.7266 3.18894 12.3422 3.35769 11.9859C3.46081 11.7703 3.63894 11.6719 3.88269 11.6719C4.95613 11.6719 6.02488 11.6719 7.09831 11.6719C8.11081 11.6719 9.12331 11.6719 10.1358 11.6719C10.5436 11.6719 10.8061 12.0516 10.6467 12.4078C10.5436 12.6328 10.3561 12.7313 10.1124 12.7313C9.07175 12.7266 8.03581 12.7266 6.99988 12.7266Z" fill="#1E62B9"/>
<path d="M5.94528 14.8359C5.26559 14.8359 4.58591 14.8359 3.90622 14.8359C3.54997 14.8359 3.31091 14.625 3.30622 14.3156C3.30153 13.9969 3.54528 13.7812 3.91091 13.7812C5.27497 13.7812 6.63903 13.7812 8.00309 13.7812C8.41559 13.7812 8.68278 14.1375 8.53747 14.4984C8.45309 14.7094 8.26559 14.8312 8.01247 14.8359C7.32809 14.8359 6.63903 14.8359 5.94528 14.8359Z" fill="#1E62B9"/>
</svg>
