<svg width="24" height="24" viewBox="0 0 24 24" fill="none" xmlns="http://www.w3.org/2000/svg">
<path d="M9.32815 0C13.0781 0 16.8281 0 20.5781 0C20.6719 0.0234375 20.761 0.0515625 20.8547 0.075C22.1438 0.39375 22.9735 1.45312 22.9781 2.80312C22.9828 5.27344 22.9781 7.73906 22.9781 10.2094C22.9781 11.8828 22.9828 13.5516 22.9781 15.225C22.9688 16.7719 21.7828 17.9953 20.2735 18C16.7438 18.0094 13.2141 18.0094 9.67971 18C8.21252 17.9953 6.98909 16.7719 6.9844 15.3094C6.97502 11.1047 6.97034 6.90469 6.98909 2.7C6.99377 1.59375 7.55159 0.773438 8.55002 0.28125C8.79846 0.159375 9.07034 0.0890625 9.32815 0Z" fill="url(#paint0_linear_176_1322)"/>
<path d="M3.28128 24C2.94846 23.8594 2.59221 23.761 2.28753 23.5735C1.44378 23.0532 0.98909 22.2703 0.98909 21.2766C0.979715 16.7532 0.979715 12.2344 0.984402 7.71097C0.984402 6.24847 2.17503 5.04847 3.63753 5.00628C4.24221 4.99222 4.85159 5.0016 5.47971 5.0016C5.47971 5.09535 5.47971 5.17972 5.47971 5.2641C5.47971 8.56878 5.47971 11.8688 5.47971 15.1735C5.47971 17.3016 6.88596 19.0125 8.97659 19.4203C9.25784 19.4766 9.54846 19.4907 9.83909 19.4907C12.7922 19.4953 15.7453 19.4953 18.6938 19.4953C18.7782 19.4953 18.8625 19.4953 18.9797 19.4953C18.9797 19.7953 18.9891 20.0907 18.9797 20.3813C18.961 20.8875 18.9891 21.4032 18.886 21.8907C18.6469 23.0063 17.7703 23.775 16.6407 23.9532C16.6219 23.9578 16.6078 23.9813 16.5938 23.9953C12.1547 24 7.72034 24 3.28128 24Z" fill="url(#paint1_linear_176_1322)"/>
<defs>
<linearGradient id="paint0_linear_176_1322" x1="10.4253" y1="1.3971" x2="20.095" y2="16.4002" gradientUnits="userSpaceOnUse">
<stop stop-color="#70A6EB"/>
<stop offset="1" stop-color="#206AC9"/>
</linearGradient>
<linearGradient id="paint1_linear_176_1322" x1="4.86118" y1="6.47279" x2="14.7825" y2="22.8824" gradientUnits="userSpaceOnUse">
<stop stop-color="#70A6EB"/>
<stop offset="1" stop-color="#206AC9"/>
</linearGradient>
</defs>
</svg>
