<svg width="15" height="15" viewBox="0 0 15 15" fill="none" xmlns="http://www.w3.org/2000/svg">
<path d="M7.5 14C11.0899 14 14 11.0899 14 7.5C14 3.91015 11.0899 1 7.5 1C3.91015 1 1 3.91015 1 7.5C1 11.0899 3.91015 14 7.5 14Z" stroke="#757575"/>
<path d="M6.23638 6.1897C5.82976 6.14007 5.43968 6.09045 5 6.03421C5.0595 5.80925 5.08926 5.57768 5.17851 5.37588C5.50579 4.63815 6.09092 4.2114 6.87771 4.06584C7.47606 3.95336 8.07442 3.97652 8.64302 4.20147C9.33063 4.47605 9.8199 4.94582 9.96866 5.70008C10.0744 6.24924 9.90915 6.72893 9.52237 7.1193C9.21493 7.43358 8.88104 7.72139 8.55376 8.01582C8.30583 8.23747 8.09095 8.47235 8.08103 8.82963C8.07773 8.95534 8.07111 9.08106 8.0645 9.21669C7.6678 9.21669 7.28102 9.21669 6.8744 9.21669C6.83804 8.62783 6.86118 8.05221 7.30416 7.60229C7.65789 7.2417 8.05789 6.92742 8.42484 6.58006C8.80501 6.21947 8.80501 5.68023 8.41823 5.32626C8.05458 4.99213 7.61822 4.96567 7.16532 5.07814C6.69258 5.19724 6.43804 5.5446 6.29588 5.98459C6.27274 6.04414 6.25952 6.1103 6.23638 6.1897Z" fill="#757575"/>
<path d="M6.88525 9.69666C7.32823 9.69666 7.75469 9.69666 8.19106 9.69666C8.19106 10.13 8.19106 10.5601 8.19106 11.0001C7.7613 11.0001 7.33154 11.0001 6.88525 11.0001C6.88525 10.5733 6.88525 10.14 6.88525 9.69666Z" fill="#757575"/>
</svg>
