<svg xmlns="http://www.w3.org/2000/svg" width="16" height="16" viewBox="0 0 16 16" fill="none">
    <circle cx="8" cy="8" r="7.5" stroke="#757575"/>
    <g clip-path="url(#clip0_1_80)">
        <path d="M8.61112 6.22224C9.10204 6.22224 9.50001 5.82427 9.50001 5.33335C9.50001 4.84243 9.10204 4.44446 8.61112 4.44446C8.1202 4.44446 7.72223 4.84243 7.72223 5.33335C7.72223 5.82427 8.1202 6.22224 8.61112 6.22224Z"
              fill="#757575"/>
        <path d="M9.51993 9.82918C9.49537 9.81266 9.46777 9.80121 9.43872 9.79551C9.40968 9.7898 9.3798 9.78996 9.35082 9.79596C9.32184 9.80196 9.29435 9.81369 9.26996 9.83046C9.24558 9.84723 9.22479 9.86871 9.20882 9.89362C8.99399 10.2118 8.73083 10.4944 8.42882 10.7314C8.35548 10.787 8.08215 10.9981 7.9666 10.9536C7.8866 10.9292 7.93326 10.7714 7.94882 10.7047L8.0666 10.3558C8.11548 10.2136 8.9666 7.68918 9.05993 7.40029C9.19771 6.97807 9.13771 6.56251 8.50882 6.66251C8.33771 6.68029 6.60215 6.90473 6.57104 6.90695C6.54186 6.90885 6.51333 6.91648 6.4871 6.9294C6.46086 6.94232 6.43743 6.96028 6.41814 6.98226C6.39884 7.00423 6.38407 7.02979 6.37465 7.05748C6.36523 7.08517 6.36137 7.11444 6.36326 7.14362C6.36516 7.1728 6.37279 7.20133 6.38571 7.22756C6.39863 7.2538 6.41659 7.27723 6.43856 7.29652C6.46054 7.31582 6.4861 7.3306 6.51379 7.34001C6.54148 7.34943 6.57075 7.3533 6.59993 7.3514C6.59993 7.3514 7.2666 7.26473 7.33993 7.25807C7.37749 7.2544 7.41531 7.26168 7.44883 7.27903C7.48235 7.29638 7.51013 7.32306 7.52882 7.35584C7.56908 7.48032 7.56357 7.61508 7.51326 7.73584C7.45548 7.95806 6.54215 10.5314 6.51326 10.6803C6.48228 10.8049 6.49088 10.936 6.53787 11.0555C6.58487 11.175 6.66792 11.2769 6.77548 11.347C6.97738 11.4815 7.21776 11.5463 7.45993 11.5314C7.69539 11.5285 7.92825 11.4818 8.1466 11.3936C8.69993 11.1714 9.27771 10.5803 9.58215 10.1158C9.60837 10.0687 9.61651 10.0135 9.60506 9.96078C9.59361 9.90803 9.56335 9.86125 9.51993 9.82918Z"
              fill="#757575"/>
    </g>
    <defs>
        <clipPath id="clip0_1_80">
            <rect width="8" height="8" fill="white" transform="translate(4 4)"/>
        </clipPath>
    </defs>
</svg>