<svg width="8" height="10" viewBox="0 0 8 10" fill="none" xmlns="http://www.w3.org/2000/svg">
<path d="M6.46871 4.375H5.88673V2.5C5.88673 1.125 4.83915 0 3.55877 0C2.27839 0 1.23081 1.125 1.23081 2.5V4.375H0.648823C0.357828 4.375 0.0668335 4.6875 0.0668335 5V9.375C0.0668335 9.6875 0.357828 10 0.648823 10H6.46871C6.75971 10 7.0507 9.6875 7.0507 9.375V5C7.0507 4.6875 6.75971 4.375 6.46871 4.375ZM4.14076 8.75H2.97678L3.20957 7.375C2.91858 7.25 2.68579 6.875 2.68579 6.5625C2.68579 6.0625 3.09318 5.625 3.55877 5.625C4.02436 5.625 4.43175 6.0625 4.43175 6.5625C4.43175 6.9375 4.25716 7.25 3.90796 7.375L4.14076 8.75ZM4.72275 4.375H2.39479V2.5C2.39479 1.8125 2.91858 1.25 3.55877 1.25C4.19896 1.25 4.72275 1.8125 4.72275 2.5V4.375Z" fill="#FCA31D"/>
</svg>
