<svg width="20" height="16" viewBox="0 0 20 16" fill="none" xmlns="http://www.w3.org/2000/svg">
<path d="M0.00490322 3.14376C0.0637419 3.01137 0.117677 2.87898 0.181419 2.7515C0.470709 2.16311 1.04929 1.85421 1.66219 1.95718C2.22606 2.05034 2.736 2.5995 2.81935 3.19769C2.91251 3.86453 2.75561 4.26169 2.16722 4.82556C2.52026 5.28646 2.86348 5.76698 3.23613 6.21808C3.71664 6.80646 4.256 7.34091 4.91793 7.72827C5.09445 7.83124 5.28077 7.9244 5.46709 7.99794C5.95741 8.18427 6.37419 7.99794 6.75174 7.69885C7.34012 7.23795 7.72748 6.61524 8.08541 5.97782C8.61006 5.0315 9.02683 4.03124 9.39948 3.00156C8.9827 2.82014 8.68851 2.51124 8.5316 2.07976C8.29135 1.41292 8.54141 0.598985 9.10038 0.231243C9.87999 -0.283595 10.8999 0.0988563 11.1892 1.00595C11.4196 1.72673 11.1793 2.60931 10.3066 3.01137C10.5272 3.55072 10.7381 4.09988 10.9734 4.63434C11.3657 5.51692 11.7873 6.38969 12.415 7.13988C12.6062 7.37033 12.8268 7.58117 13.0622 7.76749C13.626 8.21369 14.1997 8.10582 14.7734 7.75278C15.6315 7.22324 16.2885 6.49266 16.8916 5.70814C17.1122 5.41885 17.3182 5.11975 17.5339 4.82066C17.4113 4.69317 17.2888 4.5804 17.1907 4.45292C16.5435 3.60466 16.921 2.32002 17.9115 1.9964C18.544 1.79047 19.2206 2.10918 19.554 2.77111C19.9316 3.52621 19.6521 4.47743 18.9166 4.86969C18.7254 4.97266 18.4949 5.00698 18.2449 5.08543C17.6124 8.00775 16.975 10.9791 16.3326 13.9505C12.008 13.9505 7.70296 13.9505 3.38322 13.9505C2.7458 10.984 2.10348 8.01756 1.46606 5.0413C0.828644 5.01188 0.392258 4.70298 0.132387 4.1293C0.0833547 4.02143 0.044129 3.90866 0 3.80079C0.00490322 3.58014 0.00490322 3.3644 0.00490322 3.14376Z" fill="white"/>
<path d="M3.46289 16C3.46289 15.4214 3.46289 14.8575 3.46289 14.2789C7.72869 14.2789 11.9945 14.2789 16.2603 14.2789C16.2603 14.8526 16.2603 15.4214 16.2603 16C11.9945 16 7.7385 16 3.46289 16Z" fill="white"/>
</svg>
