<svg width="12" height="12" viewBox="0 0 12 12" fill="none" xmlns="http://www.w3.org/2000/svg">
<path fill-rule="evenodd" clip-rule="evenodd" d="M10.8744 6.00001L11.1857 5.84401V5.84251L11.1834 5.84026L11.1789 5.83126L11.1632 5.80126L11.1032 5.69326C11.03 5.56696 10.9522 5.44338 10.8699 5.32276C10.5955 4.91997 10.2801 4.54673 9.92868 4.20901C9.08418 3.39901 7.78443 2.57251 5.99943 2.57251C4.21593 2.57251 2.91543 3.39826 2.07093 4.20901C1.71952 4.54673 1.40409 4.91997 1.12968 5.32276C1.01833 5.48705 0.915204 5.65675 0.820677 5.83126L0.816177 5.84026L0.814677 5.84251V5.84326C0.814677 5.84326 0.813927 5.84401 1.12518 6.00001L0.813927 5.84326C0.789863 5.89188 0.777344 5.94539 0.777344 5.99963C0.777344 6.05388 0.789863 6.10739 0.813927 6.15601L0.813177 6.15751L0.815427 6.15976L0.819927 6.16876C0.843314 6.21562 0.868329 6.26165 0.894927 6.30676C1.21788 6.85232 1.61294 7.35182 2.06943 7.79176C2.91468 8.60176 4.21443 9.42676 5.99943 9.42676C7.78368 9.42676 9.08418 8.60176 9.92943 7.79101C10.2802 7.45289 10.5953 7.07969 10.8699 6.67726C10.9751 6.52242 11.0729 6.36275 11.1632 6.19876L11.1789 6.16876L11.1834 6.15976L11.1849 6.15751V6.15676C11.1849 6.15676 11.1857 6.15601 10.8744 6.00001ZM10.8744 6.00001L11.1857 6.15676C11.2097 6.10814 11.2223 6.05463 11.2223 6.00038C11.2223 5.94614 11.2097 5.89263 11.1857 5.84401L10.8744 6.00001ZM5.95443 4.84801C5.6489 4.84801 5.35588 4.96938 5.13984 5.18542C4.9238 5.40146 4.80243 5.69448 4.80243 6.00001C4.80243 6.30554 4.9238 6.59855 5.13984 6.8146C5.35588 7.03064 5.6489 7.15201 5.95443 7.15201C6.25996 7.15201 6.55297 7.03064 6.76901 6.8146C6.98506 6.59855 7.10643 6.30554 7.10643 6.00001C7.10643 5.69448 6.98506 5.40146 6.76901 5.18542C6.55297 4.96938 6.25996 4.84801 5.95443 4.84801ZM4.10793 6.00001C4.10793 5.50989 4.30263 5.03984 4.64919 4.69328C4.99576 4.34671 5.46581 4.15201 5.95593 4.15201C6.44605 4.15201 6.91609 4.34671 7.26266 4.69328C7.60923 5.03984 7.80393 5.50989 7.80393 6.00001C7.80393 6.49013 7.60923 6.96018 7.26266 7.30674C6.91609 7.65331 6.44605 7.84801 5.95593 7.84801C5.46581 7.84801 4.99576 7.65331 4.64919 7.30674C4.30263 6.96018 4.10793 6.49013 4.10793 6.00001Z" fill="#1E62B9"/>
</svg>
