<svg width="60" height="60" viewBox="0 0 60 60" fill="none" xmlns="http://www.w3.org/2000/svg">
<rect width="60" height="60" rx="4" fill="#1E62B9" fill-opacity="0.1"/>
<path d="M14 51.9906C14 50.0135 14 48.0364 14 46.0125C16.5608 45.291 19.1215 44.5695 21.6918 43.8386C22.128 44.3727 22.4979 44.9349 22.5453 45.6564C23.2567 45.6564 23.9585 45.6564 24.6603 45.6564C24.7078 44.9255 25.0682 44.3446 25.5234 43.8105C25.8933 43.3701 26.2916 42.9485 26.6805 42.5268C26.7374 42.4706 26.8038 42.405 26.8702 42.3769C28.6532 41.8709 30.4363 41.3743 32.2478 40.8683C32.5039 41.3743 32.7599 41.8803 33.0065 42.3769C34.5714 45.4784 36.1458 48.5799 37.7107 51.6814C37.7581 51.7845 37.7866 51.8969 37.8245 52C29.8862 51.9906 21.9384 51.9906 14 51.9906Z" fill="#1E62B9"/>
<path d="M40.243 51.9906C39.3515 50.2197 38.4695 48.4581 37.5779 46.6872C36.5062 44.5601 35.425 42.4237 34.3248 40.2686C38.2134 39.1723 42.083 38.076 46 36.9703C46 42.0021 46 46.9964 46 51.9813C44.0842 51.9906 42.1683 51.9906 40.243 51.9906Z" fill="#1E62B9"/>
<path d="M30.9294 17.0094C31.4889 17.1312 32.0485 17.2249 32.5986 17.3654C34.1635 17.7777 35.8233 18.7522 36.7432 19.7642C36.2501 20.2514 35.7664 20.7387 35.2732 21.2259C32.4848 18.5273 27.5814 18.4805 24.7077 21.254C24.6318 21.1791 24.5559 21.1135 24.48 21.0385C24.0533 20.6356 23.6359 20.2233 23.1902 19.8017C24.6508 18.3774 26.3579 17.4966 28.3307 17.1406C28.5298 17.1031 28.729 17.0469 28.9282 17C29.6016 17.0094 30.256 17.0094 30.9294 17.0094Z" fill="#1E62B9"/>
<path d="M46 28.8183C46 30.8048 46 32.7725 46 34.7777C40.262 36.3987 34.5145 38.0198 28.6912 39.6595C29.1369 38.2727 28.9472 36.9797 28.2833 35.7709C27.6194 34.5622 26.6141 33.7189 25.2863 33.2878C23.0575 32.557 20.6105 33.3253 19.2733 35.2181C18.0782 36.9047 17.4997 39.3784 20.1174 42.0864C18.0782 42.658 16.0676 43.2295 14.0284 43.8105C14.0284 38.7975 14.0284 33.8219 14.0284 28.8183C24.6603 28.8183 35.3112 28.8183 46 28.8183Z" fill="#1E62B9"/>
<path d="M23.6075 42.7705C22.7729 41.8428 21.9193 40.962 21.1606 40.0063C19.975 38.5258 20.269 36.7361 21.796 35.6773C23.2566 34.6653 25.3052 35.0682 26.2916 36.5581C27.0029 37.645 27.0029 38.7788 26.1967 39.8189C25.6561 40.5123 25.0302 41.14 24.4516 41.8053C24.1671 42.1239 23.892 42.4425 23.6075 42.7705ZM24.6413 39.3316C24.6413 38.6101 24.6413 37.9261 24.6413 37.2515C23.93 37.2515 23.2376 37.2515 22.5548 37.2515C22.5548 37.9542 22.5548 38.6382 22.5548 39.3316C23.2566 39.3316 23.9395 39.3316 24.6413 39.3316Z" fill="#1E62B9"/>
<path d="M27.7522 24.2431C27.259 23.7465 26.7658 23.2498 26.2821 22.7626C28.0652 20.8136 31.8494 20.7574 33.7083 22.7532C33.2151 23.2405 32.7219 23.7277 32.2193 24.2243C31.6123 23.6621 30.8535 23.3717 29.9999 23.3717C29.1464 23.3717 28.3876 23.6528 27.7522 24.2431Z" fill="#1E62B9"/>
<path d="M28.9377 27.532C28.9377 26.8387 28.9377 26.164 28.9377 25.4612C29.6396 25.4612 30.3319 25.4612 31.0433 25.4612C31.0433 26.1359 31.0433 26.8199 31.0433 27.532C30.3604 27.532 29.668 27.532 28.9377 27.532Z" fill="#1E62B9"/>
<path d="M0 4C0 1.79086 1.79086 0 4 0H56C58.2091 0 60 1.79086 60 4V9H0V4Z" fill="#1E3F69"/>
<circle cx="4.5" cy="4.5" r="1.5" fill="#FF4F59"/>
<circle cx="9.5" cy="4.5" r="1.5" fill="#FCFEFF"/>
<circle cx="14.5" cy="4.5" r="1.5" fill="#FFF507"/>
</svg>
