<svg width="60" height="60" viewBox="0 0 60 60" fill="none" xmlns="http://www.w3.org/2000/svg">
<rect width="60" height="60" rx="4" fill="#1E62B9" fill-opacity="0.1"/>
<path d="M29.0592 51.9994C28.7246 51.9994 28.3901 51.9994 28.0555 51.9994C24.7098 51.9994 21.3642 51.9994 18.0185 51.9994C15.5092 51.9994 13.5018 50.3404 13 47.8519C13 47.5201 13 47.1883 13 46.8565C13 40.8842 13 34.9118 13 28.9395C13 28.7736 13 28.7736 13 28.6077C22.8697 28.6077 32.5721 28.6077 42.2746 28.6077C42.2746 30.2667 42.2746 31.7597 42.2746 33.4187C40.9363 33.7505 39.9326 34.58 39.0962 35.5754C36.2524 38.3957 33.4086 41.216 30.5647 44.0362C29.7283 44.8657 29.2265 45.8611 29.0592 47.0224C28.8919 47.8519 28.7246 48.6814 28.5573 49.5109C28.3901 50.3404 28.5573 51.1699 29.0592 51.9994ZM27.5536 34.7459C29.8956 34.7459 32.0703 34.7459 34.4123 34.7459C34.5795 34.7459 34.7468 34.7459 34.9141 34.7459C35.416 34.7459 35.7505 34.2482 35.9178 33.7505C35.9178 33.2528 35.5832 32.7551 35.0814 32.5892C34.9141 32.5892 34.7468 32.5892 34.4123 32.5892C29.8956 32.5892 25.379 32.5892 20.695 32.5892C20.5277 32.5892 20.3605 32.5892 20.1932 32.5892C19.6913 32.5892 19.1895 33.0869 19.1895 33.5846C19.1895 34.2482 19.6913 34.7459 20.3605 34.7459C22.8697 34.7459 25.2117 34.7459 27.5536 34.7459ZM25.5462 40.8842C26.5499 40.8842 27.3864 40.8842 28.3901 40.8842C29.2265 40.8842 29.8956 40.8842 30.732 40.8842C31.2339 40.8842 31.7357 40.5524 31.7357 39.8888C31.7357 39.3911 31.5684 38.8934 31.0666 38.7275C30.8993 38.7275 30.5647 38.5616 30.3975 38.5616C27.2191 38.5616 24.0407 38.5616 20.695 38.5616C20.5277 38.5616 20.5277 38.5616 20.3605 38.5616C19.6913 38.5616 19.1895 39.2252 19.3568 39.8888C19.524 40.3865 19.8586 40.7183 20.5277 40.7183C22.2006 40.8842 23.8734 40.8842 25.5462 40.8842ZM23.2043 47.0224C24.0407 47.0224 24.8771 47.0224 25.7135 47.0224C26.3827 47.0224 26.8845 46.5247 26.8845 45.8611C26.8845 45.1975 26.3827 44.6998 25.7135 44.6998C24.0407 44.6998 22.2006 44.6998 20.5277 44.6998C19.8586 44.6998 19.3568 45.1975 19.3568 45.8611C19.3568 46.5247 19.8586 46.8565 20.5277 46.8565C21.3642 47.0224 22.3679 47.0224 23.2043 47.0224Z" fill="#1E62B9"/>
<path d="M36.4197 18.3226C37.2561 18.4885 37.9252 18.4885 38.5943 18.6544C40.769 19.1521 42.1073 21.1429 42.2746 23.2995C42.2746 24.2949 42.2746 25.2903 42.2746 26.2857C32.5721 26.2857 22.7024 26.2857 13 26.2857C13 24.9585 13 23.6313 13.1673 22.3041C13.5018 20.1475 15.6765 18.4885 18.0185 18.4885C18.3531 18.4885 18.5203 18.4885 18.8549 18.4885C18.8549 18.1567 18.8549 17.659 18.8549 17.3272C18.8549 16.4977 19.3568 16 20.0259 16C20.695 16 21.1969 16.4977 21.1969 17.3272C21.1969 17.659 21.1969 17.9908 21.1969 18.4885C23.037 18.4885 24.7098 18.4885 26.5499 18.4885C26.5499 18.1567 26.5499 17.8249 26.5499 17.3272C26.5499 16.4977 27.0518 16 27.7209 16.1659C28.3901 16.1659 28.8919 16.6636 28.8919 17.3272C28.8919 17.659 28.8919 17.9908 28.8919 18.4885C30.732 18.4885 32.4049 18.4885 34.245 18.4885C34.245 18.1567 34.245 17.659 34.245 17.3272C34.245 16.6636 34.7468 16.1659 35.416 16.1659C36.0851 16.1659 36.5869 16.6636 36.5869 17.1613C36.4197 17.4931 36.4197 17.9908 36.4197 18.3226Z" fill="#1E62B9"/>
<path d="M38.5944 39.2256C40.0999 40.7187 41.6055 42.2118 42.9437 43.5389L42.7765 43.7048C40.6018 45.8615 38.4271 48.0182 36.2524 50.1749C36.0851 50.3408 35.7506 50.5067 35.416 50.6726C34.4123 50.8385 33.2413 51.0044 32.2376 51.1703C31.4012 51.3362 30.7321 50.6726 30.8993 49.8431C31.0666 48.8477 31.2339 47.8523 31.4012 46.691C31.4012 46.3592 31.5685 46.0274 31.903 45.6956C33.9104 43.7048 36.2524 41.5482 38.5944 39.2256C38.4271 39.3915 38.4271 39.3915 38.5944 39.2256Z" fill="#1E62B9"/>
<path d="M44.6161 42.0462C43.1105 40.5531 41.605 39.06 40.2667 37.7328C40.7686 37.2351 41.2704 36.7374 41.7723 36.2397C42.9433 35.2443 44.9507 35.2443 46.1216 36.4056C47.2926 37.5669 47.2926 39.3918 46.1216 40.5531C45.6198 41.0508 45.1179 41.5485 44.6161 42.0462Z" fill="#1E62B9"/>
<path d="M0 4C0 1.79086 1.79086 0 4 0H56C58.2091 0 60 1.79086 60 4V9H0V4Z" fill="#1E3F69"/>
<circle cx="4.5" cy="4.5" r="1.5" fill="#FF4F59"/>
<circle cx="9.5" cy="4.5" r="1.5" fill="#FCFEFF"/>
<circle cx="14.5" cy="4.5" r="1.5" fill="#FFF507"/>
</svg>
