<svg width="60" height="60" viewBox="0 0 60 60" fill="none" xmlns="http://www.w3.org/2000/svg">
<rect width="60" height="60" rx="4" fill="#1E62B9" fill-opacity="0.1"/>
<path d="M30.4505 19.8633C26.624 19.7482 22.899 21.1097 20.0403 23.668L20.9875 18.4503L18.5286 18L16.8636 27.1585L25.9816 28.8299L26.4298 26.3592L21.7476 25.5003C23.9906 23.5237 26.8653 22.4218 29.8486 22.395C32.832 22.3682 35.7258 23.4184 38.0036 25.3544C40.2814 27.2905 41.7919 29.9838 42.2603 32.9443C42.7286 35.9049 42.1237 38.9361 40.5556 41.4864C38.9876 44.0367 36.5605 45.9366 33.7159 46.8407C30.8713 47.7447 27.7983 47.5927 25.0558 46.4124C22.3133 45.232 20.0837 43.1017 18.7724 40.409C17.4612 37.7163 17.1555 34.6401 17.9109 31.7401L15.4913 31.1025C14.7015 34.1266 14.8671 37.3227 15.9654 40.2479C17.0637 43.1732 19.0402 45.6829 21.6211 47.4294C24.202 49.1758 27.2595 50.0726 30.3702 49.9954C33.4809 49.9182 36.4907 48.871 38.9827 46.9987C41.4747 45.1264 43.3255 42.5217 44.2787 39.5456C45.232 36.5694 45.2405 33.369 44.3031 30.3878C43.3657 27.4065 41.5288 24.7919 39.0468 22.9063C36.5649 21.0206 33.5607 19.9572 30.4505 19.8633Z" fill="#1E62B9"/>
<path fill-rule="evenodd" clip-rule="evenodd" d="M39.3322 31.2053L37.0843 28.9467L28.2658 37.808L24.7588 34.2858L22.5078 36.5468L28.2705 42.3378L30.5215 40.076L30.513 40.0667L39.3322 31.2053Z" fill="#1E62B9"/>
<path d="M0 4C0 1.79086 1.79086 0 4 0H56C58.2091 0 60 1.79086 60 4V9H0V4Z" fill="#1E3F69"/>
<circle cx="4.5" cy="4.5" r="1.5" fill="#FF4F59"/>
<circle cx="9.5" cy="4.5" r="1.5" fill="#FCFEFF"/>
<circle cx="14.5" cy="4.5" r="1.5" fill="#FFF507"/>
</svg>
