<svg width="60" height="60" viewBox="0 0 60 60" fill="none" xmlns="http://www.w3.org/2000/svg">
<rect width="60" height="60" rx="4" fill="#1E62B9" fill-opacity="0.1"/>
<g clip-path="url(#clip0_109_566)">
<path d="M38.9882 21.7087C39.926 20.7801 40.8356 19.8609 41.7546 18.9698C42.2891 18.4539 42.8517 17.9849 43.6113 17.8161C44.7928 17.5534 46.0494 18.0506 46.7434 19.073C47.4279 20.086 47.4467 21.4179 46.7246 22.3934C46.3495 22.9 45.8994 23.3502 45.468 23.8098C44.7741 24.5414 44.0614 25.2543 43.405 25.9203C43.5175 26.2955 43.6863 26.6613 43.7144 27.0365C43.7613 27.6368 43.4425 28.0964 42.908 28.3684C42.3735 28.6404 41.839 28.5935 41.3419 28.2559C41.2388 28.1808 41.1356 28.0964 41.0512 28.012C39.7384 26.7082 38.4256 25.4044 37.1127 24.0912C36.7845 23.7629 36.4563 23.4252 36.4563 22.9C36.4563 22.2809 36.6907 21.8025 37.2253 21.5024C37.7785 21.1928 38.3224 21.2491 38.8475 21.6055C38.8944 21.6243 38.9319 21.6712 38.9882 21.7087Z" fill="#1E62B9"/>
<path d="M29.4233 36.5758C29.1326 36.8854 28.8325 37.223 28.523 37.5326C28.1667 37.889 27.7166 37.9078 27.4071 37.5982C27.0883 37.2793 27.1164 36.8478 27.4634 36.482C27.7541 36.1819 28.0542 35.8817 28.3542 35.5816C28.373 35.5628 28.3824 35.544 28.3917 35.5159C28.3355 35.4315 28.2698 35.3471 28.2136 35.2626C27.8572 34.7092 27.8572 34.062 28.3073 33.5743C29.2263 32.5894 30.1735 31.6326 31.1112 30.6665C32.8273 28.9031 34.5527 27.149 36.2407 25.4138C37.3753 26.5487 38.4256 27.5993 39.5415 28.7249C39.5134 28.7436 39.4102 28.7718 39.3446 28.8468C36.8314 31.3512 34.3277 33.865 31.8145 36.3788C31.0268 37.1761 30.4079 37.2324 29.4233 36.5758Z" fill="#1E62B9"/>
<path d="M21.5839 30.7228C20.3836 32.1579 19.6803 33.8181 19.5021 35.7316C17.2703 35.7316 15.0385 35.7316 12.816 35.7316C12.3471 33.5837 14.6727 27.9276 16.8389 25.9484C18.4143 27.5336 19.9897 29.1188 21.5839 30.7228Z" fill="#1E62B9"/>
<path d="M29.2638 52.2684C29.2638 49.9891 29.2638 47.766 29.2638 45.5149C31.158 45.3273 32.8366 44.6332 34.2713 43.4325C35.8843 45.0177 37.4878 46.5842 39.1195 48.1881C36.2875 50.6926 33.0335 52.0433 29.2638 52.2684Z" fill="#1E62B9"/>
<path d="M17.9546 24.7853C20.7022 22.3278 23.9749 20.9771 27.7353 20.7426C27.7353 22.9938 27.7353 25.2262 27.7353 27.4961C25.8504 27.6837 24.1718 28.3778 22.7371 29.5784C21.1429 27.9745 19.5581 26.3893 17.9546 24.7853Z" fill="#1E62B9"/>
<path d="M40.1792 47.1C40.1042 47.025 40.0385 46.9781 39.9823 46.9218C38.4538 45.4023 36.9346 43.8734 35.3873 42.3257C36.6158 40.853 37.3285 39.1647 37.5066 37.2699C39.7666 37.2699 42.0078 37.2699 44.2584 37.2699C44.0333 41.0313 42.6736 44.2955 40.1792 47.1Z" fill="#1E62B9"/>
<path d="M12.7784 37.2699C15.0103 37.2699 17.2421 37.2699 19.5021 37.2699C19.6802 39.1553 20.3835 40.8343 21.5745 42.26C19.9803 43.864 18.3955 45.4492 16.8107 47.0344C14.3257 44.4549 12.8347 40.5247 12.7784 37.2699Z" fill="#1E62B9"/>
<path d="M22.784 43.4325C24.1719 44.6238 25.8223 45.3273 27.7259 45.5055C27.7259 47.7473 27.7259 49.9891 27.7259 52.2684C23.9937 52.0433 20.7397 50.6926 17.9734 48.235C19.5676 46.6404 21.1523 45.0552 22.784 43.4325Z" fill="#1E62B9"/>
<path d="M37.5441 35.741C37.4222 35.1595 37.366 34.5498 37.1409 34.0057C36.9346 33.4898 37.0753 33.1991 37.441 32.852C38.4631 31.8671 39.4477 30.8541 40.4324 29.8411C40.5918 29.6816 40.7137 29.616 40.9388 29.7379C41.5389 30.0568 42.1953 30.0756 42.8518 29.9818C43.6863 31.8202 44.1552 33.7243 44.2396 35.741C41.9984 35.741 39.776 35.741 37.5441 35.741Z" fill="#1E62B9"/>
<path d="M35.0216 22.1683C34.9278 22.8718 34.9841 23.5378 35.3123 24.1662C35.3404 24.2319 35.3029 24.3726 35.256 24.4289C34.0932 25.592 32.9304 26.7457 31.7676 27.8994C31.7113 27.9557 31.6082 28.0026 31.5332 27.9839C30.783 27.8056 30.0421 27.618 29.2732 27.4211C29.2732 25.2355 29.2732 23.0031 29.2732 20.7801C30.6986 20.7051 33.3993 21.3617 35.0216 22.1683Z" fill="#1E62B9"/>
</g>
<path d="M0 4C0 1.79086 1.79086 0 4 0H56C58.2091 0 60 1.79086 60 4V9H0V4Z" fill="#1E3F69"/>
<circle cx="4.5" cy="4.5" r="1.5" fill="#FF4F59"/>
<circle cx="9.5" cy="4.5" r="1.5" fill="#FCFEFF"/>
<circle cx="14.5" cy="4.5" r="1.5" fill="#FFF507"/>
<defs>
<clipPath id="clip0_109_566">
<rect width="36" height="36" fill="white" transform="translate(12 17)"/>
</clipPath>
</defs>
</svg>
