<svg width="60" height="60" viewBox="0 0 60 60" fill="none" xmlns="http://www.w3.org/2000/svg">
<rect width="60" height="60" rx="4" fill="#1E62B9" fill-opacity="0.1"/>
<path d="M24.8743 18C32.5034 18 40.3709 18 48.0001 18C48.0001 20.8732 48.0001 23.9858 48.0001 26.8591C40.3709 26.8591 32.5034 26.8591 24.8743 26.8591C24.8743 23.9858 24.8743 20.8732 24.8743 18Z" fill="#1E62B9"/>
<path d="M24.8743 52.0007C24.8743 49.1275 24.8743 46.0148 24.8743 43.1416C32.5034 43.1416 40.3709 43.1416 48.0001 43.1416C48.0001 46.0148 48.0001 49.1275 48.0001 52.0007C40.1325 52.0007 32.5034 52.0007 24.8743 52.0007Z" fill="#1E62B9"/>
<path d="M48.0001 30.4512C48.0001 33.3244 48.0001 36.437 48.0001 39.3102C40.3709 39.3102 32.5034 39.3102 24.8743 39.3102C24.8743 36.437 24.8743 33.3244 24.8743 30.4512C32.5034 30.4512 40.1325 30.4512 48.0001 30.4512Z" fill="#1E62B9"/>
<path d="M21.0596 18C21.0596 20.8732 21.0596 23.9858 21.0596 26.8591C18.1987 26.8591 15.0993 26.8591 12 26.8591C12 23.9858 12 20.8732 12 18C15.0993 18 18.1987 18 21.0596 18Z" fill="#1E62B9"/>
<path d="M12.239 43.1416C15.3383 43.1416 18.1993 43.1416 21.2986 43.1416C21.2986 46.0148 21.2986 49.1275 21.2986 52.0007C18.1993 52.0007 15.3383 52.0007 12.239 52.0007C12.239 49.1275 12.239 46.0148 12.239 43.1416Z" fill="#1E62B9"/>
<path d="M21.0596 39.5492C17.9603 39.5492 15.0993 39.5492 12 39.5492C12 36.676 12 33.5634 12 30.6902C14.8609 30.6902 17.9603 30.6902 21.0596 30.6902C21.0596 33.5634 21.0596 36.4366 21.0596 39.5492Z" fill="#1E62B9"/>
<path d="M0 4C0 1.79086 1.79086 0 4 0H56C58.2091 0 60 1.79086 60 4V9H0V4Z" fill="#1E3F69"/>
<circle cx="4.5" cy="4.5" r="1.5" fill="#FF4F59"/>
<circle cx="9.5" cy="4.5" r="1.5" fill="#FCFEFF"/>
<circle cx="14.5" cy="4.5" r="1.5" fill="#FFF507"/>
</svg>
