<svg width="60" height="60" viewBox="0 0 60 60" fill="none" xmlns="http://www.w3.org/2000/svg">
<rect width="60" height="60" rx="4" fill="#1E62B9" fill-opacity="0.1"/>
<path fill-rule="evenodd" clip-rule="evenodd" d="M46.1488 38.9918C44.904 37.4423 43.2514 36.5418 41.2745 36.1859V35.7252V19.12C41.2745 17.2459 40.0507 16 38.1993 16H15.0621C13.2421 16 12.0078 17.2354 12.0078 19.0467C11.9974 29.014 11.9974 38.9709 12.0078 48.9277C12.0078 49.2732 12.0497 49.6292 12.1543 49.9642C12.5518 51.252 13.6605 51.9953 15.1249 51.9953C17.7797 51.9953 20.4358 51.9965 23.0922 51.9977H23.0933H23.0945H23.0957H23.0968C28.4139 52 33.7325 52.0023 39.0465 51.9953C39.1401 51.9953 39.2341 51.9957 39.3283 51.9961H39.3291H39.3298H39.3306H39.3313C39.952 51.9985 40.5832 52.001 41.1908 51.9011C44.1928 51.4195 46.3266 49.7443 47.4144 46.9175C48.5127 44.0697 48.0524 41.3789 46.1488 38.9918ZM40.0298 38.6253C43.0422 38.6253 45.4479 41.0334 45.4479 44.0487C45.4479 45.4573 44.917 46.7369 44.0427 47.6991C43.9771 47.7713 43.9096 47.8416 43.8402 47.9101C42.8614 48.877 41.5137 49.4723 40.0191 49.4723L39.9795 49.4721C37.1586 49.4619 34.8785 47.3211 34.6246 44.5449C34.6089 44.3749 34.601 44.2024 34.601 44.0279C34.601 43.8683 34.6079 43.7103 34.6214 43.5543C34.8606 40.7749 37.1873 38.6253 40.0298 38.6253ZM33.7329 31.8932H26.5993C25.7765 31.8932 24.9536 31.8944 24.1308 31.8956H24.1303C22.4848 31.8979 20.8393 31.9002 19.1938 31.8932C19.0696 31.8932 18.9514 31.8799 18.8403 31.8548C18.1273 31.6937 17.7067 31.0474 17.8967 30.3228C17.9514 30.1175 18.0398 29.9461 18.1611 29.8075C18.3183 29.6279 18.5307 29.5036 18.7964 29.4327C18.9219 29.4013 19.0579 29.3804 19.1834 29.3804H34.0782C34.8731 29.3804 35.4275 29.9143 35.417 30.6472C35.417 30.9896 35.2818 31.2981 35.058 31.5216C34.8517 31.7294 34.5694 31.8625 34.2455 31.8828C34.0781 31.8932 33.9003 31.8932 33.733 31.8932H33.7329ZM17.8476 23.9151C17.8241 24.6142 18.3778 25.2032 19.1621 25.2032H26.6514C29.1304 25.2032 31.6093 25.2032 34.0988 25.2137C34.6655 25.2137 35.1011 24.9308 35.2967 24.4948C35.3858 24.3007 35.426 24.0757 35.4065 23.8314C35.3542 23.1614 34.7998 22.6902 34.0572 22.6902H21.4426C21.1844 22.6902 20.9272 22.6891 20.6705 22.6879H20.6704H20.6703H20.6702H20.6701C20.1576 22.6856 19.6466 22.6833 19.131 22.6902C18.9182 22.694 18.7201 22.7417 18.5461 22.8259C18.2845 22.9479 18.079 23.1539 17.9612 23.4185C17.9359 23.4735 17.9143 23.531 17.8967 23.5906C17.8665 23.7006 17.8506 23.8093 17.8476 23.9151ZM19.1625 36.0918C18.9098 36.0953 18.6806 36.1554 18.4869 36.2602C18.0972 36.4664 17.848 36.8567 17.834 37.3271C17.8131 38.0181 18.3779 38.6149 19.131 38.6149C22.7292 38.6253 26.3169 38.6253 29.9151 38.6044C30.2393 38.6044 30.6264 38.4159 30.8774 38.1856C30.8962 38.1694 30.9142 38.1527 30.9314 38.1357C31.2802 37.8022 31.3401 37.33 31.139 36.877C30.9194 36.385 30.5323 36.1023 29.978 36.1023H25.8669C25.4202 36.1021 24.9739 36.1021 24.5283 36.1021H24.1402C23.3738 36.1015 22.6059 36.0993 21.839 36.097L21.8376 36.097C20.9433 36.0944 20.0503 36.0918 19.1625 36.0918ZM18.0134 43.3935C18.0295 43.3674 18.0466 43.342 18.0647 43.3174C18.3063 42.9887 18.7231 42.7923 19.2461 42.7923H28.1474C28.9737 42.7923 29.549 43.3054 29.5595 44.0383C29.5634 44.3156 29.4843 44.5623 29.339 44.7627C29.095 45.0994 28.6641 45.3052 28.1264 45.3052H23.66H19.2669C18.4092 45.3052 17.8234 44.7818 17.8339 44.0384C17.8373 43.7944 17.9005 43.5764 18.0134 43.3935Z" fill="#1E62B9"/>
<path d="M39.1406 43.9964C40.0088 43.117 40.8037 42.3108 41.6196 41.5151C42.3518 40.7927 43.5128 41.1172 43.7429 42.0909C43.8475 42.5307 43.7325 42.9285 43.4187 43.2426C42.2995 44.3734 41.1803 45.5041 40.0402 46.6244C39.5381 47.1165 38.8164 47.0955 38.3143 46.6139C37.739 46.059 37.1742 45.4936 36.6198 44.9283C36.1177 44.4048 36.1282 43.6614 36.6093 43.1693C37.1009 42.6668 37.8645 42.6563 38.398 43.1693C38.6595 43.4206 38.8791 43.7033 39.1406 43.9964Z" fill="#1E62B9"/>
<path d="M0 4C0 1.79086 1.79086 0 4 0H56C58.2091 0 60 1.79086 60 4V9H0V4Z" fill="#1E3F69"/>
<circle cx="4.5" cy="4.5" r="1.5" fill="#FF4F59"/>
<circle cx="9.5" cy="4.5" r="1.5" fill="#FCFEFF"/>
<circle cx="14.5" cy="4.5" r="1.5" fill="#FFF507"/>
</svg>
