<svg width="60" height="60" viewBox="0 0 60 60" fill="none" xmlns="http://www.w3.org/2000/svg">
<rect width="60" height="60" rx="4" fill="#1E62B9" fill-opacity="0.1"/>
<path d="M0 4C0 1.79086 1.79086 0 4 0H56C58.2091 0 60 1.79086 60 4V9H0V4Z" fill="#1E3F69"/>
<circle cx="4.5" cy="4.5" r="1.5" fill="#FF4F59"/>
<circle cx="9.5" cy="4.5" r="1.5" fill="#FCFEFF"/>
<circle cx="14.5" cy="4.5" r="1.5" fill="#FFF507"/>
<path fill-rule="evenodd" clip-rule="evenodd" d="M9.99978 15C9.4475 15 9 15.4474 9 15.9997V52.0003C9 52.5526 9.4475 53 9.99978 53H50.0002C50.5525 53 51 52.5526 51 52.0003V15.9997C51 15.4474 50.5525 15 50.0002 15H9.99978ZM44.9167 20.9167L42 18H47.8333L44.9167 20.9167ZM12 18.5C12 18.2239 12.2239 18 12.5 18H32.5C32.7761 18 33 18.2239 33 18.5V20.5C33 20.7761 32.7761 21 32.5 21H12.5C12.2239 21 12 20.7761 12 20.5V18.5ZM24 44C23.4477 44 23 44.4477 23 45V47C23 47.5523 23.4477 48 24 48H47C47.5523 48 48 47.5523 48 47V45C48 44.4477 47.5523 44 47 44H24ZM23 36C23 35.4477 23.4477 35 24 35H47C47.5523 35 48 35.4477 48 36V38C48 38.5523 47.5523 39 47 39H24C23.4477 39 23 38.5523 23 38V36ZM24 26C23.4477 26 23 26.4477 23 27V29C23 29.5523 23.4477 30 24 30H47C47.5523 30 48 29.5523 48 29V27C48 26.4477 47.5523 26 47 26H24Z" fill="#1E62B9"/>
<path d="M12.0023 46.0011C12.0023 45.6676 12.0023 45.3342 12.0023 45.0007C15.0509 45.0007 18.0995 45.0007 21.1481 45.0007C21.1481 45.3342 21.1481 45.6676 21.1481 46.0011C20.9552 46.0011 20.7623 46.0011 20.567 46.0011C17.7137 46.0011 14.858 46.0011 12.0023 46.0011Z" fill="#FEE05A"/>
<path d="M21.1481 48.0006C21.1481 48.334 21.1481 48.6674 21.1481 49.0009C21.11 49.0009 21.0719 49.0009 21.0314 49.0009C18.2662 49.0009 15.4987 49.0009 12.7335 49.0009C12.4906 49.0009 12.2453 49.0009 12.0023 49.0009C12.0023 48.6674 12.0023 48.334 12.0023 48.0006C12.0285 48.0006 12.0547 47.9982 12.0833 47.9982C15.0795 47.9982 18.0733 47.9982 21.0695 47.9982C21.0957 47.9982 21.1219 47.9982 21.1481 48.0006Z" fill="#FEE05A"/>
<path d="M21.1474 45.0003C18.0988 45.0003 15.0502 45.0003 12.0016 45.0003C12.0016 44.8527 12.0016 44.7026 12.0016 44.5526C12.0112 44.5311 12.0231 44.5121 12.0302 44.4906C12.1255 44.2001 12.3613 44.0191 12.6661 44.0024C12.6947 44 12.7257 44 12.7543 44C15.3003 44 17.844 44 20.3901 44C20.7902 44 21.0212 44.1739 21.1331 44.5573C21.1355 44.5621 21.1427 44.5645 21.1451 44.5668C21.1474 44.7145 21.1474 44.8574 21.1474 45.0003Z" fill="#474755"/>
<path d="M12.0024 49.0023C12.2453 49.0023 12.4906 49.0023 12.7336 49.0023C15.4987 49.0023 18.2663 49.0023 21.0315 49.0023C21.0696 49.0023 21.1077 49.0023 21.1482 49.0023C21.1482 49.1524 21.1482 49.3 21.1482 49.4501C21.1386 49.4715 21.1244 49.4906 21.1172 49.512C21.0196 49.8097 20.7766 49.9907 20.4622 50.0003C20.4337 50.0003 20.4027 50.0003 20.3741 50.0003C17.84 50.0003 15.3082 50.0003 12.7741 50.0003C12.3668 50.0003 12.1548 49.8502 12.0167 49.4691C12.0143 49.462 12.0048 49.4572 12 49.4501C12.0024 49.3 12.0024 49.15 12.0024 49.0023Z" fill="#FE4C55"/>
<path d="M21.1482 48.0013C21.122 48.0013 21.0958 47.9989 21.0672 47.9989C18.071 47.9989 15.0772 47.9989 12.081 47.9989C12.0548 47.9989 12.0286 47.9989 12 48.0013C12 47.6679 12 47.3344 12 47.001C13.2075 47.001 14.4151 47.001 15.6226 47.001C15.625 47.0129 15.625 47.0248 15.6274 47.0367C15.6607 47.6559 16.2323 48.0704 16.8277 47.9108C17.2279 47.8036 17.4827 47.4678 17.5232 47.001C18.7307 47.001 19.9383 47.001 21.1458 47.001C21.1482 47.3344 21.1482 47.6679 21.1482 48.0013Z" fill="#474655"/>
<path d="M21.1487 47.0018C19.9411 47.0018 18.7336 47.0018 17.5261 47.0018C17.5237 46.9804 17.5237 46.9613 17.5213 46.9399C17.4832 46.3373 16.8806 45.9181 16.3042 46.0944C15.9613 46.1991 15.6445 46.5064 15.6278 47.0018C14.4203 47.0018 13.2128 47.0018 12.0052 47.0018C12.0052 46.6683 12.0052 46.3349 12.0052 46.0015C14.8609 46.0015 17.7166 46.0015 20.5699 46.0015C20.7628 46.0015 20.9557 46.0015 21.151 46.0015C21.1487 46.3349 21.1487 46.6683 21.1487 47.0018Z" fill="#FE4B55"/>
<path d="M15.6255 46.9999C15.6445 46.5045 15.9613 46.1973 16.3019 46.0925C16.8783 45.9162 17.4785 46.333 17.519 46.938C17.5213 46.9594 17.5213 46.9785 17.5237 46.9999C17.4856 47.4691 17.2284 47.8026 16.8283 47.9097C16.2328 48.0693 15.6612 47.6525 15.6279 47.0356C15.6303 47.0237 15.6279 47.0118 15.6255 46.9999ZM16.5377 46.2116C16.4901 46.2187 16.4424 46.2282 16.3829 46.2378C16.4091 46.2878 16.4257 46.3187 16.4424 46.3497C16.4043 46.4093 16.3543 46.464 16.4091 46.5426C16.4234 46.5617 16.4043 46.6141 16.3876 46.6427C16.3662 46.6831 16.3281 46.7165 16.3019 46.757C16.2162 46.8999 16.2447 47.0333 16.3781 47.1309C16.4043 47.15 16.4329 47.169 16.4615 47.1809C16.5734 47.2262 16.6115 47.3048 16.5853 47.4143C16.4781 47.4763 16.3019 47.3381 16.2424 47.5501C16.29 47.5453 16.3424 47.5572 16.3591 47.5382C16.4281 47.4548 16.5139 47.4929 16.5996 47.481C16.6044 47.5668 16.6068 47.6382 16.6115 47.7121C16.5472 47.7263 16.4948 47.7382 16.44 47.7525C16.4424 47.7644 16.4424 47.774 16.4448 47.7859C16.5377 47.7811 16.633 47.7764 16.7258 47.7716C16.5996 47.6882 16.683 47.5787 16.6568 47.481C16.6925 47.481 16.7116 47.481 16.733 47.481C16.8235 47.4786 16.8378 47.4572 16.7925 47.3762C16.7759 47.3476 16.7639 47.3167 16.7449 47.2762C16.8187 47.2857 16.8735 47.2905 16.9307 47.2976C16.9497 47.3191 16.9688 47.3405 16.9997 47.3738C16.9735 47.4072 16.9378 47.4548 16.9045 47.4953C16.945 47.5144 16.9831 47.531 17.0283 47.5525C17.2189 47.412 17.2284 47.1976 17.0331 47.0428C16.9854 47.0047 16.9283 46.9761 16.8759 46.9404C16.7997 46.9046 16.7235 46.8713 16.6449 46.8356C16.6115 46.8284 16.5782 46.8213 16.5448 46.8141C16.5282 46.7165 16.5544 46.6355 16.621 46.5569C16.652 46.5188 16.6544 46.4569 16.6687 46.4069C16.7616 46.3807 16.7377 46.333 16.6949 46.2806C16.6592 46.2259 16.6068 46.1997 16.5377 46.2116Z" fill="#F3F2F2"/>
<path d="M16.9325 47.2991C16.8777 47.2919 16.8206 47.2848 16.7467 47.2776C16.7658 47.3181 16.7777 47.3491 16.7944 47.3777C16.8372 47.4587 16.8253 47.4801 16.7348 47.4825C16.7134 47.4825 16.6943 47.4825 16.6586 47.4825C16.6848 47.5777 16.5991 47.6873 16.7277 47.773C16.6348 47.7778 16.5395 47.7826 16.4466 47.7873C16.4443 47.7754 16.4443 47.7659 16.4419 47.754C16.4967 47.7421 16.5514 47.7278 16.6134 47.7135C16.6086 47.6397 16.6062 47.5682 16.6015 47.4825C16.5157 47.4944 16.43 47.4539 16.3609 47.5396C16.3442 47.5587 16.2918 47.5492 16.2442 47.5515C16.3037 47.3419 16.4824 47.4777 16.5872 47.4158C16.6134 47.3062 16.5753 47.2276 16.4633 47.1824C16.4324 47.1705 16.4062 47.1514 16.38 47.1324C16.2442 47.0347 16.218 46.9013 16.3037 46.7584C16.3276 46.7179 16.3657 46.687 16.3895 46.6441C16.4062 46.6155 16.4228 46.5631 16.4109 46.5441C16.3561 46.4631 16.4062 46.4107 16.4443 46.3512C16.4728 46.3392 16.499 46.3273 16.5276 46.3154C16.561 46.325 16.5943 46.3345 16.6277 46.344C16.6419 46.3654 16.6586 46.3893 16.6729 46.4107C16.6586 46.4607 16.6562 46.5226 16.6253 46.5607C16.561 46.6393 16.5324 46.7203 16.5491 46.818C16.4919 46.8966 16.4824 46.9799 16.5491 47.0299C16.6586 47.1085 16.7825 47.1681 16.9016 47.2348C16.9111 47.2562 16.923 47.2776 16.9325 47.2991Z" fill="#4C4B5A"/>
<path d="M16.9327 47.2984C16.9208 47.277 16.9112 47.2555 16.8993 47.2317C16.8493 47.1722 16.7993 47.1126 16.7493 47.0531C16.7707 47.0174 16.7921 46.9817 16.816 46.9412C16.8302 46.9412 16.8541 46.9412 16.8755 46.9412C16.9279 46.9745 16.9851 47.0031 17.0327 47.0436C17.228 47.1984 17.2208 47.4127 17.0279 47.5533C16.9827 47.5318 16.947 47.5152 16.9041 47.4961C16.935 47.4532 16.9731 47.4056 16.9993 47.3746C16.9731 47.3413 16.9517 47.3199 16.9327 47.2984Z" fill="#FC515B"/>
<path d="M16.7492 47.0563C16.7992 47.1158 16.8492 47.1754 16.8993 47.2349C16.7802 47.1682 16.6563 47.1111 16.5468 47.0301C16.4801 46.9801 16.4896 46.8991 16.5468 46.8181C16.5801 46.8253 16.6134 46.8324 16.6468 46.8396C16.6206 46.942 16.6516 47.0134 16.7492 47.0563Z" fill="#6B6F7E"/>
<path d="M16.7491 47.0559C16.6514 47.013 16.6181 46.9416 16.6466 46.8416C16.7229 46.8773 16.7991 46.9106 16.8777 46.9463C16.8539 46.9463 16.83 46.9463 16.8181 46.9463C16.7919 46.9845 16.7705 47.0202 16.7491 47.0559Z" fill="#F9EDF1"/>
<path d="M16.6255 46.3438C16.5921 46.3342 16.5588 46.3247 16.5255 46.3152C16.5302 46.2818 16.5326 46.2461 16.5374 46.2128C16.6064 46.2009 16.6588 46.2271 16.6969 46.2842C16.6731 46.3033 16.6493 46.3247 16.6255 46.3438Z" fill="#FAD35F"/>
<path d="M16.5373 46.2135C16.5326 46.2468 16.5302 46.2826 16.5254 46.3159C16.4968 46.3278 16.4706 46.3397 16.4421 46.3516C16.4254 46.3207 16.4111 46.2897 16.3825 46.2397C16.4421 46.2302 16.4897 46.2206 16.5373 46.2135Z" fill="#FB565D"/>
<path d="M16.6251 46.3434C16.6489 46.3243 16.6727 46.3052 16.6965 46.2838C16.7394 46.3362 16.7632 46.3862 16.6703 46.41C16.656 46.3886 16.6417 46.3648 16.6251 46.3434Z" fill="#FD535C"/>
<path d="M12.0048 26.5528C12.0214 26.5123 12.0381 26.4718 12.0524 26.4337C12.1573 26.1692 12.4098 26 12.7125 26C13.5941 26 14.4734 26 15.355 26C15.6195 26 15.884 26.0024 16.1485 26.0024C16.2319 26.0405 16.2677 26.1048 16.2629 26.2002C16.2581 26.2883 16.2653 26.3765 16.2677 26.4647C16.2677 26.6195 16.2677 26.772 16.2677 26.9269C16.2677 27.0818 16.2677 27.2367 16.2677 27.3892C16.2677 27.5417 16.2677 27.6918 16.2677 27.8443C16.2677 27.9992 16.2677 28.1517 16.2677 28.3066C16.2677 28.4591 16.2677 28.614 16.2677 28.7665C16.2653 28.8523 16.2581 28.938 16.2629 29.0238C16.2677 29.1168 16.2367 29.1859 16.1509 29.2264C16.1295 29.2264 16.1104 29.2288 16.089 29.2288C14.7903 29.2288 13.4917 29.2288 12.193 29.2311C12.1048 29.2311 12.0477 29.193 12.0048 29.1239C12.0048 28.2685 12.0048 27.4106 12.0048 26.5528ZM13.3797 26.6863C13.3558 26.5981 13.3725 26.5314 13.4607 26.4932C13.4488 26.4861 13.282 26.3598 13.2701 26.3527C13.2701 26.4599 13.1938 26.4742 13.0913 26.4742C13.1414 26.5171 13.17 26.5409 13.1986 26.5647C13.189 26.6052 13.1819 26.641 13.1676 26.6958C13.2176 26.6672 13.2486 26.6481 13.2843 26.6267C13.3153 26.6458 13.3487 26.6672 13.3797 26.6863ZM13.7085 26.6172C13.6894 26.722 13.6275 26.7554 13.5274 26.753C13.6418 26.7983 13.6251 26.8745 13.5917 26.9674C13.6442 26.9365 13.6799 26.915 13.7109 26.8959C13.7442 26.9174 13.7752 26.9365 13.8253 26.9674C13.811 26.9079 13.8014 26.8721 13.7943 26.8364C13.8253 26.8102 13.8538 26.784 13.8824 26.7577C13.78 26.7601 13.7323 26.7149 13.7085 26.6172ZM13.7085 28.2637C13.6894 28.3685 13.6251 28.3948 13.5298 28.3948C13.6251 28.4424 13.6322 28.5139 13.5822 28.6164C13.6442 28.5782 13.6775 28.5592 13.7085 28.5377C13.7442 28.5568 13.7752 28.5759 13.8253 28.6044C13.811 28.5449 13.8014 28.5091 13.7943 28.4734C13.8253 28.4472 13.8538 28.4234 13.8824 28.3995C13.7895 28.3948 13.7276 28.3662 13.7085 28.2637ZM15.9198 28.2113C15.9507 28.1827 15.9793 28.1589 16.0079 28.135C15.9174 28.1303 15.8554 28.0969 15.834 27.9921C15.8149 28.0969 15.753 28.1303 15.6553 28.1279C15.753 28.1755 15.7577 28.2446 15.7053 28.3471C15.7697 28.309 15.8054 28.2899 15.8364 28.2732C15.8721 28.2947 15.9031 28.3137 15.9531 28.3447C15.9388 28.2828 15.9293 28.2494 15.9198 28.2113ZM15.9317 26.6839C15.9436 26.6815 15.9555 26.6815 15.9674 26.6791C15.8793 26.5814 15.9507 26.5338 16.0127 26.4742C15.9126 26.4885 15.8602 26.4408 15.834 26.3479C15.8197 26.4551 15.7506 26.4766 15.6434 26.4718C15.6934 26.5171 15.7339 26.5361 15.7458 26.5671C15.7554 26.5981 15.7363 26.6386 15.7268 26.6886C15.772 26.6624 15.8054 26.6434 15.8388 26.6243C15.8674 26.6458 15.9007 26.6648 15.9317 26.6839ZM15.2907 26.9627C15.3407 26.9365 15.3765 26.9174 15.4122 26.8983C15.4456 26.9174 15.4789 26.9388 15.5266 26.9674C15.5123 26.9079 15.5028 26.8721 15.4932 26.8364C15.5242 26.8102 15.5528 26.784 15.5814 26.7601C15.4861 26.7601 15.4337 26.7149 15.4027 26.61C15.4075 26.7411 15.3169 26.7387 15.2216 26.7458C15.2693 26.7863 15.2979 26.8102 15.3264 26.834C15.3169 26.8721 15.3074 26.9079 15.2907 26.9627ZM13.2843 28.2708C13.3201 28.2923 13.3535 28.3114 13.3844 28.328C13.3963 28.328 13.4083 28.328 13.4178 28.328C13.3272 28.2303 13.4011 28.1779 13.4559 28.1136C13.3487 28.1398 13.3106 28.0778 13.282 27.9873C13.2677 28.0945 13.2009 28.1231 13.089 28.1088C13.1414 28.1541 13.17 28.1803 13.2009 28.2065C13.1914 28.2423 13.1819 28.278 13.1652 28.34C13.2176 28.3114 13.2486 28.2923 13.2843 28.2708ZM15.081 26.6839C15.0524 26.5933 15.0834 26.5314 15.162 26.479C15.0596 26.4885 15.0119 26.4408 14.9809 26.3431C14.9809 26.4694 14.8951 26.4718 14.7998 26.4861C14.9261 26.5195 14.8975 26.6005 14.8809 26.6886C14.9261 26.6624 14.9595 26.6434 14.9905 26.6267C15.0191 26.6481 15.05 26.6672 15.081 26.6839ZM12.8554 26.6148C12.8554 26.7411 12.7649 26.7387 12.6791 26.753C12.7744 26.7983 12.784 26.865 12.7387 26.9651C12.7982 26.9317 12.8292 26.915 12.8602 26.8983C12.8959 26.9198 12.9269 26.9365 12.9579 26.9555C12.9222 26.8626 12.9603 26.803 13.0318 26.7482C12.9365 26.753 12.8793 26.722 12.8554 26.6148ZM12.7434 28.6068C12.7982 28.5759 12.8316 28.5568 12.8626 28.5425C12.8983 28.5639 12.9293 28.5806 12.9603 28.5973C12.9698 28.5949 12.9793 28.5949 12.9889 28.5925C12.9007 28.4972 12.9793 28.4496 13.0294 28.3852C12.9222 28.4114 12.8864 28.3471 12.8554 28.2589C12.8483 28.3757 12.7673 28.3852 12.6743 28.3995C12.7816 28.4376 12.7768 28.5091 12.7434 28.6068ZM15.5814 28.4019C15.5838 28.3948 15.5838 28.3852 15.5862 28.3781C15.4813 28.4091 15.4408 28.3447 15.4003 28.2661C15.3979 28.3828 15.3169 28.3852 15.224 28.3876C15.2693 28.4281 15.2979 28.4519 15.3264 28.4782C15.3169 28.5163 15.3098 28.552 15.2955 28.6068C15.3479 28.5782 15.3813 28.5568 15.4122 28.5377C15.448 28.5592 15.4789 28.5806 15.5266 28.6116C15.5123 28.552 15.5028 28.5139 15.4932 28.4758C15.5266 28.4496 15.5528 28.4257 15.5814 28.4019ZM15.1644 28.1231C15.0596 28.1326 15.0071 28.0874 14.9809 27.9897C14.969 28.1017 14.8999 28.1231 14.8046 28.1231C14.8975 28.1684 14.9094 28.2375 14.8666 28.3376C14.9237 28.3042 14.9523 28.2875 14.9857 28.2685C15.0191 28.2875 15.0524 28.3066 15.0834 28.3257C15.0572 28.2423 15.0715 28.1755 15.1644 28.1231ZM12.5814 26.4742C12.5004 26.4932 12.4623 26.4337 12.4265 26.3479C12.4218 26.4623 12.3479 26.4766 12.255 26.4837C12.3527 26.529 12.355 26.5981 12.3098 26.6982C12.3693 26.6624 12.4027 26.6434 12.4337 26.6267C12.467 26.6481 12.498 26.6648 12.5147 26.6743C12.5385 26.6076 12.5576 26.5457 12.5814 26.4742ZM14.5568 26.8959C14.5878 26.915 14.6235 26.9341 14.6569 26.9531C14.6211 26.8626 14.6569 26.8006 14.7331 26.7482C14.6307 26.7601 14.5854 26.7077 14.552 26.6172C14.5449 26.7315 14.471 26.7434 14.3805 26.753C14.471 26.7983 14.4853 26.865 14.44 26.9531C14.4472 26.9531 14.4567 26.9531 14.4639 26.9555C14.4948 26.9365 14.5234 26.9174 14.5568 26.8959ZM14.6569 28.5973C14.6211 28.5068 14.6569 28.4472 14.7379 28.3876C14.6259 28.4114 14.5901 28.3471 14.552 28.2613C14.5496 28.3757 14.471 28.3852 14.3852 28.3995C14.4114 28.4329 14.4543 28.4519 14.4662 28.4805C14.4782 28.5091 14.4567 28.552 14.4496 28.6044C14.4972 28.5759 14.5282 28.5568 14.5592 28.5401C14.5949 28.5592 14.6259 28.5782 14.6569 28.5973ZM14.3114 26.4766C14.2041 26.498 14.1636 26.4337 14.1279 26.3503C14.1255 26.467 14.0445 26.4742 13.9611 26.4837C14.0492 26.5338 14.0588 26.5981 14.0135 26.6982C14.0707 26.6672 14.1064 26.6481 14.1374 26.6291C14.1708 26.6481 14.1994 26.6672 14.2303 26.6839C14.197 26.5933 14.228 26.5314 14.3114 26.4766ZM12.2573 28.1255C12.3431 28.1755 12.367 28.2399 12.336 28.3304C12.367 28.3114 12.4003 28.2923 12.4337 28.2732C12.4646 28.2923 12.498 28.3114 12.529 28.3304C12.498 28.2423 12.5242 28.1779 12.61 28.1231C12.5004 28.1398 12.4575 28.0874 12.4313 27.9992C12.4098 28.0874 12.3598 28.1326 12.2573 28.1255ZM15.5242 28.0588C15.4766 27.9635 15.5028 27.8991 15.5909 27.8396C15.467 27.8777 15.4432 27.7943 15.4051 27.7156C15.3908 27.8205 15.3312 27.8515 15.2287 27.8515C15.3503 27.892 15.3193 27.973 15.2907 28.0802C15.3765 27.9921 15.4456 27.9825 15.5242 28.0588ZM14.135 28.2732C14.1708 28.2923 14.2017 28.3114 14.2327 28.328C14.1922 28.2303 14.2423 28.1779 14.3137 28.1207C14.2065 28.1398 14.1612 28.085 14.1303 27.9944C14.1207 28.1041 14.0492 28.1231 13.9563 28.1279C14.0564 28.1755 14.0564 28.2446 14.0111 28.3471C14.0683 28.3114 14.0993 28.2923 14.135 28.2732ZM13.4607 27.5774C13.3463 27.6013 13.3129 27.5322 13.2796 27.4464C13.2653 27.5512 13.2033 27.5846 13.1009 27.5822C13.2224 27.6227 13.1914 27.7037 13.1652 27.8086C13.2486 27.7204 13.3177 27.7156 13.394 27.7895C13.3677 27.7014 13.3582 27.6275 13.4607 27.5774ZM12.3241 27.2343C12.4003 27.1676 12.467 27.17 12.5457 27.2391C12.4909 27.139 12.5409 27.0818 12.61 27.0222C12.5028 27.0485 12.4623 26.9865 12.4313 26.9031C12.4122 27.0008 12.355 27.0365 12.2597 27.0246C12.3288 27.0818 12.3741 27.139 12.3241 27.2343ZM13.1724 27.2272C13.1747 27.2367 13.1771 27.2462 13.1795 27.2558C13.2486 27.1533 13.3177 27.1843 13.3987 27.2391C13.3463 27.1461 13.3844 27.0842 13.4654 27.0199C13.3415 27.0651 13.3177 26.9793 13.2796 26.9031C13.2677 27.0127 13.1986 27.0294 13.0961 27.0222C13.1438 27.0651 13.1747 27.0913 13.2009 27.1152C13.1914 27.1557 13.1819 27.1914 13.1724 27.2272ZM13.9587 27.0389C14.0683 27.0747 14.0492 27.1533 14.0278 27.2367C14.1017 27.17 14.1684 27.1652 14.2446 27.2367C14.1922 27.1366 14.2399 27.0794 14.3114 27.0222C14.2065 27.0413 14.1565 26.996 14.1446 26.8983C14.0707 27.0103 14.0707 27.0103 13.9587 27.0389ZM16.0103 27.5774C15.9031 27.5965 15.8602 27.5369 15.8292 27.4416C15.8268 27.5608 15.753 27.5774 15.66 27.5846C15.7625 27.6299 15.753 27.7037 15.7244 27.7895C15.8006 27.7204 15.8697 27.718 15.9507 27.7895C15.8936 27.6918 15.9269 27.6322 16.0103 27.5774ZM12.3264 28.8785C12.4003 28.8141 12.467 28.8118 12.5504 28.8856C12.4742 28.7784 12.5457 28.7284 12.6076 28.6664C12.5004 28.6902 12.4599 28.633 12.4241 28.5401C12.4289 28.6688 12.3384 28.664 12.255 28.6759C12.3431 28.7236 12.3622 28.7855 12.3264 28.8785ZM13.4011 28.8809C13.3249 28.776 13.3963 28.7284 13.4583 28.6664C13.3582 28.6855 13.3082 28.6354 13.282 28.5401C13.2677 28.6521 13.2009 28.6736 13.089 28.6616C13.1461 28.7093 13.1747 28.7331 13.2033 28.7569C13.1938 28.7951 13.1819 28.8308 13.1724 28.8666C13.1747 28.8761 13.1771 28.8856 13.1795 28.8928C13.2486 28.8046 13.3177 28.8165 13.4011 28.8809ZM15.8888 28.6593C15.8721 28.6235 15.8554 28.5878 15.8388 28.5544C15.8316 28.5496 15.8221 28.5449 15.8149 28.5401C15.8245 28.664 15.7482 28.6688 15.6386 28.6688C15.6886 28.7117 15.7315 28.7307 15.7411 28.7593C15.7506 28.7927 15.7315 28.8356 15.7196 28.9047C15.8006 28.8094 15.8697 28.8165 15.946 28.8832C15.8959 28.7855 15.9317 28.7236 16.0341 28.6688C15.965 28.664 15.9269 28.6616 15.8888 28.6593ZM15.4098 27.444C15.4432 27.4631 15.4789 27.4845 15.5123 27.5036C15.4718 27.4083 15.5195 27.3511 15.5886 27.2867C15.467 27.3296 15.4432 27.2486 15.4122 27.1581C15.3884 27.2105 15.3741 27.2462 15.3598 27.282C15.3193 27.2867 15.2812 27.2891 15.2264 27.2939C15.2693 27.332 15.2979 27.3558 15.3264 27.382C15.3169 27.4202 15.3074 27.4583 15.2955 27.5131C15.3455 27.4845 15.3765 27.4631 15.4098 27.444ZM14.4782 27.4917C14.5282 27.4345 14.5949 27.4392 14.6735 27.506C14.6187 27.4059 14.6688 27.3487 14.7403 27.282C14.6164 27.3296 14.5949 27.2438 14.552 27.1676C14.5449 27.2796 14.471 27.2939 14.4138 27.2915C14.4353 27.3606 14.4543 27.4226 14.4782 27.4917ZM13.7919 27.3844C13.8229 27.3582 13.8515 27.332 13.8801 27.3058C13.8824 27.2963 13.8848 27.2844 13.8872 27.2748C13.7704 27.3249 13.7371 27.2558 13.7037 27.17C13.687 27.2724 13.6251 27.301 13.5226 27.301C13.6394 27.3415 13.6203 27.4202 13.5965 27.5155C13.6704 27.413 13.7419 27.4535 13.8276 27.5226C13.8133 27.4559 13.8038 27.4202 13.7919 27.3844ZM16.0079 27.0389C16.0079 27.0294 16.0079 27.0222 16.0079 27.0127C15.9055 27.0437 15.8602 26.996 15.8316 26.8912C15.8292 27.0175 15.7506 27.0246 15.6577 27.0318C15.7577 27.0794 15.7577 27.1485 15.7244 27.2367C15.8006 27.1771 15.8697 27.1604 15.946 27.2248C15.9365 27.1867 15.9293 27.1485 15.9198 27.1104C15.9507 27.0866 15.9793 27.0627 16.0079 27.0389ZM14.8189 27.0222C14.8141 27.0294 14.807 27.0342 14.8022 27.0413C14.9023 27.077 14.9094 27.1461 14.8689 27.2343C14.9833 27.1867 14.9833 27.1867 15.1215 27.2438C15.0334 27.1414 15.0905 27.0842 15.1573 27.0222C15.0477 27.0485 15.0095 26.9865 14.9881 26.8817C14.9619 26.9436 14.9476 26.977 14.9309 27.0127C14.8928 27.0175 14.857 27.0199 14.8189 27.0222ZM15.0929 28.8809C15.05 28.7879 15.081 28.726 15.1596 28.6664C15.0477 28.6926 15.0119 28.6283 14.9809 28.5425C14.969 28.6569 14.8975 28.6736 14.8046 28.6759C14.9071 28.7212 14.9071 28.7927 14.8785 28.8809C14.9523 28.8213 15.0167 28.807 15.0929 28.8809ZM12.9722 27.5036C12.9055 27.4059 12.9698 27.3535 13.0508 27.282C12.9293 27.3082 12.884 27.2581 12.8531 27.1652C12.8459 27.282 12.7697 27.2939 12.6767 27.301C12.7768 27.3415 12.7744 27.4178 12.753 27.5036C12.8292 27.4297 12.8936 27.4464 12.9722 27.5036ZM13.5369 27.8562C13.637 27.8967 13.6275 27.9706 13.5989 28.0588C13.6751 27.9873 13.7442 27.9873 13.8229 28.0588C13.7752 27.9611 13.8086 27.8991 13.8896 27.8443C13.78 27.8658 13.7371 27.8133 13.7204 27.718C13.6418 27.83 13.6418 27.83 13.5369 27.8562ZM14.2423 28.8785C14.1874 28.7808 14.2446 28.7236 14.3114 28.664C14.2041 28.6902 14.1636 28.6307 14.1326 28.5449C14.1112 28.6378 14.0588 28.6783 13.9587 28.6712C14.0516 28.7212 14.0564 28.7903 14.0254 28.8785C14.1017 28.8189 14.1636 28.807 14.2423 28.8785ZM14.6712 28.054C14.6283 27.9635 14.6545 27.8991 14.7355 27.8396C14.6164 27.8753 14.5949 27.7895 14.5568 27.718C14.5377 27.8157 14.4853 27.8562 14.3828 27.8443C14.4734 27.8944 14.4877 27.9635 14.4519 28.0588C14.5258 27.973 14.5949 27.9944 14.6712 28.054ZM15.1596 27.5751C15.0453 27.6037 15.0167 27.5274 14.9905 27.4464C14.9285 27.5584 14.9285 27.5584 14.7998 27.5846C14.8951 27.6299 14.9166 27.6942 14.8737 27.7943C14.9523 27.7014 15.0214 27.7299 15.0977 27.7871C15.0643 27.699 15.0643 27.6299 15.1596 27.5751ZM12.6052 27.5751C12.4861 27.6108 12.467 27.5203 12.4289 27.4512C12.4146 27.5488 12.3574 27.5846 12.2597 27.5846C12.3574 27.6322 12.3527 27.7037 12.3264 27.7943C12.4003 27.7061 12.467 27.7276 12.5433 27.7871C12.5075 27.699 12.5171 27.6322 12.6052 27.5751ZM12.9674 28.054C12.9245 27.9635 12.9531 27.8991 13.0341 27.8372C12.9126 27.8801 12.8936 27.7895 12.8507 27.7204C12.8411 27.83 12.7697 27.8467 12.6791 27.8515C12.7816 27.8944 12.7744 27.9682 12.753 28.054C12.8292 27.9825 12.8936 27.9873 12.9674 28.054ZM14.2423 27.7895C14.1994 27.6942 14.2303 27.6299 14.3114 27.5727C14.2041 27.5965 14.1589 27.5417 14.1326 27.4512C14.1088 27.5417 14.0588 27.587 13.9611 27.5798C14.054 27.6299 14.0564 27.699 14.023 27.7871C14.0993 27.7252 14.166 27.7085 14.2423 27.7895Z" fill="#43489B"/>
<path d="M12.0048 29.1263C12.0477 29.1954 12.1048 29.236 12.193 29.2336C13.4917 29.2312 14.7903 29.2312 16.089 29.2312C16.1104 29.2312 16.1295 29.2288 16.1509 29.2288C16.189 29.2288 16.2272 29.2312 16.2677 29.2312C17.8975 29.2312 19.525 29.2312 21.1549 29.2312C21.1549 29.3861 21.1549 29.541 21.1549 29.6958C21.1263 29.6958 21.0953 29.6935 21.0667 29.6935C18.0762 29.6935 15.0858 29.6935 12.0953 29.6935C12.0667 29.6935 12.0357 29.6958 12.0071 29.6958C12.0048 29.5076 12.0048 29.317 12.0048 29.1263Z" fill="#F4F2F2"/>
<path d="M21.1549 30.6108C21.1549 30.7657 21.1549 30.9206 21.1549 31.0755C21.1168 31.0755 21.0786 31.0755 21.0381 31.0755C18.0643 31.0755 15.0929 31.0755 12.1191 31.0755C12.081 31.0755 12.0429 31.0755 12.0024 31.0755C12.0024 30.9206 12.0024 30.7657 12.0024 30.6108C12.031 30.6108 12.062 30.6132 12.0905 30.6132C15.081 30.6132 18.0715 30.6132 21.062 30.6132C21.0953 30.6132 21.1263 30.6108 21.1549 30.6108Z" fill="#FE4D57"/>
<path d="M12.0048 29.6982C12.0334 29.6982 12.0643 29.6958 12.0929 29.6958C15.0834 29.6958 18.0739 29.6958 21.0643 29.6958C21.0929 29.6958 21.1239 29.6982 21.1525 29.6982C21.1525 29.8531 21.1525 30.008 21.1525 30.1628C21.1168 30.1605 21.081 30.1557 21.0453 30.1557C18.0667 30.1557 15.0882 30.1557 12.1072 30.1557C12.0715 30.1557 12.0357 30.1605 12 30.1628C12.0048 30.008 12.0048 29.8531 12.0048 29.6982Z" fill="#FE4E58"/>
<path d="M12.0048 31.0754C12.0429 31.0754 12.081 31.0754 12.1215 31.0754C15.0953 31.0754 18.0667 31.0754 21.0405 31.0754C21.0786 31.0754 21.1168 31.0754 21.1573 31.0754C21.1573 31.2184 21.1573 31.3614 21.1573 31.5044C21.143 31.5163 21.1263 31.5282 21.112 31.5401C18.0929 31.5401 15.0715 31.5401 12.0524 31.5401C12.0381 31.5282 12.0214 31.5163 12.0071 31.5044C12.0048 31.3614 12.0048 31.2184 12.0048 31.0754Z" fill="#F4F3F3"/>
<path d="M12.0048 30.1628C12.0405 30.1604 12.0762 30.1556 12.112 30.1556C15.0905 30.1556 18.0691 30.1556 21.05 30.1556C21.0858 30.1556 21.1215 30.1604 21.1573 30.1628C21.1573 30.3129 21.1573 30.4606 21.1573 30.6084C21.1287 30.6084 21.0977 30.6108 21.0691 30.6108C18.0786 30.6108 15.0882 30.6108 12.0977 30.6108C12.0691 30.6108 12.0381 30.6084 12.0095 30.6084C12.0048 30.4606 12.0048 30.3129 12.0048 30.1628Z" fill="#F4F4F4"/>
<path d="M21.1549 29.2335C19.525 29.2335 17.8976 29.2335 16.2677 29.2335C16.2296 29.2335 16.1914 29.2311 16.1509 29.2311C16.2367 29.1906 16.2677 29.1215 16.2629 29.0286C16.2582 28.9428 16.2653 28.857 16.2677 28.7712C17.8976 28.7712 19.525 28.7712 21.1549 28.7712C21.1549 28.9237 21.1549 29.0786 21.1549 29.2335Z" fill="#FE4C56"/>
<path d="M16.2677 28.309C16.2677 28.1541 16.2677 28.0016 16.2677 27.8467C17.8737 27.8467 19.4798 27.8467 21.0858 27.8467C21.1096 27.8467 21.1335 27.842 21.1573 27.8396C21.1573 27.9945 21.1573 28.1494 21.1573 28.3043C21.1192 28.3043 21.081 28.3066 21.0405 28.3066C19.4488 28.309 17.8571 28.309 16.2677 28.309Z" fill="#FE4E58"/>
<path d="M16.2677 28.309C17.8571 28.309 19.4488 28.309 21.0382 28.309C21.0763 28.309 21.1144 28.3066 21.1549 28.3066C21.1549 28.4615 21.1549 28.6164 21.1549 28.7713C19.525 28.7713 17.8976 28.7713 16.2677 28.7713C16.2677 28.6164 16.2677 28.4615 16.2677 28.309Z" fill="#F4F2F2"/>
<path d="M16.2677 27.3892C16.2677 27.2343 16.2677 27.0794 16.2677 26.9269C16.4679 26.9269 16.6656 26.9269 16.8658 26.9269C18.2955 26.9269 19.7252 26.9269 21.1549 26.9293C21.1549 27.0841 21.1549 27.239 21.1549 27.3939C21.1335 27.3939 21.1144 27.3915 21.093 27.3915C19.4845 27.3892 17.8761 27.3892 16.2677 27.3892Z" fill="#FE4D57"/>
<path d="M21.1549 26.9293C19.7252 26.9293 18.2955 26.9293 16.8658 26.9269C16.6656 26.9269 16.4679 26.9269 16.2677 26.9269C16.2677 26.772 16.2677 26.6195 16.2677 26.4646C17.8809 26.4646 19.4965 26.4646 21.1096 26.4646C21.1239 26.4765 21.1406 26.4884 21.1549 26.5003C21.1549 26.6433 21.1549 26.7863 21.1549 26.9293Z" fill="#F4F3F3"/>
<path d="M16.2677 27.3892C17.8761 27.3892 19.4845 27.3892 21.093 27.3892C21.1144 27.3892 21.1335 27.3915 21.1549 27.3915C21.1549 27.5393 21.1549 27.6894 21.1549 27.8395C21.1311 27.8419 21.1073 27.8467 21.0834 27.8467C19.4774 27.8467 17.8714 27.8467 16.2653 27.8467C16.2677 27.6942 16.2677 27.5417 16.2677 27.3892Z" fill="#F4F4F4"/>
<path d="M12.05 31.5377C15.0691 31.5377 18.0882 31.5377 21.1096 31.5377C21.0429 31.7903 20.7808 31.9881 20.4853 32C20.4615 32 20.4377 32 20.4138 32C17.857 32 15.3002 32 12.7435 32C12.4599 32 12.2359 31.8928 12.0906 31.6426C12.0715 31.6116 12.0643 31.5735 12.05 31.5377Z" fill="#FE4C56"/>
<path d="M21.1096 26.4647C19.4965 26.4647 17.8809 26.4647 16.2677 26.4647C16.2653 26.3765 16.2582 26.2883 16.2629 26.2002C16.2677 26.1048 16.232 26.0429 16.1486 26.0024C16.4607 26.0024 16.7729 26 17.085 26C18.2002 26 19.3177 26 20.4329 26C20.7069 26 20.9214 26.1096 21.0644 26.3479C21.0834 26.386 21.0953 26.4265 21.1096 26.4647Z" fill="#FE4D56"/>
<path d="M13.3796 26.6863C13.3487 26.6672 13.3153 26.6458 13.2843 26.6267C13.251 26.6458 13.2176 26.6648 13.1676 26.6958C13.1795 26.641 13.189 26.6052 13.1985 26.5647C13.1723 26.5409 13.1437 26.5171 13.0913 26.4742C13.1938 26.4742 13.27 26.4599 13.27 26.3527C13.2819 26.3598 13.4487 26.4861 13.4606 26.4932C13.3725 26.5314 13.3582 26.5981 13.3796 26.6863Z" fill="#E8E8EE"/>
<path d="M13.7085 26.6172C13.7323 26.7149 13.78 26.7625 13.8824 26.7578C13.8539 26.784 13.8253 26.8102 13.7943 26.8364C13.8014 26.8722 13.811 26.9079 13.8253 26.9675C13.7752 26.9365 13.7442 26.9174 13.7109 26.896C13.6775 26.915 13.6442 26.9365 13.5917 26.9675C13.6251 26.8722 13.6418 26.7959 13.5274 26.753C13.6275 26.753 13.6894 26.7196 13.7085 26.6172Z" fill="#E8E8EE"/>
<path d="M13.7085 28.2637C13.7252 28.3661 13.7895 28.3947 13.8824 28.4019C13.8539 28.4257 13.8276 28.4495 13.7943 28.4757C13.8038 28.5091 13.811 28.5448 13.8253 28.6068C13.7752 28.5782 13.7419 28.5591 13.7085 28.5401C13.6775 28.5591 13.6442 28.5782 13.5822 28.6187C13.6346 28.5139 13.6275 28.4448 13.5298 28.3971C13.6251 28.3947 13.6894 28.3685 13.7085 28.2637Z" fill="#E8E8EE"/>
<path d="M15.9198 28.2112C15.9293 28.2494 15.9388 28.2827 15.9555 28.3423C15.9055 28.3113 15.8745 28.2922 15.8387 28.2708C15.8078 28.2899 15.772 28.3089 15.7077 28.3447C15.7601 28.2422 15.7554 28.1731 15.6577 28.1254C15.7554 28.1278 15.8173 28.0945 15.8364 27.9896C15.8554 28.0945 15.9174 28.1278 16.0103 28.1326C15.9793 28.1588 15.9507 28.1826 15.9198 28.2112Z" fill="#E9E9EF"/>
<path d="M15.9317 26.6839C15.9007 26.6649 15.8674 26.6458 15.8364 26.6268C15.803 26.6458 15.7697 26.6649 15.7244 26.6911C15.7339 26.641 15.753 26.6005 15.7435 26.5696C15.7315 26.5386 15.691 26.5171 15.641 26.4742C15.7482 26.479 15.8173 26.4576 15.8316 26.3503C15.8602 26.4433 15.9103 26.4909 16.0103 26.4766C15.9484 26.5362 15.8769 26.5839 15.9651 26.6816C15.9555 26.6816 15.9436 26.6839 15.9317 26.6839Z" fill="#E8E8EE"/>
<path d="M15.2907 26.9627C15.305 26.9079 15.3145 26.8745 15.3265 26.8364C15.2979 26.8126 15.2693 26.7888 15.2216 26.7482C15.3169 26.7387 15.4075 26.7435 15.4027 26.6124C15.4337 26.7149 15.4861 26.7602 15.5814 26.7625C15.5528 26.7864 15.5242 26.8126 15.4933 26.8388C15.5028 26.8745 15.5123 26.9103 15.5266 26.9699C15.4766 26.9413 15.4432 26.9198 15.4122 26.9008C15.3765 26.9174 15.3408 26.9365 15.2907 26.9627Z" fill="#E7E8EE"/>
<path d="M13.2844 28.2708C13.2486 28.2922 13.2177 28.3113 13.1652 28.3423C13.1819 28.2803 13.1915 28.2446 13.201 28.2088C13.17 28.1826 13.1414 28.1588 13.089 28.1111C13.201 28.1254 13.2677 28.0969 13.282 27.9896C13.3106 28.0802 13.3487 28.1397 13.4559 28.1159C13.4011 28.1803 13.3273 28.2327 13.4178 28.3304C13.4059 28.3304 13.394 28.3304 13.3845 28.3304C13.3511 28.3113 13.3201 28.2922 13.2844 28.2708Z" fill="#E7E8EE"/>
<path d="M15.081 26.6838C15.0501 26.6671 15.0215 26.6481 14.9881 26.629C14.9571 26.6457 14.9238 26.6648 14.8785 26.691C14.8952 26.6028 14.9262 26.5194 14.7975 26.4884C14.8928 26.4717 14.981 26.4717 14.9786 26.3455C15.0096 26.4432 15.0572 26.4908 15.1597 26.4813C15.081 26.5337 15.0524 26.5933 15.081 26.6838Z" fill="#E7E8EE"/>
<path d="M12.8555 26.6147C12.8793 26.7196 12.9365 26.753 13.0342 26.7482C12.9627 26.803 12.9246 26.8626 12.9603 26.9555C12.9293 26.9388 12.8984 26.9197 12.8626 26.8983C12.8316 26.915 12.7983 26.934 12.7411 26.965C12.7864 26.8673 12.7768 26.7982 12.6815 26.753C12.7649 26.7387 12.8555 26.741 12.8555 26.6147Z" fill="#E5E5EC"/>
<path d="M12.7434 28.6068C12.7792 28.5091 12.7839 28.4376 12.6767 28.3995C12.7696 28.3876 12.8483 28.3757 12.8578 28.2589C12.8888 28.3471 12.9245 28.409 13.0317 28.3852C12.9817 28.4519 12.9031 28.4996 12.9912 28.5925C12.9817 28.5949 12.9722 28.5949 12.9626 28.5973C12.9317 28.5806 12.9007 28.5615 12.8649 28.5425C12.8316 28.5591 12.7982 28.5758 12.7434 28.6068Z" fill="#E7E7ED"/>
<path d="M15.5814 28.4019C15.5528 28.4258 15.5266 28.4496 15.4956 28.4758C15.5052 28.5115 15.5147 28.5497 15.529 28.6116C15.4813 28.5806 15.4504 28.5616 15.4146 28.5378C15.3836 28.5568 15.3479 28.5759 15.2979 28.6069C15.3098 28.5521 15.3193 28.5163 15.3288 28.4782C15.3002 28.4544 15.2717 28.4281 15.2264 28.3876C15.3217 28.3853 15.4003 28.3829 15.4027 28.2661C15.4432 28.3447 15.4837 28.4091 15.5886 28.3781C15.5838 28.3876 15.5838 28.3948 15.5814 28.4019Z" fill="#E8E8EE"/>
<path d="M15.1644 28.1231C15.0715 28.1755 15.0572 28.2423 15.0834 28.328C15.0501 28.309 15.0191 28.2899 14.9857 28.2709C14.9547 28.2899 14.9238 28.3066 14.8666 28.34C14.9095 28.2399 14.8976 28.1708 14.8046 28.1255C14.8999 28.1231 14.969 28.1041 14.981 27.9921C15.0072 28.0898 15.0596 28.135 15.1644 28.1231Z" fill="#E9E9EF"/>
<path d="M12.5814 26.4742C12.5599 26.5433 12.5385 26.6052 12.5147 26.6744C12.498 26.6648 12.467 26.6458 12.4337 26.6267C12.4027 26.6458 12.3693 26.6648 12.3097 26.6982C12.355 26.5981 12.3503 26.529 12.2549 26.4837C12.3455 26.4766 12.4194 26.4623 12.4265 26.3479C12.4623 26.4337 12.5004 26.4956 12.5814 26.4742Z" fill="#E6E7ED"/>
<path d="M14.5568 26.896C14.5235 26.9174 14.4949 26.9365 14.4663 26.9556C14.4591 26.9556 14.4496 26.9556 14.4424 26.9532C14.4877 26.865 14.4734 26.7983 14.3829 26.753C14.4734 26.7435 14.5473 26.7316 14.5544 26.6172C14.5854 26.7077 14.6307 26.7602 14.7355 26.7482C14.6593 26.8007 14.6235 26.8602 14.6593 26.9532C14.6235 26.9341 14.5902 26.915 14.5568 26.896Z" fill="#E6E7ED"/>
<path d="M14.6569 28.5973C14.6259 28.5783 14.5926 28.5616 14.5592 28.5401C14.5282 28.5592 14.4972 28.5783 14.4496 28.6045C14.4591 28.5521 14.4782 28.5116 14.4663 28.4806C14.4544 28.4496 14.4115 28.4329 14.3853 28.3996C14.471 28.3853 14.5497 28.3757 14.5521 28.2614C14.5878 28.3471 14.6259 28.4115 14.7379 28.3876C14.6569 28.4472 14.6235 28.5068 14.6569 28.5973Z" fill="#E7E7ED"/>
<path d="M14.3113 26.4766C14.2279 26.5314 14.197 26.591 14.2279 26.6839C14.1993 26.6673 14.1684 26.6482 14.135 26.6291C14.1016 26.6482 14.0683 26.6673 14.0111 26.6982C14.0564 26.6005 14.0468 26.5338 13.9587 26.4838C14.0421 26.4742 14.1231 26.4671 14.1255 26.3503C14.1636 26.4337 14.2041 26.4981 14.3113 26.4766Z" fill="#E7E7ED"/>
<path d="M12.2573 28.1256C12.3574 28.1327 12.4098 28.0874 12.4337 27.9993C12.4599 28.0874 12.5051 28.1399 12.6124 28.1232C12.5242 28.178 12.5004 28.2423 12.5314 28.3305C12.5004 28.3114 12.467 28.2924 12.436 28.2733C12.4027 28.2924 12.3693 28.3114 12.3383 28.3305C12.3669 28.2399 12.3431 28.1756 12.2573 28.1256Z" fill="#E8E8EE"/>
<path d="M15.5242 28.0588C15.4456 27.9826 15.3765 27.9921 15.2907 28.0803C15.3169 27.973 15.3503 27.892 15.2288 27.8515C15.3312 27.8515 15.3932 27.8205 15.4051 27.7157C15.4432 27.7943 15.467 27.8801 15.591 27.8396C15.5004 27.8992 15.4766 27.9635 15.5242 28.0588Z" fill="#EBEBEF"/>
<path d="M14.135 28.2732C14.0993 28.2946 14.0683 28.3113 14.0111 28.347C14.0588 28.247 14.0564 28.1755 13.9563 28.1278C14.0492 28.1231 14.1183 28.1064 14.1302 27.9944C14.1612 28.0825 14.2089 28.1374 14.3137 28.1207C14.2399 28.1755 14.1922 28.2303 14.2327 28.328C14.1993 28.3089 14.1684 28.2922 14.135 28.2732Z" fill="#E7E8EE"/>
<path d="M13.4607 27.5775C13.3582 27.6299 13.3678 27.7014 13.394 27.7895C13.3177 27.7157 13.2486 27.7204 13.1652 27.8086C13.1914 27.7014 13.2224 27.6227 13.1009 27.5822C13.2034 27.5846 13.2653 27.5513 13.2796 27.4464C13.313 27.5322 13.3487 27.6013 13.4607 27.5775Z" fill="#EBEBF0"/>
<path d="M12.324 27.2343C12.3741 27.1366 12.3288 27.0818 12.2573 27.0246C12.3526 27.0341 12.4098 27.0008 12.4289 26.9031C12.4599 26.9865 12.5004 27.046 12.6076 27.0222C12.5385 27.0818 12.4885 27.139 12.5433 27.2391C12.4694 27.17 12.4003 27.17 12.324 27.2343Z" fill="#EBEBEF"/>
<path d="M13.1724 27.2271C13.1819 27.1914 13.1891 27.1557 13.201 27.1151C13.1724 27.0913 13.1438 27.0651 13.0961 27.0222C13.1986 27.0294 13.2677 27.0127 13.2796 26.9031C13.3201 26.9769 13.3416 27.0651 13.4655 27.0198C13.3845 27.0842 13.3463 27.1461 13.3988 27.2391C13.3201 27.1843 13.251 27.1533 13.1795 27.2557C13.1771 27.2438 13.1748 27.2367 13.1724 27.2271Z" fill="#EBEBF0"/>
<path d="M13.9587 27.0389C14.0707 27.0079 14.0707 27.0079 14.1445 26.8983C14.1565 26.996 14.2089 27.0413 14.3113 27.0222C14.2375 27.0794 14.1922 27.139 14.2446 27.2367C14.166 27.1652 14.0993 27.17 14.0278 27.2367C14.0468 27.1533 14.0683 27.077 13.9587 27.0389Z" fill="#ECECF0"/>
<path d="M16.0103 27.5774C15.9245 27.6322 15.8936 27.6918 15.9507 27.7919C15.8697 27.718 15.8006 27.7204 15.7244 27.7919C15.753 27.7037 15.7625 27.6322 15.66 27.5869C15.7506 27.5798 15.8268 27.5631 15.8292 27.444C15.8626 27.5369 15.9031 27.5965 16.0103 27.5774Z" fill="#EBEBF0"/>
<path d="M12.3264 28.8785C12.3622 28.7856 12.3431 28.7236 12.2573 28.676C12.3407 28.6665 12.4289 28.6688 12.4265 28.5402C12.4622 28.6331 12.5051 28.6903 12.61 28.6665C12.548 28.7284 12.4765 28.7784 12.5528 28.8857C12.467 28.8118 12.4003 28.8142 12.3264 28.8785Z" fill="#EBEBEF"/>
<path d="M13.4011 28.8808C13.3177 28.8165 13.2486 28.8046 13.1795 28.8951C13.1772 28.8856 13.1748 28.8761 13.1724 28.8689C13.1819 28.8332 13.1915 28.7974 13.2034 28.7593C13.1748 28.7355 13.1462 28.7117 13.089 28.664C13.201 28.6783 13.2701 28.6545 13.282 28.5425C13.3082 28.6378 13.3583 28.6855 13.4583 28.6688C13.3988 28.7283 13.3249 28.7784 13.4011 28.8808Z" fill="#ECECF0"/>
<path d="M15.8888 28.6593C15.9269 28.6617 15.9627 28.6641 16.0342 28.6688C15.9341 28.7236 15.8983 28.7856 15.946 28.8833C15.8697 28.8166 15.8006 28.8118 15.7196 28.9047C15.7315 28.8333 15.7506 28.7904 15.7411 28.7594C15.7315 28.7284 15.6887 28.7093 15.6386 28.6688C15.7482 28.6712 15.8245 28.6641 15.8149 28.5402C15.8221 28.5449 15.8316 28.5497 15.8388 28.5545C15.8578 28.5878 15.8721 28.6212 15.8888 28.6593Z" fill="#EBEBEF"/>
<path d="M15.4099 27.444C15.3765 27.4631 15.3455 27.4845 15.2955 27.5131C15.3098 27.4559 15.3169 27.4202 15.3265 27.3821C15.2979 27.3559 15.2693 27.332 15.2264 27.2939C15.2812 27.2891 15.3217 27.2844 15.3598 27.282C15.3741 27.2462 15.3908 27.2129 15.4122 27.1581C15.4432 27.2462 15.467 27.3273 15.5886 27.2868C15.5195 27.3511 15.4718 27.4083 15.5123 27.5036C15.4766 27.4845 15.4432 27.4631 15.4099 27.444Z" fill="#EBEBF0"/>
<path d="M14.4782 27.4917C14.4567 27.4226 14.4376 27.3606 14.4138 27.2915C14.471 27.2939 14.5449 27.2796 14.552 27.1676C14.5949 27.2439 14.6164 27.3296 14.7403 27.282C14.6688 27.3487 14.6164 27.4059 14.6735 27.506C14.5949 27.4392 14.5282 27.4369 14.4782 27.4917Z" fill="#EAEAEF"/>
<path d="M13.7919 27.3844C13.8014 27.4201 13.811 27.4559 13.83 27.5226C13.7442 27.4535 13.6751 27.413 13.5989 27.5154C13.6227 27.4201 13.6418 27.3415 13.525 27.301C13.6275 27.301 13.6871 27.2724 13.7061 27.1699C13.7395 27.2533 13.7728 27.3248 13.8896 27.2748C13.8872 27.2843 13.8848 27.2962 13.8825 27.3057C13.8539 27.332 13.8229 27.3558 13.7919 27.3844Z" fill="#EBEBF0"/>
<path d="M16.0079 27.0389C15.9793 27.0627 15.9531 27.0866 15.9221 27.1128C15.9317 27.1509 15.9388 27.189 15.9484 27.2272C15.8721 27.1628 15.803 27.1771 15.7268 27.2391C15.7601 27.1509 15.7601 27.0794 15.66 27.0341C15.7506 27.027 15.8316 27.0198 15.834 26.8936C15.8626 26.996 15.9102 27.0461 16.0103 27.0151C16.0079 27.0222 16.0079 27.0294 16.0079 27.0389Z" fill="#ECECF0"/>
<path d="M14.8189 27.0222C14.8571 27.0198 14.8928 27.0174 14.9309 27.0126C14.9452 26.9769 14.9619 26.9435 14.9881 26.8816C15.0119 26.9841 15.0501 27.046 15.1573 27.0222C15.0906 27.0841 15.0334 27.1413 15.1215 27.2438C14.9833 27.1842 14.9833 27.1842 14.869 27.2343C14.9095 27.1461 14.9023 27.077 14.8022 27.0412C14.807 27.0365 14.8142 27.0293 14.8189 27.0222Z" fill="#ECECF0"/>
<path d="M15.093 28.8809C15.0143 28.8047 14.95 28.8213 14.8761 28.8785C14.9047 28.7927 14.9047 28.7189 14.8022 28.6736C14.8952 28.6712 14.969 28.6522 14.9786 28.5402C15.0096 28.6259 15.0453 28.6927 15.1573 28.6641C15.0834 28.726 15.0501 28.7904 15.093 28.8809Z" fill="#ECECF0"/>
<path d="M12.9722 27.5036C12.8936 27.4464 12.8293 27.4297 12.7554 27.506C12.7768 27.4178 12.7792 27.3439 12.6791 27.3034C12.7697 27.2939 12.8483 27.2844 12.8555 27.1676C12.8864 27.2605 12.9317 27.3106 13.0532 27.2844C12.9698 27.3535 12.9055 27.4059 12.9722 27.5036Z" fill="#EBEBF0"/>
<path d="M13.5369 27.8563C13.6442 27.8301 13.6442 27.8301 13.7204 27.7157C13.7347 27.811 13.78 27.8634 13.8896 27.842C13.8086 27.8968 13.7752 27.9587 13.8229 28.0564C13.7442 27.9873 13.6751 27.9873 13.5989 28.0564C13.6275 27.9707 13.637 27.8968 13.5369 27.8563Z" fill="#EBECF0"/>
<path d="M14.2422 28.8785C14.1636 28.807 14.1016 28.8189 14.0278 28.8808C14.0588 28.7927 14.054 28.7236 13.9611 28.6735C14.0611 28.6807 14.1136 28.6378 14.135 28.5472C14.1636 28.633 14.2041 28.6902 14.3137 28.6664C14.2446 28.726 14.1874 28.7808 14.2422 28.8785Z" fill="#ECECF0"/>
<path d="M14.6712 28.0541C14.5949 27.9945 14.5282 27.9707 14.452 28.0612C14.4877 27.9659 14.4734 27.8968 14.3829 27.8467C14.4853 27.8587 14.5378 27.8158 14.5568 27.7205C14.5949 27.7919 14.6164 27.8777 14.7355 27.842C14.6545 27.8992 14.6283 27.9635 14.6712 28.0541Z" fill="#EBECF0"/>
<path d="M15.1597 27.575C15.062 27.6298 15.062 27.6989 15.0953 27.7847C15.0191 27.7275 14.95 27.6989 14.8714 27.7919C14.9142 27.6918 14.8928 27.6274 14.7975 27.5822C14.9262 27.556 14.9262 27.556 14.9881 27.444C15.0167 27.5274 15.0453 27.6036 15.1597 27.575Z" fill="#EBEBF0"/>
<path d="M12.6052 27.5751C12.5171 27.6323 12.5075 27.699 12.5433 27.7872C12.467 27.7276 12.4003 27.7061 12.3264 27.7943C12.355 27.7038 12.3598 27.6323 12.2597 27.5846C12.3574 27.587 12.4122 27.5489 12.4289 27.4512C12.4694 27.5203 12.4861 27.6084 12.6052 27.5751Z" fill="#EBEBF0"/>
<path d="M12.9675 28.0541C12.8912 27.9897 12.8269 27.985 12.753 28.0541C12.7721 27.9683 12.7792 27.892 12.6791 27.8515C12.7697 27.8467 12.8412 27.8301 12.8507 27.7205C12.8936 27.7896 12.9103 27.8801 13.0342 27.8372C12.9555 27.8992 12.9246 27.9635 12.9675 28.0541Z" fill="#EBECF0"/>
<path d="M14.2422 27.7895C14.166 27.7085 14.0969 27.7251 14.023 27.7895C14.0564 27.7013 14.054 27.6298 13.9611 27.5822C14.0588 27.5893 14.1088 27.544 14.1326 27.4535C14.1588 27.544 14.2041 27.5965 14.3113 27.575C14.2303 27.6274 14.2017 27.6918 14.2422 27.7895Z" fill="#EBEBEF"/>
<path d="M20.9778 37.4378C20.9778 37.8118 20.9778 38.1858 20.9778 38.5598C19.6712 38.5598 18.3647 38.5598 17.0511 38.5598C17.0511 38.6019 17.0511 38.6322 17.0511 38.665C17.0511 39.4059 17.0511 40.1492 17.0511 40.8901C17.0511 40.9252 17.0487 40.9602 17.0464 40.9953C16.6771 40.9953 16.3054 40.9953 15.9361 40.9953C15.9338 40.9602 15.9315 40.9252 15.9315 40.8901C15.9315 40.1445 15.9315 39.4012 15.9315 38.6556C15.9315 38.6252 15.9315 38.5948 15.9315 38.5598C14.6155 38.5598 13.3089 38.5598 12.0047 38.5598C12.0047 38.1858 12.0047 37.8118 12.0047 37.4378C13.3113 37.4378 14.6179 37.4378 15.9315 37.4378C15.9315 37.3958 15.9315 37.3654 15.9315 37.3327C15.9315 36.5917 15.9315 35.8484 15.9315 35.1075C15.9315 35.0724 15.9338 35.0374 15.9361 35.0023C16.3078 35.0023 16.6771 35.0023 17.0487 35.0023C17.0511 35.0374 17.0534 35.0724 17.0534 35.1075C17.0534 35.8531 17.0534 36.5964 17.0534 37.342C17.0534 37.3724 17.0534 37.4028 17.0534 37.4378C18.367 37.4378 19.6736 37.4378 20.9778 37.4378Z" fill="#D70027"/>
<path d="M20.9684 40.993C20.6529 40.993 20.3397 40.993 20.0241 40.993C20.0007 40.9766 19.9797 40.9556 19.954 40.9416C19.1546 40.4975 18.3529 40.051 17.5535 39.607C17.5302 39.5929 17.5044 39.5812 17.4741 39.5672C17.4694 39.5883 17.4671 39.5999 17.4671 39.6116C17.4671 40.0557 17.4671 40.4998 17.4671 40.9439C17.4671 40.9603 17.4717 40.979 17.4764 40.9953C17.3338 40.9953 17.1889 40.9953 17.0463 40.9953C17.0487 40.9603 17.051 40.9252 17.051 40.8902C17.051 40.1492 17.051 39.4059 17.051 38.665C17.051 38.6323 17.051 38.6019 17.051 38.5598C18.3646 38.5598 19.6712 38.5598 20.9778 38.5598C20.9778 38.7188 20.9778 38.8754 20.9778 39.0343C20.9427 39.0366 20.9076 39.039 20.8726 39.039C20.2579 39.039 19.6431 39.039 19.0261 39.039C18.998 39.039 18.97 39.039 18.9419 39.039C18.9396 39.046 18.9372 39.053 18.9349 39.0577C19.6151 39.4363 20.2953 39.8126 20.9754 40.1913C20.9754 40.2731 20.9754 40.3549 20.9754 40.4367C20.1597 39.9833 19.3439 39.5298 18.5259 39.0787C18.4791 39.053 18.423 39.039 18.3693 39.039C18.1005 39.0343 17.8317 39.0366 17.5629 39.0366C17.5395 39.0366 17.5161 39.039 17.4717 39.0413C17.5115 39.0647 17.5348 39.0787 17.5559 39.0904C18.3716 39.5438 19.1873 39.9973 20.0031 40.4507C20.328 40.6307 20.6482 40.813 20.9684 40.993Z" fill="#EEEEEE"/>
<path d="M15.5037 35.0023C15.6463 35.0023 15.7912 35.0023 15.9338 35.0023C15.9314 35.0374 15.9291 35.0724 15.9291 35.1075C15.9291 35.8484 15.9291 36.5917 15.9291 37.3327C15.9291 37.3654 15.9291 37.3958 15.9291 37.4378C14.6155 37.4378 13.3089 37.4378 12.0023 37.4378C12.0023 37.2789 12.0023 37.1223 12.0023 36.9634C12.0374 36.961 12.0724 36.9587 12.1075 36.9587C12.7199 36.9587 13.3346 36.9587 13.947 36.9587C13.9774 36.9587 14.0078 36.9587 14.0382 36.9587C14.0405 36.9517 14.0405 36.9447 14.0428 36.9377C13.3627 36.5613 12.6825 36.185 12.0023 35.8064C12.0023 35.7246 12.0023 35.6428 12.0023 35.5609C12.0187 35.568 12.035 35.575 12.0491 35.5843C12.8508 36.0284 13.6502 36.4749 14.4519 36.9166C14.4986 36.9423 14.5547 36.9564 14.6085 36.9564C14.8796 36.961 15.1507 36.9587 15.4242 36.9587C15.4452 36.9587 15.4663 36.9564 15.5084 36.9517C15.4686 36.9306 15.4499 36.919 15.4289 36.9073C14.6529 36.4772 13.8792 36.0471 13.1032 35.6147C12.7386 35.4137 12.3763 35.208 12.0117 35.0047C12.3272 35.0047 12.6404 35.0047 12.956 35.0047C12.9817 35.0234 13.0074 35.0444 13.0331 35.0584C13.8301 35.5025 14.6272 35.9443 15.4266 36.3884C15.4499 36.4024 15.4756 36.4141 15.5013 36.4258C15.5084 36.4141 15.513 36.4071 15.513 36.4024C15.513 35.9443 15.513 35.4862 15.513 35.028C15.5107 35.0187 15.506 35.0117 15.5037 35.0023Z" fill="#EEEEEE"/>
<path d="M12.4651 40.993C12.3225 40.9883 12.18 40.9837 12.0374 40.979C12.0608 40.9626 12.0841 40.9463 12.1098 40.9323C13.2107 40.3199 14.3116 39.7098 15.4125 39.0974C15.4382 39.0834 15.4639 39.067 15.5107 39.039C15.1765 39.039 14.8703 39.039 14.5641 39.0413C14.5313 39.0413 14.4963 39.0577 14.4682 39.0741C14.2368 39.2026 14.0031 39.3312 13.7717 39.4597C13.1827 39.7869 12.5937 40.1118 12.0047 40.4391C12.0047 40.2638 12.0047 40.0885 12.0047 39.9132C12.0187 39.9085 12.0327 39.9062 12.0444 39.8991C12.5376 39.6233 13.0308 39.3475 13.5239 39.0741C13.5356 39.067 13.545 39.0554 13.5637 39.0367C13.4281 39.0367 13.3066 39.0367 13.1827 39.0367C12.79 39.0343 12.395 39.0343 12.0023 39.032C12.0023 38.873 12.0023 38.7164 12.0023 38.5575C13.3066 38.5575 14.6131 38.5575 15.9291 38.5575C15.9291 38.5926 15.9291 38.6229 15.9291 38.6533C15.9291 39.3989 15.9291 40.1422 15.9291 40.8878C15.9291 40.9229 15.9314 40.958 15.9338 40.993C15.7912 40.993 15.6463 40.993 15.5037 40.993C15.506 40.9673 15.513 40.9416 15.513 40.9159C15.513 40.397 15.513 39.8781 15.513 39.3569C15.513 39.3382 15.5107 39.3195 15.5084 39.2914C15.485 39.3031 15.4686 39.3101 15.4546 39.3195C14.4799 39.8617 13.5029 40.404 12.5282 40.9463C12.5049 40.958 12.4862 40.9767 12.4651 40.993Z" fill="#EEEEEE"/>
<path d="M20.515 35.0047C20.6365 35.0047 20.7581 35.0023 20.8773 35.0023C20.8983 35.0023 20.9194 35.014 20.9427 35.021C20.9077 35.0421 20.875 35.0654 20.8399 35.0841C19.753 35.6872 18.6685 36.2902 17.5816 36.8932C17.5559 36.9073 17.5302 36.9236 17.5021 36.9377C17.5349 36.9564 17.5629 36.9587 17.591 36.9587C17.8154 36.9587 18.0421 36.954 18.2665 36.961C18.3997 36.9657 18.5142 36.9306 18.6288 36.8652C19.4094 36.4281 20.1924 35.9957 20.9755 35.5609C20.9755 35.7363 20.9755 35.9116 20.9755 36.0869C20.9591 36.0915 20.9427 36.0962 20.9264 36.1056C20.4355 36.3767 19.947 36.6502 19.4585 36.9213C19.4445 36.9283 19.4328 36.94 19.4071 36.9587C19.5473 36.9587 19.6689 36.9587 19.7904 36.9587C20.1854 36.961 20.5781 36.961 20.9731 36.9634C20.9731 37.1223 20.9731 37.2789 20.9731 37.4378C19.6689 37.4378 18.3623 37.4378 17.0464 37.4378C17.0464 37.4028 17.0464 37.3724 17.0464 37.342C17.0464 36.5964 17.0464 35.8531 17.0464 35.1075C17.0464 35.0724 17.044 35.0374 17.0417 35.0023C17.1843 35.0023 17.3292 35.0023 17.4718 35.0023C17.4694 35.028 17.4624 35.0537 17.4624 35.0795C17.4624 35.5983 17.4624 36.1172 17.4624 36.6385C17.4624 36.6572 17.4647 36.6759 17.4671 36.7039C17.4905 36.6922 17.5068 36.6852 17.5208 36.6759C18.4955 36.1336 19.4725 35.5913 20.4472 35.0491C20.4753 35.0374 20.494 35.0187 20.515 35.0047Z" fill="#EEEDEE"/>
<path d="M12.0117 35.0047C12.3763 35.208 12.7386 35.4137 13.1032 35.6147C13.8769 36.0471 14.6529 36.4772 15.4289 36.9073C15.4499 36.919 15.4686 36.9283 15.5084 36.9517C15.4663 36.9564 15.4452 36.9587 15.4242 36.9587C15.1531 36.9587 14.8819 36.961 14.6085 36.9564C14.5571 36.9564 14.4986 36.9423 14.4519 36.9166C13.6502 36.4749 12.8484 36.0284 12.0491 35.5843C12.0327 35.575 12.0187 35.568 12.0023 35.561C12.0023 35.374 12.0023 35.187 12.0023 35C12.0047 35.0023 12.0093 35.0023 12.0117 35.0047Z" fill="#D7032A"/>
<path d="M20.9685 40.9929C20.6482 40.813 20.328 40.633 20.0078 40.453C19.1921 39.9996 18.3763 39.5461 17.5606 39.0927C17.5372 39.081 17.5162 39.067 17.4764 39.0436C17.5185 39.0413 17.5442 39.0389 17.5676 39.0389C17.8364 39.0389 18.1052 39.0366 18.374 39.0413C18.4254 39.0413 18.4838 39.0553 18.5306 39.081C19.3487 39.5321 20.1644 39.9855 20.9801 40.439C20.9801 40.626 20.9801 40.813 20.9801 41C20.9755 40.9953 20.9708 40.9929 20.9685 40.9929Z" fill="#D7032A"/>
<path d="M20.9778 35.5609C20.1948 35.9957 19.4117 36.4258 18.6311 36.8652C18.5142 36.9306 18.402 36.9657 18.2688 36.961C18.0444 36.954 17.82 36.9587 17.5933 36.9587C17.5652 36.9587 17.5372 36.9563 17.5045 36.9376C17.5302 36.9236 17.5559 36.9073 17.5839 36.8932C18.6708 36.2902 19.7553 35.6872 20.8422 35.0841C20.8773 35.0654 20.91 35.0421 20.945 35.021C20.9567 35.021 20.9684 35.021 20.9801 35.0187C20.9778 35.1987 20.9778 35.381 20.9778 35.5609Z" fill="#D70329"/>
<path d="M12.0023 40.4344C12.5914 40.1095 13.1804 39.7823 13.7694 39.455C14.0008 39.3265 14.2322 39.1979 14.4659 39.0694C14.4963 39.053 14.5314 39.0366 14.5617 39.0366C14.8679 39.0343 15.1741 39.0343 15.5084 39.0343C15.4616 39.0624 15.4359 39.0787 15.4102 39.0927C14.3093 39.7051 13.2084 40.3152 12.1075 40.9276C12.0818 40.9416 12.0584 40.9579 12.0351 40.9743C12.0234 40.9743 12.0117 40.9743 12 40.9743C12.0023 40.7967 12.0023 40.6167 12.0023 40.4344Z" fill="#D70329"/>
<path d="M12.0023 35.8064C12.6825 36.1827 13.3627 36.5614 14.0405 36.9377C14.0382 36.9447 14.0382 36.9517 14.0358 36.9587C14.0055 36.9587 13.9751 36.9587 13.9447 36.9587C13.3323 36.9587 12.7176 36.9587 12.1052 36.9587C12.0701 36.9587 12.0351 36.9634 12 36.9634C12.0023 36.5777 12.0023 36.1921 12.0023 35.8064Z" fill="#0454B4"/>
<path d="M20.9778 40.189C20.2976 39.8103 19.6174 39.434 18.9373 39.0554C18.9396 39.0483 18.9419 39.0413 18.9443 39.0367C18.9723 39.0367 19.0004 39.0367 19.0284 39.0367C19.6431 39.0367 20.2579 39.0367 20.8749 39.0367C20.91 39.0367 20.945 39.0343 20.9801 39.032C20.9778 39.4176 20.9778 39.8033 20.9778 40.189Z" fill="#0454B4"/>
<path d="M20.9778 36.9634C20.5828 36.9611 20.1901 36.9611 19.7951 36.9587C19.6735 36.9587 19.552 36.9587 19.4117 36.9587C19.4375 36.9401 19.4491 36.9284 19.4632 36.9214C19.9517 36.6479 20.4425 36.3767 20.931 36.1056C20.9451 36.0963 20.9637 36.0939 20.9801 36.0869C20.9778 36.3791 20.9778 36.6713 20.9778 36.9634Z" fill="#0454B4"/>
<path d="M12.0023 39.032C12.395 39.0343 12.79 39.0343 13.1827 39.0367C13.3042 39.0367 13.4281 39.0367 13.5637 39.0367C13.545 39.053 13.5356 39.067 13.5239 39.0741C13.0308 39.3475 12.5376 39.6233 12.0421 39.8968C12.0304 39.9038 12.0163 39.9062 12.0023 39.9108C12.0023 39.6163 12.0023 39.3242 12.0023 39.032Z" fill="#0555B4"/>
<path d="M20.515 35.0047C20.494 35.0211 20.4753 35.0374 20.4519 35.0514C19.4772 35.5937 18.5002 36.136 17.5255 36.6782C17.5115 36.6876 17.4952 36.6946 17.4718 36.7063C17.4694 36.6782 17.4671 36.6596 17.4671 36.6409C17.4671 36.122 17.4671 35.6031 17.4671 35.0818C17.4671 35.0561 17.4718 35.0304 17.4765 35.0047C18.4885 35.0024 19.5029 35.0047 20.515 35.0047Z" fill="#0253B4"/>
<path d="M15.5037 35.0023C15.506 35.0117 15.5107 35.0187 15.5107 35.028C15.5107 35.4862 15.5107 35.9443 15.5107 36.4024C15.5107 36.4071 15.506 36.4117 15.499 36.4258C15.4733 36.4141 15.4499 36.4024 15.4242 36.3884C14.6272 35.9443 13.8278 35.5025 13.0307 35.0584C13.0027 35.0421 12.9793 35.0234 12.9536 35.0047C13.8044 35.0023 14.6552 35.0023 15.5037 35.0023Z" fill="#0353B4"/>
<path d="M12.4651 40.993C12.4862 40.9766 12.5049 40.9603 12.5283 40.9462C13.5029 40.404 14.4776 39.8617 15.4546 39.3194C15.4687 39.3101 15.485 39.3031 15.5084 39.2914C15.5107 39.3194 15.5131 39.3381 15.5131 39.3568C15.5131 39.8757 15.5131 40.3946 15.5131 40.9158C15.5131 40.9416 15.5084 40.9673 15.5037 40.993C14.4916 40.993 13.4772 40.993 12.4651 40.993Z" fill="#0253B4"/>
<path d="M17.4765 40.9929C17.4741 40.9766 17.4671 40.9579 17.4671 40.9415C17.4671 40.4974 17.4671 40.0533 17.4671 39.6092C17.4671 39.5975 17.4694 39.5882 17.4741 39.5648C17.5045 39.5812 17.5302 39.5929 17.5536 39.6046C18.3553 40.0487 19.1547 40.4928 19.9541 40.9392C19.9798 40.9532 20.0008 40.9719 20.0242 40.9906C19.1757 40.9929 18.3249 40.9929 17.4765 40.9929Z" fill="#0354B4"/>
</svg>
