<svg width="60" height="60" viewBox="0 0 60 60" fill="none" xmlns="http://www.w3.org/2000/svg">
<rect width="60" height="60" rx="4" fill="#1E62B9" fill-opacity="0.1"/>
<path d="M42.3094 23.6281C42.3094 29.4781 42.3094 35.3094 42.3094 41.1594C34.1063 41.1594 25.9219 41.1594 17.7094 41.1594C17.7094 35.3281 17.7094 29.4875 17.7094 23.6281C25.8938 23.6281 34.0782 23.6281 42.3094 23.6281ZM28.2469 37.1844C28.5469 37.175 28.6782 36.95 28.7719 36.6594C29.5032 34.5031 30.2438 32.3562 30.975 30.2C31.2469 29.4031 31.5188 28.6156 31.7813 27.8187C31.8844 27.5 31.7719 27.2281 31.4907 27.125C31.2094 27.0125 30.9375 27.125 30.7969 27.425C30.75 27.5187 30.7219 27.6219 30.6938 27.725C30.0657 29.5531 29.4375 31.3906 28.8094 33.2187C28.4438 34.2875 28.0782 35.3562 27.7219 36.4344C27.6 36.8375 27.8157 37.175 28.2469 37.1844ZM35.4657 32.1219C35.3625 32.2344 35.2875 32.3187 35.2032 32.3937C34.575 33.0219 33.9375 33.65 33.3188 34.2781C33.0469 34.5594 33.0375 34.85 33.2625 35.0844C33.4875 35.3094 33.8063 35.2906 34.0688 35.0281C34.8938 34.2125 35.7094 33.3969 36.525 32.5719C36.8344 32.2625 36.825 32 36.5157 31.6906C36.075 31.2406 35.625 30.8 35.175 30.35C34.7813 29.9656 34.4063 29.5625 34.0032 29.1875C33.7688 28.9625 33.4594 28.9719 33.2532 29.1781C33.0375 29.3937 33.0469 29.6844 33.2625 29.9281C33.3375 30.0125 33.4313 30.0969 33.5063 30.1812C34.1625 30.8187 34.8094 31.4656 35.4657 32.1219ZM24.525 32.1219C25.2375 31.4094 25.9313 30.725 26.625 30.0312C26.9438 29.7125 26.9813 29.4219 26.7375 29.1781C26.5032 28.9344 26.1938 28.9719 25.8844 29.2812C25.1063 30.0594 24.3282 30.8375 23.55 31.6156C23.1375 32.0281 23.1375 32.2437 23.5407 32.6469C24.2344 33.3406 24.9282 34.0344 25.6219 34.7375C25.7532 34.8687 25.875 35.0187 26.025 35.1312C26.2594 35.3094 26.5125 35.3094 26.7282 35.0937C26.9438 34.8875 26.9532 34.6344 26.775 34.4C26.7094 34.3062 26.6157 34.2312 26.5313 34.1469C25.875 33.4719 25.2188 32.8156 24.525 32.1219Z" fill="#1E62B9"/>
<path d="M45.6094 42.2562C45.6094 43.3812 45.6375 44.4875 45.6 45.5937C45.5719 46.2875 44.925 46.8219 44.1938 46.8687C44.1 46.8781 44.0063 46.8687 43.9125 46.8687C34.6313 46.8687 25.3594 46.8687 16.0781 46.8687C15.2156 46.8687 14.6531 46.4844 14.4469 45.7719C14.4281 45.6969 14.4 45.6125 14.4 45.5281C14.4 44.4406 14.4 43.3531 14.4 42.2469C24.7969 42.2562 35.1938 42.2562 45.6094 42.2562Z" fill="#1E62B9"/>
<path d="M17.6907 22.5312C17.6907 21.575 17.6625 20.6281 17.7 19.6812C17.7282 18.9781 18.3844 18.3875 19.0969 18.3312C19.2 18.3219 19.3032 18.3219 19.4157 18.3219C24.5438 18.3219 29.6813 18.3219 34.8094 18.3219C34.8938 18.3219 34.9688 18.3219 35.0719 18.3219C35.0719 19.7281 35.0719 21.1156 35.0719 22.5312C29.2875 22.5312 23.4938 22.5312 17.6907 22.5312ZM20.4 21.2281C20.55 21.2281 20.7094 21.2375 20.8594 21.2281C21.1594 21.2 21.3375 21.0312 21.3469 20.7312C21.3657 20.4312 21.1875 20.225 20.9063 20.1875C20.5875 20.15 20.25 20.15 19.9219 20.1875C19.6313 20.225 19.4625 20.4406 19.4813 20.7312C19.5 21.0219 19.6688 21.2 19.9782 21.2281C20.1188 21.2375 20.2594 21.2281 20.4 21.2281ZM26.25 21.2281C26.3907 21.2281 26.5313 21.2375 26.6719 21.2281C26.9813 21.2094 27.1875 21.0031 27.1875 20.7125C27.1875 20.4125 27.0188 20.2156 26.7282 20.1875C26.4188 20.15 26.0907 20.15 25.7813 20.1875C25.4907 20.2156 25.3219 20.4219 25.3125 20.7125C25.3032 20.9937 25.5188 21.2 25.8282 21.2281C25.9688 21.2375 26.1094 21.2281 26.25 21.2281ZM23.3532 21.2281C23.4938 21.2281 23.6344 21.2375 23.775 21.2281C24.075 21.2094 24.2532 21.0219 24.2625 20.7312C24.2813 20.4312 24.1125 20.225 23.8219 20.1875C23.5032 20.15 23.1657 20.15 22.8375 20.1875C22.5563 20.225 22.3782 20.4219 22.3969 20.7312C22.4157 21.0312 22.5938 21.2 22.8844 21.2281C23.0532 21.2375 23.2032 21.2281 23.3532 21.2281Z" fill="#1E62B9"/>
<path d="M25.125 50.6187C25.125 50.15 25.125 49.7187 25.125 49.2875C25.125 48.8562 25.125 48.425 25.125 47.9656C28.4532 47.9656 31.7719 47.9656 35.1188 47.9656C35.1188 48.8375 35.1188 49.7094 35.1188 50.6281C35.7844 50.6281 36.4219 50.6281 37.0688 50.6281C37.35 50.6281 37.6313 50.6187 37.9125 50.6281C38.2407 50.6375 38.4563 50.8531 38.4563 51.1531C38.4563 51.4531 38.25 51.6594 37.9219 51.6781C37.8282 51.6875 37.7344 51.6781 37.6407 51.6781C32.625 51.6781 27.6188 51.6781 22.6032 51.6781C22.0407 51.6781 21.7782 51.5 21.7875 51.1437C21.7969 50.7875 22.05 50.6281 22.5938 50.6281C23.4094 50.6187 24.2438 50.6187 25.125 50.6187Z" fill="#1E62B9"/>
<path d="M16.6125 24.3687C16.6125 29.9844 16.6125 35.5625 16.6125 41.1594C15.8813 41.1594 15.1594 41.1594 14.3813 41.1594C14.3813 41.0375 14.3813 40.9062 14.3813 40.7656C14.3813 35.9187 14.4 31.0625 14.3625 26.2156C14.3531 25.1094 15.0656 24.2656 16.2281 24.3687C16.3406 24.3781 16.4625 24.3687 16.6125 24.3687Z" fill="#1E62B9"/>
<path d="M43.4062 24.3969C43.7437 24.3969 44.0719 24.35 44.3906 24.4062C45.1312 24.5469 45.6188 25.1937 45.6188 25.9906C45.6281 28.2969 45.6188 30.6031 45.6188 32.9187C45.6188 35.5344 45.6188 38.1406 45.6188 40.7562C45.6188 40.8875 45.6188 41.0094 45.6188 41.1594C44.8781 41.1594 44.1562 41.1594 43.4062 41.1594C43.4062 35.5812 43.4062 30.0031 43.4062 24.3969Z" fill="#1E62B9"/>
<path d="M36.1594 22.5406C36.1594 21.1344 36.1594 19.7469 36.1594 18.3781C36.1875 18.3594 36.2063 18.3406 36.225 18.3406C37.7719 18.3406 39.3188 18.3219 40.8657 18.3406C41.5969 18.35 42.2625 18.9687 42.2907 19.6906C42.3282 20.6375 42.3 21.5844 42.3 22.5406C40.2563 22.5406 38.2219 22.5406 36.1594 22.5406Z" fill="#1E62B9"/>
<path d="M0 4C0 1.79086 1.79086 0 4 0H56C58.2091 0 60 1.79086 60 4V9H0V4Z" fill="#1E3F69"/>
<circle cx="4.5" cy="4.5" r="1.5" fill="#FF4F59"/>
<circle cx="9.5" cy="4.5" r="1.5" fill="#FCFEFF"/>
<circle cx="14.5" cy="4.5" r="1.5" fill="#FFF507"/>
</svg>
