<svg width="60" height="60" viewBox="0 0 60 60" fill="none" xmlns="http://www.w3.org/2000/svg">
<rect width="60" height="60" rx="4" fill="#1E62B9" fill-opacity="0.1"/>
<g clip-path="url(#clip0_109_268)">
<path d="M12 47.9474C12 39.2895 12 30.6404 12 21.9825C12.0263 21.9561 12.0526 21.9386 12.0702 21.9123C12.4474 20.9737 13.0088 20.5877 14.0175 20.5877C14.3947 20.5877 14.7632 20.5877 15.1404 20.5877C15.886 20.5877 16.6228 20.5877 17.4035 20.5877C17.4035 19.9123 17.386 19.2719 17.4123 18.6404C17.4386 17.9386 17.7807 17.4298 18.4386 17.1491C18.5526 17.0877 18.6842 17.0439 18.807 17C19.0439 17 19.2719 17 19.5088 17C19.6316 17.0439 19.7632 17.0789 19.886 17.1228C20.5526 17.3596 20.9649 17.9474 20.9825 18.7544C21 19.3596 20.9825 19.9649 20.9825 20.5614C26.9912 20.5614 32.9649 20.5614 38.9474 20.5614C38.9474 20.0702 38.9649 19.6053 38.9474 19.1404C38.9035 18.1228 39.2281 17.3596 40.2719 17.0351C40.2807 17.0351 40.2807 17.0175 40.2807 17C40.5614 17 40.8421 17 41.1228 17C42.3158 17.5 42.5351 17.8421 42.5351 19.2018C42.5351 19.6579 42.5351 20.1053 42.5351 20.5877C43.0614 20.5877 43.5526 20.614 44.0351 20.5789C45.1667 20.5 46.1667 21.4298 46.1404 22.6754C46.0965 25.3158 46.1228 27.9649 46.1228 30.6053C46.1228 30.7193 46.1228 30.8333 46.1228 30.9298C40.114 26.7982 34.114 26.5351 28.193 30.9737C25.3684 33.0877 23.693 36.0263 23.0263 39.5C22.3596 42.9737 23 46.2456 24.7368 49.3421C21.0351 49.3421 17.4035 49.3509 13.7632 49.3333C13.1579 49.3333 12.6579 49.0526 12.307 48.5526C12.193 48.3684 12.1053 48.1491 12 47.9474Z" fill="#1E62B9"/>
<path d="M37.1228 52.9298C31.1842 52.8947 26.3421 48.0263 26.3771 42.1316C26.4122 36.193 31.2631 31.3596 37.1754 31.386C43.1052 31.4123 47.9649 36.2895 47.9298 42.1842C47.8947 48.1053 43.0175 52.9649 37.1228 52.9298ZM38.9473 40.3684C38.9473 39.1316 38.9561 37.9386 38.9473 36.7544C38.9298 35.6667 38.2192 34.9737 37.1578 34.9737C36.0964 34.9737 35.3771 35.6667 35.3684 36.7544C35.3508 38.5702 35.3508 40.3772 35.3684 42.193C35.3771 43.2719 36.0526 43.9386 37.1315 43.9561C38.3508 43.9737 39.5614 43.9825 40.7807 43.9474C41.1491 43.9386 41.5438 43.7982 41.8596 43.6053C42.4912 43.2105 42.7017 42.3333 42.4561 41.5351C42.2543 40.8684 41.6491 40.4123 40.8947 40.3947C40.2543 40.3509 39.6228 40.3684 38.9473 40.3684Z" fill="#1E62B9"/>
</g>
<path d="M0 4C0 1.79086 1.79086 0 4 0H56C58.2091 0 60 1.79086 60 4V9H0V4Z" fill="#1E3F69"/>
<circle cx="4.5" cy="4.5" r="1.5" fill="#FF4F59"/>
<circle cx="9.5" cy="4.5" r="1.5" fill="#FCFEFF"/>
<circle cx="14.5" cy="4.5" r="1.5" fill="#FFF507"/>
<defs>
<clipPath id="clip0_109_268">
<rect width="36" height="36" fill="white" transform="translate(12 17)"/>
</clipPath>
</defs>
</svg>
