<svg width="60" height="60" viewBox="0 0 60 60" fill="none" xmlns="http://www.w3.org/2000/svg">
<rect width="60" height="60" rx="4" fill="#1E62B9" fill-opacity="0.1"/>
<path fill-rule="evenodd" clip-rule="evenodd" d="M42.7916 23.6625C42.4843 23.9723 42.1673 24.2917 41.8279 24.6312V24.1417C41.8279 23.5247 41.8289 22.9066 41.83 22.2882V22.2871V22.2861V22.2854C41.8321 21.0463 41.8342 19.8059 41.8279 18.5696C41.8185 17.0354 40.7737 16 39.2489 16H14.5508C13.0542 16 11.9906 17.0542 12.0001 18.5413V49.4516C12.0001 50.9293 13.0542 51.9929 14.532 51.9929C22.7866 52.0023 31.0507 52.0023 39.3054 51.9929C39.5783 51.9929 39.8513 51.9553 40.1054 51.88C41.1973 51.5506 41.8373 50.6093 41.8373 49.3481V49.3447C41.8373 43.736 41.8373 38.1274 41.8279 32.5187C41.8279 32.2646 41.9032 32.0858 42.082 31.9069L47.4471 26.5419C48.1812 25.8077 48.1812 24.9323 47.4471 24.1888C46.9953 23.7276 46.5341 23.2664 46.0729 22.8146C45.2822 22.0239 44.4257 22.0145 43.6445 22.8052C43.3623 23.0874 43.0822 23.3696 42.7938 23.6603L42.7923 23.6619L42.7916 23.6625ZM15.1156 21.877V19.1155H15.1156V19.1155H38.703L38.703 19.1155H38.7218L38.724 19.1393C38.7326 19.2336 38.7406 19.3212 38.7406 19.4167C38.7406 22.0898 38.7406 24.7535 38.7312 27.4266C38.7312 27.6055 38.6371 27.8219 38.5147 27.9443C37.0982 29.3655 35.6818 30.7844 34.2653 32.2032C32.8486 33.6222 31.432 35.0412 30.0154 36.4625C29.8459 36.6413 29.7047 36.8672 29.6106 37.1026C29.4653 37.4711 29.3342 37.8426 29.2033 38.2137L29.2033 38.2138L29.2032 38.214C29.0968 38.5157 28.9904 38.8172 28.8765 39.1168C28.8388 39.2203 28.7353 39.3333 28.6411 39.3709C28.2778 39.5055 27.9096 39.6257 27.5435 39.7451C27.3975 39.7928 27.2518 39.8403 27.1069 39.8886C27.0174 39.9179 26.9294 39.9394 26.8432 39.9529C26.3962 40.0325 25.9969 39.8886 25.6857 39.5215C25.3939 39.1733 25.1304 38.7968 24.8856 38.4109C24.7441 38.1813 24.6056 38.0373 24.4601 37.9801C24.2531 37.9104 24.0312 38.012 23.7655 38.2885C23.5188 38.551 23.2721 38.8105 23.0188 39.077L23.0186 39.0772L23.0184 39.0774C22.8177 39.2885 22.6129 39.504 22.4007 39.7286L22.3987 39.7109L22.3819 39.7286C22.2784 38.8438 22.1843 38.0155 22.0996 37.1872C22.0713 36.8766 21.9678 36.6319 21.6478 36.5472C21.6014 36.5363 21.5575 36.5307 21.5157 36.53C21.2788 36.5339 21.1128 36.6947 20.9795 36.9143C20.7066 37.3613 20.429 37.8035 20.1514 38.2458L20.1513 38.246L20.1512 38.2462L20.1511 38.2463C19.8735 38.6886 19.5958 39.131 19.3229 39.578C18.9786 40.1397 18.5122 40.4398 17.8566 40.4363C17.825 40.4364 17.793 40.4358 17.7605 40.4345C17.6218 40.43 17.4811 40.4277 17.3403 40.4275C17.1909 40.4274 17.0415 40.4298 16.8945 40.4345C16.5274 40.4534 16.3109 40.6793 16.3109 41.0087C16.3203 41.3381 16.5462 41.5546 16.9133 41.564L16.9204 41.5642H16.9204H16.9205C17.1178 41.5687 17.313 41.5731 17.5082 41.5734C17.7162 41.5735 17.9231 41.5689 18.1275 41.5546C19.0217 41.4887 19.6994 41.0557 20.1794 40.3027C20.4317 39.913 20.6715 39.5232 20.9392 39.088L20.9392 39.088L21.1301 38.7779L21.1331 38.8032L21.1489 38.778L21.1735 38.9841C21.2577 39.6909 21.3335 40.3263 21.3936 40.9616C21.4124 41.2346 21.516 41.4417 21.7795 41.5358C21.8418 41.5588 21.9018 41.57 21.9596 41.5709C22.1359 41.5687 22.2879 41.4742 22.4196 41.3287C22.7403 40.987 23.0639 40.6453 23.3937 40.297L23.3948 40.2958L23.395 40.2957L23.3955 40.2951C23.6556 40.0205 23.9196 39.7417 24.1891 39.4556L24.1964 39.4679L24.2079 39.4557C24.8629 40.5514 25.6732 41.0977 26.6387 41.1024C27.153 41.1008 27.7111 40.9468 28.3117 40.6416L28.3125 40.6507L28.3305 40.6416C28.3776 41.3099 28.6506 41.7523 29.2718 41.8558C29.4308 41.8775 29.612 41.8603 29.777 41.8214C29.8203 41.8095 29.8623 41.7958 29.9024 41.7805C31.0225 41.3946 32.1332 40.9898 33.2438 40.5757C33.4227 40.5098 33.5921 40.378 33.7239 40.2463C35.2769 38.7026 36.8205 37.159 38.3642 35.606C38.4269 35.5432 38.4729 35.4721 38.5189 35.401C38.5419 35.3654 38.565 35.3299 38.5901 35.2954L38.6027 35.3039L38.6089 35.2954C38.6371 35.3236 38.6653 35.3424 38.6936 35.3613L38.6936 35.3613V45.6113H15.1156L15.0968 45.6113C15.1136 37.7013 15.1154 29.7989 15.1156 21.877ZM42.3027 25.8506L31.1298 37.0235L31.1166 37.0367L31.1166 37.0367C31.4613 37.3814 31.8107 37.7332 32.159 38.0838L32.1592 38.084C32.505 38.4322 32.8497 38.7792 33.1873 39.1168L33.1873 39.1168L44.774 27.5302L44.774 27.5302C44.4292 27.1854 44.0798 26.8336 43.7315 26.483C43.3856 26.1348 43.0409 25.7877 42.7032 25.45L42.3027 25.8506ZM27.3422 49.1201C27.1979 49.1211 27.0536 49.1222 26.9093 49.1222C26.8882 49.1222 26.8671 49.1221 26.8461 49.1221H25.6104C25.6084 49.1221 25.6065 49.1221 25.6045 49.1221C25.6033 49.1221 25.6021 49.1221 25.601 49.1222C25.3656 49.1222 25.1868 49.0469 25.1962 48.7927C25.2056 48.5578 25.3746 48.4823 25.5906 48.4821C25.594 48.4821 25.5975 48.4821 25.601 48.4821H28.2364C28.4529 48.4821 28.6223 48.5762 28.6223 48.8021C28.6223 49.055 28.4452 49.1214 28.2209 49.1221C28.2167 49.1221 28.2124 49.1222 28.2082 49.1222C27.9197 49.1159 27.6312 49.118 27.3426 49.1201H27.3422Z" fill="#1E62B9"/>
<path d="M26.9281 24.8571C29.4318 24.8571 31.9355 24.8571 34.4392 24.8571C34.5709 24.8571 34.7027 24.8571 34.8251 24.8759C35.1169 24.9229 35.2863 25.1018 35.2957 25.403C35.3051 25.7136 35.1451 25.9112 34.8345 25.9771C34.731 25.996 34.6274 25.996 34.5145 25.996C29.4318 25.996 24.3585 25.996 19.2758 25.996C19.1441 25.996 18.9746 26.0242 18.8993 25.9489C18.7393 25.8077 18.5511 25.6195 18.5134 25.4218C18.4664 25.1677 18.6358 24.9512 18.9182 24.8853C19.0688 24.8571 19.2194 24.8571 19.37 24.8571C21.9019 24.8571 24.415 24.8571 26.9281 24.8571Z" fill="#1E62B9"/>
<path d="M26.9281 29.2244C24.3962 29.2244 21.8737 29.2244 19.3417 29.2244C19.21 29.2244 19.0782 29.2338 18.9558 29.2055C18.6734 29.1585 18.4852 28.9514 18.5229 28.6879C18.5511 28.4902 18.7205 28.2925 18.8805 28.1419C18.9652 28.0666 19.1535 28.0855 19.2853 28.0855C24.3679 28.0855 29.4412 28.0855 34.5239 28.0855C34.6651 28.0855 34.8157 28.0855 34.938 28.1325C35.2016 28.2267 35.3239 28.4337 35.2957 28.7161C35.2675 28.9796 35.1169 29.1491 34.8627 29.1961C34.7404 29.2244 34.6086 29.215 34.4768 29.215C31.9543 29.2244 29.4412 29.2244 26.9281 29.2244Z" fill="#1E62B9"/>
<path d="M26.9375 21.6287C29.4506 21.6287 31.9731 21.6287 34.4862 21.6287C34.5898 21.6287 34.7027 21.6193 34.8062 21.6381C35.0886 21.6663 35.258 21.8358 35.2957 22.1087C35.3333 22.4005 35.211 22.6264 34.9286 22.7111C34.778 22.7582 34.6086 22.7582 34.4392 22.7582C29.4224 22.7582 24.3961 22.7582 19.3793 22.7582C19.2193 22.7582 19.0499 22.7488 18.8899 22.7111C18.6169 22.6358 18.4852 22.4193 18.5134 22.1464C18.5416 21.864 18.7017 21.6663 19.0029 21.6381C19.1158 21.6287 19.2382 21.6287 19.3511 21.6287C21.883 21.6287 24.415 21.6287 26.9375 21.6287Z" fill="#1E62B9"/>
<path d="M0 4C0 1.79086 1.79086 0 4 0H56C58.2091 0 60 1.79086 60 4V9H0V4Z" fill="#1E3F69"/>
<circle cx="4.5" cy="4.5" r="1.5" fill="#FF4F59"/>
<circle cx="9.5" cy="4.5" r="1.5" fill="#FCFEFF"/>
<circle cx="14.5" cy="4.5" r="1.5" fill="#FFF507"/>
</svg>
