<svg width="60" height="60" viewBox="0 0 60 60" fill="none" xmlns="http://www.w3.org/2000/svg">
<rect width="60" height="60" rx="4" fill="#1E62B9" fill-opacity="0.1"/>
<path d="M21.6293 40.4204C21.8543 39.9072 22.0793 39.4237 22.275 38.9401C22.3239 38.8118 22.3141 38.6342 22.2652 38.5059C21.9717 37.7658 21.6684 37.0257 21.3554 36.3053C21.2967 36.177 21.1793 36.0487 21.0619 35.9994C20.6609 35.8217 20.25 35.6639 19.8391 35.5158C19.6533 35.4468 19.5652 35.3678 19.575 35.1507C19.5946 34.3711 19.5848 33.6014 19.575 32.8218C19.575 32.6343 19.6337 32.5356 19.8098 32.4764C20.2793 32.3086 20.8467 32.2297 21.1793 31.904C21.5021 31.5882 21.5511 31.006 21.7467 30.5521C21.9032 30.187 22.0989 29.8514 22.2554 29.4863C22.3141 29.3481 22.3239 29.1508 22.275 29.0225C22.1184 28.5982 21.9032 28.1936 21.7369 27.7692C21.6978 27.6705 21.7271 27.5126 21.7858 27.4238C21.9326 27.2265 22.1282 27.0686 22.2945 26.8909C22.7347 26.4469 23.1651 25.9929 23.6151 25.539C24.1238 25.766 24.6032 25.9929 25.1021 26.2002C25.2195 26.2495 25.4053 26.2298 25.5325 26.1804C26.2564 25.8942 26.9705 25.5883 27.6846 25.2725C27.8216 25.2133 27.9585 25.085 28.0172 24.9568C28.2031 24.5423 28.34 24.1081 28.5259 23.6936C28.565 23.6048 28.702 23.4962 28.7998 23.4962C29.5922 23.4765 30.3846 23.4765 31.1867 23.4962C31.2943 23.4962 31.441 23.6048 31.49 23.7133C31.6758 24.1278 31.8128 24.562 31.9986 24.9765C32.0573 25.1048 32.2041 25.2232 32.341 25.2824C33.0454 25.5883 33.7497 25.8942 34.4638 26.1706C34.6008 26.2298 34.7866 26.2495 34.9236 26.2002C35.3442 26.0423 35.7453 25.8252 36.1659 25.6574C36.2638 25.6179 36.4594 25.6377 36.5279 25.7166C37.1051 26.2692 37.6626 26.8416 38.2105 27.414C38.2789 27.4929 38.3083 27.6804 38.2692 27.7791C38.1029 28.2133 37.8876 28.6278 37.7213 29.062C37.6724 29.1804 37.692 29.3383 37.7409 29.4567C38.0344 30.1869 38.3279 30.9073 38.6409 31.6277C38.6996 31.7659 38.817 31.9238 38.9441 31.9731C39.4235 32.1803 39.9126 32.358 40.4213 32.5553C40.4213 33.4435 40.4311 34.3316 40.4115 35.2198C40.4115 35.3086 40.3039 35.4369 40.2256 35.4665C39.7463 35.6737 39.1398 35.7428 38.7974 36.0783C38.4746 36.404 38.4257 37.0059 38.23 37.4796C38.0931 37.8151 37.8974 38.1309 37.7605 38.4763C37.7018 38.6145 37.692 38.802 37.7409 38.9401C37.9268 39.4335 38.1616 39.9072 38.3865 40.4204C37.7703 41.0322 37.154 41.6539 36.5279 42.2559C36.4496 42.3249 36.2638 42.3447 36.1562 42.2953C35.7355 42.1276 35.3344 41.9203 34.9138 41.7625C34.7866 41.7131 34.6105 41.7329 34.4834 41.7822C33.7693 42.0684 33.0649 42.3644 32.3606 42.6703C32.2139 42.7394 32.0573 42.8677 31.9986 43.0059C31.8128 43.4105 31.6856 43.8348 31.5095 44.2394C31.4606 44.3479 31.3041 44.4762 31.1867 44.4762C30.4041 44.496 29.6215 44.496 28.8389 44.4762C28.7313 44.4762 28.5846 44.3578 28.5357 44.2591C28.3498 43.8447 28.2129 43.4105 28.027 42.996C27.9683 42.8677 27.8313 42.7394 27.6944 42.6802C26.9803 42.3644 26.2662 42.0684 25.5423 41.7822C25.4151 41.7329 25.239 41.723 25.1118 41.7723C24.6912 41.9302 24.2901 42.1473 23.8695 42.3052C23.7619 42.3447 23.576 42.3249 23.4978 42.2559C22.8717 41.6638 22.2652 41.0519 21.6293 40.4204ZM30.0226 28.5488C27.0488 28.5389 24.6423 30.9567 24.6325 33.9665C24.6227 36.9566 26.9901 39.3842 29.9541 39.4138C32.9573 39.4335 35.3736 37.0257 35.3834 34.006C35.3931 30.9962 32.9964 28.5686 30.0226 28.5488Z" fill="#1E62B9"/>
<path d="M42.5641 16.7277C45.352 16.7375 47.6118 19.0368 47.5922 21.8493C47.5726 24.6618 45.3031 26.9117 42.4956 26.9019C39.7174 26.892 37.4674 24.5828 37.487 21.7704C37.5066 18.9678 39.7859 16.7079 42.5641 16.7277ZM42.5347 23.8427C43.2684 23.8427 44.0021 23.8427 44.7358 23.8427C45.0684 23.8427 45.1173 23.7638 44.9607 23.4776C44.2271 22.1848 43.4836 20.902 42.7499 19.6092C42.613 19.3625 42.4858 19.3428 42.3391 19.5993C41.6054 20.8921 40.8619 22.175 40.1282 23.4677C39.9619 23.7539 40.0109 23.8427 40.3337 23.8427C41.0674 23.8427 41.801 23.8427 42.5347 23.8427Z" fill="#1E62B9"/>
<path d="M22.51 46.52C22.51 49.3324 20.2307 51.612 17.4427 51.6021C14.6743 51.5923 12.4146 49.3127 12.4048 46.52C12.395 43.7174 14.6743 41.4082 17.4525 41.4082C20.2503 41.4181 22.5198 43.7075 22.51 46.52ZM19.8101 46.5298C19.8101 45.8391 19.8003 45.1483 19.8101 44.4575C19.8101 44.2207 19.7514 44.1319 19.497 44.1319C18.1373 44.1417 16.7873 44.1417 15.4276 44.1319C15.2026 44.1319 15.095 44.1812 15.095 44.4378C15.1048 45.8193 15.1048 47.2009 15.095 48.5726C15.095 48.7996 15.1635 48.8785 15.3884 48.8785C16.758 48.8686 18.1275 48.8686 19.4873 48.8785C19.7318 48.8785 19.8003 48.7897 19.8003 48.5528C19.8003 47.8917 19.8101 47.2108 19.8101 46.5298Z" fill="#1E62B9"/>
<path d="M17.4721 16.7168C20.2698 16.7267 22.5198 19.0062 22.51 21.8286C22.51 24.641 20.2405 26.9009 17.4329 26.9009C14.6645 26.891 12.4048 24.6114 12.4048 21.8187C12.4146 18.9964 14.6841 16.7168 17.4721 16.7168ZM17.4623 19.1049C15.9754 19.1049 14.7819 20.2891 14.7721 21.7891C14.7526 23.2891 15.9754 24.5226 17.4623 24.5226C18.9394 24.5226 20.1524 23.3187 20.1622 21.8286C20.172 20.3286 18.959 19.1049 17.4623 19.1049Z" fill="#1E62B9"/>
<path d="M47.6212 46.5189C47.6212 49.3413 45.3614 51.611 42.5735 51.611C39.7855 51.611 37.5355 49.3215 37.5453 46.4992C37.5551 43.6966 39.7953 41.4269 42.5735 41.417C45.3517 41.4072 47.6212 43.6966 47.6212 46.5189ZM45.3517 46.5288C45.3517 46.0749 45.3712 45.6209 45.3419 45.167C45.3321 45.0288 45.2245 44.8413 45.1169 44.7722C44.3539 44.3084 43.5908 43.8545 42.8082 43.4203C42.7006 43.3611 42.4952 43.3512 42.3876 43.4203C41.5952 43.8545 40.8224 44.3183 40.0496 44.7821C39.942 44.8512 39.8442 45.0189 39.8344 45.1472C39.8148 46.0551 39.8148 46.9729 39.8344 47.8808C39.8344 48.009 39.9322 48.1867 40.0398 48.2557C40.8126 48.7294 41.5952 49.1834 42.3778 49.6176C42.4854 49.6768 42.6909 49.6768 42.7985 49.6077C43.5811 49.1735 44.3441 48.7294 45.1071 48.2656C45.2245 48.1965 45.3223 48.009 45.3321 47.861C45.3712 47.4169 45.3517 46.9729 45.3517 46.5288Z" fill="#1E62B9"/>
<path d="M34.7964 18.2764C33.828 18.0889 32.8595 17.8422 31.8813 17.7337C29.064 17.3981 26.3347 17.783 23.7032 18.8981C23.2728 19.0856 22.95 18.9672 22.813 18.6119C22.6761 18.2567 22.8326 17.9804 23.2728 17.7929C27.1368 16.2041 31.0693 16.0067 35.0703 17.1909C35.1682 17.2205 35.2758 17.2501 35.4323 17.2896C35.3443 17.1218 35.2758 17.0034 35.2073 16.8751C35.0508 16.5396 35.1388 16.2534 35.4323 16.0857C35.716 15.9278 36.029 15.987 36.1953 16.2732C36.5768 16.9047 36.9388 17.5462 37.2909 18.1975C37.4768 18.5429 37.3105 18.9179 36.9486 19.0363C36.2638 19.2534 35.5692 19.4507 34.8747 19.6382C34.5519 19.7271 34.278 19.5593 34.1801 19.2534C34.0725 18.9179 34.1997 18.6514 34.5323 18.5133C34.6204 18.4738 34.6986 18.4442 34.7867 18.4146C34.7867 18.3554 34.7964 18.3159 34.7964 18.2764Z" fill="#1E62B9"/>
<path d="M24.8379 50.7723C24.9357 50.9499 25.0238 51.0585 25.0727 51.1868C25.1901 51.4927 25.102 51.7493 24.8085 51.9071C24.5444 52.0552 24.2607 52.0354 24.0846 51.7789C23.6542 51.1374 23.2434 50.4762 22.8618 49.8052C22.6858 49.5092 22.8521 49.144 23.1847 49.0256C23.8596 48.7789 24.5444 48.5618 25.2292 48.3447C25.5813 48.2361 25.8553 48.394 25.9531 48.7098C26.0509 49.0453 25.9237 49.3118 25.5911 49.4499C25.4835 49.4894 25.3759 49.5289 25.2683 49.5684C25.2683 49.6078 25.2683 49.6473 25.2585 49.6868C26.1096 49.8545 26.9607 50.0618 27.8215 50.1802C30.7269 50.5848 33.5442 50.1901 36.2539 49.075C36.7333 48.8776 37.0561 48.9861 37.1735 49.3809C37.2811 49.7263 37.1539 49.9631 36.7724 50.1309C35.4909 50.6933 34.1507 51.0683 32.7714 51.2953C30.1693 51.7098 27.6063 51.5618 25.0824 50.8118C25.0335 50.8019 24.9651 50.792 24.8379 50.7723Z" fill="#1E62B9"/>
<path d="M46.7411 38.9208C46.9074 38.8221 47.0248 38.7431 47.152 38.674C47.4553 38.526 47.6998 38.6148 47.8857 38.8813C48.0715 39.1379 48.0324 39.4832 47.7585 39.6707C47.1324 40.0852 46.5064 40.4898 45.8607 40.8648C45.5086 41.072 45.1662 40.9043 45.0292 40.4898C44.8042 39.8484 44.5988 39.2069 44.3934 38.5655C44.2564 38.1412 44.4031 37.855 44.7651 37.7366C45.0977 37.628 45.352 37.7859 45.5086 38.2004C45.5281 38.2596 45.5477 38.3188 45.6064 38.4865C45.7238 37.9833 45.8314 37.5885 45.9096 37.1839C46.5064 34.0557 46.252 31.0064 45.1075 28.036C44.9314 27.5821 44.9803 27.3354 45.264 27.1479C45.6064 26.9209 45.9781 27.0492 46.1444 27.4735C46.6922 28.8255 47.0444 30.2268 47.2303 31.6774C47.5433 34.0754 47.3868 36.4438 46.7216 38.7826C46.7314 38.8023 46.7411 38.8418 46.7411 38.9208Z" fill="#1E62B9"/>
<path d="M13.2068 29.3288C13.0699 29.4176 12.972 29.4768 12.8742 29.536C12.5808 29.7038 12.3264 29.6248 12.1308 29.3683C11.9351 29.1216 11.9547 28.7762 12.2188 28.5788C12.8155 28.1347 13.4318 27.7005 14.0481 27.2861C14.3611 27.0788 14.7329 27.1972 14.8698 27.5426C15.1535 28.2334 15.4176 28.9341 15.672 29.6446C15.7796 29.9308 15.6133 30.2268 15.3296 30.3354C15.0263 30.4538 14.7427 30.3551 14.5861 30.0492C14.5177 29.911 14.4688 29.763 14.322 29.615C14.1948 30.286 14.0285 30.9571 13.9405 31.6281C13.5394 34.4998 13.8622 37.3024 14.9187 40.0063C15.0948 40.4504 14.9774 40.7464 14.6057 40.8846C14.2535 41.0227 13.9796 40.8648 13.8133 40.401C12.4634 36.8583 12.2384 33.2465 13.1579 29.5558C13.1677 29.5163 13.1775 29.4373 13.2068 29.3288Z" fill="#1E62B9"/>
<path d="M29.9981 34.9427C29.7153 34.9427 29.4325 34.9448 29.1477 34.9406C29.0815 34.9406 29.0474 34.9576 29.0193 35.0259C28.8869 35.3437 28.7505 35.6593 28.6141 35.9771C28.574 36.0731 28.5038 36.1264 28.4055 36.1328C28.3133 36.1392 28.2391 36.0987 28.1889 36.0155C28.1368 35.9302 28.1428 35.8406 28.1809 35.7489C28.4055 35.2264 28.6282 34.706 28.8508 34.1834C29.1577 33.4647 29.4626 32.7481 29.7694 32.0293C29.8136 31.927 29.8878 31.8694 29.9921 31.8672C30.0984 31.8651 30.1766 31.9227 30.2207 32.0293C30.7462 33.2621 31.2737 34.4948 31.7992 35.7297C31.8213 35.783 31.8393 35.847 31.8373 35.9046C31.8313 36.0198 31.7471 36.1115 31.6468 36.1307C31.5304 36.152 31.4302 36.0965 31.378 35.9771C31.2416 35.6636 31.1072 35.3501 30.9769 35.0344C30.9488 34.9662 30.9167 34.9406 30.8465 34.9427C30.5637 34.9448 30.2809 34.9427 29.9981 34.9427ZM29.9981 32.7438C29.7534 33.3154 29.5187 33.8678 29.28 34.4244C29.7634 34.4244 30.2348 34.4244 30.7161 34.4244C30.4774 33.8635 30.2408 33.3133 29.9981 32.7438Z" fill="#1E62B9"/>
<path d="M29.9987 30.8476C30.9454 30.8476 31.8941 30.8476 32.8408 30.8476C32.9151 30.8476 32.9853 30.8519 33.0434 30.9116C33.1136 30.9799 33.1437 31.0652 33.1196 31.1633C33.0956 31.2635 33.0334 31.3296 32.9371 31.351C32.905 31.3574 32.8729 31.3595 32.8408 31.3595C30.9454 31.3595 29.052 31.3574 27.1566 31.3616C26.926 31.3616 26.8357 31.1633 26.8819 31.0268C26.916 30.9223 26.9942 30.854 27.0985 30.8476C27.1266 30.8455 27.1526 30.8476 27.1807 30.8476C28.1194 30.8476 29.0601 30.8476 29.9987 30.8476Z" fill="#1E62B9"/>
<path d="M29.9986 37.1563C29.0519 37.1563 28.1032 37.1584 27.1565 37.1541C27.0903 37.1541 27.0161 37.1328 26.9619 37.0966C26.8817 37.0432 26.8556 36.9494 26.8757 36.8513C26.8977 36.7468 26.9599 36.6764 27.0602 36.6551C27.0903 36.6487 27.1204 36.6465 27.1504 36.6465C29.0499 36.6465 30.9493 36.6487 32.8487 36.6444C33.0653 36.6444 33.1716 36.8385 33.1114 36.9942C33.0753 37.0902 33.0071 37.1477 32.9069 37.1584C32.8768 37.1605 32.8467 37.1605 32.8166 37.1605C31.8779 37.1563 30.9372 37.1563 29.9986 37.1563Z" fill="#1E62B9"/>
<path d="M0 4C0 1.79086 1.79086 0 4 0H56C58.2091 0 60 1.79086 60 4V9H0V4Z" fill="#1E3F69"/>
<circle cx="4.5" cy="4.5" r="1.5" fill="#FF4F59"/>
<circle cx="9.5" cy="4.5" r="1.5" fill="#FCFEFF"/>
<circle cx="14.5" cy="4.5" r="1.5" fill="#FFF507"/>
</svg>
