<svg width="60" height="60" viewBox="0 0 60 60" fill="none" xmlns="http://www.w3.org/2000/svg">
<rect width="60" height="60" rx="4" fill="#1E62B9" fill-opacity="0.1"/>
<path d="M32.7 39.125C30.975 37.775 28.8 37.925 27.3 39.2C26.625 38.6 25.875 38 25.125 37.4C23.475 35.975 21.75 34.55 20.1 33.125C19.95 32.975 19.875 32.825 19.875 32.6C19.875 28.55 19.875 24.575 19.875 20.525C19.875 19.625 20.25 19.25 21.15 19.25C27 19.25 32.925 19.25 38.85 19.25C39.675 19.25 40.125 19.7 40.125 20.525C40.125 24.5 40.125 28.55 40.125 32.525C40.125 32.675 40.05 32.825 39.975 32.975C37.575 35 35.25 37.025 32.85 39.05C32.775 39.05 32.7 39.05 32.7 39.125ZM30 22.775C32.325 22.775 34.65 22.775 36.975 22.775C37.425 22.775 37.65 22.55 37.65 22.25C37.65 21.875 37.425 21.725 36.975 21.65C36.9 21.65 36.825 21.65 36.825 21.65C32.25 21.65 27.675 21.65 23.175 21.65C23.025 21.65 22.875 21.65 22.725 21.725C22.425 21.8 22.35 22.025 22.35 22.25C22.35 22.55 22.575 22.7 22.8 22.775C22.875 22.775 23.025 22.775 23.1 22.775C25.425 22.775 27.675 22.775 30 22.775ZM24.3 28.4C24.6 28.4 24.9 28.4 25.2 28.4C25.875 28.4 26.325 27.95 26.325 27.275C26.325 26.675 26.325 26.075 26.325 25.475C26.325 24.8 25.875 24.35 25.2 24.35C24.6 24.35 23.925 24.35 23.325 24.35C22.65 24.35 22.2 24.8 22.2 25.475C22.2 26.075 22.2 26.75 22.2 27.35C22.2 27.95 22.65 28.4 23.25 28.4C23.7 28.4 24 28.4 24.3 28.4ZM24.375 33.725C24.675 33.725 24.975 33.725 25.275 33.725C25.875 33.725 26.4 33.275 26.4 32.675C26.4 32.075 26.4 31.4 26.4 30.8C26.4 30.2 25.95 29.75 25.35 29.675C24.675 29.675 24.075 29.675 23.4 29.675C22.8 29.675 22.35 30.2 22.35 30.8C22.35 31.4 22.35 32 22.35 32.6C22.35 33.275 22.8 33.725 23.475 33.725C23.775 33.725 24.075 33.725 24.375 33.725ZM32.625 28.1C33.675 28.1 34.65 28.1 35.7 28.1C36.15 28.1 36.6 28.1 37.05 28.1C37.35 28.1 37.575 27.875 37.575 27.575C37.575 27.275 37.425 27.05 37.05 26.975C36.975 26.975 36.825 26.975 36.75 26.975C33.975 26.975 31.2 26.975 28.35 26.975C28.2 26.975 28.05 26.975 27.9 27.05C27.6 27.125 27.45 27.425 27.525 27.725C27.6 28.025 27.825 28.1 28.125 28.1C29.775 28.1 31.2 28.1 32.625 28.1ZM32.7 33.425C33.75 33.425 34.8 33.425 35.85 33.425C36.3 33.425 36.675 33.425 37.125 33.425C37.425 33.425 37.65 33.2 37.65 32.9C37.65 32.6 37.5 32.375 37.125 32.3C37.05 32.3 36.9 32.3 36.825 32.3C34.65 32.3 32.475 32.3 30.3 32.3C29.625 32.3 28.95 32.3 28.275 32.3C27.9 32.3 27.675 32.45 27.6 32.75C27.525 33.125 27.825 33.425 28.275 33.425C29.775 33.425 31.2 33.425 32.7 33.425ZM30.525 25.7C31.275 25.7 32.1 25.7 32.85 25.7C33.225 25.7 33.45 25.475 33.525 25.175C33.525 24.875 33.3 24.65 32.925 24.65C31.425 24.65 29.85 24.65 28.35 24.65C27.975 24.65 27.75 24.875 27.75 25.175C27.75 25.475 27.975 25.7 28.425 25.7C29.025 25.7 29.775 25.7 30.525 25.7ZM30.6 31.1C31.35 31.1 32.1 31.1 32.85 31.1C33.3 31.1 33.525 30.875 33.525 30.575C33.525 30.275 33.3 30.05 32.85 30.05C31.35 30.05 29.775 30.05 28.275 30.05C27.825 30.05 27.6 30.275 27.6 30.65C27.6 30.95 27.825 31.175 28.275 31.175C29.1 31.1 29.85 31.1 30.6 31.1Z" fill="#1E62B9"/>
<path d="M44.2499 50.525C43.8749 50.6 43.4249 50.75 43.0499 50.75C34.3499 50.75 25.6499 50.75 16.9499 50.75C16.5749 50.75 16.2749 50.675 15.8999 50.6V50.525C16.5749 49.85 17.3249 49.25 17.9999 48.65C21.2249 45.875 24.5249 43.025 27.7499 40.25C28.7999 39.35 29.8499 39.05 31.1999 39.575C31.4999 39.725 31.7249 39.875 31.9499 40.025C35.9999 43.475 40.0499 46.85 44.0999 50.3C44.1749 50.375 44.1749 50.375 44.2499 50.45C44.2499 50.375 44.2499 50.45 44.2499 50.525Z" fill="#1E62B9"/>
<path d="M14.9251 30.125C18.7501 33.35 22.6501 36.575 26.4751 39.875C22.6501 43.175 18.8251 46.475 15.0001 49.775C14.6251 49.325 14.4751 48.8 14.4751 48.275C14.4751 46.4 14.4751 44.45 14.4751 42.575C14.4751 38.9 14.4751 35.225 14.4751 31.475C14.4751 31.025 14.6251 30.575 14.7001 30.125C14.7751 30.125 14.8501 30.125 14.9251 30.125Z" fill="#1E62B9"/>
<path d="M45.0749 49.625C41.2499 46.4 37.4249 43.1 33.5249 39.875C37.3499 36.575 41.1749 33.35 45.0749 30.125C45.3749 30.575 45.4499 31.025 45.4499 31.55C45.4499 35 45.4499 38.45 45.4499 41.825C45.4499 44 45.4499 46.1 45.4499 48.275C45.4499 48.725 45.3749 49.175 45.0749 49.625Z" fill="#1E62B9"/>
<path d="M15.6001 29.3C16.6501 28.7 17.7001 29 18.7501 28.925C18.7501 29.9 18.7501 30.875 18.7501 31.925C17.7001 31.025 16.6501 30.2 15.6001 29.3Z" fill="#1E62B9"/>
<path d="M41.25 28.925C42.3 29 43.275 28.7 44.25 29.3C43.2 30.125 42.225 31.025 41.25 31.85C41.25 30.875 41.25 29.9 41.25 28.925Z" fill="#1E62B9"/>
<path d="M23.4751 27.275C23.4751 26.675 23.4751 26.075 23.4751 25.475C24.0751 25.475 24.6751 25.475 25.2751 25.475C25.2751 26.075 25.2751 26.675 25.2751 27.275C24.6751 27.275 24.0751 27.275 23.4751 27.275Z" fill="#1E62B9"/>
<path d="M23.4751 32.6C23.4751 32 23.4751 31.4 23.4751 30.8C24.0751 30.8 24.6751 30.8 25.2751 30.8C25.2751 31.4 25.2751 32 25.2751 32.6C24.6751 32.6 24.0751 32.6 23.4751 32.6Z" fill="#1E62B9"/>
<path d="M0 4C0 1.79086 1.79086 0 4 0H56C58.2091 0 60 1.79086 60 4V9H0V4Z" fill="#1E3F69"/>
<circle cx="4.5" cy="4.5" r="1.5" fill="#FF4F59"/>
<circle cx="9.5" cy="4.5" r="1.5" fill="#FCFEFF"/>
<circle cx="14.5" cy="4.5" r="1.5" fill="#FFF507"/>
</svg>
