<svg width="60" height="60" viewBox="0 0 60 60" fill="none" xmlns="http://www.w3.org/2000/svg">
<rect width="60" height="60" rx="4" fill="#1E62B9" fill-opacity="0.1"/>
<path d="M48 30.5498C48 36.4235 48 42.2879 48 48.1617C47.6906 49.2176 46.9312 49.8776 46.0125 50.3679C45.5719 50.6036 45.1125 50.811 44.6344 50.9807C42.5344 51.735 40.3594 51.9895 38.1469 51.999C35.7281 52.0178 33.3469 51.7821 31.0781 50.8959C29.5969 50.3207 28.1719 49.6419 27.8531 47.794C27.7031 47.794 27.5625 47.794 27.4219 47.794C22.8188 47.794 18.2156 47.7846 13.6125 47.8034C12.9094 47.8034 12.3469 47.6714 12 47.0209C12 44.8995 12 42.7782 12 40.6568C12.3937 39.9686 13.0219 39.846 13.7438 39.9026C14.0438 39.9308 14.3438 39.9026 14.6438 39.9026C14.6438 38.8466 14.6438 37.8566 14.6438 36.829C14.2875 36.829 13.95 36.8007 13.6125 36.8384C12.9094 36.9044 12.3469 36.7158 12 36.0558C12 33.9345 12 31.8131 12 29.6918C12.3937 29.0035 13.0219 28.881 13.7438 28.9375C14.0438 28.9658 14.3438 28.9375 14.6438 28.9375C14.6438 27.8816 14.6438 26.8916 14.6438 25.8639C14.2875 25.8639 13.95 25.8356 13.6125 25.8734C12.9094 25.9582 12.3469 25.7696 12 25.1097C12 22.9883 12 20.867 12 18.7456C12.3937 18.0574 13.0312 17.9914 13.7438 18.0008C19.8937 18.0196 26.0437 18.0102 32.1937 18.0102C34.7719 18.0102 37.35 18.0102 39.9281 18.0102C40.725 18.0102 41.175 18.4533 41.175 19.2547C41.175 21.0555 41.175 22.8563 41.175 24.6665C41.175 25.4302 40.7062 25.8922 39.9375 25.8922C39.4688 25.8922 39.0094 25.8922 38.5031 25.8922C38.5031 26.0619 38.5031 26.2033 38.5031 26.3448C38.5031 26.4768 38.5031 26.6182 38.5031 26.7596C38.8313 26.7785 39.1125 26.7879 39.3938 26.8067C41.0438 26.901 42.6844 27.1273 44.25 27.6647C45.825 28.1927 47.3438 28.815 48 30.5498ZM40.05 24.7325C40.05 24.5723 40.05 24.4591 40.05 24.3366C40.05 22.7432 40.0406 21.1592 40.0594 19.5659C40.0594 19.2265 39.9656 19.1322 39.6281 19.1322C30.9375 19.1416 22.2469 19.1416 13.5563 19.1416C13.425 19.1416 13.2844 19.1605 13.1531 19.1699C13.1531 21.0461 13.1531 22.8752 13.1531 24.7325C22.1156 24.7325 31.0594 24.7325 40.05 24.7325ZM37.95 27.8816C35.9156 27.8816 34.05 28.1267 32.2594 28.6453C31.3406 28.9092 30.4594 29.2581 29.7094 29.8709C28.8094 30.5969 28.7906 31.3323 29.7 32.0488C30.1313 32.3883 30.6187 32.6617 31.125 32.8785C32.6906 33.5574 34.35 33.8496 36.0375 33.9722C38.625 34.1608 41.1938 34.0288 43.6969 33.2839C44.6531 32.9917 45.5906 32.6334 46.3406 31.9451C47.0625 31.2852 47.0531 30.6535 46.3313 29.9935C46.1906 29.8709 46.05 29.7389 45.8812 29.6541C45.3563 29.3807 44.8313 29.0789 44.2688 28.8715C42.2344 28.1078 40.0969 27.9098 37.95 27.8816ZM29.0156 33.0105C29.0156 33.1802 29.0156 33.2934 29.0156 33.4159C29.0156 34.3588 29.0437 35.3016 29.0062 36.2444C28.9781 36.8667 29.2031 37.3569 29.7 37.6586C30.3656 38.0641 31.05 38.4695 31.7812 38.7335C33.45 39.3557 35.2125 39.5726 36.9844 39.6386C39.4688 39.7328 41.925 39.5349 44.2875 38.6769C44.9625 38.4318 45.5906 38.0452 46.2 37.6586C46.6781 37.3569 46.9031 36.8761 46.8844 36.2727C46.8469 35.3204 46.875 34.3682 46.875 33.4065C46.875 33.2839 46.8656 33.1708 46.8562 33.0011C46.0031 33.6234 45.1125 34.0193 44.1844 34.3116C41.8031 35.0564 39.3656 35.2733 36.8906 35.1507C34.1437 35.0187 31.4625 34.6133 29.0156 33.0105ZM46.875 38.6486C46.8 38.6769 46.7625 38.6769 46.7344 38.6957C45.4125 39.6291 43.9031 40.0817 42.3375 40.3834C39.6562 40.9019 36.9562 40.9302 34.2656 40.506C32.4469 40.2231 30.6844 39.7706 29.1469 38.6769C29.1187 38.658 29.0812 38.6675 29.0156 38.658C29.0156 39.7046 29.0531 40.7417 29.0062 41.7788C28.9781 42.4859 29.2687 42.9762 29.8031 43.3721C30.5062 43.9001 31.3125 44.2207 32.1469 44.4847C33.6 44.9372 35.0906 45.1541 36.6094 45.2295C39.0469 45.3521 41.4562 45.1918 43.8094 44.4658C44.7562 44.1735 45.6656 43.8058 46.4062 43.1082C46.725 42.8064 46.9031 42.4482 46.8938 41.9768C46.875 41.2791 46.8844 40.5908 46.8844 39.8931C46.875 39.4877 46.875 39.0823 46.875 38.6486ZM46.875 44.2395C46.7812 44.2867 46.7438 44.3055 46.7063 44.3244C45.7125 45.0409 44.5781 45.4558 43.4062 45.7575C40.8844 46.408 38.3156 46.5306 35.7375 46.3043C33.9375 46.144 32.1656 45.8235 30.4969 45.0598C30 44.8335 29.5312 44.5412 29.0344 44.2773C29.025 44.381 29.0156 44.4847 29.0156 44.5884C29.0156 45.5878 29.025 46.5872 29.0062 47.596C28.9969 48.0391 29.1281 48.4351 29.475 48.6897C29.9625 49.0479 30.4594 49.4156 31.0031 49.6608C32.7937 50.4716 34.7062 50.7544 36.6375 50.8487C39.0562 50.9713 41.4563 50.811 43.7906 50.085C44.6531 49.8116 45.4875 49.4722 46.2 48.8877C46.6406 48.5294 46.8937 48.0957 46.8656 47.4828C46.8281 46.7192 46.8562 45.9555 46.8562 45.1824C46.875 44.8807 46.875 44.579 46.875 44.2395ZM27.9844 30.1255C23.0625 30.1255 18.1031 30.1255 13.1531 30.1255C13.1531 32.0017 13.1531 33.8496 13.1531 35.6976C18.075 35.6976 22.9688 35.6976 27.8906 35.6976C27.8906 35.5467 27.8906 35.4241 27.8906 35.2922C27.8906 34.0476 27.8813 32.7937 27.8906 31.5491C27.9 31.0872 27.9469 30.6252 27.9844 30.1255ZM13.1437 46.6532C18.075 46.6532 22.9688 46.6532 27.8719 46.6532C27.8719 44.7864 27.8719 42.9384 27.8719 41.0811C22.95 41.0811 18.0469 41.0811 13.1437 41.0811C13.1437 42.9479 13.1437 44.7864 13.1437 46.6532ZM15.7969 28.9564C15.975 28.9564 16.125 28.9564 16.275 28.9564C20.3719 28.9564 24.4781 28.9564 28.575 28.9564C28.8656 28.9564 29.1094 28.8904 29.3531 28.7207C29.7281 28.4661 30.1312 28.2493 30.5531 28.0607C32.1469 27.3536 33.8344 27.033 35.55 26.8633C36.15 26.8067 36.75 26.769 37.35 26.7313C37.35 26.4296 37.35 26.1656 37.35 25.9016C30.15 25.9016 22.9781 25.9016 15.7875 25.9016C15.7969 26.9199 15.7969 27.9098 15.7969 28.9564ZM15.8062 39.8931C19.8469 39.8931 23.8594 39.8931 27.8812 39.8931C27.8812 38.8749 27.8812 37.8755 27.8812 36.8761C23.8406 36.8761 19.8281 36.8761 15.8062 36.8761C15.8062 37.8849 15.8062 38.8749 15.8062 39.8931Z" fill="#1E62B9" fill-opacity="0.16"/>
<path d="M40.0503 24.7322C31.0597 24.7322 22.1159 24.7322 13.1534 24.7322C13.1534 22.8843 13.1534 21.0458 13.1534 19.1695C13.2847 19.1601 13.4253 19.1413 13.5566 19.1413C22.2472 19.1413 30.9378 19.1413 39.6284 19.1318C39.9659 19.1318 40.0691 19.2261 40.0597 19.5655C40.0409 21.1589 40.0503 22.7428 40.0503 24.3362C40.0503 24.4588 40.0503 24.5719 40.0503 24.7322ZM33.6566 22.4977C35.3066 22.4977 36.9566 22.4977 38.6066 22.4977C39.0847 22.4977 39.3472 22.2997 39.3472 21.9414C39.3472 21.5832 39.0753 21.3758 38.6066 21.3663C38.5691 21.3663 38.5409 21.3663 38.5034 21.3663C35.2972 21.3663 32.0816 21.3663 28.8753 21.3663C28.7253 21.3663 28.5659 21.3663 28.4253 21.4135C28.1628 21.4889 28.0128 21.6963 28.0409 21.9697C28.0597 22.262 28.2378 22.4411 28.5284 22.4883C28.6409 22.5071 28.7628 22.4977 28.8753 22.4977C30.4691 22.4977 32.0628 22.4977 33.6566 22.4977ZM23.0253 23.5631C23.9253 23.5631 24.6566 22.8277 24.6472 21.9226C24.6378 21.0458 23.9066 20.3104 23.0347 20.3009C22.1347 20.2915 21.4034 21.0269 21.4034 21.932C21.4034 22.856 22.1066 23.5631 23.0253 23.5631ZM15.3472 23.5631C16.2472 23.5725 16.9784 22.8466 16.9784 21.9414C16.9878 21.0646 16.2566 20.3198 15.3753 20.3104C14.4753 20.3009 13.7441 21.0175 13.7347 21.9226C13.7347 22.8466 14.4378 23.5631 15.3472 23.5631ZM19.2003 23.5631C20.1097 23.5631 20.8128 22.8466 20.8034 21.9226C20.7941 21.0363 20.0722 20.3104 19.2003 20.3104C18.3097 20.3104 17.5691 21.0552 17.5691 21.9414C17.5597 22.8466 18.2909 23.5631 19.2003 23.5631Z" fill="#1E62B9"/>
<path d="M37.95 27.8809C40.1062 27.9091 42.2344 28.1166 44.2687 28.8614C44.8219 29.0688 45.3469 29.3705 45.8812 29.6439C46.0406 29.7288 46.1906 29.8608 46.3312 29.9834C47.0531 30.6433 47.0625 31.275 46.3406 31.935C45.5812 32.6233 44.6531 32.991 43.6969 33.2738C41.1937 34.0281 38.625 34.1601 36.0375 33.9621C34.35 33.8395 32.6906 33.5472 31.125 32.8684C30.6281 32.6515 30.1312 32.3781 29.7 32.0387C28.7906 31.3316 28.8094 30.5868 29.7094 29.8608C30.4594 29.2574 31.35 28.9085 32.2594 28.6351C34.05 28.126 35.9062 27.8809 37.95 27.8809Z" fill="#1E62B9"/>
<path d="M29.0156 33.0104C31.4531 34.6132 34.1344 35.0186 36.8906 35.1506C39.3656 35.2638 41.8031 35.0563 44.1844 34.3115C45.1125 34.0192 46.0031 33.6232 46.8562 33.001C46.8656 33.1707 46.875 33.2933 46.875 33.4064C46.875 34.3586 46.8469 35.3203 46.8844 36.2726C46.9031 36.8854 46.6781 37.3568 46.2 37.6585C45.5906 38.0451 44.9625 38.4316 44.2875 38.6768C41.9344 39.5442 39.4688 39.7327 36.9844 39.6384C35.2125 39.5725 33.45 39.3556 31.7812 38.7333C31.05 38.4599 30.3656 38.0639 29.7 37.6585C29.2031 37.3568 28.9875 36.8666 29.0062 36.2443C29.0437 35.3015 29.0156 34.3586 29.0156 33.4158C29.0156 33.3027 29.0156 33.1895 29.0156 33.0104Z" fill="#1E62B9"/>
<path d="M46.8744 38.6484C46.8744 39.0727 46.8744 39.4875 46.8744 39.893C46.8744 40.5907 46.8556 41.2883 46.8838 41.9766C46.8931 42.4386 46.7244 42.7969 46.3963 43.108C45.6556 43.8057 44.7463 44.1734 43.7994 44.4657C41.4556 45.1916 39.0369 45.3519 36.5994 45.2293C35.09 45.1539 33.59 44.9276 32.1369 44.4845C31.3025 44.2299 30.5056 43.9 29.7931 43.372C29.2588 42.976 28.9681 42.4952 28.9963 41.7786C29.0431 40.7509 29.0056 39.7138 29.0056 38.6579C29.0713 38.6673 29.1088 38.6673 29.1369 38.6767C30.6744 39.761 32.4369 40.2135 34.2556 40.5058C36.9556 40.9301 39.6463 40.9018 42.3275 40.3832C43.8931 40.0815 45.4025 39.629 46.7244 38.6956C46.7619 38.6767 46.7994 38.6767 46.8744 38.6484Z" fill="#1E62B9"/>
<path d="M46.8751 44.2402C46.8751 44.5797 46.8751 44.8814 46.8751 45.1831C46.8751 45.9467 46.847 46.7199 46.8845 47.4835C46.9126 48.087 46.6595 48.5207 46.2189 48.8884C45.5064 49.4729 44.672 49.8123 43.8095 50.0857C41.4751 50.8117 39.0751 50.972 36.6564 50.8494C34.7157 50.7551 32.8032 50.4723 31.022 49.6615C30.4782 49.4163 29.972 49.0486 29.4939 48.6904C29.147 48.4358 29.0157 48.0398 29.0251 47.5967C29.0439 46.5973 29.0251 45.5979 29.0345 44.5891C29.0345 44.4854 29.0439 44.3911 29.0532 44.2779C29.5501 44.5514 30.0189 44.8342 30.5157 45.0605C32.1751 45.8242 33.947 46.1447 35.7564 46.305C38.3439 46.5313 40.9033 46.4087 43.4251 45.7582C44.597 45.4565 45.7314 45.0416 46.7251 44.3251C46.7439 44.2968 46.7814 44.2874 46.8751 44.2402Z" fill="#1E62B9"/>
<path d="M27.9841 30.1256C27.956 30.6348 27.8997 31.0873 27.8997 31.5399C27.8904 32.7844 27.8997 34.0384 27.8997 35.2829C27.8997 35.4054 27.8997 35.5374 27.8997 35.6883C22.9685 35.6883 18.0747 35.6883 13.1622 35.6883C13.1622 33.8404 13.1622 32.0019 13.1622 30.1162C18.1029 30.1256 23.0622 30.1256 27.9841 30.1256ZM15.3654 34.5286C16.256 34.5286 16.9685 33.8121 16.9872 32.9164C16.9966 32.0301 16.2466 31.2665 15.356 31.2759C14.4654 31.2853 13.7529 32.0019 13.7529 32.8975C13.7341 33.8121 14.4466 34.5286 15.3654 34.5286ZM21.4029 32.907C21.4029 33.8309 22.1154 34.5286 23.0435 34.5286C23.9247 34.5192 24.6466 33.7932 24.6466 32.8975C24.6466 32.0207 23.906 31.2759 23.0341 31.2665C22.1341 31.2665 21.4029 31.9924 21.4029 32.907ZM19.181 34.5286C20.0997 34.538 20.8029 33.8215 20.8029 32.8975C20.8029 32.0019 20.081 31.2759 19.1997 31.2665C18.3091 31.2665 17.5591 32.0113 17.5591 32.907C17.5685 33.8026 18.2904 34.5192 19.181 34.5286Z" fill="#1E62B9"/>
<path d="M13.1432 46.6531C13.1432 44.7863 13.1432 42.9478 13.1432 41.0811C18.0557 41.0811 22.9494 41.0811 27.8713 41.0811C27.8713 42.9384 27.8713 44.7863 27.8713 46.6531C22.9682 46.6531 18.0744 46.6531 13.1432 46.6531ZM13.7432 43.8624C13.7432 44.7863 14.4557 45.484 15.3744 45.484C16.2557 45.484 16.9776 44.7486 16.9776 43.853C16.9776 42.9761 16.2463 42.2219 15.3651 42.2219C14.4651 42.2219 13.7432 42.9478 13.7432 43.8624ZM21.4026 43.8624C21.4026 44.7863 22.1151 45.484 23.0432 45.484C23.9244 45.4746 24.6463 44.7486 24.6463 43.853C24.6463 42.9761 23.9057 42.2219 23.0338 42.2219C22.1338 42.2219 21.4026 42.9573 21.4026 43.8624ZM19.1901 45.484C20.1088 45.484 20.8119 44.7675 20.8026 43.8435C20.7932 42.9478 20.0713 42.2219 19.1901 42.2313C18.2901 42.2407 17.5494 42.9856 17.5682 43.8812C17.5776 44.7769 18.2994 45.484 19.1901 45.484Z" fill="#1E62B9"/>
<path d="M23.5217 21.9508C23.5217 22.2148 23.2967 22.4317 23.0249 22.4317C22.7436 22.4317 22.5374 22.2242 22.5374 21.9508C22.5374 21.6585 22.7624 21.4323 23.0436 21.4417C23.3061 21.4511 23.5217 21.6868 23.5217 21.9508Z" fill="#1E62B9"/>
<path d="M15.853 21.9317C15.8623 22.1957 15.6467 22.4219 15.3748 22.4314C15.0936 22.4408 14.878 22.2428 14.8686 21.9694C14.8592 21.6771 15.0748 21.4414 15.3561 21.4414C15.6186 21.4414 15.8436 21.6677 15.853 21.9317Z" fill="#1E62B9"/>
<path d="M19.2093 21.4417C19.4812 21.4511 19.6874 21.6774 19.6781 21.9508C19.6781 22.2431 19.4531 22.4505 19.1531 22.4317C18.8812 22.4128 18.6749 22.1771 18.6937 21.9131C18.7124 21.6491 18.9468 21.4323 19.2093 21.4417Z" fill="#1E62B9"/>
<path d="M15.3748 32.3968C15.6373 32.4062 15.8623 32.6419 15.8623 32.9059C15.8623 33.1793 15.6185 33.4056 15.3373 33.3962C15.056 33.3773 14.8685 33.1605 14.8779 32.8776C14.8779 32.6042 15.1123 32.3874 15.3748 32.3968Z" fill="#1E62B9"/>
<path d="M23.5215 32.8962C23.5309 33.1602 23.3059 33.3864 23.0434 33.3959C22.7621 33.4053 22.5465 33.2073 22.5371 32.9245C22.5278 32.6322 22.7528 32.3965 23.0246 32.3965C23.2871 32.4059 23.5121 32.6322 23.5215 32.8962Z" fill="#1E62B9"/>
<path d="M19.2 33.3972C18.9281 33.3972 18.7031 33.1898 18.6937 32.9258C18.6844 32.6524 18.9281 32.4072 19.2 32.4072C19.4719 32.4167 19.6781 32.6335 19.6781 32.9069C19.6781 33.1803 19.4812 33.3878 19.2 33.3972Z" fill="#1E62B9"/>
<path d="M15.8531 43.8809C15.8438 44.1449 15.6188 44.3618 15.3469 44.3524C15.0656 44.3524 14.8688 44.1449 14.8688 43.8621C14.8688 43.5792 15.1031 43.3435 15.3844 43.3624C15.6469 43.3812 15.8625 43.6169 15.8531 43.8809Z" fill="#1E62B9"/>
<path d="M23.0059 43.3626C23.2684 43.3532 23.5028 43.5794 23.5215 43.8434C23.5403 44.1168 23.3059 44.362 23.0247 44.362C22.7434 44.362 22.5372 44.1546 22.5372 43.8717C22.5278 43.5983 22.7434 43.372 23.0059 43.3626Z" fill="#1E62B9"/>
<path d="M19.1906 43.3623C19.4625 43.3623 19.6781 43.5792 19.6781 43.8526C19.6875 44.1354 19.4812 44.3428 19.2094 44.3523C18.9281 44.3617 18.6844 44.126 18.6937 43.8526C18.6937 43.5886 18.9281 43.3623 19.1906 43.3623Z" fill="#1E62B9"/>
<path d="M0 4C0 1.79086 1.79086 0 4 0H56C58.2091 0 60 1.79086 60 4V9H0V4Z" fill="#1E3F69"/>
<circle cx="4.5" cy="4.5" r="1.5" fill="#FF4F59"/>
<circle cx="9.5" cy="4.5" r="1.5" fill="#FCFEFF"/>
<circle cx="14.5" cy="4.5" r="1.5" fill="#FFF507"/>
</svg>
