<svg width="60" height="60" viewBox="0 0 60 60" fill="none" xmlns="http://www.w3.org/2000/svg">
<ellipse cx="37.4615" cy="45.4762" rx="6.46154" ry="6.47619" fill="#1E62B9"/>
<rect width="60" height="60" rx="4" fill="#1E62B9" fill-opacity="0.1"/>
<path d="M29.925 50.75C29.775 50.75 29.6464 50.75 29.5178 50.75C26.0357 50.75 22.5536 50.75 19.0714 50.75C16.6179 50.75 15 49.1428 15 46.6893C15 38.15 15 29.6107 15 21.0607C15 18.6071 16.6179 17 19.0714 17C22.0821 17 25.0929 17 28.1036 17C28.2321 17 28.3714 17 28.5428 17C28.5428 17.1607 28.5428 17.3107 28.5428 17.45C28.5428 19.5286 28.5428 21.5964 28.5428 23.675C28.5536 26.4929 30.525 28.475 33.3428 28.475C35.4214 28.475 37.4893 28.475 39.5678 28.475C39.6964 28.475 39.825 28.475 39.975 28.475C39.975 30.8321 39.975 33.1464 39.975 35.4928C35.7214 34.8607 32.1964 36.1357 29.8071 39.7464C27.4393 43.3571 27.6643 47.075 29.925 50.75ZM27.5357 30.9071C26.8821 30.9071 26.2286 30.9071 25.5643 30.9071C23.6893 30.9071 21.8143 30.9071 19.9393 30.9071C19.1679 30.9071 18.6536 31.4 18.675 32.0964C18.6964 32.7714 19.2 33.2214 19.9714 33.2214C24.0321 33.2214 28.0821 33.2214 32.1428 33.2214C33.1286 33.2214 34.125 33.2214 35.1107 33.2214C35.6893 33.2214 36.1286 32.9107 36.2893 32.4178C36.5464 31.6357 35.9786 30.8964 35.0893 30.8964C32.5714 30.9071 30.0536 30.9071 27.5357 30.9071ZM23.7321 39.4357C25.0286 39.4357 26.325 39.4357 27.6214 39.4357C28.1464 39.4357 28.5214 39.2107 28.7357 38.7286C29.0786 37.9357 28.5107 37.1428 27.5786 37.1321C25.0178 37.1214 22.4679 37.1214 19.9071 37.1321C19.7357 37.1321 19.5536 37.1643 19.3929 37.2178C18.8679 37.4107 18.5893 37.9357 18.6857 38.5036C18.7714 39.0286 19.2214 39.4143 19.7893 39.425C21.1071 39.4464 22.425 39.4357 23.7321 39.4357ZM22.8964 26.9857C23.8714 26.9857 24.8464 26.9964 25.8214 26.9857C26.0143 26.9857 26.2286 26.9643 26.4107 26.9C26.9036 26.7179 27.2036 26.2036 27.1286 25.6893C27.0643 25.175 26.6464 24.7143 26.1214 24.7143C23.9786 24.6929 21.8464 24.7036 19.7036 24.7036C19.5964 24.7036 19.4893 24.7357 19.3929 24.7786C18.8786 24.9821 18.6107 25.4643 18.6857 26.0321C18.7607 26.5571 19.2 26.975 19.7571 26.9857C20.8071 26.9964 21.8571 26.9857 22.8964 26.9857ZM22.7036 45.6821C23.625 45.6821 24.5464 45.6821 25.4678 45.6821C26.2393 45.6821 26.775 45.2 26.7643 44.5143C26.7643 43.85 26.2393 43.3571 25.4893 43.3571C23.6357 43.3464 21.7714 43.3464 19.9179 43.3571C19.1679 43.3571 18.6643 43.85 18.6643 44.525C18.6643 45.2 19.1786 45.6714 19.9286 45.6714C20.8607 45.6821 21.7821 45.6821 22.7036 45.6821Z" fill="#1E62B9"/>
<path d="M45.75 44.8857C45.75 49.225 42.225 52.75 37.8857 52.75C33.5357 52.7607 29.9893 49.225 30 44.8643C30 40.5143 33.5464 36.9893 37.9072 37C42.2357 37.0107 45.75 40.5357 45.75 44.8857ZM39.0322 44.9072C39.1607 44.9714 39.225 45.0143 39.3 45.0464C39.8143 45.3036 40.3714 45.1964 40.7143 44.7786C41.0572 44.3607 41.1 43.7607 40.7357 43.3322C40.0607 42.55 39.375 41.7786 38.6679 41.0393C38.25 40.6 37.5536 40.5786 37.1464 41.0072C36.4072 41.7786 35.6893 42.5822 35.0036 43.3964C34.6714 43.7929 34.725 44.3714 35.0464 44.7679C35.3679 45.1643 35.9036 45.2929 36.3857 45.0893C36.4929 45.0464 36.5893 44.9929 36.6857 44.9393C36.7179 44.9714 36.7286 44.9822 36.7286 44.9929C36.7286 45.9036 36.7072 46.8143 36.75 47.725C36.7607 48.025 36.8679 48.3572 37.0286 48.6143C37.2857 49 37.8107 49.1072 38.25 48.9679C38.7107 48.8072 39.0214 48.4 39.0322 47.8643C39.0322 46.9 39.0322 45.9357 39.0322 44.9072Z" fill="#1E62B9"/>
<path d="M33 46.9145C33 46.7292 33 46.5411 33 46.3559C33.0102 46.325 33.0281 46.2941 33.0332 46.2632C33.1405 45.6177 33.447 45.1152 33.9451 44.7587C34.0013 44.7194 34.0013 44.6829 33.9834 44.6184C33.7203 43.6556 34.3742 42.676 35.2886 42.6676C35.4547 42.6648 35.6207 42.7069 35.7944 42.7321C35.8097 42.7041 35.8301 42.6592 35.8506 42.6142C36.4125 41.4269 37.7126 40.7617 38.8851 41.0789C40.0396 41.3932 40.7548 42.2044 41.0102 43.4816C41.0536 43.6949 41.1175 43.7679 41.3014 43.8325C42.1877 44.1384 42.719 44.8205 42.9413 45.8029C42.9642 45.9012 42.9796 45.9994 43 46.0976C43 46.2829 43 46.471 43 46.6562C42.9898 46.6927 42.9745 46.7264 42.9693 46.7629C42.8825 47.3608 42.6424 47.8744 42.2439 48.2898C41.8072 48.7446 41.2912 48.9972 40.6807 49C40.0473 49 39.4112 49 38.7778 49C38.742 49 38.7088 49 38.6731 49C38.6731 48.2 38.6731 47.4113 38.6731 46.6169C38.9055 46.6169 39.1277 46.6169 39.3525 46.6169C39.4496 46.6169 39.5236 46.5804 39.5696 46.4878C39.6258 46.3727 39.5849 46.2773 39.5211 46.1818C39.0817 45.5166 38.645 44.8486 38.2056 44.1833C38.0728 43.9812 37.917 43.9812 37.7816 44.1861C37.5415 44.551 37.3014 44.9159 37.0613 45.2808C36.857 45.5896 36.6552 45.9012 36.4508 46.2099C36.3946 46.2941 36.3716 46.3839 36.4176 46.4794C36.461 46.5748 36.5351 46.6169 36.6322 46.6141C36.7497 46.6113 36.8672 46.6141 36.9847 46.6141C37.0971 46.6141 37.2095 46.6141 37.3218 46.6141C37.3218 47.4141 37.3218 48.2 37.3218 48.9916C37.2989 48.9944 37.281 48.9972 37.2605 48.9972C36.4891 48.9972 35.7178 49.0028 34.9464 48.9944C34.7957 48.9916 34.6398 48.9635 34.4968 48.913C33.7229 48.6323 33.2631 48.0288 33.0536 47.1755C33.0383 47.0885 33.0204 47.0015 33 46.9145Z" fill="white"/>
<path d="M30.4821 17.3C30.8571 17.5679 31.1893 17.7393 31.4464 17.9964C33.9857 20.5143 36.5035 23.0429 39.0214 25.5714C39.2785 25.8286 39.45 26.1607 39.7178 26.5357C39.5035 26.5464 39.4071 26.5571 39.3107 26.5571C37.3285 26.5571 35.3464 26.5571 33.375 26.5571C31.6071 26.5571 30.4928 25.4429 30.4928 23.675C30.4928 21.7036 30.4928 19.7429 30.4928 17.7714C30.4821 17.6536 30.4821 17.5357 30.4821 17.3Z" fill="#1E62B9"/>
<path d="M0 4C0 1.79086 1.79086 0 4 0H56C58.2091 0 60 1.79086 60 4V9H0V4Z" fill="#1E3F69"/>
<circle cx="4.5" cy="4.5" r="1.5" fill="#FF4F59"/>
<circle cx="9.5" cy="4.5" r="1.5" fill="#FCFEFF"/>
<circle cx="14.5" cy="4.5" r="1.5" fill="#FFF507"/>
</svg>
