<svg width="60" height="60" viewBox="0 0 60 60" fill="none" xmlns="http://www.w3.org/2000/svg">
<rect width="60" height="60" rx="4" fill="#1E62B9" fill-opacity="0.1"/>
<path d="M0 4C0 1.79086 1.79086 0 4 0H56C58.2091 0 60 1.79086 60 4V9H0V4Z" fill="#1E3F69"/>
<circle cx="4.5" cy="4.5" r="1.5" fill="#FF4F59"/>
<circle cx="9.5" cy="4.5" r="1.5" fill="white"/>
<circle cx="14.5" cy="4.5" r="1.5" fill="#FFF507"/>
<path d="M43.9996 32.6841C43.9996 38.0155 43.9996 43.3469 43.9996 48.6783C43.9996 49.4149 43.9277 49.4851 43.1958 49.4851C35.2538 49.4851 27.2998 49.4851 19.3578 49.4851C18.6259 49.4851 18.566 49.4266 18.566 48.7134C18.566 38.0623 18.566 27.4111 18.566 16.76C18.566 16.0234 18.59 16 19.3578 16C27.3478 16 35.3378 16 43.3278 16C43.9757 16 43.9757 16 43.9757 16.6314C43.9757 21.9745 43.9757 27.3293 43.9757 32.6724C43.9876 32.6841 43.9996 32.6841 43.9996 32.6841ZM35.6617 22.5824C36.2256 22.5824 36.7654 22.5824 37.2933 22.5824C37.6172 22.5824 37.8812 22.4772 37.8692 22.1265C37.8572 21.7991 37.6052 21.7056 37.2933 21.7172C36.7534 21.7289 36.2136 21.7172 35.6857 21.7172C35.4698 20.513 35.4338 20.4662 34.1501 20.2441C34.1501 19.7297 34.1381 19.2035 34.1501 18.6774C34.1501 18.3617 34.0781 18.1045 33.7062 18.1045C33.3343 18.1045 33.2623 18.3851 33.2623 18.6891C33.2623 19.2152 33.2623 19.7297 33.2623 20.2675C32.7105 20.2675 32.2186 20.2675 31.6907 20.2675C31.6907 19.7413 31.6907 19.2503 31.6907 18.7592C31.6907 18.4319 31.6667 18.1045 31.2228 18.1045C30.8149 18.1045 30.7909 18.4202 30.7909 18.7359C30.8029 19.2503 30.7909 19.753 30.7909 20.2675C30.2391 20.2675 29.7232 20.2675 29.1833 20.2675C29.1833 19.7297 29.1713 19.2152 29.1833 18.7125C29.1833 18.3851 29.1353 18.1045 28.7274 18.1162C28.3555 18.1279 28.2955 18.4085 28.2955 18.7125C28.2955 19.2386 28.2955 19.753 28.2955 20.2675C27.1078 20.4195 26.9759 20.5481 26.7839 21.7289C26.292 21.7289 25.8002 21.7289 25.3083 21.7289C24.9724 21.7289 24.5765 21.7056 24.5885 22.1615C24.6005 22.6175 24.9964 22.5824 25.3323 22.5824C25.8242 22.5824 26.304 22.5824 26.8079 22.5824C26.8079 23.1203 26.8079 23.6113 26.8079 24.1257C26.2321 24.1257 25.6802 24.1257 25.1283 24.1257C24.8284 24.1257 24.5765 24.231 24.5885 24.57C24.6005 24.9091 24.8404 24.9909 25.1523 24.9909C25.7042 24.9792 26.2561 24.9909 26.8079 24.9909C26.8079 25.5404 26.8079 26.0432 26.8079 26.5576C26.2561 26.5576 25.7402 26.5693 25.2123 26.5576C24.9004 26.5576 24.6125 26.6161 24.6005 26.9668C24.5885 27.3526 24.8764 27.4228 25.2243 27.4228C25.7642 27.4111 26.292 27.4228 26.8199 27.4228C26.8799 28.4984 27.0719 28.6855 28.2955 28.896C28.2955 29.3987 28.2955 29.9131 28.2955 30.4159C28.2955 30.7316 28.3555 31.0355 28.7634 31.0238C29.1473 31.0122 29.1953 30.7316 29.1953 30.4276C29.1833 29.9014 29.1953 29.387 29.1953 28.8726C29.7592 28.8726 30.2751 28.8726 30.8029 28.8726C30.8029 29.4221 30.8029 29.9248 30.8029 30.4393C30.8029 30.7432 30.8509 31.0238 31.2348 31.0238C31.6067 31.0238 31.6907 30.7549 31.6907 30.451C31.6907 29.9248 31.6907 29.4104 31.6907 28.8609C32.2306 28.8609 32.7344 28.8609 33.2623 28.8609C33.2623 29.387 33.2623 29.9014 33.2623 30.4159C33.2623 30.7316 33.3103 31.0355 33.7302 31.0238C34.1141 31.0238 34.1621 30.7316 34.1501 30.4276C34.1381 29.9014 34.1501 29.387 34.1501 28.9895C34.594 28.8024 35.0379 28.744 35.2898 28.4984C35.5417 28.2529 35.6017 27.8203 35.7577 27.4228C36.2136 27.4228 36.7414 27.4111 37.2573 27.4228C37.5812 27.4345 37.8572 27.341 37.8572 26.9902C37.8572 26.6395 37.5932 26.5459 37.2693 26.5459C36.7295 26.5576 36.2016 26.5459 35.6617 26.5459C35.6617 26.0081 35.6617 25.5054 35.6617 24.9792C36.2016 24.9792 36.7055 24.9675 37.2093 24.9792C37.5333 24.9909 37.8572 24.9442 37.8572 24.5583C37.8572 24.1725 37.5452 24.114 37.2213 24.114C36.7055 24.114 36.1776 24.114 35.6497 24.114C35.6617 23.5996 35.6617 23.1203 35.6617 22.5824ZM31.3068 33.0465C28.1276 33.0465 24.9484 33.0465 21.7692 33.0465C20.9654 33.0465 20.7374 33.2687 20.7374 34.0637C20.7374 34.5898 20.7254 35.1159 20.7374 35.6421C20.7494 36.1682 21.0254 36.4488 21.5772 36.4488C28.0436 36.4488 34.498 36.4488 40.9644 36.4488C41.5283 36.4488 41.7922 36.1799 41.8042 35.6538C41.8162 35.1159 41.8042 34.5781 41.8042 34.0286C41.8042 33.257 41.5762 33.0348 40.7964 33.0348C37.6292 33.0465 34.474 33.0465 31.3068 33.0465ZM31.2588 39.1613C28.0196 39.1613 24.7804 39.1613 21.5532 39.1613C20.9534 39.1613 20.7014 39.2899 20.7494 39.6056C20.8214 40.0849 21.2053 40.0265 21.5532 40.0265C28.0076 40.0265 34.474 40.0265 40.9284 40.0265C41.0724 40.0265 41.2643 40.0615 41.3723 39.9914C41.5283 39.8979 41.7202 39.7108 41.7082 39.5705C41.7082 39.4302 41.4923 39.2782 41.3363 39.1847C41.2403 39.1262 41.0724 39.173 40.9404 39.173C37.7012 39.1613 34.474 39.1613 31.2588 39.1613ZM31.2108 42.8559C27.9836 42.8559 24.7684 42.8559 21.5412 42.8559C21.4213 42.8559 21.2773 42.8091 21.1933 42.8675C21.0254 42.9728 20.7734 43.1248 20.7734 43.2651C20.7734 43.4054 21.0014 43.5807 21.1573 43.6977C21.2293 43.7561 21.3853 43.7094 21.5052 43.7094C27.9956 43.7094 34.486 43.7094 40.9644 43.7094C41.1084 43.7094 41.3003 43.7444 41.3963 43.6743C41.5283 43.5807 41.6962 43.3937 41.6842 43.2534C41.6722 43.1131 41.4923 42.9494 41.3483 42.8675C41.2283 42.8091 41.0604 42.8442 40.9044 42.8442C37.6772 42.8559 34.438 42.8559 31.2108 42.8559ZM31.2588 46.5387C28.0196 46.5387 24.7924 46.5387 21.5532 46.5387C20.9654 46.5387 20.7014 46.679 20.7494 46.983C20.8214 47.4507 21.2053 47.4039 21.5532 47.4039C28.0076 47.4039 34.462 47.4039 40.9284 47.4039C41.0964 47.4039 41.2883 47.439 41.4083 47.3689C41.5523 47.287 41.7082 47.0883 41.7082 46.948C41.7082 46.8077 41.5163 46.644 41.3723 46.5621C41.2763 46.5037 41.1084 46.5387 40.9764 46.5387C37.7372 46.5387 34.498 46.5387 31.2588 46.5387Z" fill="#1E62B9"/>
<path d="M41.4217 50.3394C41.4217 50.7603 41.4217 51.1227 41.4217 51.4969C41.4217 51.8476 41.2537 52.0113 40.8938 51.9996C40.8098 51.9996 40.7139 51.9996 40.6299 51.9996C32.6879 51.9996 24.7338 51.9996 16.7918 51.9996C16.048 51.9996 16 51.9411 16 51.2396C16 40.5885 16 29.9374 16 19.2862C16 18.5964 16.072 18.5262 16.8038 18.5262C17.0797 18.5262 17.3677 18.5262 17.6796 18.5262C17.6796 18.7367 17.6796 18.9121 17.6796 19.0874C17.6796 28.9669 17.6796 38.8347 17.6796 48.7142C17.6796 49.9419 18.1115 50.3628 19.3832 50.3628C26.5334 50.3628 33.6836 50.3628 40.8338 50.3628C41.0138 50.3394 41.1937 50.3394 41.4217 50.3394Z" fill="#1E62B9"/>
<path d="M31.2122 27.9744C30.2044 27.9744 29.2087 27.9627 28.2009 27.9744C27.853 27.9744 27.7331 27.8809 27.7331 27.5301C27.7451 25.5425 27.7451 23.5549 27.7331 21.5673C27.7331 21.2517 27.829 21.123 28.165 21.123C30.2164 21.1347 32.2679 21.1347 34.3314 21.123C34.6793 21.123 34.7633 21.2633 34.7633 21.579C34.7513 23.5666 34.7513 25.5542 34.7633 27.5418C34.7633 27.8575 34.6553 27.9861 34.3194 27.9744C33.2877 27.9744 32.2439 27.9744 31.2122 27.9744ZM31.2362 26.3726C31.6441 26.3726 32.04 26.3726 32.4479 26.3726C32.8678 26.3726 33.0957 26.1739 33.1077 25.7647C33.1197 24.9579 33.1197 24.1629 33.1077 23.3562C33.1077 22.947 32.8798 22.7482 32.4599 22.7482C31.6561 22.7482 30.8403 22.7482 30.0365 22.7482C29.6166 22.7482 29.4006 22.9703 29.4006 23.3679C29.3887 24.1512 29.3887 24.9462 29.4006 25.7296C29.4126 26.1622 29.6286 26.3492 30.0845 26.3609C30.4564 26.3843 30.8403 26.3726 31.2362 26.3726Z" fill="#1E62B9"/>
<path d="M40.9299 33.9336C40.9299 34.4831 40.9299 35.0092 40.9299 35.5704C34.5115 35.5704 28.1051 35.5704 21.6627 35.5704C21.6627 35.0443 21.6627 34.4948 21.6627 33.9336C28.0691 33.9336 34.4875 33.9336 40.9299 33.9336Z" fill="#1E62B9"/>
<path d="M30.2893 25.4831C30.2893 24.8751 30.2893 24.2671 30.2893 23.6475C30.9251 23.6475 31.561 23.6475 32.2208 23.6475C32.2208 24.2671 32.2208 24.8634 32.2208 25.4831C31.573 25.4831 30.9491 25.4831 30.2893 25.4831Z" fill="#1E62B9"/>
</svg>
