<svg width="60" height="60" viewBox="0 0 60 60" fill="none" xmlns="http://www.w3.org/2000/svg">
<rect width="60" height="60" rx="4" fill="#1E62B9" fill-opacity="0.1"/>
<g clip-path="url(#clip0_591_1578)">
<path d="M43.0089 53C34.3123 53 25.6157 53 16.9192 53C16.5655 52.775 16.4932 52.4454 16.4932 52.0355C16.5012 40.6785 16.5012 29.3135 16.4932 17.9565C16.4932 17.5546 16.5735 17.2251 16.9192 16.992C23.8555 16.992 30.7919 16.992 37.7363 16.992C37.7363 18.5352 37.7202 20.0864 37.7443 21.6296C37.7604 22.4816 38.4275 23.2853 39.2634 23.3577C40.236 23.4381 41.2165 23.3738 42.2132 23.3738C42.2132 22.9638 42.2132 22.562 42.2132 22.1279C41.4255 22.1279 40.6539 22.1279 39.8823 22.1279C39.2152 22.1279 39.0062 21.919 39.0062 21.2358C39.0062 20.2311 39.0062 19.2184 39.0062 18.2137C39.0062 18.1333 39.0223 18.0449 39.0303 17.9565C40.453 19.3711 41.8595 20.7455 43.234 22.1521C43.4027 22.3208 43.4992 22.6263 43.4992 22.8754C43.5153 32.6249 43.5072 42.3744 43.5153 52.1239C43.5072 52.5419 43.3867 52.8393 43.0089 53ZM30.0042 49.142C33.3317 49.142 36.6593 49.142 39.9868 49.142C40.7504 49.142 40.9272 48.9652 40.9272 48.1855C40.9272 44.1105 40.9272 40.0275 40.9272 35.9525C40.9272 35.1809 40.7423 34.996 39.9788 34.996C33.3237 34.996 26.6686 34.996 20.0136 34.996C19.2581 34.996 19.0732 35.1809 19.0732 35.9203C19.0732 40.0194 19.0732 44.1186 19.0732 48.2257C19.0732 48.9491 19.2661 49.142 19.9814 49.142C23.325 49.142 26.6687 49.142 30.0042 49.142ZM30.0364 26.002C26.6767 26.002 23.309 26.002 19.9493 26.002C19.2822 26.002 19.0732 26.211 19.0732 26.8861C19.0732 28.4454 19.0732 30.0047 19.0732 31.564C19.0732 32.2231 19.2822 32.432 19.9252 32.432C26.6365 32.432 33.3478 32.432 40.0672 32.432C40.7182 32.432 40.9272 32.2231 40.9272 31.572C40.9272 30.0127 40.9272 28.4535 40.9272 26.8942C40.9272 26.203 40.7263 26.002 40.019 26.002C36.6914 26.002 33.3639 26.002 30.0364 26.002ZM19.0812 23.4059C24.2333 23.4059 29.3532 23.4059 34.4811 23.4059C34.4811 22.9799 34.4811 22.578 34.4811 22.1601C29.3371 22.1601 24.2172 22.1601 19.0812 22.1601C19.0812 22.578 19.0812 22.9719 19.0812 23.4059ZM34.4891 19.6042C30.1891 19.6042 25.9212 19.6042 21.6613 19.6042C21.6613 20.0382 21.6613 20.4401 21.6613 20.8419C25.9453 20.8419 30.2132 20.8419 34.4891 20.8419C34.4891 20.416 34.4891 20.0141 34.4891 19.6042ZM19.1054 19.5801C19.1054 19.998 19.1054 20.416 19.1054 20.8419C19.5233 20.8419 19.9252 20.8419 20.3431 20.8419C20.3431 20.416 20.3431 19.998 20.3431 19.5801C19.9252 19.5801 19.5313 19.5801 19.1054 19.5801Z" fill="#1E62B9"/>
<path d="M39.6251 47.856C33.1951 47.856 26.7972 47.856 20.3833 47.856C20.3833 44.006 20.3833 40.1721 20.3833 36.3061C26.7892 36.3061 33.1951 36.3061 39.6251 36.3061C39.6251 40.148 39.6251 43.9899 39.6251 47.856Z" fill="#1E62B9"/>
<path d="M20.3755 31.1219C20.3755 29.8439 20.3755 28.5821 20.3755 27.2961C26.7894 27.2961 33.1953 27.2961 39.6173 27.2961C39.6173 28.566 39.6173 29.8359 39.6173 31.1219C33.2114 31.1219 26.8135 31.1219 20.3755 31.1219Z" fill="#1E62B9"/>
</g>
<path d="M0 4C0 1.79086 1.79086 0 4 0H56C58.2091 0 60 1.79086 60 4V9H0V4Z" fill="#1E3F69"/>
<circle cx="4.5" cy="4.5" r="1.5" fill="#FF4F59"/>
<circle cx="9.5" cy="4.5" r="1.5" fill="#FCFEFF"/>
<circle cx="14.5" cy="4.5" r="1.5" fill="#FFF507"/>
<defs>
<clipPath id="clip0_591_1578">
<rect width="36" height="36" fill="white" transform="translate(12 17)"/>
</clipPath>
</defs>
</svg>
