<svg width="60" height="60" viewBox="0 0 60 60" fill="none" xmlns="http://www.w3.org/2000/svg">
<rect width="60" height="60" rx="4" fill="#1E62B9" fill-opacity="0.1"/>
<path d="M44 52C34.6667 52 25.3333 52 16 52C16 40 16 28 16 16C22.4615 16 28.9231 16 35.3846 16C35.3846 18.8031 35.3846 21.6156 35.3846 24.4469C38.2756 24.4469 41.1282 24.4469 44 24.4469C44 33.6531 44 42.8219 44 52ZM39.6636 37.225C39.6636 36.5125 39.6636 35.8188 39.6636 35.1063C38.9361 35.1063 38.2373 35.1063 37.5097 35.1063C37.5097 34.3938 37.5097 33.7094 37.5097 33.0438C36.7822 33.0438 36.0834 33.0438 35.3559 33.0438C35.3559 33.7563 35.3559 34.4406 35.3559 35.1063C31.7566 35.1063 28.186 35.1063 24.5867 35.1063C24.5867 34.3938 24.5867 33.7094 24.5867 33.0438C23.8591 33.0438 23.1603 33.0438 22.4328 33.0438C22.4328 33.7563 22.4328 34.4406 22.4328 35.1531C21.7053 35.1531 21.0065 35.1531 20.3268 35.1531C20.3268 35.8656 20.3268 36.55 20.3268 37.2625C21.0544 37.2625 21.7532 37.2625 22.4328 37.2625C22.4328 39.3813 22.4328 41.4719 22.4328 43.5906C21.7053 43.5906 21.0065 43.5906 20.3268 43.5906C20.3268 44.3031 20.3268 44.9875 20.3268 45.7C21.0544 45.7 21.7532 45.7 22.4807 45.7C22.4807 46.4125 22.4807 47.0969 22.4807 47.7625C23.2082 47.7625 23.907 47.7625 24.6345 47.7625C24.6345 47.05 24.6345 46.3656 24.6345 45.7C28.2338 45.7 31.8044 45.7 35.4038 45.7C35.4038 46.4125 35.4038 47.0969 35.4038 47.7625C36.1313 47.7625 36.8301 47.7625 37.5576 47.7625C37.5576 47.05 37.5576 46.3656 37.5576 45.6531C38.2851 45.6531 38.9839 45.6531 39.6636 45.6531C39.6636 44.9406 39.6636 44.2562 39.6636 43.5437C38.9361 43.5437 38.2373 43.5437 37.5576 43.5437C37.5576 41.425 37.5576 39.3344 37.5576 37.225C38.2756 37.225 38.9648 37.225 39.6636 37.225ZM24.6345 28.6656C24.6345 29.3875 24.6345 30.0719 24.6345 30.7469C29.6602 30.7469 34.6667 30.7469 39.6636 30.7469C39.6636 30.0438 39.6636 29.3594 39.6636 28.6656C34.6475 28.6656 29.6506 28.6656 24.6345 28.6656ZM33.2116 20.2469C30.3398 20.2469 27.4776 20.2469 24.625 20.2469C24.625 20.95 24.625 21.625 24.625 22.3C27.4968 22.3 30.359 22.3 33.2116 22.3C33.2116 21.5969 33.2116 20.9219 33.2116 20.2469ZM24.6154 26.5281C27.5063 26.5281 30.359 26.5281 33.2021 26.5281C33.2021 25.825 33.2021 25.1406 33.2021 24.4562C30.3303 24.4562 27.4776 24.4562 24.6154 24.4562C24.6154 25.15 24.6154 25.8344 24.6154 26.5281ZM20.3268 20.2281C20.3268 20.95 20.3268 21.6344 20.3268 22.3094C21.0448 22.3094 21.7436 22.3094 22.4424 22.3094C22.4424 21.6063 22.4424 20.9219 22.4424 20.2281C21.7244 20.2281 21.0352 20.2281 20.3268 20.2281ZM20.3268 24.4469C20.3268 25.1594 20.3268 25.8438 20.3268 26.5281C21.0448 26.5281 21.7436 26.5281 22.4424 26.5281C22.4424 25.825 22.4424 25.1406 22.4424 24.4469C21.7244 24.4469 21.0352 24.4469 20.3268 24.4469ZM20.3268 28.6656C20.3268 29.3781 20.3268 30.0625 20.3268 30.7469C21.0448 30.7469 21.7436 30.7469 22.4424 30.7469C22.4424 30.0438 22.4424 29.3594 22.4424 28.6656C21.7244 28.6656 21.0352 28.6656 20.3268 28.6656Z" fill="#1E62B9"/>
<path d="M43.1957 22.3184C41.3769 22.3184 39.472 22.3184 37.5479 22.3184C37.5479 20.434 37.5479 18.5684 37.5479 16.7871C39.4145 18.6059 41.3195 20.4715 43.1957 22.3184Z" fill="#1E62B9"/>
<path d="M24.6154 43.5436C24.6154 41.4342 24.6154 39.3529 24.6154 37.2529C28.1955 37.2529 31.7661 37.2529 35.3559 37.2529C35.3559 39.3436 35.3559 41.4342 35.3559 43.5436C31.7948 43.5436 28.2242 43.5436 24.6154 43.5436Z" fill="#1E62B9"/>
<path d="M0 4C0 1.79086 1.79086 0 4 0H56C58.2091 0 60 1.79086 60 4V9H0V4Z" fill="#1E3F69"/>
<circle cx="4.5" cy="4.5" r="1.5" fill="#FF4F59"/>
<circle cx="9.5" cy="4.5" r="1.5" fill="#FCFEFF"/>
<circle cx="14.5" cy="4.5" r="1.5" fill="#FFF507"/>
</svg>
