<svg width="60" height="60" viewBox="0 0 60 60" fill="none" xmlns="http://www.w3.org/2000/svg">
<rect width="60" height="60" rx="4" fill="#1E62B9" fill-opacity="0.1"/>
<path fill-rule="evenodd" clip-rule="evenodd" d="M28 23H44C45.6569 23 47 24.3431 47 26V35.5V39L46.7939 38.9485C45.6118 38.653 44.38 38.6154 43.1821 38.8383L42.9527 38.881C42.8178 38.9061 42.6854 38.9428 42.5568 38.9906L41.7326 39.2973C39.7169 40.0473 38.2183 41.7674 37.7518 43.867L37.6719 44.2264C37.5576 44.7406 37.5 45.2657 37.5 45.7925C37.5 46.263 37.546 46.7325 37.6374 47.1941L37.7969 48H28.5H13C11.3431 48 10 46.6569 10 45V22C10 20.3431 11.3431 19 13 19H23.5L28 23ZM25.2804 28.8983C25.2717 28.9072 25.263 28.9161 25.2457 28.9606C26.7372 31.6184 28.2287 34.2673 29.7376 36.9074C29.7896 37.0052 29.963 37.0852 30.0845 37.0852C31.2814 37.0985 32.4832 37.0968 33.6826 37.0952H33.6834H33.6842C34.0831 37.0946 34.4818 37.0941 34.8799 37.0941C34.9373 37.0941 35.0007 37.088 35.075 37.0808L35.0751 37.0808L35.1227 37.0763C33.5011 34.0896 31.8968 31.1473 30.2752 28.205C30.2232 28.1072 30.0411 28.0361 29.9197 28.0361C29.5929 28.0331 29.2661 28.0381 28.9396 28.043L28.9395 28.043C28.2871 28.0529 27.636 28.0627 26.9887 28.0094C26.1909 27.9472 25.6446 28.1872 25.2804 28.8983ZM24.8815 29.6717C24.9839 29.8601 25.0843 30.0442 25.1829 30.2251L25.1832 30.2256C25.3683 30.5653 25.5473 30.8937 25.7226 31.2184C25.8887 31.5236 26.0539 31.8297 26.2193 32.1361L26.2197 32.1369L26.2197 32.1369C26.5984 32.8385 26.978 33.5417 27.3703 34.2407C27.509 34.4807 27.4917 34.6674 27.3616 34.9074C26.2481 36.9709 25.1472 39.0473 24.0482 41.1202L24.048 41.1206L23.468 42.2142C23.3379 42.4631 23.1905 42.5253 22.9217 42.5609C22.3927 42.6231 22.1066 42.4098 21.8464 41.9475C21.5031 41.3303 21.1373 40.7296 20.7705 40.1274L20.7705 40.1273C20.5351 39.7407 20.2993 39.3535 20.0687 38.9608C20.008 38.8541 19.9733 38.6586 20.0254 38.5608C20.8594 37.0311 21.6958 35.5015 22.537 33.963L22.5379 33.9613C23.3144 32.5412 24.0949 31.1136 24.8815 29.6717ZM35.0445 38.0096H26.6504C26.2886 38.6693 25.9286 39.3272 25.5695 39.9834C25.1107 40.8216 24.6535 41.6571 24.1963 42.4897C24.2069 42.5006 24.2146 42.51 24.2206 42.5173C24.2294 42.5279 24.2345 42.5342 24.2396 42.5342C25.2947 42.5342 26.3497 42.5352 27.4048 42.5361C29.5149 42.5381 31.625 42.5401 33.7351 42.5342C33.8305 42.5342 33.9519 42.4542 34.0039 42.3742C34.6977 41.2808 35.3914 40.1875 36.0851 39.0852C36.1285 39.0141 36.1718 38.8985 36.1458 38.8363C36.1194 38.7854 36.0935 38.7332 36.0675 38.6808C35.9573 38.4582 35.8443 38.2301 35.6689 38.0719C35.5697 37.9837 35.3847 37.9938 35.2063 38.0036C35.1508 38.0066 35.096 38.0096 35.0445 38.0096Z" fill="#1E62B9"/>
<path fill-rule="evenodd" clip-rule="evenodd" d="M45 52C48.3137 52 51 49.3137 51 46C51 42.6863 48.3137 40 45 40C41.6863 40 39 42.6863 39 46C39 49.3137 41.6863 52 45 52ZM40.8572 47.1212V47.574C40.8742 47.6445 40.8892 47.7151 40.902 47.7856C41.077 48.4774 41.4613 48.9666 42.1081 49.1941C42.2276 49.2351 42.3578 49.2578 42.4838 49.2601C42.9442 49.265 43.4047 49.2641 43.8652 49.2631C44.0494 49.2628 44.2336 49.2624 44.4177 49.2624C44.4319 49.2624 44.4446 49.2608 44.4594 49.259C44.4625 49.2586 44.4657 49.2582 44.469 49.2578V47.3305H44.1872C44.1545 47.3305 44.1217 47.3303 44.089 47.33C44.0235 47.3295 43.9581 47.329 43.8926 47.3305C43.8115 47.3328 43.7496 47.2987 43.7133 47.2213C43.6749 47.1439 43.6941 47.0711 43.7411 47.0029C43.8264 46.8777 43.9113 46.752 43.9961 46.6263C44.081 46.5006 44.1659 46.3748 44.2512 46.2497L44.8532 45.3622C44.9663 45.1961 45.0966 45.1961 45.2076 45.36C45.3911 45.6296 45.5742 45.8998 45.7572 46.17C45.9403 46.4402 46.1233 46.7105 46.3069 46.9801C46.3603 47.0575 46.3944 47.1348 46.3475 47.2281C46.309 47.3032 46.2471 47.3328 46.166 47.3328H45.5982V49.2647H45.6857H47.276C47.7862 49.2624 48.2174 49.0576 48.5824 48.689C48.9154 48.3522 49.1161 47.9358 49.1887 47.4511C49.1914 47.4319 49.1978 47.4137 49.2043 47.3952C49.2078 47.3852 49.2113 47.3751 49.2143 47.3647V46.9118C49.2075 46.88 49.2013 46.8481 49.1952 46.8163C49.1859 46.7685 49.1767 46.7207 49.1652 46.6729C48.9795 45.8765 48.5355 45.3236 47.7948 45.0755C47.6411 45.0232 47.5877 44.964 47.5514 44.7911C47.3379 43.7558 46.7402 43.0982 45.7754 42.8433C44.7956 42.5862 43.709 43.1255 43.2394 44.088L43.2394 44.088C43.2223 44.1244 43.2053 44.1608 43.1925 44.1835C43.1506 44.1776 43.1093 44.1706 43.0684 44.1636C42.9673 44.1464 42.8686 44.1296 42.7698 44.1312C42.0056 44.138 41.4591 44.9322 41.679 45.7127C41.6939 45.765 41.6939 45.7946 41.647 45.8264C41.2307 46.1154 40.9746 46.5227 40.8849 47.0461C40.8822 47.0617 40.8754 47.0774 40.8686 47.093C40.8645 47.1024 40.8604 47.1118 40.8572 47.1212Z" fill="#1E62B9"/>
<path d="M0 4C0 1.79086 1.79086 0 4 0H56C58.2091 0 60 1.79086 60 4V9H0V4Z" fill="#1E3F69"/>
<circle cx="4.5" cy="4.5" r="1.5" fill="#FF4F59"/>
<circle cx="9.5" cy="4.5" r="1.5" fill="#FCFEFF"/>
<circle cx="14.5" cy="4.5" r="1.5" fill="#FFF507"/>
</svg>
