<svg width="60" height="60" viewBox="0 0 60 60" fill="none" xmlns="http://www.w3.org/2000/svg">
<rect width="60" height="60" rx="4" fill="#1E62B9" fill-opacity="0.1"/>
<g clip-path="url(#clip0_1062_2353)">
<path opacity="0.502" d="M33.7495 45.2504H37.4996V49H33.7495V45.2504Z" fill="#1E62B9"/>
<path opacity="0.702" d="M30.0001 45.2504H33.7497V49H30.0001V45.2504ZM26.2505 45.2504H30.0001V49H26.2505V45.2504Z" fill="#1E62B9"/>
<path opacity="0.502" d="M22.5005 45.2504H26.2506V49H22.5005V45.2504Z" fill="#1E62B9"/>
<path opacity="0.702" d="M37.5005 41.5002H41.2506V45.2504H37.5005V41.5002Z" fill="#1E62B9"/>
<path opacity="0.8" d="M33.7495 41.5002H37.4996V45.2504H33.7495V41.5002Z" fill="#1E62B9"/>
<path d="M30.0001 41.5002H33.7497V45.2504H30.0001V41.5002ZM26.2505 41.5002H30.0001V45.2504H26.2505V41.5002Z" fill="#1E62B9"/>
<path opacity="0.8" d="M22.5005 41.5002H26.2506V45.2504H22.5005V41.5002Z" fill="#1E62B9"/>
<path opacity="0.702" d="M18.7495 41.5002H22.4996V45.2504H18.7495V41.5002Z" fill="#1E62B9"/>
<path opacity="0.502" d="M41.2505 37.7496H45.0001V41.4997H41.2505V37.7496Z" fill="#1E62B9"/>
<path opacity="0.8" d="M37.5005 37.7496H41.2506V41.4997H37.5005V37.7496Z" fill="#1E62B9"/>
<path d="M33.7497 37.7496H37.4999V41.4997H33.7497V37.7496ZM30.0001 37.7496H33.7497V41.4997H30.0001V37.7496ZM26.2505 37.7496H30.0001V41.4997H26.2505V37.7496Z" fill="#1E62B9"/>
<path d="M22.5005 37.7496H26.2506V41.4997H22.5005V37.7496Z" fill="#1E62B9"/>
<path opacity="0.8" d="M18.7495 37.7496H22.4996V41.4997H18.7495V37.7496Z" fill="#1E62B9"/>
<path opacity="0.502" d="M15 37.7496H18.7496V41.4998H15V37.7496Z" fill="#1E62B9"/>
<path opacity="0.702" d="M41.2505 34H45.0001V37.7496H41.2505V34Z" fill="#1E62B9"/>
<path d="M37.5004 34H41.2505V37.7496H37.5004V34ZM33.7497 34H37.4999V37.7496H33.7497V34ZM30.0001 34H33.7497V37.7496H30.0001V34ZM26.2505 34H30.0001V37.7496H26.2505V34Z" fill="#1E62B9"/>
<path d="M22.5001 34H26.2503V37.7496H22.5001V34ZM18.7495 34H22.4996V37.7496H18.7495V34Z" fill="#1E62B9"/>
<path opacity="0.702" d="M15 34H18.7496V37.7496H15V34Z" fill="#1E62B9"/>
<path opacity="0.702" d="M41.2505 30.2504H45.0001V34H41.2505V30.2504Z" fill="#1E62B9"/>
<path d="M37.5004 30.2504H41.2505V34H37.5004V30.2504ZM33.7497 30.2504H37.4999V34H33.7497V30.2504ZM30.0001 30.2504H33.7497V34H30.0001V30.2504ZM26.2505 30.2504H30.0001V34H26.2505V30.2504Z" fill="#1E62B9"/>
<path d="M22.5001 30.2504H26.2503V34H22.5001V30.2504ZM18.7495 30.2504H22.4996V34H18.7495V30.2504Z" fill="#1E62B9"/>
<path opacity="0.702" d="M15 30.2504H18.7496V34H15V30.2504Z" fill="#1E62B9"/>
<path opacity="0.502" d="M41.2505 26.5002H45.0001V30.2504H41.2505V26.5002Z" fill="#1E62B9"/>
<path opacity="0.8" d="M37.5005 26.5002H41.2506V30.2504H37.5005V26.5002Z" fill="#1E62B9"/>
<path d="M33.7497 26.5002H37.4999V30.2504H33.7497V26.5002ZM30.0001 26.5002H33.7497V30.2504H30.0001V26.5002ZM26.2505 26.5002H30.0001V30.2504H26.2505V26.5002Z" fill="#1E62B9"/>
<path d="M22.5005 26.5002H26.2506V30.2504H22.5005V26.5002Z" fill="#1E62B9"/>
<path opacity="0.8" d="M18.7495 26.5002H22.4996V30.2504H18.7495V26.5002Z" fill="#1E62B9"/>
<path opacity="0.502" d="M15 26.5002H18.7496V30.2504H15V26.5002Z" fill="#1E62B9"/>
<path opacity="0.702" d="M37.5005 22.7496H41.2506V26.4997H37.5005V22.7496Z" fill="#1E62B9"/>
<path opacity="0.8" d="M33.7495 22.7496H37.4996V26.4997H33.7495V22.7496Z" fill="#1E62B9"/>
<path d="M30.0001 22.7496H33.7497V26.4997H30.0001V22.7496ZM26.2505 22.7496H30.0001V26.4997H26.2505V22.7496Z" fill="#1E62B9"/>
<path opacity="0.8" d="M22.5005 22.7496H26.2506V26.4997H22.5005V22.7496Z" fill="#1E62B9"/>
<path opacity="0.702" d="M18.7495 22.7496H22.4996V26.4997H18.7495V22.7496Z" fill="#1E62B9"/>
<path opacity="0.502" d="M33.7495 19H37.4996V22.7496H33.7495V19Z" fill="#1E62B9"/>
<path opacity="0.702" d="M30.0001 19H33.7497V22.7496H30.0001V19ZM26.2505 19H30.0001V22.7496H26.2505V19Z" fill="#1E62B9"/>
<path opacity="0.502" d="M22.5005 19H26.2506V22.7496H22.5005V19Z" fill="#1E62B9"/>
<path d="M24.8737 32.8169L25.9186 30.4782C26.2996 29.8789 26.2491 29.1444 25.8325 28.7278C25.8185 28.7138 25.8045 28.7003 25.7894 28.6872C25.7749 28.6742 25.7599 28.6612 25.7449 28.6492C25.7142 28.6245 25.6821 28.6016 25.6488 28.5806C25.5776 28.5368 25.5019 28.5011 25.4229 28.4739C25.3438 28.4464 25.2622 28.4279 25.1791 28.4179C25.096 28.4084 25.0119 28.4079 24.9288 28.4164C24.8457 28.4249 24.7635 28.4419 24.6844 28.4684C24.5948 28.496 24.5077 28.532 24.4246 28.5751C24.3416 28.6186 24.2625 28.6691 24.1883 28.7263C24.1141 28.7839 24.0451 28.8479 23.982 28.9176C23.9193 28.9872 23.8628 29.0623 23.8132 29.1419C23.7642 29.2215 22.3828 32.4794 21.8506 33.9795C21.3183 35.4795 21.5306 38.2308 23.5834 40.2876C25.7604 42.4646 28.9122 42.9617 30.9225 41.4532C30.9435 41.4427 30.9645 41.4312 30.9845 41.4196C31.0051 41.4081 31.0251 41.3956 31.0446 41.3826C31.0647 41.3701 31.0837 41.3566 31.1027 41.3425C31.1217 41.329 31.1403 41.3145 31.1583 41.2995L37.3533 36.1264C37.6542 35.8776 38.0993 35.3654 37.6997 34.7806C37.3097 34.2103 36.5707 34.5983 36.2693 34.7911L32.7039 37.3836C32.6874 37.3971 32.6678 37.4077 32.6473 37.4137C32.6263 37.4197 32.6048 37.4217 32.5832 37.4192C32.5617 37.4167 32.5407 37.4097 32.5221 37.3991C32.5031 37.3886 32.4866 37.3741 32.4736 37.3566C32.383 37.2454 32.3669 36.9505 32.5091 36.8339L37.9746 32.1955C38.4467 31.7705 38.5123 31.1521 38.1298 30.7285C37.7568 30.3135 37.164 30.326 36.6878 30.7551L31.7671 34.6018C31.7441 34.6208 31.7176 34.6349 31.689 34.6429C31.6605 34.6509 31.6304 34.6534 31.6009 34.6494C31.5714 34.6454 31.5433 34.6359 31.5178 34.6203C31.4922 34.6053 31.4697 34.5853 31.4527 34.5613C31.3556 34.4521 31.318 34.2664 31.4277 34.1572L37.0003 28.7493C37.1049 28.6517 37.1895 28.5345 37.2486 28.4049C37.3077 28.2747 37.3412 28.134 37.3462 27.9913C37.3512 27.8486 37.3282 27.7059 37.2781 27.5722C37.2281 27.438 37.1525 27.3154 37.0553 27.2107C37.0068 27.1591 36.9527 27.1131 36.8951 27.073C36.8371 27.0327 36.7752 26.9984 36.7104 26.9704C36.6453 26.9429 36.5777 26.9218 36.5086 26.9073C36.4395 26.8933 36.3689 26.8863 36.2983 26.8868C36.2262 26.8858 36.1541 26.8918 36.0835 26.9053C35.9416 26.9313 35.8061 26.9851 35.685 27.0635C35.6244 27.1026 35.5678 27.1476 35.5157 27.1977L29.8215 32.5465C29.6853 32.6827 29.4189 32.5465 29.3864 32.3873C29.3834 32.3733 29.3824 32.3588 29.3829 32.3442C29.3834 32.3297 29.3859 32.3152 29.3904 32.3017C29.3944 32.2877 29.4004 32.2741 29.4079 32.2621C29.4154 32.2496 29.4244 32.2381 29.4349 32.2281L33.7934 27.2653C33.8989 27.1672 33.9836 27.0487 34.0423 26.9171C34.1009 26.7855 34.1324 26.6433 34.1349 26.4992C34.1404 26.2083 34.0272 25.9275 33.8219 25.7217C33.6161 25.5154 33.3358 25.4012 33.0449 25.4058C32.754 25.4103 32.4771 25.5324 32.2778 25.7447L25.6683 33.0522C25.4315 33.289 25.0825 33.301 24.9163 33.1634C24.8907 33.1433 24.8697 33.1183 24.8542 33.0903C24.8381 33.0622 24.8281 33.0312 24.8241 32.9991C24.8201 32.9666 24.8226 32.934 24.8311 32.903C24.8396 32.872 24.8542 32.8424 24.8737 32.8169Z" fill="white"/>
</g>
<path d="M0 4C0 1.79086 1.79086 0 4 0H56C58.2091 0 60 1.79086 60 4V9H0V4Z" fill="#1E3F69"/>
<circle cx="4.5" cy="4.5" r="1.5" fill="#FF4F59"/>
<circle cx="9.5" cy="4.5" r="1.5" fill="#FCFEFF"/>
<circle cx="14.5" cy="4.5" r="1.5" fill="#FFF507"/>
<defs>
<clipPath id="clip0_1062_2353">
<rect width="30" height="30" fill="white" transform="translate(15 19)"/>
</clipPath>
</defs>
</svg>
