<svg width="60" height="60" viewBox="0 0 60 60" fill="none" xmlns="http://www.w3.org/2000/svg">
<rect width="60" height="60" rx="4" fill="#1E62B9" fill-opacity="0.1"/>
<g clip-path="url(#clip0_109_466)">
<path d="M48 35.5625C47.3531 37.2219 45.9844 38.3188 44.7844 39.5188C42.3375 41.9563 39.6187 44.0188 36.4312 45.425C34.3969 46.325 32.2781 46.8688 30.0469 46.8781C27.6281 46.8875 25.3594 46.2594 23.1469 45.2281C23.2219 45.1438 23.2875 45.0688 23.3625 44.9938C24.3281 44.0188 25.3031 43.0531 26.2687 42.0781C26.4094 41.9375 26.5125 41.9 26.7093 41.9938C31.4156 44.1688 36.8156 41.3188 37.65 36.2C37.9031 34.6531 37.6781 33.1719 37.0312 31.7469C36.9937 31.6625 36.9562 31.5781 36.9187 31.4938C36.9187 31.4844 36.9187 31.475 36.9187 31.5219C38.3343 30.1063 39.7125 28.7281 41.1562 27.275C42.2344 28.2125 43.3687 29.1313 44.4281 30.1438C45.4125 31.0813 46.3406 32.075 47.2312 33.0969C47.5781 33.4906 47.7562 34.025 48.0187 34.5031C48 34.8594 48 35.2156 48 35.5625Z" fill="#1E62B9"/>
<path d="M12 34.4375C12.675 32.7781 14.0438 31.6813 15.2531 30.4625C17.5031 28.2031 20.025 26.2906 22.9125 24.8938C25.05 23.8531 27.2906 23.2063 29.6813 23.15C32.1938 23.0938 34.5562 23.7125 36.7969 24.7531C35.7 25.8594 34.6031 26.9563 33.5062 28.0625C30.1125 26.6281 26.9906 27.05 24.3469 29.7594C22.2562 31.8969 21.5344 35.3469 23.0812 38.4969C21.6844 39.8938 20.2969 41.2813 18.9 42.6781C17.3062 41.5063 15.825 40.1656 14.4281 38.7313C14.025 38.3094 13.6313 37.8688 13.2281 37.4469C12.7031 36.8844 12.2437 36.2938 12 35.5625C12 35.1875 12 34.8125 12 34.4375Z" fill="#1E62B9"/>
<path d="M45.5437 20.9281C45.4687 21.0781 45.3562 21.3594 45.2062 21.6313C45.1406 21.7531 45.0187 21.8375 44.9156 21.9406C35.6156 31.2406 26.3062 40.55 17.0062 49.85C16.8656 49.9906 16.725 50.1406 16.575 50.2625C16.0312 50.6844 15.2906 50.6281 14.8219 50.1313C14.3531 49.6344 14.3344 48.8938 14.7844 48.3781C14.85 48.3031 14.9156 48.2469 14.9812 48.1813C24.375 38.7688 33.7687 29.375 43.1719 19.9813C43.7812 19.3719 44.5125 19.2875 45.075 19.775C45.375 20.0375 45.525 20.3656 45.5437 20.9281Z" fill="#1E62B9"/>
<path d="M31.8843 29.7312C29.4937 32.1219 27.1218 34.4937 24.7499 36.8656C24.0749 35.5625 24.2437 33.0969 25.6874 31.3906C27.3187 29.4312 29.9812 28.9531 31.8843 29.7312Z" fill="#1E62B9"/>
<path d="M35.2969 33.1813C35.9625 34.7188 35.7 37.175 34.0875 38.8719C32.55 40.4844 30.0656 41.075 28.1813 40.2969C30.5438 37.925 32.925 35.5438 35.2969 33.1813Z" fill="#1E62B9"/>
</g>
<path d="M0 4C0 1.79086 1.79086 0 4 0H56C58.2091 0 60 1.79086 60 4V9H0V4Z" fill="#1E3F69"/>
<circle cx="4.5" cy="4.5" r="1.5" fill="#FF4F59"/>
<circle cx="9.5" cy="4.5" r="1.5" fill="#FCFEFF"/>
<circle cx="14.5" cy="4.5" r="1.5" fill="#FFF507"/>
<defs>
<clipPath id="clip0_109_466">
<rect width="36" height="36" fill="white" transform="translate(12 17)"/>
</clipPath>
</defs>
</svg>
