<svg width="60" height="60" viewBox="0 0 60 60" fill="none" xmlns="http://www.w3.org/2000/svg">
<rect width="60" height="60" rx="4" fill="#1E62B9" fill-opacity="0.1"/>
<g clip-path="url(#clip0_109_111)">
<path d="M37.4531 53C32.4375 53 27.4219 53 22.4063 53C22.3594 52.9719 22.3219 52.9344 22.275 52.9156C21.4313 52.6813 20.7938 52.1844 20.3531 51.4344C19.7156 50.3469 19.0219 49.2875 18.4313 48.1719C16.5 44.5813 14.9719 40.8406 14.4938 36.7438C14.25 34.6438 14.3531 32.5625 15.0656 30.5375C15.3094 29.8344 15.5906 29.75 16.2469 30.1063C18.8719 31.5406 21.4781 31.475 24.0375 29.9281C24.4969 29.6563 24.6281 29.6469 25.0406 29.9656C26.4563 31.0531 28.0594 31.5875 29.8313 31.6156C31.7438 31.6531 33.4781 31.1094 34.9969 29.9188C35.2969 29.6844 35.5781 29.6656 35.8875 29.8813C36.0938 30.0313 36.3188 30.1625 36.5438 30.275C38.9813 31.4563 41.3906 31.4188 43.7625 30.0875C44.3906 29.7406 44.7094 29.8344 44.9063 30.5375C45.1219 31.2688 45.3281 32 45.4406 32.75C45.8063 35.1406 45.5156 37.4938 44.925 39.8094C43.8281 44.1031 41.8594 48.0031 39.4594 51.6969C39.0656 52.3063 38.4844 52.7 37.7813 52.8969C37.6781 52.925 37.5656 52.9625 37.4531 53ZM26.3344 41.3094C26.3344 42.1719 26.3344 43.025 26.3344 43.8781C26.3344 44.5719 26.6531 45.0875 27.2344 45.4438C27.8344 45.8094 28.4438 46.1469 29.0531 46.4938C29.6813 46.85 30.3188 46.85 30.9563 46.4844C31.5375 46.1562 32.1094 45.8188 32.6906 45.4906C33.3563 45.1062 33.6844 44.5344 33.675 43.7563C33.6656 42.9406 33.675 42.1156 33.675 41.3094C34.3781 40.9062 35.0906 40.5031 35.7938 40.0906C36.4406 39.7156 36.7594 39.1531 36.7594 38.4125C36.7594 37.7469 36.7594 37.0813 36.7594 36.4063C36.7594 35.6656 36.4406 35.1031 35.7938 34.7281C35.2313 34.4 34.6594 34.0719 34.0969 33.7438C33.4031 33.3406 32.7281 33.35 32.0438 33.7625C31.3688 34.175 30.675 34.5594 30.0094 34.9438C29.25 34.5125 28.5188 34.0719 27.7781 33.6594C27.2063 33.3406 26.6063 33.3688 26.0344 33.6875C25.4156 34.0344 24.7969 34.3906 24.1875 34.7563C23.5688 35.1219 23.2688 35.6656 23.2594 36.3781C23.2594 37.0344 23.2688 37.6906 23.2594 38.3469C23.25 39.1531 23.5969 39.7344 24.2906 40.1281C24.975 40.5219 25.65 40.925 26.3344 41.3094Z" fill="#1E62B9"/>
<path d="M39.075 17C39.1875 17.0375 39.3 17.075 39.4219 17.1125C40.4062 17.4125 41.0812 18.3125 41.1094 19.3719C41.1187 19.7469 41.1094 20.1125 41.1094 20.5156C41.4469 20.5156 41.7656 20.5156 42.075 20.5156C42.7781 20.5156 43.0781 20.6937 43.0781 21.1062C43.0875 21.5375 42.7875 21.7156 42.0563 21.7156C38.1094 21.7156 34.1625 21.7156 30.2156 21.7156C26.0813 21.7156 21.9469 21.7156 17.8125 21.7156C17.2125 21.7156 16.9219 21.5094 16.9312 21.1062C16.9406 20.7125 17.2313 20.5156 17.8031 20.5156C18.15 20.5156 18.5063 20.5156 18.9 20.5156C18.9 20.2062 18.9 19.9062 18.9 19.6062C18.9 18.3031 19.4625 17.5062 20.6906 17.0656C20.7281 17.0562 20.7563 17.0187 20.7938 16.9906C26.8875 17 32.9812 17 39.075 17Z" fill="#1E62B9"/>
<path d="M24.6188 27.8187C23.5032 29.1125 22.0875 29.75 20.4188 29.9094C17.925 30.1344 15.3563 28.5969 14.5875 26.3937C14.4657 26.0375 14.5125 25.775 14.7657 25.5031C15.4219 24.7906 16.0782 24.0687 16.7157 23.3375C16.9688 23.0469 17.2407 22.925 17.625 22.925C21.6094 22.9344 25.5938 22.9344 29.5782 22.9344C33.8344 22.9344 38.0813 22.9344 42.3375 22.925C42.75 22.925 43.0407 23.0469 43.3125 23.3656C43.9407 24.0969 44.5875 24.8094 45.2344 25.5125C45.4969 25.8031 45.5438 26.0844 45.4032 26.4406C44.6438 28.3531 43.1813 29.4219 41.2219 29.8062C38.9344 30.2562 36.9657 29.5906 35.3719 27.8562C34.0125 29.5906 32.1938 30.4344 30.0188 30.4344C27.8344 30.4156 26.0157 29.5906 24.6188 27.8187Z" fill="#1E62B9"/>
<path d="M30.6 37.4C30.6 37.0625 30.5531 36.7156 30.6187 36.3875C30.6562 36.1719 30.7968 35.9187 30.9656 35.7969C31.5281 35.4219 32.1375 35.1125 32.7187 34.7656C32.9531 34.625 33.1781 34.625 33.4125 34.7562C34.0125 35.1031 34.6218 35.4219 35.1937 35.7969C35.3625 35.9094 35.5125 36.1812 35.5312 36.3969C35.5687 37.0719 35.5781 37.7562 35.5312 38.4312C35.5218 38.6375 35.3625 38.9094 35.1937 39.0219C34.6218 39.3969 34.0031 39.725 33.4125 40.0625C33.1781 40.2031 32.9531 40.1937 32.7187 40.0531C32.1375 39.7156 31.5281 39.3969 30.9656 39.0219C30.7875 38.9094 30.6562 38.6469 30.6187 38.4312C30.5625 38.1031 30.6 37.7469 30.6 37.4Z" fill="#1E62B9"/>
<path d="M24.45 37.3906C24.45 37.0625 24.45 36.7344 24.45 36.4063C24.45 36.125 24.5718 35.9188 24.8156 35.7781C25.3968 35.45 25.9687 35.1219 26.55 34.7844C26.8125 34.6344 27.0468 34.6344 27.3093 34.7844C27.8812 35.1219 28.4625 35.45 29.0437 35.7781C29.2875 35.9188 29.4093 36.125 29.4093 36.4063C29.4093 37.0813 29.4375 37.7656 29.3906 38.4406C29.3812 38.6469 29.2218 38.9188 29.0531 39.0313C28.4906 39.4063 27.8906 39.7156 27.3 40.0625C27.0562 40.2031 26.8218 40.2031 26.5687 40.0625C25.9968 39.725 25.4156 39.3969 24.8343 39.0687C24.5812 38.9187 24.45 38.7125 24.45 38.4125C24.45 38.0656 24.45 37.7281 24.45 37.3906Z" fill="#1E62B9"/>
<path d="M27.5344 42.7531C27.5344 42.425 27.5344 42.0969 27.5344 41.7687C27.5344 41.4969 27.6469 41.3 27.8813 41.1687C28.4719 40.8312 29.0438 40.4656 29.6438 40.1656C29.8313 40.0719 30.1407 40.0625 30.3282 40.1469C30.9469 40.4562 31.5282 40.8219 32.1282 41.1687C32.3625 41.3 32.475 41.4969 32.475 41.7781C32.4657 42.4531 32.4657 43.1375 32.475 43.8125C32.475 44.1031 32.3532 44.3 32.1094 44.4406C31.5282 44.7687 30.9563 45.1062 30.3844 45.4437C30.1313 45.5937 29.8875 45.5937 29.625 45.4344C29.0625 45.0969 28.5 44.7781 27.9282 44.4594C27.6563 44.3094 27.525 44.0844 27.5438 43.775C27.5438 43.4375 27.5344 43.0906 27.5344 42.7531Z" fill="#1E62B9"/>
</g>
<path d="M0 4C0 1.79086 1.79086 0 4 0H56C58.2091 0 60 1.79086 60 4V9H0V4Z" fill="#1E3F69"/>
<circle cx="4.5" cy="4.5" r="1.5" fill="#FF4F59"/>
<circle cx="9.5" cy="4.5" r="1.5" fill="#FCFEFF"/>
<circle cx="14.5" cy="4.5" r="1.5" fill="#FFF507"/>
<defs>
<clipPath id="clip0_109_111">
<rect width="36" height="36" fill="white" transform="translate(12 17)"/>
</clipPath>
</defs>
</svg>
