<svg width="60" height="60" viewBox="0 0 60 60" fill="none" xmlns="http://www.w3.org/2000/svg">
<rect width="60" height="60" rx="4" fill="#1E62B9" fill-opacity="0.1"/>
<g clip-path="url(#clip0_109_697)">
<path d="M29.9953 17.4126C39.701 17.4126 47.5874 25.299 47.578 35.0047C47.5686 44.701 39.6916 52.5686 29.9953 52.5686C20.2896 52.578 12.4126 44.6916 12.4126 34.9765C12.422 25.2896 20.299 17.4126 29.9953 17.4126ZM28.8888 34.9765C28.8888 35.5204 28.8794 36.0081 28.8981 36.4957C28.9075 36.7301 28.8419 36.8333 28.5981 36.9083C26.1974 37.696 24.6877 40.1623 25.1097 42.5723C25.6254 45.5262 28.2136 47.3548 31.1675 46.8671C33.118 46.5483 34.5715 45.1511 34.881 43.2568C35.0029 42.4973 34.9841 41.7377 34.6653 41.0156C34.4308 40.4999 34.112 40.3592 33.5869 40.5749C33.0055 40.8187 32.7616 41.2782 32.7335 41.8971C32.6773 42.9661 32.1334 43.7351 31.1394 44.1383C30.1453 44.5322 29.2264 44.3352 28.448 43.5944C27.7072 42.8911 27.4728 41.8033 27.8572 40.875C28.2792 39.881 29.0388 39.3277 30.1266 39.262C30.9987 39.2152 31.5051 38.7181 31.5332 37.8367C31.5332 37.7616 31.552 37.6866 31.5613 37.5835C31.852 37.5835 32.1146 37.5741 32.3865 37.5835C32.6397 37.5929 32.7523 37.4709 32.7429 37.2271C32.7335 36.8333 32.7335 36.4301 32.7429 36.0362C32.7523 35.7455 32.621 35.6236 32.349 35.633C32.0865 35.633 31.8239 35.633 31.5426 35.633C31.5426 35.3892 31.5426 35.1922 31.5426 34.9765C31.6739 34.9672 31.7864 34.9578 31.8989 34.9578C32.6116 34.9578 33.3243 34.9672 34.0464 34.9578C34.684 34.9484 35.106 34.5733 35.1154 33.9919C35.1341 33.3824 35.1341 32.7728 35.1154 32.1633C35.0966 31.6569 34.7684 31.31 34.2808 31.2256C34.1776 31.2068 34.0745 31.1974 33.9432 31.1693C33.9432 31.0286 33.9432 30.9067 33.9432 30.7755C33.9432 29.4532 33.962 28.131 33.9338 26.7994C33.8963 24.7082 32.1334 23.0109 30.0141 23.0016C27.876 22.9922 26.0943 24.6707 26.0474 26.79C26.0193 28.1216 26.038 29.4626 26.038 30.7942C26.038 30.9161 26.038 31.038 26.038 31.1599C25.044 31.3381 24.8565 31.5725 24.8565 32.5572C24.8565 32.9416 24.8565 33.3261 24.8565 33.72C24.8565 34.6014 25.2128 34.9484 26.0943 34.9484C27.0133 34.9859 27.9323 34.9765 28.8888 34.9765Z" fill="#1E62B9"/>
<path d="M29.4421 34.9953C29.9672 34.9953 30.4455 34.9953 30.9706 34.9953C30.9706 35.1641 30.9706 35.3423 30.9706 35.5111C30.9706 36.28 30.9706 37.0583 30.9706 37.8273C30.9706 38.4274 30.6987 38.6994 30.0985 38.7275C28.4293 38.8025 27.1165 40.1623 27.1258 41.8221C27.1258 43.4725 28.4574 44.8322 30.1172 44.8979C31.7771 44.9635 33.2118 43.6319 33.2868 41.9346C33.3056 41.5783 33.3994 41.2969 33.7276 41.1188C33.9526 41.0062 34.112 41.0438 34.1777 41.2969C34.5528 42.6379 34.4778 43.9226 33.5119 44.9917C32.2928 46.342 30.3048 46.764 28.57 46.1169C26.8633 45.4793 25.6817 43.857 25.6067 42.0378C25.5129 39.8528 26.8445 37.9867 28.9638 37.3865C29.3295 37.2834 29.4608 37.124 29.4327 36.7489C29.4233 36.1862 29.4421 35.6142 29.4421 34.9953Z" fill="#1E62B9"/>
<path d="M29.9859 34.4233C28.673 34.4233 27.3602 34.4233 26.0474 34.4233C25.541 34.4233 25.4191 34.3014 25.4191 33.8044C25.4191 33.3261 25.4191 32.8385 25.4191 32.3602C25.4191 31.9008 25.5597 31.7695 26.0005 31.7695C27.0976 31.7788 28.2042 31.7976 29.3013 31.7976C30.4641 31.7976 31.6176 31.7788 32.7804 31.7695C33.193 31.7695 33.5962 31.7695 34.0088 31.7695C34.4308 31.7695 34.5715 31.9101 34.5715 32.3415C34.5715 32.8479 34.5715 33.3543 34.5715 33.8513C34.5715 34.2732 34.4308 34.4139 33.9994 34.4139C32.6585 34.4327 31.3269 34.4233 29.9859 34.4233Z" fill="#1E62B9"/>
<path d="M32.0865 31.2068C31.7958 31.2068 31.5238 31.2068 31.1956 31.2068C31.1956 30.5785 31.1956 29.9596 31.1956 29.3407C31.1956 28.8812 31.1487 28.8343 30.6986 28.8343C30.2298 28.8343 29.7609 28.8343 29.292 28.8343C28.8513 28.8343 28.795 28.8906 28.795 29.3501C28.795 29.9596 28.795 30.5692 28.795 31.1974C28.4949 31.1974 28.223 31.1974 27.9041 31.1974C27.8948 31.1131 27.8854 31.0099 27.8854 30.9161C27.8854 29.6127 27.876 28.3186 27.8854 27.0151C27.8948 25.8898 28.6919 24.9896 29.7703 24.8771C30.8674 24.7551 31.8427 25.496 32.0771 26.6025C32.0959 26.6963 32.1052 26.7901 32.1052 26.8838C32.1052 28.2623 32.1052 29.6502 32.1052 31.0287C32.1146 31.0849 32.0959 31.1412 32.0865 31.2068Z" fill="#1E62B9"/>
<path d="M33.3711 31.2068C33.1367 31.2068 32.921 31.2068 32.6678 31.2068C32.6678 31.0662 32.6678 30.9349 32.6678 30.813C32.6678 29.5845 32.6678 28.3561 32.6678 27.1183C32.6678 25.5147 31.5238 24.3144 30.0046 24.305C28.4948 24.2956 27.332 25.5053 27.332 27.0995C27.332 28.3279 27.332 29.5564 27.332 30.7942C27.332 30.9255 27.332 31.0474 27.332 31.1974C27.0882 31.1974 26.8726 31.1974 26.6381 31.1974C26.6287 31.1224 26.6006 31.038 26.6006 30.963C26.6006 29.6127 26.5819 28.2717 26.61 26.9213C26.6475 25.2615 27.7353 23.9768 29.3482 23.6298C31.3175 23.2079 33.3149 24.7176 33.3805 26.7244C33.4274 28.1498 33.3993 29.5845 33.3993 31.0099C33.3993 31.0849 33.3805 31.1412 33.3711 31.2068Z" fill="#1E62B9"/>
<path d="M30.6236 31.1974C30.2016 31.1974 29.8077 31.1974 29.3857 31.1974C29.3857 30.6067 29.3857 30.0159 29.3857 29.4063C29.789 29.4063 30.2016 29.4063 30.6236 29.4063C30.6236 29.9971 30.6236 30.5785 30.6236 31.1974Z" fill="#1E62B9"/>
<path d="M32.1708 36.2238C32.1708 36.5051 32.1708 36.7583 32.1708 37.0396C31.9645 37.0396 31.7676 37.0396 31.5613 37.0396C31.5613 36.7583 31.5613 36.5051 31.5613 36.2238C31.7676 36.2238 31.9645 36.2238 32.1708 36.2238Z" fill="#1E62B9"/>
</g>
<path d="M0 4C0 1.79086 1.79086 0 4 0H56C58.2091 0 60 1.79086 60 4V9H0V4Z" fill="#1E3F69"/>
<circle cx="4.5" cy="4.5" r="1.5" fill="#FF4F59"/>
<circle cx="9.5" cy="4.5" r="1.5" fill="#FCFEFF"/>
<circle cx="14.5" cy="4.5" r="1.5" fill="#FFF507"/>
<defs>
<clipPath id="clip0_109_697">
<rect width="36" height="36" fill="white" transform="translate(12 17)"/>
</clipPath>
</defs>
</svg>
