<svg width="60" height="60" viewBox="0 0 60 60" fill="none" xmlns="http://www.w3.org/2000/svg">
<rect width="60" height="60" rx="4" fill="#1E62B9" fill-opacity="0.1"/>
<circle cx="23.255" cy="20.255" r="1.25504" fill="#1E62B9"/>
<path d="M13 23.4834C13 21.8501 13 20.2169 13 18.5837C13 16.9773 13.9773 16 15.5971 16C18.8769 16 22.1567 16 25.4499 16C27.0698 16 28.047 16.9639 28.047 18.5837C28.047 21.8769 28.0604 25.1835 28.047 28.4767C28.047 30.0698 27.0832 31.0337 25.4767 31.0337C22.1835 31.047 18.8769 31.047 15.5837 31.0337C13.9639 31.0337 13.0134 30.0564 13.0134 28.4232C13 26.79 13 25.1434 13 23.4834ZM14.3655 28.7712C14.5797 28.5972 14.7002 28.5169 14.8073 28.4098C16.1727 27.1246 17.5516 25.8395 18.9171 24.5543C20.055 23.4834 21.0055 23.4834 22.1567 24.5543C23.5222 25.8395 24.8877 27.1246 26.2666 28.4098C26.3737 28.5169 26.4941 28.5972 26.6949 28.7579C26.7083 28.5035 26.7217 28.3696 26.7217 28.2224C26.7217 25.0229 26.7217 21.8234 26.7217 18.6239C26.7217 17.7135 26.3603 17.3655 25.4366 17.3655C22.1701 17.3655 18.9037 17.3655 15.6372 17.3655C14.7002 17.3655 14.3655 17.7002 14.3655 18.6372C14.3655 21.8368 14.3655 25.0363 14.3655 28.2358C14.3655 28.3696 14.3655 28.5035 14.3655 28.7712Z" fill="#1E62B9"/>
<path d="M32.2502 23.4966C32.2502 21.8768 32.2502 20.257 32.2502 18.6505C32.2502 16.9638 33.2007 16.0133 34.8875 16.0133C38.1405 16.0133 41.3936 16.0133 44.6333 16.0133C46.32 16.0133 47.2839 16.9771 47.2839 18.6505C47.2839 21.917 47.2839 25.1834 47.2839 28.4498C47.2839 30.0831 46.3334 31.0603 44.7136 31.0603C41.4204 31.0737 38.1138 31.0737 34.8206 31.0603C33.2007 31.0603 32.2502 30.0964 32.2502 28.4498C32.2502 26.7898 32.2502 25.1432 32.2502 23.4966ZM45.8247 28.6908C45.8649 28.6774 45.905 28.6506 45.9452 28.6373C45.9452 28.5302 45.9452 28.4231 45.9452 28.3026C45.9452 25.0495 45.9452 21.7965 45.9452 18.5568C45.9452 17.7 45.5837 17.352 44.7136 17.352C41.4338 17.352 38.1539 17.352 34.8607 17.352C33.937 17.352 33.5889 17.7 33.5889 18.6237C33.5889 21.8099 33.5889 24.996 33.5889 28.1821C33.5889 28.3427 33.6023 28.49 33.6157 28.7577C33.8299 28.5703 33.9638 28.4632 34.0843 28.3427C35.4899 27.0308 36.8955 25.7055 38.3012 24.3802C39.2651 23.4832 40.2825 23.4832 41.2463 24.3936C42.0629 25.1566 42.8662 25.9197 43.6694 26.6827C44.3923 27.3655 45.1018 28.0348 45.8247 28.6908Z" fill="#1E62B9"/>
<circle cx="43.1176" cy="20.1802" r="1.25504" fill="#1E62B9"/>
<circle cx="43.1176" cy="39.4241" r="1.25504" fill="#1E62B9"/>
<circle cx="23.8732" cy="39.4241" r="1.25504" fill="#1E62B9"/>
<path d="M28.0471 42.7741C28.0471 44.4073 28.0471 46.0405 28.0471 47.6738C28.0471 49.3605 27.0832 50.2976 25.3964 50.2976C22.1434 50.2976 18.8903 50.2976 15.6507 50.2976C13.9773 50.2976 13.0134 49.3337 13.0134 47.647C13.0134 44.3805 13.0134 41.1141 13.0134 37.8477C13.0134 36.2278 13.9639 35.2506 15.5971 35.2506C18.8903 35.2372 22.1969 35.2372 25.4902 35.2506C27.0966 35.2506 28.0471 36.2144 28.0471 37.8209C28.0471 39.4675 28.0471 41.1275 28.0471 42.7741ZM14.3655 48.062C14.6065 47.8344 14.7404 47.7273 14.8608 47.6068C16.2397 46.3083 17.6186 45.0097 19.0108 43.7246C20.055 42.7473 21.0323 42.7607 22.0631 43.7246C23.4687 45.0499 24.8743 46.3618 26.28 47.6738C26.3871 47.7809 26.5076 47.8612 26.6816 48.0084C26.695 47.7541 26.7084 47.6068 26.7084 47.4729C26.7084 44.2734 26.7084 41.0739 26.7084 37.8744C26.7084 36.9775 26.3335 36.6027 25.4232 36.6027C22.1568 36.6027 18.8903 36.6027 15.6239 36.6027C14.7136 36.6027 14.3655 36.9641 14.3655 37.8878C14.3655 41.0873 14.3655 44.2868 14.3655 47.4863C14.3655 47.6202 14.3655 47.7675 14.3655 48.062Z" fill="#1E62B9"/>
<path d="M47.2973 42.8141C47.2973 44.4474 47.2973 46.0806 47.2973 47.7138C47.2973 49.3202 46.3066 50.2975 44.7002 50.2975C41.4204 50.2975 38.1405 50.2975 34.8473 50.2975C33.2275 50.2975 32.2636 49.3336 32.2502 47.7138C32.2502 44.4206 32.2502 41.114 32.2502 37.8208C32.2502 36.2277 33.2141 35.2639 34.8206 35.2639C38.1138 35.2505 41.4204 35.2505 44.7136 35.2639C46.3334 35.2639 47.2839 36.2411 47.2839 37.8743C47.2973 39.5075 47.2973 41.1675 47.2973 42.8141ZM33.6291 48.0217C33.8165 47.8477 33.9236 47.7674 34.0173 47.687C35.4364 46.3617 36.8554 45.0364 38.2744 43.6977C39.2784 42.7472 40.2825 42.7472 41.2999 43.6843C42.7055 44.9962 44.1112 46.3216 45.5168 47.6469C45.6373 47.754 45.7712 47.8611 45.972 48.0351C45.972 44.5545 45.972 41.2077 45.972 37.8609C45.972 36.9506 45.6239 36.6026 44.6868 36.6026C41.4204 36.6026 38.1539 36.6026 34.8875 36.6026C33.9906 36.6026 33.6157 36.9774 33.6157 37.8877C33.6157 41.0738 33.6157 44.2599 33.6157 47.4461C33.6023 47.5933 33.6157 47.7406 33.6291 48.0217Z" fill="#1E62B9"/>
<g filter="url(#filter0_d_1021_5130)">
<circle cx="26.6622" cy="28.2681" r="3.48621" fill="#1E62B9"/>
<circle cx="26.6622" cy="28.2681" r="3.18621" stroke="#CCD3DB" stroke-width="0.6"/>
</g>
<path d="M26.1992 28.8999C26.8582 28.2408 27.5109 27.5882 28.1636 26.9355C28.2723 26.8246 28.3982 26.7755 28.5517 26.8246C28.7864 26.9014 28.8695 27.1893 28.7138 27.3792C28.6925 27.4047 28.669 27.4303 28.6435 27.4538C27.9268 28.1662 27.2101 28.8764 26.4935 29.5867C26.3165 29.7616 26.1352 29.7659 25.9496 29.5974C25.5764 29.2561 25.201 28.9148 24.8277 28.5757C24.7147 28.4712 24.6656 28.3475 24.7061 28.1982C24.768 27.97 25.0517 27.874 25.2351 28.0275C25.4335 28.1939 25.619 28.3731 25.811 28.548C25.9368 28.661 26.0648 28.7783 26.1992 28.8999Z" fill="white"/>
<path d="M0 4C0 1.79086 1.79086 0 4 0H56C58.2091 0 60 1.79086 60 4V9H0V4Z" fill="#1E3F69"/>
<circle cx="4.5" cy="4.5" r="1.5" fill="#FF4F59"/>
<circle cx="9.5" cy="4.5" r="1.5" fill="#FCFEFF"/>
<circle cx="14.5" cy="4.5" r="1.5" fill="#FFF507"/>
<defs>
<filter id="filter0_d_1021_5130" x="22.176" y="23.7819" width="8.97241" height="8.97241" filterUnits="userSpaceOnUse" color-interpolation-filters="sRGB">
<feFlood flood-opacity="0" result="BackgroundImageFix"/>
<feColorMatrix in="SourceAlpha" type="matrix" values="0 0 0 0 0 0 0 0 0 0 0 0 0 0 0 0 0 0 127 0" result="hardAlpha"/>
<feOffset/>
<feGaussianBlur stdDeviation="0.5"/>
<feComposite in2="hardAlpha" operator="out"/>
<feColorMatrix type="matrix" values="0 0 0 0 0 0 0 0 0 0 0 0 0 0 0 0 0 0 0.25 0"/>
<feBlend mode="normal" in2="BackgroundImageFix" result="effect1_dropShadow_1021_5130"/>
<feBlend mode="normal" in="SourceGraphic" in2="effect1_dropShadow_1021_5130" result="shape"/>
</filter>
</defs>
</svg>
