<svg width="60" height="60" viewBox="0 0 60 60" fill="none" xmlns="http://www.w3.org/2000/svg">
<rect width="60" height="60" rx="4" fill="#1E62B9" fill-opacity="0.1"/>
<path d="M10.2052 36.9283C10.2052 35.0129 10.2052 32.8653 10.2052 30.9498C10.2052 27.4672 10.2052 23.9701 10.2052 20.4875C10.2052 18.3979 11.9527 17 14.0498 17C24.5352 17 34.8459 17 45.3313 17C47.4284 17 49 18.701 49 20.6164C49 26.5369 49.0012 32.1494 49.0012 38.0699V38.2569C48.477 37.9377 48.669 38.0871 48.477 37.8957C44.9818 34.4131 41.6614 31.1046 38.1663 27.622C36.943 26.4031 35.5449 26.4031 34.3216 27.622C31.3508 30.4081 28.5546 33.3683 25.5838 36.1544C25.409 36.3286 25.2343 36.5027 25.0595 36.851C23.1372 34.9355 21.3896 33.1942 19.642 31.4529C18.244 30.0598 17.0207 30.0598 15.7974 31.4529C14.0498 33.1942 12.7505 35.0854 10.7294 36.5027C10.2052 36.8703 10.6775 36.5027 10.2052 36.9283C10.38 36.9283 10.38 36.9283 10.2052 36.9283ZM27.5061 24.4876C27.5061 22.5722 25.9333 20.8309 24.011 20.8309C22.0886 20.8309 20.341 22.3981 20.341 24.3135C20.341 26.4031 21.9139 27.9703 24.011 27.9703C25.7585 28.1444 27.5061 26.4031 27.5061 24.4876Z" fill="#1E62B9"/>
<path d="M31.8447 46.383C31.4951 46.383 30.9709 46.383 30.6214 46.383C25.0291 46.383 19.6117 46.383 14.0194 46.383C11.7476 46.383 10 44.8158 10 42.378C10 40.6367 10.3495 39.4178 11.7476 38.1988C13.6699 36.4575 15.4175 34.7162 17.165 32.9749C17.5146 32.6267 17.6893 32.6267 18.0388 32.9749C19.7864 34.7162 21.7087 36.6317 23.4563 38.373C22.5825 39.2436 21.8835 39.9402 21.0097 40.8108C20.835 40.9849 20.6602 41.3332 20.6602 41.6815C20.6602 42.0297 20.835 42.378 21.1845 42.5521C21.3592 42.7263 21.8835 42.5521 22.233 42.5521C22.4078 42.5521 22.5825 42.2039 22.7573 42.2039C27.1262 38.0247 31.3204 33.6714 35.6893 29.4923C36.2136 28.9699 36.2136 28.9699 36.7379 29.4923C39.0097 31.756 41.1068 33.8456 43.3786 36.1093C43.5534 36.2834 43.5534 36.4575 43.7282 36.6317C40.5825 35.9351 37.6117 36.6317 35.1651 38.7212C32.7185 40.4626 31.6699 43.2487 31.8447 46.383Z" fill="#1E62B9"/>
<path d="M48.9708 45.5124C48.9708 49.6915 45.6504 53 41.4562 53C37.262 53 33.9417 49.5174 33.9417 45.5124C33.9417 41.3332 37.262 38.0247 41.4562 38.0247C45.4756 38.0247 48.9708 41.3332 48.9708 45.5124ZM42.33 45.1641C42.6795 45.5124 42.8543 45.8606 43.2038 46.0347C43.7281 46.5571 44.2523 46.5571 44.6018 46.0347C44.9514 45.6865 44.9514 44.99 44.4271 44.6417C43.5533 43.771 42.8543 43.0745 41.9805 42.2039C41.4562 41.6815 40.9319 41.6815 40.4077 42.2039C39.5339 43.0745 38.6601 43.771 37.9611 44.6417C37.4368 45.1641 37.4368 45.6865 37.9611 46.0347C38.3106 46.383 39.0096 46.383 39.3591 46.0347C39.7086 45.8606 39.8834 45.5124 40.2329 45.1641C40.2329 46.2089 40.2329 46.9054 40.2329 47.7761C40.2329 48.4726 40.5824 48.995 41.2815 48.995C41.8057 48.995 42.33 48.4726 42.33 47.7761C42.33 47.0795 42.33 46.2089 42.33 45.1641Z" fill="#1E62B9"/>
<circle cx="41.5" cy="45.5" r="7.5" fill="#1E62B9"/>
<path d="M37 47.1751C37 47.013 37 46.8485 37 46.6864C37.0092 46.6594 37.0253 46.6324 37.0299 46.6053C37.1264 46.0404 37.4023 45.6008 37.8506 45.2889C37.9011 45.2545 37.9011 45.2226 37.8851 45.1661C37.6483 44.3237 38.2368 43.4665 39.0598 43.4591C39.2092 43.4567 39.3586 43.4935 39.5149 43.5156C39.5287 43.4911 39.5471 43.4518 39.5655 43.4125C40.0713 42.3736 41.2414 41.7915 42.2966 42.069C43.3356 42.3441 43.9793 43.0539 44.2092 44.1714C44.2483 44.358 44.3057 44.4219 44.4713 44.4784C45.269 44.7461 45.7471 45.3429 45.9471 46.2025C45.9678 46.2885 45.9816 46.3745 46 46.4604C46 46.6225 46 46.7871 46 46.9492C45.9908 46.9811 45.977 47.0106 45.9724 47.0425C45.8943 47.5657 45.6782 48.0151 45.3195 48.3786C44.9264 48.7765 44.4621 48.9975 43.9126 49C43.3425 49 42.7701 49 42.2 49C42.1678 49 42.1379 49 42.1057 49C42.1057 48.3 42.1057 47.6099 42.1057 46.9148C42.3149 46.9148 42.5149 46.9148 42.7172 46.9148C42.8046 46.9148 42.8713 46.8829 42.9126 46.8018C42.9632 46.7011 42.9264 46.6176 42.869 46.5341C42.4736 45.952 42.0805 45.3675 41.6851 44.7854C41.5655 44.6086 41.4253 44.6086 41.3034 44.7879C41.0874 45.1071 40.8713 45.4264 40.6552 45.7457C40.4713 46.0159 40.2897 46.2885 40.1057 46.5587C40.0552 46.6324 40.0345 46.711 40.0759 46.7945C40.1149 46.878 40.1816 46.9148 40.269 46.9123C40.3747 46.9099 40.4805 46.9123 40.5862 46.9123C40.6874 46.9123 40.7885 46.9123 40.8897 46.9123C40.8897 47.6123 40.8897 48.3 40.8897 48.9926C40.869 48.9951 40.8529 48.9975 40.8345 48.9975C40.1402 48.9975 39.446 49.0025 38.7517 48.9951C38.6161 48.9926 38.4759 48.9681 38.3471 48.9239C37.6506 48.6783 37.2368 48.1502 37.0483 47.4036C37.0345 47.3274 37.0184 47.2513 37 47.1751Z" fill="white"/>
<path d="M25.3787 24.6166C25.3787 25.4873 24.6796 26.1838 23.8058 26.1838C22.9321 26.1838 22.233 25.4873 22.233 24.6166C22.233 23.746 22.9321 23.0495 23.8058 23.0495C24.5049 22.8753 25.3787 23.746 25.3787 24.6166Z" fill="#1E62B9"/>
<path d="M0 4C0 1.79086 1.79086 0 4 0H56C58.2091 0 60 1.79086 60 4V9H0V4Z" fill="#1E3F69"/>
<circle cx="4.5" cy="4.5" r="1.5" fill="#FF4F59"/>
<circle cx="9.5" cy="4.5" r="1.5" fill="#FCFEFF"/>
<circle cx="14.5" cy="4.5" r="1.5" fill="#FFF507"/>
</svg>
