<svg width="60" height="60" viewBox="0 0 60 60" fill="none" xmlns="http://www.w3.org/2000/svg">
<rect width="60" height="60" rx="4" fill="#1E62B9" fill-opacity="0.1"/>
<path d="M31.2693 33.7411C31.2693 32.8828 31.2693 32.0664 31.2693 31.2395C34.5768 31.3337 36.2829 28.7589 36.2829 26.6027C36.2724 24.4361 34.4931 21.8822 31.2693 22.0183C31.2693 20.3645 31.2693 18.7107 31.2693 17.0256C31.353 17.0151 31.4368 17.0047 31.5205 17.0047C35.4351 17.0047 39.3392 16.9942 43.2538 17.0047C45.6925 17.0047 47.5242 18.5433 47.9324 20.8983C47.9743 21.1495 47.9848 21.4216 47.9848 21.6833C47.9848 25.6188 47.9848 29.5544 47.9848 33.4899C47.9848 33.5631 47.9848 33.6364 47.9848 33.7515C47.587 33.7515 47.2312 33.7515 46.8648 33.7515C45.075 33.7515 43.2852 33.7934 41.4954 33.7411C40.3335 33.6992 39.6741 34.7668 40.2184 35.7612C40.6371 36.5252 40.5324 37.3207 39.9881 38.0011C39.4334 38.6814 38.7007 38.9326 37.8529 38.7128C37.0051 38.493 36.4504 37.9278 36.3352 37.0591C36.2724 36.6299 36.3666 36.138 36.5341 35.7402C37.0051 34.6308 36.4818 33.762 35.2571 33.762C33.9279 33.7411 32.609 33.7411 31.2693 33.7411Z" fill="#1E62B9"/>
<path d="M31.2485 36.274C32.0963 36.274 32.9127 36.274 33.7605 36.274C33.6872 37.8335 34.2001 39.1628 35.3828 40.1781C36.3039 40.9736 37.3925 41.3399 38.6066 41.2771C40.9826 41.162 43.1387 39.1419 42.9713 36.2845C44.6355 36.2845 46.2997 36.2845 47.9953 36.2845C47.9953 36.3577 47.9953 36.4205 47.9953 36.4729C47.9953 40.4188 48.0058 44.3753 47.9953 48.3213C47.9849 50.5402 46.6242 52.3091 44.5413 52.8429C44.154 52.9371 43.7458 52.9895 43.3376 52.9895C39.3707 52.9999 35.4142 52.9999 31.4473 52.9999C31.395 52.9999 31.3427 52.9895 31.2589 52.9895C31.2589 52.8429 31.2589 52.7069 31.2589 52.5603C31.2589 50.5298 31.2589 48.5097 31.2589 46.4791C31.2589 45.265 30.3797 44.7102 29.2702 45.2336C28.4224 45.6313 27.5223 45.4952 26.8733 44.8777C26.2348 44.2706 26.0464 43.3286 26.4023 42.5331C26.7477 41.7377 27.5746 41.2143 28.4433 41.2981C28.7574 41.3295 29.0818 41.4446 29.3749 41.5702C30.3274 41.9993 31.2485 41.4446 31.2589 40.3874C31.2485 39.0372 31.2485 37.6765 31.2485 36.274Z" fill="#1E62B9"/>
<path d="M28.7365 17.0047C28.7365 17.1826 28.7365 17.3396 28.7365 17.4966C28.7365 19.4958 28.7783 21.495 28.7155 23.4941C28.6841 24.6559 29.7308 25.3258 30.7356 24.7711C31.4997 24.3524 32.2952 24.4466 32.9755 25.0013C33.6349 25.5351 33.8966 26.2574 33.6977 27.1052C33.4884 27.9844 32.9232 28.5391 32.044 28.6647C31.6148 28.7275 31.1229 28.6333 30.7252 28.4659C29.6052 27.9948 28.7365 28.5182 28.7365 29.7323C28.7365 31.0512 28.7365 32.37 28.7365 33.7202C27.8991 33.7202 27.0722 33.7202 26.2454 33.7202C26.3396 30.3708 23.6915 28.6647 21.5353 28.7171C19.2745 28.7694 16.8671 30.6639 17.0241 33.7202C15.3704 33.7202 13.7166 33.7202 12.0314 33.7202C12.021 33.626 12.0105 33.5318 12.0105 33.4376C12.0105 29.5439 12 25.6398 12.0105 21.7462C12.0105 19.3074 13.5491 17.4757 15.8937 17.057C16.1658 17.0152 16.438 17.0047 16.7101 17.0047C20.6352 17.0047 24.5602 17.0047 28.4853 17.0047C28.5481 17.0047 28.6213 17.0047 28.7365 17.0047Z" fill="#1E62B9"/>
<path d="M12 36.2531C12.7641 36.2531 13.4863 36.2531 14.219 36.2531C15.6424 36.2531 17.0764 36.2113 18.4999 36.2636C19.6826 36.3159 20.3106 35.2169 19.7664 34.2435C19.3163 33.448 19.5047 32.4955 20.1327 31.8571C20.7503 31.2291 21.6818 31.0511 22.4773 31.407C23.2727 31.7629 23.7856 32.5897 23.7019 33.4585C23.6705 33.762 23.5658 34.0656 23.4402 34.3482C22.9901 35.3216 23.5554 36.2427 24.623 36.2427C25.9837 36.2531 27.3443 36.2427 28.7155 36.2427C28.7155 37.08 28.7155 37.8964 28.7155 38.7547C27.1141 38.6919 25.7534 39.2257 24.7276 40.4817C23.9845 41.4028 23.66 42.4704 23.7124 43.6532C23.8066 45.5895 25.4498 48.0806 28.7155 47.9655C28.7155 49.6192 28.7155 51.273 28.7155 52.9582C28.6318 52.9582 28.548 52.9686 28.4538 52.9686C24.5392 52.9686 20.6351 52.9791 16.7205 52.9686C14.2922 52.9896 12.4501 51.4405 12.0419 49.0959C12.0105 48.8866 12 48.6772 12 48.4679C12 44.4172 12 40.3666 12 36.2531Z" fill="#1E62B9"/>
<path d="M0 4C0 1.79086 1.79086 0 4 0H56C58.2091 0 60 1.79086 60 4V9H0V4Z" fill="#1E3F69"/>
<circle cx="4.5" cy="4.5" r="1.5" fill="#FF4F59"/>
<circle cx="9.5" cy="4.5" r="1.5" fill="#FCFEFF"/>
<circle cx="14.5" cy="4.5" r="1.5" fill="#FFF507"/>
</svg>
