<svg width="60" height="60" viewBox="0 0 60 60" fill="none" xmlns="http://www.w3.org/2000/svg">
<rect width="60" height="60" rx="4" fill="#1E62B9" fill-opacity="0.1"/>
<path d="M13 24.4375C12.4477 24.4375 12 24.8852 12 25.4375C12 33.9583 12 42.4792 12 51C12 51.5523 12.4477 52 13 52C24.3333 52 35.6667 52 47 52C47.5523 52 48 51.5523 48 51C48 40.0986 48 29.1972 48 18.2958C48 18.0294 47.6728 17.8179 47.4844 18.0062C45.5062 19.9562 43.5188 21.9062 41.5594 23.8844C41.1656 24.2781 40.7906 24.4469 40.2188 24.4469C31.1489 24.4288 22.0704 24.4369 13 24.4375ZM41.3541 32.2954C41.136 33.0534 41.6046 34.0187 42.2705 34.4416C42.6875 34.7064 43.024 35.0682 43.2937 35.5281C44.4281 37.4969 43.1625 40.0281 40.8937 40.1969C39.1219 40.3281 37.3312 40.2625 35.55 40.2625C34.2656 40.2625 32.9719 40.2906 31.6875 40.1969C30.2625 40.0938 29.1469 38.9125 28.9781 37.4969C28.8248 36.1812 29.2829 35.2409 30.5321 34.4005C30.9119 34.145 31.1074 33.689 31.0722 33.2325C30.897 30.958 32.6742 29.5117 34.7719 29.7062C35.6062 29.7812 36.4594 29.725 37.3031 29.7062C38.1656 29.6875 38.8406 29.3219 39.2437 28.5438C39.2802 28.4708 39.3116 28.3947 39.34 28.317C39.4849 27.9192 39.836 27.6437 40.2594 27.6437C40.3568 27.6437 40.4542 27.6437 40.552 27.6437C41.125 27.6437 41.5838 28.1247 41.5914 28.6977C41.6075 29.9107 41.6908 31.1254 41.3541 32.2954ZM16.3219 43.4281C16.3219 42.8758 16.7696 42.4281 17.3219 42.4281C20.1652 42.4281 22.9747 42.4281 25.775 42.4281C26.3273 42.4281 26.775 42.8758 26.775 43.4281C26.775 44.8587 26.775 46.2674 26.775 47.6719C26.775 48.2242 26.3273 48.6719 25.775 48.6719C22.9445 48.6719 20.1401 48.6719 17.3219 48.6719C16.7696 48.6719 16.3219 48.2242 16.3219 47.6719C16.3219 46.2557 16.3219 44.853 16.3219 43.4281ZM28.9781 43.4188C28.9781 42.8665 29.4259 42.4187 29.9781 42.4187C34.2386 42.4187 38.4525 42.4187 42.65 42.4187C43.2023 42.4187 43.65 42.8665 43.65 43.4188C43.65 43.4271 43.65 43.4354 43.65 43.4438C43.65 43.996 43.2023 44.4437 42.65 44.4437C38.4044 44.4437 34.2027 44.4437 29.9781 44.4437C29.4259 44.4437 28.9781 43.996 28.9781 43.4438C28.9781 43.4354 28.9781 43.4271 28.9781 43.4188ZM28.9781 47.6375C28.9781 47.0852 29.4259 46.6375 29.9781 46.6375C34.2323 46.6375 38.4473 46.6375 42.6594 46.6375C43.2117 46.6375 43.6594 47.0852 43.6594 47.6375C43.6594 47.649 43.6594 47.6604 43.6594 47.6719C43.6594 48.2242 43.2116 48.6719 42.6594 48.6719C38.4132 48.6719 34.2103 48.6719 29.9781 48.6719C29.4259 48.6719 28.9781 48.2242 28.9781 47.6719C28.9781 47.6604 28.9781 47.649 28.9781 47.6375ZM16.3031 30.775C16.3031 30.2227 16.7508 29.7531 17.3031 29.7531C20.1497 29.7531 22.9685 29.7531 25.7844 29.7531C26.3367 29.7531 26.7844 30.2297 26.7844 30.782C26.7844 31.3343 26.3367 31.7687 25.7844 31.7687C22.9383 31.7687 20.1245 31.7687 17.3031 31.7687C16.7508 31.7687 16.3031 31.3273 16.3031 30.775ZM26.8219 34.9914C26.8219 35.5437 26.3742 36.0062 25.8219 36.0062C22.9697 36.0062 20.1559 36.0062 17.3406 36.0062C16.7883 36.0062 16.3406 35.5296 16.3406 34.9773C16.3406 34.4251 16.7883 33.9906 17.3406 33.9906C20.1867 33.9906 23.0005 33.9906 25.8219 33.9906C26.3742 33.9906 26.8219 34.4391 26.8219 34.9914ZM26.8031 39.2156C26.8031 39.7679 26.3554 40.2156 25.8031 40.2156C22.9509 40.2156 20.1371 40.2156 17.3219 40.2156C16.7696 40.2156 16.3219 39.7679 16.3219 39.2156C16.3219 39.2073 16.3219 39.199 16.3219 39.1906C16.3219 38.6383 16.7696 38.1906 17.3219 38.1906C20.1562 38.1906 22.975 38.1906 25.8031 38.1906C26.3554 38.1906 26.8031 38.6383 26.8031 39.1906C26.8031 39.199 26.8031 39.2073 26.8031 39.2156Z" fill="#1E62B9"/>
<path d="M26.7656 16C26.1094 16 25.4531 16 24.7969 16C24.7969 17.3875 24.7969 18.775 24.7969 20.2C24 20.2 23.3438 20.2 22.5469 20.2C22.5469 18.7844 22.5469 17.3969 22.5469 16C21.8906 16 21.2344 16 20.5781 16C20.5781 17.3875 20.5781 18.775 20.5781 20.2C19.7812 20.2 19.125 20.2 18.3281 20.2C18.3281 18.7844 18.3281 17.3969 18.3281 16C16.3854 16 14.4427 16 12.5 16C12.2239 16 12 16.2239 12 16.5C12 18.276 12 20.0521 12 21.8281C12 22.1043 12.2239 22.3281 12.5 22.3281C21.4833 22.3281 30.4667 22.3283 39.45 22.3375C39.9 22.3375 40.2281 22.2344 40.5562 21.8969C42.3469 20.0875 44.175 18.3063 45.9844 16.5063C46.1783 16.3253 45.9721 16 45.7069 16C40.1431 16 34.5794 16 29.0156 16C29.0156 17.3875 29.0156 18.775 29.0156 20.2C28.2188 20.2 27.5625 20.2 26.7656 20.2C26.7656 18.775 26.7656 17.3875 26.7656 16Z" fill="#1E62B9"/>
<path d="M36.3563 36.0438C36.3563 35.2844 36.3563 34.6375 36.3563 33.9531C37.9594 33.7938 39 32.9781 39.4688 31.3094C37.8563 32.0781 36.2157 31.7781 34.6032 31.825C33.7126 31.8531 33.3094 32.0781 33.2063 32.6781C33.0938 33.2969 33.375 33.6719 34.2 33.9906C34.2 34.6375 34.2 35.2844 34.2 36.0438C33.5813 36.0438 32.9625 36.0344 32.3438 36.0438C31.5469 36.0531 31.0969 36.4094 31.0782 37.0469C31.05 37.7125 31.5094 38.1438 32.3344 38.1438C35.0063 38.1531 37.6782 38.1531 40.35 38.1438C41.1657 38.1438 41.625 37.7125 41.5969 37.0469C41.5782 36.4094 41.1282 36.0531 40.3313 36.0438C39.0094 36.0438 37.7063 36.0438 36.3563 36.0438Z" fill="#060606"/>
<path d="M24.7031 46.5344C24.7031 45.8313 24.7031 45.1844 24.7031 44.5C22.6031 44.5 20.5406 44.5 18.4313 44.5C18.4313 45.1938 18.4313 45.8594 18.4313 46.5344C20.55 46.5344 22.6219 46.5344 24.7031 46.5344Z" fill="#1E62B9"/>
<rect width="15.4688" height="13.4062" transform="matrix(-1 0 0 1 44.1562 27.3438)" fill="#1E62B9"/>
<path d="M36.9517 27.713C36.482 27.4601 36.0123 27.2072 35.5065 27.0988C35.1814 27.0266 34.8562 26.9904 34.531 27.0266C33.8446 27.0988 33.4472 27.6046 33.4833 28.3272C33.5194 28.9775 33.7723 29.5194 34.0975 30.0614C34.1336 30.1336 34.1698 30.1698 34.2059 30.242C34.0252 30.4949 33.8446 30.7478 33.664 31.0007C33.4111 31.3259 33.3749 31.7233 33.3027 32.1207C33.2665 32.3736 33.2304 32.5904 33.2304 32.8433C33.2304 32.9517 33.1582 32.9878 33.0859 33.0239C32.7969 33.1684 32.544 33.3491 32.2549 33.4936C32.1466 33.5659 32.0382 33.6742 31.8937 33.7104C31.4962 33.9271 31.3517 34.3607 31.6407 34.722C31.713 34.7942 31.713 34.8665 31.6769 34.9387C31.6769 34.9749 31.6407 34.9749 31.6407 35.011C31.6046 35.2278 31.4962 35.3723 31.2795 35.4807C31.0266 35.5891 30.9543 35.842 31.0266 36.0949C31.5324 37.8652 32.4356 39.3826 34.2781 40.1052C35.9401 40.7193 37.5297 40.5026 39.0471 39.5993C39.8781 39.0935 40.5284 38.4071 41.0703 37.6123C41.1065 37.5761 41.1787 37.54 41.2149 37.5039C42.4794 37.4316 43.3465 36.2755 42.9852 35.0471C42.949 34.9749 42.9852 34.9387 43.0574 34.8665C43.2019 34.7581 43.3465 34.6497 43.491 34.5413C43.9245 34.2162 43.9968 33.7465 43.9606 33.2768C43.8884 32.5542 43.5994 31.9039 43.2381 31.2897C42.4432 29.8807 41.3955 28.6523 40.0587 27.713C39.6252 27.3878 39.1555 27.1349 38.5775 27.0266C38.1439 26.9543 37.7826 27.0266 37.4213 27.2795C37.2407 27.4601 37.1323 27.5685 36.9517 27.713ZM40.5284 31.8678C40.3116 31.6149 40.0949 31.362 39.8781 31.1091C39.2639 30.4227 38.722 29.7001 38.0355 29.122C37.2768 28.5078 36.5181 27.8575 35.5426 27.4962C35.6149 27.4962 35.6149 27.4962 35.651 27.4962C36.0846 27.6769 36.5543 27.8575 37.0239 28.0743C37.1684 27.9298 37.3852 27.7853 37.5659 27.6407C37.7104 27.5324 37.8188 27.4601 37.9633 27.5685C37.9271 27.5324 37.9994 27.5324 38.0355 27.5324C38.1439 27.5324 38.2523 27.5324 38.3607 27.5324C38.7581 27.6046 39.1194 27.7853 39.4807 28.002C40.4562 28.6162 41.2871 29.4111 41.9736 30.3143C42.5516 31.073 43.0213 31.9039 43.3103 32.8072C43.4187 33.1323 43.4548 33.4213 43.4187 33.7826C43.3826 34.0717 42.9852 34.5052 42.6961 34.5413C42.66 34.5413 42.6239 34.5052 42.5877 34.4691C42.4071 34.3246 42.2626 34.18 42.0819 33.9994C42.0458 33.9633 42.0097 33.9271 41.9736 33.891C41.7207 33.0962 41.3594 32.3375 40.8536 31.651C40.2033 30.7117 39.4446 29.8807 38.5052 29.1943C38.4691 29.1582 38.4329 29.1582 38.3968 29.122C38.3968 29.1582 38.3968 29.1943 38.4329 29.1943C38.722 29.4833 38.9749 29.7723 39.2278 30.0614C39.7336 30.6394 40.2033 31.1814 40.5284 31.8678C40.5645 31.8678 40.5645 31.8678 40.6007 31.8678C40.5645 31.8678 40.5284 31.8678 40.5284 31.8678ZM31.8937 36.0949C31.8937 36.131 31.8937 36.131 31.8937 36.0949C31.9298 36.2032 31.9659 36.2755 32.002 36.3116C32.5078 36.8897 33.1582 37.2149 33.8446 37.4678C34.3865 37.6484 34.9646 37.7568 35.5426 37.6484C35.9039 37.5761 36.193 37.4316 36.3375 37.0703C36.482 36.6368 36.2652 36.0587 35.6872 36.131C35.4704 36.131 35.2175 36.0949 35.0007 36.0587C33.8446 35.8781 32.8691 35.4084 32.0743 34.5413C31.9298 34.3607 31.9659 34.18 32.1827 34.1078C32.2188 34.1078 32.2911 34.0717 32.3272 34.0717C32.6162 33.7465 33.0136 33.5659 33.4111 33.3852C33.5556 33.313 33.6278 33.2046 33.6278 33.0962C33.664 32.8433 33.664 32.6265 33.7362 32.3736C33.7723 32.0484 33.8085 31.7233 33.9169 31.4343C34.0252 31.073 34.3504 30.9646 34.6756 31.1091C34.7839 31.1452 34.8562 31.2175 34.9285 31.2897C35.1452 31.5065 35.4343 31.651 35.7594 31.6872C36.0485 31.7233 36.3736 31.6872 36.6626 31.6872C37.2768 31.6872 37.7826 32.0484 37.9271 32.6265C38.0355 32.9155 38.0355 33.2046 38.0355 33.4575C38.0355 33.5297 38.0355 33.602 38.0355 33.7104C38.1078 33.6381 38.18 33.602 38.2523 33.5659C38.1439 33.9994 37.891 34.2884 37.602 34.5775C37.6742 34.5775 37.7104 34.5775 37.7465 34.5775V34.6136C37.5659 34.722 37.3852 34.8304 37.2046 34.9387C37.8188 35.4807 38.0355 36.2032 37.9271 36.8536C37.891 36.8174 37.8549 36.7452 37.7826 36.6729C37.7826 37.0342 37.7826 37.3594 37.6742 37.6845C37.602 37.54 37.5297 37.4678 37.4575 37.3232C37.4213 37.6845 37.3852 37.9736 37.2046 38.2626C37.1684 38.1542 37.1684 38.0458 37.1684 37.9374C37.1323 38.0458 37.0962 38.1181 37.0601 38.1542C36.8072 38.66 36.4459 38.949 35.9039 39.0574C35.4704 39.1658 35.0368 39.1658 34.6033 39.0935C33.1943 38.8045 32.2188 38.0097 31.713 36.6729C31.6769 36.5645 31.6407 36.4923 31.6046 36.3839C31.5324 36.2394 31.4601 36.0949 31.5685 35.9503C31.6769 35.8058 31.8214 35.8058 31.9659 35.842C31.9659 35.842 31.9659 35.842 32.002 35.842C32.0382 35.5891 32.0743 35.3 32.2188 35.0471C32.2911 35.1194 32.3633 35.1916 32.4356 35.2278C33.4111 36.0226 34.531 36.3478 35.7233 36.3839C36.0485 36.3839 36.0846 36.42 36.193 36.7452C35.2175 36.9981 34.3143 36.6729 33.4111 36.4562C34.242 36.962 35.1814 37.1426 36.1568 36.9981C36.0846 37.2149 35.9039 37.3232 35.7233 37.3594C35.2175 37.5039 34.7478 37.4316 34.242 37.3232C33.3027 37.1065 32.5801 36.6729 31.8937 36.0949ZM40.3116 35.1194C40.3478 34.9387 40.3839 34.7942 40.4562 34.6858C40.5284 34.5413 40.6007 34.3968 40.7091 34.3607C40.9258 34.2523 41.1787 34.2162 41.4678 34.2523C42.1903 34.3968 42.66 35.0471 42.5877 35.8058C42.5516 36.3839 42.1181 36.8897 41.6123 37.0703C41.0703 37.2149 40.4562 36.9981 40.131 36.5284C39.9142 36.2032 39.842 35.842 39.9142 35.4445C39.9865 35.5529 40.0226 35.6252 40.0587 35.6974C40.0949 35.4084 40.131 35.1194 40.1671 34.8665H40.2033C40.2394 34.9026 40.2394 34.9749 40.2755 35.011C40.2755 35.011 40.2755 35.0471 40.3116 35.1194ZM39.2639 31.651C39.2278 31.6149 39.1916 31.5788 39.1194 31.5426C38.4691 30.8923 37.7465 30.3865 36.8794 30.0614C36.1568 29.7723 35.3981 29.5917 34.6033 29.9169C34.6756 29.7362 35.1091 29.3749 35.2175 29.4111C35.2175 29.4472 35.1814 29.4833 35.1814 29.5194C35.4343 29.4472 35.651 29.3388 35.8678 29.2304V29.2665C35.8317 29.3388 35.7956 29.3749 35.7594 29.4472C36.0123 29.4111 36.3014 29.3749 36.5543 29.3388V29.3749C36.482 29.4111 36.4097 29.4472 36.3375 29.4833C37.0239 29.4833 37.313 29.5194 37.5297 29.664C37.4213 29.7001 37.2768 29.7001 37.1684 29.7362C37.4575 29.8807 37.7826 29.953 38.1078 30.1698C37.9633 30.1698 37.891 30.1336 37.7826 30.1336C38.3246 30.5672 38.8665 31.0368 39.2639 31.651Z" fill="#1E3F69"/>
<path d="M31.8937 36.0948C32.5801 36.6729 33.3027 37.1064 34.1698 37.2871C34.6756 37.3955 35.1452 37.4677 35.651 37.3232C35.8678 37.2871 36.0123 37.1787 36.0846 36.9619C35.1091 37.0703 34.2059 36.9258 33.3388 36.42C34.242 36.6368 35.1452 36.9619 36.1207 36.709C36.0123 36.3838 35.9762 36.3477 35.651 36.3477C34.4227 36.3116 33.3027 35.9864 32.3633 35.1916C32.2911 35.1193 32.2188 35.0832 32.1466 35.011C32.002 35.2639 31.9659 35.5168 31.9298 35.8058H31.8937C31.7491 35.7697 31.6046 35.7697 31.4962 35.9142C31.3879 36.0587 31.4601 36.2032 31.5324 36.3477C31.5685 36.4561 31.6046 36.5284 31.6408 36.6368C32.1466 38.0096 33.122 38.8045 34.5311 39.0574C34.9646 39.1296 35.3981 39.1296 35.8317 39.0212C36.3736 38.9129 36.771 38.5877 36.9878 38.118C37.0239 38.0458 37.0601 37.9735 37.0962 37.9013C37.1323 38.0096 37.1323 38.118 37.1323 38.2264C37.313 37.9374 37.3491 37.6122 37.3852 37.2871C37.4575 37.4316 37.5297 37.54 37.602 37.6484C37.7104 37.3232 37.7465 36.998 37.7104 36.6368C37.7826 36.709 37.8188 36.7813 37.8549 36.8174C37.9994 36.2032 37.7465 35.4806 37.1323 34.9026C37.313 34.7942 37.4936 34.6858 37.6743 34.5774V34.5413C37.6381 34.5413 37.602 34.5413 37.5297 34.5413C37.8549 34.2523 38.0717 33.9632 38.1801 33.5297C38.1078 33.5658 38.0717 33.6381 37.9633 33.6742C37.9633 33.5658 37.9633 33.4936 37.9633 33.4213C37.9633 33.1684 37.9633 32.8794 37.891 32.6265C37.7465 32.0484 37.2407 31.6871 36.6265 31.6871C36.3375 31.6871 36.0123 31.6871 35.7233 31.6871C35.3981 31.651 35.1452 31.5065 34.8923 31.2897C34.8201 31.2174 34.7117 31.1452 34.6394 31.1091C34.3143 30.9645 33.9891 31.1091 33.8807 31.4342C33.7724 31.7232 33.7362 32.0484 33.7001 32.3736C33.664 32.6265 33.6278 32.8432 33.5917 33.0961C33.5556 33.2407 33.4833 33.349 33.3749 33.3852C32.9775 33.5658 32.5801 33.7465 32.2911 34.0716C32.2549 34.1077 32.1827 34.1077 32.1466 34.1077C31.9298 34.18 31.8575 34.3606 32.0382 34.5413C32.833 35.4084 33.8085 35.9142 34.9646 36.0587C35.1814 36.0948 35.4343 36.1309 35.651 36.1309C36.2291 36.0948 36.482 36.6729 36.3014 37.0703C36.1568 37.4316 35.8678 37.5761 35.5065 37.6484C34.9285 37.7567 34.3504 37.6484 33.8085 37.4677C33.0859 37.2148 32.4717 36.8535 31.9659 36.3116C31.9659 36.2755 31.9298 36.2032 31.8937 36.0948C31.8575 36.0948 31.8575 36.0948 31.8575 36.0587C31.8575 36.0948 31.8937 36.0948 31.8937 36.0948ZM35.7233 33.6742C35.8317 33.3852 36.1568 33.2407 36.5181 33.2768C36.8433 33.3129 37.1323 33.4936 37.1323 33.7465C36.6626 33.5297 36.193 33.3852 35.7233 33.6742ZM34.0253 33.1323C34.0253 32.9155 34.0975 32.6987 34.242 32.4819C34.2782 32.4458 34.3504 32.4097 34.3865 32.4097C34.4227 32.4097 34.4949 32.4819 34.4949 32.5181C34.4949 32.6626 34.4949 32.8432 34.4949 32.9878C34.4949 33.0239 34.4588 33.06 34.4227 33.06C34.2782 33.0961 34.1698 33.0961 34.0253 33.1323ZM36.6265 34.0716C36.3375 34.0355 36.0485 33.9994 35.7594 33.9632C35.9401 33.8187 36.1207 33.7826 36.3375 33.8548C36.482 33.8548 36.5904 33.9271 36.6265 34.0716ZM34.784 33.7103C34.8201 33.7465 34.8562 33.7826 34.8923 33.8548C34.9285 33.9632 34.784 34.0716 34.6394 34.0716C34.5311 34.0716 34.4949 34.0355 34.4949 33.9271C34.4949 33.8187 34.6033 33.7103 34.784 33.7103ZM33.9169 33.6019C33.953 33.5658 33.9891 33.4936 34.0253 33.4936C34.1336 33.4936 34.1698 33.6019 34.1698 33.6742C34.1698 33.7465 34.0975 33.8187 34.0614 33.8187C33.953 33.8548 33.9169 33.7465 33.9169 33.6019Z" fill="#FCFCFC"/>
<path d="M40.5284 31.8317C40.2033 31.1814 39.7336 30.6395 39.2639 30.0975C39.011 29.8085 38.722 29.5195 38.4691 29.2305C38.4691 29.2305 38.4329 29.1943 38.4329 29.1582C38.4691 29.1943 38.5052 29.1943 38.5413 29.2305C39.4807 29.9169 40.2394 30.7479 40.8897 31.6872C41.3594 32.3736 41.7568 33.0962 42.0097 33.9272C42.0097 33.9633 42.0819 33.9994 42.1181 34.0356C42.2626 34.1801 42.4432 34.3246 42.6239 34.5052C42.66 34.5414 42.6961 34.5775 42.7323 34.5775C43.0213 34.5414 43.4187 34.1078 43.4548 33.8188C43.491 33.4936 43.4548 33.1685 43.3464 32.8433C43.0574 31.9401 42.5877 31.1091 42.0097 30.3504C41.2871 29.4111 40.4562 28.6163 39.4807 28.0021C39.1194 27.7853 38.7581 27.6047 38.3607 27.5324C38.2523 27.5324 38.1439 27.5324 38.0355 27.5324C37.9994 27.5324 37.9271 27.5324 37.891 27.5324C37.7465 27.424 37.602 27.4963 37.4936 27.6047C37.313 27.7853 37.1323 27.9298 36.9517 28.0382C36.482 27.8576 36.0123 27.6408 35.5788 27.4601C35.5426 27.4601 35.5426 27.4601 35.4704 27.4601C36.4459 27.8214 37.2046 28.4717 37.9633 29.0859C38.6858 29.664 39.2278 30.3866 39.8058 31.073C40.0587 31.3259 40.2755 31.5788 40.5284 31.8317ZM37.9271 28.7608C38.2523 28.5079 38.5775 28.2188 38.8665 27.9659C38.8665 28.1827 38.8304 28.3634 38.6497 28.4717C38.5413 28.544 38.4329 28.6885 38.2884 28.7608C38.1078 28.9414 38.1078 28.9414 37.9271 28.7608ZM38.1078 28.255C38.1078 28.2911 38.1078 28.2911 38.1078 28.255C37.9994 28.3634 37.891 28.4717 37.7826 28.5801C37.7104 28.544 37.6381 28.4717 37.5659 28.3995C37.7465 28.3634 37.9271 28.3272 38.1078 28.255ZM37.8549 28.0743C37.891 27.9659 37.891 27.8937 37.9271 27.8214C37.9633 27.7492 37.9633 27.6769 37.9994 27.5685C38.1439 27.8937 38.0717 28.0382 37.8549 28.0743ZM37.2046 28.2188C37.313 28.1466 37.3852 28.0743 37.4936 27.9659C37.4575 28.1105 37.4213 28.2188 37.3852 28.3272C37.3491 28.2911 37.2768 28.255 37.2046 28.2188Z" fill="#FCFCFC"/>
<path d="M40.3117 35.1194C40.2755 35.0471 40.2755 35.011 40.2394 34.9749C40.2033 34.9388 40.2033 34.8665 40.1671 34.8304H40.131C40.0949 35.1194 40.0588 35.3723 40.0226 35.6613C39.9865 35.5891 39.9504 35.5168 39.8781 35.4084C39.8059 35.842 39.8781 36.1671 40.0949 36.4923C40.42 36.962 41.0342 37.2149 41.5762 37.0342C42.1181 36.8897 42.5155 36.3478 42.5516 35.7697C42.5878 35.011 42.1181 34.3607 41.4316 34.2162C41.1787 34.18 40.9258 34.18 40.6729 34.3246C40.5646 34.3968 40.4562 34.5413 40.42 34.6497C40.3839 34.8304 40.3478 34.9749 40.3117 35.1194ZM40.6368 35.4084C40.6007 35.3723 40.5646 35.3362 40.5646 35.3C40.6007 35.1917 40.6007 35.011 40.6729 34.9388C40.962 34.6136 41.4316 34.5775 41.7929 34.8665C42.1181 35.1555 42.1904 35.6975 41.9375 36.0226C41.9013 36.0587 41.8652 36.0949 41.7929 36.131C41.9375 35.6252 41.9736 35.1917 41.4316 35.011C41.1065 34.8665 40.8897 34.9749 40.6368 35.4084ZM41.2149 36.42C41.0704 36.6007 40.7813 36.6007 40.6007 36.42C40.3478 36.1671 40.42 35.7697 40.7813 35.5891C40.9981 35.4807 40.9981 35.4446 40.8897 35.2639C40.962 35.2639 41.0342 35.2639 41.0704 35.3C41.1065 35.3362 41.1426 35.4446 41.1065 35.4807C41.0342 35.5891 40.962 35.6613 40.8536 35.7336C40.6729 35.8781 40.6368 35.9504 40.6729 36.131C40.7091 36.2755 40.8536 36.3839 41.0342 36.3839C41.1065 36.42 41.1426 36.42 41.2149 36.42Z" fill="#FBFBFB"/>
<path d="M39.2639 31.651C38.8665 31.0368 38.3246 30.5672 37.7465 30.1698C37.8549 30.1698 37.9272 30.1698 38.0717 30.2059C37.7826 29.9891 37.4575 29.9169 37.1323 29.7723C37.2407 29.7362 37.3852 29.7362 37.4936 29.7001C37.2768 29.5556 36.9878 29.5194 36.3014 29.5194C36.3736 29.4833 36.4459 29.4472 36.5181 29.4111V29.3749C36.2652 29.4111 36.0123 29.4472 35.7233 29.4833C35.7956 29.4111 35.8317 29.3388 35.8678 29.2665V29.2304C35.651 29.3388 35.4343 29.4111 35.2175 29.5194C35.2536 29.4833 35.2536 29.4472 35.2536 29.4111C35.1452 29.3749 34.6756 29.7001 34.6394 29.9169C35.4343 29.5917 36.193 29.8085 36.9155 30.0614C37.7826 30.3865 38.5052 30.8923 39.1555 31.5426C39.1917 31.5788 39.2278 31.6149 39.2639 31.651Z" fill="#F6F6F6"/>
<path d="M40.5284 31.8678H40.5646C40.5646 31.8317 40.5646 31.8317 40.5284 31.8678C40.5284 31.8317 40.5284 31.8317 40.5284 31.8678Z" fill="#FCFCFC"/>
<path d="M35.7233 33.6742C36.193 33.3852 36.6627 33.5297 37.1323 33.7465C37.0962 33.5297 36.8072 33.3491 36.5181 33.2768C36.1568 33.2407 35.8317 33.4213 35.7233 33.6742Z" fill="#1E3F69"/>
<path d="M34.0253 33.1324C34.1698 33.0962 34.2782 33.0962 34.3865 33.0601C34.4227 33.0601 34.4588 33.024 34.4588 32.9878C34.4588 32.8433 34.4949 32.6627 34.4588 32.5182C34.4588 32.482 34.3865 32.4098 34.3504 32.4098C34.3143 32.4098 34.242 32.4459 34.2059 32.482C34.0975 32.6988 34.0614 32.9156 34.0253 33.1324Z" fill="#1E3F69"/>
<path d="M36.6265 34.0717C36.5903 33.9272 36.4819 33.8549 36.3374 33.8188C36.1207 33.7826 35.94 33.7826 35.7594 33.9272C36.0484 33.9994 36.3374 34.0355 36.6265 34.0717Z" fill="#1E3F69"/>
<path d="M34.7839 33.7103C34.6033 33.7103 34.4949 33.8187 34.4949 33.9271C34.4949 34.0355 34.5672 34.0716 34.6394 34.0716C34.7478 34.0716 34.8923 33.9632 34.8923 33.8548C34.8562 33.7826 34.8201 33.7465 34.7839 33.7103Z" fill="#1E3F69"/>
<path d="M33.9169 33.602C33.9169 33.7465 33.953 33.8549 34.0614 33.8549C34.0975 33.8549 34.1698 33.7465 34.1698 33.7104C34.1698 33.602 34.1337 33.4936 34.0253 33.5297C33.9892 33.4936 33.953 33.602 33.9169 33.602Z" fill="#1E3F69"/>
<path d="M31.8937 36.0949C31.8937 36.0949 31.8575 36.0949 31.8575 36.0588C31.8575 36.0949 31.8575 36.131 31.8937 36.0949C31.8937 36.131 31.8937 36.131 31.8937 36.0949Z" fill="#1E3F69"/>
<path d="M37.9271 28.7608C38.1078 28.9414 38.1078 28.9414 38.3245 28.7608C38.4329 28.6524 38.5413 28.544 38.6858 28.4717C38.8665 28.3634 38.9026 28.1827 38.9026 27.9659C38.5413 28.2188 38.2523 28.5079 37.9271 28.7608Z" fill="#1E3F69"/>
<path d="M38.1078 28.2549C37.9271 28.3271 37.7465 28.3633 37.5659 28.4355C37.602 28.5078 37.6742 28.5439 37.7465 28.6162C37.8549 28.5078 37.9994 28.3994 38.1078 28.2549C38.1078 28.291 38.1078 28.291 38.1078 28.2549Z" fill="#1E3F69"/>
<path d="M37.8548 28.0743C38.1077 28.0382 38.1439 27.8936 37.9993 27.5685C37.9632 27.6407 37.9632 27.7491 37.9271 27.8214C37.891 27.8936 37.8548 27.9659 37.8548 28.0743Z" fill="#1E3F69"/>
<path d="M37.2046 28.2188C37.2769 28.2549 37.313 28.291 37.3853 28.3633C37.4214 28.2549 37.4575 28.1465 37.4937 28.002C37.3853 28.0743 37.313 28.1465 37.2046 28.2188Z" fill="#1E3F69"/>
<path d="M40.6368 35.4084C40.8535 35.011 41.0703 34.8665 41.4316 35.011C41.9735 35.1916 41.9374 35.6613 41.7929 36.131C41.8651 36.0587 41.9374 36.0587 41.9374 36.0226C42.1903 35.6974 42.118 35.1555 41.7929 34.8665C41.4316 34.5774 40.9619 34.5774 40.6729 34.9387C40.6006 35.0471 40.5645 35.1916 40.5645 35.3C40.5645 35.3361 40.6006 35.3723 40.6368 35.4084Z" fill="#1E3F69"/>
<path d="M41.2148 36.42C41.1426 36.42 41.1065 36.42 41.0342 36.42C40.8536 36.42 40.709 36.3478 40.6729 36.1671C40.6368 35.9865 40.6729 35.8781 40.8536 35.7697C40.9619 35.6975 41.0342 35.5891 41.1065 35.5168C41.1426 35.4807 41.1065 35.3723 41.0703 35.3362C41.0342 35.3 40.9619 35.3 40.8897 35.3C41.0342 35.4807 40.9981 35.5168 40.7813 35.6252C40.4561 35.8059 40.3839 36.1671 40.6007 36.4562C40.7813 36.6007 41.0703 36.6007 41.2148 36.42Z" fill="#1E3F69"/>
<path d="M0 4C0 1.79086 1.79086 0 4 0H56C58.2091 0 60 1.79086 60 4V9H0V4Z" fill="#1E3F69"/>
<circle cx="4.5" cy="4.5" r="1.5" fill="#FF4F59"/>
<circle cx="9.5" cy="4.5" r="1.5" fill="#FCFEFF"/>
<circle cx="14.5" cy="4.5" r="1.5" fill="#FFF507"/>
</svg>
