<svg width="60" height="60" viewBox="0 0 60 60" fill="none" xmlns="http://www.w3.org/2000/svg">
<path d="M15.9684 36.8636L16.0746 34.994L14.505 36.0234L13.9418 35.0447L15.6175 34.2045L13.9418 33.3643L14.505 32.3857L16.0746 33.4151L15.9684 31.5455H17.0902L16.9886 33.4151L18.5582 32.3857L19.1214 33.3643L17.4411 34.2045L19.1214 35.0447L18.5582 36.0234L16.9886 34.994L17.0902 36.8636H15.9684Z" fill="#1E62B9"/>
<path d="M23.9684 36.8636L24.0746 34.994L22.505 36.0234L21.9418 35.0447L23.6175 34.2045L21.9418 33.3643L22.505 32.3857L24.0746 33.4151L23.9684 31.5455H25.0902L24.9886 33.4151L26.5582 32.3857L27.1214 33.3643L25.4411 34.2045L27.1214 35.0447L26.5582 36.0234L24.9886 34.994L25.0902 36.8636H23.9684Z" fill="#1E62B9"/>
<path d="M31.9684 36.8636L32.0746 34.994L30.505 36.0234L29.9418 35.0447L31.6175 34.2045L29.9418 33.3643L30.505 32.3857L32.0746 33.4151L31.9684 31.5455H33.0902L32.9886 33.4151L34.5582 32.3857L35.1214 33.3643L33.4411 34.2045L35.1214 35.0447L34.5582 36.0234L32.9886 34.994L33.0902 36.8636H31.9684Z" fill="#1E62B9"/>
<rect x="9" y="25" width="42" height="18" rx="1" stroke="#1E62B9" stroke-width="2"/>
<line x1="38" y1="37.5" x2="46" y2="37.5" stroke="#1E62B9"/>
<rect width="60" height="60" rx="4" fill="#1E62B9" fill-opacity="0.1"/>
<path d="M0 4C0 1.79086 1.79086 0 4 0H56C58.2091 0 60 1.79086 60 4V9H0V4Z" fill="#1E3F69"/>
<circle cx="4.5" cy="4.5" r="1.5" fill="#FF4F59"/>
<circle cx="9.5" cy="4.5" r="1.5" fill="#FCFEFF"/>
<circle cx="14.5" cy="4.5" r="1.5" fill="#FFF507"/>
</svg>
