<svg width="60" height="60" viewBox="0 0 60 60" fill="none" xmlns="http://www.w3.org/2000/svg">
<rect width="60" height="60" rx="4" fill="#1E62B9" fill-opacity="0.1"/>
<g clip-path="url(#clip0_109_149)">
<path d="M48 36.393C47.956 36.6921 47.8944 37 47.8769 37.2991C47.7185 39.7801 47.3315 42.2258 46.795 44.654C46.6279 45.4194 46.1617 45.5865 45.5636 45.0938C44.8424 44.5132 44.1212 43.9326 43.3911 43.3343C40.4534 47.7067 36.3371 50.2229 31.1478 50.9179C27.5416 51.4018 24.1202 50.7067 20.8834 48.956C21.9125 47.3548 22.9328 45.7625 23.9619 44.1613C27.1634 45.6833 30.3914 45.7977 33.6457 44.4076C35.9062 43.4399 37.6741 41.9003 38.8966 39.7009C38.3601 39.2698 37.8324 38.8387 37.3134 38.4164C35.7742 37.1672 34.235 35.9267 32.6958 34.6774C32.6518 34.6422 32.6079 34.607 32.5639 34.5631C32.1241 34.176 32.1153 33.7977 32.5815 33.4194C33.7777 32.4428 34.9826 31.4663 36.1876 30.4985C37.0672 29.7859 37.9555 29.0733 38.8791 28.3255C36.9177 24.956 33.9887 23.0733 30.1627 22.695C26.3279 22.3167 23.1351 23.7243 20.5052 26.5396C18.8253 25.5806 17.1717 24.6217 15.5182 23.6628C22.7921 14.1261 37.2607 14.9795 43.3296 24.7097C44.0772 24.1026 44.8248 23.5044 45.5636 22.8974C46.1617 22.4135 46.6279 22.5806 46.795 23.346C47.4019 26.0469 47.7977 28.7742 47.9296 31.5455C47.9296 31.5894 47.9736 31.6422 47.9912 31.6862C48 33.2522 48 34.827 48 36.393ZM45.722 43.607C47.0501 37.1848 47.0589 30.8153 45.722 24.393C41.7464 27.6129 37.8148 30.7977 33.8568 34C37.8236 37.2111 41.7552 40.3959 45.722 43.607Z" fill="#1E62B9"/>
<path d="M12 32.6012C12.044 32.3812 12.1056 32.1613 12.1319 31.9413C12.4398 29.3284 13.3369 26.9355 14.7706 24.7009C16.4153 25.651 18.0425 26.6012 19.6785 27.5425C15.9756 33.0059 17.6643 40.1672 22.8449 43.5455C21.8334 45.129 20.8131 46.7038 19.7664 48.3402C19.1771 47.8915 18.579 47.478 18.0337 47.0117C15.0257 44.4164 13.1082 41.1613 12.3078 37.2463C12.2023 36.7097 12.1495 36.1554 12.0704 35.61C12.0616 35.5396 12.0176 35.4692 11.9912 35.3988C12 34.4751 12 33.5337 12 32.6012Z" fill="#1E62B9"/>
</g>
<path d="M0 4C0 1.79086 1.79086 0 4 0H56C58.2091 0 60 1.79086 60 4V9H0V4Z" fill="#1E3F69"/>
<circle cx="4.5" cy="4.5" r="1.5" fill="#FF4F59"/>
<circle cx="9.5" cy="4.5" r="1.5" fill="#FCFEFF"/>
<circle cx="14.5" cy="4.5" r="1.5" fill="#FFF507"/>
<defs>
<clipPath id="clip0_109_149">
<rect width="36" height="36" fill="white" transform="translate(12 16)"/>
</clipPath>
</defs>
</svg>
