<svg width="60" height="60" viewBox="0 0 60 60" fill="none" xmlns="http://www.w3.org/2000/svg">
<rect width="60" height="60" rx="4" fill="#1E62B9" fill-opacity="0.1"/>
<path d="M21.6903 16C28.0881 16 34.4646 16 40.8945 16C40.8945 16.1967 40.8945 16.3831 40.8945 16.5798C40.8945 17.7808 40.8945 18.9819 40.8945 20.1933C40.8945 20.7524 41.1188 20.9698 41.6956 20.9698C43.1268 20.9698 44.5474 20.9698 46 20.9698C46 29.667 46 38.3434 46 47.0406C37.9146 47.0406 29.8184 47.0406 21.6903 47.0406C21.6903 36.6972 21.6903 26.3641 21.6903 16ZM38.0214 27.7929C39.9867 27.7929 41.9413 27.7929 43.9066 27.7929C44.526 27.7929 44.7397 27.5858 44.7397 26.975C44.7397 25.8671 44.7397 24.7489 44.7397 23.6411C44.7397 23.0302 44.526 22.8231 43.9066 22.8231C39.976 22.8231 36.0347 22.8128 32.1041 22.8335C31.8585 22.8335 31.5594 22.9577 31.3672 23.1234C30.7797 23.6411 30.2243 24.2105 29.6582 24.7593C29.2523 25.1631 29.2523 25.453 29.6582 25.8568C30.2029 26.3848 30.7584 26.9129 31.2924 27.4513C31.5381 27.7101 31.8158 27.8033 32.1789 27.8033C34.1228 27.7826 36.0668 27.7929 38.0214 27.7929ZM38.0107 34.0052C39.9973 34.0052 41.984 34.0052 43.9706 34.0052C44.494 34.0052 44.729 33.7774 44.729 33.2701C44.729 32.1104 44.729 30.9405 44.729 29.7808C44.729 29.2528 44.494 29.0354 43.9386 29.0354C39.976 29.0354 36.0134 29.025 32.0507 29.0457C31.8158 29.0457 31.5274 29.17 31.3565 29.3253C30.769 29.8533 30.2136 30.4124 29.6475 30.9612C29.2203 31.3753 29.231 31.6549 29.6582 32.0794C30.2029 32.6074 30.7584 33.1355 31.2924 33.6739C31.5274 33.9016 31.773 34.0052 32.1041 34.0052C34.0801 33.9948 36.0454 34.0052 38.0107 34.0052ZM29.6796 42.0811C31.6449 42.0811 33.5995 42.0915 35.5648 42.0707C35.8211 42.0707 36.1415 41.9465 36.3338 41.7705C36.9319 41.2528 37.4766 40.6833 38.0427 40.1346C38.4379 39.7515 38.4379 39.4409 38.0534 39.0682C37.4873 38.5091 36.9212 37.9396 36.3231 37.4012C36.1415 37.2459 35.8638 37.1217 35.6182 37.1217C31.6556 37.1009 27.6929 37.1113 23.7303 37.1113C23.1856 37.1113 22.9506 37.3287 22.9506 37.8671C22.9506 38.9957 22.9506 40.1139 22.9506 41.2424C22.9506 41.8947 23.1535 42.0811 23.8371 42.0811C25.7811 42.0811 27.725 42.0811 29.6796 42.0811ZM28.0668 25.2977C28.0668 24.7179 28.0668 24.1381 28.0668 23.5582C28.0668 23.0509 27.8318 22.8231 27.3084 22.8231C26.1122 22.8231 24.9052 22.8231 23.709 22.8231C23.1856 22.8231 22.9506 23.0509 22.9399 23.5479C22.9399 24.7282 22.9399 25.8982 22.9399 27.0785C22.9399 27.5548 23.1856 27.7929 23.6769 27.7929C24.8945 27.7929 26.1015 27.7929 27.3191 27.7929C27.8318 27.7929 28.0668 27.5548 28.0668 27.0475C28.0774 26.4676 28.0668 25.8775 28.0668 25.2977ZM28.0668 31.5617C28.0668 30.9508 28.0774 30.3503 28.0668 29.7394C28.0561 29.2839 27.8211 29.0457 27.3511 29.0354C26.1228 29.025 24.8945 29.025 23.6769 29.0354C23.1856 29.0354 22.9506 29.2735 22.9399 29.7498C22.9399 30.9301 22.9399 32.1001 22.9399 33.2804C22.9399 33.767 23.1749 33.9948 23.6662 34.0052C24.8839 34.0155 26.0908 34.0052 27.3084 34.0052C27.8211 34.0052 28.0561 33.7774 28.0668 33.2701C28.0774 32.7006 28.0668 32.1311 28.0668 31.5617ZM42.1762 37.1113C41.5781 37.1113 40.98 37.1113 40.3819 37.1113C39.8478 37.1113 39.6128 37.3287 39.6128 37.8361C39.6128 39.0164 39.6128 40.1864 39.6128 41.3667C39.6128 41.8533 39.8478 42.0811 40.3498 42.0811C41.5674 42.0915 42.7744 42.0811 43.992 42.0811C44.5047 42.0811 44.7397 41.843 44.7397 41.3356C44.7397 40.176 44.7397 39.006 44.7397 37.8464C44.7397 37.3391 44.5047 37.1113 43.9813 37.1113C43.3725 37.1113 42.7744 37.1113 42.1762 37.1113Z" fill="#1E62B9"/>
<path d="M17.8238 49.5151C17.8238 39.1717 17.8238 28.849 17.8238 18.4952C18.6676 18.4952 19.5007 18.4952 20.3765 18.4952C20.3765 18.6402 20.3765 18.7955 20.3765 18.9405C20.3765 28.4141 20.3765 37.8878 20.3765 47.3615C20.3765 48.1277 20.5474 48.2933 21.3378 48.2933C28.1202 48.2933 34.9025 48.2933 41.6849 48.2933C41.8345 48.2933 41.9733 48.2933 42.1442 48.2933C42.1442 48.7075 42.1442 49.1009 42.1442 49.5151C34.0588 49.5151 25.9626 49.5151 17.8238 49.5151Z" fill="#1E62B9"/>
<path d="M14 20.9698C14.8438 20.9698 15.6662 20.9698 16.5421 20.9698C16.5421 21.1251 16.5421 21.2804 16.5421 21.4254C16.5421 30.899 16.5421 40.3727 16.5421 49.8464C16.5421 50.6126 16.713 50.7782 17.5033 50.7782C24.2857 50.7782 31.0681 50.7782 37.8505 50.7782C38 50.7782 38.1389 50.7782 38.3097 50.7782C38.3097 51.1924 38.3097 51.5858 38.3097 52C30.2243 52 22.1282 52 14 52C14 41.6669 14 31.3339 14 20.9698Z" fill="#1E62B9"/>
<path d="M42.1976 16.9733C43.1268 17.874 44.0668 18.7852 45.0067 19.6963C44.0988 19.6963 43.1589 19.6963 42.1976 19.6963C42.1976 18.7955 42.1976 17.8844 42.1976 16.9733Z" fill="#1E62B9"/>
<path d="M30.8758 25.308C31.3031 24.9042 31.6769 24.5418 32.0614 24.1898C32.1362 24.1173 32.2644 24.0656 32.3712 24.0656C36.0454 24.0656 39.709 24.0656 43.3832 24.0656C43.3939 24.0656 43.4045 24.0759 43.4366 24.0966C43.4366 24.8939 43.4366 25.7014 43.4366 26.5401C43.2977 26.5401 43.1696 26.5401 43.0414 26.5401C39.5487 26.5401 36.0454 26.5401 32.5527 26.5401C32.2964 26.5401 32.1041 26.478 31.9226 26.2916C31.6128 25.9706 31.2604 25.6704 30.8758 25.308Z" fill="#1E62B9"/>
<path d="M43.4366 30.2778C43.4366 31.1165 43.4366 31.9137 43.4366 32.742C43.3191 32.7524 43.2016 32.7627 43.0841 32.7627C39.5594 32.7627 36.0347 32.7627 32.5207 32.7524C32.3284 32.7524 32.0935 32.6385 31.9439 32.5142C31.5808 32.214 31.2604 31.8723 30.8865 31.5099C31.3138 31.1061 31.709 30.723 32.1148 30.3503C32.1682 30.2985 32.2857 30.2778 32.3712 30.2778C36.0454 30.2778 39.7196 30.2778 43.4366 30.2778Z" fill="#1E62B9"/>
<path d="M36.8037 39.6169C36.3765 40.0104 35.992 40.3831 35.5861 40.7351C35.5114 40.8076 35.3725 40.8387 35.2657 40.8387C31.6235 40.8387 27.9813 40.8387 24.3391 40.8387C24.3178 40.8387 24.2857 40.8283 24.243 40.818C24.243 40.0104 24.243 39.2028 24.243 38.3745C24.3498 38.3641 24.4673 38.3538 24.5848 38.3538C28.1095 38.3538 31.6342 38.3538 35.1589 38.3641C35.3511 38.3641 35.5861 38.478 35.7357 38.6023C36.0988 38.9025 36.4192 39.2442 36.8037 39.6169Z" fill="#1E62B9"/>
<path d="M24.243 24.0759C25.0975 24.0759 25.9306 24.0759 26.7744 24.0759C26.7744 24.9042 26.7744 25.7118 26.7744 26.5298C25.9199 26.5298 25.0868 26.5298 24.243 26.5298C24.243 25.7118 24.243 24.9042 24.243 24.0759Z" fill="#1E62B9"/>
<path d="M24.2537 30.2882C25.0868 30.2882 25.9092 30.2882 26.7637 30.2882C26.7637 31.0958 26.7637 31.9034 26.7637 32.7317C25.9519 32.7317 25.1188 32.7317 24.2537 32.7317C24.2537 31.9448 24.2537 31.1372 24.2537 30.2882Z" fill="#1E62B9"/>
<path d="M43.4259 40.8283C42.5928 40.8283 41.7704 40.8283 40.9159 40.8283C40.9159 40.0207 40.9159 39.2131 40.9159 38.3848C41.7383 38.3848 42.5714 38.3848 43.4259 38.3848C43.4259 39.1717 43.4259 39.9793 43.4259 40.8283Z" fill="#1E62B9"/>
<path d="M0 4C0 1.79086 1.79086 0 4 0H56C58.2091 0 60 1.79086 60 4V9H0V4Z" fill="#1E3F69"/>
<circle cx="4.5" cy="4.5" r="1.5" fill="#FF4F59"/>
<circle cx="9.5" cy="4.5" r="1.5" fill="#FCFEFF"/>
<circle cx="14.5" cy="4.5" r="1.5" fill="#FFF507"/>
</svg>
