<svg width="60" height="60" viewBox="0 0 60 60" fill="none" xmlns="http://www.w3.org/2000/svg">
<rect width="60" height="60" rx="4" fill="#1E62B9" fill-opacity="0.1"/>
<path fill-rule="evenodd" clip-rule="evenodd" d="M10 19C8.89543 19 8 19.8954 8 21V38.9428C8 40.0474 8.89543 40.9428 10 40.9428H21.2928H25C26.1046 40.9428 27 40.0474 27 38.9428V31.5V27.8623C27 27.1627 27.5671 26.5956 28.2667 26.5956H30.75C31.8546 26.5956 32.75 25.7002 32.75 24.5956V21C32.75 19.8954 31.8546 19 30.75 19H10ZM18.6918 30.1992C18.7461 30.2895 18.8003 30.3799 18.8726 30.4522C19.3786 30.0907 19.8846 29.8739 20.5353 29.8739C21.1859 29.9462 21.6919 30.2353 22.0534 30.7414C22.6317 31.5366 22.6317 32.6933 21.9811 33.4162C21.6919 33.7776 21.3305 34.0668 20.8244 34.1391C20.1738 34.2837 19.5955 34.1391 19.0172 33.7776L18.3665 34.6451C19.4509 35.4404 21.0413 35.5849 22.2702 34.6451C23.4992 33.7053 23.9329 32.0426 23.2823 30.6691C22.9209 29.9462 22.4148 29.4401 21.6919 29.0786C20.8967 28.7172 20.0292 28.7172 19.1617 29.0064C19.0894 28.8979 18.9991 28.7714 18.9087 28.6449C18.8183 28.5184 18.728 28.3919 18.6557 28.2834V28.0666C18.8003 27.6328 18.728 27.2713 18.4388 26.9822C18.1497 26.693 17.7882 26.6207 17.3545 26.693C16.8484 26.8376 16.487 27.2713 16.5593 27.7774C16.6315 28.3557 17.0653 28.7895 17.6436 28.7895C17.6798 28.7895 17.6978 28.8076 17.7159 28.8256C17.734 28.8437 17.7521 28.8618 17.7882 28.8618C17.8966 29.0425 18.0231 29.2232 18.1497 29.404C18.2762 29.5847 18.4027 29.7654 18.5111 29.9462C18.5834 30.0184 18.6376 30.1088 18.6918 30.1992ZM15.5471 30.2352C14.2459 29.0785 14.1013 27.2712 14.8965 25.97C15.6917 24.741 17.2098 24.1627 18.6556 24.6687C20.1015 25.1025 20.8967 26.476 20.8967 27.7773H19.8123C19.8123 27.6327 19.8123 27.4881 19.74 27.3435C19.5231 26.2591 18.6556 25.5362 17.6436 25.5362C16.6315 25.5362 15.764 26.2591 15.5471 27.2712C15.3303 28.211 15.764 29.1508 16.5592 29.5846C16.6315 29.6207 16.7218 29.6749 16.8122 29.7292C16.9026 29.7834 16.9929 29.8376 17.0652 29.8737C16.8845 30.1268 16.7038 30.3979 16.5231 30.669L16.523 30.669C16.3423 30.9401 16.1616 31.2112 15.9809 31.4642C15.9086 31.5365 15.9086 31.6088 15.9809 31.6811C16.1255 32.1148 15.9809 32.6208 15.6194 32.91C15.258 33.1992 14.7519 33.1992 14.3182 32.91C13.9567 32.6208 13.7398 32.1871 13.8844 31.6811C14.029 31.2473 14.4628 30.8858 14.8965 30.8858C14.9688 30.8858 15.0411 30.8858 15.0411 30.8135C15.258 30.669 15.4025 30.4521 15.5471 30.2352ZM12.9445 30.1991C12.818 30.0726 12.6914 29.9461 12.583 29.8015C11.6432 30.7413 11.4264 32.1871 11.9324 33.5607C12.4384 34.7897 13.7397 35.5849 15.1855 35.4403C15.8361 35.368 16.4144 35.1511 16.9205 34.7174C17.4988 34.2113 17.8603 33.5607 18.0048 32.7655H19.1615C19.1922 32.7655 19.2099 32.7655 19.2256 32.771C19.2468 32.7785 19.2645 32.7962 19.3061 32.8378C19.5952 33.1992 19.9567 33.3438 20.3904 33.2715C20.8242 33.1992 21.2579 32.7655 21.2579 32.3317C21.2579 31.8257 21.0411 31.3196 20.535 31.175C20.1013 30.9582 19.5952 31.1028 19.3061 31.5365C19.3061 31.6088 19.2338 31.6088 19.1615 31.6088H17.1373H16.9928V32.1871C16.9928 33.5607 15.7638 34.5728 14.4626 34.2836C13.6674 34.139 13.089 33.633 12.7999 32.8378C12.5107 32.0425 12.6553 31.3196 13.2336 30.669C13.3059 30.669 13.3059 30.5967 13.3059 30.5967C13.1975 30.4521 13.071 30.3256 12.9445 30.1991Z" fill="#1E62B9"/>
<path fill-rule="evenodd" clip-rule="evenodd" d="M30.3415 29.1233C29.6787 29.1233 29.1415 29.6606 29.1415 30.3233V49C29.1415 50.1046 30.0369 51 31.1415 51H50C51.1046 51 52 50.1046 52 49V44.2687V31.1233C52 30.0187 51.1046 29.1233 50 29.1233H30.3415ZM45.3235 36.4556L42.686 33.9339L42.624 33.8815C42.497 33.7874 42.3386 33.7408 42.1783 33.7506C42.0181 33.7604 41.8671 33.8258 41.7536 33.9345L41.6989 33.9944C41.6005 34.1159 41.5519 34.2676 41.5621 34.421C41.5723 34.5743 41.6406 34.7189 41.7543 34.8274L43.2682 36.2745H36.2854L36.2082 36.2789C36.0478 36.297 35.8999 36.3708 35.7926 36.4863C35.6853 36.6018 35.626 36.751 35.626 36.9055L35.6306 36.98C35.6495 37.1335 35.7266 37.275 35.8473 37.3777C35.968 37.4804 36.1239 37.5372 36.2854 37.5372H43.2636L41.7536 38.9836L41.6989 39.0429C41.5952 39.1697 41.5461 39.3296 41.5616 39.49C41.5771 39.6503 41.656 39.7988 41.7822 39.9053C41.9085 40.0117 42.0724 40.068 42.2405 40.0625C42.4087 40.0571 42.5682 39.9903 42.6866 39.8759L45.3242 37.3479L45.3789 37.2886C45.4772 37.1671 45.5258 37.0154 45.5156 36.8621C45.5054 36.7087 45.4371 36.5642 45.3235 36.4556ZM45.5147 43.2161L45.5108 43.1423C45.4919 42.9888 45.4148 42.8473 45.2941 42.7445C45.1734 42.6418 45.0175 42.5851 44.856 42.5851H37.8797L39.3897 41.138L39.4445 41.0787C39.5481 40.9519 39.5972 40.792 39.5817 40.6317C39.5662 40.4714 39.4873 40.3228 39.3611 40.2164C39.2349 40.1099 39.0709 40.0537 38.9028 40.0591C38.7347 40.0646 38.5751 40.1313 38.4567 40.2457L35.8192 42.7725L35.7644 42.8318C35.6661 42.9533 35.6175 43.105 35.6277 43.2583C35.6379 43.4117 35.7062 43.5562 35.8198 43.6648L38.4574 46.1865L38.5193 46.2395C38.6463 46.3336 38.8047 46.3802 38.965 46.3704C39.1252 46.3607 39.2763 46.2953 39.3897 46.1865L39.4445 46.1272C39.5429 46.0058 39.5916 45.8542 39.5815 45.7008C39.5715 45.5474 39.5033 45.4029 39.3897 45.2942L37.8771 43.8472H44.8553L44.9325 43.8428C45.0929 43.8247 45.2408 43.7509 45.3481 43.6354C45.4554 43.5199 45.5147 43.3707 45.5147 43.2161Z" fill="#1E62B9"/>
<path d="M0 4C0 1.79086 1.79086 0 4 0H56C58.2091 0 60 1.79086 60 4V9H0V4Z" fill="#1E3F69"/>
<circle cx="4.5" cy="4.5" r="1.5" fill="#FF4F59"/>
<circle cx="9.5" cy="4.5" r="1.5" fill="#FCFEFF"/>
<circle cx="14.5" cy="4.5" r="1.5" fill="#FFF507"/>
</svg>
