<svg width="60" height="60" viewBox="0 0 60 60" fill="none" xmlns="http://www.w3.org/2000/svg">
<rect width="60" height="60" rx="4" fill="#1E62B9" fill-opacity="0.1"/>
<path d="M40.5617 52C34.0615 52 27.5706 52 21.0703 52C21.0328 51.9719 21.0047 51.9438 20.9672 51.925C19.2506 51.3908 18.4721 50.3317 18.4721 48.5322C18.4721 45.4767 18.4721 42.4212 18.4721 39.3658C18.4721 39.2533 18.4721 39.1408 18.4721 38.9909C18.6222 38.9909 18.7535 38.9909 18.8754 38.9909C24.7379 38.9909 30.5909 38.9909 36.4534 38.9909C39.0047 38.9909 40.8431 37.1632 40.8431 34.6139C40.8431 31.4554 40.8431 28.2874 40.8431 25.1289C40.8431 22.5327 39.0328 20.7144 36.4252 20.7144C30.5628 20.7144 24.7097 20.7144 18.8473 20.7144C18.7254 20.7144 18.6034 20.7144 18.4815 20.7144C18.4815 20.1146 18.4627 19.5616 18.4815 19.018C18.5284 17.7058 19.4664 16.5061 20.7327 16.1406C20.8734 16.1031 21.0141 16.0469 21.1454 16C28.5086 16.0094 35.8718 16.0094 43.235 16.0094C43.2444 16.0281 43.2538 16.0562 43.2631 16.0656C44.9984 16.478 45.8989 17.6215 45.9083 19.4022C45.9083 25.6256 45.9083 31.8396 45.9083 38.063C45.9083 38.1848 45.9083 38.3067 45.9083 38.3536C44.9797 38.3348 44.0792 38.2973 43.1787 38.2973C41.2277 38.2973 39.877 39.6563 39.8676 41.6152C39.8676 42.4775 39.877 43.3491 39.8582 44.2114C39.8582 44.3145 39.7644 44.4738 39.68 44.5207C37.6446 45.4954 37.1381 47.8573 38.6013 49.5725C39.211 50.2848 39.8207 50.9971 40.4304 51.7094C40.4961 51.7844 40.5148 51.8969 40.5617 52Z" fill="#1E62B9"/>
<path d="M12 35.27C12 31.6616 12 28.0531 12 24.4447C12.0281 24.4259 12.0563 24.4072 12.075 24.3791C12.5534 23.2263 13.1443 22.8232 14.3731 22.8232C21.6988 22.8232 29.0245 22.8232 36.3502 22.8232C37.8791 22.8232 38.7233 23.6574 38.7233 25.1758C38.7233 28.3062 38.7233 31.4273 38.7233 34.5577C38.7233 36.0292 37.8603 36.8821 36.3783 36.8821C31.3226 36.8821 26.2762 36.8821 21.2204 36.8821C18.8661 36.8821 16.5117 36.8821 14.148 36.8821C13.1912 36.8821 12.4502 36.376 12.1126 35.4949C12.0938 35.42 12.0469 35.345 12 35.27ZM22.815 29.8433H22.8244C22.8244 30.9867 22.8244 32.1396 22.8244 33.283C22.8244 33.7891 23.0964 34.0609 23.6029 34.0703C24.2501 34.0703 24.8973 34.0797 25.5352 34.0609C26.8015 34.0235 27.7957 33.4517 28.4054 32.3458C29.259 30.7993 29.2777 29.1778 28.5555 27.5845C27.9739 26.3098 26.9234 25.6725 25.5164 25.6444C24.8973 25.635 24.2783 25.6444 23.6498 25.6444C23.0683 25.6444 22.815 25.8881 22.815 26.4785C22.815 27.5939 22.815 28.7186 22.815 29.8433ZM17.4216 30.9961C17.9375 30.9961 18.4065 31.0149 18.8755 30.9961C20.2637 30.9118 21.333 29.8245 21.408 28.428C21.4831 27.144 20.5263 25.9068 19.1944 25.7194C18.4252 25.6069 17.6279 25.6538 16.8494 25.6538C16.2772 25.6444 16.0146 25.9162 16.0146 26.4973C16.0146 28.7467 16.0146 30.9961 16.0146 33.2362C16.0146 33.761 16.296 34.0984 16.7368 34.0891C17.1589 34.0797 17.4216 33.761 17.4216 33.2455C17.4216 32.5051 17.4216 31.7834 17.4216 30.9961ZM31.876 27.0503C32.5607 27.0503 33.2267 27.0503 33.8927 27.0503C34.3992 27.0503 34.7181 26.7691 34.7181 26.3473C34.7181 25.9256 34.3898 25.6538 33.8833 25.6444C33.0297 25.6444 32.1761 25.6444 31.3132 25.6444C30.7129 25.6444 30.4502 25.8974 30.4502 26.4973C30.4502 28.7373 30.4502 30.968 30.4502 33.208C30.4502 33.7516 30.7222 34.0797 31.1537 34.0797C31.5946 34.0797 31.8572 33.761 31.8572 33.2174C31.8572 32.5051 31.8572 31.7928 31.8572 31.0711C31.8572 30.8836 31.8572 30.7056 31.8572 30.49C32.4763 30.49 33.0578 30.49 33.6394 30.49C34.1459 30.49 34.4742 30.2182 34.4836 29.8058C34.493 29.3747 34.1553 29.0935 33.63 29.0841C33.0485 29.0841 32.4575 29.0841 31.8666 29.0841C31.876 28.3999 31.876 27.7532 31.876 27.0503Z" fill="#1E62B9"/>
<path d="M43.6571 52C43.3945 51.7751 43.1037 51.5689 42.8786 51.3158C41.9875 50.3036 41.1246 49.2726 40.2429 48.251C39.9146 47.8761 39.7457 47.4825 39.9708 47.0045C40.196 46.5171 40.6087 46.3484 41.1152 46.3765C41.3966 46.3859 41.6686 46.3765 41.9688 46.3765C41.9688 45.0925 41.9688 43.8459 41.9688 42.59C41.9688 42.2245 41.9594 41.8683 41.9688 41.5028C41.9875 40.8467 42.4284 40.4062 43.0756 40.3968C43.6102 40.3874 44.1543 40.3968 44.6889 40.3968C45.4674 40.3968 45.8895 40.8186 45.8895 41.5871C45.8895 43.1711 45.8895 44.7457 45.8895 46.3765C46.1616 46.3765 46.4242 46.3952 46.6868 46.3765C47.3434 46.3296 47.7843 46.6014 48 47.22C48 47.3887 48 47.5481 48 47.7168C47.8781 47.8948 47.7655 48.0917 47.6248 48.251C46.7525 49.2726 45.8802 50.3036 44.9985 51.3065C44.764 51.5689 44.4732 51.7657 44.2012 52C44.0323 52 43.8447 52 43.6571 52Z" fill="#1E62B9"/>
<path d="M24.2407 32.6644C24.2407 30.7899 24.2407 28.9435 24.2407 27.0222C24.8598 27.0596 25.4976 27.0409 26.1073 27.144C26.6795 27.2471 27.0734 27.6689 27.2986 28.1937C27.7676 29.2903 27.7863 30.3963 27.2798 31.4835C26.914 32.2614 26.2855 32.6644 25.4038 32.6551C25.0286 32.6551 24.6534 32.6644 24.2407 32.6644Z" fill="#1E62B9"/>
<path d="M17.4403 27.0502C17.8905 27.0502 18.3033 27.0409 18.7254 27.0502C19.4101 27.0784 19.9823 27.6502 19.9916 28.3065C20.001 28.9534 19.4757 29.5346 18.791 29.5815C18.3502 29.6096 17.8999 29.5909 17.4403 29.5909C17.4403 28.7565 17.4403 27.9221 17.4403 27.0502Z" fill="#1E62B9"/>
<path d="M0 4C0 1.79086 1.79086 0 4 0H56C58.2091 0 60 1.79086 60 4V9H0V4Z" fill="#1E3F69"/>
<circle cx="4.5" cy="4.5" r="1.5" fill="#FF4F59"/>
<circle cx="9.5" cy="4.5" r="1.5" fill="#FCFEFF"/>
<circle cx="14.5" cy="4.5" r="1.5" fill="#FFF507"/>
</svg>
