<svg width="60" height="60" viewBox="0 0 60 60" fill="none" xmlns="http://www.w3.org/2000/svg">
<rect width="60" height="60" rx="4" fill="#1E62B9" fill-opacity="0.1"/>
<g clip-path="url(#clip0_109_191)">
<path d="M12 44.9336C12 38.2934 12 31.6442 12 25.004C12.0267 24.9327 12.0624 24.8703 12.0891 24.799C12.2674 24.1127 12.3833 23.3996 12.6417 22.7489C13.747 19.9948 15.7435 18.1854 18.5957 17.3476C19.077 17.205 19.5761 17.1159 20.0753 17C26.6531 17 33.2221 17 39.8 17C39.8534 17.0267 39.9158 17.0535 39.9693 17.0713C40.5308 17.1961 41.1013 17.2585 41.645 17.4367C45.4241 18.6578 47.9198 22.0537 47.9376 26.0557C47.9554 32.0097 47.9465 37.9636 47.9376 43.9086C47.9376 45.4952 47.5722 46.9926 46.7522 48.3563C44.925 51.4046 42.2065 52.9287 38.6591 52.9376C32.8477 52.9465 27.0364 52.9376 21.2251 52.9376C20.0218 52.9376 18.8453 52.7683 17.7311 52.3048C14.9948 51.1728 13.1854 49.1852 12.3476 46.3419C12.205 45.8784 12.1159 45.3971 12 44.9336ZM18.0253 27.9275C18.0253 28.6316 18.1768 29.1842 18.5868 30.1468C20.1109 33.7031 22.2233 36.8495 25.0042 39.5412C27.8118 42.2508 31.0562 44.283 34.6393 45.7982C35.3523 46.1013 36.0832 46.2884 36.8765 46.021C38.2223 45.5665 39.2473 44.7286 39.9782 43.5343C40.718 42.3221 40.5754 41.4308 39.4613 40.5573C38.3828 39.7195 37.2686 38.9262 36.1278 38.1686C35.3523 37.6606 34.4699 37.4377 33.6321 37.9993C33.2132 38.2756 32.8923 38.6945 32.5625 39.0867C32.1079 39.6304 31.5464 39.8888 30.8869 39.6571C30.1382 39.3897 29.3984 39.051 28.7121 38.6321C26.8581 37.518 25.4944 35.9492 24.6744 33.9349C24.3446 33.1238 24.3714 32.3573 25.0488 31.7155C25.2716 31.5105 25.5301 31.3412 25.7707 31.1629C26.6531 30.5033 26.8314 29.7992 26.3501 28.8099C25.6549 27.4016 24.7279 26.1627 23.6405 25.0396C23.3018 24.6831 22.8829 24.3711 22.4372 24.1661C21.8579 23.8987 21.2518 24.1037 20.6724 24.3355C18.9879 25.0307 18.0253 26.3231 18.0253 27.9275ZM40.2278 33.8458C40.2278 32.4731 39.9247 31.1629 39.3365 29.924C38.2402 27.5977 36.5199 25.8774 34.2204 24.7455C32.7943 24.0413 31.2701 23.7205 29.6836 23.765C29.4964 23.774 29.2558 23.8631 29.1399 24.0057C28.8368 24.3711 29.0151 24.799 29.4875 24.8881C30.156 25.004 30.8245 25.0842 31.484 25.2268C32.8656 25.5209 34.1669 26.0022 35.3345 26.8133C37.1973 28.1057 38.1778 29.9596 38.6591 32.1077C38.8552 32.9544 38.9354 33.8368 39.0691 34.7014C39.1226 35.0668 39.2919 35.2095 39.6573 35.2005C40.0139 35.1916 40.1921 35.0312 40.21 34.6658C40.2367 34.3805 40.2278 34.1131 40.2278 33.8458ZM37.4558 33.106C37.4825 33.0971 37.5182 33.0971 37.5449 33.0881C37.4112 32.4375 37.3399 31.769 37.126 31.154C36.2436 28.5514 33.7123 26.5994 30.5036 26.4211C30.1025 26.3944 29.8975 26.5816 29.8351 26.9827C29.7905 27.3303 29.9421 27.5085 30.3342 27.6155C31.2345 27.8562 32.1525 28.0433 33.026 28.3553C34.3808 28.8366 35.3167 29.7903 35.7356 31.1718C35.9851 31.9918 36.1188 32.8475 36.306 33.6853C36.3862 34.0597 36.5556 34.2023 36.9032 34.1845C37.2508 34.1666 37.4291 33.9973 37.4647 33.6318C37.4736 33.4536 37.4558 33.2753 37.4558 33.106ZM34.871 32.3394C34.871 32.3127 34.8621 32.1879 34.8443 32.081C34.6214 31.0025 34.0064 30.2003 33.0973 29.612C32.5269 29.2377 31.9208 28.997 31.2166 29.1307C30.8601 29.202 30.6551 29.4516 30.664 29.7903C30.6729 30.1468 30.9492 30.1914 31.2166 30.2716C31.5821 30.3786 31.9743 30.4499 32.3129 30.6103C33.133 31.0025 33.5073 31.7155 33.6232 32.589C33.6945 33.106 33.9351 33.3734 34.2827 33.3555C34.666 33.3377 34.8621 33.0525 34.8799 32.5088C34.871 32.4731 34.871 32.4553 34.871 32.3394Z" fill="#1E62B9"/>
</g>
<path d="M0 4C0 1.79086 1.79086 0 4 0H56C58.2091 0 60 1.79086 60 4V9H0V4Z" fill="#1E3F69"/>
<circle cx="4.5" cy="4.5" r="1.5" fill="#FF4F59"/>
<circle cx="9.5" cy="4.5" r="1.5" fill="#FCFEFF"/>
<circle cx="14.5" cy="4.5" r="1.5" fill="#FFF507"/>
<defs>
<clipPath id="clip0_109_191">
<rect width="36" height="36" fill="white" transform="translate(12 17)"/>
</clipPath>
</defs>
</svg>
