<svg width="60" height="60" viewBox="0 0 60 60" fill="none" xmlns="http://www.w3.org/2000/svg">
<rect width="60" height="60" rx="4" fill="#1E62B9" fill-opacity="0.1"/>
<path d="M48 50C48 51.1046 47.1046 52 46 52C35.3307 52 24.6619 52 14 52C12.8954 52 12 51.1046 12 50C12 39.3307 12 28.6619 12 18C12 16.8954 12.8954 16 14 16C24.6693 16 35.3381 16 46 16C47.1046 16 48 16.8954 48 18C48 28.6693 48 39.3381 48 50ZM30.0047 48.1646C34.5246 48.1646 39.0445 48.1646 43.5645 48.1646C44.7929 48.1646 45.44 47.7051 45.44 46.8518C45.44 46.0078 44.7835 45.5577 43.5551 45.5577C34.5152 45.5577 25.466 45.5577 16.4262 45.5577C15.2071 45.5577 14.5507 46.0172 14.5507 46.8612C14.5507 47.7051 15.2071 48.1646 16.4355 48.1646C20.9648 48.1646 25.4848 48.1646 30.0047 48.1646ZM30.0141 41.7223C34.5809 41.7223 39.1477 41.7223 43.7145 41.7129C44.0146 41.7129 44.3334 41.6942 44.6054 41.6004C45.2055 41.3847 45.4868 40.8971 45.4118 40.2782C45.3368 39.6687 44.9711 39.2561 44.3147 39.1717C44.1084 39.1435 43.8927 39.1529 43.6864 39.1529C34.5527 39.1529 25.4191 39.1529 16.2855 39.1529C16.0792 39.1529 15.8635 39.1435 15.6572 39.181C14.7101 39.3217 14.2037 40.4376 14.8414 41.1409C15.1414 41.4691 15.7228 41.6942 16.173 41.7036C20.7867 41.7411 25.4004 41.7223 30.0141 41.7223ZM38.9977 19.8354C38.0599 19.8354 37.1222 19.8354 36.1938 19.8354C35.3967 19.8354 34.5996 19.8072 33.8119 19.8635C33.0711 19.9104 32.5647 20.473 32.5647 21.1388C32.5647 21.8046 33.0805 22.3392 33.8119 22.4235C34.0182 22.4517 34.2339 22.4329 34.4402 22.4329C37.1784 22.4329 39.9166 22.4329 42.6549 22.4329C43.0956 22.4329 43.5457 22.4423 43.9865 22.4329C44.8492 22.4048 45.44 21.8703 45.44 21.1295C45.44 20.398 44.8586 19.8729 43.9865 19.826C43.827 19.8166 43.6582 19.826 43.4988 19.826C41.9984 19.8354 40.498 19.8354 38.9977 19.8354ZM38.9789 32.72C37.3379 32.72 35.7062 32.72 34.0651 32.72C33.1461 32.72 32.5554 33.2451 32.5647 34.0141C32.5835 34.7643 33.1555 35.2613 34.037 35.2613C37.3378 35.2706 40.6387 35.2706 43.9302 35.2613C44.8492 35.2613 45.44 34.7361 45.4306 33.9578C45.4118 33.2076 44.8398 32.7106 43.9583 32.7106C42.2985 32.72 40.6387 32.72 38.9789 32.72ZM38.9789 28.8471C40.62 28.8471 42.2516 28.8565 43.8927 28.8377C44.2303 28.8283 44.6147 28.7815 44.8867 28.6033C45.3743 28.2844 45.5619 27.7781 45.3649 27.1873C45.1399 26.5121 44.6241 26.2777 43.9489 26.2777C40.6762 26.2777 37.4035 26.2777 34.1214 26.2777C33.193 26.2777 32.5929 26.7747 32.5741 27.5436C32.5554 28.3313 33.1555 28.8471 34.1401 28.8471C35.7437 28.8471 37.3566 28.8471 38.9789 28.8471ZM25.8974 32.6918C24.2563 31.0508 22.5871 29.3816 20.993 27.7781C19.38 29.3816 17.7202 31.0414 16.0698 32.6918C19.3332 32.6918 22.6622 32.6918 25.8974 32.6918ZM24.8565 25.0023C26.2725 25.0023 27.454 23.8208 27.4446 22.4142C27.4353 21.0263 26.2912 19.8823 24.894 19.8541C23.4874 19.826 22.2871 20.9982 22.2777 22.4048C22.2683 23.8208 23.4405 24.993 24.8565 25.0023Z" fill="#1E62B9"/>
<path d="M0 4C0 1.79086 1.79086 0 4 0H56C58.2091 0 60 1.79086 60 4V9H0V4Z" fill="#1E3F69"/>
<circle cx="4.5" cy="4.5" r="1.5" fill="#FF4F59"/>
<circle cx="9.5" cy="4.5" r="1.5" fill="#FCFEFF"/>
<circle cx="14.5" cy="4.5" r="1.5" fill="#FFF507"/>
</svg>
