<svg width="60" height="60" viewBox="0 0 60 60" fill="none" xmlns="http://www.w3.org/2000/svg">
<rect width="60" height="60" rx="4" fill="#1E62B9" fill-opacity="0.1"/>
<path d="M14.0078 37.9087C14.0078 34.1446 14.0078 31.8721 14.0078 28.108C14.0078 27.1303 14.5649 26.411 15.522 26.1526C15.7417 26.0967 15.9849 26.0618 16.2124 26.0618C22.4415 26.0548 28.6628 26.0548 34.892 26.0618C36.1865 26.0618 37.0965 26.8859 37.0965 28.0521C37.1044 30.5103 37.0965 31.4909 37.0965 33.9491C37.0965 39.047 37.0965 44.145 37.0965 49.2429C37.0965 50.2206 36.5238 50.9539 35.551 51.2053C35.3313 51.2612 35.0881 51.2891 34.8528 51.2891C28.6471 51.2961 22.4415 51.2961 16.2359 51.2891C14.9022 51.2891 14 50.472 14 49.2709C14.0078 45.4788 14.0078 41.6938 14.0078 37.9087ZM14.6198 30.2897C14.6198 30.3666 14.6198 30.4224 14.6198 30.4713C14.6198 36.7355 14.6198 43.0067 14.6198 49.2709C14.6198 50.1508 15.2552 50.7234 16.2594 50.7234C22.4494 50.7234 28.6314 50.7234 34.8214 50.7234C35.857 50.7234 36.4846 50.1578 36.4846 49.2359C36.4846 42.9927 36.4846 36.7565 36.4846 30.5132C36.4846 30.4364 36.4767 30.3666 36.4689 30.2897C29.1806 30.2897 21.9159 30.2897 14.6198 30.2897ZM30.7889 27.8895C29.8788 27.8895 28.9688 27.8895 28.0509 27.8895C27.9568 27.8895 27.8312 27.8615 27.7606 27.8964C27.6429 27.9593 27.4782 28.064 27.4703 28.1618C27.4703 28.2526 27.6273 28.3643 27.7371 28.4481C27.7763 28.4761 27.8705 28.4551 27.9411 28.4551C29.8239 28.4551 31.7068 28.4551 33.5897 28.4551C33.6603 28.4551 33.7466 28.4761 33.7936 28.4481C33.9035 28.3643 34.0682 28.2666 34.0682 28.1688C34.0682 28.078 33.9035 27.9733 33.7858 27.8964C33.7309 27.8615 33.6367 27.8895 33.5583 27.8895C32.6325 27.8895 31.7068 27.8895 30.7889 27.8895ZM17.5304 28.4551C17.6167 28.4481 17.7344 28.4831 17.7893 28.4481C17.8991 28.3713 18.056 28.2596 18.056 28.1688C18.0482 28.078 17.8913 27.9523 17.7657 27.9104C17.6402 27.8685 17.4598 27.8685 17.3342 27.9104C17.2087 27.9523 17.0675 28.064 17.0361 28.1688C16.9891 28.3364 17.1381 28.4342 17.3264 28.4621C17.397 28.4621 17.4676 28.4551 17.5304 28.4551ZM19.476 28.4551C19.5309 28.4551 19.5937 28.4551 19.6486 28.4551C19.8604 28.4481 20.0173 28.3573 20.0095 28.1548C20.0016 27.9663 19.8526 27.8895 19.6486 27.8825C19.5309 27.8825 19.4132 27.8755 19.2956 27.8825C19.1073 27.8895 18.9739 27.9802 18.9661 28.1478C18.9582 28.3364 19.0994 28.4272 19.2956 28.4412C19.3583 28.4621 19.4211 28.4551 19.476 28.4551ZM21.3667 28.4551C21.4922 28.4551 21.5393 28.4551 21.5942 28.4551C21.8061 28.4481 21.9708 28.3713 21.963 28.1688C21.963 27.9663 21.7982 27.8895 21.5864 27.8895C21.4609 27.8895 21.3118 27.8545 21.2098 27.9034C21.0921 27.9593 20.9509 28.078 20.9352 28.1758C20.9274 28.2596 21.0843 28.3713 21.1863 28.4412C21.2412 28.4831 21.351 28.4551 21.3667 28.4551Z" fill="#1E62B9"/>
<rect x="16.2" y="32.6905" width="18.7" height="1.10565" fill="#1E62B9"/>
<rect x="16.2" y="34.9019" width="18.7" height="1.10565" fill="#1E62B9"/>
<rect x="16.2" y="37.1132" width="18.7" height="1.10565" fill="#1E62B9"/>
<rect x="16.2" y="45.9584" width="18.7" height="2.21131" rx="1.10565" fill="#1E62B9"/>
<rect x="16.2" y="39.3243" width="18.7" height="5.52827" fill="#1E62B9"/>
<path d="M46.0001 19.8526C45.9678 19.9167 45.9247 19.9809 45.9032 20.0557C45.4511 21.702 44.407 22.7604 42.7278 23.1773C42.6632 23.188 42.5986 23.2201 42.5233 23.2414C42.5233 23.3911 42.5233 23.5408 42.5233 23.6798C42.5233 30.4254 42.5233 34.9488 42.5233 41.7052C42.5233 42.5177 42.3295 42.7101 41.4899 42.7101C36.3328 42.7101 43.5097 42.7101 37.3527 42.7101C37.2235 42.7101 37.0835 42.7101 36.9221 42.7101C36.9221 42.2504 36.9221 41.8121 36.9221 41.331C43.1007 41.331 34.9238 41.331 41.1239 41.331C41.1239 34.5426 41.1239 30.0085 41.1239 23.1452C40.5211 23.049 39.8753 22.8673 39.2402 22.8673C31.3716 22.8459 26.703 22.8566 18.8237 22.8566C18.6622 22.8566 18.5115 22.8566 18.307 22.8566C18.307 27.2717 18.307 22.793 18.307 27.1867C17.8334 27.1867 17.3921 27.1867 16.9185 27.1867C16.9185 27.0264 16.9185 26.8767 16.9185 26.7377C16.9185 20.9115 16.9185 23.9363 16.9185 18.11C16.9185 17.2548 17.1014 17.0624 17.9518 17.0624C25.6374 17.0624 30.1122 17.0624 37.7978 17.0731C38.0992 17.0731 38.2714 16.9876 38.4544 16.7417C39.4878 15.3626 40.8871 14.7639 42.5878 15.0847C44.3639 15.4161 45.4619 16.5492 45.914 18.2918C45.9355 18.3559 45.9678 18.4201 46.0001 18.4949C46.0001 18.9439 46.0001 19.3929 46.0001 19.8526ZM18.3286 21.4455C26.0895 21.4455 30.6074 21.4455 38.3898 21.4455C37.7763 20.5154 37.5718 19.5212 37.7225 18.4628C30.1768 18.4628 25.8634 18.4628 18.3393 18.4628C18.3286 19.4677 18.3286 20.4512 18.3286 21.4455ZM41.8559 16.3782C40.3274 16.3568 39.068 17.5648 39.0464 19.0829C39.0249 20.6437 40.252 21.8945 41.8236 21.9158C43.3198 21.9265 44.6007 20.6757 44.6223 19.1791C44.6438 17.6504 43.4059 16.3996 41.8559 16.3782Z" fill="#1E62B9"/>
<path d="M40.5 18.3171L42.7 20.5284M42.7 18.3171L40.5 20.5284" stroke="#1E62B9" stroke-width="0.5" stroke-linecap="round" stroke-linejoin="round"/>
<path d="M33.5828 46.8531C33.3156 46.7517 33.0312 46.9533 33.0399 47.2379L33.172 51.5488C33.1811 51.8455 33.5003 52.0293 33.7626 51.8889L34.9906 51.2315L36.6747 53.9525L38.337 52.7059L36.4365 50.0212L37.6762 49.0554C37.9218 48.8641 37.8631 48.4785 37.5714 48.3677L33.5828 46.8531Z" fill="#5995E1"/>
<path d="M0 4C0 1.79086 1.79086 0 4 0H56C58.2091 0 60 1.79086 60 4V9H0V4Z" fill="#1E3F69"/>
<circle cx="4.5" cy="4.5" r="1.5" fill="#FF4F59"/>
<circle cx="9.5" cy="4.5" r="1.5" fill="#FCFEFF"/>
<circle cx="14.5" cy="4.5" r="1.5" fill="#FFF507"/>
</svg>
