<svg width="60" height="60" viewBox="0 0 60 60" fill="none" xmlns="http://www.w3.org/2000/svg">
<rect width="60" height="60" rx="4" fill="#1E62B9" fill-opacity="0.1"/>
<path d="M41.5528 51.9998C41.4028 51.9998 41.2635 51.9998 41.1349 51.9998C31.7492 51.9998 22.3635 51.9998 12.9671 51.9998C12.1742 51.9998 12.0028 51.8283 12.0028 51.0355C12.0028 41.2212 12.0028 31.4069 12.0028 21.5819C12.0028 21.4533 12.0028 21.3141 12.0028 21.1641C21.86 21.1641 31.6957 21.1641 41.5528 21.1641C41.5528 31.4283 41.5528 41.6926 41.5528 51.9998ZM26.8314 37.8569C23.0278 37.8569 19.2242 37.8569 15.4207 37.8569C14.7778 37.8569 14.5635 38.0605 14.5635 38.6819C14.5635 41.9926 14.5635 45.2926 14.5635 48.6033C14.5635 49.2033 14.7778 49.4283 15.3885 49.4283C22.9742 49.4283 30.5707 49.4283 38.1564 49.4283C38.7778 49.4283 38.9921 49.2141 38.9921 48.5819C38.9921 45.3033 38.9921 42.0248 38.9921 38.7462C38.9921 38.0605 38.7885 37.8676 38.1028 37.8676C34.3528 37.8569 30.5921 37.8569 26.8314 37.8569ZM26.7457 27.5712C30.5171 27.5712 34.2992 27.5712 38.0707 27.5712C38.1992 27.5712 38.3385 27.5819 38.4671 27.5605C38.7885 27.4855 38.9921 27.2819 38.9921 26.9498C39.0028 26.5962 38.7992 26.3819 38.4564 26.3069C38.3385 26.2855 38.2207 26.2962 38.0921 26.2962C30.5599 26.2962 23.0171 26.2962 15.485 26.2962C15.3778 26.2962 15.2707 26.2855 15.1635 26.2962C14.81 26.3391 14.5635 26.6069 14.5742 26.9391C14.5742 27.2712 14.8207 27.5391 15.1742 27.5712C15.2921 27.5819 15.41 27.5712 15.5385 27.5712C19.2778 27.5712 23.0064 27.5712 26.7457 27.5712ZM26.7885 30.1426C30.6028 30.1426 34.4171 30.1426 38.2314 30.1426C38.7028 30.1426 38.9921 29.8962 39.0028 29.5105C39.0135 29.1141 38.7242 28.8676 38.2528 28.8569C38.1885 28.8569 38.1242 28.8569 38.0492 28.8569C30.5385 28.8569 23.0278 28.8569 15.5278 28.8569C15.3992 28.8569 15.26 28.8462 15.1314 28.8676C14.7885 28.9426 14.585 29.1569 14.585 29.5105C14.585 29.8426 14.7885 30.0569 15.11 30.1319C15.2385 30.1641 15.3778 30.1426 15.5064 30.1426C19.2671 30.1426 23.0278 30.1426 26.7885 30.1426ZM26.7457 32.7141C27.485 32.7141 28.2135 32.7141 28.9528 32.7141C32.0278 32.7141 35.1135 32.7141 38.1885 32.7141C38.7028 32.7141 38.9921 32.4891 39.0028 32.0819C39.0135 31.6641 38.7135 31.4283 38.1778 31.4283C38.1349 31.4283 38.1028 31.4283 38.0599 31.4283C30.5492 31.4283 23.0385 31.4283 15.5385 31.4283C15.4207 31.4283 15.2921 31.4176 15.1742 31.4283C14.8207 31.4712 14.585 31.7391 14.585 32.0712C14.585 32.4033 14.8314 32.6712 15.185 32.7033C15.3028 32.7141 15.4207 32.7033 15.5492 32.7033C19.2778 32.7141 23.0064 32.7141 26.7457 32.7141ZM25.1814 24.9998C28.3957 24.9998 31.6099 24.9998 34.8135 24.9998C34.9207 24.9998 35.0278 24.9998 35.1349 24.9998C35.5207 24.9783 35.7778 24.7212 35.7778 24.3676C35.7778 24.0141 35.5207 23.7462 35.1457 23.7141C35.0492 23.7033 34.9635 23.7141 34.8671 23.7141C28.4064 23.7141 21.9349 23.7141 15.4742 23.7141C15.3564 23.7141 15.2278 23.7033 15.11 23.7248C14.7671 23.7998 14.5635 24.0141 14.5635 24.3676C14.5635 24.6998 14.7671 24.9141 15.0885 24.9891C15.2171 25.0212 15.3564 24.9998 15.485 24.9998C18.7314 24.9998 21.9564 24.9998 25.1814 24.9998ZM28.4385 33.9998C25.2135 33.9998 21.9885 33.9998 18.7635 33.9998C18.6457 33.9998 18.5171 33.9891 18.3992 33.9998C18.0457 34.0319 17.7992 34.2891 17.7885 34.6212C17.7778 34.9748 18.035 35.2426 18.41 35.2748C18.5171 35.2855 18.6242 35.2748 18.7314 35.2748C25.1707 35.2748 31.6099 35.2748 38.0492 35.2748C38.1778 35.2748 38.3171 35.2855 38.4457 35.2641C38.7885 35.1998 38.9921 34.9855 38.9921 34.6212C38.9921 34.2676 38.7778 34.0533 38.4349 33.9891C38.3171 33.9676 38.1992 33.9783 38.0707 33.9783C34.8671 33.9998 31.6528 33.9998 28.4385 33.9998ZM38.0385 24.9998C38.6921 24.9998 38.9921 24.8069 39.0028 24.3676C39.0135 23.9176 38.7028 23.7141 38.0171 23.7141C37.3742 23.7141 37.0635 23.9283 37.0742 24.3676C37.0849 24.8069 37.3742 24.9998 38.0385 24.9998ZM15.5385 33.9998C15.4421 33.9998 15.3564 33.9998 15.26 33.9998C14.8528 34.0212 14.585 34.2676 14.5742 34.6319C14.5742 34.9962 14.8421 35.2641 15.2385 35.2855C15.335 35.2855 15.4207 35.2855 15.5171 35.2855C16.1921 35.2855 16.5028 35.0819 16.5028 34.6319C16.4921 34.1926 16.1921 33.9998 15.5385 33.9998Z" fill="#1E62B9"/>
<path d="M12.0027 19.8357C12.0027 18.7536 11.992 17.6929 12.0134 16.6214C12.0241 16.2464 12.2598 16.0429 12.6241 16.0107C12.7312 16 12.8384 16.0107 12.9455 16.0107C24.3134 16 35.6812 16 47.0384 16C47.8312 16 48.0027 16.1714 48.0027 16.9643C48.0027 17.9179 48.0027 18.8607 48.0027 19.8357C36.0134 19.8357 24.0348 19.8357 12.0027 19.8357ZM35.1134 18.5714C37.5884 18.5714 40.0634 18.5714 42.5384 18.5714C42.6562 18.5714 42.7848 18.5821 42.9027 18.5714C43.2562 18.5393 43.5027 18.2714 43.5027 17.9393C43.5027 17.6071 43.2562 17.3393 42.9134 17.2964C42.817 17.2857 42.7312 17.2964 42.6348 17.2964C37.642 17.2964 32.6491 17.2964 27.6562 17.2964C27.5491 17.2964 27.442 17.2857 27.3348 17.3071C27.0134 17.3714 26.8098 17.575 26.7991 17.9179C26.7884 18.2714 26.992 18.4964 27.3241 18.5714C27.4527 18.6036 27.592 18.5821 27.7205 18.5821C30.1848 18.5714 32.6491 18.5714 35.1134 18.5714ZM14.242 18.5714C14.3384 18.5714 14.4241 18.5714 14.5205 18.5714C14.9491 18.55 15.2277 18.2929 15.217 17.9071C15.2062 17.5429 14.9384 17.2964 14.5312 17.2857C14.3812 17.275 14.242 17.2857 14.092 17.2857C13.5884 17.2857 13.2991 17.5214 13.2991 17.9286C13.2991 18.3357 13.5884 18.5714 14.092 18.5714C14.1348 18.5714 14.1884 18.5714 14.242 18.5714ZM17.467 18.5714C17.4884 18.5714 17.5205 18.5714 17.542 18.5714C18.1205 18.5714 18.4205 18.3571 18.4205 17.9286C18.4205 17.5 18.1205 17.2857 17.5527 17.275C17.5312 17.275 17.4991 17.275 17.4777 17.275C16.8027 17.275 16.492 17.4893 16.5027 17.9286C16.5134 18.3786 16.8134 18.5714 17.467 18.5714ZM20.692 17.2857C20.0277 17.2857 19.7384 17.4786 19.717 17.9071C19.7062 18.3571 20.017 18.5714 20.692 18.5714C21.3348 18.5714 21.6455 18.3679 21.6455 17.9286C21.6455 17.4893 21.3455 17.2857 20.692 17.2857ZM45.7527 18.5714C46.4062 18.5714 46.7062 18.3786 46.717 17.9393C46.7277 17.4893 46.417 17.2857 45.7312 17.2857C45.0884 17.2857 44.7777 17.5 44.7884 17.9393C44.7991 18.3786 45.0884 18.5714 45.7527 18.5714Z" fill="#1E62B9"/>
<path d="M42.8705 35.9074C42.8705 33.561 42.8705 31.236 42.8705 28.8895C44.5634 28.8895 46.2563 28.8895 47.9813 28.8895C47.9813 31.2145 47.9813 33.5502 47.9813 35.9074C46.2991 35.9074 44.6063 35.9074 42.8705 35.9074Z" fill="#1E62B9"/>
<path d="M42.8812 37.2255C44.5847 37.2255 46.2669 37.2255 47.9812 37.2255C47.9812 39.5719 47.9812 41.9076 47.9812 44.2647C46.299 44.2647 44.5955 44.2647 42.8812 44.2647C42.8812 41.929 42.8812 39.5933 42.8812 37.2255Z" fill="#1E62B9"/>
<path d="M47.9919 21.1641C47.9919 23.2962 47.9919 25.4069 47.9919 27.5498C46.2883 27.5498 44.5955 27.5498 42.8812 27.5498C42.8812 25.4391 42.8812 23.3069 42.8812 21.1641C44.574 21.1641 46.2669 21.1641 47.9919 21.1641Z" fill="#1E62B9"/>
<path d="M42.8812 45.5826C44.5847 45.5826 46.2669 45.5826 47.9812 45.5826C47.9919 45.6897 48.0026 45.7969 48.0026 45.8933C48.0026 47.6504 48.0026 49.3969 48.0026 51.154C48.0026 51.7862 47.7883 52.0004 47.1562 52.0004C45.7419 52.0004 44.3169 52.0004 42.8812 52.0004C42.8812 49.8576 42.8812 47.7362 42.8812 45.5826Z" fill="#1E62B9"/>
<path d="M15.8812 39.154C23.1562 39.154 30.4097 39.154 37.6954 39.154C37.6954 42.1433 37.6954 45.1218 37.6954 48.1218C30.4312 48.1218 23.1669 48.1218 15.8812 48.1218C15.8812 45.1433 15.8812 42.1647 15.8812 39.154Z" fill="#1E62B9"/>
<path d="M0 4C0 1.79086 1.79086 0 4 0H56C58.2091 0 60 1.79086 60 4V9H0V4Z" fill="#1E3F69"/>
<circle cx="4.5" cy="4.5" r="1.5" fill="#FF4F59"/>
<circle cx="9.5" cy="4.5" r="1.5" fill="#FCFEFF"/>
<circle cx="14.5" cy="4.5" r="1.5" fill="#FFF507"/>
</svg>
