<svg width="60" height="60" viewBox="0 0 60 60" fill="none" xmlns="http://www.w3.org/2000/svg">
<rect width="60" height="60" rx="4" fill="#1E62B9" fill-opacity="0.1"/>
<path d="M18.8819 22.9174C20.0578 22.9174 21.2145 22.9078 22.3614 22.9368C22.506 22.9368 22.6988 23.1399 22.7855 23.2947C23.1711 24.0588 23.7687 24.4457 24.6265 24.4457C28.212 24.4361 31.8072 24.4457 35.3928 24.4457C36.2217 24.4457 36.7904 24.0588 37.1952 23.3334C37.2916 23.1496 37.5422 22.9465 37.7349 22.9368C38.8434 22.8981 39.9422 22.9174 41.1084 22.9174C41.1084 31.9906 41.1084 41.0444 41.1084 50.1272C33.706 50.1272 26.3229 50.1272 18.8916 50.1272C18.8819 41.0831 18.8819 32.0583 18.8819 22.9174ZM23.9711 37.0205C23.7398 37.0978 23.5663 37.1559 23.4024 37.2139C22.5349 37.5331 21.9373 38.1135 21.6482 39.0034C21.494 39.487 21.5807 39.7869 22.1976 39.7772C23.547 39.7482 24.8964 39.7676 26.2458 39.7676C26.7374 39.7676 26.8916 39.5644 26.7663 39.0905C26.506 38.0942 25.6675 37.33 24.6458 37.1656C24.5012 37.1462 24.3759 37.0592 24.1446 36.9721C25.1374 36.7206 25.5518 36.266 25.5229 35.5308C25.5036 34.9118 25.0313 34.3701 24.4337 34.2637C23.788 34.1573 23.1325 34.5249 22.9398 35.1246C22.6795 35.8694 22.9687 36.4304 23.9711 37.0205ZM33.4265 30.4139C32.1253 30.4139 30.8241 30.4139 29.5229 30.4139C29.0892 30.4139 28.6458 30.4526 28.6651 31.033C28.6843 31.5746 29.1084 31.5843 29.5133 31.5843C32.0867 31.5843 34.6699 31.5843 37.2434 31.5843C37.6771 31.5843 38.1205 31.565 38.1012 30.9749C38.0819 30.4429 37.6578 30.4139 37.253 30.4139C35.9807 30.4139 34.7084 30.4139 33.4265 30.4139ZM33.3783 43.6077C34.6795 43.6077 35.9807 43.6077 37.2819 43.6077C37.6964 43.6077 38.1012 43.5787 38.1012 43.037C38.1012 42.5146 37.706 42.4373 37.2916 42.4373C34.6892 42.4373 32.0867 42.4373 29.4843 42.4373C29.0699 42.4373 28.6651 42.505 28.6651 43.0273C28.6554 43.569 29.0602 43.6077 29.4747 43.6077C30.7759 43.6077 32.0771 43.6077 33.3783 43.6077ZM24.1831 32.1163C24.8771 32.1163 25.5711 32.1067 26.2651 32.1163C26.6506 32.126 26.853 32.0099 26.7759 31.565C26.5831 30.4526 25.4458 29.5047 24.2506 29.4756C23.0072 29.4466 21.8217 30.3462 21.6 31.4876C21.5229 31.8938 21.6 32.1357 22.0819 32.1163C22.7952 32.097 23.4892 32.1163 24.1831 32.1163ZM33.3976 28.3536C34.6988 28.3536 36 28.3536 37.3012 28.3536C37.7157 28.3536 38.1205 28.3052 38.1012 27.7635C38.0916 27.2412 37.6964 27.1832 37.2819 27.1832C34.6795 27.1832 32.0771 27.1832 29.4747 27.1832C29.0506 27.1832 28.6651 27.2702 28.6651 27.7829C28.6651 28.3246 29.0795 28.3536 29.4843 28.3536C30.7952 28.3536 32.0964 28.3536 33.3976 28.3536ZM24.1542 47.3801C24.8771 47.3801 25.5904 47.3801 26.3133 47.3801C26.6699 47.3801 26.853 47.2544 26.7952 46.8578C26.6313 45.7454 25.4361 44.7491 24.2217 44.7297C23.0072 44.7104 21.7928 45.6777 21.6096 46.7901C21.5422 47.177 21.6482 47.3898 22.0723 47.3801C22.7663 47.3704 23.4602 47.3801 24.1542 47.3801ZM33.3976 45.697C32.0964 45.697 30.7952 45.697 29.494 45.697C29.0795 45.697 28.6747 45.7164 28.6651 46.258C28.6554 46.7804 29.0506 46.8674 29.4651 46.8674C32.0675 46.8674 34.6699 46.8674 37.2723 46.8674C37.6771 46.8674 38.0819 46.8191 38.1012 46.2871C38.1108 45.7454 37.7157 45.697 37.3012 45.697C36 45.697 34.6988 45.697 33.3976 45.697ZM33.3205 35.9951C34.641 35.9951 35.9711 35.9951 37.2916 35.9951C37.7157 35.9951 38.1012 35.9274 38.1012 35.4051C38.1012 34.8731 37.6964 34.8344 37.2819 34.8344C34.6795 34.8344 32.0771 34.8344 29.4843 34.8344C29.0602 34.8344 28.6747 34.8924 28.6747 35.4244C28.6843 35.9468 29.0795 36.0048 29.494 36.0048C30.7663 35.9951 32.0482 35.9951 33.3205 35.9951ZM33.4651 38.0555C32.1446 38.0555 30.8145 38.0555 29.494 38.0555C29.0699 38.0555 28.6843 38.1135 28.6747 38.6358C28.6651 39.1678 29.0602 39.2259 29.4747 39.2259C32.0771 39.2259 34.6699 39.2259 37.2723 39.2259C37.6867 39.2259 38.0916 39.1872 38.0916 38.6552C38.0916 38.1328 37.7157 38.0555 37.2916 38.0651C36.0193 38.0555 34.7374 38.0555 33.4651 38.0555ZM25.5229 27.9376C25.5133 27.2122 24.906 26.6028 24.1928 26.6028C23.4795 26.6028 22.8723 27.2122 22.8627 27.9376C22.853 28.6921 23.4988 29.3402 24.2313 29.3112C24.9446 29.2918 25.5325 28.6631 25.5229 27.9376ZM25.5133 43.2304C25.5133 42.4953 24.9349 41.8956 24.212 41.8859C23.4892 41.8666 22.8819 42.4469 22.8627 43.1821C22.8434 43.9462 23.4506 44.575 24.2024 44.5653C24.9253 44.5556 25.5133 43.9559 25.5133 43.2304Z" fill="#1E62B9"/>
<path d="M22.612 20.0736C22.612 20.683 22.612 21.186 22.612 21.7664C21.4843 21.7664 20.3855 21.7664 19.2867 21.7664C18.1012 21.776 17.6867 22.192 17.6867 23.3817C17.6867 32.155 17.6867 40.938 17.6867 49.7113C17.6867 50.8913 18.1205 51.3266 19.2964 51.3363C26.4289 51.346 33.5614 51.346 40.694 51.3363C41.8795 51.3363 42.3133 50.8913 42.3133 49.7209C42.3133 40.9476 42.3133 32.1647 42.3133 23.3914C42.3133 22.2016 41.8892 21.7857 40.7133 21.776C39.6337 21.776 38.5542 21.776 37.4169 21.776C37.4169 21.2247 37.4169 20.712 37.4169 20.0833C37.7831 20.0833 38.1783 20.0833 38.5735 20.0833C39.7783 20.0833 40.9831 20.0736 42.188 20.0833C43.3349 20.093 43.9614 20.7314 44 21.8824C44 21.9985 44 22.1243 44 22.2403C44 31.7681 44 41.2959 44 50.814C44 52.4487 43.4602 53 41.8506 53C33.9277 53 25.9952 53 18.0723 53C16.559 53 16 52.4293 16 50.8913C16 41.3152 16 31.7391 16 22.1726C16 20.654 16.5783 20.0833 18.1012 20.0833C19.5855 20.0736 21.0795 20.0736 22.612 20.0736Z" fill="#1E62B9"/>
<path d="M29.9759 23.285C28.241 23.285 26.506 23.2946 24.7807 23.285C24.0193 23.285 23.8072 23.0625 23.7976 22.2887C23.7879 21.5148 23.7976 20.741 23.7976 19.9672C23.7976 19.4062 24.0867 19.116 24.6458 19.1063C25.2916 19.0966 25.947 19.0966 26.5928 19.1063C27.0458 19.116 27.3349 18.9322 27.5663 18.5259C28.7518 16.4753 31.2096 16.5043 32.4626 18.5356C32.6265 18.8064 33.041 19.0386 33.359 19.0773C33.9952 19.1643 34.6602 19.0966 35.306 19.1063C35.894 19.1063 36.1928 19.4062 36.1928 20.0059C36.1928 20.799 36.1928 21.6019 36.1928 22.3951C36.1928 23.0335 35.8747 23.2946 35.2482 23.2946C33.494 23.2753 31.7398 23.285 29.9759 23.285Z" fill="#1E62B9"/>
<path d="M0 4C0 1.79086 1.79086 0 4 0H56C58.2091 0 60 1.79086 60 4V9H0V4Z" fill="#1E3F69"/>
<circle cx="4.5" cy="4.5" r="1.5" fill="#FF4F59"/>
<circle cx="9.5" cy="4.5" r="1.5" fill="#FCFEFF"/>
<circle cx="14.5" cy="4.5" r="1.5" fill="#FFF507"/>
</svg>
