<svg width="60" height="60" viewBox="0 0 60 60" fill="none" xmlns="http://www.w3.org/2000/svg">
<rect width="60" height="60" rx="4" fill="#1E62B9" fill-opacity="0.1"/>
<path d="M37.9185 53C37.382 52.8673 36.8355 52.7551 36.299 52.5816C34.3961 51.9693 32.9183 50.806 31.8352 49.1222C31.7239 48.9488 31.7644 48.8365 31.8656 48.6936C33.556 46.1425 35.9447 44.8465 38.9611 44.8669C41.9166 44.8873 44.2447 46.1833 45.9047 48.663C46.0362 48.8569 46.0261 48.9896 45.9047 49.1835C44.4471 51.3775 42.4227 52.6224 39.8214 52.9388C39.7809 52.9388 39.7506 52.9796 39.7202 53C39.123 53 38.5258 53 37.9185 53ZM35.8233 48.9998C35.8233 50.7244 37.1998 52.102 38.9206 52.0918C40.6109 52.0918 41.9672 50.704 41.9774 48.9998C41.9875 47.2854 40.5907 45.8772 38.9003 45.8772C37.1998 45.8772 35.8131 47.2854 35.8233 48.9998Z" fill="#1E62B9"/>
<path d="M38.8909 50.4182C38.1116 50.4182 37.484 49.7957 37.484 49.01C37.4739 48.214 38.1116 47.5609 38.9011 47.5609C39.6703 47.5609 40.308 48.2038 40.3181 48.9794C40.3283 49.7651 39.6906 50.4182 38.8909 50.4182Z" fill="#1E62B9"/>
<path fill-rule="evenodd" clip-rule="evenodd" d="M31.2754 51.3357H16C14.8954 51.3357 14 50.4403 14 49.3357V19C14 17.8954 14.8954 17 16 17H39.6406C40.7452 17 41.6406 17.8954 41.6406 19V43.3738C38.8436 42.7103 32.1638 42.8762 29.7946 48.8476L31.2754 51.3357ZM17.9616 20.9809C17.4093 20.9809 16.9616 21.4287 16.9616 21.9809C16.9616 22.5332 17.4093 22.9809 17.9616 22.9809H25.9616C26.5139 22.9809 26.9616 22.5332 26.9616 21.9809C26.9616 21.4287 26.5139 20.9809 25.9616 20.9809H17.9616ZM28.9616 21.9809C28.9616 21.4287 29.4093 20.9809 29.9616 20.9809H37.9616C38.5139 20.9809 38.9616 21.4287 38.9616 21.9809C38.9616 22.5332 38.5139 22.9809 37.9616 22.9809H29.9616C29.4093 22.9809 28.9616 22.5332 28.9616 21.9809ZM17.9616 25.9809C17.4093 25.9809 16.9616 26.4287 16.9616 26.9809C16.9616 27.5332 17.4093 27.9809 17.9616 27.9809H25.9616C26.5139 27.9809 26.9616 27.5332 26.9616 26.9809C26.9616 26.4287 26.5139 25.9809 25.9616 25.9809H17.9616ZM28.9616 26.9809C28.9616 26.4287 29.4093 25.9809 29.9616 25.9809H37.9616C38.5139 25.9809 38.9616 26.4287 38.9616 26.9809C38.9616 27.5332 38.5139 27.9809 37.9616 27.9809H29.9616C29.4093 27.9809 28.9616 27.5332 28.9616 26.9809ZM17.9616 30.9809C17.4093 30.9809 16.9616 31.4287 16.9616 31.9809C16.9616 32.5332 17.4093 32.9809 17.9616 32.9809H25.9616C26.5139 32.9809 26.9616 32.5332 26.9616 31.9809C26.9616 31.4287 26.5139 30.9809 25.9616 30.9809H17.9616ZM28.9616 31.9809C28.9616 31.4287 29.4093 30.9809 29.9616 30.9809H37.9616C38.5139 30.9809 38.9616 31.4287 38.9616 31.9809C38.9616 32.5332 38.5139 32.9809 37.9616 32.9809H29.9616C29.4093 32.9809 28.9616 32.5332 28.9616 31.9809ZM17.9616 35.9809C17.4093 35.9809 16.9616 36.4287 16.9616 36.9809C16.9616 37.5332 17.4093 37.9809 17.9616 37.9809H25.9616C26.5139 37.9809 26.9616 37.5332 26.9616 36.9809C26.9616 36.4287 26.5139 35.9809 25.9616 35.9809H17.9616ZM28.9616 36.9809C28.9616 36.4287 29.4093 35.9809 29.9616 35.9809H37.9616C38.5139 35.9809 38.9616 36.4287 38.9616 36.9809C38.9616 37.5332 38.5139 37.9809 37.9616 37.9809H29.9616C29.4093 37.9809 28.9616 37.5332 28.9616 36.9809ZM17.9616 40.9809C17.4093 40.9809 16.9616 41.4287 16.9616 41.9809C16.9616 42.5332 17.4093 42.9809 17.9616 42.9809H25.9616C26.5139 42.9809 26.9616 42.5332 26.9616 41.9809C26.9616 41.4287 26.5139 40.9809 25.9616 40.9809H17.9616ZM28.9616 41.9809C28.9616 41.4287 29.4093 40.9809 29.9616 40.9809H31.9616C32.5139 40.9809 32.9616 41.4287 32.9616 41.9809C32.9616 42.5332 32.5139 42.9809 31.9616 42.9809H29.9616C29.4093 42.9809 28.9616 42.5332 28.9616 41.9809ZM17.9616 45.9809C17.4093 45.9809 16.9616 46.4287 16.9616 46.9809C16.9616 47.5332 17.4093 47.9809 17.9616 47.9809H25.9616C26.5139 47.9809 26.9616 47.5332 26.9616 46.9809C26.9616 46.4287 26.5139 45.9809 25.9616 45.9809H17.9616Z" fill="#1E62B9"/>
<path d="M0 4C0 1.79086 1.79086 0 4 0H56C58.2091 0 60 1.79086 60 4V9H0V4Z" fill="#1E3F69"/>
<circle cx="4.5" cy="4.5" r="1.5" fill="#FF4F59"/>
<circle cx="9.5" cy="4.5" r="1.5" fill="#FCFEFF"/>
<circle cx="14.5" cy="4.5" r="1.5" fill="#FFF507"/>
</svg>
