<svg width="60" height="60" viewBox="0 0 60 60" fill="none" xmlns="http://www.w3.org/2000/svg">
<rect width="60" height="60" rx="4" fill="#1E62B9" fill-opacity="0.1"/>
<path d="M40.1572 32.7858C39.9 32.1429 39.5143 31.7572 38.8715 31.6286C38.2286 31.6286 37.7143 32.0143 37.3286 32.5286C37.3286 31.8858 37.2 31.3715 36.8143 31.1143C36.4286 30.8572 36.0429 30.7286 35.6572 30.7286C34.8857 30.7286 34.3715 31.3715 34.2429 32.5286C34.1143 32.4 33.9857 32.2715 33.8572 32.1429C33.2143 31.5 32.3143 31.5 31.8 32.1429C31.2857 32.7858 31.2857 33.5572 31.8 34.2C32.0572 34.4572 32.1857 34.5858 32.4429 34.8429L32.3143 34.9715C29.8715 36.2572 28.2 38.3143 26.7857 40.5001C26.4 41.0143 26.5286 41.5286 26.7857 42.0429C27.1715 42.5572 27.5572 43.0715 27.8143 43.5858H27.6857C23.9572 43.5858 20.2286 43.5858 16.5 43.5858C16.1143 43.5858 15.8572 43.4572 15.8572 42.9429C15.8572 36.7715 15.8572 30.6 15.8572 24.4286V24.3C23.8286 24.3 31.9286 24.3 39.9 24.3C40.1572 27.1286 40.1572 29.8286 40.1572 32.7858ZM28.0715 26.2286C25.2429 26.2286 22.4143 26.2286 19.5857 26.2286C19.4572 26.2286 19.4572 26.2286 19.3286 26.2286C19.0715 26.2286 18.9429 26.4858 18.8143 26.7429C18.8143 27 18.9429 27.2572 19.2 27.2572C19.3286 27.2572 19.3286 27.2572 19.4572 27.2572C25.1143 27.2572 30.7715 27.2572 36.3 27.2572C36.4286 27.2572 36.4286 27.2572 36.5572 27.2572C36.8143 27.2572 37.0715 27 37.0715 26.7429C37.0715 26.4858 36.8143 26.2286 36.5572 26.2286C36.4286 26.2286 36.4286 26.2286 36.3 26.2286C33.7286 26.2286 30.9 26.2286 28.0715 26.2286ZM28.0715 30.0858C28.7143 30.0858 29.3572 30.0858 30 30.0858C32.1857 30.0858 34.3715 30.0858 36.5572 30.0858C36.9429 30.0858 37.2 29.9572 37.2 29.5715C37.2 29.1858 36.9429 29.0572 36.5572 29.0572C30.9 29.0572 25.2429 29.0572 19.7143 29.0572C19.5857 29.0572 19.5857 29.0572 19.4572 29.0572C19.0715 29.0572 18.9429 29.3143 18.9429 29.5715C18.9429 29.8286 19.2 30.0858 19.4572 30.0858C19.5857 30.0858 19.5857 30.0858 19.7143 30.0858C22.4143 30.0858 25.2429 30.0858 28.0715 30.0858ZM24.6 32.9143C26.2715 32.9143 28.0715 32.9143 29.7429 32.9143C29.8715 32.9143 30 32.9143 30 32.9143C30.2572 32.9143 30.3857 32.6572 30.3857 32.4C30.3857 32.1429 30.2572 32.0143 30 31.8858C29.8715 31.8858 29.8715 31.8858 29.7429 31.8858C26.4 31.8858 22.9286 31.8858 19.5857 31.8858C19.4572 31.8858 19.4572 31.8858 19.3286 31.8858C19.0715 31.8858 18.8143 32.1429 18.8143 32.4C18.8143 32.6572 19.0715 32.9143 19.3286 32.9143C19.4572 32.9143 19.4572 32.9143 19.5857 32.9143C21.2572 32.9143 22.9286 32.9143 24.6 32.9143ZM24.7286 34.8429C23.0572 34.8429 21.2572 34.8429 19.5857 34.8429C19.4572 34.8429 19.4572 34.8429 19.3286 34.8429C19.0715 34.8429 18.9429 35.1001 18.9429 35.3572C18.9429 35.6143 19.0715 35.8715 19.3286 35.8715C19.4572 35.8715 19.4572 35.8715 19.5857 35.8715C22.9286 35.8715 26.4 35.8715 29.7429 35.8715C29.8715 35.8715 29.8715 35.8715 30 35.8715C30.2572 35.8715 30.3857 35.6143 30.3857 35.3572C30.3857 35.1001 30.2572 34.9715 30 34.8429C29.8715 34.8429 29.8715 34.8429 29.7429 34.8429C28.0715 34.8429 26.4 34.8429 24.7286 34.8429Z" fill="#1E62B9"/>
<path d="M15.9858 23.2714C15.9858 22.1143 15.9858 21.0857 15.9858 19.9286C15.9858 19.6714 16.1144 19.4143 16.5001 19.4143C16.6287 19.4143 16.6287 19.4143 16.7573 19.4143C24.343 19.4143 31.9287 19.4143 39.3858 19.4143C40.0287 19.4143 40.1573 19.5429 40.1573 20.0572C40.1573 21.0857 40.1573 22.1143 40.1573 23.1429C32.0573 23.2714 24.0858 23.2714 15.9858 23.2714ZM19.3287 22.3714C19.5858 22.3714 19.9716 22.3714 20.2287 22.3714C20.4858 22.3714 20.743 22.1143 20.743 21.8572C20.743 21.6 20.6144 21.3429 20.2287 21.3429C19.5858 21.3429 18.943 21.3429 18.3001 21.3429C18.1716 21.3429 17.9144 21.6 17.9144 21.8572C17.9144 22.1143 18.1716 22.3714 18.4287 22.3714C18.8144 22.3714 19.0716 22.3714 19.3287 22.3714ZM35.7858 21.3429C35.5287 21.3429 35.2716 21.6 35.2716 21.8572C35.2716 22.1143 35.5287 22.3714 35.7858 22.3714C36.043 22.3714 36.3001 22.1143 36.3001 21.8572C36.3001 21.6 36.043 21.3429 35.7858 21.3429ZM37.7144 21.3429C37.4573 21.3429 37.2001 21.6 37.2001 21.8572C37.2001 22.1143 37.4573 22.3714 37.7144 22.3714C37.9716 22.3714 38.2287 22.1143 38.2287 21.8572C38.2287 21.6 37.9716 21.3429 37.7144 21.3429Z" fill="#1E62B9"/>
<path d="M35.6572 47.4429C34.2429 47.4429 32.9572 46.9286 31.8001 46.0286C30.1286 44.8715 28.7144 43.2 27.6858 41.5286C27.5572 41.2715 27.5572 41.1429 27.6858 40.8858C28.9715 38.9572 30.5144 37.1572 32.5715 35.8715C33.7286 35.2286 34.8858 34.8429 36.1715 34.8429C37.4572 34.9715 38.6144 35.4858 39.6429 36.1286C41.4429 37.4143 42.7286 38.9572 43.8858 40.7572C44.0144 41.0143 44.0144 41.1429 43.8858 41.4C42.6001 43.4572 41.0572 45.2572 38.8715 46.4143C37.9715 47.0572 36.9429 47.4429 35.6572 47.4429ZM35.7858 45.5143C38.2286 45.5143 40.1572 43.5858 40.1572 41.1429C40.1572 38.8286 38.2286 36.7715 35.7858 36.7715C33.3429 36.7715 31.4144 38.7 31.4144 41.1429C31.4144 43.5858 33.3429 45.5143 35.7858 45.5143Z" fill="#1E62B9"/>
<path d="M34.3714 34.0715C34.2429 34.2001 34.2429 34.3286 33.9857 34.4572C33.8572 34.4572 33.6 34.4572 33.4714 34.4572C33.0857 34.2001 32.7 33.8144 32.4429 33.4286C32.3143 33.1715 32.3143 33.0429 32.4429 32.7858C32.5714 32.6572 32.8286 32.5286 33.0857 32.7858C33.4714 33.1715 33.8572 33.5572 34.1143 33.8144C34.2429 33.8144 34.3714 33.9429 34.3714 34.0715Z" fill="#1E62B9"/>
<path d="M37.7143 34.5858C37.5858 34.4572 37.4572 34.4572 37.3286 34.2001C37.3286 34.0715 37.3286 33.8144 37.3286 33.6858C37.5858 33.3001 37.9715 32.9144 38.3572 32.6572C38.6143 32.5286 38.7429 32.5286 39 32.6572C39.1286 32.7858 39.2572 33.0429 39 33.3001C38.6143 33.6858 38.2286 34.0715 37.9715 34.3286C37.9715 34.4572 37.8429 34.4572 37.7143 34.5858Z" fill="#1E62B9"/>
<path d="M35.2715 32.7857C35.2715 32.5285 35.2715 32.4 35.2715 32.1428C35.2715 31.8857 35.5286 31.6285 35.7858 31.6285C36.0429 31.6285 36.3001 31.8857 36.3001 32.1428C36.3001 32.5285 36.3001 32.9143 36.3001 33.4285C36.3001 33.6857 36.0429 33.9428 35.7858 33.9428C35.5286 33.9428 35.2715 33.6857 35.2715 33.4285C35.2715 33.1714 35.2715 33.0428 35.2715 32.7857Z" fill="#1E62B9"/>
<path d="M39.1286 41.1429C39.1286 42.9429 37.5857 44.4858 35.7857 44.4858C33.9857 44.4858 32.4429 42.9429 32.4429 41.1429C32.4429 39.3429 33.9857 37.8 35.7857 37.8C37.5857 37.8 39.1286 39.2143 39.1286 41.1429ZM35.7857 38.7C34.5 38.7 33.3429 39.7286 33.3429 41.1429C33.3429 42.4286 34.3714 43.5858 35.7857 43.5858C37.0714 43.5858 38.2286 42.5572 38.2286 41.1429C38.2286 39.8572 37.0714 38.7 35.7857 38.7Z" fill="#1E62B9"/>
<path d="M37.2002 41.1429C37.2002 41.9144 36.5573 42.5572 35.7859 42.5572C35.0144 42.5572 34.3716 41.9144 34.3716 41.1429C34.3716 40.3715 35.0144 39.7286 35.7859 39.7286C36.5573 39.7286 37.2002 40.3715 37.2002 41.1429Z" fill="#1E62B9"/>
<path d="M0 4C0 1.79086 1.79086 0 4 0H56C58.2091 0 60 1.79086 60 4V9H0V4Z" fill="#1E3F69"/>
<circle cx="4.5" cy="4.5" r="1.5" fill="#FF4F59"/>
<circle cx="9.5" cy="4.5" r="1.5" fill="#FCFEFF"/>
<circle cx="14.5" cy="4.5" r="1.5" fill="#FFF507"/>
</svg>
