<svg width="60" height="60" viewBox="0 0 60 60" fill="none" xmlns="http://www.w3.org/2000/svg">
<rect width="60" height="60" rx="4" fill="#1E62B9" fill-opacity="0.1"/>
<path d="M9 52.1048C9 40.7016 9 29.2984 9 17.8952C9.32031 17.2131 9.86484 17 10.6016 17C23.2005 17.0107 35.7995 17.0107 48.3984 17C49.1458 17 49.6797 17.2025 50 17.8952C50 29.2984 50 40.7016 50 52.1048C49.6797 52.7975 49.1352 53 48.3878 53C35.7888 52.9893 23.2005 52.9893 10.6016 53C9.86484 52.9893 9.32031 52.7869 9 52.1048ZM18.887 24.2043C18.2464 24.2043 17.6164 24.2043 16.9865 24.2043C16.3458 24.2043 15.7052 24.1936 15.0646 24.2043C14.4346 24.2149 13.9328 24.6838 13.8794 25.2913C13.826 25.8881 14.2318 26.4529 14.8404 26.5808C14.9898 26.6128 15.1607 26.6021 15.3208 26.6021C16.5167 26.6021 17.7125 26.6021 18.887 26.6021C19.6237 28.2433 20.8516 29.0533 22.624 29C23.1792 28.9893 23.7451 28.9787 24.3003 29C26.1047 29.0639 27.3539 28.2647 28.0906 26.6021C28.2188 26.6021 28.3682 26.6021 28.5177 26.6021C33.5466 26.6021 38.5755 26.6021 43.6044 26.6021C43.7326 26.6021 43.8714 26.6128 43.9995 26.6021C44.5013 26.5595 44.8857 26.2398 45.0458 25.7496C45.206 25.2593 45.0779 24.8224 44.6935 24.5346C44.4372 24.3428 44.0635 24.2256 43.7432 24.2256C38.6609 24.2043 33.5786 24.2149 28.4964 24.2149C28.3576 24.2149 28.2081 24.2149 28.0906 24.2149C27.3539 22.5524 26.1154 21.7638 24.3216 21.8171C23.7664 21.8384 23.2005 21.8384 22.6453 21.8171C20.8622 21.7531 19.6237 22.5524 18.887 24.2043ZM30.8987 33.7957C30.7279 33.7957 30.5784 33.7957 30.4396 33.7957C25.4214 33.7957 20.4031 33.7957 15.3956 33.7957C15.2674 33.7957 15.1286 33.7851 15.0005 33.7957C14.4346 33.8384 13.9755 34.286 13.9008 34.8401C13.826 35.3943 14.157 35.9378 14.7122 36.1083C14.9151 36.1723 15.1286 36.1829 15.3422 36.1829C20.4031 36.1829 25.4534 36.1829 30.5143 36.1829C30.6531 36.1829 30.8026 36.1829 30.9201 36.1829C31.6568 37.8242 32.874 38.6234 34.6464 38.5808C35.351 38.5595 36.0557 38.6021 36.7711 38.5702C38.2125 38.5169 39.2695 37.8348 39.9422 36.5666C40.0062 36.4387 40.0703 36.3108 40.1344 36.1829C41.3836 36.1829 42.6115 36.1829 43.8286 36.1829C44.5974 36.1829 45.1419 35.6714 45.1312 34.9787C45.1312 34.2753 44.5867 33.7957 43.8073 33.7851C43.4977 33.7851 43.1987 33.7851 42.8891 33.7851C41.9602 33.7851 41.0312 33.7851 40.1237 33.7851C39.387 32.1332 38.1591 31.3339 36.3867 31.3872C35.8315 31.3979 35.2656 31.4085 34.7104 31.3872C32.8953 31.3339 31.6354 32.1332 30.8987 33.7957ZM23.6917 43.3872C23.5956 43.3872 23.5102 43.3872 23.4354 43.3872C20.6914 43.3872 17.9367 43.3872 15.1927 43.3872C14.6482 43.3872 14.2318 43.6004 13.9969 44.0906C13.6125 44.9005 14.2211 45.7744 15.1714 45.7851C17.8833 45.7851 20.5846 45.7851 23.2966 45.7851C23.4354 45.7851 23.5849 45.7851 23.7023 45.7851C24.4391 47.4263 25.6669 48.2256 27.4393 48.183C28.1333 48.1616 28.8273 48.1936 29.5214 48.1723C31.0161 48.1297 32.0945 47.4156 32.7672 46.0941C32.8206 45.9876 32.8633 45.881 32.906 45.7851C33.0768 45.7851 33.2263 45.7851 33.3758 45.7851C36.8458 45.7851 40.3159 45.7851 43.7859 45.7851C44.3411 45.7851 44.7789 45.5826 45.0245 45.071C45.4089 44.2504 44.8003 43.3872 43.85 43.3872C40.3372 43.3872 36.8352 43.3872 33.3224 43.3872C33.1836 43.3872 33.0341 43.3872 32.9167 43.3872C32.1799 41.7353 30.9628 40.9361 29.1904 40.9893C28.6138 41 28.0479 41.0107 27.4714 40.9893C25.6562 40.9361 24.4284 41.746 23.6917 43.3872Z" fill="#1E62B9"/>
<path d="M23.4887 24.2043C23.8838 24.2043 24.2895 24.1936 24.6846 24.2043C25.3679 24.2149 25.8804 24.7265 25.8911 25.3872C25.9018 26.0586 25.3786 26.5915 24.6739 26.6021C23.8731 26.6128 23.0723 26.6128 22.2715 26.6021C21.5989 26.5915 21.0757 26.0586 21.0757 25.4085C21.0757 24.7584 21.5989 24.2362 22.2715 24.2149C22.688 24.2043 23.083 24.2043 23.4887 24.2043Z" fill="#1E62B9"/>
<path d="M35.5005 36.1936C35.1055 36.1936 34.6998 36.2043 34.3047 36.1936C33.632 36.1723 33.1089 35.6501 33.1089 35C33.1089 34.3499 33.6214 33.8064 34.294 33.7957C35.1055 33.7851 35.9169 33.7851 36.7284 33.7957C37.4011 33.8064 37.9136 34.3499 37.9136 35C37.9029 35.6288 37.4011 36.1616 36.7498 36.183C36.3333 36.2043 35.9169 36.1936 35.5005 36.1936Z" fill="#1E62B9"/>
<path d="M28.2614 45.7851C27.8771 45.7851 27.4927 45.7957 27.0976 45.7851C26.425 45.7638 25.9018 45.2522 25.8911 44.6021C25.8804 43.9414 26.4143 43.3979 27.1083 43.3979C27.8984 43.3872 28.6778 43.3872 29.4679 43.3979C30.1726 43.4085 30.6958 43.9307 30.6958 44.6021C30.6958 45.2735 30.162 45.7851 29.4573 45.7957C29.0622 45.7957 28.6565 45.7851 28.2614 45.7851Z" fill="#1E62B9"/>
<path d="M0 4C0 1.79086 1.79086 0 4 0H56C58.2091 0 60 1.79086 60 4V9H0V4Z" fill="#1E3F69"/>
<circle cx="4.5" cy="4.5" r="1.5" fill="#FF4F59"/>
<circle cx="9.5" cy="4.5" r="1.5" fill="#FCFEFF"/>
<circle cx="14.5" cy="4.5" r="1.5" fill="#FFF507"/>
</svg>
