<svg width="60" height="60" viewBox="0 0 60 60" fill="none" xmlns="http://www.w3.org/2000/svg">
<rect width="60" height="60" rx="4" fill="#1E62B9" fill-opacity="0.1"/>
<path d="M44.9996 33.9789C44.9989 33.7631 44.9939 33.5486 44.9843 33.335V21.1598L41.6282 24.5258C38.8814 21.1537 34.7029 19 30.0225 19C25.1518 19 20.8247 21.3317 18.0894 24.9427L23.5904 30.5179C24.1295 29.5179 24.8954 28.6591 25.8188 28.0104C26.7792 27.2587 28.14 26.6442 30.0224 26.6442C30.2498 26.6442 30.4253 26.6708 30.5542 26.721C32.8865 26.9056 34.9082 28.1965 36.0985 30.0702L32.2046 33.9755C37.1367 33.9561 42.7085 33.9447 44.9992 33.978" fill="#1C3AA9"/>
<path d="M29.9351 19.0002C29.72 19.001 29.5061 19.0059 29.2931 19.0156H17.1535L20.5096 22.3815C17.1475 25.1364 15 29.3272 15 34.0212C15 38.9062 17.3249 43.246 20.9253 45.9894L26.4843 40.4722C25.4872 39.9315 24.6309 39.1634 23.9841 38.2373C23.2347 37.2741 22.6218 35.9093 22.6218 34.0214C22.6218 33.7933 22.6484 33.6173 22.6985 33.4879C22.8825 31.1488 24.1697 29.1213 26.0379 27.9274L29.9318 31.8328C29.9124 26.8862 29.901 21.2981 29.9343 19.0007" fill="#4285F4"/>
<path d="M15.0015 34.0211C15.0022 34.2369 15.0071 34.4514 15.0168 34.665V46.8402L18.3729 43.4742C21.1197 46.8463 25.2982 49 29.9786 49C34.8493 49 39.1764 46.6683 41.9117 43.0573L36.4107 37.4821C35.8716 38.4821 35.1057 39.3409 34.1823 39.9896C33.2219 40.7413 31.8611 41.3558 29.9787 41.3558C29.7513 41.3558 29.5758 41.3292 29.4468 41.279C27.1146 41.0944 25.0929 39.8035 23.9026 37.9298L27.7965 34.0245C22.8644 34.0439 17.2926 34.0553 15.0019 34.022" fill="#ABABAB"/>
<path d="M0 4C0 1.79086 1.79086 0 4 0H56C58.2091 0 60 1.79086 60 4V9H0V4Z" fill="#1E3F69"/>
<circle cx="4.5" cy="4.5" r="1.5" fill="#FF4F59"/>
<circle cx="9.5" cy="4.5" r="1.5" fill="#FCFEFF"/>
<circle cx="14.5" cy="4.5" r="1.5" fill="#FFF507"/>
</svg>
