<svg width="60" height="60" viewBox="0 0 60 60" fill="none" xmlns="http://www.w3.org/2000/svg">
<rect width="60" height="60" rx="4" fill="#1E62B9" fill-opacity="0.1"/>
<path d="M12 48.0125C12 40.5125 12 33.0125 12 25.5125C22.5816 25.5125 33.1726 25.5125 43.7636 25.5125C43.7636 27.1719 43.7636 28.7938 43.7636 30.4531C42.8826 30.0594 42.0203 30.0688 41.1861 30.5188C40.3426 30.9781 39.874 31.7188 39.7147 32.675C39.0023 32.675 38.3088 32.6469 37.6246 32.6844C36.9498 32.7125 36.2562 32.7313 35.6001 32.8813C31.5137 33.8 28.7581 37.2594 28.7488 41.4594C28.7394 43.7657 28.7488 46.0719 28.7488 48.3875C28.7488 48.5094 28.7488 48.6407 28.7488 48.8C28.5988 48.8 28.477 48.8 28.3457 48.8C23.3689 48.8 18.3921 48.7907 13.4153 48.8094C12.7592 48.7907 12.2812 48.6125 12 48.0125ZM20.8196 33.95C22.1973 33.95 23.5845 33.95 24.9622 33.95C25.6464 33.95 26.1244 33.5188 26.1244 32.9094C26.1338 32.2813 25.6558 31.8406 24.9435 31.8406C22.2161 31.8406 19.4887 31.8406 16.7613 31.8406C16.0583 31.8406 15.5709 32.2719 15.5803 32.9C15.5803 33.5281 16.0583 33.95 16.78 33.95C18.1297 33.95 19.4699 33.95 20.8196 33.95ZM20.8571 36.05C19.4887 36.05 18.1203 36.0406 16.7519 36.0594C16.5176 36.0594 16.2645 36.1344 16.0583 36.2469C15.6647 36.4719 15.5053 36.9594 15.6272 37.3719C15.7678 37.8688 16.152 38.1594 16.6957 38.1594C19.4512 38.1594 22.1973 38.1594 24.9529 38.1594C25.6558 38.1594 26.1338 37.7281 26.1338 37.1C26.1244 36.4719 25.6464 36.0594 24.9341 36.0594C23.5751 36.05 22.2161 36.05 20.8571 36.05ZM20.8852 42.3875C22.2442 42.3875 23.6032 42.3875 24.9622 42.3875C25.6464 42.3875 26.1244 41.9563 26.1244 41.3469C26.1338 40.7188 25.6558 40.2782 24.9435 40.2782C22.2348 40.2782 19.5355 40.2782 16.8269 40.2782C16.1239 40.2782 15.6366 40.7094 15.6459 41.3375C15.6459 41.9657 16.1333 42.3875 16.8362 42.3875C18.1953 42.3875 19.5449 42.3875 20.8852 42.3875Z" fill="#1E62B9"/>
<path d="M43.0044 17C43.6043 17.2813 43.8011 17.75 43.7917 18.4063C43.7636 20.0563 43.7823 21.7063 43.7823 23.3938C33.182 23.3938 22.591 23.3938 12.0094 23.3938C12 21.5469 12 19.7 12 17.8438C12.1406 17.4219 12.4218 17.1406 12.8435 17C22.9003 17 32.9477 17 43.0044 17ZM32.4509 20.2063C32.4509 19.6344 31.9823 19.1563 31.4106 19.1469C30.8388 19.1375 30.3515 19.6063 30.3421 20.1781C30.3327 20.7688 30.8107 21.2563 31.4012 21.2469C31.9823 21.2469 32.4509 20.7781 32.4509 20.2063ZM36.6779 20.1969C36.6779 19.625 36.2093 19.1563 35.6282 19.1469C35.0565 19.1375 34.5785 19.6063 34.5691 20.1781C34.5597 20.7688 35.0471 21.2469 35.6282 21.2469C36.1999 21.2469 36.6779 20.7688 36.6779 20.1969ZM40.8862 20.2156C40.8956 19.6438 40.4363 19.1656 39.8552 19.1469C39.2835 19.1375 38.7961 19.5969 38.7774 20.1688C38.7587 20.7594 39.2367 21.2469 39.8271 21.2563C40.4082 21.2563 40.8862 20.7875 40.8862 20.2156Z" fill="#1E62B9"/>
<path d="M31.3356 53C30.9701 52.7844 30.8483 52.4656 30.8483 52.0437C30.8576 48.4906 30.8483 44.9469 30.8576 41.3937C30.867 38.3187 32.854 35.7312 35.8063 34.9812C36.3781 34.8406 36.9873 34.7937 37.5778 34.775C38.8618 34.7468 40.1552 34.7656 41.4393 34.7656C41.5517 34.7656 41.6642 34.7656 41.8142 34.7656C41.8142 34.1843 41.8235 33.6406 41.8142 33.0875C41.8048 32.75 41.9173 32.4875 42.2266 32.3375C42.5452 32.1875 42.8077 32.2906 43.0607 32.5062C44.5978 33.7906 46.1349 35.0656 47.672 36.3593C47.8032 36.4718 47.8876 36.6218 48 36.7625C48 36.9031 48 37.0437 48 37.1843C47.8313 37.3625 47.6814 37.55 47.5033 37.7C46.0412 38.9281 44.5697 40.1469 43.1076 41.3656C42.8358 41.5906 42.5546 41.7219 42.2172 41.5531C41.8798 41.3937 41.8142 41.1031 41.8235 40.7656C41.8329 40.2312 41.8235 39.6969 41.8235 39.1531C40.2864 39.1531 38.7868 39.1531 37.2872 39.1531C37.2216 39.1531 37.1466 39.1625 37.081 39.1812C35.9563 39.3969 35.2627 40.2594 35.2627 41.4594C35.2627 44.975 35.2534 48.4906 35.2627 51.9969C35.2627 52.4281 35.1596 52.7656 34.7847 53C33.6319 53 32.4791 53 31.3356 53Z" fill="#1E62B9"/>
<path d="M43.773 43.4844C43.773 44.9281 43.7824 46.3438 43.773 47.7594C43.7636 48.3031 43.3418 48.7719 42.7982 48.7719C40.9987 48.7906 39.1992 48.7813 37.3715 48.7813C37.3715 46.2781 37.3715 43.7844 37.3715 41.2812C38.1494 41.2812 38.918 41.2812 39.6865 41.2812C40.0333 43.2594 41.9547 44.225 43.773 43.4844Z" fill="#1E62B9"/>
<path d="M0 4C0 1.79086 1.79086 0 4 0H56C58.2091 0 60 1.79086 60 4V9H0V4Z" fill="#1E3F69"/>
<circle cx="4.5" cy="4.5" r="1.5" fill="#FF4F59"/>
<circle cx="9.5" cy="4.5" r="1.5" fill="#FCFEFF"/>
<circle cx="14.5" cy="4.5" r="1.5" fill="#FFF507"/>
</svg>
