<svg width="60" height="60" viewBox="0 0 60 60" fill="none" xmlns="http://www.w3.org/2000/svg">
<rect width="60" height="60" rx="4" fill="#1E62B9" fill-opacity="0.1"/>
<path d="M0 4C0 1.79086 1.79086 0 4 0H56C58.2091 0 60 1.79086 60 4V9H0V4Z" fill="#1E3F69"/>
<circle cx="4.5" cy="4.5" r="1.5" fill="#FF4F59"/>
<circle cx="9.5" cy="4.5" r="1.5" fill="#FCFEFF"/>
<circle cx="14.5" cy="4.5" r="1.5" fill="#FFF507"/>
<path d="M10 48.0125C10 40.5125 10 33.0125 10 25.5125C20.5816 25.5125 31.1726 25.5125 41.7636 25.5125C41.7636 27.1719 41.7636 28.7938 41.7636 30.4531C40.8826 30.0594 40.0203 30.0688 39.1861 30.5188C38.3426 30.9781 37.874 31.7188 37.7147 32.675C37.0023 32.675 36.3088 32.6469 35.6246 32.6844C34.9498 32.7125 34.2562 32.7313 33.6001 32.8813C29.5137 33.8 26.7581 37.2594 26.7488 41.4594C26.7394 43.7657 26.7488 46.0719 26.7488 48.3875C26.7488 48.5094 26.7488 48.6407 26.7488 48.8C26.5988 48.8 26.477 48.8 26.3457 48.8C21.3689 48.8 16.3921 48.7907 11.4153 48.8094C10.7592 48.7907 10.2812 48.6125 10 48.0125ZM18.8196 33.95C20.1973 33.95 21.5845 33.95 22.9622 33.95C23.6464 33.95 24.1244 33.5188 24.1244 32.9094C24.1338 32.2813 23.6558 31.8406 22.9435 31.8406C20.2161 31.8406 17.4887 31.8406 14.7613 31.8406C14.0583 31.8406 13.5709 32.2719 13.5803 32.9C13.5803 33.5281 14.0583 33.95 14.78 33.95C16.1297 33.95 17.4699 33.95 18.8196 33.95ZM18.8571 36.05C17.4887 36.05 16.1203 36.0406 14.7519 36.0594C14.5176 36.0594 14.2645 36.1344 14.0583 36.2469C13.6647 36.4719 13.5053 36.9594 13.6272 37.3719C13.7678 37.8688 14.152 38.1594 14.6957 38.1594C17.4512 38.1594 20.1973 38.1594 22.9529 38.1594C23.6558 38.1594 24.1338 37.7281 24.1338 37.1C24.1244 36.4719 23.6464 36.0594 22.9341 36.0594C21.5751 36.05 20.2161 36.05 18.8571 36.05ZM18.8852 42.3875C20.2442 42.3875 21.6032 42.3875 22.9622 42.3875C23.6464 42.3875 24.1244 41.9563 24.1244 41.3469C24.1338 40.7188 23.6558 40.2782 22.9435 40.2782C20.2348 40.2782 17.5355 40.2782 14.8269 40.2782C14.1239 40.2782 13.6366 40.7094 13.6459 41.3375C13.6459 41.9657 14.1333 42.3875 14.8362 42.3875C16.1953 42.3875 17.5449 42.3875 18.8852 42.3875Z" fill="#1E62B9"/>
<path d="M41.0044 17C41.6043 17.2813 41.8011 17.75 41.7917 18.4063C41.7636 20.0563 41.7823 21.7063 41.7823 23.3938C31.182 23.3938 20.591 23.3938 10.0094 23.3938C10 21.5469 10 19.7 10 17.8438C10.1406 17.4219 10.4218 17.1406 10.8435 17C20.9003 17 30.9477 17 41.0044 17ZM30.4509 20.2063C30.4509 19.6344 29.9823 19.1563 29.4106 19.1469C28.8388 19.1375 28.3515 19.6063 28.3421 20.1781C28.3327 20.7688 28.8107 21.2563 29.4012 21.2469C29.9823 21.2469 30.4509 20.7781 30.4509 20.2063ZM34.6779 20.1969C34.6779 19.625 34.2093 19.1563 33.6282 19.1469C33.0565 19.1375 32.5785 19.6063 32.5691 20.1781C32.5597 20.7688 33.0471 21.2469 33.6282 21.2469C34.1999 21.2469 34.6779 20.7688 34.6779 20.1969ZM38.8862 20.2156C38.8956 19.6438 38.4363 19.1656 37.8552 19.1469C37.2835 19.1375 36.7961 19.5969 36.7774 20.1688C36.7587 20.7594 37.2367 21.2469 37.8271 21.2563C38.4082 21.2563 38.8862 20.7875 38.8862 20.2156Z" fill="#1E62B9"/>
<path d="M29.3356 53C28.9701 52.7844 28.8483 52.4656 28.8483 52.0437C28.8576 48.4906 28.8483 44.9469 28.8576 41.3937C28.867 38.3187 30.854 35.7312 33.8063 34.9812C34.3781 34.8406 34.9873 34.7937 35.5778 34.775C36.8618 34.7468 38.1552 34.7656 39.4393 34.7656C39.5517 34.7656 39.6642 34.7656 39.8142 34.7656C39.8142 34.1843 39.8235 33.6406 39.8142 33.0875C39.8048 32.75 39.9173 32.4875 40.2266 32.3375C40.5452 32.1875 40.8077 32.2906 41.0607 32.5062C42.5978 33.7906 44.1349 35.0656 45.672 36.3593C45.8032 36.4718 45.8876 36.6218 46 36.7625C46 36.9031 46 37.0437 46 37.1843C45.8313 37.3625 45.6814 37.55 45.5033 37.7C44.0412 38.9281 42.5697 40.1469 41.1076 41.3656C40.8358 41.5906 40.5546 41.7219 40.2172 41.5531C39.8798 41.3937 39.8142 41.1031 39.8235 40.7656C39.8329 40.2312 39.8235 39.6969 39.8235 39.1531C38.2864 39.1531 36.7868 39.1531 35.2872 39.1531C35.2216 39.1531 35.1466 39.1625 35.081 39.1812C33.9563 39.3969 33.2627 40.2594 33.2627 41.4594C33.2627 44.975 33.2534 48.4906 33.2627 51.9969C33.2627 52.4281 33.1596 52.7656 32.7847 53C31.6319 53 30.4791 53 29.3356 53Z" fill="#1E62B9"/>
<g filter="url(#filter0_d_7_404)">
<path d="M39.6063 50.8125V52.6875C39.6063 52.7708 39.576 52.8438 39.5154 52.9062C39.4548 52.9688 39.3841 53 39.3033 53H37.4853C37.4045 53 37.3338 52.9688 37.2732 52.9062C37.2126 52.8438 37.1823 52.7708 37.1823 52.6875V50.8125C37.1823 50.7292 37.2126 50.6562 37.2732 50.5938C37.3338 50.5312 37.4045 50.5 37.4853 50.5H39.3033C39.3841 50.5 39.4548 50.5312 39.5154 50.5938C39.576 50.6562 39.6063 50.7292 39.6063 50.8125ZM42 46.125C42 46.4062 41.9609 46.6693 41.8826 46.9141C41.8043 47.1589 41.7159 47.3581 41.6175 47.5117C41.519 47.6654 41.3801 47.8203 41.2008 47.9766C41.0216 48.1328 40.8764 48.2461 40.7653 48.3164C40.6542 48.3867 40.5002 48.4792 40.3032 48.5938C40.0962 48.7135 39.9232 48.8828 39.7843 49.1016C39.6454 49.3203 39.576 49.4948 39.576 49.625C39.576 49.7135 39.5457 49.7982 39.4851 49.8789C39.4245 49.9596 39.3538 50 39.273 50H37.455C37.3793 50 37.3149 49.9518 37.2619 49.8555C37.2088 49.7591 37.1823 49.6615 37.1823 49.5625V49.2109C37.1823 48.7786 37.3464 48.3711 37.6747 47.9883C38.0029 47.6055 38.364 47.3229 38.7579 47.1406C39.0559 47 39.268 46.8542 39.3942 46.7031C39.5205 46.5521 39.5836 46.3542 39.5836 46.1094C39.5836 45.8906 39.4662 45.6979 39.2313 45.5312C38.9965 45.3646 38.7251 45.2812 38.417 45.2812C38.0888 45.2812 37.8161 45.3568 37.5989 45.5078C37.4222 45.638 37.152 45.9375 36.7884 46.4062C36.7228 46.4896 36.6445 46.5312 36.5536 46.5312C36.493 46.5312 36.4299 46.5104 36.3642 46.4688L35.1219 45.4922C35.0563 45.4401 35.0171 45.375 35.0045 45.2969C34.9919 45.2188 35.0058 45.1458 35.0462 45.0781C35.8542 43.6927 37.0258 43 38.561 43C38.965 43 39.3715 43.0807 39.7805 43.2422C40.1896 43.4036 40.5582 43.6198 40.8865 43.8906C41.2147 44.1615 41.4824 44.4935 41.6894 44.8867C41.8965 45.2799 42 45.6927 42 46.125Z" fill="#1E62B9"/>
</g>
<rect x="43" y="45" width="7" height="2" rx="1" fill="#1E62B9"/>
<rect x="43" y="48" width="7" height="2" rx="1" fill="#1E62B9"/>
<defs>
<filter id="filter0_d_7_404" x="29" y="33" width="23" height="26" filterUnits="userSpaceOnUse" color-interpolation-filters="sRGB">
<feFlood flood-opacity="0" result="BackgroundImageFix"/>
<feColorMatrix in="SourceAlpha" type="matrix" values="0 0 0 0 0 0 0 0 0 0 0 0 0 0 0 0 0 0 127 0" result="hardAlpha"/>
<feOffset dx="2" dy="-2"/>
<feGaussianBlur stdDeviation="4"/>
<feComposite in2="hardAlpha" operator="out"/>
<feColorMatrix type="matrix" values="0 0 0 0 0 0 0 0 0 0 0 0 0 0 0 0 0 0 0.55 0"/>
<feBlend mode="normal" in2="BackgroundImageFix" result="effect1_dropShadow_7_404"/>
<feBlend mode="normal" in="SourceGraphic" in2="effect1_dropShadow_7_404" result="shape"/>
</filter>
</defs>
</svg>
