<svg width="60" height="60" viewBox="0 0 60 60" fill="none" xmlns="http://www.w3.org/2000/svg">
<rect width="60" height="60" rx="4" fill="#1E62B9" fill-opacity="0.1"/>
<path d="M12 35C12 30.1143 12 25.3143 12 20.4286C12 18.2 13.2 17 15.5143 17C25.2 17 34.8857 17 44.4857 17C46.8 17 48 18.2 48 20.5143C48 30.2 48 39.8857 48 49.4857C48 51.7143 46.8 53 44.5714 53C34.8857 53 25.2 53 15.5143 53C13.2 53 12 51.8 12 49.4857C12 44.6857 12 39.8857 12 35ZM43.6286 29.1714C43.6286 28.7429 43.6286 28.4857 43.6286 28.2286C43.6286 26.3429 43.6286 24.5429 43.6286 22.6571C43.6286 21.7143 43.2857 21.3714 42.3429 21.3714C39.3429 21.3714 36.2571 21.3714 33.2571 21.3714C32.4 21.3714 31.8857 21.8 31.8857 22.4C31.8857 23.0857 32.3143 23.4286 33.2571 23.4286C35.8286 23.4286 38.3143 23.4286 40.8857 23.4286C41.1429 23.4286 41.4 23.4286 41.6571 23.4286C41.6571 25.3143 41.6571 27.1143 41.6571 29.0857C41.4 28.8286 41.3143 28.6571 41.1429 28.5714C40.7143 28.0571 40.2 27.9714 39.6857 28.4C39.1714 28.8286 39.1714 29.3429 39.6 29.7714C40.3714 30.7143 41.1429 31.6571 41.9143 32.6C42.3429 33.1143 42.8571 33.1143 43.2857 32.6C44.1429 31.6571 44.9143 30.7143 45.6857 29.6857C46.0286 29.1714 45.9429 28.6571 45.5143 28.2286C45.0857 27.8 44.5714 27.9714 44.1429 28.4C44.0571 28.6571 43.8857 28.8286 43.6286 29.1714ZM41.5714 46.4857C39.6857 46.4857 37.8857 46.4857 36 46.4857C36.1714 46.3143 36.2571 46.3143 36.3429 46.2286C37.0286 45.7143 37.1143 45.2 36.6857 44.6857C36.2571 44.1714 35.7429 44.1714 35.1429 44.6857C34.2857 45.3714 33.3429 46.1429 32.4857 46.9143C31.8857 47.4286 31.8857 47.9429 32.4857 48.4571C33.4286 49.2286 34.3714 50 35.3143 50.7714C35.8286 51.1143 36.2571 51.0286 36.6857 50.6C37.1143 50.1714 37.0286 49.6571 36.6 49.2286C36.4286 49.0571 36.2571 48.8857 35.9143 48.5429C36.3429 48.5429 36.6 48.5429 36.8571 48.5429C38.5714 48.5429 40.3714 48.5429 42.0857 48.5429C43.3714 48.5429 43.7143 48.2 43.7143 46.9143C43.7143 44.8571 43.7143 42.8 43.7143 40.7429C43.7143 39.8 43.7143 38.9429 43.7143 38C43.7143 37.3143 43.2857 36.9714 42.6 36.9714C42 36.9714 41.6571 37.4 41.6571 38C41.6571 38.2571 41.6571 38.5143 41.6571 38.6857C41.5714 41.2571 41.5714 43.8286 41.5714 46.4857ZM24.0857 21.3714C21.8571 21.3714 19.8 21.3714 17.7429 21.3714C16.8 21.3714 16.4571 21.7143 16.4571 22.6571C16.4571 25.7429 16.4571 28.7429 16.4571 31.8286C16.4571 32.6857 16.8 33.1143 17.4857 33.1143C18.0857 33.1143 18.5143 32.6857 18.5143 31.8286C18.5143 29.3429 18.5143 26.7714 18.5143 24.2857C18.5143 24.0286 18.5143 23.7714 18.5143 23.5143C20.4857 23.5143 22.2857 23.5143 24.2571 23.5143C24.0857 23.6857 24 23.6857 23.9143 23.7714C23.2286 24.3714 23.0571 24.8857 23.4857 25.4C23.9143 25.9143 24.4286 25.9143 25.1143 25.3143C25.9714 24.6286 26.8286 23.9429 27.6857 23.2571C28.2 22.8286 28.2857 22.2286 27.7714 21.7143C26.8286 20.8571 25.8 20 24.7714 19.2286C24.3429 18.8857 23.8286 19.0571 23.4857 19.4C23.0571 19.8286 23.1429 20.2571 23.4857 20.6857C23.5714 20.9429 23.8286 21.1143 24.0857 21.3714ZM18.5143 46.5714C18.5143 44.6857 18.5143 42.8857 18.5143 41C18.6857 41.1714 18.6857 41.2571 18.7714 41.2571C19.2857 41.9429 19.8 42.0286 20.3143 41.6C20.8286 41.1714 20.8286 40.6571 20.3143 39.9714C19.6286 39.1143 18.9429 38.2571 18.1714 37.4C17.6571 36.8 17.1429 36.8 16.6286 37.4C15.8571 38.3429 15.0857 39.2857 14.3143 40.2286C13.8857 40.7429 14.0571 41.2571 14.4857 41.6C15 42.0286 15.4286 41.8571 15.8571 41.4286C16.0286 41.2571 16.1143 41.0857 16.2857 40.9143C16.2857 41.0857 16.3714 41.0857 16.3714 41.1714C16.3714 43.0571 16.3714 44.9429 16.3714 46.9143C16.3714 48.2857 16.6286 48.5429 18 48.5429C20.8286 48.5429 23.7429 48.5429 26.5714 48.5429C26.8286 48.5429 27.0857 48.6286 27.2571 48.4571C27.6 48.2 27.9429 47.8571 28.0286 47.5143C28.1143 47 27.7714 46.6571 27.2571 46.4857C27 46.4 26.7429 46.4857 26.5714 46.4857C23.9143 46.5714 21.2571 46.5714 18.5143 46.5714Z" fill="#1E62B9"/>
<path d="M0 4C0 1.79086 1.79086 0 4 0H56C58.2091 0 60 1.79086 60 4V9H0V4Z" fill="#1E3F69"/>
<circle cx="4.5" cy="4.5" r="1.5" fill="#FF4F59"/>
<circle cx="9.5" cy="4.5" r="1.5" fill="#FCFEFF"/>
<circle cx="14.5" cy="4.5" r="1.5" fill="#FFF507"/>
</svg>
