<svg width="60" height="60" viewBox="0 0 60 60" fill="none" xmlns="http://www.w3.org/2000/svg">
<rect width="60" height="60" rx="4" fill="#1E62B9" fill-opacity="0.1"/>
<path d="M29.7757 50.0275C29.2338 50.0275 28.8002 50.0275 28.3667 50.0275C24.0311 50.0275 19.804 50.0275 15.4684 50.0275C13.3007 50.0275 12 48.7064 12 46.5046C12 37.8073 12 29.1101 12 20.4128C12 18.7615 12.8671 17.5505 14.3845 17.1101C14.7097 17 15.0349 17 15.36 17C23.9227 17 32.4854 17 41.1565 17C43.2159 17 44.5166 18.3211 44.5166 20.4128C44.5166 24.156 44.5166 28.0092 44.5166 31.7523C44.5166 32.0826 44.4082 32.1927 44.083 32.4128C43.7578 32.5229 43.3243 32.8532 43.1075 33.0734C38.8804 37.9174 34.7616 42.6514 30.5344 47.4954C30.2093 47.9358 30.1009 48.4862 29.9925 49.0367C29.7757 49.367 29.7757 49.6972 29.7757 50.0275ZM27.3912 40.5596C27.1744 40.5596 27.066 40.5596 26.8492 40.5596C26.6325 40.5596 26.5241 40.5596 26.3073 40.5596C25.7653 40.5596 25.4402 40.8899 25.4402 41.3303C25.4402 41.8807 25.657 42.211 26.1989 42.211C27.4996 42.211 28.8002 42.211 30.1009 42.211C30.6428 42.211 30.8596 41.8807 30.8596 41.3303C30.8596 40.8899 30.5344 40.5596 30.1009 40.5596C29.7757 40.5596 29.4506 40.5596 29.017 40.5596C29.017 35.8257 29.017 31.0917 29.017 26.4679C31.0764 26.4679 33.0274 26.4679 35.0868 26.4679C35.0868 26.9083 35.0868 27.3486 35.0868 27.789C35.0868 28.0092 35.0868 28.2294 35.1952 28.3394C35.4119 28.7798 35.7371 28.8899 36.1706 28.6697C36.3874 28.5596 36.7126 28.2294 36.7126 28.0092C36.821 27.3486 36.7126 26.7982 36.7126 26.1376C36.7126 25.1468 36.3874 24.8165 35.4119 24.8165C33.1358 24.8165 30.8596 24.8165 28.6918 24.8165C26.0905 24.8165 23.5976 24.8165 20.9962 24.8165C20.2375 24.8165 19.804 25.1468 19.6956 25.9174C19.6956 26.578 19.6956 27.3486 19.6956 28.0092C19.6956 28.5596 20.0208 28.8899 20.5627 28.8899C20.9963 28.8899 21.3214 28.5596 21.3214 28.0092C21.3214 27.5688 21.3214 27.0183 21.3214 26.4679C23.3808 26.4679 25.3318 26.4679 27.3912 26.4679C27.3912 31.2018 27.3912 35.8257 27.3912 40.5596Z" fill="#1E62B9"/>
<path d="M30.968 53C31.0764 52.3395 31.1848 51.6789 31.2932 51.1285C31.4016 50.4679 31.51 49.8074 31.6183 49.1468C31.7267 48.8165 31.8351 48.4863 32.0519 48.156C35.4119 44.3028 38.6636 40.5597 42.0236 36.7064C42.132 36.5964 42.2404 36.3762 42.4572 36.2661C43.6495 37.2569 44.7334 38.3578 45.9256 39.3487C45.1669 40.2294 44.4082 41.1101 43.6495 41.9909C40.9398 45.1835 38.1217 48.2661 35.4119 51.4587C35.1952 51.6789 34.9784 51.789 34.7616 51.8991C33.5693 52.3395 32.2687 52.6698 30.968 53Z" fill="#1E62B9"/>
<path d="M38.8804 50.0275C40.723 47.8257 42.5656 45.844 44.5166 43.6422C44.5166 43.9725 44.5166 44.3027 44.5166 44.5229C44.5166 45.4036 44.5166 46.2844 44.5166 47.055C44.4082 48.7064 43.2159 49.9174 41.5901 50.0275C40.6146 50.0275 39.8559 50.0275 38.8804 50.0275Z" fill="#1E62B9"/>
<path d="M43.541 35.1651C43.7578 34.8349 43.9746 34.6147 44.1913 34.2844C44.6249 33.844 45.0585 33.734 45.492 34.1743C46.2507 34.8349 46.9011 35.4954 47.6598 36.156C48.0933 36.4862 48.0933 36.9266 47.7682 37.367C47.5514 37.6973 47.3346 38.0275 47.0094 38.3578C45.8172 37.2569 44.6249 36.156 43.541 35.1651Z" fill="#1E62B9"/>
<path d="M0 4C0 1.79086 1.79086 0 4 0H56C58.2091 0 60 1.79086 60 4V9H0V4Z" fill="#1E3F69"/>
<circle cx="4.5" cy="4.5" r="1.5" fill="#FF4F59"/>
<circle cx="9.5" cy="4.5" r="1.5" fill="#FCFEFF"/>
<circle cx="14.5" cy="4.5" r="1.5" fill="#FFF507"/>
</svg>
