<svg width="60" height="60" viewBox="0 0 60 60" fill="none" xmlns="http://www.w3.org/2000/svg">
<rect width="60" height="60" rx="4" fill="#1E62B9" fill-opacity="0.1"/>
<path d="M36.3636 16C36.3636 17.5214 36.353 19 36.3636 20.4786C36.3742 21.9571 37.2758 23.1786 38.6758 23.575C39.0045 23.6714 39.3545 23.7036 39.6939 23.7036C41.1152 23.7143 42.5258 23.7143 43.9788 23.7143C43.9894 23.8214 44 23.9286 44 24.025C44 32.6607 44 41.2964 44 49.9321C44 51.1857 43.2045 52 41.9742 52C33.9985 52 26.0121 52 18.0364 52C16.8061 52 16 51.1857 16 49.9321C16 39.3143 16 28.6964 16 18.0786C16 16.8036 16.7955 16 18.0576 16C24.1348 16 30.2227 16 36.3636 16ZM35.4303 26.8214C35.2712 26.65 35.1333 26.4143 34.9212 26.3179C34.6136 26.1786 34.3273 26.3286 34.1576 26.6286C33.7652 27.325 33.3621 28.0107 32.9697 28.7071C32.7364 29.1143 32.8 29.4893 33.1288 29.6929C33.4682 29.8964 33.8288 29.7679 34.0727 29.3393C34.4545 28.6857 34.8258 28.0214 35.2076 27.3679C35.2818 27.2286 35.3348 27.0679 35.4303 26.8214ZM38.4742 29.9607C38.3045 30.0036 38.2515 30.0036 38.2091 30.025C37.3818 30.4964 36.5439 30.9571 35.7379 31.4714C35.4621 31.6429 35.4515 31.975 35.6212 32.2643C35.7909 32.5536 36.0985 32.6714 36.3742 32.5214C37.1909 32.0821 37.9864 31.6107 38.7712 31.1179C39.0258 30.9571 39.0788 30.6464 38.9303 30.4C38.8242 30.2071 38.6015 30.0786 38.4742 29.9607ZM24.4742 38.7679C24.4848 38.1464 23.9652 37.8464 23.5091 38.0929C22.7773 38.5 22.0561 38.9179 21.3455 39.3571C20.9848 39.5714 20.9 39.925 21.0803 40.2464C21.2606 40.5679 21.6212 40.6643 21.9712 40.4607C22.703 40.0536 23.4242 39.6357 24.1348 39.1964C24.3045 39.1 24.4 38.8643 24.4742 38.7679ZM39.0788 39.6679C39.0258 39.5929 38.9727 39.3679 38.8242 39.2821C38.0606 38.8107 37.2864 38.35 36.4909 37.9214C36.1833 37.75 35.8864 37.8679 35.7061 38.1679C35.5258 38.4679 35.5576 38.8 35.8545 38.9821C36.6394 39.475 37.4348 39.9464 38.2621 40.375C38.6333 40.5679 39.0682 40.225 39.0788 39.6679ZM35.4091 43.7714C35.3667 43.5786 35.3561 43.4929 35.3242 43.4286C34.8788 42.625 34.4333 41.8214 33.9561 41.0393C33.7758 40.7393 33.447 40.7179 33.1394 40.8893C32.8424 41.0607 32.7364 41.3714 32.8742 41.65C33.3091 42.475 33.7758 43.2786 34.253 44.0714C34.4015 44.3179 34.7091 44.3929 34.953 44.2429C35.1652 44.125 35.2924 43.9 35.4091 43.7714ZM25.3758 44.2964C25.45 44.2536 25.6727 44.1893 25.7576 44.0393C26.2242 43.2679 26.6803 42.4857 27.1152 41.6929C27.2848 41.3821 27.1364 41.0179 26.8394 40.8679C26.5318 40.7179 26.2136 40.7607 26.0333 41.0607C25.5667 41.8214 25.1212 42.5929 24.7076 43.375C24.4742 43.8143 24.7924 44.2964 25.3758 44.2964ZM29.3636 26.8964C29.3636 27.3143 29.3636 27.7214 29.3636 28.1393C29.3742 28.5786 29.6182 28.8571 29.9894 28.8679C30.3606 28.8786 30.6258 28.5893 30.6364 28.1607C30.647 27.3464 30.647 26.5321 30.6364 25.7179C30.6364 25.2893 30.3712 25.0107 29.9894 25.0107C29.6182 25.0214 29.3742 25.3 29.3636 25.7393C29.353 26.1143 29.3636 26.5 29.3636 26.8964ZM21.7167 35.9286C22.1409 35.9286 22.5652 35.9393 22.9894 35.9286C23.3712 35.9179 23.6258 35.65 23.6364 35.3071C23.647 34.9429 23.3818 34.6536 22.9788 34.6536C22.1409 34.6429 21.3136 34.6429 20.4758 34.6536C20.0727 34.6536 19.8076 34.9321 19.8076 35.2964C19.8076 35.6607 20.0727 35.9179 20.4758 35.9286C20.9 35.9393 21.3136 35.9286 21.7167 35.9286ZM38.2727 35.9286C38.6652 35.9286 39.0682 35.9286 39.4606 35.9286C39.8955 35.9179 40.1712 35.6714 40.1818 35.2964C40.1924 34.9214 39.9061 34.6536 39.4818 34.6429C38.6758 34.6321 37.8697 34.6321 37.0636 34.6429C36.6394 34.6429 36.3636 34.9107 36.3636 35.2964C36.3742 35.6714 36.6394 35.9179 37.0848 35.9286C37.4773 35.9393 37.8803 35.9286 38.2727 35.9286ZM30.6364 43.6429C30.6364 43.2464 30.6364 42.8393 30.6364 42.4429C30.6258 42.0036 30.3818 41.725 30.0106 41.7143C29.6394 41.7036 29.3742 41.9821 29.3636 42.4214C29.353 43.2357 29.353 44.05 29.3636 44.8643C29.3636 45.2929 29.6288 45.5714 30.0106 45.5714C30.3818 45.5607 30.6258 45.2821 30.6364 44.8429C30.6364 44.4464 30.6364 44.05 30.6364 43.6429ZM27.4333 34.6429C27.0939 34.6536 26.8076 34.9429 26.8182 35.2964C26.8182 35.65 27.1045 35.9286 27.4545 35.9286C27.8152 35.9286 28.1121 35.6179 28.0909 35.2643C28.0697 34.9107 27.7833 34.6321 27.4333 34.6429ZM29.9894 34.6429C29.6394 34.6536 29.3636 34.9429 29.3636 35.2857C29.3636 35.6393 29.65 35.9286 29.9894 35.9286C30.35 35.9286 30.647 35.6286 30.6364 35.2643C30.6258 34.9214 30.3288 34.6429 29.9894 34.6429ZM32.5561 34.6429C32.2061 34.6321 31.9197 34.9107 31.9091 35.2643C31.8985 35.6286 32.1955 35.9393 32.5561 35.9286C32.8955 35.9286 33.1818 35.6393 33.1818 35.2857C33.1818 34.9429 32.9061 34.6536 32.5561 34.6429Z" fill="#1E62B9"/>
<path d="M42.9288 22.4286C41.7939 22.4286 40.5742 22.4607 39.3546 22.4179C38.4318 22.3857 37.6576 21.5607 37.6364 20.6179C37.6045 19.4179 37.6258 18.2072 37.6258 17.0714C39.3864 18.85 41.1682 20.65 42.9288 22.4286Z" fill="#1E62B9"/>
<path d="M0 4C0 1.79086 1.79086 0 4 0H56C58.2091 0 60 1.79086 60 4V9H0V4Z" fill="#1E3F69"/>
<circle cx="4.5" cy="4.5" r="1.5" fill="#FF4F59"/>
<circle cx="9.5" cy="4.5" r="1.5" fill="#FCFEFF"/>
<circle cx="14.5" cy="4.5" r="1.5" fill="#FFF507"/>
</svg>
