<svg width="60" height="60" viewBox="0 0 60 60" fill="none" xmlns="http://www.w3.org/2000/svg">
<rect width="60" height="60" rx="4" fill="#1E62B9" fill-opacity="0.1"/>
<path d="M8 43.2167C8 42.9406 8.22386 42.7167 8.5 42.7167C16.2037 42.7167 23.9073 42.7165 31.611 42.7082C31.9031 42.7082 32.1094 42.7767 32.3242 42.991C33.845 44.5249 35.3743 46.0417 36.9037 47.567C37.0714 47.7342 37.0626 48.0083 36.8929 48.1735C36.6806 48.3801 36.4723 48.58 36.2679 48.7839C34.9619 50.0864 33.6473 51.3804 32.3585 52.6915C32.1437 52.9143 31.9289 53 31.611 53C23.9073 53 16.2037 53 8.5 53C8.22386 53 8 52.7761 8 52.5C8 49.4056 8 46.3112 8 43.2167Z" fill="#1E62B9"/>
<path d="M51.9914 39.6459C51.9914 39.922 51.7675 40.1459 51.4914 40.1459C43.2304 40.1459 34.9701 40.1459 26.7457 40.1459C26.2999 40.1459 26.0771 39.6068 26.3929 39.2922C27.6659 38.0243 28.952 36.7456 30.2438 35.4524C30.439 35.2571 30.4385 34.9404 30.243 34.7454C28.8737 33.3798 27.5536 32.0635 26.1998 30.7178C25.8832 30.4032 26.106 29.8626 26.5524 29.8626C34.9377 29.8626 43.2083 29.8626 51.484 29.8626C51.7597 29.8626 51.9833 30.0857 51.9839 30.3614C51.991 33.4562 51.9913 36.5511 51.9914 39.6459Z" fill="#1E62B9"/>
<path d="M8 17.5086C8 17.2324 8.22386 17.0086 8.5 17.0086C14.4853 17.0086 20.4705 17.0083 26.4558 17C26.7479 17 26.9541 17.0686 27.1689 17.2828C28.6897 18.8167 30.2191 20.3335 31.7485 21.8588C31.9085 22.0184 31.9071 22.2807 31.7484 22.4415C31.7398 22.4501 31.7313 22.4587 31.7227 22.4673C30.2019 23.9841 28.6811 25.4923 27.1775 27.009C26.9713 27.2233 26.7565 27.2918 26.4644 27.2918C20.4707 27.2918 14.4853 27.2918 8.5 27.2918C8.22386 27.2918 8 27.068 8 26.7918C8 23.6974 8 20.603 8 17.5086Z" fill="#1E62B9"/>
<path d="M51.9915 26.7918C51.9915 27.068 51.7676 27.2918 51.4915 27.2918C44.9498 27.2918 38.4092 27.2918 31.9096 27.2918C31.4639 27.2918 31.2409 26.7526 31.5566 26.4379C32.8272 25.1708 34.1085 23.8939 35.4043 22.6071C35.601 22.4118 35.6014 22.0938 35.4052 21.8981C34.0349 20.5315 32.7139 19.2139 31.359 17.8626C31.0434 17.5478 31.2663 17.0086 31.7121 17.0086C38.3773 17.0086 44.9393 17.0086 51.4988 17.0086C51.7754 17.0086 51.9995 17.2332 51.9989 17.5098C51.9918 20.6038 51.9915 23.6978 51.9915 26.7918Z" fill="#1E62B9"/>
<path d="M8 30.3627C8 30.0865 8.22386 29.8627 8.5 29.8627C12.7668 29.8627 17.0337 29.8623 21.3005 29.8541C21.5927 29.8541 21.7989 29.9227 22.0137 30.1369C23.5345 31.6708 25.0639 33.1876 26.5932 34.7129C26.7609 34.8802 26.7522 35.1542 26.5825 35.3194C26.3702 35.5261 26.1618 35.726 25.9574 35.9298C24.6514 37.2323 23.3454 38.5263 22.048 39.8374C21.8332 40.0602 21.6184 40.1545 21.3091 40.1545C17.034 40.138 12.7669 40.1453 8.5 40.1459C8.22386 40.1459 8 39.9221 8 39.6459C8 36.5515 8 33.4571 8 30.3627Z" fill="#1E62B9"/>
<path d="M51.9914 52.5C51.9914 52.7761 51.7676 53 51.4914 53C46.6684 53 41.8465 53 37.0562 53C36.6105 53 36.3877 52.4609 36.7035 52.1463C37.9764 50.8784 39.2626 49.5997 40.5543 48.3065C40.7495 48.1112 40.7491 47.7945 40.5535 47.5995C39.1843 46.2339 37.8641 44.9176 36.5103 43.5719C36.1937 43.2573 36.4165 42.7167 36.8629 42.7167C41.804 42.7167 46.6493 42.7167 51.4914 42.7167C51.7676 42.7167 51.9914 42.9406 51.9914 43.2167C51.9914 46.3112 51.9914 49.4056 51.9914 52.5Z" fill="#1E62B9"/>
<path d="M0 4C0 1.79086 1.79086 0 4 0H56C58.2091 0 60 1.79086 60 4V9H0V4Z" fill="#1E3F69"/>
<circle cx="4.5" cy="4.5" r="1.5" fill="#FF4F59"/>
<circle cx="9.5" cy="4.5" r="1.5" fill="#FCFEFF"/>
<circle cx="14.5" cy="4.5" r="1.5" fill="#FFF507"/>
</svg>
