<svg width="60" height="60" viewBox="0 0 60 60" fill="none" xmlns="http://www.w3.org/2000/svg">
<rect width="60" height="60" rx="4" fill="#1E62B9" fill-opacity="0.1"/>
<g clip-path="url(#clip0_109_635)">
<path d="M48 27.6125C48 35.1781 48 42.7531 48 50.3188C47.9625 50.4125 47.9062 50.4969 47.8781 50.5906C47.4656 51.9969 46.2844 52.9156 44.8125 52.9156C34.9406 52.9156 25.0594 52.9156 15.1875 52.9156C13.725 52.9156 12.5344 51.9969 12.1219 50.5906C12.0937 50.4969 12.0469 50.4031 12 50.3188C12 42.7531 12 35.1875 12 27.6125C24 27.6125 36 27.6125 48 27.6125ZM26.9062 47.6563C27.375 47.6281 27.6844 47.3281 27.8906 46.85C29.5031 43.0719 31.125 39.2938 32.7469 35.5156C33.2156 34.4281 33.6844 33.35 34.1344 32.2625C34.3406 31.775 34.1906 31.2688 33.7875 30.9781C33.4031 30.6969 32.8781 30.6969 32.5219 31.0156C32.3531 31.175 32.2125 31.4 32.1188 31.6156C30.525 35.3094 28.9406 39.0125 27.3563 42.7156C26.8688 43.85 26.3813 44.9844 25.9031 46.1281C25.575 46.8875 26.0719 47.6563 26.9062 47.6563ZM20.0906 39.2188C21.5063 38.0844 22.8844 36.9969 24.2531 35.8906C24.7875 35.4594 24.8812 34.8313 24.5062 34.3438C24.1219 33.8563 23.4844 33.8 22.95 34.2313C21.2344 35.6 19.5188 36.9688 17.8125 38.3375C17.175 38.8531 17.175 39.5844 17.8031 40.0906C19.5094 41.4594 21.2156 42.8281 22.9312 44.1969C23.4656 44.6281 24.1031 44.5813 24.4969 44.1031C24.8813 43.625 24.7875 42.9875 24.2625 42.5563C23.7938 42.1719 23.3156 41.7969 22.8375 41.4125C21.9281 40.6906 21.0281 39.9688 20.0906 39.2188ZM39.9094 39.2094C39.8156 39.2844 39.7688 39.3313 39.7125 39.3781C38.4 40.4281 37.0781 41.4875 35.7656 42.5375C35.2125 42.9781 35.1187 43.6156 35.5125 44.1031C35.9062 44.5813 36.5344 44.6188 37.0781 44.1875C38.7844 42.8281 40.4812 41.4688 42.1781 40.1094C42.825 39.5844 42.825 38.8438 42.1781 38.3188C41.7656 37.9906 41.3531 37.6625 40.9406 37.3344C39.6375 36.2938 38.325 35.2438 37.0219 34.2031C36.5156 33.8094 35.8875 33.8656 35.5125 34.325C35.1281 34.7938 35.2125 35.4313 35.7094 35.8531C35.8219 35.9469 35.9438 36.0406 36.0656 36.1344C37.3313 37.1563 38.6063 38.1688 39.9094 39.2094Z" fill="#1E62B9"/>
<path d="M48 19.7375C48 21.6594 48 23.5813 48 25.5031C36 25.5031 24 25.5031 12 25.5031C12 23.5625 12 21.6125 12 19.6719C12.0188 19.6438 12.0562 19.625 12.0656 19.5969C12.6 17.8531 13.65 17.0656 15.4688 17.0656C24.4875 17.0656 33.5063 17.0656 42.5344 17.0656C43.3219 17.0656 44.1 17.0563 44.8875 17.0656C46.2375 17.0844 47.4094 17.9563 47.8406 19.2219C47.8875 19.4 47.9437 19.5688 48 19.7375ZM39.4969 23.3938C40.5 23.3938 41.5125 23.3938 42.5156 23.3938C43.2281 23.3938 43.7063 22.9719 43.7063 22.3438C43.7063 21.7156 43.2281 21.2844 42.525 21.2844C40.5 21.2844 38.475 21.2844 36.45 21.2844C35.7469 21.2844 35.2687 21.725 35.2687 22.3531C35.2781 22.9625 35.7563 23.3938 36.4313 23.3938C37.4531 23.4031 38.475 23.3938 39.4969 23.3938ZM17.3344 21.2844C16.7625 21.2938 16.2937 21.7719 16.2937 22.3438C16.2937 22.9156 16.7719 23.3938 17.3438 23.3938C17.925 23.3938 18.4125 22.9063 18.4031 22.3156C18.3844 21.7531 17.9062 21.2844 17.3344 21.2844ZM22.6125 22.3531C22.6125 21.7813 22.1438 21.3031 21.5719 21.2938C21 21.2844 20.5125 21.7531 20.5031 22.325C20.4937 22.9063 20.9719 23.4031 21.5625 23.4031C22.1344 23.3938 22.6125 22.9156 22.6125 22.3531ZM25.7812 21.2844C25.2094 21.2844 24.7313 21.7625 24.7313 22.3344C24.7313 22.9063 25.2 23.3844 25.7719 23.3938C26.3531 23.4031 26.85 22.9156 26.8406 22.325C26.8313 21.7625 26.3531 21.2844 25.7812 21.2844Z" fill="#1E62B9"/>
</g>
<path d="M0 4C0 1.79086 1.79086 0 4 0H56C58.2091 0 60 1.79086 60 4V9H0V4Z" fill="#1E3F69"/>
<circle cx="4.5" cy="4.5" r="1.5" fill="#FF4F59"/>
<circle cx="9.5" cy="4.5" r="1.5" fill="#FCFEFF"/>
<circle cx="14.5" cy="4.5" r="1.5" fill="#FFF507"/>
<defs>
<clipPath id="clip0_109_635">
<rect width="36" height="36" fill="white" transform="translate(12 17)"/>
</clipPath>
</defs>
</svg>
