<svg width="60" height="60" viewBox="0 0 60 60" fill="none" xmlns="http://www.w3.org/2000/svg">
<rect width="60" height="60" rx="4" fill="#1E62B9" fill-opacity="0.1"/>
<path d="M45.174 29.6244C45.0779 33.6921 44.4589 37.6529 42.8258 41.4002C40.435 46.8878 36.4005 50.6565 30.8183 52.781C29.6656 53.2188 28.5769 52.9412 27.4882 52.4714C20.9027 49.6636 16.8788 44.6778 15.043 37.8451C13.9863 33.9269 13.7729 29.934 14.2212 25.8984C14.2638 25.4607 14.3279 25.023 14.3919 24.596C14.552 23.539 15.1391 22.781 16.121 22.3646C20.2303 20.6458 24.3395 18.9269 28.4488 17.2187C29.2493 16.8878 30.0284 16.9518 30.8076 17.2828C34.3618 18.7774 37.9161 20.2507 41.481 21.7347C41.972 21.9376 42.463 22.1404 42.9539 22.354C43.9999 22.8024 44.6083 23.6031 44.7257 24.7241C44.9072 26.3575 45.0246 27.991 45.174 29.6244ZM16.2491 29.6351C16.3345 32.7205 16.7721 35.7953 17.6153 38.3896C19.4831 44.1654 23.1548 48.2543 28.833 50.4963C29.2706 50.6672 29.6869 50.7312 30.1459 50.5497C35.4399 48.4999 39.0902 44.8166 41.1074 39.5106C42.004 37.1511 42.4843 34.7063 42.6764 32.1867C42.8579 29.7952 42.8045 27.4145 42.4523 25.0444C42.4096 24.7241 42.2602 24.5426 41.972 24.4251C37.9481 22.7596 33.9242 21.0728 29.9004 19.4073C29.7082 19.3219 29.4201 19.3326 29.2173 19.4073C25.1934 21.0728 21.1695 22.7596 17.1457 24.4358C16.8361 24.5639 16.6867 24.7668 16.6547 25.0871C16.5159 26.6137 16.3879 28.1191 16.2491 29.6351Z" fill="#1E62B9"/>
<path d="M17.2314 29.6246C17.3382 28.3114 17.4342 26.9983 17.541 25.6744C17.5623 25.4075 17.6584 25.258 17.9252 25.1513C21.6929 23.5926 25.4606 22.0125 29.2283 20.4538C29.4098 20.379 29.6766 20.3577 29.8581 20.4324C33.6151 21.9911 37.3615 23.5605 41.1185 25.1192C41.4387 25.2474 41.5561 25.4182 41.5881 25.7385C42.1538 30.831 41.7909 35.8061 39.6349 40.525C37.6496 44.8808 34.3516 47.8702 29.9114 49.6104C29.698 49.6958 29.3778 49.6744 29.1536 49.589C23.2833 47.2723 19.7717 42.8951 18.1707 36.8737C17.5516 34.5036 17.2955 32.0801 17.2314 29.6246ZM29.5272 42.7243C29.5272 42.7349 29.5272 42.7456 29.5272 42.7563C30.5412 42.7563 31.5551 42.767 32.5691 42.7563C34.2662 42.7243 35.4616 41.5392 35.4829 39.8524C35.4936 38.1976 35.4936 36.5428 35.4829 34.8879C35.4829 33.8951 35.0453 33.1264 34.2555 32.5392C34.1381 32.4538 34.042 32.2509 34.0314 32.1015C33.9993 31.557 39.6456 38.891 39.6349 38.3359C39.7764 38.3359 32.585 46.2322 30.3863 46.0187C28.1129 45.7945 22.2874 39.5298 21.8498 41.7505C21.7004 42.5405 23.5785 32.4133 23.5571 33.214C21.1629 33.214 23.5571 31.5067 24.8202 32.5819C24.0517 33.1264 26.1394 30.5672 26.1181 31.5067C26.0967 33.2149 23.5928 38.2403 23.6248 39.9485C23.6462 41.4004 24.6708 42.5748 26.1224 42.7029C27.2538 42.799 28.3958 42.7243 29.5272 42.7243Z" fill="#1E62B9"/>
<path d="M35.3896 29.7981C36.3273 29.7981 37.0439 30.5386 37.0439 31.5061V38.3352C37.0436 39.3023 36.3271 40.0422 35.3896 40.0422H24.3574C23.4202 40.042 22.7034 39.3022 22.7031 38.3352V31.5061C22.7031 30.5388 23.42 29.7983 24.3574 29.7981H35.3896ZM27.3916 34.8635L23.917 38.5627L28.1641 35.3752L29.874 36.5139L31.5283 35.3752L35.8311 38.5627L32.3555 34.9201L36.5479 31.5061L29.874 35.2053L23.1445 31.4485L27.3916 34.8635Z" fill="white"/>
<circle cx="34.6543" cy="31.5054" r="3.1646" fill="white" stroke="#1E62B9" stroke-width="0.5"/>
<path d="M35.5089 31.3333H35.3382V30.8211C35.3382 30.4455 35.0308 30.1382 34.6552 30.1382C34.2796 30.1382 33.9723 30.4455 33.9723 30.8211V31.3333H33.8016C33.7162 31.3333 33.6309 31.4187 33.6309 31.504V32.6992C33.6309 32.7845 33.7162 32.8699 33.8016 32.8699H35.5089C35.5943 32.8699 35.6796 32.7845 35.6796 32.6992V31.504C35.6796 31.4187 35.5943 31.3333 35.5089 31.3333ZM34.826 32.5284H34.4845L34.5528 32.1528C34.4674 32.1187 34.3991 32.0162 34.3991 31.9309C34.3991 31.7943 34.5187 31.6748 34.6552 31.6748C34.7918 31.6748 34.9113 31.7943 34.9113 31.9309C34.9113 32.0333 34.8601 32.1187 34.7577 32.1528L34.826 32.5284ZM34.9967 31.3333H34.3138V30.8211C34.3138 30.6333 34.4674 30.4797 34.6552 30.4797C34.843 30.4797 34.9967 30.6333 34.9967 30.8211V31.3333Z" fill="#1E62B9"/>
<path d="M0 4C0 1.79086 1.79086 0 4 0H56C58.2091 0 60 1.79086 60 4V9H0V4Z" fill="#1E3F69"/>
<circle cx="4.5" cy="4.5" r="1.5" fill="#FF4F59"/>
<circle cx="9.5" cy="4.5" r="1.5" fill="#FCFEFF"/>
<circle cx="14.5" cy="4.5" r="1.5" fill="#FFF507"/>
</svg>
