<svg width="60" height="60" viewBox="0 0 60 60" fill="none" xmlns="http://www.w3.org/2000/svg">
<rect width="60" height="60" rx="4" fill="#1E62B9" fill-opacity="0.1"/>
<path fill-rule="evenodd" clip-rule="evenodd" d="M10 17.2C10 16.5373 10.5373 16 11.2 16H48C49.1046 16 50 16.8954 50 18V41.6154V51C50 52.1046 49.1046 53 48 53H12C10.8954 53 10 52.1046 10 51V17.2ZM45.9903 26.9926C45.9465 26.9926 45.9052 26.9945 45.8639 26.9963C45.8226 26.9982 45.7813 27 45.7375 27H24.2333H24V22.0074H24.418H45.5625C45.6354 22.0074 45.7084 22.0055 45.7813 22.0037C45.8542 22.0018 45.9271 22 46 22C45.9903 23.6642 45.9903 25.3284 45.9903 26.9926ZM19.5103 23.1094L18.5 20L17.4897 23.1094H14.2202L16.8653 25.0312L15.855 28.1406L18.5 26.2188L21.145 28.1406L20.1347 25.0312L22.7798 23.1094H19.5103ZM39.9929 36.9926C39.9611 36.9926 39.9311 36.9944 39.9011 36.9963L39.901 36.9963L39.9009 36.9963C39.8709 36.9982 39.8409 37 39.8091 37H24.1697H24V32.0074H24.304H39.6818C39.7349 32.0074 39.7879 32.0055 39.8409 32.0037C39.8939 32.0019 39.947 32 40 32C39.9929 33.6642 39.9929 35.3284 39.9929 36.9926ZM19.5103 33.1094L18.5 30L17.4897 33.1094H14.2202L16.8653 35.0312L15.855 38.1406L18.5 36.2188L21.145 38.1406L20.1347 35.0312L22.7798 33.1094H19.5103ZM31.9965 46.9926C31.9806 46.9926 31.9655 46.9945 31.9505 46.9963C31.9355 46.9981 31.9205 47 31.9046 47H24.0848H24V42.0074H24.152H31.8409C31.8674 42.0074 31.8939 42.0055 31.9205 42.0037C31.947 42.0019 31.9735 42 32 42C31.9965 43.6642 31.9965 45.3284 31.9965 46.9926ZM19.5103 43.1094L18.5 40L17.4897 43.1094H14.2202L16.8653 45.0312L15.855 48.1406L18.5 46.2188L21.145 48.1406L20.1347 45.0312L22.7798 43.1094H19.5103Z" fill="#1E62B9"/>
<path d="M0 4C0 1.79086 1.79086 0 4 0H56C58.2091 0 60 1.79086 60 4V9H0V4Z" fill="#1E3F69"/>
<circle cx="4.5" cy="4.5" r="1.5" fill="#FF4F59"/>
<circle cx="9.5" cy="4.5" r="1.5" fill="#FCFEFF"/>
<circle cx="14.5" cy="4.5" r="1.5" fill="#FFF507"/>
</svg>
