<svg width="60" height="60" viewBox="0 0 60 60" fill="none" xmlns="http://www.w3.org/2000/svg">
<rect width="60" height="60" rx="4" fill="#1E62B9" fill-opacity="0.1"/>
<path d="M14.0107 35C14.0214 33 14 33.1963 14.0107 32.071C14.032 28.106 14.0214 24.1306 14.0214 20.1656C14.0214 18.0202 15.0788 17 17.2684 17C25.781 17 34.2937 17 42.8064 17C44.9319 17 45.9893 18.0517 45.9893 20.1551C45.9893 24.1516 45.9786 28.1481 46 32.1341C46 33.2279 46 33.5 46 35C46 36.5 46 36.8563 45.9893 38.0026C45.968 41.9465 45.9786 45.8904 45.9786 49.8238C45.9786 51.9588 44.9212 53 42.7316 53C34.219 53 25.7063 53 17.1936 53C15.0788 53 14.0214 51.9483 14.0107 49.8344C14.0107 45.8379 14.0214 41.8414 14 37.8554C14 36.7511 14 37 14.0107 35ZM29.9146 51.9062C34.1869 51.9062 38.4486 51.9062 42.721 51.9062C44.3231 51.9062 44.8678 51.3593 44.8678 49.7607C44.8678 45.7432 44.8678 41.7257 44.8678 37.6976C44.8678 36.1201 44.3017 35.5416 42.721 35.5416C34.2403 35.5416 25.749 35.5416 17.2684 35.5416C15.6876 35.5416 15.1215 36.1201 15.1215 37.6976C15.1215 41.7152 15.1215 45.7327 15.1215 49.7607C15.1215 51.3593 15.6662 51.9062 17.2684 51.9062C21.4873 51.9062 25.7063 51.9062 29.9146 51.9062ZM43.1802 26.2445C43.1696 22.6266 40.1682 19.6819 36.5154 19.7029C32.8945 19.7239 29.9146 22.6582 29.8932 26.234C29.8718 29.8308 32.8732 32.7967 36.5474 32.7967C40.2323 32.7967 43.1909 29.8834 43.1802 26.2445ZM22.7049 25.014C24.0614 25.014 25.4286 25.0351 26.785 25.0035C27.9813 24.9825 28.6542 24.2989 28.6862 23.1315C28.7076 22.553 28.7183 21.9746 28.6756 21.3961C28.6115 20.397 27.9386 19.7134 26.9239 19.7029C24.1255 19.6713 21.3271 19.6713 18.5287 19.7029C17.514 19.7134 16.8625 20.397 16.8091 21.4067C16.777 21.9535 16.7877 22.511 16.7984 23.0578C16.8411 24.362 17.4713 25.0035 18.785 25.014C20.0988 25.0245 21.4019 25.014 22.7049 25.014ZM22.7049 27.5276C21.3164 27.5276 19.9279 27.5066 18.5501 27.5381C17.4927 27.5592 16.8732 28.1902 16.8198 29.2103C16.7877 29.8414 16.7877 30.4724 16.8198 31.1034C16.8732 32.1551 17.5354 32.7862 18.6248 32.7967C21.3698 32.8072 24.1148 32.8072 26.8598 32.7967C27.9599 32.7967 28.6435 32.1236 28.6969 31.0403C28.7183 30.5986 28.7076 30.1464 28.6969 29.7046C28.6969 28.1166 28.0988 27.5381 26.4646 27.5381C25.215 27.5276 23.9546 27.5276 22.7049 27.5276Z" fill="#1E62B9"/>
<path d="M21.7971 50.2866C20.4406 50.2866 19.0735 50.2656 17.717 50.2971C17.0761 50.3076 16.7877 50.0762 16.8091 49.4242C16.8411 48.5618 16.7877 47.6889 16.8411 46.8265C16.9266 45.3225 18.1229 44.1762 19.6502 44.1446C21.1135 44.1131 22.5875 44.1131 24.0508 44.1446C25.514 44.1762 26.6996 45.2384 26.8385 46.6792C26.9239 47.6468 26.8812 48.6249 26.8919 49.5925C26.8919 50.1393 26.5608 50.2971 26.0588 50.2971C24.6275 50.2761 23.207 50.2866 21.7971 50.2866Z" fill="#1E62B9"/>
<path d="M24.7236 40.1481C24.6916 41.7257 23.3885 42.9457 21.7757 42.9246C20.1736 42.9036 18.9239 41.631 18.9346 40.0324C18.9453 38.4338 20.3017 37.1613 21.9252 37.2033C23.5167 37.2559 24.7557 38.5495 24.7236 40.1481Z" fill="#1E62B9"/>
<path d="M36.6435 39.8747C38.5127 39.8747 40.3818 39.8747 42.2403 39.8747C42.6676 39.8747 43.1802 39.8326 43.1589 40.4531C43.1375 41 42.6676 40.979 42.2617 40.979C38.502 40.979 34.7423 40.979 30.9826 40.979C30.534 40.979 30.0427 40.979 30.0641 40.39C30.0855 39.8747 30.5554 39.8642 30.972 39.8747C32.8625 39.8852 34.753 39.8747 36.6435 39.8747Z" fill="#1E62B9"/>
<path d="M36.6542 46.6687C34.7637 46.6687 32.8732 46.6687 30.972 46.6687C30.5234 46.6687 30.0107 46.6582 30.0855 46.0903C30.1068 45.8799 30.6622 45.596 30.972 45.596C34.7316 45.5644 38.4913 45.5749 42.251 45.5749C42.6889 45.5749 43.1909 45.5434 43.1589 46.1639C43.1375 46.7213 42.6569 46.6687 42.251 46.6687C40.3819 46.6687 38.5234 46.6687 36.6542 46.6687Z" fill="#1E62B9"/>
<path d="M36.5688 49.5188C34.6996 49.5188 32.8304 49.5188 30.972 49.5188C30.5234 49.5188 30.0107 49.5188 30.0855 48.9404C30.1068 48.73 30.6622 48.4461 30.972 48.4461C34.7317 48.4145 38.4913 48.4251 42.251 48.4251C42.6889 48.4251 43.1803 48.404 43.1589 49.014C43.1375 49.5819 42.6462 49.5188 42.251 49.5188C40.3605 49.5188 38.47 49.5188 36.5688 49.5188Z" fill="#1E62B9"/>
<path d="M36.6329 43.8186C34.7637 43.8186 32.9052 43.8186 31.0361 43.8186C30.5981 43.8186 30.0748 43.8606 30.0641 43.2822C30.0427 42.7143 30.5554 42.7143 31.004 42.7143C34.7637 42.7143 38.5234 42.7143 42.2831 42.7143C42.6889 42.7143 43.1589 42.6827 43.1696 43.2401C43.1802 43.8501 42.6782 43.8081 42.2403 43.8081C40.3605 43.8186 38.502 43.8186 36.6329 43.8186Z" fill="#1E62B9"/>
<path d="M35.3939 27.4961C36.6008 26.2971 37.6262 25.2664 38.6622 24.2463C38.9613 23.9518 39.2924 23.5521 39.7303 24.0044C40.1148 24.404 39.7624 24.7195 39.474 24.993C38.3632 26.0868 37.2417 27.17 36.1415 28.2848C35.6716 28.7581 35.2871 28.8317 34.8171 28.3059C34.3899 27.8326 33.8879 27.433 33.4927 26.9492C33.3431 26.7704 33.4179 26.4128 33.3965 26.1288C33.6849 26.1393 34.0588 26.0447 34.2297 26.1919C34.6355 26.5495 34.9666 27.0123 35.3939 27.4961Z" fill="#1E62B9"/>
<path d="M0 4C0 1.79086 1.79086 0 4 0H56C58.2091 0 60 1.79086 60 4V9H0V4Z" fill="#1E3F69"/>
<circle cx="4.5" cy="4.5" r="1.5" fill="#FF4F59"/>
<circle cx="9.5" cy="4.5" r="1.5" fill="#FCFEFF"/>
<circle cx="14.5" cy="4.5" r="1.5" fill="#FFF507"/>
</svg>
