<svg width="60" height="60" viewBox="0 0 60 60" fill="none" xmlns="http://www.w3.org/2000/svg">
<rect width="60" height="60" rx="4" fill="#1E62B9" fill-opacity="0.1"/>
<path d="M47.2247 17C47.6391 17 47.9707 17.338 47.9767 17.7524C47.9768 17.7568 47.9768 17.7611 47.9769 17.7654C48.0033 19.4282 47.9901 21.1041 47.9901 22.8196C35.9681 22.8196 24.0253 22.8196 12.0033 22.8196C12.0033 21.1041 11.9901 19.4282 12.0165 17.7654C12.0165 17.7609 12.0165 17.7564 12.0165 17.752C12.0165 17.3366 12.3533 17 12.7687 17C13.1357 17 13.6569 17 14 17C24.7947 17.0132 35.1921 17.0132 46 17C46.3431 17 46.8633 17 47.2247 17ZM38.0268 20.1672C40.0062 20.1672 41.9857 20.1804 43.9652 20.154C44.2423 20.154 44.5062 19.9428 44.7834 19.824C44.5062 19.6789 44.2291 19.4018 43.952 19.4018C39.9666 19.3754 35.9681 19.3754 31.9828 19.4018C31.7188 19.4018 31.4417 19.6261 31.1778 19.7449C31.4549 19.89 31.7188 20.1408 31.996 20.154C34.0018 20.1804 36.0209 20.1672 38.0268 20.1672ZM16.7936 20.154C17.1499 20.154 17.5194 20.1935 17.8625 20.1408C18.0341 20.1144 18.1661 19.89 18.3244 19.7713C18.1924 19.6525 18.0737 19.4282 17.9417 19.415C17.1631 19.3754 16.3713 19.3754 15.5927 19.415C15.4608 19.415 15.2496 19.6657 15.2496 19.7977C15.2496 19.9164 15.474 20.1276 15.6191 20.1408C16.0018 20.1935 16.3977 20.154 16.7936 20.154ZM20.9505 20.3255C20.9637 20.2727 20.9901 20.2199 21.0033 20.1672C21.3332 20.1672 21.6631 20.2199 21.9798 20.154C22.2174 20.1012 22.4153 19.9032 22.6265 19.7581C22.4285 19.6393 22.2438 19.4413 22.0194 19.4018C21.7027 19.3358 21.3596 19.3358 21.0429 19.4018C20.5282 19.5073 20.0268 19.6657 19.5253 19.8109C20.0004 19.9824 20.4754 20.154 20.9505 20.3255ZM25.3713 20.1672C25.6617 20.1672 25.9784 20.2199 26.2555 20.154C26.493 20.1012 26.6778 19.89 26.8889 19.7581C26.691 19.6393 26.493 19.4282 26.2951 19.4018C25.6749 19.349 25.0414 19.349 24.4212 19.4018C24.2232 19.415 24.0253 19.6393 23.8405 19.7581C24.0253 19.89 24.1837 20.1012 24.3948 20.1408C24.6983 20.2067 25.0414 20.1672 25.3713 20.1672Z" fill="#1E62B9"/>
<path d="M12.0165 23.6378C24.0517 23.6378 35.9681 23.6378 48.0033 23.6378C48.0033 23.9941 48.0033 24.3109 48.0033 24.6276C48.0033 33.6012 48.0033 42.5748 48.0033 51.5484C48.0033 52.9076 47.9109 53 46.5385 53C35.5194 53 24.5004 53 13.4813 53C12.1089 53 12.0033 52.9076 12.0033 51.5484C12.0033 42.5748 12.0033 33.6012 12.0033 24.6276C12.0165 24.3372 12.0165 24.0469 12.0165 23.6378ZM30.386 46.956C30.6631 46.4282 30.8215 46.1906 30.9271 45.9267C33.1441 39.9883 35.3479 34.0367 37.5517 28.085C37.6441 27.8343 37.6177 27.5308 37.6573 27.2537C37.3538 27.2669 37.0238 27.2141 36.7467 27.3065C30.7951 29.5103 24.8567 31.7273 18.9183 33.9443C18.6411 34.0499 18.3904 34.2346 17.9285 34.4853C18.4432 34.7625 18.7335 34.9472 19.0502 35.0792C21.3068 36.0689 23.5766 37.0323 25.82 38.0484C26.2159 38.2331 26.6118 38.629 26.7966 39.0381C27.8259 41.2815 28.776 43.5513 29.7658 45.8079C29.8977 46.1246 30.0825 46.415 30.386 46.956ZM21.254 49.5029C22.8376 49.5029 24.4212 49.5161 26.0048 49.4897C26.2951 49.4765 26.5722 49.239 26.8494 49.107C26.5854 48.9751 26.3215 48.7375 26.0576 48.7375C22.864 48.7111 19.6705 48.7111 16.4637 48.7375C16.213 48.7375 15.9623 49.0015 15.7247 49.1466C15.9886 49.2654 16.2526 49.4765 16.5165 49.4897C18.0869 49.5161 19.6705 49.5029 21.254 49.5029ZM38.6602 49.5029C40.2702 49.5029 41.8933 49.5161 43.5033 49.4897C43.7672 49.4897 44.0312 49.2786 44.2951 49.1598C44.018 49.0147 43.7408 48.7375 43.4637 48.7375C40.3362 48.7111 37.1954 48.7111 34.0678 48.7375C33.7643 48.7375 33.474 48.9751 33.1705 49.0938C33.4476 49.2258 33.7247 49.4765 34.015 49.4897C35.559 49.5161 37.1162 49.5029 38.6602 49.5029ZM20.2379 46.5205C21.5576 46.5205 22.8772 46.5337 24.1837 46.5073C24.408 46.5073 24.6191 46.2698 24.8435 46.1378C24.6191 46.0059 24.3948 45.7683 24.1573 45.7551C21.5576 45.7287 18.9579 45.7287 16.3582 45.7551C16.1338 45.7551 15.9227 46.0191 15.6983 46.151C15.9227 46.2698 16.147 46.4941 16.3713 46.4941C17.6778 46.5337 18.9579 46.5205 20.2379 46.5205ZM39.7555 46.5205C41.0092 46.5205 42.2628 46.5469 43.5165 46.5073C43.7804 46.4941 44.0444 46.2962 44.3083 46.1774C44.0312 46.0323 43.754 45.7683 43.4769 45.7551C41.0092 45.7155 38.5282 45.7287 36.0605 45.7551C35.757 45.7551 35.4667 45.9927 35.1631 46.1246C35.4799 46.2566 35.7834 46.4941 36.1001 46.5073C37.3142 46.5469 38.5282 46.5205 39.7555 46.5205ZM18.8391 42.7595C17.9813 42.7595 17.1235 42.7331 16.279 42.7727C16.081 42.7859 15.8963 43.0235 15.7115 43.1554C15.8963 43.2742 16.0942 43.5117 16.279 43.5117C17.9549 43.5381 19.6309 43.5381 21.3068 43.5117C21.5048 43.5117 21.6895 43.2742 21.8743 43.1554C21.6763 43.0235 21.4916 42.7859 21.2936 42.7727C20.4886 42.7331 19.6705 42.7595 18.8391 42.7595ZM41.2335 43.5381C42.0517 43.5381 42.8831 43.5645 43.7013 43.5249C43.9124 43.5117 44.1104 43.3138 44.3083 43.2082C44.1367 43.0631 43.952 42.7859 43.7804 42.7859C42.0781 42.7595 40.3626 42.7595 38.6602 42.7859C38.4886 42.7859 38.3171 43.0631 38.1455 43.2214C38.3303 43.327 38.5018 43.5117 38.6866 43.5249C39.518 43.5513 40.3757 43.5381 41.2335 43.5381Z" fill="#1E62B9"/>
<path d="M36.2189 29.4443C34.2526 34.7361 32.3259 39.9091 30.3332 45.2669C29.3039 42.8783 28.3406 40.6745 27.4036 38.4575C27.3376 38.2859 27.4432 37.956 27.5752 37.8108C30.32 35.0528 33.0781 32.3079 35.8362 29.563C35.8889 29.5103 35.9681 29.5103 36.2189 29.4443Z" fill="#1E62B9"/>
<path d="M19.5913 34.4985C24.9359 32.5059 30.0957 30.5792 34.886 28.7977C32.2203 31.4633 29.3171 34.3534 26.2819 37.4018C24.3816 36.5704 22.059 35.5674 19.5913 34.4985Z" fill="#1E62B9"/>
<path d="M0 4C0 1.79086 1.79086 0 4 0H56C58.2091 0 60 1.79086 60 4V9H0V4Z" fill="#1E3F69"/>
<circle cx="4.5" cy="4.5" r="1.5" fill="#FF4F59"/>
<circle cx="9.5" cy="4.5" r="1.5" fill="#FCFEFF"/>
<circle cx="14.5" cy="4.5" r="1.5" fill="#FFF507"/>
</svg>
