<svg width="60" height="60" viewBox="0 0 60 60" fill="none" xmlns="http://www.w3.org/2000/svg">
<rect width="60" height="60" rx="4" fill="#1E62B9" fill-opacity="0.1"/>
<path d="M39.3 35.9C43.5 36.425 46.35 40.025 46.05 44C45.75 48.125 42.375 51.125 38.25 51.05C34.425 50.975 31.125 47.75 30.9 43.85C30.75 39.8 33.675 36.35 37.65 35.9C37.65 35.825 37.65 35.675 37.65 35.6C37.65 30.95 37.65 26.375 37.65 21.725C37.65 20.975 37.35 20.675 36.6 20.675C30 20.675 23.325 20.675 16.725 20.675C16.05 20.675 15.675 20.975 15.675 21.65C15.675 29.975 15.675 38.3 15.675 46.625C15.675 47.3 15.975 47.6 16.65 47.6C21 47.6 25.35 47.6 29.7 47.6C29.85 47.6 29.925 47.6 30.075 47.6C30.525 47.675 30.825 48.05 30.825 48.425C30.825 48.875 30.525 49.175 30.075 49.25C30 49.25 29.85 49.25 29.775 49.25C25.425 49.25 21.075 49.25 16.725 49.25C15.075 49.25 14.025 48.2 14.025 46.55C14.025 38.225 14.025 29.9 14.025 21.575C13.95 20 15 18.95 16.65 18.95C23.25 18.95 29.925 18.95 36.525 18.95C38.175 18.95 39.225 20 39.225 21.65C39.225 26.225 39.225 30.8 39.225 35.45C39.3 35.6 39.3 35.75 39.3 35.9ZM37.425 44.525C37.35 44.45 37.275 44.3 37.2 44.225C36.675 43.7 36.075 43.1 35.55 42.575C35.025 42.125 34.275 42.35 34.125 42.95C34.05 43.325 34.2 43.55 34.425 43.85C35.175 44.6 35.925 45.35 36.675 46.1C37.275 46.7 37.65 46.7 38.25 46.1C39.6 44.75 41.025 43.325 42.375 41.975C42.45 41.9 42.6 41.75 42.675 41.675C42.9 41.3 42.825 40.925 42.525 40.625C42.225 40.325 41.775 40.325 41.475 40.55C41.325 40.625 41.25 40.775 41.175 40.85C39.9 42.05 38.7 43.25 37.425 44.525Z" fill="#1E62B9"/>
<path d="M20.8501 27.8C20.8501 24.575 23.4001 22.025 26.6251 22.025C29.8501 22.025 32.4001 24.575 32.4751 27.8C32.4751 31.025 29.9251 33.575 26.7001 33.575C23.4751 33.575 20.8501 31.025 20.8501 27.8ZM24.3001 28.85C23.6251 27.425 23.7751 26.15 24.8251 25.25C25.8001 24.425 27.1501 24.35 28.2001 25.1C28.7251 25.475 29.0251 25.925 29.2501 26.525C29.4751 27.35 29.4001 28.1 28.9501 28.85C29.4001 29.15 29.8501 29.375 30.3001 29.675C31.2001 28.1 30.7501 25.85 29.2501 24.65C27.6751 23.375 25.3501 23.45 23.8501 24.875C22.2001 26.45 22.4251 28.7 23.0251 29.675C23.4001 29.375 23.8501 29.15 24.3001 28.85ZM29.1751 31.025C27.8251 29.75 25.2001 29.9 24.1501 31.025C25.5751 32.225 27.6751 32.225 29.1751 31.025ZM26.6251 28.4C27.2251 28.4 27.6751 27.95 27.6751 27.35C27.6751 26.75 27.2251 26.3 26.6251 26.3C26.0251 26.3 25.5751 26.75 25.5751 27.35C25.5751 27.95 26.0251 28.4 26.6251 28.4Z" fill="#1E62B9"/>
<path d="M25.7999 34.7C28.2749 34.7 30.7499 34.7 33.2249 34.7C33.4499 34.7 33.6749 34.7 33.8249 34.85C34.1249 35 34.2749 35.375 34.1999 35.75C34.1249 36.125 33.8249 36.35 33.4499 36.425C33.3749 36.425 33.2249 36.425 33.1499 36.425C28.2749 36.425 23.3249 36.425 18.4499 36.425C18.3749 36.425 18.2249 36.425 18.1499 36.425C17.6999 36.35 17.3999 35.975 17.3999 35.6C17.3999 35.15 17.7749 34.85 18.1499 34.775C18.2999 34.775 18.3749 34.775 18.5249 34.775C20.9249 34.7 23.3249 34.7 25.7999 34.7Z" fill="#1E62B9"/>
<path d="M24.0749 39.8C22.1249 39.8 20.1749 39.8 18.2249 39.8C17.5499 39.8 17.0999 39.2 17.3999 38.675C17.5499 38.3 17.8499 38.15 18.2249 38.15C18.9749 38.15 19.7249 38.15 20.4749 38.15C23.5499 38.15 26.6999 38.15 29.7749 38.15C29.9999 38.15 30.2249 38.15 30.3749 38.3C30.6749 38.45 30.8999 38.9 30.7499 39.2C30.7499 39.5 30.3749 39.725 29.9999 39.8C29.2499 39.8 28.5749 39.8 27.8249 39.8C26.5499 39.8 25.3499 39.8 24.0749 39.8Z" fill="#1E62B9"/>
<path d="M22.5001 43.85C23.1001 43.475 23.6251 43.25 24.3001 43.25C25.2751 43.25 26.1751 44.075 26.3251 45.05C26.4001 45.425 26.1001 45.875 25.7251 45.95C25.3501 46.1 24.9001 45.875 24.7501 45.5C24.6751 45.425 24.6751 45.275 24.6001 45.2C24.4501 44.9 24.2251 44.825 23.9251 44.975C23.7001 45.125 23.4751 45.2 23.2501 45.35C22.2001 45.95 21.3001 45.575 20.8501 44.45C20.7751 44.15 20.6251 43.775 20.5501 43.4C20.2501 43.55 19.9501 43.625 19.8001 43.85C19.5001 44.15 19.2001 44.525 18.9751 44.9C18.6751 45.35 18.2251 45.575 17.7751 45.275C17.3251 45.05 17.2501 44.525 17.5501 44.075C18.0751 43.25 18.6751 42.5 19.5751 42.05C19.8001 41.975 20.0251 41.9 20.3251 41.825C21.1501 41.675 21.8251 42.05 22.1251 42.8C22.2751 43.1 22.3501 43.4 22.5001 43.85Z" fill="#1E62B9"/>
<path d="M0 4C0 1.79086 1.79086 0 4 0H56C58.2091 0 60 1.79086 60 4V9H0V4Z" fill="#1E3F69"/>
<circle cx="4.5" cy="4.5" r="1.5" fill="#FF4F59"/>
<circle cx="9.5" cy="4.5" r="1.5" fill="#FCFEFF"/>
<circle cx="14.5" cy="4.5" r="1.5" fill="#FFF507"/>
</svg>
