<svg width="60" height="60" viewBox="0 0 60 60" fill="none" xmlns="http://www.w3.org/2000/svg">
<rect width="60" height="60" rx="4" fill="#1E62B9" fill-opacity="0.1"/>
<path fill-rule="evenodd" clip-rule="evenodd" d="M11.2 16C10.5373 16 10 16.5373 10 17.2V51C10 52.1046 10.8954 53 12 53H48C49.1046 53 50 52.1046 50 51V41.6154V18C50 16.8954 49.1046 16 48 16H11.2ZM18 25.9763L18 25.9763V26.2608C18.0094 26.2869 18.0203 26.3122 18.0313 26.3375C18.0531 26.3881 18.075 26.4386 18.0844 26.4956C18.2203 27.3492 18.3594 28.2028 18.4985 29.0563L18.4985 29.0565C18.7767 30.7636 19.0548 32.4707 19.3079 34.1778C19.5048 35.5151 20.5667 36.1553 21.5582 36.134C23.0949 36.1035 24.628 36.1093 26.1627 36.1151L26.1635 36.1151C26.7775 36.1174 27.3917 36.1197 28.0064 36.1197H28.2526C28.9558 30.9342 34.6657 28.3663 38.8708 31.2187C39.0962 29.8388 39.3196 28.4588 39.5432 27.0777L39.5433 27.0769L39.5439 27.0733L39.5443 27.0706L39.5446 27.0688C39.732 25.9113 39.9195 24.7531 40.1084 23.5934H42V22H38.7653C38.6009 23.0365 38.4323 24.0687 38.2627 25.1066L38.2627 25.1067L38.1184 25.9905H37.9074H18.211C18.1406 25.9905 18.0703 25.9834 18 25.9763ZM35.0454 31.6597C37.9567 31.6669 40.2913 34.0498 40.2772 36.9947C40.2631 39.9182 37.9004 42.2798 35.0033 42.2656C32.1202 42.2513 29.7785 39.8684 29.7926 36.9591C29.8067 34.0213 32.1553 31.6455 35.0454 31.6597ZM35.0103 39.6977L38.4137 36.2549C38.0832 35.9135 37.7246 35.5436 37.359 35.1666C36.5995 35.9419 35.826 36.7244 35.0384 37.521C34.6392 37.1172 34.2436 36.7153 33.8535 36.3188C33.4739 35.9331 33.0995 35.5526 32.7319 35.1808C32.3593 35.5649 31.9937 35.9347 31.6421 36.2903L31.6421 36.2904L31.642 36.2905C32.3938 37.0462 33.1519 37.8147 33.9016 38.5747L33.9028 38.5758C34.2746 38.9527 34.6444 39.3275 35.0103 39.6977ZM19.6525 40.6509H29.23C29.0619 40.2912 28.897 39.9315 28.7331 39.5741C28.6572 39.4085 28.5815 39.2433 28.5057 39.0788H19.6525V40.6509ZM19.6384 44.1363C19.6384 43.1049 20.4611 42.2656 21.4737 42.2656C22.4863 42.2656 23.3161 43.1049 23.3231 44.1292C23.3302 45.1535 22.5004 46 21.4808 46C20.4682 46 19.6384 45.1678 19.6384 44.1363ZM36.726 43.6526C35.5587 43.9443 34.3844 43.9372 33.203 43.61C32.9639 44.364 33.2522 45.182 33.8921 45.6514C34.5391 46.1209 35.4181 46.1138 36.058 45.6372C36.6768 45.1749 36.951 44.3568 36.726 43.6526Z" fill="#1E62B9"/>
<path d="M0 4C0 1.79086 1.79086 0 4 0H56C58.2091 0 60 1.79086 60 4V9H0V4Z" fill="#1E3F69"/>
<circle cx="4.5" cy="4.5" r="1.5" fill="#FF4F59"/>
<circle cx="9.5" cy="4.5" r="1.5" fill="#FCFEFF"/>
<circle cx="14.5" cy="4.5" r="1.5" fill="#FFF507"/>
</svg>
