<svg width="60" height="60" viewBox="0 0 60 60" fill="none" xmlns="http://www.w3.org/2000/svg">
<rect width="60" height="60" rx="4" fill="#1E62B9" fill-opacity="0.1"/>
<path d="M12.0066 22.1898C24.0353 22.1898 35.9835 22.1898 48.0021 22.1898C48.0021 22.4912 48.0021 22.7525 48.0021 23.0238C48.0021 32.3694 48.0021 41.7049 48.0021 51.0505C48.0021 52.6885 47.7007 53 46.0828 53C35.3605 53 24.6382 53 13.9059 53C12.3282 53 12.0066 52.6784 12.0066 51.1108C12.0066 41.7451 12.0066 32.3794 12.0066 23.0037C12.0066 22.7525 12.0066 22.5113 12.0066 22.1898ZM21.3421 44.6493C21.6737 44.6493 21.9451 44.6493 22.2264 44.6493C26.8188 44.6493 31.4213 44.6493 36.0137 44.6493C37.1894 44.6493 37.7622 44.2473 38.1441 43.1319C39.2193 40.0569 40.2945 36.9919 41.3597 33.9169C41.9325 32.2689 41.1186 31.1434 39.37 31.1334C39.0284 31.1334 38.6867 31.1334 38.3651 31.1334C37.6919 26.6013 34.4862 23.5564 30.2857 23.4258C28.286 23.3655 26.4671 23.9483 24.8894 25.1844C22.9801 26.6817 21.935 28.6714 21.6737 31.0932C20.91 31.0932 20.1965 31.0932 19.4529 31.0932C19.4027 30.8118 19.3524 30.5706 19.3122 30.3295C19.1414 29.3145 18.5284 28.6714 17.5335 28.591C16.7899 28.5307 16.0262 28.5206 15.2826 28.591C15.0313 28.6211 14.6796 28.9527 14.6193 29.204C14.5188 29.6562 14.8706 29.8672 15.3228 29.8672C15.8755 29.8672 16.4282 29.9074 16.9808 29.8571C17.7647 29.7868 18.0159 30.1586 18.1164 30.8922C18.7796 35.8464 19.4931 40.7804 20.1463 45.7346C20.297 46.8902 20.8095 47.6338 21.9551 47.8851C21.4527 49.3422 21.6637 50.3873 22.5982 51.1409C23.4625 51.8444 24.598 51.9248 25.5527 51.352C26.658 50.6887 26.9495 49.6939 26.5776 47.8851C28.8789 47.8851 31.16 47.8851 33.4612 47.8851C33.0894 49.6235 33.3507 50.5782 34.3556 51.2716C35.2399 51.8745 36.3654 51.9047 37.2497 51.2716C38.4455 50.4174 38.5862 49.2417 38.1139 47.9353C38.1843 47.8951 38.2345 47.865 38.2747 47.865C38.7168 47.865 39.0284 47.664 39.0083 47.2017C38.9882 46.6792 38.6164 46.5887 38.1541 46.5887C33.2301 46.5988 28.3061 46.5887 23.3821 46.5887C21.5029 46.5887 21.5029 46.5887 21.3421 44.6493Z" fill="#1E62B9"/>
<path d="M12.0066 20.7929C12.0066 19.9589 11.9865 19.155 12.0166 18.351C12.0468 17.4768 12.499 17.0447 13.3933 17.0045C13.5642 16.9944 13.745 17.0045 13.9159 17.0045C24.6382 17.0045 35.3504 17.0045 46.0727 17.0045C47.7006 17.0045 48.0021 17.3059 48.0021 18.9339C48.0021 19.5368 48.0021 20.1398 48.0021 20.7829C36.0237 20.7929 24.0654 20.7929 12.0066 20.7929ZM44.2136 18.2706C43.5906 18.2706 42.9675 18.2706 42.3345 18.2706C41.9024 18.2706 41.6009 18.4415 41.5908 18.9138C41.5808 19.4062 41.9024 19.567 42.3244 19.577C43.5202 19.5871 44.7261 19.5871 45.922 19.577C46.3742 19.577 46.7862 19.3861 46.6756 18.8937C46.6153 18.6425 46.2134 18.341 45.922 18.3008C45.3793 18.2003 44.7864 18.2706 44.2136 18.2706ZM14.2776 19.5871C14.77 19.5871 15.2222 19.4966 15.2021 18.8937C15.182 18.2807 14.6896 18.2706 14.2173 18.2606C13.7249 18.2606 13.2727 18.341 13.2928 18.9439C13.3129 19.5569 13.8053 19.5871 14.2776 19.5871ZM17.6642 18.1199C17.011 18.2405 16.5387 18.2907 16.5186 18.9037C16.4985 19.5167 16.9808 19.5971 17.4632 19.5871C17.9355 19.577 18.4781 19.5368 18.3776 18.9138C18.3274 18.6123 17.9154 18.3812 17.6642 18.1199ZM20.5784 19.5871C21.1713 19.5871 21.6436 19.5268 21.6235 18.9037C21.6034 18.3309 21.1813 18.2706 20.709 18.2706C20.2367 18.2807 19.7543 18.2706 19.7443 18.9138C19.7242 19.5569 20.2166 19.577 20.5784 19.5871Z" fill="#1E62B9"/>
<path d="M30.0043 24.7322C33.9335 24.7422 37.0889 27.8976 37.0788 31.8167C37.0688 35.6755 33.8933 38.8611 30.0345 38.8711C26.1053 38.8811 22.9097 35.6755 22.9198 31.7363C22.9399 27.8674 26.1354 24.7121 30.0043 24.7322ZM30.6374 34.0777C30.6374 33.6356 30.6374 33.3944 30.6374 33.1532C30.6374 31.5454 30.6374 29.9476 30.6374 28.3397C30.6374 27.8674 30.7077 27.3047 29.9943 27.3147C29.2707 27.3348 29.3913 27.9076 29.3813 28.3699C29.3712 28.8723 29.3813 29.3748 29.3813 29.8772C29.3813 31.2138 29.3813 32.5603 29.3813 33.8968C29.3109 33.9471 29.2305 33.9973 29.1602 34.0476C28.9894 33.8165 28.8286 33.5652 28.6276 33.3542C28.3362 33.0326 27.9242 32.8919 27.6729 33.2738C27.5222 33.4949 27.5624 34.0174 27.7332 34.2285C28.2558 34.8615 28.8487 35.4544 29.4818 35.977C29.6928 36.1478 30.2555 36.2081 30.4465 36.0574C31.1599 35.4645 31.8031 34.7912 32.406 34.0878C32.5367 33.937 32.4764 33.4547 32.3156 33.2638C32.205 33.1231 31.7528 33.1331 31.5418 33.2437C31.2403 33.4044 31.0293 33.7059 30.6374 34.0777Z" fill="#1E62B9"/>
<path d="M38.345 32.4397C38.7872 32.4397 39.1891 32.4397 39.5911 32.4397C40.2242 32.4498 40.395 32.8216 40.2141 33.3442C39.1188 36.5196 38.0033 39.675 36.898 42.8505C36.7271 43.3329 36.3553 43.363 35.9333 43.363C33.4712 43.353 31.0092 43.363 28.5472 43.363C26.1154 43.363 23.6735 43.363 21.1311 43.363C20.6286 39.7454 20.1262 36.1277 19.6237 32.4799C20.3171 32.4799 20.9803 32.4799 21.6436 32.4799C22.3671 37.9968 26.8389 40.3081 30.3661 40.1574C34.4761 39.9765 37.7923 36.8613 38.345 32.4397Z" fill="#1E62B9"/>
<path d="M25.4924 49.1412C25.4924 49.8647 24.9296 50.4174 24.2061 50.4174C23.4926 50.4074 22.9198 49.8245 22.9399 49.111C22.96 48.4478 23.5328 47.865 24.2061 47.8549C24.8894 47.8449 25.4823 48.4378 25.4924 49.1412Z" fill="#1E62B9"/>
<path d="M37.0788 49.1211C37.0989 49.8245 36.5261 50.4174 35.8026 50.4275C35.0992 50.4375 34.5465 49.925 34.5163 49.2316C34.4761 48.5181 35.0288 47.9052 35.7323 47.875C36.4357 47.8348 37.0587 48.4177 37.0788 49.1211Z" fill="#1E62B9"/>
<path d="M0 4C0 1.79086 1.79086 0 4 0H56C58.2091 0 60 1.79086 60 4V9H0V4Z" fill="#1E3F69"/>
<circle cx="4.5" cy="4.5" r="1.5" fill="#FF4F59"/>
<circle cx="9.5" cy="4.5" r="1.5" fill="#FCFEFF"/>
<circle cx="14.5" cy="4.5" r="1.5" fill="#FFF507"/>
</svg>
