<svg width="201" height="41" viewBox="0 0 201 41" fill="none" xmlns="http://www.w3.org/2000/svg">
<circle cx="20.5" cy="20.5" r="20.5" fill="white"/>
<g clip-path="url(#clip0_2220_3129)">
<rect x="0.819824" y="0.822266" width="39.36" height="39.36" rx="19.68" fill="#33C6F4"/>
<path d="M19.9751 8.80789C20.1335 8.84667 29.9463 8.80789 29.9463 8.80789C29.9463 8.80789 29.2702 8.08649 28.4235 8.17182C28.4601 7.35734 27.8449 7.2022 27.5647 7.22547C26.9251 7.27202 26.7302 7.56678 26.7302 7.56678C26.7302 7.56678 26.7485 6.6437 25.8957 6.59716C25.0429 6.55062 24.8663 7.18669 24.8663 7.18669C24.8663 7.18669 24.0866 6.78333 23.6968 7.18669C23.307 7.59005 23.4105 7.90809 23.4105 7.90809C23.4105 7.90809 22.2654 7.78397 21.8938 8.00117C21.638 8.14855 19.9751 8.80789 19.9751 8.80789Z" fill="white" fill-opacity="0.9"/>
<path d="M19.188 17.0825C19.263 17.1008 23.9112 17.0825 23.9112 17.0825C23.9112 17.0825 23.5909 16.743 23.1899 16.7832C23.2072 16.3999 22.9158 16.3269 22.783 16.3378C22.4801 16.3597 22.3878 16.4985 22.3878 16.4985C22.3878 16.4985 22.3964 16.0641 21.9925 16.0422C21.5885 16.0203 21.5049 16.3196 21.5049 16.3196C21.5049 16.3196 21.1356 16.1298 20.9509 16.3196C20.7662 16.5094 20.8153 16.6591 20.8153 16.6591C20.8153 16.6591 20.2729 16.6007 20.0969 16.7029C19.9757 16.7722 19.188 17.0825 19.188 17.0825Z" fill="white" fill-opacity="0.75"/>
<path d="M30.4712 15.5113C30.517 15.5227 33.3576 15.5113 33.3576 15.5113C33.3576 15.5113 33.1619 15.2991 32.9168 15.3242C32.9274 15.0847 32.7493 15.039 32.6682 15.0459C32.483 15.0596 32.4266 15.1462 32.4266 15.1462C32.4266 15.1462 32.4319 14.8748 32.185 14.8611C31.9382 14.8474 31.8871 15.0345 31.8871 15.0345C31.8871 15.0345 31.6614 14.9158 31.5485 15.0345C31.4357 15.1531 31.4657 15.2466 31.4657 15.2466C31.4657 15.2466 31.1342 15.2101 31.0266 15.274C30.9526 15.3174 30.4712 15.5113 30.4712 15.5113Z" fill="white" fill-opacity="0.65"/>
<path d="M12.4966 19.4492C12.5258 19.456 14.3334 19.4492 14.3334 19.4492C14.3334 19.4492 14.2088 19.3218 14.0529 19.3369C14.0596 19.1932 13.9463 19.1658 13.8947 19.1699C13.7768 19.1781 13.7409 19.2301 13.7409 19.2301C13.7409 19.2301 13.7443 19.0672 13.5872 19.059C13.4301 19.0508 13.3976 19.1631 13.3976 19.1631C13.3976 19.1631 13.254 19.0919 13.1822 19.1631C13.1103 19.2342 13.1294 19.2904 13.1294 19.2904C13.1294 19.2904 12.9185 19.2685 12.85 19.3068C12.8029 19.3328 12.4966 19.4492 12.4966 19.4492Z" fill="white" fill-opacity="0.6"/>
<path d="M15.9077 24.4362C15.9286 24.4407 17.2197 24.4362 17.2197 24.4362C17.2197 24.4362 17.1308 24.3513 17.0193 24.3613C17.0242 24.2655 16.9432 24.2472 16.9063 24.25C16.8222 24.2555 16.7965 24.2901 16.7965 24.2901C16.7965 24.2901 16.7989 24.1815 16.6867 24.1761C16.5745 24.1706 16.5513 24.2454 16.5513 24.2454C16.5513 24.2454 16.4487 24.198 16.3974 24.2454C16.3461 24.2929 16.3597 24.3303 16.3597 24.3303C16.3597 24.3303 16.2091 24.3157 16.1602 24.3412C16.1265 24.3586 15.9077 24.4362 15.9077 24.4362Z" fill="white" fill-opacity="0.5"/>
<path d="M12.3717 7.51367C12.4938 7.52131 12.4938 7.52131 12.616 7.57474C12.6321 7.61307 12.6482 7.6514 12.6648 7.69089C12.7659 7.86747 12.8684 7.89456 13.0564 7.96813C13.1229 7.99462 13.1893 8.0211 13.2578 8.04839C13.3659 8.09 13.3659 8.09 13.4762 8.13246C13.5889 8.17705 13.7017 8.22164 13.8144 8.26623C13.9725 8.32849 14.1309 8.38996 14.2892 8.45146C14.5277 8.54426 14.7657 8.63819 15.0038 8.73199C15.1892 8.805 15.3746 8.87776 15.5602 8.95009C15.627 8.97619 15.6939 9.00229 15.7627 9.02918C15.8215 9.05204 15.8802 9.0749 15.9408 9.09845C16.0781 9.1548 16.2095 9.21612 16.3411 9.28464C16.1705 9.39837 16.0202 9.46807 15.8307 9.54397C15.7639 9.57086 15.6971 9.59774 15.6282 9.62545C15.52 9.66858 15.52 9.66858 15.4096 9.71259C15.3356 9.74224 15.2616 9.77188 15.1853 9.80243C15.0289 9.86509 14.8724 9.92759 14.7158 9.98999C14.5149 10.0701 14.3142 10.1505 14.1135 10.2311C13.9222 10.3078 13.7308 10.3842 13.5394 10.4607C13.4671 10.4897 13.3949 10.5187 13.3204 10.5486C13.2538 10.5751 13.1871 10.6016 13.1185 10.6289C13.0302 10.6641 13.0302 10.6641 12.9401 10.7001C12.7992 10.7503 12.7992 10.7503 12.677 10.7503C12.677 11.3548 12.677 11.9594 12.677 12.5823C12.536 12.5823 12.3949 12.5823 12.2496 12.5823C12.2467 11.9395 12.2446 11.2966 12.2432 10.6538C12.2426 10.3553 12.2417 10.0569 12.2404 9.75839C12.239 9.47053 12.2383 9.18267 12.238 8.89481C12.2378 8.7848 12.2373 8.6748 12.2367 8.56479C12.2358 8.4111 12.2356 8.25743 12.2357 8.10375C12.2353 8.05793 12.2348 8.01212 12.2344 7.96491C12.2356 7.64974 12.2356 7.64974 12.3717 7.51367Z" fill="#F1333E"/>
<path d="M12.3717 7.51367C12.4977 7.52894 12.4977 7.52894 12.616 7.57474C12.7091 7.76101 12.685 7.95492 12.684 8.15921C12.684 8.20688 12.684 8.25454 12.684 8.30366C12.684 8.4616 12.6835 8.61954 12.683 8.77749C12.6829 8.88685 12.6828 8.9962 12.6827 9.10556C12.6825 9.3937 12.6819 9.68183 12.6812 9.96996C12.6806 10.2639 12.6803 10.5578 12.68 10.8516C12.6794 11.4285 12.6783 12.0054 12.677 12.5823C12.536 12.5823 12.3949 12.5823 12.2496 12.5823C12.2467 11.9395 12.2446 11.2966 12.2432 10.6538C12.2426 10.3553 12.2417 10.0569 12.2404 9.75839C12.239 9.47053 12.2383 9.18267 12.238 8.89481C12.2378 8.7848 12.2373 8.6748 12.2367 8.56479C12.2358 8.4111 12.2356 8.25743 12.2357 8.10375C12.2353 8.05793 12.2348 8.01212 12.2344 7.96491C12.2356 7.64974 12.2356 7.64974 12.3717 7.51367Z" fill="#1B447E"/>
<path d="M12.4326 7.5752C12.4931 7.5752 12.5535 7.5752 12.6158 7.5752C12.6158 9.20754 12.6158 10.8399 12.6158 12.5217C12.5554 12.5217 12.4949 12.5217 12.4326 12.5217C12.4326 10.8893 12.4326 9.257 12.4326 7.5752Z" fill="#1B447E"/>
<path d="M9.29981 19.9316C8.98956 20.0449 8.78341 20.2358 8.55417 20.448C8.49346 20.5032 8.49346 20.5032 8.43151 20.5595C8.3023 20.6771 8.17364 20.7952 8.04504 20.9133C7.45829 21.4508 6.87294 21.9789 6.21984 22.452C5.46507 23.0487 5.04993 23.8568 4.58567 24.6443C4.3348 25.0696 4.07211 25.4885 3.80771 25.907C3.76534 25.9749 3.72297 26.0427 3.67932 26.1127C3.49779 26.403 3.31469 26.6913 3.11871 26.9739C3.0731 27.041 3.0731 27.041 3.02657 27.1094C2.94922 27.2224 2.54399 27.8528 2.46447 27.9645C2.21026 28.5363 2.71533 28.6174 2.88157 29.1928C2.90281 29.2672 2.92405 29.3416 2.94593 29.4182C3.77736 32.2221 5.35329 34.8065 7.54712 36.9299C7.64043 37.0267 7.73339 37.1238 7.82596 37.2213C8.39621 37.8076 9.02053 38.3111 9.69815 38.7947C9.78359 38.8574 9.86896 38.9201 9.95427 38.9829C13.5008 41.5726 17.9826 42.9404 22.5346 42.9142C22.616 42.914 22.6973 42.9138 22.7811 42.9136C24.0993 42.9084 21.1288 43.2414 22.4222 42.994C22.5051 42.9782 22.588 42.9625 22.6734 42.9462C25.1909 42.4519 27.7336 41.5636 29.8313 40.1968C29.8794 40.1656 29.9275 40.1343 29.9771 40.1022C31.4962 39.111 32.894 38.0165 34.0537 36.6824C34.1037 36.6287 34.1537 36.5749 34.2053 36.5196C35.0523 35.6043 35.7444 34.5765 36.3641 33.5266C36.404 33.4599 36.404 33.4599 36.4448 33.3919C37.0791 32.3274 37.5764 31.194 37.9674 30.0391C37.9843 29.9903 38.0012 29.9415 38.0186 29.8913C38.1747 29.4035 38.0375 29.0786 37.7732 28.645C37.3431 27.9669 36.6575 27.662 35.9124 27.3062C35.5954 27.1505 35.3005 26.9676 35.0016 26.7855C34.9517 26.7616 34.9018 26.7376 34.8504 26.7129C34.7715 26.7484 34.7715 26.7484 34.691 26.7847C34.6427 26.9656 34.6043 27.1418 34.5709 27.3251C34.5605 27.3791 34.5502 27.4332 34.5395 27.4888C34.5063 27.6619 34.4742 27.8352 34.4421 28.0084C34.4198 28.1256 34.3975 28.2427 34.3752 28.3599C34.3204 28.6476 34.2665 28.9354 34.213 29.2232C33.8101 28.9533 33.4119 28.6789 33.018 28.3984C32.921 28.3301 32.824 28.2619 32.727 28.1936C32.569 28.0821 32.4144 27.969 32.2609 27.8524C32.1797 27.792 32.1797 27.792 32.0969 27.7305C32.0524 27.696 32.0079 27.6615 31.9621 27.626C31.823 27.5736 31.823 27.5736 31.645 27.6081C31.3374 27.7602 31.0805 27.9538 30.8122 28.1564C30.6991 28.2405 30.5859 28.3247 30.4727 28.4088C30.4178 28.4498 30.3629 28.4908 30.3064 28.5331C30.0967 28.689 29.8847 28.842 29.672 28.9946C29.6095 29.0395 29.5471 29.0843 29.4828 29.1305C29.44 29.1611 29.3973 29.1917 29.3533 29.2232C29.2846 28.8354 29.2516 28.4524 29.231 28.0603C29.2259 27.9682 29.2259 27.9682 29.2206 27.8743C29.2098 27.6799 29.1994 27.4856 29.189 27.2912C29.1817 27.1587 29.1744 27.0263 29.167 26.8938C29.1492 26.5705 29.1317 26.2473 29.1143 25.924C28.7222 26.1812 28.3531 26.4458 27.9989 26.7443C27.7329 26.967 27.4666 27.1888 27.1923 27.4033C27.1429 27.4422 27.0935 27.4811 27.0426 27.5212C26.925 27.613 26.7198 27.6276 26.6006 27.7179C25.7787 28.3555 25.3792 29.2244 24.8309 30.0548C24.5804 30.4332 24.3238 30.8081 24.0653 31.1821C23.6442 31.792 23.228 32.4046 22.8151 33.019C22.5052 33.4792 22.1873 33.9343 21.8645 34.3873C21.8645 34.4091 25.7697 33.5499 25.6224 33.3087C25.5746 33.2308 25.5268 33.1529 25.4775 33.0726C25.4398 33.0107 25.4398 33.0107 25.4013 32.9476C25.2672 32.7278 25.1323 32.5084 24.9975 32.2889C24.9702 32.2445 24.9429 32.2 24.9148 32.1542C24.6655 31.7483 24.4122 31.3444 24.1579 30.9411C23.7825 30.3451 23.4114 29.7472 23.0425 29.148C22.6736 28.5488 22.3025 27.9509 21.9272 27.3549C21.6051 26.8434 21.2851 26.331 20.9686 25.8167C20.8673 25.6526 20.7653 25.4889 20.6627 25.3255C20.4147 24.9293 20.1797 24.5337 19.9691 24.1201C19.3042 22.8611 18.416 22.2607 17.118 21.5722C16.8321 21.4184 16.5581 21.2525 16.2853 21.0807C16.1513 21.0075 16.1513 21.0075 15.9919 21.0075C15.9121 21.4299 15.8327 21.8523 15.7536 22.2748C15.7267 22.4185 15.6997 22.5621 15.6725 22.7058C15.6334 22.9124 15.5948 23.1191 15.5562 23.3259C15.544 23.3899 15.5318 23.4539 15.5193 23.5199C15.4657 23.8089 15.4177 24.0842 15.4342 24.3784C14.9526 24.0344 14.4886 23.6808 14.04 23.3026C12.8336 22.2876 12.8336 22.2876 12.3272 22.0833C12.2713 22.1293 12.2155 22.1752 12.1579 22.2226C11.6224 22.6621 11.0824 23.0956 10.5319 23.5197C10.4564 23.5779 10.4564 23.5779 10.3795 23.6372C10.2785 23.7149 10.1774 23.7926 10.0763 23.8702C9.8921 24.0119 9.71022 24.1524 9.53882 24.3067C9.41635 22.1193 9.41635 22.1193 9.29981 19.9316Z" fill="#1B447E"/>
<path d="M12.566 12.3291C12.2933 12.3717 12.2596 12.3855 12.0868 12.6014C12.0263 12.6954 11.9671 12.7899 11.9088 12.885C11.8753 12.9377 11.8419 12.9905 11.8074 13.0449C11.6871 13.2359 11.5687 13.4279 11.4507 13.6201C11.4029 13.6977 11.3551 13.7752 11.3059 13.8551C11.0906 14.205 10.8758 14.5552 10.6619 14.9058C10.3296 15.4505 9.99399 15.9934 9.65316 16.5338C9.27934 17.1267 8.90988 17.7217 8.54279 18.3179C8.17205 18.92 7.79928 19.521 7.42246 20.12C7.36074 20.2183 7.36074 20.2183 7.29777 20.3185C7.09141 20.6471 6.88461 20.9754 6.67695 21.3033C6.54665 21.5093 6.41699 21.7157 6.28719 21.922C6.238 21.9993 6.1888 22.0767 6.13811 22.1564C6.09313 22.2281 6.04816 22.2998 6.00182 22.3736C5.96169 22.4371 5.92155 22.5006 5.8802 22.566C5.79425 22.7289 5.79425 22.7289 5.79425 22.944C5.90393 22.844 5.90393 22.844 6.01583 22.742C6.11457 22.6525 6.21333 22.5629 6.31209 22.4734C6.35995 22.4297 6.4078 22.386 6.45711 22.341C6.70208 22.1193 6.95011 21.9055 7.21396 21.7021C7.62173 21.3853 7.99564 21.0389 8.3735 20.6937C8.51501 20.5645 8.65671 20.4354 8.7986 20.3066C8.86046 20.25 8.92232 20.1935 8.98606 20.1353C9.13012 19.9993 9.13012 19.9993 9.29964 19.9317C9.29779 20.0063 9.29594 20.0809 9.29404 20.1578C9.27217 21.5663 9.37539 22.9726 9.45897 24.3785C9.89516 24.0963 10.2919 23.7945 10.6789 23.4595C11.5091 22.7149 11.5091 22.7149 12.4864 22.1551C12.566 22.2215 12.566 22.2215 12.6472 22.2893C13.0207 22.5982 13.3952 22.9002 13.7909 23.1861C14.1913 23.4758 14.5664 23.7854 14.937 24.1053C15.2579 24.3785 15.2579 24.3785 15.4341 24.3785C15.514 23.9677 15.5934 23.5567 15.6723 23.1458C15.6992 23.006 15.7263 22.8664 15.7535 22.7267C15.7926 22.5256 15.8312 22.3244 15.8697 22.1232C15.8819 22.061 15.8941 21.9989 15.9067 21.935C15.9662 21.6217 16.0059 21.3268 15.9917 21.0075C16.6776 21.3946 17.3465 21.8009 18.0125 22.2149C18.1237 22.2836 18.1237 22.2836 18.2371 22.3537C18.3363 22.4154 18.3363 22.4154 18.4376 22.4783C18.6011 22.5739 18.7633 22.6544 18.9395 22.7289C18.8243 22.4531 18.6835 22.2008 18.5249 21.9433C18.4999 21.9025 18.4749 21.8617 18.4491 21.8197C18.3671 21.6864 18.2848 21.5531 18.2025 21.4199C18.1448 21.3262 18.0872 21.2326 18.0295 21.1389C17.5315 20.3301 17.0298 19.5231 16.5269 18.7167C16.2951 18.3449 16.0638 17.9728 15.8324 17.6007C15.5546 17.1541 15.2768 16.7074 14.9987 16.261C14.3601 15.2355 13.7248 14.2085 13.0913 13.1805C12.9163 12.8967 12.7412 12.6129 12.566 12.3291Z" fill="#F0F0F1"/>
<path d="M31.823 20.043C31.4916 20.1424 31.4242 20.3439 31.2703 20.6078C31.006 21.0454 30.7275 21.4705 30.4288 21.8898C30.0259 22.457 29.6354 23.0305 29.2487 23.6067C28.772 24.3166 28.2888 25.0223 27.7987 25.7248C27.2727 26.4799 26.7588 27.2416 26.2462 28.0042C26.5784 28.0042 26.66 27.8801 26.8985 27.6769C26.9778 27.6102 27.0572 27.5435 27.1366 27.4769C27.2108 27.4142 27.2851 27.3515 27.3616 27.2869C27.7465 26.9755 28.142 26.6752 28.5373 26.3744C28.5852 26.338 28.6331 26.3015 28.6825 26.2639C28.7999 26.1746 28.9172 26.0853 29.0346 25.9959C29.039 26.0755 29.0434 26.1551 29.048 26.237C29.0645 26.5343 29.0814 26.8316 29.0983 27.1289C29.1056 27.2571 29.1128 27.3854 29.1199 27.5137C29.1301 27.6988 29.1407 27.884 29.1513 28.0692C29.1559 28.1542 29.1559 28.1542 29.1606 28.2409C29.1813 28.5952 29.2205 28.9435 29.2736 29.2952C29.6275 29.0594 29.9768 28.8194 30.3225 28.574C30.42 28.5048 30.5177 28.4358 30.6155 28.367C30.8216 28.2219 31.0258 28.0763 31.2258 27.9243C31.2799 27.8841 31.334 27.8439 31.3898 27.8025C31.4565 27.7507 31.4565 27.7507 31.5245 27.6979C31.6665 27.6307 31.6665 27.6307 31.8388 27.6775C32.1648 27.8404 32.4359 28.0518 32.7192 28.2686C32.8398 28.3596 32.9605 28.4504 33.0812 28.5412C33.1388 28.5848 33.1965 28.6283 33.2559 28.6731C33.5424 28.8874 33.8365 29.0927 34.1333 29.2952C34.1859 29.2715 34.2385 29.2478 34.2927 29.2235C34.341 29.0425 34.3795 28.8663 34.4128 28.683C34.4232 28.629 34.4336 28.575 34.4443 28.5193C34.4774 28.3462 34.5095 28.1729 34.5416 27.9997C34.5639 27.8825 34.5862 27.7654 34.6086 27.6482C34.6633 27.3606 34.7172 27.0728 34.7707 26.7849C35.3626 27.0693 35.934 27.371 36.4974 27.6985C36.9053 27.9324 36.9053 27.9324 37.0811 27.9324C36.9773 27.6851 36.8573 27.4613 36.7076 27.234C36.6655 27.1699 36.6234 27.1058 36.5801 27.0398C36.5351 26.9719 36.4901 26.9041 36.4437 26.8342C36.3969 26.7633 36.3501 26.6924 36.3019 26.6194C35.9781 26.1306 35.6471 25.6464 35.31 25.165C35.0306 24.7654 34.7565 24.363 34.4819 23.9608C34.4011 23.8425 34.4011 23.8425 34.3186 23.7217C34.064 23.349 33.8095 22.9761 33.5552 22.6032C33.4695 22.4776 33.3838 22.3521 33.2981 22.2265C33.1912 22.0699 33.0843 21.9132 32.9775 21.7565C32.6896 21.3347 32.3975 20.9158 32.099 20.5C31.9966 20.3507 31.9067 20.2014 31.823 20.043Z" fill="#EFF0F0"/>
<path d="M12.6457 12.5449C12.5616 12.772 12.5681 12.8363 12.6231 13.0613C12.6378 13.1228 12.6526 13.1843 12.6677 13.2477C12.6845 13.3151 12.7013 13.3824 12.7186 13.4518C12.7358 13.5231 12.753 13.5943 12.7708 13.6677C12.8285 13.9055 12.8871 14.1432 12.9457 14.3809C12.9866 14.5488 13.0275 14.7168 13.0683 14.8848C13.1769 15.331 13.2863 15.7771 13.3958 16.2231C13.5035 16.6621 13.6105 17.1013 13.7175 17.5404C13.9072 18.3186 14.0976 19.0967 14.2883 19.8748C14.4995 20.737 14.7102 21.5993 14.9209 22.4616C15.0134 22.8402 15.1059 23.2187 15.1984 23.5973C15.2504 23.8101 15.3024 24.0229 15.3544 24.2357C15.5437 23.98 15.5809 23.7466 15.6339 23.4498C15.6442 23.3938 15.6546 23.3379 15.6653 23.2802C15.6872 23.1618 15.7087 23.0433 15.73 22.9248C15.7625 22.7443 15.796 22.564 15.8296 22.3837C15.8507 22.2684 15.8718 22.1531 15.8928 22.0378C15.9027 21.9842 15.9127 21.9306 15.9229 21.8754C15.9749 21.5833 16.002 21.304 15.9917 21.0082C16.6776 21.3953 17.3465 21.8016 18.0125 22.2156C18.1237 22.2843 18.1237 22.2843 18.2371 22.3544C18.3363 22.4161 18.3363 22.4161 18.4376 22.479C18.6011 22.5746 18.7633 22.655 18.9395 22.7295C18.8243 22.4538 18.6835 22.2015 18.5249 21.9439C18.4999 21.9032 18.4749 21.8624 18.4491 21.8204C18.3671 21.687 18.2848 21.5538 18.2025 21.4206C18.1448 21.3269 18.0872 21.2332 18.0295 21.1395C17.5315 20.3307 17.0298 19.5237 16.5269 18.7174C16.2951 18.3456 16.0638 17.9734 15.8324 17.6014C15.5546 17.1547 15.2768 16.7081 14.9987 16.2616C14.9065 16.1135 14.8143 15.9654 14.722 15.8173C14.6768 15.7447 14.6316 15.6721 14.585 15.5972C14.3337 15.1933 14.0835 14.7889 13.8348 14.3837C13.7804 14.2951 13.726 14.2066 13.6716 14.118C13.5676 13.9489 13.464 13.7797 13.3605 13.6104C13.1362 13.2453 12.9126 12.8863 12.6457 12.5449Z" fill="#FEFEFE"/>
<path d="M12.3275 12.4014C12.12 12.5703 11.9952 12.7468 11.8604 12.9667C11.7947 13.0732 11.7947 13.0732 11.7276 13.1818C11.6807 13.2586 11.6339 13.3353 11.5856 13.4144C11.4846 13.5783 11.3837 13.7421 11.2828 13.9059C11.2307 13.9906 11.1787 14.0753 11.1267 14.16C10.8911 14.5429 10.6532 14.9245 10.4154 15.3061C10.3225 15.4555 10.2295 15.605 10.1366 15.7544C10.0906 15.8284 10.0446 15.9023 9.99718 15.9785C8.46358 18.444 8.46358 18.444 8.32408 18.6683C8.23141 18.8172 8.13873 18.9662 8.04602 19.1151C7.80924 19.4956 7.57282 19.8763 7.33702 20.2572C7.24119 20.4119 7.14534 20.5665 7.04947 20.7212C7.00351 20.7954 6.95754 20.8697 6.91019 20.9462C6.69855 21.2868 6.48459 21.6255 6.26182 21.9604C6.2239 22.0174 6.18598 22.0743 6.14691 22.1331C6.07672 22.2378 6.00596 22.3423 5.93451 22.4463C5.85665 22.5621 5.78508 22.6813 5.71503 22.8011C5.74132 22.8485 5.76762 22.8958 5.7947 22.9446C5.90438 22.8446 5.90438 22.8446 6.01628 22.7426C6.11502 22.653 6.21378 22.5634 6.31254 22.4739C6.3604 22.4302 6.40826 22.3865 6.45756 22.3415C6.70253 22.1198 6.95056 21.9061 7.21441 21.7026C7.62218 21.3858 7.99609 21.0394 8.37395 20.6943C8.51547 20.5651 8.65716 20.436 8.79905 20.3071C8.86091 20.2506 8.92278 20.194 8.98651 20.1358C9.13058 19.9998 9.13058 19.9998 9.30009 19.9322C9.29824 20.0068 9.29639 20.0815 9.29449 20.1583C9.27262 21.5668 9.37585 22.9731 9.45942 24.379C9.65553 24.2025 9.64429 24.0859 9.67201 23.8457C9.72917 23.4478 9.83646 23.0571 9.93166 22.6654C9.95576 22.5653 9.97985 22.4652 10.0039 22.3652C10.069 22.0947 10.1345 21.8242 10.2 21.5538C10.2687 21.27 10.3371 20.9861 10.4055 20.7021C10.5351 20.1644 10.6651 19.6267 10.7951 19.089C10.9426 18.4793 11.0897 17.8695 11.2368 17.2597C11.4539 16.3595 11.6712 15.4594 11.8888 14.5593C11.9122 14.4623 11.9357 14.3653 11.9591 14.2683C11.9913 14.1351 12.0235 14.0018 12.0557 13.8686C12.0751 13.7887 12.0944 13.7087 12.1142 13.6264C12.1625 13.4285 12.2123 13.2311 12.2624 13.0336C12.3155 12.8105 12.3437 12.6276 12.3275 12.4014Z" fill="#D8D7D6"/>
<path d="M31.9823 20.3301C31.9059 20.5488 31.9031 20.6909 31.9635 20.9128C31.979 20.9712 31.9945 21.0296 32.0105 21.0897C32.0282 21.1532 32.0459 21.2166 32.0641 21.282C32.0822 21.3493 32.1003 21.4167 32.119 21.4861C32.1793 21.7093 32.2406 21.9323 32.3019 22.1554C32.3442 22.3112 32.3864 22.4671 32.4286 22.623C32.54 23.0345 32.6524 23.4458 32.7649 23.8571C32.8782 24.2714 32.9906 24.6859 33.1031 25.1003C33.2301 25.5683 33.3572 26.0363 33.485 26.5041C33.5045 26.5756 33.524 26.6471 33.5441 26.7208C33.5819 26.8594 33.6198 26.9979 33.6578 27.1365C33.744 27.4527 33.8284 27.7691 33.908 28.0867C33.9295 28.1721 33.9295 28.1721 33.9515 28.2592C33.9779 28.3645 34.0038 28.4698 34.0291 28.5753C34.1157 28.9209 34.1157 28.9209 34.2927 29.0802C34.4504 28.3228 34.6082 27.5654 34.7707 26.7851C35.3632 27.0761 35.9328 27.3705 36.4974 27.6987C36.9053 27.9327 36.9053 27.9327 37.0811 27.9327C36.9773 27.6853 36.8573 27.4616 36.7076 27.2342C36.6655 27.1701 36.6234 27.106 36.5801 27.04C36.5351 26.9721 36.4901 26.9043 36.4437 26.8344C36.3969 26.7635 36.3501 26.6926 36.3019 26.6196C35.9781 26.1308 35.6471 25.6466 35.31 25.1652C35.0306 24.7657 34.7565 24.3632 34.4819 23.961C34.4011 23.8427 34.4011 23.8427 34.3186 23.722C34.064 23.3492 33.8095 22.9763 33.5552 22.6034C33.4695 22.4778 33.3838 22.3523 33.2981 22.2268C33.1912 22.0701 33.0843 21.9134 32.9775 21.7567C32.6508 21.2782 32.3188 20.803 31.9823 20.3301Z" fill="#FDFEFE"/>
<path d="M31.8232 20.043C31.4918 20.1424 31.4244 20.3439 31.2705 20.6078C31.0062 21.0454 30.7277 21.4705 30.429 21.8898C30.0261 22.457 29.6356 23.0305 29.2489 23.6067C28.7722 24.3166 28.289 25.0223 27.7989 25.7248C27.2728 26.4799 26.759 27.2416 26.2464 28.0042C26.5786 28.0042 26.6602 27.8801 26.8987 27.6769C26.978 27.6102 27.0574 27.5435 27.1368 27.4769C27.211 27.4142 27.2853 27.3515 27.3618 27.2869C27.7467 26.9755 28.1422 26.6752 28.5375 26.3744C28.5854 26.338 28.6333 26.3015 28.6827 26.2639C28.8 26.1746 28.9174 26.0853 29.0348 25.9959C29.0392 26.0755 29.0436 26.1551 29.0482 26.237C29.0647 26.5343 29.0815 26.8316 29.0985 27.1289C29.1058 27.2571 29.1129 27.3854 29.12 27.5137C29.1303 27.6988 29.1409 27.884 29.1515 28.0692C29.1561 28.1542 29.1561 28.1542 29.1608 28.2409C29.1815 28.5952 29.2207 28.9435 29.2738 29.2952C29.4608 29.1268 29.4612 29.0706 29.4985 28.8406C29.5708 28.4517 29.6646 28.0702 29.7664 27.6868C29.7831 27.6239 29.7998 27.561 29.817 27.4962C29.8712 27.2925 29.9257 27.0888 29.9802 26.8852C30.0185 26.7413 30.0569 26.5974 30.0951 26.4535C30.1957 26.0759 30.2964 25.6984 30.3973 25.3209C30.519 24.8653 30.6403 24.4096 30.7617 23.9539C30.8564 23.5987 30.9511 23.2435 31.0459 22.8883C31.1301 22.5731 31.2139 22.2578 31.2976 21.9426C31.3452 21.7643 31.3932 21.5861 31.4414 21.408C31.471 21.2976 31.5005 21.1871 31.5301 21.0767C31.5437 21.0268 31.5573 20.977 31.5714 20.9256C31.6332 20.6929 31.6638 20.4996 31.6638 20.2581C31.7427 20.2345 31.8216 20.2108 31.9028 20.1864C31.8765 20.1391 31.8503 20.0917 31.8232 20.043Z" fill="#D7D6D5"/>
<path d="M21.8198 29.9697L23.8344 29.2046L34.7142 46.2428L32.9118 47.3904L21.8198 29.9697Z" fill="url(#paint0_linear_2220_3129)"/>
</g>
<rect x="1.31982" y="1.32227" width="38.36" height="38.36" rx="19.18" stroke="#0F214A"/>
<path d="M51.2912 18V4.90909H59.8054V6.89702H53.6626V10.451H59.3643V12.4389H53.6626V16.0121H59.8565V18H51.2912ZM69.8825 10.777L67.7731 11.0071C67.7134 10.794 67.609 10.5938 67.4599 10.4062C67.315 10.2188 67.119 10.0675 66.8718 9.95241C66.6246 9.83736 66.3221 9.77983 65.9641 9.77983C65.4826 9.77983 65.0778 9.88423 64.7496 10.093C64.4258 10.3018 64.266 10.5724 64.2702 10.9048C64.266 11.1903 64.3704 11.4226 64.5835 11.6016C64.8008 11.7805 65.1587 11.9276 65.6573 12.0426L67.332 12.4006C68.261 12.6009 68.9513 12.9183 69.4031 13.353C69.859 13.7876 70.0891 14.3565 70.0934 15.0597C70.0891 15.6776 69.908 16.223 69.5501 16.696C69.1964 17.1648 68.7042 17.5312 68.0735 17.7955C67.4428 18.0597 66.7184 18.1918 65.9002 18.1918C64.6985 18.1918 63.7312 17.9403 62.9982 17.4375C62.2653 16.9304 61.8285 16.2251 61.6879 15.3217L63.9442 15.1044C64.0465 15.5476 64.2638 15.8821 64.5962 16.108C64.9286 16.3338 65.3612 16.4467 65.8938 16.4467C66.4435 16.4467 66.8846 16.3338 67.217 16.108C67.5536 15.8821 67.7219 15.603 67.7219 15.2706C67.7219 14.9893 67.6133 14.7571 67.396 14.5739C67.1829 14.3906 66.8505 14.25 66.3988 14.152L64.7241 13.8004C63.7823 13.6044 63.0856 13.2741 62.6339 12.8097C62.1822 12.3409 61.9585 11.7486 61.9627 11.0327C61.9585 10.4276 62.1225 9.90341 62.4549 9.46023C62.7915 9.01278 63.2582 8.66761 63.8548 8.42472C64.4556 8.17756 65.1481 8.05398 65.9322 8.05398C67.0827 8.05398 67.9883 8.29901 68.6488 8.78906C69.3136 9.27912 69.7248 9.94176 69.8825 10.777ZM79.7614 10.777L77.652 11.0071C77.5923 10.794 77.4879 10.5938 77.3388 10.4062C77.1939 10.2188 76.9979 10.0675 76.7507 9.95241C76.5036 9.83736 76.201 9.77983 75.843 9.77983C75.3615 9.77983 74.9567 9.88423 74.6286 10.093C74.3047 10.3018 74.1449 10.5724 74.1491 10.9048C74.1449 11.1903 74.2493 11.4226 74.4624 11.6016C74.6797 11.7805 75.0376 11.9276 75.5362 12.0426L77.2109 12.4006C78.1399 12.6009 78.8303 12.9183 79.282 13.353C79.7379 13.7876 79.968 14.3565 79.9723 15.0597C79.968 15.6776 79.7869 16.223 79.429 16.696C79.0753 17.1648 78.5831 17.5312 77.9524 17.7955C77.3217 18.0597 76.5973 18.1918 75.7791 18.1918C74.5774 18.1918 73.6101 17.9403 72.8771 17.4375C72.1442 16.9304 71.7074 16.2251 71.5668 15.3217L73.8232 15.1044C73.9254 15.5476 74.1428 15.8821 74.4751 16.108C74.8075 16.3338 75.2401 16.4467 75.7727 16.4467C76.3224 16.4467 76.7635 16.3338 77.0959 16.108C77.4325 15.8821 77.6009 15.603 77.6009 15.2706C77.6009 14.9893 77.4922 14.7571 77.2749 14.5739C77.0618 14.3906 76.7294 14.25 76.2777 14.152L74.603 13.8004C73.6612 13.6044 72.9645 13.2741 72.5128 12.8097C72.0611 12.3409 71.8374 11.7486 71.8416 11.0327C71.8374 10.4276 72.0014 9.90341 72.3338 9.46023C72.6705 9.01278 73.1371 8.66761 73.7337 8.42472C74.3345 8.17756 75.027 8.05398 75.8111 8.05398C76.9616 8.05398 77.8672 8.29901 78.5277 8.78906C79.1925 9.27912 79.6037 9.94176 79.7614 10.777ZM86.2269 18.1918C85.2425 18.1918 84.3924 17.9872 83.6765 17.5781C82.9648 17.1648 82.4173 16.581 82.0337 15.8267C81.6502 15.0682 81.4585 14.1754 81.4585 13.1484C81.4585 12.1385 81.6502 11.2521 82.0337 10.4893C82.4215 9.7223 82.9627 9.12571 83.6573 8.69957C84.3519 8.26918 85.168 8.05398 86.1055 8.05398C86.7106 8.05398 87.2816 8.15199 87.8185 8.34801C88.3597 8.53977 88.837 8.83807 89.2504 9.2429C89.668 9.64773 89.9961 10.1634 90.2347 10.7898C90.4734 11.4119 90.5927 12.1534 90.5927 13.0142V13.7237H82.5451V12.1641H88.3746C88.3704 11.7209 88.2745 11.3267 88.087 10.9815C87.8995 10.6321 87.6374 10.3572 87.3008 10.157C86.9684 9.95668 86.5806 9.85653 86.1374 9.85653C85.6644 9.85653 85.2489 9.97159 84.891 10.2017C84.533 10.4276 84.2539 10.7259 84.0536 11.0966C83.8576 11.4631 83.7575 11.8658 83.7532 12.3047V13.6662C83.7532 14.2372 83.8576 14.7273 84.0664 15.1364C84.2752 15.5412 84.5671 15.8523 84.9421 16.0696C85.3171 16.2827 85.756 16.3892 86.2589 16.3892C86.5955 16.3892 86.9002 16.3423 87.1729 16.2486C87.4457 16.1506 87.6822 16.0078 87.8825 15.8203C88.0827 15.6328 88.234 15.4006 88.3363 15.1236L90.4968 15.3665C90.3604 15.9375 90.1005 16.4361 89.717 16.8622C89.3377 17.2841 88.8519 17.6122 88.2596 17.8466C87.6673 18.0767 86.9897 18.1918 86.2269 18.1918ZM94.8642 12.2472V18H92.5502V8.18182H94.7619V9.85014H94.877C95.1028 9.30043 95.4629 8.86364 95.9572 8.53977C96.4558 8.21591 97.0716 8.05398 97.8045 8.05398C98.4821 8.05398 99.0723 8.19886 99.5751 8.48864C100.082 8.77841 100.474 9.19815 100.751 9.74787C101.032 10.2976 101.171 10.9645 101.167 11.7486V18H98.8528V12.1065C98.8528 11.4503 98.6824 10.9368 98.3414 10.5661C98.0048 10.1953 97.5382 10.0099 96.9416 10.0099C96.5368 10.0099 96.1767 10.0994 95.8613 10.2784C95.5502 10.4531 95.3052 10.7067 95.1262 11.0391C94.9515 11.3714 94.8642 11.7741 94.8642 12.2472ZM108.422 8.18182V9.97159H102.778V8.18182H108.422ZM104.171 5.82955H106.485V15.0469C106.485 15.358 106.532 15.5966 106.626 15.7628C106.724 15.9247 106.851 16.0355 107.009 16.0952C107.167 16.1548 107.341 16.1847 107.533 16.1847C107.678 16.1847 107.81 16.174 107.93 16.1527C108.053 16.1314 108.147 16.1122 108.211 16.0952L108.601 17.9041C108.477 17.9467 108.3 17.9936 108.07 18.0447C107.844 18.0959 107.567 18.1257 107.239 18.1342C106.66 18.1513 106.138 18.0639 105.673 17.8722C105.209 17.6761 104.84 17.3736 104.567 16.9645C104.299 16.5554 104.167 16.044 104.171 15.4304V5.82955ZM110.357 18V8.18182H112.671V18H110.357ZM111.52 6.78835C111.154 6.78835 110.838 6.6669 110.574 6.42401C110.31 6.17685 110.178 5.88068 110.178 5.53551C110.178 5.18608 110.31 4.88991 110.574 4.64702C110.838 4.39986 111.154 4.27628 111.52 4.27628C111.891 4.27628 112.206 4.39986 112.466 4.64702C112.73 4.88991 112.863 5.18608 112.863 5.53551C112.863 5.88068 112.73 6.17685 112.466 6.42401C112.206 6.6669 111.891 6.78835 111.52 6.78835ZM117.876 18.1982C117.253 18.1982 116.693 18.0874 116.194 17.8658C115.7 17.6399 115.308 17.3075 115.018 16.8686C114.733 16.4297 114.59 15.8885 114.59 15.245C114.59 14.6911 114.692 14.233 114.897 13.8707C115.101 13.5085 115.381 13.2188 115.734 13.0014C116.088 12.7841 116.486 12.62 116.93 12.5092C117.377 12.3942 117.839 12.3111 118.317 12.2599C118.892 12.2003 119.358 12.147 119.716 12.1001C120.074 12.049 120.334 11.9723 120.496 11.87C120.662 11.7635 120.746 11.5994 120.746 11.3778V11.3395C120.746 10.858 120.603 10.4851 120.317 10.2209C120.032 9.95668 119.621 9.82457 119.084 9.82457C118.517 9.82457 118.067 9.94815 117.735 10.1953C117.407 10.4425 117.185 10.7344 117.07 11.071L114.91 10.7642C115.08 10.1676 115.361 9.66903 115.753 9.26847C116.145 8.86364 116.625 8.56108 117.192 8.3608C117.758 8.15625 118.385 8.05398 119.071 8.05398C119.544 8.05398 120.015 8.10938 120.483 8.22017C120.952 8.33097 121.381 8.5142 121.768 8.76989C122.156 9.02131 122.467 9.36435 122.702 9.79901C122.94 10.2337 123.059 10.777 123.059 11.429V18H120.835V16.6513H120.758C120.618 16.924 120.42 17.1797 120.164 17.4183C119.912 17.6527 119.595 17.8423 119.211 17.9872C118.832 18.1278 118.387 18.1982 117.876 18.1982ZM118.476 16.4979C118.941 16.4979 119.344 16.4062 119.684 16.223C120.025 16.0355 120.287 15.7884 120.471 15.4815C120.658 15.1747 120.752 14.8402 120.752 14.478V13.321C120.68 13.3807 120.556 13.4361 120.381 13.4872C120.211 13.5384 120.019 13.5831 119.806 13.6214C119.593 13.6598 119.382 13.6939 119.173 13.7237C118.964 13.7536 118.783 13.7791 118.63 13.8004C118.285 13.8473 117.976 13.924 117.703 14.0305C117.43 14.1371 117.215 14.2862 117.057 14.478C116.9 14.6655 116.821 14.9084 116.821 15.2067C116.821 15.6328 116.976 15.9545 117.287 16.1719C117.599 16.3892 117.995 16.4979 118.476 16.4979ZM127.7 4.90909V18H125.386V4.90909H127.7ZM136.328 18H133.797L138.405 4.90909H141.333L145.948 18H143.417L139.92 7.59375H139.818L136.328 18ZM136.411 12.8672H143.314V14.772H136.411V12.8672ZM150.914 18.1726C150.143 18.1726 149.453 17.9744 148.843 17.5781C148.234 17.1818 147.752 16.6065 147.399 15.8523C147.045 15.098 146.868 14.1818 146.868 13.1037C146.868 12.0128 147.047 11.0923 147.405 10.3423C147.767 9.58807 148.255 9.01918 148.869 8.63565C149.483 8.24787 150.167 8.05398 150.921 8.05398C151.496 8.05398 151.969 8.15199 152.34 8.34801C152.711 8.53977 153.005 8.77202 153.222 9.04474C153.439 9.31321 153.608 9.56676 153.727 9.8054H153.823V4.90909H156.143V18H153.868V16.4531H153.727C153.608 16.6918 153.435 16.9453 153.209 17.2138C152.983 17.478 152.685 17.7038 152.314 17.8913C151.944 18.0788 151.477 18.1726 150.914 18.1726ZM151.56 16.2741C152.05 16.2741 152.468 16.142 152.813 15.8778C153.158 15.6094 153.42 15.2365 153.599 14.7592C153.778 14.282 153.868 13.7259 153.868 13.0909C153.868 12.456 153.778 11.9041 153.599 11.4354C153.424 10.9666 153.164 10.6023 152.819 10.3423C152.478 10.0824 152.059 9.95241 151.56 9.95241C151.044 9.95241 150.614 10.0866 150.269 10.3551C149.924 10.6236 149.664 10.9943 149.489 11.4673C149.314 11.9403 149.227 12.4815 149.227 13.0909C149.227 13.7045 149.314 14.2521 149.489 14.7337C149.668 15.2109 149.93 15.5881 150.275 15.8651C150.625 16.1378 151.053 16.2741 151.56 16.2741ZM162.252 18.1726C161.481 18.1726 160.791 17.9744 160.181 17.5781C159.572 17.1818 159.09 16.6065 158.737 15.8523C158.383 15.098 158.206 14.1818 158.206 13.1037C158.206 12.0128 158.385 11.0923 158.743 10.3423C159.105 9.58807 159.593 9.01918 160.207 8.63565C160.82 8.24787 161.504 8.05398 162.259 8.05398C162.834 8.05398 163.307 8.15199 163.678 8.34801C164.048 8.53977 164.343 8.77202 164.56 9.04474C164.777 9.31321 164.945 9.56676 165.065 9.8054H165.161V4.90909H167.481V18H165.205V16.4531H165.065C164.945 16.6918 164.773 16.9453 164.547 17.2138C164.321 17.478 164.023 17.7038 163.652 17.8913C163.281 18.0788 162.815 18.1726 162.252 18.1726ZM162.898 16.2741C163.388 16.2741 163.806 16.142 164.151 15.8778C164.496 15.6094 164.758 15.2365 164.937 14.7592C165.116 14.282 165.205 13.7259 165.205 13.0909C165.205 12.456 165.116 11.9041 164.937 11.4354C164.762 10.9666 164.502 10.6023 164.157 10.3423C163.816 10.0824 163.396 9.95241 162.898 9.95241C162.382 9.95241 161.952 10.0866 161.607 10.3551C161.262 10.6236 161.002 10.9943 160.827 11.4673C160.652 11.9403 160.565 12.4815 160.565 13.0909C160.565 13.7045 160.652 14.2521 160.827 14.7337C161.006 15.2109 161.268 15.5881 161.613 15.8651C161.963 16.1378 162.391 16.2741 162.898 16.2741ZM174.229 18.1918C173.271 18.1918 172.44 17.9808 171.737 17.5589C171.033 17.1371 170.488 16.5469 170.1 15.7884C169.717 15.0298 169.525 14.1435 169.525 13.1293C169.525 12.1151 169.717 11.2266 170.1 10.4638C170.488 9.70099 171.033 9.10866 171.737 8.68679C172.44 8.26491 173.271 8.05398 174.229 8.05398C175.188 8.05398 176.019 8.26491 176.722 8.68679C177.425 9.10866 177.969 9.70099 178.352 10.4638C178.74 11.2266 178.934 12.1151 178.934 13.1293C178.934 14.1435 178.74 15.0298 178.352 15.7884C177.969 16.5469 177.425 17.1371 176.722 17.5589C176.019 17.9808 175.188 18.1918 174.229 18.1918ZM174.242 16.3381C174.762 16.3381 175.197 16.1953 175.546 15.9098C175.896 15.62 176.156 15.2322 176.326 14.7464C176.501 14.2607 176.588 13.7195 176.588 13.1229C176.588 12.522 176.501 11.9787 176.326 11.4929C176.156 11.0028 175.896 10.6129 175.546 10.3232C175.197 10.0334 174.762 9.88849 174.242 9.88849C173.71 9.88849 173.266 10.0334 172.913 10.3232C172.563 10.6129 172.301 11.0028 172.126 11.4929C171.956 11.9787 171.871 12.522 171.871 13.1229C171.871 13.7195 171.956 14.2607 172.126 14.7464C172.301 15.2322 172.563 15.62 172.913 15.9098C173.266 16.1953 173.71 16.3381 174.242 16.3381ZM183.212 12.2472V18H180.898V8.18182H183.11V9.85014H183.225C183.45 9.30043 183.811 8.86364 184.305 8.53977C184.803 8.21591 185.419 8.05398 186.152 8.05398C186.83 8.05398 187.42 8.19886 187.923 8.48864C188.43 8.77841 188.822 9.19815 189.099 9.74787C189.38 10.2976 189.519 10.9645 189.514 11.7486V18H187.2V12.1065C187.2 11.4503 187.03 10.9368 186.689 10.5661C186.352 10.1953 185.886 10.0099 185.289 10.0099C184.884 10.0099 184.524 10.0994 184.209 10.2784C183.898 10.4531 183.653 10.7067 183.474 11.0391C183.299 11.3714 183.212 11.7741 183.212 12.2472ZM199.627 10.777L197.517 11.0071C197.458 10.794 197.353 10.5938 197.204 10.4062C197.059 10.2188 196.863 10.0675 196.616 9.95241C196.369 9.83736 196.066 9.77983 195.708 9.77983C195.227 9.77983 194.822 9.88423 194.494 10.093C194.17 10.3018 194.01 10.5724 194.014 10.9048C194.01 11.1903 194.115 11.4226 194.328 11.6016C194.545 11.7805 194.903 11.9276 195.401 12.0426L197.076 12.4006C198.005 12.6009 198.695 12.9183 199.147 13.353C199.603 13.7876 199.833 14.3565 199.838 15.0597C199.833 15.6776 199.652 16.223 199.294 16.696C198.941 17.1648 198.448 17.5312 197.818 17.7955C197.187 18.0597 196.463 18.1918 195.644 18.1918C194.443 18.1918 193.475 17.9403 192.742 17.4375C192.009 16.9304 191.573 16.2251 191.432 15.3217L193.688 15.1044C193.791 15.5476 194.008 15.8821 194.34 16.108C194.673 16.3338 195.105 16.4467 195.638 16.4467C196.188 16.4467 196.629 16.3338 196.961 16.108C197.298 15.8821 197.466 15.603 197.466 15.2706C197.466 14.9893 197.357 14.7571 197.14 14.5739C196.927 14.3906 196.595 14.25 196.143 14.152L194.468 13.8004C193.526 13.6044 192.83 13.2741 192.378 12.8097C191.926 12.3409 191.703 11.7486 191.707 11.0327C191.703 10.4276 191.867 9.90341 192.199 9.46023C192.536 9.01278 193.002 8.66761 193.599 8.42472C194.2 8.17756 194.892 8.05398 195.676 8.05398C196.827 8.05398 197.732 8.29901 198.393 8.78906C199.058 9.27912 199.469 9.94176 199.627 10.777Z" fill="black"/>
<path d="M55.8409 28.2727L55.6591 29.4091H50.9545L51.1364 28.2727H55.8409ZM51.0909 37L52.75 27.0682C52.8258 26.5682 53.0076 26.1515 53.2955 25.8182C53.5871 25.4848 53.9337 25.2348 54.3352 25.0682C54.7405 24.9015 55.1515 24.8182 55.5682 24.8182C55.8977 24.8182 56.161 24.8447 56.358 24.8977C56.5587 24.9508 56.7045 25 56.7955 25.0455L56.2273 26.2045C56.1591 26.1818 56.0682 26.1534 55.9545 26.1193C55.8447 26.0852 55.6932 26.0682 55.5 26.0682C55.0568 26.0682 54.7197 26.1799 54.4886 26.4034C54.2576 26.6269 54.1023 26.9545 54.0227 27.3864L52.4318 37H51.0909ZM59.5085 37.1818C58.7055 37.1818 58.0331 36.9905 57.4915 36.608C56.9498 36.2254 56.5672 35.6894 56.3438 35C56.1241 34.3106 56.0881 33.5076 56.2358 32.5909C56.3797 31.697 56.6657 30.9186 57.0938 30.2557C57.5256 29.589 58.0616 29.0739 58.7017 28.7102C59.3456 28.3428 60.054 28.1591 60.8267 28.1591C61.6297 28.1591 62.3002 28.3523 62.8381 28.7386C63.3797 29.1212 63.7623 29.6591 63.9858 30.3523C64.2093 31.0417 64.2472 31.8485 64.0994 32.7727C63.9555 33.6591 63.6657 34.4337 63.2301 35.0966C62.7983 35.7557 62.2623 36.2689 61.6222 36.6364C60.9858 37 60.2813 37.1818 59.5085 37.1818ZM59.5312 35.9773C60.1449 35.9773 60.6771 35.8201 61.1278 35.5057C61.5824 35.1913 61.9498 34.7765 62.2301 34.2614C62.5142 33.7462 62.7055 33.1894 62.804 32.5909C62.8949 32.0227 62.8911 31.4943 62.7926 31.0057C62.6941 30.5133 62.4839 30.1174 62.1619 29.8182C61.84 29.5152 61.3873 29.3636 60.804 29.3636C60.1903 29.3636 59.6544 29.5227 59.196 29.8409C58.7415 30.1591 58.3741 30.5777 58.0938 31.0966C57.8134 31.6155 57.6259 32.1742 57.5312 32.7727C57.4403 33.3409 57.4422 33.8693 57.5369 34.358C57.6354 34.8428 57.8456 35.2348 58.1676 35.5341C58.4934 35.8295 58.9479 35.9773 59.5312 35.9773ZM65.4531 37L66.9077 28.2727H68.2031L67.9759 29.5909H68.0668C68.294 29.1591 68.6406 28.8087 69.1065 28.5398C69.5724 28.2708 70.0668 28.1364 70.5895 28.1364C70.6918 28.1364 70.8149 28.1383 70.9588 28.142C71.1027 28.142 71.2145 28.1477 71.294 28.1591L71.0668 29.5227C71.0213 29.5114 70.919 29.4943 70.7599 29.4716C70.6009 29.4451 70.4304 29.4318 70.2486 29.4318C69.8243 29.4318 69.4323 29.5208 69.0724 29.6989C68.7126 29.8731 68.4115 30.1155 68.169 30.4261C67.9266 30.733 67.7713 31.0833 67.7031 31.4773L66.794 37H65.4531ZM86.8011 29H85.4148C85.3996 28.5947 85.3163 28.2386 85.1648 27.9318C85.0133 27.625 84.8087 27.3674 84.5511 27.1591C84.2973 26.947 84.0057 26.7879 83.6761 26.6818C83.3466 26.5758 82.9943 26.5227 82.6193 26.5227C81.8996 26.5227 81.2178 26.7064 80.5739 27.0739C79.9299 27.4375 79.3788 27.9735 78.9205 28.6818C78.4621 29.3864 78.1496 30.25 77.983 31.2727C77.8163 32.2652 77.8409 33.1004 78.0568 33.7784C78.2727 34.4564 78.6307 34.9697 79.1307 35.3182C79.6307 35.6667 80.2254 35.8409 80.9148 35.8409C81.3125 35.8409 81.7027 35.7879 82.0852 35.6818C82.4716 35.5758 82.8314 35.4186 83.1648 35.2102C83.5019 34.9981 83.8011 34.7386 84.0625 34.4318C84.3277 34.1212 84.536 33.7652 84.6875 33.3636H86.0966C85.8883 33.9583 85.6061 34.4905 85.25 34.9602C84.8977 35.4299 84.4905 35.8295 84.0284 36.1591C83.5663 36.4848 83.0682 36.733 82.5341 36.9034C82 37.0739 81.4451 37.1591 80.8693 37.1591C79.8617 37.1591 79.0038 36.9129 78.2955 36.4205C77.5909 35.9242 77.0871 35.2235 76.7841 34.3182C76.4848 33.4091 76.4375 32.3333 76.642 31.0909C76.8466 29.8788 77.2386 28.8333 77.8182 27.9545C78.3977 27.072 79.108 26.3939 79.9489 25.9205C80.7898 25.4432 81.7027 25.2045 82.6875 25.2045C83.2784 25.2045 83.822 25.2898 84.3182 25.4602C84.8144 25.6307 85.2462 25.8807 85.6136 26.2102C85.9811 26.536 86.267 26.9337 86.4716 27.4034C86.6799 27.8693 86.7898 28.4015 86.8011 29ZM91.1804 37.1818C90.3774 37.1818 89.705 36.9905 89.1634 36.608C88.6217 36.2254 88.2391 35.6894 88.0156 35C87.7959 34.3106 87.7599 33.5076 87.9077 32.5909C88.0516 31.697 88.3376 30.9186 88.7656 30.2557C89.1974 29.589 89.7334 29.0739 90.3736 28.7102C91.0175 28.3428 91.7259 28.1591 92.4986 28.1591C93.3016 28.1591 93.9721 28.3523 94.5099 28.7386C95.0516 29.1212 95.4342 29.6591 95.6577 30.3523C95.8812 31.0417 95.919 31.8485 95.7713 32.7727C95.6274 33.6591 95.3376 34.4337 94.902 35.0966C94.4702 35.7557 93.9342 36.2689 93.294 36.6364C92.6577 37 91.9531 37.1818 91.1804 37.1818ZM91.2031 35.9773C91.8168 35.9773 92.349 35.8201 92.7997 35.5057C93.2543 35.1913 93.6217 34.7765 93.902 34.2614C94.1861 33.7462 94.3774 33.1894 94.4759 32.5909C94.5668 32.0227 94.563 31.4943 94.4645 31.0057C94.366 30.5133 94.1558 30.1174 93.8338 29.8182C93.5118 29.5152 93.0592 29.3636 92.4759 29.3636C91.8622 29.3636 91.3262 29.5227 90.8679 29.8409C90.4134 30.1591 90.0459 30.5777 89.7656 31.0966C89.4853 31.6155 89.2978 32.1742 89.2031 32.7727C89.1122 33.3409 89.1141 33.8693 89.2088 34.358C89.3073 34.8428 89.5175 35.2348 89.8395 35.5341C90.1652 35.8295 90.6198 35.9773 91.2031 35.9773ZM99.3295 31.75L98.4659 37H97.125L98.5795 28.2727H99.875L99.6477 29.6364H99.7614C100.034 29.1932 100.403 28.8371 100.869 28.5682C101.335 28.2955 101.898 28.1591 102.557 28.1591C103.14 28.1591 103.633 28.2803 104.034 28.5227C104.439 28.7614 104.725 29.125 104.892 29.6136C105.063 30.0985 105.087 30.7121 104.966 31.4545L104.034 37H102.693L103.602 31.5455C103.716 30.8636 103.627 30.3295 103.335 29.9432C103.047 29.5568 102.591 29.3636 101.966 29.3636C101.534 29.3636 101.134 29.4564 100.767 29.642C100.403 29.8277 100.095 30.0985 99.8409 30.4545C99.5909 30.8106 99.4205 31.2424 99.3295 31.75ZM111.734 28.2727L111.553 29.4091H107.03L107.212 28.2727H111.734ZM108.871 26.1818H110.212L108.825 34.5C108.765 34.8788 108.774 35.1629 108.854 35.3523C108.937 35.5379 109.062 35.6629 109.229 35.7273C109.399 35.7879 109.583 35.8182 109.78 35.8182C109.928 35.8182 110.049 35.8106 110.143 35.7955C110.238 35.7765 110.314 35.7614 110.371 35.75L110.462 36.9545C110.359 36.9886 110.221 37.0227 110.047 37.0568C109.876 37.0947 109.666 37.1136 109.416 37.1136C109.037 37.1136 108.681 37.0322 108.348 36.8693C108.015 36.7064 107.759 36.4583 107.581 36.125C107.403 35.7917 107.356 35.3712 107.439 34.8636L108.871 26.1818ZM114.842 37.2045C114.289 37.2045 113.804 37.1004 113.388 36.892C112.971 36.6799 112.662 36.375 112.462 35.9773C112.261 35.5758 112.206 35.0909 112.297 34.5227C112.384 34.0227 112.553 33.6174 112.803 33.3068C113.053 32.9924 113.356 32.7462 113.712 32.5682C114.071 32.3864 114.458 32.2519 114.871 32.1648C115.287 32.0739 115.702 32.0038 116.115 31.9545C116.653 31.8864 117.09 31.8333 117.428 31.7955C117.765 31.7576 118.018 31.6951 118.189 31.608C118.359 31.5208 118.464 31.3712 118.501 31.1591V31.1136C118.592 30.5568 118.518 30.1231 118.28 29.8125C118.041 29.4981 117.615 29.3409 117.001 29.3409C116.365 29.3409 115.833 29.4811 115.405 29.7614C114.977 30.0417 114.661 30.3409 114.456 30.6591L113.274 30.2045C113.585 29.6742 113.956 29.2614 114.388 28.9659C114.82 28.6667 115.272 28.4583 115.746 28.3409C116.219 28.2197 116.676 28.1591 117.115 28.1591C117.395 28.1591 117.712 28.1932 118.064 28.2614C118.416 28.3258 118.746 28.4602 119.053 28.6648C119.363 28.8693 119.596 29.178 119.751 29.5909C119.911 30.0038 119.933 30.5568 119.82 31.25L118.865 37H117.524L117.729 35.8182H117.661C117.539 36.0076 117.354 36.2102 117.104 36.4261C116.857 36.642 116.545 36.8258 116.166 36.9773C115.791 37.1288 115.35 37.2045 114.842 37.2045ZM115.229 36C115.759 36 116.223 35.8958 116.621 35.6875C117.022 35.4792 117.344 35.2102 117.587 34.8807C117.833 34.5511 117.986 34.2045 118.047 33.8409L118.251 32.6136C118.183 32.6818 118.049 32.7443 117.848 32.8011C117.647 32.8542 117.42 32.9015 117.166 32.9432C116.916 32.9811 116.672 33.0152 116.433 33.0455C116.198 33.072 116.009 33.0947 115.865 33.1136C115.509 33.1591 115.17 33.233 114.848 33.3352C114.53 33.4337 114.261 33.5833 114.041 33.7841C113.825 33.9811 113.691 34.25 113.638 34.5909C113.558 35.0568 113.67 35.4091 113.973 35.6477C114.276 35.8826 114.695 36 115.229 36ZM124.835 37.1818C124.013 37.1818 123.339 36.9886 122.812 36.6023C122.29 36.2159 121.926 35.6837 121.722 35.0057C121.517 34.3277 121.487 33.553 121.631 32.6818C121.775 31.7955 122.066 31.0133 122.506 30.3352C122.945 29.6534 123.492 29.1212 124.148 28.7386C124.803 28.3523 125.525 28.1591 126.312 28.1591C126.926 28.1591 127.46 28.2727 127.915 28.5C128.369 28.7273 128.72 29.0455 128.966 29.4545C129.212 29.8636 129.328 30.3409 129.312 30.8864H127.972C127.934 30.4886 127.763 30.1364 127.46 29.8295C127.161 29.5189 126.718 29.3636 126.131 29.3636C125.608 29.3636 125.127 29.5 124.688 29.7727C124.248 30.0417 123.879 30.4223 123.58 30.9148C123.28 31.4034 123.078 31.9773 122.972 32.6364C122.858 33.3106 122.867 33.8977 123 34.3977C123.133 34.8977 123.373 35.286 123.722 35.5625C124.07 35.839 124.509 35.9773 125.04 35.9773C125.388 35.9773 125.714 35.9167 126.017 35.7955C126.32 35.6742 126.589 35.5 126.824 35.2727C127.059 35.0455 127.244 34.7727 127.381 34.4545H128.722C128.555 34.9697 128.288 35.4337 127.92 35.8466C127.553 36.2557 127.108 36.5814 126.585 36.8239C126.063 37.0625 125.479 37.1818 124.835 37.1818ZM135.5 28.2727L135.318 29.4091H130.795L130.977 28.2727H135.5ZM132.636 26.1818H133.977L132.591 34.5C132.53 34.8788 132.54 35.1629 132.619 35.3523C132.703 35.5379 132.828 35.6629 132.994 35.7273C133.165 35.7879 133.348 35.8182 133.545 35.8182C133.693 35.8182 133.814 35.8106 133.909 35.7955C134.004 35.7765 134.08 35.7614 134.136 35.75L134.227 36.9545C134.125 36.9886 133.987 37.0227 133.812 37.0568C133.642 37.0947 133.432 37.1136 133.182 37.1136C132.803 37.1136 132.447 37.0322 132.114 36.8693C131.78 36.7064 131.525 36.4583 131.347 36.125C131.169 35.7917 131.121 35.3712 131.205 34.8636L132.636 26.1818ZM140.744 37L142.676 25.3636H149.653L149.449 26.6136H143.881L143.222 30.5455H148.267L148.062 31.7955H143.017L142.153 37H140.744ZM152.915 37.1818C152.112 37.1818 151.439 36.9905 150.898 36.608C150.356 36.2254 149.973 35.6894 149.75 35C149.53 34.3106 149.494 33.5076 149.642 32.5909C149.786 31.697 150.072 30.9186 150.5 30.2557C150.932 29.589 151.468 29.0739 152.108 28.7102C152.752 28.3428 153.46 28.1591 154.233 28.1591C155.036 28.1591 155.706 28.3523 156.244 28.7386C156.786 29.1212 157.169 29.6591 157.392 30.3523C157.616 31.0417 157.653 31.8485 157.506 32.7727C157.362 33.6591 157.072 34.4337 156.636 35.0966C156.205 35.7557 155.669 36.2689 155.028 36.6364C154.392 37 153.688 37.1818 152.915 37.1818ZM152.938 35.9773C153.551 35.9773 154.083 35.8201 154.534 35.5057C154.989 35.1913 155.356 34.7765 155.636 34.2614C155.92 33.7462 156.112 33.1894 156.21 32.5909C156.301 32.0227 156.297 31.4943 156.199 31.0057C156.1 30.5133 155.89 30.1174 155.568 29.8182C155.246 29.5152 154.794 29.3636 154.21 29.3636C153.597 29.3636 153.061 29.5227 152.602 29.8409C152.148 30.1591 151.78 30.5777 151.5 31.0966C151.22 31.6155 151.032 32.1742 150.938 32.7727C150.847 33.3409 150.848 33.8693 150.943 34.358C151.042 34.8428 151.252 35.2348 151.574 35.5341C151.9 35.8295 152.354 35.9773 152.938 35.9773ZM158.859 37L160.314 28.2727H161.609L161.382 29.5909H161.473C161.7 29.1591 162.047 28.8087 162.513 28.5398C162.979 28.2708 163.473 28.1364 163.996 28.1364C164.098 28.1364 164.221 28.1383 164.365 28.142C164.509 28.142 164.621 28.1477 164.7 28.1591L164.473 29.5227C164.428 29.5114 164.325 29.4943 164.166 29.4716C164.007 29.4451 163.837 29.4318 163.655 29.4318C163.231 29.4318 162.839 29.5208 162.479 29.6989C162.119 29.8731 161.818 30.1155 161.575 30.4261C161.333 30.733 161.178 31.0833 161.109 31.4773L160.2 37H158.859ZM164.844 37L166.298 28.2727H167.594L167.366 29.6364H167.48C167.741 29.1705 168.096 28.8087 168.543 28.5511C168.993 28.2898 169.503 28.1591 170.071 28.1591C170.639 28.1591 171.096 28.2898 171.44 28.5511C171.785 28.8087 172.026 29.1705 172.162 29.6364H172.253C172.548 29.1818 172.942 28.822 173.435 28.5568C173.931 28.2917 174.491 28.1591 175.116 28.1591C175.889 28.1591 176.484 28.4034 176.901 28.892C177.321 29.3807 177.446 30.1364 177.276 31.1591L176.298 37H174.957L175.935 31.1591C176.037 30.5114 175.935 30.0511 175.628 29.7784C175.325 29.5019 174.935 29.3636 174.457 29.3636C173.844 29.3636 173.338 29.5473 172.94 29.9148C172.543 30.2822 172.298 30.75 172.207 31.3182L171.253 37H169.889L170.889 31.0227C170.969 30.5227 170.874 30.1212 170.605 29.8182C170.336 29.5152 169.946 29.3636 169.435 29.3636C169.086 29.3636 168.745 29.4583 168.412 29.6477C168.079 29.8333 167.793 30.0909 167.554 30.4205C167.315 30.7462 167.162 31.1212 167.094 31.5455L166.185 37H164.844ZM183.591 37L190.5 26.7045L190.523 26.6136H184.523L184.727 25.3636H192.182L191.955 26.6818L185.068 37H183.591Z" fill="black" fill-opacity="0.7"/>
<defs>
<linearGradient id="paint0_linear_2220_3129" x1="26.2687" y1="32.9785" x2="24.2172" y2="34.3799" gradientUnits="userSpaceOnUse">
<stop stop-color="#1A427A"/>
<stop offset="1" stop-color="#1B447E"/>
</linearGradient>
<clipPath id="clip0_2220_3129">
<rect x="0.819824" y="0.822266" width="39.36" height="39.36" rx="19.68" fill="white"/>
</clipPath>
</defs>
</svg>
