<svg width="108" height="108" viewBox="0 0 108 108" fill="none" xmlns="http://www.w3.org/2000/svg">
<g clip-path="url(#clip0_2222_2402)">
<rect width="108" height="108" rx="54" fill="#33C6F4"/>
<path d="M52.5596 21.9127C52.9941 22.0192 79.9196 21.9127 79.9196 21.9127C79.9196 21.9127 78.0644 19.9333 75.7412 20.1674C75.8415 17.9326 74.1534 17.5069 73.3846 17.5707C71.6297 17.6984 71.0948 18.5072 71.0948 18.5072C71.0948 18.5072 71.145 15.9744 68.8051 15.8467C66.4652 15.719 65.9805 17.4643 65.9805 17.4643C65.9805 17.4643 63.8412 16.3575 62.7715 17.4643C61.7019 18.5711 61.986 19.4438 61.986 19.4438C61.986 19.4438 58.8438 19.1032 57.8243 19.6992C57.1224 20.1036 52.5596 21.9127 52.5596 21.9127Z" fill="white" fill-opacity="0.9"/>
<path d="M50.4004 44.6178C50.6062 44.6678 63.3604 44.6178 63.3604 44.6178C63.3604 44.6178 62.4816 43.6863 61.3812 43.7964C61.4287 42.7447 60.6291 42.5444 60.2649 42.5745C59.4336 42.6346 59.1803 43.0152 59.1803 43.0152C59.1803 43.0152 59.204 41.8233 58.0956 41.7632C56.9873 41.7031 56.7577 42.5244 56.7577 42.5244C56.7577 42.5244 55.7443 42.0035 55.2376 42.5244C54.7309 43.0452 54.8655 43.4559 54.8655 43.4559C54.8655 43.4559 53.3772 43.2956 52.8942 43.5761C52.5617 43.7664 50.4004 44.6178 50.4004 44.6178Z" fill="white" fill-opacity="0.75"/>
<path d="M81.3604 40.3061C81.4861 40.3374 89.2804 40.3061 89.2804 40.3061C89.2804 40.3061 88.7433 39.7239 88.0708 39.7928C88.0999 39.1355 87.6112 39.0103 87.3886 39.0291C86.8806 39.0666 86.7258 39.3045 86.7258 39.3045C86.7258 39.3045 86.7403 38.5595 86.063 38.522C85.3857 38.4844 85.2454 38.9978 85.2454 38.9978C85.2454 38.9978 84.6261 38.6722 84.3164 38.9978C84.0068 39.3233 84.0891 39.5799 84.0891 39.5799C84.0891 39.5799 83.1795 39.4798 82.8844 39.6551C82.6812 39.774 81.3604 40.3061 81.3604 40.3061Z" fill="white" fill-opacity="0.65"/>
<path d="M32.04 51.1116C32.1201 51.1304 37.08 51.1116 37.08 51.1116C37.08 51.1116 36.7383 50.7623 36.3103 50.8036C36.3288 50.4093 36.0179 50.3341 35.8762 50.3454C35.553 50.3679 35.4544 50.5107 35.4544 50.5107C35.4544 50.5107 35.4637 50.0637 35.0326 50.0412C34.6016 50.0186 34.5123 50.3266 34.5123 50.3266C34.5123 50.3266 34.1182 50.1313 33.9212 50.3266C33.7241 50.5219 33.7765 50.6759 33.7765 50.6759C33.7765 50.6759 33.1977 50.6158 33.0099 50.721C32.8806 50.7924 32.04 51.1116 32.04 51.1116Z" fill="white" fill-opacity="0.6"/>
<path d="M41.4004 64.7945C41.4576 64.807 45.0004 64.7945 45.0004 64.7945C45.0004 64.7945 44.7563 64.5616 44.4506 64.5891C44.4638 64.3262 44.2417 64.2761 44.1405 64.2836C43.9096 64.2987 43.8392 64.3938 43.8392 64.3938C43.8392 64.3938 43.8458 64.0958 43.538 64.0808C43.2301 64.0658 43.1663 64.2711 43.1663 64.2711C43.1663 64.2711 42.8848 64.1409 42.7441 64.2711C42.6033 64.4013 42.6407 64.504 42.6407 64.504C42.6407 64.504 42.2273 64.4639 42.0931 64.534C42.0008 64.5816 41.4004 64.7945 41.4004 64.7945Z" fill="white" fill-opacity="0.5"/>
<path d="M31.6971 18.36C32.0323 18.3809 32.0323 18.3809 32.3674 18.5275C32.4116 18.6327 32.4558 18.7379 32.5013 18.8463C32.7786 19.3308 33.0601 19.4051 33.5759 19.607C33.7583 19.6797 33.9406 19.7523 34.1284 19.8272C34.4251 19.9414 34.4251 19.9414 34.7277 20.0579C35.0371 20.1802 35.3464 20.3026 35.6558 20.4249C36.0895 20.5958 36.5241 20.7644 36.9587 20.9332C37.613 21.1878 38.2661 21.4456 38.9194 21.7029C39.428 21.9033 39.9368 22.1029 40.4461 22.3014C40.6295 22.373 40.8128 22.4446 41.0018 22.5184C41.163 22.5811 41.3242 22.6438 41.4903 22.7085C41.8671 22.8631 42.2278 23.0313 42.5888 23.2193C42.1207 23.5314 41.7081 23.7227 41.1884 23.9309C41.005 24.0047 40.8216 24.0785 40.6326 24.1545C40.3357 24.2728 40.3357 24.2728 40.0328 24.3936C39.8297 24.4749 39.6267 24.5563 39.4175 24.6401C38.9882 24.812 38.5587 24.9835 38.1291 25.1548C37.5779 25.3745 37.0271 25.5952 36.4764 25.8163C35.9516 26.0268 35.4263 26.2365 34.9011 26.4463C34.7029 26.5258 34.5046 26.6054 34.3003 26.6874C34.1174 26.7601 33.9346 26.8329 33.7462 26.9078C33.504 27.0045 33.504 27.0045 33.2569 27.1032C32.8701 27.2409 32.8701 27.2409 32.535 27.2409C32.535 28.8998 32.535 30.5586 32.535 32.2678C32.1479 32.2678 31.7608 32.2678 31.362 32.2678C31.3543 30.5039 31.3483 28.7401 31.3446 26.9762C31.3429 26.1572 31.3405 25.3382 31.3367 24.5193C31.3331 23.7294 31.3311 22.9396 31.3302 22.1497C31.3296 21.8478 31.3284 21.546 31.3266 21.2442C31.3242 20.8225 31.3238 20.4008 31.324 19.9791C31.3228 19.8534 31.3216 19.7277 31.3203 19.5982C31.3238 18.7333 31.3238 18.7333 31.6971 18.36Z" fill="#F1333E"/>
<path d="M31.6971 18.36C32.0427 18.4019 32.0427 18.4019 32.3674 18.5275C32.6229 19.0387 32.5567 19.5707 32.554 20.1313C32.554 20.2621 32.554 20.3929 32.5541 20.5276C32.5539 20.961 32.5526 21.3944 32.5513 21.8278C32.551 22.1278 32.5508 22.4279 32.5506 22.728C32.55 23.5186 32.5483 24.3092 32.5465 25.0998C32.5448 25.9062 32.544 26.7126 32.5431 27.5191C32.5413 29.102 32.5385 30.6849 32.535 32.2678C32.1479 32.2678 31.7608 32.2678 31.362 32.2678C31.3543 30.5039 31.3483 28.7401 31.3446 26.9762C31.3429 26.1572 31.3405 25.3382 31.3367 24.5193C31.3331 23.7294 31.3311 22.9396 31.3302 22.1497C31.3296 21.8478 31.3284 21.546 31.3266 21.2442C31.3242 20.8225 31.3238 20.4008 31.324 19.9791C31.3228 19.8534 31.3216 19.7277 31.3203 19.5982C31.3238 18.7333 31.3238 18.7333 31.6971 18.36Z" fill="#1B447E"/>
<path d="M31.8643 18.5276C32.0301 18.5276 32.196 18.5276 32.3669 18.5276C32.3669 23.0066 32.3669 27.4856 32.3669 32.1003C32.2011 32.1003 32.0352 32.1003 31.8643 32.1003C31.8643 27.6213 31.8643 23.1423 31.8643 18.5276Z" fill="#1B447E"/>
<path d="M23.2687 52.4353C22.4174 52.746 21.8517 53.2699 21.2227 53.8521C21.0561 54.0036 21.0561 54.0036 20.8862 54.1582C20.5316 54.4809 20.1786 54.8048 19.8257 55.129C18.2157 56.6037 16.6096 58.0527 14.8175 59.351C12.7465 60.9881 11.6074 63.2054 10.3335 65.3663C9.64518 66.5333 8.92437 67.6827 8.19889 68.8312C8.08263 69.0174 7.96638 69.2036 7.8466 69.3954C7.34851 70.192 6.8461 70.983 6.30834 71.7586C6.18319 71.9426 6.1832 71.9426 6.05553 72.1304C5.84327 72.4403 4.73136 74.1701 4.51317 74.4767C3.81563 76.0457 5.2015 76.2681 5.65766 77.8471C5.71594 78.0511 5.77421 78.2552 5.83425 78.4655C8.11562 86.1591 12.4398 93.2505 18.4595 99.0768C18.7155 99.3425 18.9706 99.609 19.2246 99.8763C20.7893 101.485 22.5024 102.867 24.3617 104.194C24.5961 104.366 24.8304 104.538 25.0645 104.71C34.7957 111.816 47.0933 115.569 59.5837 115.497C59.8069 115.497 60.03 115.496 60.2599 115.495C63.8771 115.481 55.7263 116.395 59.2752 115.716C59.5027 115.673 59.7301 115.63 59.9644 115.585C66.8723 114.229 73.8492 111.791 79.6051 108.041C79.7371 107.955 79.8691 107.869 80.005 107.781C84.1734 105.062 88.0088 102.058 91.1909 98.3977C91.3282 98.2503 91.4654 98.1029 91.6068 97.951C93.9309 95.4394 95.8299 92.6193 97.5304 89.7385C97.64 89.5555 97.64 89.5555 97.7519 89.3688C99.4924 86.448 100.857 83.3381 101.93 80.1691C101.976 80.0353 102.023 79.9015 102.07 79.7636C102.499 78.4252 102.122 77.5337 101.397 76.3438C100.217 74.4832 98.3356 73.6466 96.2909 72.6704C95.4213 72.2431 94.6121 71.7412 93.7919 71.2416C93.655 71.1759 93.518 71.1102 93.3769 71.0425C93.1605 71.1399 93.1605 71.1399 92.9397 71.2393C92.8071 71.7358 92.7016 72.2193 92.6101 72.7222C92.5816 72.8705 92.5531 73.0187 92.5238 73.1714C92.4329 73.6464 92.3447 74.1218 92.2566 74.5972C92.1956 74.9187 92.1344 75.2402 92.073 75.5616C91.9227 76.3509 91.7748 77.1406 91.6281 77.9305C90.5226 77.1898 89.4299 76.437 88.3491 75.6673C88.083 75.48 87.8169 75.2926 87.5507 75.1053C87.1171 74.7993 86.6928 74.4891 86.2716 74.169C86.0488 74.0035 86.0488 74.0035 85.8215 73.8346C85.6995 73.74 85.5775 73.6454 85.4518 73.5479C85.0701 73.4041 85.0701 73.4041 84.5817 73.4987C83.7376 73.9162 83.0329 74.4473 82.2966 75.0031C81.9861 75.234 81.6756 75.4649 81.365 75.6957C81.2144 75.8083 81.0638 75.9208 80.9087 76.0368C80.3334 76.4648 79.7515 76.8845 79.1679 77.3032C78.9966 77.4262 78.8252 77.5493 78.6487 77.676C78.5315 77.76 78.4143 77.844 78.2935 77.9305C78.1049 76.8662 78.0143 75.8155 77.9579 74.7394C77.9438 74.4868 77.9438 74.4868 77.9294 74.2291C77.8998 73.6958 77.8712 73.1625 77.8426 72.6292C77.8226 72.2657 77.8026 71.9022 77.7824 71.5387C77.7334 70.6518 77.6853 69.7647 77.6377 68.8777C76.5617 69.5835 75.5491 70.3095 74.5773 71.1286C73.8473 71.7396 73.1166 72.3483 72.3639 72.9367C72.2284 73.0435 72.0929 73.1503 71.9532 73.2603C71.6304 73.5123 71.0673 73.5524 70.7404 73.8C68.485 75.5496 67.3889 77.9338 65.8845 80.2121C65.1972 81.2506 64.493 82.2791 63.7839 83.3056C62.6282 84.979 61.4864 86.6598 60.3534 88.3457C59.503 89.6084 58.6306 90.8572 57.745 92.1001C57.745 92.16 68.4604 89.8024 68.0562 89.1407C67.9251 88.9269 67.7939 88.713 67.6587 88.4927C67.5552 88.323 67.5552 88.323 67.4496 88.1498C67.0816 87.5467 66.7115 86.9447 66.3416 86.3425C66.2667 86.2205 66.1918 86.0984 66.1146 85.9727C65.4306 84.8589 64.7356 83.7508 64.0377 82.644C63.0077 81.0089 61.9896 79.3681 60.9773 77.7241C59.9651 76.08 58.9468 74.4392 57.9169 72.8041C57.0331 71.4006 56.1552 69.9944 55.2867 68.5832C55.0087 68.1331 54.7289 67.6839 54.4472 67.2356C53.7668 66.1483 53.1219 65.0628 52.5441 63.9281C50.7197 60.4735 48.2827 58.8259 44.7209 56.9368C43.9366 56.5147 43.1847 56.0596 42.4362 55.5881C42.0684 55.3873 42.0684 55.3873 41.6312 55.3873C41.4121 56.5463 41.1942 57.7054 40.9774 58.8647C40.9035 59.2589 40.8293 59.6531 40.7547 60.0472C40.6475 60.6142 40.5415 61.1814 40.4357 61.7487C40.4022 61.9244 40.3687 62.1001 40.3343 62.2812C40.1874 63.0742 40.0557 63.8295 40.1009 64.6369C38.7795 63.6928 37.5062 62.7227 36.2754 61.6849C32.9651 58.8998 32.9651 58.8998 31.5755 58.3393C31.4222 58.4654 31.2689 58.5915 31.111 58.7214C29.6417 59.9273 28.1599 61.1168 26.6493 62.2807C26.4423 62.4402 26.4423 62.4402 26.2312 62.6029C25.9541 62.8162 25.6768 63.0293 25.3993 63.2423C24.8939 63.631 24.3948 64.0167 23.9245 64.4401C23.5885 58.438 23.5884 58.438 23.2687 52.4353Z" fill="#1B447E"/>
<path d="M32.2307 31.5747C31.4825 31.6916 31.39 31.7294 30.9157 32.3219C30.7498 32.5797 30.5873 32.8392 30.4272 33.0999C30.3355 33.2447 30.2437 33.3896 30.1491 33.5388C29.819 34.063 29.4942 34.5898 29.1703 35.1171C29.0392 35.3299 28.9081 35.5427 28.7731 35.7619C28.1823 36.7221 27.5928 37.6829 27.0059 38.645C26.094 40.1396 25.1733 41.6291 24.2381 43.1121C23.2124 44.7389 22.1986 46.3713 21.1913 48.0075C20.1741 49.6595 19.1512 51.3084 18.1173 52.9521C17.9479 53.2218 17.9479 53.2218 17.7751 53.4969C17.2089 54.3984 16.6415 55.2993 16.0717 56.199C15.7141 56.7643 15.3584 57.3306 15.0022 57.8967C14.8672 58.1089 14.7322 58.3211 14.5931 58.5398C14.4697 58.7365 14.3463 58.9332 14.2192 59.1359C14.109 59.3101 13.9989 59.4843 13.8855 59.6638C13.6496 60.1106 13.6496 60.1106 13.6496 60.701C13.9506 60.4267 13.9506 60.4267 14.2576 60.1468C14.5285 59.901 14.7995 59.6553 15.0705 59.4095C15.2018 59.2897 15.3331 59.1698 15.4684 59.0463C16.1406 58.438 16.8212 57.8515 17.5451 57.2932C18.664 56.424 19.69 55.4736 20.7268 54.5265C21.1151 54.1719 21.5039 53.8177 21.8933 53.464C22.063 53.309 22.2327 53.1539 22.4076 52.9941C22.8029 52.6209 22.8029 52.6209 23.268 52.4355C23.263 52.6402 23.2579 52.8449 23.2527 53.0558C23.1927 56.9207 23.4759 60.7793 23.7053 64.637C24.9021 63.8626 25.9909 63.0346 27.0526 62.1155C29.3307 60.0722 29.3307 60.0722 32.0121 58.5363C32.2306 58.7185 32.2306 58.7185 32.4536 58.9045C33.4782 59.7521 34.5059 60.5807 35.5917 61.3652C36.6904 62.1603 37.7195 63.0097 38.7365 63.8874C39.6169 64.637 39.6169 64.637 40.1003 64.637C40.3196 63.5098 40.5375 62.3823 40.7541 61.2545C40.8279 60.8712 40.9021 60.4879 40.9767 60.1047C41.0841 59.5528 41.1901 59.0007 41.2958 58.4486C41.3293 58.2782 41.3627 58.1078 41.3972 57.9322C41.5603 57.0727 41.6693 56.2634 41.6305 55.3875C43.5123 56.4497 45.3479 57.5644 47.1754 58.7004C47.4803 58.8889 47.4803 58.8889 47.7915 59.0813C48.0639 59.2506 48.0639 59.2506 48.3418 59.4232C48.7903 59.6854 49.2353 59.9062 49.7188 60.1106C49.4029 59.354 49.0165 58.6618 48.5813 57.9551C48.5127 57.8432 48.444 57.7313 48.3733 57.6161C48.1484 57.2501 47.9226 56.8846 47.6967 56.5191C47.5384 56.262 47.3802 56.0049 47.222 55.7478C45.8555 53.5285 44.479 51.3143 43.099 49.1018C42.4629 48.0815 41.8282 47.0604 41.1933 46.0395C40.4311 44.8139 39.6688 43.5884 38.9057 42.3633C37.1536 39.5496 35.4104 36.7315 33.672 33.9109C33.1919 33.132 32.7113 32.3533 32.2307 31.5747Z" fill="#F0F0F1"/>
<path d="M85.0704 52.7403C84.1611 53.0132 83.9763 53.5661 83.5539 54.2901C82.8286 55.4909 82.0644 56.6573 81.2449 57.8079C80.1394 59.3642 79.0679 60.9378 78.0069 62.5188C76.6989 64.4666 75.3729 66.4031 74.0282 68.3307C72.5847 70.4026 71.1747 72.4926 69.7683 74.5851C70.6798 74.5851 70.9038 74.2447 71.5581 73.6872C71.7758 73.5041 71.9935 73.3211 72.2114 73.1383C72.4151 72.9663 72.6188 72.7943 72.8287 72.6171C73.885 71.7625 74.9703 70.9384 76.0548 70.1132C76.1863 70.0132 76.3178 69.9131 76.4532 69.8099C76.7752 69.5648 77.0973 69.3197 77.4194 69.0747C77.4315 69.293 77.4436 69.5113 77.456 69.7362C77.5014 70.5519 77.5477 71.3676 77.5941 72.1833C77.6141 72.5352 77.6338 72.8872 77.6533 73.2392C77.6814 73.7473 77.7104 74.2553 77.7396 74.7634C77.7522 74.9966 77.7522 74.9966 77.7651 75.2345C77.8219 76.2069 77.9294 77.1625 78.0752 78.1274C79.0461 77.4806 80.0047 76.8219 80.9532 76.1487C81.2208 75.9588 81.4888 75.7695 81.7573 75.5806C82.3228 75.1825 82.883 74.7829 83.4317 74.366C83.5802 74.2556 83.7287 74.1452 83.8818 74.0316C84.0648 73.8896 84.0648 73.8896 84.2515 73.7448C84.641 73.5603 84.641 73.5603 85.1139 73.6887C86.0083 74.1356 86.7521 74.7158 87.5297 75.3107C87.8605 75.5603 88.1916 75.8096 88.5227 76.0587C88.6809 76.1781 88.8391 76.2975 89.0021 76.4205C89.7883 77.0085 90.5953 77.5717 91.4098 78.1274C91.5541 78.0625 91.6984 77.9976 91.847 77.9306C91.9796 77.4341 92.0852 76.9507 92.1766 76.4477C92.2051 76.2995 92.2336 76.1512 92.263 75.9985C92.3538 75.5235 92.442 75.0482 92.5301 74.5728C92.5912 74.2513 92.6524 73.9298 92.7137 73.6084C92.8641 72.819 93.012 72.0293 93.1586 71.2395C94.7827 72.0198 96.3506 72.8477 97.8965 73.7463C99.0159 74.3883 99.0159 74.3883 99.498 74.3883C99.2134 73.7095 98.8841 73.0956 98.4734 72.4718C98.3579 72.2959 98.2424 72.12 98.1234 71.9388C97.9999 71.7527 97.8765 71.5665 97.7492 71.3748C97.6208 71.1802 97.4924 70.9857 97.3601 70.7853C96.4717 69.4441 95.5634 68.1155 94.6384 66.7946C93.8719 65.6983 93.1197 64.594 92.3662 63.4905C92.1444 63.1658 92.1444 63.1658 91.9181 62.8345C91.2195 61.8116 90.5213 60.7885 89.8234 59.7653C89.5883 59.4207 89.3532 59.0763 89.118 58.7318C88.8246 58.302 88.5314 57.8721 88.2383 57.4421C87.4482 56.2848 86.6468 55.1354 85.8279 53.9945C85.5467 53.5845 85.3 53.175 85.0704 52.7403Z" fill="#EFF0F0"/>
<path d="M32.4493 32.165C32.2185 32.7883 32.2365 32.9646 32.3874 33.5821C32.4278 33.7508 32.4681 33.9195 32.5097 34.0934C32.5558 34.2782 32.6019 34.4631 32.6493 34.6535C32.6966 34.849 32.7439 35.0444 32.7926 35.2457C32.9509 35.8984 33.1117 36.5505 33.2725 37.2026C33.3848 37.6636 33.497 38.1245 33.609 38.5855C33.907 39.8098 34.2071 41.0337 34.5076 42.2576C34.803 43.4622 35.0965 44.6672 35.3901 45.8722C35.9108 48.0076 36.4332 50.1426 36.9563 52.2774C37.536 54.6432 38.1142 57.0093 38.6922 59.3754C38.946 60.4142 39.1998 61.4529 39.4537 62.4917C39.5964 63.0756 39.739 63.6595 39.8817 64.2434C40.4012 63.5418 40.5033 62.9012 40.6485 62.087C40.677 61.9334 40.7055 61.7798 40.7349 61.6215C40.7948 61.2966 40.8539 60.9715 40.9123 60.6463C41.0014 60.1511 41.0933 59.6563 41.1856 59.1616C41.2436 58.8452 41.3014 58.5289 41.359 58.2125C41.3863 58.0655 41.4136 57.9185 41.4418 57.767C41.5842 56.9654 41.6588 56.199 41.6305 55.3874C43.5123 56.4496 45.3479 57.5643 47.1754 58.7003C47.4803 58.8889 47.4803 58.8889 47.7915 59.0812C48.0639 59.2505 48.0639 59.2505 48.3418 59.4232C48.7903 59.6854 49.2353 59.9061 49.7188 60.1106C49.4029 59.354 49.0165 58.6617 48.5813 57.955C48.5127 57.8431 48.444 57.7313 48.3733 57.616C48.1484 57.25 47.9226 56.8845 47.6967 56.519C47.5384 56.2619 47.3802 56.0048 47.222 55.7477C45.8555 53.5285 44.479 51.3142 43.099 49.1017C42.4629 48.0814 41.8282 47.0604 41.1933 46.0394C40.4311 44.8139 39.6688 43.5884 38.9057 42.3633C38.6526 41.9568 38.3996 41.5504 38.1466 41.144C38.0225 40.9448 37.8984 40.7456 37.7705 40.5403C37.0809 39.432 36.3946 38.3222 35.7121 37.2103C35.5628 36.9674 35.4135 36.7244 35.2641 36.4815C34.979 36.0175 34.6947 35.5532 34.4108 35.0887C33.7953 34.0867 33.1817 33.1017 32.4493 32.165Z" fill="#FEFEFE"/>
<path d="M31.5754 31.7714C31.0061 32.235 30.6637 32.7193 30.2937 33.3228C30.1134 33.6148 30.1134 33.6148 29.9295 33.9128C29.8008 34.1235 29.6722 34.3341 29.5397 34.5512C29.2627 35.0007 28.9858 35.4502 28.7088 35.8996C28.566 36.1321 28.4232 36.3646 28.2805 36.597C27.6342 37.6474 26.9815 38.6946 26.329 39.7418C26.0739 40.1518 25.8188 40.5618 25.5638 40.9718C25.4376 41.1748 25.3114 41.3777 25.1813 41.5868C20.9732 48.3518 20.9732 48.3518 20.5905 48.9672C20.3362 49.3759 20.0819 49.7846 19.8275 50.1933C19.1778 51.2373 18.5291 52.2818 17.8821 53.3271C17.6191 53.7515 17.3561 54.1758 17.0931 54.6002C16.9669 54.8039 16.8408 55.0076 16.7109 55.2175C16.1302 56.1521 15.5431 57.0817 14.9318 58.0003C14.8278 58.1567 14.7237 58.3131 14.6165 58.4743C14.4239 58.7617 14.2298 59.0482 14.0337 59.3337C13.8201 59.6515 13.6237 59.9787 13.4315 60.3074C13.5036 60.4372 13.5758 60.5671 13.6501 60.701C13.9511 60.4266 13.9511 60.4266 14.2581 60.1467C14.529 59.9009 14.8 59.6552 15.071 59.4095C15.2023 59.2896 15.3336 59.1697 15.4689 59.0462C16.1411 58.4379 16.8217 57.8514 17.5456 57.2931C18.6645 56.4239 19.6905 55.4735 20.7273 54.5264C21.1156 54.1718 21.5044 53.8176 21.8937 53.464C22.0635 53.3089 22.2332 53.1538 22.4081 52.994C22.8034 52.6208 22.8034 52.6208 23.2685 52.4354C23.2635 52.6401 23.2584 52.8448 23.2532 53.0558C23.1932 56.9206 23.4764 60.7792 23.7057 64.637C24.2438 64.1525 24.213 63.8327 24.2891 63.1735C24.4459 62.0818 24.7403 61.0096 25.0015 59.935C25.0676 59.6603 25.1337 59.3857 25.1998 59.1111C25.3784 58.3689 25.558 57.6269 25.7377 56.8849C25.9262 56.106 26.1139 55.327 26.3016 54.5479C26.6574 53.0724 27.0139 51.597 27.3708 50.1216C27.7753 48.4486 28.179 46.7754 28.5826 45.1023C29.1784 42.6322 29.7746 40.1623 30.3717 37.6925C30.436 37.4264 30.5003 37.1602 30.5647 36.8941C30.653 36.5285 30.7414 36.163 30.8298 35.7974C30.8828 35.5781 30.9357 35.3587 30.9903 35.1327C31.1227 34.5899 31.2593 34.048 31.3968 33.5062C31.5424 32.8939 31.6198 32.3921 31.5754 31.7714Z" fill="#D8D7D6"/>
<path d="M85.5076 53.5273C85.298 54.1275 85.2901 54.5175 85.456 55.1263C85.4986 55.2865 85.5412 55.4467 85.585 55.6117C85.6335 55.7858 85.682 55.9599 85.7319 56.1393C85.7816 56.3241 85.8314 56.5089 85.8826 56.6992C86.048 57.3118 86.2163 57.9238 86.3846 58.5357C86.5006 58.9634 86.6164 59.3911 86.7321 59.8188C87.038 60.948 87.3462 62.0767 87.6551 63.2052C87.9657 64.342 88.2743 65.4792 88.5829 66.6164C88.9315 67.9006 89.2803 69.1846 89.6308 70.4683C89.6844 70.6645 89.7379 70.8607 89.793 71.0629C89.8968 71.4431 90.0007 71.8233 90.1049 72.2034C90.3416 73.0711 90.5731 73.9392 90.7915 74.8108C90.8506 75.0451 90.8506 75.0451 90.9109 75.284C90.9832 75.5729 91.0543 75.8621 91.1237 76.1515C91.3615 77.0998 91.3615 77.0998 91.847 77.5369C92.2798 75.4587 92.7127 73.3805 93.1586 71.2393C94.7844 72.0377 96.3473 72.8456 97.8965 73.7462C99.0159 74.3881 99.0159 74.3881 99.498 74.3881C99.2134 73.7093 98.8841 73.0954 98.4734 72.4716C98.3579 72.2957 98.2424 72.1199 98.1234 71.9387C97.9999 71.7525 97.8765 71.5664 97.7492 71.3746C97.6208 71.1801 97.4924 70.9856 97.3601 70.7852C96.4717 69.4439 95.5634 68.1154 94.6384 66.7944C93.8719 65.6981 93.1197 64.5939 92.3662 63.4903C92.1444 63.1656 92.1444 63.1656 91.9181 62.8343C91.2195 61.8114 90.5213 60.7883 89.8234 59.7651C89.5883 59.4206 89.3532 59.0761 89.118 58.7317C88.8246 58.3018 88.5314 57.8719 88.2383 57.4419C87.3419 56.129 86.431 54.825 85.5076 53.5273Z" fill="#FDFEFE"/>
<path d="M85.0695 52.7403C84.1602 53.0132 83.9754 53.5661 83.5529 54.2901C82.8277 55.4909 82.0635 56.6573 81.244 57.8079C80.1385 59.3642 79.067 60.9378 78.0059 62.5188C76.698 64.4666 75.3719 66.4031 74.0273 68.3307C72.5838 70.4026 71.1738 72.4926 69.7674 74.5851C70.6789 74.5851 70.9029 74.2447 71.5572 73.6872C71.7749 73.5041 71.9926 73.3211 72.2105 73.1383C72.4142 72.9663 72.6179 72.7943 72.8278 72.6171C73.8841 71.7625 74.9694 70.9384 76.0539 70.1132C76.1854 70.0132 76.3169 69.9131 76.4523 69.8099C76.7743 69.5648 77.0964 69.3197 77.4185 69.0747C77.4306 69.293 77.4427 69.5113 77.4551 69.7362C77.5005 70.5519 77.5468 71.3676 77.5932 72.1833C77.6132 72.5352 77.6329 72.8872 77.6524 73.2392C77.6805 73.7473 77.7095 74.2553 77.7387 74.7634C77.7513 74.9966 77.7513 74.9966 77.7642 75.2345C77.821 76.2069 77.9285 77.1625 78.0743 78.1274C78.5875 77.6654 78.5886 77.5113 78.6909 76.8802C78.8893 75.8131 79.1467 74.7662 79.4259 73.7143C79.4717 73.5417 79.5175 73.3691 79.5647 73.1912C79.7135 72.6323 79.8631 72.0735 80.0126 71.5147C80.1178 71.1199 80.2229 70.725 80.3279 70.3302C80.6038 69.2941 80.8803 68.2582 81.1571 67.2224C81.4909 65.9722 81.8239 64.7219 82.157 63.4716C82.4167 62.4969 82.6765 61.5221 82.9368 60.5475C83.1677 59.6827 83.3977 58.8177 83.6275 57.9526C83.7579 57.4634 83.8898 56.9746 84.022 56.4858C84.1031 56.1828 84.1842 55.8797 84.2652 55.5767C84.3026 55.4399 84.34 55.3031 84.3785 55.1621C84.5482 54.5237 84.6323 53.9933 84.6323 53.3307C84.8487 53.2658 85.0651 53.2008 85.2881 53.1339C85.2159 53.004 85.1438 52.8741 85.0695 52.7403Z" fill="#D7D6D5"/>
</g>
<rect x="3" y="3" width="102" height="102" rx="51" stroke="#0F214A" stroke-width="6"/>
<defs>
<clipPath id="clip0_2222_2402">
<rect width="108" height="108" rx="54" fill="white"/>
</clipPath>
</defs>
</svg>
