<svg width="370" height="237" viewBox="0 0 370 237" fill="none" xmlns="http://www.w3.org/2000/svg">
<path fill-rule="evenodd" clip-rule="evenodd" d="M302.395 234.182C302.395 234.182 316.324 221.489 317.153 212.838C317.893 204.19 334.459 200.81 341.653 195.871C350.591 189.748 358.233 185.045 349.249 172.838C340.31 160.672 324.985 170.203 322.152 172.186C319.317 174.087 311.422 181.374 303.948 177.564C303.948 177.564 297.147 184.295 297.12 191.17C297.093 198.044 294.757 212.659 284.844 218.72L302.352 234.223L302.395 234.182Z" fill="url(#paint0_linear_1996_2498)"/>
<path d="M311.344 224.461L288.324 222.045" stroke="white" stroke-width="0.445972" stroke-miterlimit="10" stroke-linecap="round" stroke-linejoin="round"/>
<path d="M315.266 217.669L289.621 214.612" stroke="white" stroke-width="0.445972" stroke-miterlimit="10" stroke-linecap="round" stroke-linejoin="round"/>
<path d="M321.326 172.822L311.456 197.13" stroke="white" stroke-width="0.445972" stroke-miterlimit="10" stroke-linecap="round" stroke-linejoin="round"/>
<path d="M333.505 167.242L323.905 189.703" stroke="white" stroke-width="0.445972" stroke-miterlimit="10" stroke-linecap="round" stroke-linejoin="round"/>
<path d="M350.467 174.002C350.467 174.002 295.462 206.551 295.645 206.793" stroke="white" stroke-width="0.445972" stroke-miterlimit="10" stroke-linecap="round" stroke-linejoin="round"/>
<path fill-rule="evenodd" clip-rule="evenodd" d="M285.25 219C285.25 219 295.869 212.842 296.722 201.245C297.576 189.648 300.718 177.511 313.763 166.924C326.763 156.297 355.345 131.714 338.761 115.987C338.761 115.987 327.211 101.749 315.002 112.114C302.75 122.521 296.948 128.372 295.33 133.357C293.713 138.342 289.546 142.031 280.109 143.54C270.76 145.048 247.819 152.327 229.703 169.813L285.25 219Z" fill="url(#paint1_linear_1996_2498)"/>
<path d="M267.651 185.288L271.769 144.818" stroke="white" stroke-width="0.445972" stroke-miterlimit="10" stroke-linecap="round" stroke-linejoin="round"/>
<path d="M277.316 177.887L280.062 143.501" stroke="white" stroke-width="0.445972" stroke-miterlimit="10" stroke-linecap="round" stroke-linejoin="round"/>
<path d="M319.994 140.195L340.23 138.784" stroke="white" stroke-width="0.445972" stroke-miterlimit="10" stroke-linecap="round" stroke-linejoin="round"/>
<path d="M256.233 193.308C256.233 193.308 319.348 151.177 337.669 114.701" stroke="white" stroke-width="0.445972" stroke-miterlimit="10" stroke-linecap="round" stroke-linejoin="round"/>
<path d="M333.619 148.173L310.629 149.152" stroke="white" stroke-width="0.445972" stroke-miterlimit="10" stroke-linecap="round" stroke-linejoin="round"/>
<path d="M304.294 177.149C304.294 177.149 300.98 199.722 294.926 208.238C288.872 216.754 285.519 219.239 285.519 219.239" stroke="white" stroke-width="0.445972" stroke-miterlimit="10" stroke-linecap="round" stroke-linejoin="round"/>
<path d="M23.7867 218C19.494 218 16 214.209 16 209.614V26.5009C16 21.7909 19.494 18 23.7867 18H300.213C304.506 18 308 21.7909 308 26.5009V209.614C308 214.209 304.506 218 300.213 218H23.7867Z" fill="#1E62B9"/>
<path d="M299 28H25V210H299V28Z" fill="white"/>
<path d="M212.8 215.4H111.5V225.6H212.8V215.4Z" fill="white"/>
<path d="M1.19922 225.6C3.39922 230.9 8.69922 234.6 14.7992 234.6H309.599C315.699 234.6 320.899 230.9 323.199 225.6H1.19922Z" fill="#1E62B9"/>
<path d="M319.199 215.4H211.999C211.799 217.7 209.899 219.5 207.499 219.5H116.699C114.299 219.5 112.499 217.7 112.199 215.4H5.09936C2.39936 215.4 0.19936 217.7 0.39936 220.5C0.59936 222.6 0.799355 224.8 1.19936 225.6H323.099C323.499 224.8 323.699 222.6 323.899 220.5C324.099 217.8 321.899 215.4 319.199 215.4Z" fill="#1A539D"/>
<rect x="40.5" y="43.5" width="240" height="153" rx="3.5" stroke="#1E62B9"/>
<line x1="39.998" y1="66.5" x2="281" y2="66.5" stroke="#1E62B9"/>
<line x1="159.5" y1="196" x2="159.5" y2="43" stroke="#1E62B9"/>
<g filter="url(#filter0_d_1996_2498)">
<rect x="88" y="100" width="144" height="41" rx="3" fill="white" shape-rendering="crispEdges"/>
<path d="M108.67 114.364V126H107.057L101.142 117.466H101.034V126H99.2784V114.364H100.903L106.824 122.909H106.932V114.364H108.67ZM114.771 126.176C113.953 126.176 113.239 125.989 112.629 125.614C112.019 125.239 111.546 124.714 111.209 124.04C110.872 123.366 110.703 122.578 110.703 121.676C110.703 120.771 110.872 119.979 111.209 119.301C111.546 118.623 112.019 118.097 112.629 117.722C113.239 117.347 113.953 117.159 114.771 117.159C115.589 117.159 116.304 117.347 116.913 117.722C117.523 118.097 117.997 118.623 118.334 119.301C118.671 119.979 118.839 120.771 118.839 121.676C118.839 122.578 118.671 123.366 118.334 124.04C117.997 124.714 117.523 125.239 116.913 125.614C116.304 125.989 115.589 126.176 114.771 126.176ZM114.777 124.75C115.307 124.75 115.747 124.61 116.095 124.33C116.444 124.049 116.701 123.676 116.868 123.21C117.038 122.744 117.124 122.231 117.124 121.67C117.124 121.114 117.038 120.602 116.868 120.136C116.701 119.667 116.444 119.29 116.095 119.006C115.747 118.722 115.307 118.58 114.777 118.58C114.243 118.58 113.8 118.722 113.447 119.006C113.099 119.29 112.839 119.667 112.669 120.136C112.502 120.602 112.419 121.114 112.419 121.67C112.419 122.231 112.502 122.744 112.669 123.21C112.839 123.676 113.099 124.049 113.447 124.33C113.8 124.61 114.243 124.75 114.777 124.75ZM128.237 126.17C127.533 126.17 126.904 125.991 126.351 125.631C125.802 125.267 125.37 124.75 125.055 124.08C124.745 123.405 124.589 122.597 124.589 121.653C124.589 120.71 124.747 119.903 125.061 119.233C125.379 118.562 125.815 118.049 126.368 117.693C126.921 117.337 127.548 117.159 128.249 117.159C128.79 117.159 129.226 117.25 129.555 117.432C129.889 117.61 130.146 117.818 130.328 118.057C130.514 118.295 130.658 118.506 130.76 118.688H130.862V114.364H132.561V126H130.902V124.642H130.76C130.658 124.828 130.51 125.04 130.317 125.278C130.127 125.517 129.866 125.725 129.533 125.903C129.199 126.081 128.768 126.17 128.237 126.17ZM128.612 124.722C129.101 124.722 129.514 124.593 129.851 124.335C130.192 124.074 130.449 123.712 130.624 123.25C130.802 122.788 130.891 122.25 130.891 121.636C130.891 121.03 130.804 120.5 130.629 120.045C130.455 119.591 130.199 119.237 129.862 118.983C129.525 118.729 129.108 118.602 128.612 118.602C128.101 118.602 127.675 118.735 127.334 119C126.993 119.265 126.735 119.627 126.561 120.085C126.391 120.544 126.305 121.061 126.305 121.636C126.305 122.22 126.393 122.744 126.567 123.21C126.741 123.676 126.999 124.045 127.339 124.318C127.684 124.587 128.108 124.722 128.612 124.722ZM137.526 126.193C136.973 126.193 136.473 126.091 136.026 125.886C135.579 125.678 135.224 125.377 134.963 124.983C134.705 124.589 134.577 124.106 134.577 123.534C134.577 123.042 134.671 122.636 134.861 122.318C135.05 122 135.306 121.748 135.628 121.562C135.95 121.377 136.31 121.237 136.707 121.142C137.105 121.047 137.51 120.975 137.923 120.926C138.446 120.866 138.87 120.816 139.196 120.778C139.522 120.737 139.759 120.67 139.906 120.58C140.054 120.489 140.128 120.341 140.128 120.136V120.097C140.128 119.6 139.988 119.216 139.707 118.943C139.431 118.67 139.018 118.534 138.469 118.534C137.897 118.534 137.446 118.661 137.116 118.915C136.791 119.165 136.565 119.443 136.44 119.75L134.844 119.386C135.033 118.856 135.31 118.428 135.673 118.102C136.041 117.773 136.463 117.534 136.94 117.386C137.418 117.235 137.92 117.159 138.446 117.159C138.795 117.159 139.164 117.201 139.554 117.284C139.948 117.364 140.315 117.511 140.656 117.727C141.001 117.943 141.283 118.252 141.503 118.653C141.723 119.051 141.832 119.568 141.832 120.205V126H140.173V124.807H140.105C139.995 125.027 139.83 125.242 139.611 125.455C139.391 125.667 139.109 125.843 138.764 125.983C138.42 126.123 138.007 126.193 137.526 126.193ZM137.895 124.83C138.365 124.83 138.766 124.737 139.099 124.551C139.437 124.366 139.692 124.123 139.866 123.824C140.045 123.521 140.134 123.197 140.134 122.852V121.727C140.073 121.788 139.955 121.845 139.781 121.898C139.611 121.947 139.416 121.991 139.196 122.028C138.976 122.062 138.762 122.095 138.554 122.125C138.346 122.152 138.171 122.174 138.031 122.193C137.702 122.235 137.401 122.305 137.128 122.403C136.859 122.502 136.643 122.644 136.48 122.83C136.321 123.011 136.241 123.254 136.241 123.557C136.241 123.977 136.397 124.295 136.707 124.511C137.018 124.723 137.414 124.83 137.895 124.83ZM148.169 117.273V118.636H143.402V117.273H148.169ZM144.68 115.182H146.379V123.438C146.379 123.767 146.429 124.015 146.527 124.182C146.625 124.345 146.752 124.456 146.908 124.517C147.067 124.574 147.239 124.602 147.425 124.602C147.561 124.602 147.68 124.593 147.783 124.574C147.885 124.555 147.964 124.54 148.021 124.528L148.328 125.932C148.23 125.97 148.089 126.008 147.908 126.045C147.726 126.087 147.499 126.11 147.226 126.114C146.779 126.121 146.362 126.042 145.976 125.875C145.589 125.708 145.277 125.451 145.038 125.102C144.8 124.754 144.68 124.316 144.68 123.79V115.182ZM152.588 126.193C152.035 126.193 151.535 126.091 151.088 125.886C150.641 125.678 150.287 125.377 150.026 124.983C149.768 124.589 149.639 124.106 149.639 123.534C149.639 123.042 149.734 122.636 149.923 122.318C150.113 122 150.368 121.748 150.69 121.562C151.012 121.377 151.372 121.237 151.77 121.142C152.168 121.047 152.573 120.975 152.986 120.926C153.509 120.866 153.933 120.816 154.259 120.778C154.584 120.737 154.821 120.67 154.969 120.58C155.116 120.489 155.19 120.341 155.19 120.136V120.097C155.19 119.6 155.05 119.216 154.77 118.943C154.493 118.67 154.08 118.534 153.531 118.534C152.959 118.534 152.509 118.661 152.179 118.915C151.853 119.165 151.628 119.443 151.503 119.75L149.906 119.386C150.096 118.856 150.372 118.428 150.736 118.102C151.103 117.773 151.526 117.534 152.003 117.386C152.48 117.235 152.982 117.159 153.509 117.159C153.857 117.159 154.226 117.201 154.616 117.284C155.01 117.364 155.378 117.511 155.719 117.727C156.063 117.943 156.346 118.252 156.565 118.653C156.785 119.051 156.895 119.568 156.895 120.205V126H155.236V124.807H155.168C155.058 125.027 154.893 125.242 154.673 125.455C154.454 125.667 154.171 125.843 153.827 125.983C153.482 126.123 153.069 126.193 152.588 126.193ZM152.957 124.83C153.427 124.83 153.829 124.737 154.162 124.551C154.499 124.366 154.755 124.123 154.929 123.824C155.107 123.521 155.196 123.197 155.196 122.852V121.727C155.135 121.788 155.018 121.845 154.844 121.898C154.673 121.947 154.478 121.991 154.259 122.028C154.039 122.062 153.825 122.095 153.616 122.125C153.408 122.152 153.234 122.174 153.094 122.193C152.764 122.235 152.463 122.305 152.19 122.403C151.921 122.502 151.705 122.644 151.543 122.83C151.384 123.011 151.304 123.254 151.304 123.557C151.304 123.977 151.459 124.295 151.77 124.511C152.08 124.723 152.476 124.83 152.957 124.83ZM167.153 126.176C166.294 126.176 165.553 125.992 164.932 125.625C164.314 125.254 163.837 124.733 163.5 124.062C163.167 123.388 163 122.598 163 121.693C163 120.799 163.167 120.011 163.5 119.33C163.837 118.648 164.307 118.116 164.909 117.733C165.515 117.35 166.223 117.159 167.034 117.159C167.527 117.159 168.004 117.241 168.466 117.403C168.928 117.566 169.343 117.822 169.71 118.17C170.078 118.519 170.367 118.972 170.58 119.528C170.792 120.081 170.898 120.754 170.898 121.545V122.148H163.96V120.875H169.233C169.233 120.428 169.142 120.032 168.96 119.688C168.778 119.339 168.523 119.064 168.193 118.864C167.867 118.663 167.485 118.562 167.045 118.562C166.568 118.562 166.152 118.68 165.795 118.915C165.443 119.146 165.17 119.449 164.977 119.824C164.788 120.195 164.693 120.598 164.693 121.034V122.028C164.693 122.612 164.795 123.108 165 123.517C165.208 123.926 165.498 124.239 165.869 124.455C166.241 124.667 166.674 124.773 167.17 124.773C167.492 124.773 167.786 124.727 168.051 124.636C168.316 124.542 168.545 124.402 168.739 124.216C168.932 124.03 169.08 123.801 169.182 123.528L170.79 123.818C170.661 124.292 170.43 124.706 170.097 125.062C169.767 125.415 169.352 125.689 168.852 125.886C168.356 126.08 167.79 126.176 167.153 126.176ZM174.482 120.818V126H172.783V117.273H174.413V118.693H174.521C174.722 118.231 175.036 117.86 175.464 117.58C175.896 117.299 176.44 117.159 177.095 117.159C177.69 117.159 178.211 117.284 178.658 117.534C179.105 117.78 179.451 118.148 179.697 118.636C179.944 119.125 180.067 119.729 180.067 120.449V126H178.368V120.653C178.368 120.021 178.203 119.527 177.874 119.17C177.544 118.811 177.091 118.631 176.516 118.631C176.122 118.631 175.771 118.716 175.464 118.886C175.161 119.057 174.921 119.307 174.743 119.636C174.569 119.962 174.482 120.356 174.482 120.818ZM186.419 117.273V118.636H181.652V117.273H186.419ZM182.93 115.182H184.629V123.438C184.629 123.767 184.679 124.015 184.777 124.182C184.875 124.345 185.002 124.456 185.158 124.517C185.317 124.574 185.489 124.602 185.675 124.602C185.811 124.602 185.93 124.593 186.033 124.574C186.135 124.555 186.214 124.54 186.271 124.528L186.578 125.932C186.48 125.97 186.339 126.008 186.158 126.045C185.976 126.087 185.749 126.11 185.476 126.114C185.029 126.121 184.612 126.042 184.226 125.875C183.839 125.708 183.527 125.451 183.288 125.102C183.05 124.754 182.93 124.316 182.93 123.79V115.182ZM191.966 126.176C191.106 126.176 190.366 125.992 189.744 125.625C189.127 125.254 188.65 124.733 188.312 124.062C187.979 123.388 187.812 122.598 187.812 121.693C187.812 120.799 187.979 120.011 188.312 119.33C188.65 118.648 189.119 118.116 189.722 117.733C190.328 117.35 191.036 117.159 191.847 117.159C192.339 117.159 192.816 117.241 193.278 117.403C193.741 117.566 194.155 117.822 194.523 118.17C194.89 118.519 195.18 118.972 195.392 119.528C195.604 120.081 195.71 120.754 195.71 121.545V122.148H188.773V120.875H194.045C194.045 120.428 193.955 120.032 193.773 119.688C193.591 119.339 193.335 119.064 193.006 118.864C192.68 118.663 192.297 118.562 191.858 118.562C191.381 118.562 190.964 118.68 190.608 118.915C190.256 119.146 189.983 119.449 189.79 119.824C189.6 120.195 189.506 120.598 189.506 121.034V122.028C189.506 122.612 189.608 123.108 189.812 123.517C190.021 123.926 190.311 124.239 190.682 124.455C191.053 124.667 191.487 124.773 191.983 124.773C192.305 124.773 192.598 124.727 192.864 124.636C193.129 124.542 193.358 124.402 193.551 124.216C193.744 124.03 193.892 123.801 193.994 123.528L195.602 123.818C195.473 124.292 195.242 124.706 194.909 125.062C194.58 125.415 194.165 125.689 193.665 125.886C193.169 126.08 192.602 126.176 191.966 126.176ZM197.595 126V117.273H199.237V118.659H199.328C199.487 118.189 199.768 117.82 200.169 117.551C200.574 117.278 201.033 117.142 201.544 117.142C201.65 117.142 201.775 117.146 201.919 117.153C202.067 117.161 202.182 117.17 202.266 117.182V118.807C202.197 118.788 202.076 118.767 201.902 118.744C201.728 118.718 201.554 118.705 201.379 118.705C200.978 118.705 200.62 118.79 200.305 118.96C199.995 119.127 199.749 119.36 199.567 119.659C199.385 119.955 199.294 120.292 199.294 120.67V126H197.595ZM207.185 126.176C206.325 126.176 205.584 125.992 204.963 125.625C204.346 125.254 203.868 124.733 203.531 124.062C203.198 123.388 203.031 122.598 203.031 121.693C203.031 120.799 203.198 120.011 203.531 119.33C203.868 118.648 204.338 118.116 204.94 117.733C205.546 117.35 206.255 117.159 207.065 117.159C207.558 117.159 208.035 117.241 208.497 117.403C208.959 117.566 209.374 117.822 209.741 118.17C210.109 118.519 210.399 118.972 210.611 119.528C210.823 120.081 210.929 120.754 210.929 121.545V122.148H203.991V120.875H209.264C209.264 120.428 209.173 120.032 208.991 119.688C208.81 119.339 208.554 119.064 208.224 118.864C207.899 118.663 207.516 118.562 207.077 118.562C206.599 118.562 206.183 118.68 205.827 118.915C205.474 119.146 205.202 119.449 205.009 119.824C204.819 120.195 204.724 120.598 204.724 121.034V122.028C204.724 122.612 204.827 123.108 205.031 123.517C205.24 123.926 205.529 124.239 205.901 124.455C206.272 124.667 206.705 124.773 207.202 124.773C207.524 124.773 207.817 124.727 208.082 124.636C208.348 124.542 208.577 124.402 208.77 124.216C208.963 124.03 209.111 123.801 209.213 123.528L210.821 123.818C210.692 124.292 210.461 124.706 210.128 125.062C209.798 125.415 209.384 125.689 208.884 125.886C208.387 126.08 207.821 126.176 207.185 126.176ZM216.081 126.17C215.376 126.17 214.748 125.991 214.195 125.631C213.645 125.267 213.214 124.75 212.899 124.08C212.589 123.405 212.433 122.597 212.433 121.653C212.433 120.71 212.59 119.903 212.905 119.233C213.223 118.562 213.659 118.049 214.212 117.693C214.765 117.337 215.392 117.159 216.092 117.159C216.634 117.159 217.07 117.25 217.399 117.432C217.732 117.61 217.99 117.818 218.172 118.057C218.357 118.295 218.501 118.506 218.604 118.688H218.706V114.364H220.405V126H218.746V124.642H218.604C218.501 124.828 218.354 125.04 218.161 125.278C217.971 125.517 217.71 125.725 217.376 125.903C217.043 126.081 216.611 126.17 216.081 126.17ZM216.456 124.722C216.945 124.722 217.357 124.593 217.695 124.335C218.036 124.074 218.293 123.712 218.467 123.25C218.645 122.788 218.734 122.25 218.734 121.636C218.734 121.03 218.647 120.5 218.473 120.045C218.299 119.591 218.043 119.237 217.706 118.983C217.369 118.729 216.952 118.602 216.456 118.602C215.945 118.602 215.518 118.735 215.178 119C214.837 119.265 214.579 119.627 214.405 120.085C214.234 120.544 214.149 121.061 214.149 121.636C214.149 122.22 214.236 122.744 214.411 123.21C214.585 123.676 214.842 124.045 215.183 124.318C215.528 124.587 215.952 124.722 216.456 124.722Z" fill="#1E62B9"/>
</g>
<circle cx="293" cy="38" r="37" fill="white" stroke="#1E62B9" stroke-width="2"/>
<path d="M295.828 23L295.313 45.5937H290.281L289.781 23H295.828ZM292.797 55.3438C291.849 55.3438 291.036 55.0104 290.359 54.3437C289.693 53.6771 289.359 52.8646 289.359 51.9062C289.359 50.9687 289.693 50.1667 290.359 49.5C291.036 48.8333 291.849 48.5 292.797 48.5C293.724 48.5 294.526 48.8333 295.203 49.5C295.891 50.1667 296.234 50.9687 296.234 51.9062C296.234 52.5417 296.073 53.1198 295.75 53.6406C295.438 54.1615 295.021 54.5781 294.5 54.8906C293.99 55.1927 293.422 55.3438 292.797 55.3438Z" fill="#1E62B9"/>
<defs>
<filter id="filter0_d_1996_2498" x="78" y="90" width="164" height="61" filterUnits="userSpaceOnUse" color-interpolation-filters="sRGB">
<feFlood flood-opacity="0" result="BackgroundImageFix"/>
<feColorMatrix in="SourceAlpha" type="matrix" values="0 0 0 0 0 0 0 0 0 0 0 0 0 0 0 0 0 0 127 0" result="hardAlpha"/>
<feOffset/>
<feGaussianBlur stdDeviation="5"/>
<feComposite in2="hardAlpha" operator="out"/>
<feColorMatrix type="matrix" values="0 0 0 0 0 0 0 0 0 0 0 0 0 0 0 0 0 0 0.04 0"/>
<feBlend mode="normal" in2="BackgroundImageFix" result="effect1_dropShadow_1996_2498"/>
<feBlend mode="normal" in="SourceGraphic" in2="effect1_dropShadow_1996_2498" result="shape"/>
</filter>
<linearGradient id="paint0_linear_1996_2498" x1="348.02" y1="179.255" x2="283.861" y2="177.54" gradientUnits="userSpaceOnUse">
<stop stop-color="#9CC7FF"/>
<stop offset="1" stop-color="#1E62B9"/>
</linearGradient>
<linearGradient id="paint1_linear_1996_2498" x1="348.71" y1="136.186" x2="244.566" y2="146.446" gradientUnits="userSpaceOnUse">
<stop stop-color="#9CC7FF"/>
<stop offset="1" stop-color="#1E62B9"/>
</linearGradient>
</defs>
</svg>
