<svg width="23" height="24" viewBox="0 0 23 24" fill="none" xmlns="http://www.w3.org/2000/svg">
<path d="M10.8616 23.9997C10.6354 23.9997 10.4091 23.9997 10.1828 23.9997C7.91995 23.9997 5.65711 23.9997 3.39426 23.9997C1.69713 23.9997 0.339426 22.8936 0 21.2345C0 21.0133 0 20.7921 0 20.5708C0 16.5889 0 12.607 0 8.62503C0 8.51442 0 8.51442 0 8.40381C6.67538 8.40381 13.2376 8.40381 19.7999 8.40381C19.7999 9.5099 19.7999 10.5054 19.7999 11.6115C18.8947 11.8327 18.2159 12.3857 17.6502 13.0494C15.7268 14.9298 13.8033 16.8101 11.8799 18.6905C11.3142 19.2435 10.9748 19.9072 10.8616 20.6815C10.7485 21.2345 10.6354 21.7875 10.5222 22.3406C10.4091 22.8936 10.5222 23.4467 10.8616 23.9997ZM9.84336 12.4964C11.4274 12.4964 12.8982 12.4964 14.4822 12.4964C14.5953 12.4964 14.7085 12.4964 14.8216 12.4964C15.161 12.4964 15.3873 12.1645 15.5005 11.8327C15.5005 11.5009 15.2742 11.169 14.9348 11.0584C14.8216 11.0584 14.7085 11.0584 14.4822 11.0584C11.4274 11.0584 8.37252 11.0584 5.20454 11.0584C5.09139 11.0584 4.97825 11.0584 4.86511 11.0584C4.52568 11.0584 4.18626 11.3903 4.18626 11.7221C4.18626 12.1645 4.52568 12.4964 4.97825 12.4964C6.67538 12.4964 8.25937 12.4964 9.84336 12.4964ZM8.48566 16.5889C9.16451 16.5889 9.73022 16.5889 10.4091 16.5889C10.9748 16.5889 11.4274 16.5889 11.9931 16.5889C12.3325 16.5889 12.6719 16.3677 12.6719 15.9252C12.6719 15.5934 12.5588 15.2616 12.2193 15.151C12.1062 15.151 11.8799 15.0404 11.7668 15.0404C9.61708 15.0404 7.46738 15.0404 5.20454 15.0404C5.09139 15.0404 5.0914 15.0404 4.97825 15.0404C4.52568 15.0404 4.18626 15.4828 4.2994 15.9252C4.41254 16.2571 4.63883 16.4783 5.09139 16.4783C6.22282 16.5889 7.35424 16.5889 8.48566 16.5889ZM6.90167 20.6815C7.46738 20.6815 8.03309 20.6815 8.5988 20.6815C9.05137 20.6815 9.3908 20.3496 9.3908 19.9072C9.3908 19.4647 9.05137 19.1329 8.5988 19.1329C7.46738 19.1329 6.22282 19.1329 5.09139 19.1329C4.63883 19.1329 4.2994 19.4647 4.2994 19.9072C4.2994 20.3496 4.63883 20.5708 5.09139 20.5708C5.65711 20.6815 6.33596 20.6815 6.90167 20.6815Z" fill="#888888"/>
<path d="M15.8399 1.54853C16.4056 1.65914 16.8582 1.65914 17.3107 1.76975C18.7816 2.10158 19.6867 3.42889 19.7999 4.86681C19.7999 5.53047 19.7999 6.19413 19.7999 6.85778C13.2376 6.85778 6.56224 6.85778 0 6.85778C0 5.97291 2.52892e-08 5.08803 0.113142 4.20316C0.339426 2.76524 1.81027 1.65914 3.39426 1.65914C3.62055 1.65914 3.73369 1.65914 3.95997 1.65914C3.95997 1.43792 3.95997 1.10609 3.95997 0.884875C3.95997 0.331828 4.2994 0 4.75197 0C5.20454 0 5.54396 0.331828 5.54396 0.884875C5.54396 1.10609 5.54396 1.32731 5.54396 1.65914C6.78853 1.65914 7.91995 1.65914 9.16451 1.65914C9.16451 1.43792 9.16451 1.2167 9.16451 0.884875C9.16451 0.331828 9.50394 -4.12052e-08 9.9565 0.110609C10.4091 0.110609 10.7485 0.442438 10.7485 0.884875C10.7485 1.10609 10.7485 1.32731 10.7485 1.65914C11.9931 1.65914 13.1245 1.65914 14.369 1.65914C14.369 1.43792 14.369 1.10609 14.369 0.884875C14.369 0.442438 14.7085 0.110609 15.161 0.110609C15.6136 0.110609 15.953 0.442438 15.953 0.774266C15.8399 0.995485 15.8399 1.32731 15.8399 1.54853Z" fill="#888888"/>
<path d="M17.3113 15.4824C18.3296 16.4779 19.3479 17.4734 20.253 18.3583L20.1399 18.4689C18.6691 19.9068 17.1982 21.3447 15.7274 22.7826C15.6142 22.8933 15.3879 23.0039 15.1616 23.1145C14.4828 23.2251 13.6908 23.3357 13.0119 23.4463C12.4462 23.5569 11.9937 23.1145 12.1068 22.5614C12.22 21.8978 12.3331 21.2341 12.4462 20.4598C12.4462 20.2386 12.5594 20.0174 12.7857 19.7962C14.1434 18.4689 15.7274 17.031 17.3113 15.4824C17.1982 15.593 17.1982 15.593 17.3113 15.4824Z" fill="#888888"/>
<path d="M21.3875 17.3648C20.3692 16.3693 19.3509 15.3739 18.4458 14.489C18.7852 14.1572 19.1247 13.8253 19.4641 13.4935C20.2561 12.8298 21.6138 12.8298 22.4058 13.6041C23.1978 14.3784 23.1978 15.5951 22.4058 16.3693C22.0663 16.7012 21.7269 17.033 21.3875 17.3648Z" fill="#888888"/>
</svg>
