<svg width="24" height="24" viewBox="0 0 24 24" fill="none" xmlns="http://www.w3.org/2000/svg">
<path fill-rule="evenodd" clip-rule="evenodd" d="M22.7658 15.3279C21.936 14.2948 20.8343 13.6946 19.5163 13.4572V13.1501V2.08001C19.5163 0.830608 18.7004 0 17.4662 0H2.04141C0.828071 0 0.00522992 0.823628 0.00522992 2.03115C-0.00174331 8.67602 -0.00174331 15.3139 0.00522992 21.9518C0.00522992 22.1821 0.0331228 22.4194 0.102855 22.6428C0.367838 23.5013 1.107 23.9969 2.08325 23.9969C3.85316 23.9969 5.62384 23.9977 7.39478 23.9984H7.39555H7.39633H7.39711H7.39788C10.9426 24 14.4884 24.0016 18.031 23.9969C18.0934 23.9969 18.1561 23.9971 18.2189 23.9974H18.2194H18.2199H18.2204H18.2209C18.6347 23.999 19.0555 24.0006 19.4605 23.9341C21.4618 23.613 22.8844 22.4962 23.6096 20.6116C24.3418 18.7131 24.035 16.9193 22.7658 15.3279ZM18.1417 15.1237C16.3996 15.3829 15.0674 16.8674 15.0674 18.6852C15.0674 20.7094 16.6712 22.3217 18.6795 22.3147C18.9431 22.3147 19.1999 22.287 19.4471 22.2342C21.0843 21.8857 22.3012 20.4398 22.3012 18.6986C22.3012 16.6884 20.6974 15.083 18.6891 15.083C18.503 15.083 18.3202 15.0969 18.1417 15.1237ZM14.4886 10.5955H9.73288C9.18432 10.5955 8.63576 10.5963 8.0872 10.597C6.99008 10.5986 5.89296 10.6001 4.79584 10.5955C4.18219 10.5955 3.78472 10.1069 3.93116 9.5485C3.98761 9.33659 4.09803 9.17869 4.26027 9.07265C4.33914 9.02062 4.43036 8.98093 4.53368 8.95336C4.61736 8.93242 4.70801 8.91846 4.79169 8.91846H14.7216C15.2515 8.91846 15.6211 9.27443 15.6141 9.76303C15.6141 10.0243 15.496 10.256 15.3064 10.4069C15.1771 10.5113 15.0137 10.577 14.8303 10.5885C14.7187 10.5955 14.6002 10.5955 14.4886 10.5955ZM13.416 6.13533H9.76775H9.76741C8.5426 6.13533 7.32155 6.13533 6.09874 6.13256H4.77655C4.49882 6.13256 4.26446 6.02178 4.1081 5.84805C3.92568 5.64763 3.84855 5.36111 3.93116 5.06043C3.94543 5.01184 3.96374 4.96546 3.98572 4.92158C4.08581 4.71325 4.26911 4.56252 4.49926 4.49849C4.57924 4.47492 4.66468 4.46172 4.754 4.46016C5.09775 4.45551 5.43841 4.45705 5.7801 4.4586C5.95133 4.45938 6.12281 4.46016 6.29508 4.46016H14.7048C15.1087 4.46016 15.429 4.66915 15.5523 4.98865C15.5811 5.06201 15.5994 5.14125 15.606 5.22517C15.6408 5.74867 15.2782 6.13954 14.7343 6.13954C14.2944 6.13769 13.855 6.13633 13.416 6.13533ZM4.77711 13.3936C4.61251 13.3958 4.4629 13.4341 4.33565 13.5011C4.0695 13.6369 3.8988 13.9001 3.88932 14.2181C3.87537 14.6787 4.25192 15.0766 4.754 15.0766C7.15279 15.0836 9.5446 15.0836 11.9434 15.0696C12.159 15.0696 12.4163 14.9446 12.5837 14.7916L12.5941 14.7826C12.8521 14.5592 12.9009 14.2311 12.7615 13.917C12.615 13.589 12.357 13.4005 11.9874 13.4005H8.35438C7.75729 13.4005 7.15846 13.3988 6.5605 13.397C5.9643 13.3953 5.36897 13.3936 4.77711 13.3936ZM10.751 19.5367H7.7734H4.85162C4.67436 19.5367 4.51452 19.5032 4.37833 19.4422C4.09312 19.3164 3.91142 19.0706 3.89175 18.7593C3.89014 18.7372 3.88932 18.7149 3.88932 18.6922C3.89046 18.6106 3.90162 18.5334 3.92194 18.4614C4.02422 18.0939 4.36425 17.8589 4.83145 17.8589H10.7657C11.3166 17.8589 11.7001 18.2009 11.7071 18.6895C11.7083 18.775 11.6976 18.8562 11.6762 18.932C11.5748 19.2967 11.2252 19.5367 10.751 19.5367Z" fill="#888888"/>
<path d="M18.0959 18.6597C18.6746 18.0734 19.2046 17.536 19.7485 17.0055C20.2366 16.5239 21.0107 16.7403 21.1641 17.3894C21.2338 17.6826 21.1571 17.9478 20.9479 18.1572C20.2018 18.911 19.4556 19.6648 18.6956 20.4117C18.3608 20.7397 17.8797 20.7258 17.545 20.4047C17.1614 20.0348 16.7849 19.6579 16.4153 19.281C16.0806 18.932 16.0876 18.4364 16.4083 18.1083C16.7361 17.7733 17.2451 17.7663 17.6008 18.1083C17.7751 18.2758 17.9215 18.4643 18.0959 18.6597Z" fill="#888888"/>
</svg>
