<svg width="24" height="24" viewBox="0 0 24 24" fill="none" xmlns="http://www.w3.org/2000/svg">
<path fill-rule="evenodd" clip-rule="evenodd" d="M20.5276 5.10844C20.3228 5.31492 20.1115 5.52785 19.8853 5.7541V5.42781C19.8853 5.01645 19.886 4.60439 19.8867 4.19211V4.19142V4.19072V4.19057V4.19042C19.888 3.36432 19.8894 2.53729 19.8853 1.71305C19.879 0.690241 19.1825 0 18.1659 0H1.70054C0.702832 0 -0.0062336 0.702791 4.13184e-05 1.69423V22.3011C4.13184e-05 23.2862 0.702832 23.9953 1.68799 23.9953C7.1911 24.0016 12.7005 24.0016 18.2036 23.9953C18.3856 23.9953 18.5675 23.9702 18.7369 23.92C19.4648 23.7004 19.8915 23.0729 19.8915 22.232C19.8915 18.4922 19.8915 14.7523 19.8853 11.0125C19.8853 10.8431 19.9355 10.7238 20.0547 10.6046L23.6314 7.02791C24.1208 6.53847 24.1208 5.9549 23.6314 5.45918C23.3302 5.15171 23.0227 4.84424 22.7152 4.54304C22.1882 4.01595 21.6171 4.00967 21.0963 4.53677C20.9077 4.72542 20.7205 4.91407 20.5276 5.10844ZM2.07704 13.4878V2.077H2.08042V2.0752H17.8054L17.8055 2.077H17.8145L17.816 2.09287C17.8217 2.15574 17.8271 2.2141 17.8271 2.2778C17.8271 4.05987 17.8271 5.83568 17.8208 7.61775C17.8208 7.73698 17.7581 7.8813 17.6765 7.96287C16.7321 8.91039 15.7877 9.85633 14.8434 10.8023C13.899 11.7482 12.9546 12.6942 12.0102 13.6417C11.8973 13.7609 11.8032 13.9115 11.7404 14.0684C11.6435 14.3141 11.5562 14.5617 11.4689 14.8091C11.3979 15.0103 11.327 15.2114 11.251 15.4112C11.2259 15.4802 11.1568 15.5555 11.0941 15.5806C10.8519 15.6703 10.6064 15.7504 10.3623 15.8301L10.3623 15.8301C10.265 15.8619 10.1679 15.8935 10.0713 15.9257C9.98543 15.9539 9.90166 15.9712 9.82057 15.9774C9.55422 16.0017 9.31632 15.9023 9.12716 15.6792C8.93264 15.4471 8.75694 15.1961 8.59379 14.9388C8.5204 14.8198 8.44826 14.7352 8.37421 14.6856C8.2167 14.5878 8.04996 14.6443 7.84369 14.859C7.67915 15.0341 7.51461 15.2071 7.34571 15.3848L7.34526 15.3853C7.21157 15.5259 7.07515 15.6694 6.93383 15.8191L6.93264 15.8088L6.92466 15.8173C6.85564 15.2274 6.79289 14.6752 6.73641 14.123C6.71759 13.916 6.64856 13.7528 6.43522 13.6963L6.42279 13.6936C6.22164 13.6562 6.08934 13.7732 5.98631 13.9429C5.80434 14.2409 5.61924 14.5358 5.43413 14.8308C5.24902 15.1257 5.0639 15.4206 4.88193 15.7187C4.64348 16.1077 4.31719 16.3085 3.85284 16.2897C3.65832 16.2834 3.45752 16.2834 3.263 16.2897C3.01828 16.3022 2.87395 16.4528 2.87395 16.6725C2.87947 16.8654 2.9964 17.0003 3.19071 17.0344C3.21479 17.038 3.24003 17.0402 3.26638 17.0409H3.26644C3.54252 17.0472 3.81859 17.0534 4.0884 17.0346C4.68451 16.9907 5.13631 16.702 5.45633 16.2C5.62447 15.9402 5.78434 15.6803 5.96282 15.3902L5.96285 15.3902L6.0901 15.1835L6.09174 15.1973L6.09926 15.1853L6.11564 15.3227C6.17183 15.7939 6.22234 16.2175 6.26241 16.6411C6.27496 16.8231 6.34398 16.9611 6.51968 17.0239C6.53364 17.029 6.54743 17.0333 6.56105 17.0367C6.71414 17.0707 6.84217 17.0029 6.94976 16.884C7.16352 16.6562 7.37923 16.4285 7.59909 16.1963L7.59971 16.1957L7.60009 16.1953L7.60049 16.1948L7.6008 16.1945C7.77408 16.0115 7.94994 15.8258 8.12945 15.6353L8.13365 15.6424L8.13861 15.6371C8.51579 16.2681 8.9702 16.6258 9.50184 16.7136C9.91451 16.7785 10.3737 16.6821 10.8779 16.4259L10.8784 16.4321L10.887 16.4277C10.9118 16.7795 11.0305 17.0374 11.2831 17.1643C11.3481 17.1964 11.4219 17.2202 11.5054 17.2354L11.5224 17.2382C11.6174 17.25 11.7237 17.2414 11.8231 17.2205C11.8631 17.211 11.9019 17.1991 11.9383 17.1852C12.685 16.9279 13.4255 16.6581 14.1659 16.382C14.2851 16.3381 14.3981 16.2502 14.4859 16.1624C15.5213 15.1333 16.5504 14.1042 17.5795 13.0689C17.6213 13.027 17.652 12.9796 17.6827 12.9322L17.6827 12.9322C17.698 12.9085 17.7133 12.8848 17.7301 12.8618L17.7371 12.8665L17.7392 12.8636C17.7581 12.8824 17.7769 12.895 17.7957 12.9075V19.7409H2.07704V19.7391H2.06787C2.07232 17.6549 2.07519 15.5715 2.07704 13.4878ZM19.6679 7.10116L12.8188 13.9502L12.7444 14.0244C12.9741 14.2542 13.207 14.4887 13.4391 14.7223L13.4393 14.7225L13.4394 14.7226C13.67 14.9547 13.8998 15.1861 14.1249 15.4112L14.1278 15.4083L14.1279 15.4084L21.8523 7.68396L21.8521 7.68375L21.8519 7.68354C21.3939 7.2256 20.9235 6.75513 20.4718 6.2972L20.4689 6.30011L20.4688 6.30002L19.6679 7.10116ZM10.2282 22.08L10.2274 22.0801C10.1314 22.0807 10.0355 22.0814 9.93951 22.0814C9.84086 22.0814 9.74291 22.0807 9.64543 22.08H9.64525H9.64506C9.62099 22.0799 9.59696 22.0797 9.57294 22.0795H9.18508C9.14581 22.08 9.10655 22.0806 9.0673 22.0814C8.91043 22.0814 8.7912 22.0312 8.79748 21.8618C8.80274 21.7303 8.88302 21.6737 8.9939 21.6589C9.01804 21.6548 9.04374 21.6528 9.07051 21.6528H10.8275C10.9718 21.6528 11.0848 21.7156 11.0848 21.8662C11.0848 21.9743 11.0362 22.0314 10.9618 22.0584C10.9182 22.0752 10.8645 22.0814 10.8055 22.0814C10.613 22.0773 10.4206 22.0787 10.2282 22.08Z" fill="#888888"/>
<path d="M9.95239 5.90234C11.6215 5.90234 13.2906 5.90234 14.9598 5.90234C15.0476 5.90234 15.1355 5.90234 15.217 5.91489C15.4116 5.94627 15.5245 6.06549 15.5308 6.26629C15.5371 6.47336 15.4304 6.60513 15.2233 6.64906C15.1543 6.66161 15.0853 6.66161 15.01 6.66161C11.6215 6.66161 8.23934 6.66161 4.85088 6.66161C4.76303 6.66161 4.65008 6.68043 4.59988 6.63023C4.49321 6.53611 4.36771 6.41061 4.34261 6.27884C4.31124 6.10942 4.42418 5.96509 4.61243 5.92117C4.71283 5.90234 4.81323 5.90234 4.91363 5.90234C6.60158 5.90234 8.27698 5.90234 9.95239 5.90234Z" fill="#888888"/>
<path d="M9.95386 8.81144C8.26591 8.81144 6.58423 8.81144 4.89628 8.81144C4.80843 8.81144 4.72058 8.81772 4.639 8.79889C4.45076 8.76752 4.32526 8.62947 4.35036 8.45377C4.36918 8.322 4.48213 8.19022 4.58881 8.08982C4.64528 8.03963 4.77078 8.05218 4.85863 8.05218C8.24708 8.05218 11.6293 8.05218 15.0177 8.05218C15.1118 8.05218 15.2122 8.05218 15.2938 8.08355C15.4695 8.1463 15.5511 8.28435 15.5323 8.4726C15.5134 8.64829 15.413 8.76124 15.2436 8.79262C15.162 8.81144 15.0742 8.80517 14.9863 8.80517C13.3047 8.81144 11.6293 8.81144 9.95386 8.81144Z" fill="#888888"/>
<path d="M9.95937 3.75059C11.6348 3.75059 13.3165 3.75059 14.9919 3.75059C15.0609 3.75059 15.1362 3.74432 15.2052 3.75687C15.3935 3.77569 15.5064 3.88864 15.5315 4.07061C15.5566 4.26514 15.475 4.41573 15.2868 4.47221C15.1864 4.50358 15.0734 4.50358 14.9605 4.50358C11.616 4.50358 8.26515 4.50358 4.92061 4.50358C4.81394 4.50358 4.70099 4.49731 4.59432 4.47221C4.41234 4.42201 4.3245 4.27769 4.34332 4.09571C4.36215 3.90747 4.46882 3.77569 4.66962 3.75687C4.74492 3.75059 4.82649 3.75059 4.90179 3.75059C6.58974 3.75059 8.2777 3.75059 9.95937 3.75059Z" fill="#888888"/>
</svg>
