<svg width="19" height="24" viewBox="0 0 19 24" fill="none" xmlns="http://www.w3.org/2000/svg">
<path d="M18.6667 24C12.4444 24 6.22222 24 0 24C0 16 0 8 0 0C4.30769 0 8.61539 0 12.9231 0C12.9231 1.86875 12.9231 3.74375 12.9231 5.63125C14.8504 5.63125 16.7521 5.63125 18.6667 5.63125C18.6667 11.7687 18.6667 17.8813 18.6667 24ZM15.7757 14.15C15.7757 13.675 15.7757 13.2125 15.7757 12.7375C15.2907 12.7375 14.8248 12.7375 14.3398 12.7375C14.3398 12.2625 14.3398 11.8063 14.3398 11.3625C13.8548 11.3625 13.3889 11.3625 12.9039 11.3625C12.9039 11.8375 12.9039 12.2937 12.9039 12.7375C10.5044 12.7375 8.12399 12.7375 5.72445 12.7375C5.72445 12.2625 5.72445 11.8063 5.72445 11.3625C5.23943 11.3625 4.77356 11.3625 4.28855 11.3625C4.28855 11.8375 4.28855 12.2937 4.28855 12.7688C3.80353 12.7688 3.33766 12.7688 2.88456 12.7688C2.88456 13.2438 2.88456 13.7 2.88456 14.175C3.36957 14.175 3.83544 14.175 4.28855 14.175C4.28855 15.5875 4.28855 16.9812 4.28855 18.3937C3.80353 18.3937 3.33766 18.3937 2.88456 18.3937C2.88456 18.8687 2.88456 19.325 2.88456 19.8C3.36957 19.8 3.83544 19.8 4.32046 19.8C4.32046 20.275 4.32046 20.7312 4.32046 21.175C4.80547 21.175 5.27134 21.175 5.75635 21.175C5.75635 20.7 5.75635 20.2437 5.75635 19.8C8.1559 19.8 10.5363 19.8 12.9358 19.8C12.9358 20.275 12.9358 20.7312 12.9358 21.175C13.4209 21.175 13.8867 21.175 14.3717 21.175C14.3717 20.7 14.3717 20.2437 14.3717 19.7687C14.8568 19.7687 15.3226 19.7687 15.7757 19.7687C15.7757 19.2937 15.7757 18.8375 15.7757 18.3625C15.2907 18.3625 14.8248 18.3625 14.3717 18.3625C14.3717 16.95 14.3717 15.5562 14.3717 14.15C14.8504 14.15 15.3099 14.15 15.7757 14.15ZM5.75635 8.44375C5.75635 8.925 5.75635 9.38125 5.75635 9.83125C9.10678 9.83125 12.4444 9.83125 15.7757 9.83125C15.7757 9.3625 15.7757 8.90625 15.7757 8.44375C12.4317 8.44375 9.1004 8.44375 5.75635 8.44375ZM11.4744 2.83125C9.55989 2.83125 7.65174 2.83125 5.74997 2.83125C5.74997 3.3 5.74997 3.75 5.74997 4.2C7.6645 4.2 9.57265 4.2 11.4744 4.2C11.4744 3.73125 11.4744 3.28125 11.4744 2.83125ZM5.74359 7.01875C7.67089 7.01875 9.57265 7.01875 11.468 7.01875C11.468 6.55 11.468 6.09375 11.468 5.6375C9.55351 5.6375 7.65174 5.6375 5.74359 5.6375C5.74359 6.1 5.74359 6.55625 5.74359 7.01875ZM2.88456 2.81875C2.88456 3.3 2.88456 3.75625 2.88456 4.20625C3.36319 4.20625 3.82906 4.20625 4.29493 4.20625C4.29493 3.7375 4.29493 3.28125 4.29493 2.81875C3.8163 2.81875 3.35681 2.81875 2.88456 2.81875ZM2.88456 5.63125C2.88456 6.10625 2.88456 6.5625 2.88456 7.01875C3.36319 7.01875 3.82906 7.01875 4.29493 7.01875C4.29493 6.55 4.29493 6.09375 4.29493 5.63125C3.8163 5.63125 3.35681 5.63125 2.88456 5.63125ZM2.88456 8.44375C2.88456 8.91875 2.88456 9.375 2.88456 9.83125C3.36319 9.83125 3.82906 9.83125 4.29493 9.83125C4.29493 9.3625 4.29493 8.90625 4.29493 8.44375C3.8163 8.44375 3.35681 8.44375 2.88456 8.44375Z" fill="#888888"/>
<path d="M18.128 4.21094C16.9155 4.21094 15.6455 4.21094 14.3628 4.21094C14.3628 2.95469 14.3628 1.71094 14.3628 0.523438C15.6072 1.73594 16.8772 2.97969 18.128 4.21094Z" fill="#888888"/>
<path d="M5.74316 18.3598C5.74316 16.9535 5.74316 15.566 5.74316 14.166C8.12994 14.166 10.5103 14.166 12.9035 14.166C12.9035 15.5598 12.9035 16.9535 12.9035 18.3598C10.5295 18.3598 8.14909 18.3598 5.74316 18.3598Z" fill="#888888"/>
</svg>
