<svg width="24" height="24" viewBox="0 0 24 24" fill="none" xmlns="http://www.w3.org/2000/svg">
<path d="M12.8457 11.1602C12.8457 10.588 12.8457 10.0438 12.8457 9.49252C15.0507 9.55532 16.1881 7.83876 16.1881 6.40132C16.1811 4.9569 14.9949 3.2543 12.8457 3.34501C12.8457 2.24251 12.8457 1.14001 12.8457 0.0165688C12.9015 0.00959092 12.9573 0.00261299 13.0132 0.00261299C15.6229 0.00261299 18.2256 -0.00436488 20.8354 0.00261299C22.4612 0.00261299 23.6823 1.02836 23.9545 2.59838C23.9824 2.76585 23.9894 2.94727 23.9894 3.12172C23.9894 5.7454 23.9894 8.36908 23.9894 10.9928C23.9894 11.0416 23.9894 11.0905 23.9894 11.1672C23.7242 11.1672 23.487 11.1672 23.2427 11.1672C22.0495 11.1672 20.8563 11.1951 19.6631 11.1602C18.8885 11.1323 18.4489 11.8441 18.8118 12.507C19.0909 13.0163 19.0211 13.5467 18.6583 14.0002C18.2884 14.4538 17.8 14.6213 17.2348 14.4747C16.6696 14.3282 16.2997 13.9514 16.223 13.3722C16.1811 13.0861 16.2439 12.7582 16.3556 12.493C16.6696 11.7533 16.3207 11.1742 15.5043 11.1742C14.6181 11.1602 13.7389 11.1602 12.8457 11.1602Z" fill="#888888"/>
<path d="M12.8328 12.8486C13.398 12.8486 13.9423 12.8486 14.5075 12.8486C14.4586 13.8883 14.8005 14.7745 15.589 15.4514C16.2031 15.9817 16.9288 16.2259 17.7382 16.1841C19.3222 16.1073 20.7596 14.7606 20.648 12.8556C21.7575 12.8556 22.867 12.8556 23.9974 12.8556C23.9974 12.9045 23.9974 12.9463 23.9974 12.9812C23.9974 15.6119 24.0044 18.2495 23.9974 20.8802C23.9904 22.3595 23.0833 23.5387 21.6947 23.8946C21.4365 23.9574 21.1644 23.9923 20.8922 23.9923C18.2476 23.9993 15.61 23.9993 12.9654 23.9993C12.9305 23.9993 12.8956 23.9923 12.8398 23.9923C12.8398 23.8946 12.8398 23.8039 12.8398 23.7062C12.8398 22.3525 12.8398 21.0058 12.8398 19.6521C12.8398 18.8426 12.2536 18.4728 11.514 18.8217C10.9488 19.0869 10.3487 18.9961 9.91604 18.5844C9.49039 18.1797 9.36479 17.5517 9.60203 17.0214C9.8323 16.4911 10.3836 16.1422 10.9627 16.198C11.1721 16.2189 11.3884 16.2957 11.5838 16.3794C12.2187 16.6655 12.8328 16.2957 12.8398 15.5909C12.8328 14.6908 12.8328 13.7837 12.8328 12.8486Z" fill="#888888"/>
<path d="M11.1576 0.00292969C11.1576 0.121553 11.1576 0.226222 11.1576 0.33089C11.1576 1.66366 11.1856 2.99644 11.1437 4.32921C11.1228 5.10375 11.8205 5.55034 12.4904 5.18051C12.9998 4.90139 13.5301 4.9642 13.9837 5.33402C14.4233 5.68989 14.5977 6.17137 14.4652 6.73658C14.3256 7.32272 13.9488 7.69254 13.3627 7.77628C13.0766 7.81814 12.7486 7.75534 12.4834 7.6437C11.7368 7.32969 11.1576 7.67859 11.1576 8.48802C11.1576 9.36723 11.1576 10.2464 11.1576 11.1466C10.5994 11.1466 10.0482 11.1466 9.49691 11.1466C9.55971 8.91367 7.79431 7.77628 6.35687 7.81117C4.84965 7.84606 3.24474 9.10905 3.34941 11.1466C2.2469 11.1466 1.1444 11.1466 0.0209632 11.1466C0.0139853 11.0838 0.00700753 11.021 0.00700753 10.9582C0.00700753 8.36242 2.96549e-05 5.75967 0.00700753 3.16391C0.00700753 1.53806 1.03275 0.316934 2.5958 0.037819C2.77722 0.00990756 2.95865 0.00292969 3.14007 0.00292969C5.75677 0.00292969 8.37348 0.00292969 10.9902 0.00292969C11.032 0.00292969 11.0809 0.00292969 11.1576 0.00292969Z" fill="#888888"/>
<path d="M0 12.8349C0.509385 12.8349 0.990858 12.8349 1.47931 12.8349C2.4283 12.8349 3.38427 12.807 4.33326 12.8419C5.12176 12.8768 5.54043 12.1441 5.17758 11.4952C4.87753 10.9649 5.00313 10.3299 5.42181 9.90422C5.8335 9.48555 6.45453 9.36693 6.98485 9.60418C7.51517 9.84142 7.85708 10.3927 7.80126 10.9718C7.78033 11.1742 7.71055 11.3766 7.62681 11.565C7.32676 12.2139 7.70357 12.828 8.41531 12.828C9.32244 12.8349 10.2296 12.828 11.1437 12.828C11.1437 13.3862 11.1437 13.9305 11.1437 14.5026C10.076 14.4608 9.16892 14.8166 8.48509 15.654C7.98966 16.268 7.77335 16.9798 7.80824 17.7683C7.87104 19.0592 8.96656 20.7199 11.1437 20.6432C11.1437 21.7457 11.1437 22.8482 11.1437 23.9716C11.0878 23.9716 11.032 23.9786 10.9692 23.9786C8.35949 23.9786 5.75674 23.9856 3.14702 23.9786C1.52815 23.9925 0.300048 22.9598 0.0279115 21.3968C0.00697784 21.2572 0 21.1177 0 20.9781C0 18.2777 0 15.5772 0 12.8349Z" fill="#888888"/>
</svg>
