<svg width="22" height="24" viewBox="0 0 22 24" fill="none" xmlns="http://www.w3.org/2000/svg">
<path d="M5.12988 0C9.3956 0 13.6471 0 17.9341 0C17.9341 0.131162 17.9341 0.255421 17.9341 0.386583C17.9341 1.18736 17.9341 1.98814 17.9341 2.79582C17.9341 3.1686 18.0837 3.31357 18.4682 3.31357C19.4225 3.31357 20.3697 3.31357 21.3382 3.31357C21.3382 9.11231 21.3382 14.8972 21.3382 20.696C15.9473 20.696 10.5493 20.696 5.12988 20.696C5.12988 13.7996 5.12988 6.91017 5.12988 0ZM16.0185 7.86282C17.3288 7.86282 18.632 7.86282 19.9424 7.86282C20.3554 7.86282 20.4978 7.72475 20.4978 7.31746C20.4978 6.57881 20.4978 5.83326 20.4978 5.09461C20.4978 4.68732 20.3554 4.54925 19.9424 4.54925C17.3217 4.54925 14.6939 4.54235 12.0732 4.55615C11.9094 4.55615 11.71 4.63899 11.5819 4.74945C11.1902 5.09461 10.8199 5.47429 10.4424 5.84016C10.1718 6.10939 10.1718 6.30268 10.4424 6.57191C10.8056 6.92397 11.1759 7.27604 11.532 7.63501C11.6958 7.80759 11.881 7.86972 12.1231 7.86972C13.4192 7.85591 14.7153 7.86282 16.0185 7.86282ZM16.0114 12.0048C17.3359 12.0048 18.6605 12.0048 19.9851 12.0048C20.3341 12.0048 20.4907 11.8529 20.4907 11.5146C20.4907 10.7415 20.4907 9.96141 20.4907 9.18824C20.4907 8.83618 20.3341 8.69121 19.9637 8.69121C17.3217 8.69121 14.6797 8.68431 12.0376 8.69811C11.881 8.69811 11.6887 8.78095 11.5747 8.8845C11.1831 9.23657 10.8128 9.60934 10.4353 9.97522C10.1505 10.2513 10.1576 10.4377 10.4424 10.7208C10.8056 11.0728 11.1759 11.4249 11.532 11.7839C11.6887 11.9357 11.8525 12.0048 12.0732 12.0048C13.3907 11.9979 14.701 12.0048 16.0114 12.0048ZM10.4567 17.3893C11.767 17.3893 13.0702 17.3962 14.3806 17.3824C14.5515 17.3824 14.7651 17.2996 14.8933 17.1822C15.2921 16.8371 15.6553 16.4574 16.0327 16.0915C16.2962 15.8361 16.2962 15.629 16.0399 15.3805C15.6624 15.0077 15.285 14.628 14.8862 14.269C14.7651 14.1655 14.58 14.0827 14.4162 14.0827C11.7741 14.0689 9.13211 14.0758 6.49007 14.0758C6.12688 14.0758 5.97021 14.2207 5.97021 14.5797C5.97021 15.3321 5.97021 16.0777 5.97021 16.8302C5.97021 17.2651 6.10551 17.3893 6.56128 17.3893C7.85738 17.3893 9.15347 17.3893 10.4567 17.3893ZM9.38135 6.19913C9.38135 5.81255 9.38135 5.42597 9.38135 5.03938C9.38135 4.70112 9.22468 4.54925 8.87574 4.54925C8.07814 4.54925 7.27342 4.54925 6.47583 4.54925C6.12688 4.54925 5.97021 4.70112 5.96309 5.03248C5.96309 5.81945 5.96309 6.59952 5.96309 7.38649C5.96309 7.70404 6.12688 7.86282 6.45446 7.86282C7.2663 7.86282 8.07102 7.86282 8.88286 7.86282C9.22468 7.86282 9.38135 7.70404 9.38135 7.36578C9.38847 6.9792 9.38135 6.58571 9.38135 6.19913ZM9.38135 10.3756C9.38135 9.96831 9.38847 9.56792 9.38135 9.16063C9.37423 8.85689 9.21756 8.69811 8.90422 8.69121C8.08526 8.68431 7.2663 8.68431 6.45446 8.69121C6.12688 8.69121 5.97021 8.84998 5.96309 9.16753C5.96309 9.95451 5.96309 10.7346 5.96309 11.5215C5.96309 11.846 6.11976 11.9979 6.44734 12.0048C7.25918 12.0117 8.0639 12.0048 8.87574 12.0048C9.21756 12.0048 9.37423 11.8529 9.38135 11.5146C9.38847 11.135 9.38135 10.7553 9.38135 10.3756ZM18.7887 14.0758C18.3899 14.0758 17.9911 14.0758 17.5923 14.0758C17.2362 14.0758 17.0796 14.2207 17.0796 14.559C17.0796 15.346 17.0796 16.126 17.0796 16.913C17.0796 17.2375 17.2362 17.3893 17.571 17.3893C18.3828 17.3962 19.1875 17.3893 19.9993 17.3893C20.3412 17.3893 20.4978 17.2305 20.4978 16.8923C20.4978 16.1191 20.4978 15.3391 20.4978 14.5659C20.4978 14.2276 20.3412 14.0758 19.9922 14.0758C19.5863 14.0758 19.1875 14.0758 18.7887 14.0758Z" fill="#888888"/>
<path d="M2.55225 22.3467C2.55225 15.4504 2.55225 8.56782 2.55225 1.66455C3.11484 1.66455 3.67031 1.66455 4.25426 1.66455C4.25426 1.7612 4.25426 1.86475 4.25426 1.96139C4.25426 8.27788 4.25426 14.5944 4.25426 20.9109C4.25426 21.4217 4.3682 21.5321 4.89519 21.5321C9.41727 21.5321 13.9394 21.5321 18.4614 21.5321C18.5611 21.5321 18.6537 21.5321 18.7677 21.5321C18.7677 21.8083 18.7677 22.0706 18.7677 22.3467C13.3768 22.3467 7.97875 22.3467 2.55225 22.3467Z" fill="#888888"/>
<path d="M0 3.31104C0.56259 3.31104 1.11094 3.31104 1.69489 3.31104C1.69489 3.41458 1.69489 3.51813 1.69489 3.61478C1.69489 9.93127 1.69489 16.2478 1.69489 22.5642C1.69489 23.0751 1.80883 23.1855 2.33582 23.1855C6.8579 23.1855 11.38 23.1855 15.9021 23.1855C16.0018 23.1855 16.0943 23.1855 16.2083 23.1855C16.2083 23.4617 16.2083 23.724 16.2083 24.0001C10.8174 24.0001 5.41938 24.0001 0 24.0001C0 17.1107 0 10.2212 0 3.31104Z" fill="#888888"/>
<path d="M18.8032 0.649414C19.4228 1.25 20.0495 1.85749 20.6762 2.46497C20.0708 2.46497 19.4441 2.46497 18.8032 2.46497C18.8032 1.86439 18.8032 1.2569 18.8032 0.649414Z" fill="#888888"/>
<path d="M11.252 6.20583C11.5368 5.93661 11.7861 5.69499 12.0424 5.46028C12.0923 5.41196 12.1777 5.37744 12.2489 5.37744C14.6987 5.37744 17.1413 5.37744 19.5911 5.37744C19.5982 5.37744 19.6053 5.38434 19.6267 5.39815C19.6267 5.9297 19.6267 6.46816 19.6267 7.02732C19.5341 7.02732 19.4487 7.02732 19.3632 7.02732C17.0345 7.02732 14.6987 7.02732 12.37 7.02732C12.1991 7.02732 12.0709 6.9859 11.9498 6.86164C11.7433 6.64764 11.5083 6.44745 11.252 6.20583Z" fill="#888888"/>
<path d="M19.6289 9.51855C19.6289 10.0777 19.6289 10.6093 19.6289 11.1615C19.5505 11.1684 19.4722 11.1753 19.3939 11.1753C17.0438 11.1753 14.6937 11.1753 12.3508 11.1684C12.2226 11.1684 12.0659 11.0925 11.9662 11.0097C11.7241 10.8095 11.5105 10.5817 11.2612 10.34C11.5461 10.0708 11.8096 9.8154 12.0802 9.56688C12.1158 9.53236 12.1941 9.51855 12.2511 9.51855C14.7009 9.51855 17.1506 9.51855 19.6289 9.51855Z" fill="#888888"/>
<path d="M15.2058 15.746C14.921 16.0083 14.6646 16.2568 14.394 16.4916C14.3441 16.5399 14.2515 16.5606 14.1803 16.5606C11.7519 16.5606 9.32354 16.5606 6.89515 16.5606C6.8809 16.5606 6.85954 16.5537 6.83105 16.5468C6.83105 16.0083 6.83105 15.4699 6.83105 14.9176C6.90227 14.9107 6.9806 14.9038 7.05894 14.9038C9.409 14.9038 11.7591 14.9038 14.1091 14.9107C14.2373 14.9107 14.394 14.9866 14.4937 15.0695C14.7358 15.2697 14.9494 15.4975 15.2058 15.746Z" fill="#888888"/>
<path d="M6.83105 5.38232C7.40077 5.38232 7.95623 5.38232 8.51882 5.38232C8.51882 5.93459 8.51882 6.47304 8.51882 7.0184C7.94911 7.0184 7.39364 7.0184 6.83105 7.0184C6.83105 6.47304 6.83105 5.93459 6.83105 5.38232Z" fill="#888888"/>
<path d="M6.83691 9.5249C7.39238 9.5249 7.94073 9.5249 8.51044 9.5249C8.51044 10.0634 8.51044 10.6018 8.51044 11.1541C7.96922 11.1541 7.41375 11.1541 6.83691 11.1541C6.83691 10.6294 6.83691 10.091 6.83691 9.5249Z" fill="#888888"/>
<path d="M19.6188 16.5535C19.0634 16.5535 18.515 16.5535 17.9453 16.5535C17.9453 16.015 17.9453 15.4766 17.9453 14.9243C18.4937 14.9243 19.0491 14.9243 19.6188 14.9243C19.6188 15.449 19.6188 15.9874 19.6188 16.5535Z" fill="#888888"/>
</svg>
