<svg width="24" height="24" viewBox="0 0 24 24" fill="none" xmlns="http://www.w3.org/2000/svg">
<path d="M19.0428 23.9995C14.7093 23.9995 10.3821 23.9995 6.04856 23.9995C6.02355 23.9808 6.00479 23.962 5.97977 23.9495C4.83543 23.5934 4.31641 22.8873 4.31641 21.6876C4.31641 19.6506 4.31641 17.6137 4.31641 15.5767C4.31641 15.5017 4.31641 15.4267 4.31641 15.3268C4.41646 15.3268 4.504 15.3268 4.5853 15.3268C8.49358 15.3268 12.3956 15.3268 16.3039 15.3268C18.0048 15.3268 19.2304 14.1083 19.2304 12.4088C19.2304 10.3031 19.2304 8.19113 19.2304 6.08543C19.2304 4.35463 18.0235 3.14244 16.2851 3.14244C12.3769 3.14244 8.47482 3.14244 4.56654 3.14244C4.48524 3.14244 4.40395 3.14244 4.32266 3.14244C4.32266 2.74255 4.31015 2.37389 4.32266 2.01149C4.35393 1.13672 4.97925 0.336924 5.82344 0.0932373C5.91724 0.0682438 6.01104 0.0307536 6.09858 -0.000488281C11.0074 0.00576009 15.9162 0.00576009 20.825 0.00576009C20.8313 0.0182568 20.8375 0.037002 20.8438 0.0432503C22.0006 0.318179 22.6009 1.08048 22.6072 2.26767C22.6072 6.41659 22.6072 10.5593 22.6072 14.7082C22.6072 14.7894 22.6072 14.8706 22.6072 14.9019C21.9881 14.8894 21.3878 14.8644 20.7875 14.8644C19.4868 14.8644 18.5863 15.7704 18.5801 17.0763C18.5801 17.6512 18.5863 18.2323 18.5738 18.8071C18.5738 18.8758 18.5113 18.9821 18.455 19.0133C17.0981 19.6631 16.7604 21.2377 17.7359 22.3812C18.1424 22.8561 18.5488 23.3309 18.9553 23.8058C18.9991 23.8558 19.0116 23.9308 19.0428 23.9995Z" fill="#888888"/>
<path d="M0 12.8457C0 10.4401 0 8.03444 0 5.62882C0.0187598 5.61632 0.0375196 5.60383 0.0500261 5.58508C0.368942 4.81653 0.762897 4.54785 1.58207 4.54785C6.46587 4.54785 11.3497 4.54785 16.2335 4.54785C17.2527 4.54785 17.8155 5.10396 17.8155 6.11619C17.8155 8.20315 17.8155 10.2839 17.8155 12.3708C17.8155 13.3518 17.2402 13.9204 16.2522 13.9204C12.8817 13.9204 9.51746 13.9204 6.14695 13.9204C4.57739 13.9204 3.00782 13.9204 1.432 13.9204C0.794164 13.9204 0.300156 13.583 0.0750391 12.9957C0.0625326 12.9457 0.0312663 12.8957 0 12.8457ZM7.21001 9.22788H7.21626C7.21626 9.99019 7.21626 10.7587 7.21626 11.521C7.21626 11.8584 7.3976 12.0397 7.73528 12.0459C8.16676 12.0459 8.59823 12.0521 9.02345 12.0397C9.86764 12.0147 10.5305 11.6335 10.9369 10.8962C11.506 9.86522 11.5185 8.78425 11.037 7.72203C10.6493 6.87225 9.94894 6.44736 9.01095 6.42861C8.59823 6.42236 8.18552 6.42861 7.76655 6.42861C7.37885 6.42861 7.21001 6.59107 7.21001 6.98472C7.21001 7.72827 7.21001 8.47808 7.21001 9.22788ZM3.61438 9.99643C3.95831 9.99643 4.27098 10.0089 4.58364 9.99643C5.50912 9.9402 6.22199 9.21539 6.27202 8.28438C6.32204 7.42835 5.68421 6.60357 4.79625 6.4786C4.28348 6.40362 3.75196 6.43486 3.23293 6.43486C2.85149 6.42861 2.67639 6.60982 2.67639 6.99721C2.67639 8.49682 2.67639 9.99643 2.67639 11.4898C2.67639 11.8397 2.86399 12.0646 3.1579 12.0584C3.43929 12.0521 3.61438 11.8397 3.61438 11.496C3.61438 11.0024 3.61438 10.5213 3.61438 9.99643ZM13.2507 7.36587C13.7071 7.36587 14.1511 7.36587 14.5951 7.36587C14.9328 7.36587 15.1454 7.17842 15.1454 6.89724C15.1454 6.61606 14.9265 6.43486 14.5889 6.42861C14.0198 6.42861 13.4508 6.42861 12.8755 6.42861C12.4753 6.42861 12.3002 6.59732 12.3002 6.99721C12.3002 8.49058 12.3002 9.97769 12.3002 11.471C12.3002 11.8335 12.4815 12.0521 12.7692 12.0521C13.0631 12.0521 13.2381 11.8397 13.2381 11.4773C13.2381 11.0024 13.2381 10.5275 13.2381 10.0464C13.2381 9.92145 13.2381 9.80273 13.2381 9.65902C13.6509 9.65902 14.0386 9.65902 14.4263 9.65902C14.7639 9.65902 14.9828 9.47782 14.9891 9.20289C14.9953 8.91546 14.7702 8.72801 14.42 8.72177C14.0323 8.72177 13.6384 8.72177 13.2444 8.72177C13.2507 8.26563 13.2507 7.8345 13.2507 7.36587Z" fill="#888888"/>
<path d="M21.1066 23.9975C20.9315 23.8476 20.7377 23.7101 20.5876 23.5414C19.9935 22.8666 19.4182 22.1793 18.8304 21.4982C18.6116 21.2483 18.499 20.9858 18.6491 20.6672C18.7992 20.3422 19.0743 20.2298 19.412 20.2485C19.5996 20.2548 19.7809 20.2485 19.981 20.2485C19.981 19.3925 19.981 18.5615 19.981 17.7242C19.981 17.4805 19.9748 17.243 19.981 16.9994C19.9935 16.562 20.2874 16.2683 20.7189 16.2621C21.0754 16.2558 21.438 16.2621 21.7945 16.2621C22.3135 16.2621 22.5949 16.5432 22.5949 17.0556C22.5949 18.1116 22.5949 19.1613 22.5949 20.2485C22.7762 20.2485 22.9513 20.261 23.1264 20.2485C23.5642 20.2173 23.8581 20.3985 24.0019 20.8109C24.0019 20.9233 24.0019 21.0296 24.0019 21.142C23.9206 21.2608 23.8456 21.392 23.7518 21.4982C23.1702 22.1793 22.5886 22.8666 22.0008 23.5352C21.8445 23.7101 21.6507 23.8413 21.4693 23.9975C21.3568 23.9975 21.2317 23.9975 21.1066 23.9975Z" fill="#888888"/>
<path d="M8.16406 11.1097C8.16406 9.85999 8.16406 8.62906 8.16406 7.34814C8.57678 7.37314 9.002 7.36064 9.40846 7.42937C9.78991 7.49811 10.0525 7.77928 10.2026 8.12919C10.5153 8.86025 10.5278 9.59756 10.1901 10.3224C9.94624 10.841 9.52727 11.1097 8.93947 11.1034C8.68934 11.1034 8.43921 11.1097 8.16406 11.1097Z" fill="#888888"/>
<path d="M3.63037 7.36557C3.93053 7.36557 4.20567 7.35932 4.48707 7.36557C4.94355 7.38432 5.325 7.76557 5.33126 8.20307C5.33751 8.63432 4.98733 9.02182 4.53084 9.05307C4.23694 9.07182 3.93678 9.05932 3.63037 9.05932C3.63037 8.50307 3.63037 7.94682 3.63037 7.36557Z" fill="#888888"/>
</svg>
