<svg width="24" height="24" viewBox="0 0 24 24" fill="none" xmlns="http://www.w3.org/2000/svg">
<path d="M22 22.6979C22 22.8645 21.865 22.9995 21.6984 22.9995C15.2299 22.9995 8.80074 22.9995 2.33232 22.9995C2.15358 22.9995 2.00865 22.8546 2.00865 22.6759C2.00865 18.395 2.00865 14.1068 2.00865 9.82599C2.00865 7.14127 2 4.45655 2 1.77183C2 1.16869 2.19896 0.999512 2.89965 0.999512C8.96367 0.999512 15.0277 0.999512 21.0917 0.999512C21.7924 0.999512 22 1.17604 22 1.77183C22 8.74475 22 15.725 22 22.6979ZM12.0087 2.86778C9.63841 2.86778 7.27682 2.86778 4.90657 2.86778C4.33564 2.86778 4.19723 2.98547 4.19723 3.46357C4.19723 4.85374 4.19723 6.23656 4.19723 7.62673C4.19723 8.11218 4.33564 8.22987 4.90657 8.22987C9.63841 8.22987 14.3789 8.22987 19.1107 8.22987C19.6817 8.22987 19.8201 8.11218 19.8201 7.63408C19.8201 6.24391 19.8201 4.8611 19.8201 3.47093C19.8201 2.98547 19.6817 2.86778 19.1194 2.86778C16.7491 2.86778 14.3789 2.86778 12.0087 2.86778ZM6.65398 16.8872C6.03114 16.8872 5.39965 16.8872 4.77682 16.8872C4.38754 16.8872 4.19723 17.0416 4.19723 17.3726C4.18858 18.4318 4.18858 19.4836 4.19723 20.5428C4.19723 20.8738 4.38754 21.0283 4.78547 21.0283C6.01384 21.0283 7.25087 21.0283 8.47924 21.0283C8.86851 21.0283 9.05882 20.8738 9.06747 20.5428C9.07612 19.4836 9.07612 18.4318 9.06747 17.3726C9.06747 17.0416 8.87716 16.8945 8.47924 16.8872C7.86505 16.8872 7.25952 16.8872 6.65398 16.8872ZM6.60208 15.4602C7.21626 15.4602 7.83045 15.4602 8.44464 15.4602C8.86851 15.4602 9.05017 15.3205 9.05017 14.9674C9.05882 13.9229 9.05882 12.8711 9.05017 11.8267C9.05017 11.4736 8.86851 11.3265 8.45329 11.3191C7.23356 11.3191 6.01384 11.3191 4.79412 11.3191C4.37889 11.3191 4.18858 11.4662 4.18858 11.8119C4.17993 12.8564 4.17993 13.9082 4.18858 14.9527C4.18858 15.3058 4.37024 15.4529 4.78547 15.4529C5.391 15.4602 5.99654 15.4602 6.60208 15.4602ZM15.4516 11.9738C14.2059 11.9738 12.9689 11.9738 11.7232 11.9738C11.5848 11.9738 11.4377 11.9885 11.3166 12.04C11.0917 12.1356 11.0311 12.3121 11.0917 12.5107C11.1609 12.7387 11.3685 12.8196 11.6367 12.8196C12.8651 12.8196 14.1021 12.8196 15.3305 12.8196C16.628 12.8196 17.917 12.8196 19.2145 12.8196C19.5087 12.8196 19.7249 12.7461 19.7941 12.4886C19.872 12.1944 19.6384 11.9811 19.2318 11.9811C17.9775 11.9738 16.7145 11.9738 15.4516 11.9738ZM15.4775 17.5344C14.2059 17.5344 12.9343 17.5344 11.654 17.5344C11.2474 17.5344 11.0138 17.7551 11.1003 18.0493C11.1782 18.3215 11.4291 18.373 11.7232 18.373C14.2059 18.373 16.6886 18.373 19.1713 18.373C19.2491 18.373 19.327 18.3803 19.3962 18.3656C19.7249 18.3215 19.9066 18.0346 19.7768 17.7845C19.673 17.5786 19.4654 17.5271 19.2232 17.5271C17.9775 17.5418 16.7232 17.5344 15.4775 17.5344ZM13.4706 19.5351C12.8651 19.5351 12.2595 19.5351 11.654 19.5351C11.2993 19.5351 11.0917 19.6896 11.083 19.947C11.0744 20.2192 11.282 20.3736 11.654 20.3736C12.8305 20.3736 14.0069 20.3736 15.1834 20.3736C15.5381 20.3736 15.7457 20.2118 15.7543 19.9691C15.763 19.7116 15.5381 19.5425 15.1747 19.5425C14.6125 19.5351 14.0415 19.5351 13.4706 19.5351ZM13.4446 13.9671C12.8478 13.9671 12.2595 13.9671 11.6626 13.9671C11.2907 13.9671 11.083 14.1363 11.083 14.4011C11.0917 14.6585 11.282 14.813 11.6453 14.813C12.8218 14.813 13.9983 14.813 15.1747 14.813C15.5381 14.813 15.7716 14.6364 15.763 14.3863C15.7543 14.1363 15.5294 13.9744 15.1574 13.9744C14.5865 13.9671 14.0156 13.9671 13.4446 13.9671Z" fill="#888888"/>
<path d="M18.8172 3.72803C18.8172 4.94902 18.8172 6.14795 18.8172 7.37631C14.2844 7.37631 9.76013 7.37631 5.20996 7.37631C5.20996 6.16266 5.20996 4.95638 5.20996 3.72803C9.73418 3.72803 14.2584 3.72803 18.8172 3.72803Z" fill="#888888"/>
<path d="M5.21729 17.7407C6.16019 17.7407 7.09445 17.7407 8.04601 17.7407C8.04601 18.5498 8.04601 19.3442 8.04601 20.1606C7.11175 20.1606 6.17749 20.1606 5.21729 20.1606C5.21729 19.3589 5.21729 18.5572 5.21729 17.7407Z" fill="#888888"/>
<path d="M8.03868 14.607C7.08712 14.607 6.16152 14.607 5.20996 14.607C5.20996 13.7979 5.20996 12.9961 5.20996 12.1797C6.14422 12.1797 7.07847 12.1797 8.03868 12.1797C8.03868 12.9888 8.03868 13.7905 8.03868 14.607Z" fill="#888888"/>
</svg>
