<svg width="19" height="24" viewBox="0 0 19 24" fill="none" xmlns="http://www.w3.org/2000/svg">
<path d="M1.91992 3.94463C2.70384 3.94463 3.47492 3.93818 4.23956 3.95753C4.33594 3.95753 4.46446 4.09294 4.52229 4.19612C4.77931 4.70555 5.1777 4.96349 5.74957 4.96349C8.13989 4.95704 10.5366 4.96349 12.927 4.96349C13.4796 4.96349 13.8587 4.70555 14.1285 4.22191C14.1928 4.09939 14.3599 3.96398 14.4884 3.95753C15.2273 3.93173 15.9598 3.94463 16.7373 3.94463C16.7373 9.99329 16.7373 16.029 16.7373 22.0841C11.8025 22.0841 6.88048 22.0841 1.92635 22.0841C1.91992 16.0548 1.91992 10.0384 1.91992 3.94463ZM5.31263 13.3465C5.15842 13.3981 5.04276 13.4368 4.93352 13.4755C4.35522 13.6883 3.95683 14.0752 3.76407 14.6684C3.66126 14.9908 3.71909 15.1907 4.13033 15.1843C5.02991 15.1649 5.92949 15.1778 6.82907 15.1778C7.15678 15.1778 7.25959 15.0424 7.17606 14.7265C7.00256 14.0623 6.44354 13.5528 5.76243 13.4432C5.66604 13.4303 5.58251 13.3723 5.42829 13.3142C6.09013 13.1466 6.36643 12.8435 6.34715 12.3534C6.3343 11.9407 6.01945 11.5796 5.62106 11.5087C5.19055 11.4377 4.75361 11.6828 4.6251 12.0826C4.45161 12.5791 4.64437 12.9531 5.31263 13.3465ZM11.6161 8.94219C10.7487 8.94219 9.88123 8.94219 9.01377 8.94219C8.72462 8.94219 8.42905 8.96798 8.4419 9.35489C8.45475 9.716 8.73747 9.72245 9.00735 9.72245C10.723 9.72245 12.445 9.72245 14.1607 9.72245C14.4498 9.72245 14.7454 9.70955 14.7326 9.3162C14.7197 8.96153 14.437 8.94219 14.1671 8.94219C13.3189 8.94219 12.4707 8.94219 11.6161 8.94219ZM11.584 17.7379C12.4515 17.7379 13.3189 17.7379 14.1864 17.7379C14.4627 17.7379 14.7326 17.7185 14.7326 17.3574C14.7326 17.0092 14.4691 16.9576 14.1928 16.9576C12.4579 16.9576 10.723 16.9576 8.98807 16.9576C8.71177 16.9576 8.4419 17.0028 8.4419 17.351C8.43547 17.7121 8.70535 17.7379 8.98165 17.7379C9.8491 17.7379 10.7166 17.7379 11.584 17.7379ZM5.454 10.0771C5.91664 10.0771 6.37928 10.0707 6.84192 10.0771C7.09895 10.0836 7.23389 10.0062 7.18248 9.70955C7.05397 8.96798 6.29575 8.33603 5.49898 8.31669C4.67007 8.29734 3.87973 8.89705 3.73194 9.65796C3.68053 9.9288 3.73194 10.09 4.05322 10.0771C4.52871 10.0642 4.99135 10.0771 5.454 10.0771ZM11.5969 7.56866C12.4643 7.56866 13.3318 7.56866 14.1992 7.56866C14.4755 7.56866 14.7454 7.53642 14.7326 7.17531C14.7261 6.82709 14.4627 6.7884 14.1864 6.7884C12.4515 6.7884 10.7166 6.7884 8.98165 6.7884C8.69892 6.7884 8.4419 6.84644 8.4419 7.18821C8.4419 7.54932 8.7182 7.56866 8.98807 7.56866C9.86195 7.56866 10.7294 7.56866 11.5969 7.56866ZM5.43472 20.2528C5.91664 20.2528 6.39213 20.2528 6.87405 20.2528C7.1118 20.2528 7.23389 20.169 7.19533 19.9046C7.0861 19.163 6.28932 18.4988 5.4797 18.4859C4.67008 18.473 3.86045 19.1179 3.73836 19.8594C3.69339 20.1174 3.76407 20.2592 4.04679 20.2528C4.50944 20.2463 4.97208 20.2528 5.43472 20.2528ZM11.5969 19.1308C10.7294 19.1308 9.86195 19.1308 8.9945 19.1308C8.7182 19.1308 8.44832 19.1436 8.4419 19.5048C8.43547 19.853 8.69892 19.911 8.97522 19.911C10.7101 19.911 12.445 19.911 14.1799 19.911C14.4498 19.911 14.7197 19.8788 14.7326 19.5241C14.739 19.163 14.4755 19.1308 14.1992 19.1308C13.3318 19.1308 12.4643 19.1308 11.5969 19.1308ZM11.5455 12.6629C12.4258 12.6629 13.3125 12.6629 14.1928 12.6629C14.4755 12.6629 14.7326 12.6178 14.7326 12.2696C14.7326 11.9149 14.4627 11.8891 14.1864 11.8891C12.4515 11.8891 10.7166 11.8891 8.98807 11.8891C8.70535 11.8891 8.44832 11.9278 8.44832 12.2825C8.45475 12.6307 8.7182 12.6694 8.9945 12.6694C9.84268 12.6629 10.6973 12.6629 11.5455 12.6629ZM11.6418 14.0365C10.7615 14.0365 9.8748 14.0365 8.9945 14.0365C8.71177 14.0365 8.45475 14.0752 8.44832 14.4234C8.4419 14.778 8.70535 14.8167 8.98165 14.8167C10.7166 14.8167 12.445 14.8167 14.1799 14.8167C14.4563 14.8167 14.7261 14.7909 14.7261 14.4363C14.7261 14.0881 14.4755 14.0365 14.1928 14.0429C13.3446 14.0365 12.49 14.0365 11.6418 14.0365ZM6.34715 7.29138C6.34073 6.80775 5.93592 6.40149 5.46042 6.40149C4.98493 6.40149 4.58012 6.80775 4.57369 7.29138C4.56727 7.79436 4.99778 8.22641 5.48612 8.20706C5.96162 8.19416 6.35358 7.77502 6.34715 7.29138ZM6.34073 17.4864C6.34073 16.9963 5.95519 16.5965 5.47327 16.5901C4.99135 16.5772 4.58654 16.9641 4.57369 17.4542C4.56084 17.9636 4.96565 18.3827 5.46685 18.3763C5.94877 18.3698 6.34073 17.97 6.34073 17.4864Z" fill="#888888"/>
<path d="M4.40795 2.04932C4.40795 2.45557 4.40795 2.79089 4.40795 3.1778C3.65616 3.1778 2.92364 3.1778 2.19113 3.1778C1.40078 3.18425 1.12448 3.46153 1.12448 4.25469C1.12448 10.1034 1.12448 15.9586 1.12448 21.8074C1.12448 22.5941 1.41363 22.8843 2.19755 22.8907C6.95249 22.8972 11.7074 22.8972 16.4624 22.8907C17.2527 22.8907 17.5419 22.5941 17.5419 21.8138C17.5419 15.9651 17.5419 10.1099 17.5419 4.26114C17.5419 3.46798 17.2591 3.19069 16.4752 3.18425C15.7555 3.18425 15.0359 3.18425 14.2777 3.18425C14.2777 2.81668 14.2777 2.47491 14.2777 2.05576C14.5218 2.05576 14.7853 2.05576 15.0487 2.05576C15.8519 2.05576 16.6551 2.04932 17.4583 2.05576C18.223 2.06221 18.6406 2.48781 18.6663 3.25518C18.6663 3.33256 18.6663 3.41639 18.6663 3.49377C18.6663 9.8455 18.6663 16.1972 18.6663 22.5425C18.6663 23.6323 18.3065 23.9999 17.2334 23.9999C11.9516 23.9999 6.66334 23.9999 1.3815 23.9999C0.372684 23.9999 0 23.6194 0 22.5941C0 16.2101 0 9.82616 0 3.44863C0 2.43622 0.385535 2.05576 1.40078 2.05576C2.39032 2.04932 3.38629 2.04932 4.40795 2.04932Z" fill="#888888"/>
<path d="M9.31697 4.18991C8.16036 4.18991 7.00376 4.19636 5.85358 4.18991C5.34596 4.18991 5.20459 4.04159 5.19817 3.52572C5.19174 3.00984 5.19817 2.49396 5.19817 1.97809C5.19817 1.60408 5.39094 1.41062 5.76362 1.40417C6.19413 1.39773 6.63107 1.39773 7.06159 1.40417C7.36359 1.41062 7.55636 1.2881 7.71057 1.01727C8.50092 -0.349806 10.1394 -0.330461 10.9748 1.02372C11.084 1.20427 11.3603 1.35904 11.5724 1.38483C11.9964 1.44287 12.4398 1.39773 12.8703 1.40417C13.2623 1.40417 13.4615 1.60408 13.4615 2.00388C13.4615 2.53265 13.4615 3.06788 13.4615 3.59665C13.4615 4.02225 13.2494 4.19636 12.8318 4.19636C11.6623 4.18346 10.4929 4.18991 9.31697 4.18991Z" fill="#888888"/>
</svg>
