<svg width="22" height="24" viewBox="0 0 22 24" fill="none" xmlns="http://www.w3.org/2000/svg">
<g clip-path="url(#clip0_1938_2787)">
<path d="M15.9457 23.9991C15.588 23.9107 15.2237 23.8359 14.866 23.7203C13.5974 23.3121 12.6122 22.5365 11.8901 21.414C11.8159 21.2983 11.8429 21.2235 11.9104 21.1283C13.0373 19.4275 14.6298 18.5635 16.6407 18.5771C18.6111 18.5907 20.1631 19.4547 21.2698 21.1079C21.3575 21.2371 21.3507 21.3255 21.2698 21.4548C20.2981 22.9175 18.9485 23.7475 17.2143 23.9583C17.1873 23.9583 17.1671 23.9855 17.1468 23.9991C16.7487 23.9991 16.3505 23.9991 15.9457 23.9991ZM14.5489 21.3323C14.5489 22.4821 15.4665 23.4005 16.6137 23.3937C17.7406 23.3937 18.6448 22.4685 18.6516 21.3323C18.6583 20.1894 17.7271 19.2506 16.6002 19.2506C15.4665 19.2506 14.5421 20.1894 14.5489 21.3323Z" fill="#888888"/>
<path d="M16.5934 22.2779C16.0738 22.2779 15.6554 21.8629 15.6554 21.3391C15.6486 20.8084 16.0738 20.373 16.6001 20.373C17.1129 20.373 17.538 20.8016 17.5448 21.3187C17.5516 21.8425 17.1264 22.2779 16.5934 22.2779Z" fill="#888888"/>
<path fill-rule="evenodd" clip-rule="evenodd" d="M11.5169 22.8896H1.33333C0.596953 22.8896 0 22.2927 0 21.5563V1.33248C0 0.596099 0.596953 -0.000854492 1.33333 -0.000854492H17.0937C17.8301 -0.000854492 18.4271 0.596099 18.4271 1.33248V17.5817C16.5624 17.1393 12.1092 17.2499 10.5297 21.2309L11.5169 22.8896ZM2.64127 2.65312C2.27309 2.65312 1.97461 2.95159 1.97461 3.31979C1.97461 3.68797 2.27309 3.98645 2.64127 3.98645H7.9746C8.3428 3.98645 8.64127 3.68797 8.64127 3.31979C8.64127 2.95159 8.3428 2.65312 7.9746 2.65312H2.64127ZM9.9746 3.31979C9.9746 2.95159 10.2731 2.65312 10.6413 2.65312H15.9746C16.3428 2.65312 16.6413 2.95159 16.6413 3.31979C16.6413 3.68797 16.3428 3.98645 15.9746 3.98645H10.6413C10.2731 3.98645 9.9746 3.68797 9.9746 3.31979ZM2.64127 5.98645C2.27309 5.98645 1.97461 6.28492 1.97461 6.65312C1.97461 7.02128 2.27309 7.31981 2.64127 7.31981H7.9746C8.3428 7.31981 8.64127 7.02128 8.64127 6.65312C8.64127 6.28492 8.3428 5.98645 7.9746 5.98645H2.64127ZM9.9746 6.65312C9.9746 6.28492 10.2731 5.98645 10.6413 5.98645H15.9746C16.3428 5.98645 16.6413 6.28492 16.6413 6.65312C16.6413 7.02128 16.3428 7.31981 15.9746 7.31981H10.6413C10.2731 7.31981 9.9746 7.02128 9.9746 6.65312ZM2.64127 9.31981C2.27309 9.31981 1.97461 9.61828 1.97461 9.98648C1.97461 10.3546 2.27309 10.6531 2.64127 10.6531H7.9746C8.3428 10.6531 8.64127 10.3546 8.64127 9.98648C8.64127 9.61828 8.3428 9.31981 7.9746 9.31981H2.64127ZM9.9746 9.98648C9.9746 9.61828 10.2731 9.31981 10.6413 9.31981H15.9746C16.3428 9.31981 16.6413 9.61828 16.6413 9.98648C16.6413 10.3546 16.3428 10.6531 15.9746 10.6531H10.6413C10.2731 10.6531 9.9746 10.3546 9.9746 9.98648ZM2.64127 12.6531C2.27309 12.6531 1.97461 12.9516 1.97461 13.3198C1.97461 13.6879 2.27309 13.9865 2.64127 13.9865H7.9746C8.3428 13.9865 8.64127 13.6879 8.64127 13.3198C8.64127 12.9516 8.3428 12.6531 7.9746 12.6531H2.64127ZM9.9746 13.3198C9.9746 12.9516 10.2731 12.6531 10.6413 12.6531H15.9746C16.3428 12.6531 16.6413 12.9516 16.6413 13.3198C16.6413 13.6879 16.3428 13.9865 15.9746 13.9865H10.6413C10.2731 13.9865 9.9746 13.6879 9.9746 13.3198ZM2.64127 15.9865C2.27309 15.9865 1.97461 16.2849 1.97461 16.6531C1.97461 17.0213 2.27309 17.3198 2.64127 17.3198H7.9746C8.3428 17.3198 8.64127 17.0213 8.64127 16.6531C8.64127 16.2849 8.3428 15.9865 7.9746 15.9865H2.64127ZM9.9746 16.6531C9.9746 16.2849 10.2731 15.9865 10.6413 15.9865H11.9746C12.3428 15.9865 12.6413 16.2849 12.6413 16.6531C12.6413 17.0213 12.3428 17.3198 11.9746 17.3198H10.6413C10.2731 17.3198 9.9746 17.0213 9.9746 16.6531ZM2.64127 19.3198C2.27309 19.3198 1.97461 19.6183 1.97461 19.9865C1.97461 20.3546 2.27309 20.6531 2.64127 20.6531H7.9746C8.3428 20.6531 8.64127 20.3546 8.64127 19.9865C8.64127 19.6183 8.3428 19.3198 7.9746 19.3198H2.64127Z" fill="#888888"/>
</g>
<defs>
<clipPath id="clip0_1938_2787">
<rect width="21.3333" height="24" fill="white" transform="translate(0 -0.000854492)"/>
</clipPath>
</defs>
</svg>
