<svg width="24" height="24" viewBox="0 0 24 24" fill="none" xmlns="http://www.w3.org/2000/svg">
<path d="M0 23.4032C0 15.8011 0 8.19893 0 0.596803C0.1875 0.142096 0.50625 0 0.9375 0C8.3125 0.0071048 15.6875 0.0071048 23.0625 0C23.5 0 23.8125 0.134991 24 0.596803C24 8.19893 24 15.8011 24 23.4032C23.8125 23.865 23.4937 24 23.0562 24C15.6812 23.9929 8.3125 23.9929 0.9375 24C0.50625 23.9929 0.1875 23.8579 0 23.4032ZM5.7875 4.80284C5.4125 4.80284 5.04375 4.80284 4.675 4.80284C4.3 4.80284 3.925 4.79574 3.55 4.80284C3.18125 4.80995 2.8875 5.12256 2.85625 5.52753C2.825 5.9254 3.0625 6.30195 3.41875 6.38721C3.50625 6.40853 3.60625 6.40142 3.7 6.40142C4.4 6.40142 5.1 6.40142 5.7875 6.40142C6.21875 7.49556 6.9375 8.03552 7.975 8C8.3 7.9929 8.63125 7.98579 8.95625 8C10.0125 8.04263 10.7438 7.50977 11.175 6.40142C11.25 6.40142 11.3375 6.40142 11.425 6.40142C14.3688 6.40142 17.3125 6.40142 20.2563 6.40142C20.3313 6.40142 20.4125 6.40853 20.4875 6.40142C20.7812 6.373 21.0063 6.15986 21.1 5.83304C21.1938 5.50622 21.1187 5.21492 20.8937 5.02309C20.7437 4.8952 20.525 4.81705 20.3375 4.81705C17.3625 4.80284 14.3875 4.80995 11.4125 4.80995C11.3313 4.80995 11.2438 4.80995 11.175 4.80995C10.7438 3.7016 10.0187 3.17584 8.96875 3.21137C8.64375 3.22558 8.3125 3.22558 7.9875 3.21137C6.94375 3.16874 6.21875 3.7016 5.7875 4.80284ZM12.8188 11.1972C12.7188 11.1972 12.6313 11.1972 12.55 11.1972C9.6125 11.1972 6.675 11.1972 3.74375 11.1972C3.66875 11.1972 3.5875 11.1901 3.5125 11.1972C3.18125 11.2256 2.9125 11.524 2.86875 11.8934C2.825 12.2629 3.01875 12.6252 3.34375 12.7389C3.4625 12.7815 3.5875 12.7886 3.7125 12.7886C6.675 12.7886 9.63125 12.7886 12.5938 12.7886C12.675 12.7886 12.7625 12.7886 12.8313 12.7886C13.2625 13.8828 13.975 14.4156 15.0125 14.3872C15.425 14.373 15.8375 14.4014 16.2563 14.3801C17.1 14.3446 17.7187 13.8899 18.1125 13.0444C18.15 12.9591 18.1875 12.8739 18.225 12.7886C18.9563 12.7886 19.675 12.7886 20.3875 12.7886C20.8375 12.7886 21.1562 12.4476 21.15 11.9858C21.15 11.5169 20.8313 11.1972 20.375 11.1901C20.1937 11.1901 20.0187 11.1901 19.8375 11.1901C19.2937 11.1901 18.75 11.1901 18.2188 11.1901C17.7875 10.0888 17.0688 9.55595 16.0312 9.59147C15.7063 9.59858 15.375 9.60568 15.05 9.59147C13.9875 9.55595 13.25 10.0888 12.8188 11.1972ZM8.6 17.5915C8.54375 17.5915 8.49375 17.5915 8.45 17.5915C6.84375 17.5915 5.23125 17.5915 3.625 17.5915C3.30625 17.5915 3.0625 17.7336 2.925 18.0604C2.7 18.6004 3.05625 19.183 3.6125 19.1901C5.2 19.1901 6.78125 19.1901 8.36875 19.1901C8.45 19.1901 8.5375 19.1901 8.60625 19.1901C9.0375 20.2842 9.75625 20.8171 10.7937 20.7886C11.2 20.7744 11.6062 20.7957 12.0125 20.7815C12.8875 20.7531 13.5188 20.2771 13.9125 19.3961C13.9438 19.325 13.9687 19.254 13.9937 19.1901C14.0937 19.1901 14.1813 19.1901 14.2688 19.1901C16.3 19.1901 18.3312 19.1901 20.3625 19.1901C20.6875 19.1901 20.9437 19.0551 21.0875 18.714C21.3125 18.167 20.9562 17.5915 20.4 17.5915C18.3437 17.5915 16.2938 17.5915 14.2375 17.5915C14.1563 17.5915 14.0688 17.5915 14 17.5915C13.5687 16.4902 12.8563 15.9574 11.8188 15.9929C11.4813 16 11.15 16.0071 10.8125 15.9929C9.75 15.9574 9.03125 16.4973 8.6 17.5915Z" fill="#888888"/>
<path d="M8.48135 4.80284C8.7126 4.80284 8.9501 4.79574 9.18135 4.80284C9.58135 4.80995 9.88135 5.15098 9.8876 5.59147C9.89385 6.03908 9.5876 6.39431 9.1751 6.40142C8.70635 6.40852 8.2376 6.40852 7.76885 6.40142C7.3751 6.39431 7.06885 6.03908 7.06885 5.60568C7.06885 5.17229 7.3751 4.82416 7.76885 4.80995C8.0126 4.80284 8.24385 4.80284 8.48135 4.80284Z" fill="#888888"/>
<path d="M15.5123 12.7957C15.2811 12.7957 15.0436 12.8028 14.8123 12.7957C14.4186 12.7815 14.1123 12.4333 14.1123 11.9999C14.1123 11.5666 14.4123 11.2042 14.8061 11.1971C15.2811 11.19 15.7561 11.19 16.2311 11.1971C16.6248 11.2042 16.9248 11.5666 16.9248 11.9999C16.9186 12.4191 16.6248 12.7744 16.2436 12.7886C15.9998 12.8028 15.7561 12.7957 15.5123 12.7957Z" fill="#888888"/>
<path d="M11.2753 19.1901C11.0503 19.1901 10.8253 19.1972 10.594 19.1901C10.2003 19.1759 9.89404 18.8348 9.88779 18.4014C9.88154 17.9609 10.194 17.5986 10.6003 17.5986C11.0628 17.5915 11.519 17.5915 11.9815 17.5986C12.394 17.6057 12.7003 17.9538 12.7003 18.4014C12.7003 18.849 12.3878 19.1901 11.9753 19.1972C11.744 19.1972 11.5065 19.1901 11.2753 19.1901Z" fill="#888888"/>
</svg>
