<svg width="24" height="24" viewBox="0 0 24 24" fill="none" xmlns="http://www.w3.org/2000/svg">
<path d="M0 20.6729C0 15.673 0 10.6732 0 5.67334C7.05419 5.67334 14.1146 5.67334 21.1751 5.67334C21.1751 6.77956 21.1751 7.86077 21.1751 8.96699C20.5877 8.7045 20.0129 8.71075 19.4568 9.01074C18.8945 9.31698 18.5821 9.81071 18.4759 10.4482C18.001 10.4482 17.5386 10.4294 17.0825 10.4544C16.6326 10.4732 16.1703 10.4857 15.7329 10.5857C13.0087 11.1982 11.1717 13.5043 11.1655 16.3043C11.1592 17.8417 11.1655 19.3792 11.1655 20.9229C11.1655 21.0041 11.1655 21.0916 11.1655 21.1979C11.0655 21.1979 10.9843 21.1979 10.8968 21.1979C7.57904 21.1979 4.26126 21.1916 0.943475 21.2041C0.506102 21.1916 0.187445 21.0729 0 20.6729ZM5.87954 11.2982C6.79802 11.2982 7.72275 11.2982 8.64123 11.2982C9.09735 11.2982 9.416 11.0107 9.416 10.6044C9.42225 10.1857 9.10359 9.89196 8.62873 9.89196C6.81051 9.89196 4.99229 9.89196 3.17407 9.89196C2.70546 9.89196 2.38056 10.1795 2.3868 10.5982C2.3868 11.0169 2.70546 11.2982 3.18657 11.2982C4.08631 11.2982 4.9798 11.2982 5.87954 11.2982ZM5.90453 12.6981C4.99229 12.6981 4.08006 12.6919 3.16783 12.7044C3.01162 12.7044 2.84292 12.7544 2.70546 12.8294C2.44304 12.9794 2.33682 13.3044 2.41804 13.5793C2.51177 13.9106 2.76794 14.1043 3.13034 14.1043C4.9673 14.1043 6.79802 14.1043 8.63498 14.1043C9.10359 14.1043 9.42225 13.8168 9.42225 13.3981C9.416 12.9794 9.09735 12.7044 8.62249 12.7044C7.7165 12.6981 6.81051 12.6981 5.90453 12.6981ZM5.92327 16.923C6.82926 16.923 7.73524 16.923 8.64123 16.923C9.09735 16.923 9.416 16.6355 9.416 16.2293C9.42225 15.8105 9.10359 15.5168 8.62873 15.5168C6.82301 15.5168 5.02353 15.5168 3.21781 15.5168C2.7492 15.5168 2.42429 15.8043 2.43054 16.223C2.43054 16.6418 2.75545 16.923 3.22406 16.923C4.13005 16.923 5.02978 16.923 5.92327 16.923Z" fill="#888888"/>
<path d="M20.669 -0.000488281C21.0689 0.187006 21.2001 0.499496 21.1938 0.936983C21.1751 2.03695 21.1876 3.13692 21.1876 4.26188C14.1209 4.26188 7.06044 4.26188 0.00624818 4.26188C0 3.03067 0 1.79946 0 0.561995C0.0937227 0.280753 0.281168 0.0932589 0.562336 -0.000488281C7.26663 -0.000488281 13.9647 -0.000488281 20.669 -0.000488281ZM13.6335 2.13695C13.6335 1.75571 13.3211 1.43697 12.94 1.43072C12.5588 1.42447 12.2339 1.73696 12.2277 2.1182C12.2214 2.51194 12.5401 2.83693 12.9337 2.83068C13.3211 2.83068 13.6335 2.51818 13.6335 2.13695ZM16.4515 2.1307C16.4515 1.74946 16.139 1.43697 15.7517 1.43072C15.3705 1.42447 15.0519 1.73696 15.0456 2.1182C15.0394 2.51194 15.3643 2.83068 15.7517 2.83068C16.1328 2.83068 16.4515 2.51193 16.4515 2.1307ZM19.2569 2.1432C19.2631 1.76196 18.957 1.44322 18.5696 1.43072C18.1884 1.42447 17.8635 1.73071 17.851 2.11195C17.8385 2.50569 18.1572 2.83068 18.5508 2.83693C18.9382 2.83693 19.2569 2.52443 19.2569 2.1432Z" fill="#888888"/>
<path d="M12.8913 23.9991C12.6476 23.8553 12.5664 23.6428 12.5664 23.3616C12.5727 20.9929 12.5664 18.6305 12.5727 16.2618C12.5789 14.2119 13.9035 12.4869 15.8717 11.9869C16.2528 11.8932 16.659 11.8619 17.0526 11.8494C17.9086 11.8307 18.7708 11.8432 19.6268 11.8432C19.7018 11.8432 19.7768 11.8432 19.8768 11.8432C19.8768 11.4557 19.883 11.0932 19.8768 10.7245C19.8705 10.4995 19.9455 10.3245 20.1517 10.2245C20.3641 10.1245 20.5391 10.1932 20.7078 10.337C21.7325 11.1932 22.7572 12.0432 23.7819 12.9057C23.8694 12.9807 23.9256 13.0807 24.0006 13.1744C24.0006 13.2681 24.0006 13.3619 24.0006 13.4556C23.8881 13.5744 23.7881 13.6994 23.6694 13.7994C22.6947 14.6181 21.7137 15.4306 20.739 16.2431C20.5578 16.3931 20.3704 16.4805 20.1454 16.3681C19.9205 16.2618 19.8768 16.0681 19.883 15.8431C19.8893 15.4868 19.883 15.1306 19.883 14.7681C18.8583 14.7681 17.8586 14.7681 16.8589 14.7681C16.8152 14.7681 16.7652 14.7744 16.7214 14.7869C15.9717 14.9306 15.5093 15.5056 15.5093 16.3056C15.5093 18.6492 15.503 20.9929 15.5093 23.3303C15.5093 23.6178 15.4406 23.8428 15.1906 23.9991C14.4221 23.9991 13.6536 23.9991 12.8913 23.9991Z" fill="#888888"/>
<path d="M21.1821 17.6543C21.1821 18.6167 21.1883 19.5604 21.1821 20.5042C21.1758 20.8667 20.8946 21.1791 20.5322 21.1791C19.3326 21.1916 18.1329 21.1854 16.9146 21.1854C16.9146 19.5167 16.9146 17.8542 16.9146 16.1855C17.4331 16.1855 17.9455 16.1855 18.4578 16.1855C18.689 17.5043 19.9699 18.148 21.1821 17.6543Z" fill="#888888"/>
</svg>
