<svg width="24" height="24" viewBox="0 0 24 24" fill="none" xmlns="http://www.w3.org/2000/svg">
<path d="M0 11.9995C0 8.74237 0 5.54237 0 2.28523C0 0.799512 0.8 -0.000488281 2.34286 -0.000488281C8.8 -0.000488281 15.2571 -0.000488281 21.6571 -0.000488281C23.2 -0.000488281 24 0.799512 24 2.34237C24 8.79951 24 15.2567 24 21.6567C24 23.1424 23.2 23.9995 21.7143 23.9995C15.2571 23.9995 8.8 23.9995 2.34286 23.9995C0.8 23.9995 0 23.1995 0 21.6567C0 18.4567 0 15.2567 0 11.9995ZM21.0857 8.1138C21.0857 7.82808 21.0857 7.65666 21.0857 7.48523C21.0857 6.22808 21.0857 5.02808 21.0857 3.77094C21.0857 3.14237 20.8571 2.9138 20.2286 2.9138C18.2286 2.9138 16.1714 2.9138 14.1714 2.9138C13.6 2.9138 13.2571 3.19951 13.2571 3.59951C13.2571 4.05665 13.5429 4.28523 14.1714 4.28523C15.8857 4.28523 17.5429 4.28523 19.2571 4.28523C19.4286 4.28523 19.6 4.28523 19.7714 4.28523C19.7714 5.54237 19.7714 6.74237 19.7714 8.05665C19.6 7.88523 19.5429 7.77094 19.4286 7.7138C19.1429 7.37094 18.8 7.3138 18.4571 7.59951C18.1143 7.88523 18.1143 8.22808 18.4 8.5138C18.9143 9.14237 19.4286 9.77094 19.9429 10.3995C20.2286 10.7424 20.5714 10.7424 20.8571 10.3995C21.4286 9.77094 21.9429 9.14237 22.4571 8.45665C22.6857 8.1138 22.6286 7.77094 22.3429 7.48523C22.0571 7.19951 21.7143 7.3138 21.4286 7.59951C21.3714 7.77094 21.2571 7.88523 21.0857 8.1138ZM19.7143 19.6567C18.4571 19.6567 17.2571 19.6567 16 19.6567C16.1143 19.5424 16.1714 19.5424 16.2286 19.4852C16.6857 19.1424 16.7429 18.7995 16.4571 18.4567C16.1714 18.1138 15.8286 18.1138 15.4286 18.4567C14.8571 18.9138 14.2286 19.4281 13.6571 19.9424C13.2571 20.2852 13.2571 20.6281 13.6571 20.9709C14.2857 21.4852 14.9143 21.9995 15.5429 22.5138C15.8857 22.7424 16.1714 22.6852 16.4571 22.3995C16.7429 22.1138 16.6857 21.7709 16.4 21.4852C16.2857 21.3709 16.1714 21.2567 15.9429 21.0281C16.2286 21.0281 16.4 21.0281 16.5714 21.0281C17.7143 21.0281 18.9143 21.0281 20.0571 21.0281C20.9143 21.0281 21.1429 20.7995 21.1429 19.9424C21.1429 18.5709 21.1429 17.1995 21.1429 15.8281C21.1429 15.1995 21.1429 14.6281 21.1429 13.9995C21.1429 13.5424 20.8571 13.3138 20.4 13.3138C20 13.3138 19.7714 13.5995 19.7714 13.9995C19.7714 14.1709 19.7714 14.3424 19.7714 14.4567C19.7143 16.1709 19.7143 17.8852 19.7143 19.6567ZM8.05714 2.9138C6.57143 2.9138 5.2 2.9138 3.82857 2.9138C3.2 2.9138 2.97143 3.14237 2.97143 3.77094C2.97143 5.82808 2.97143 7.82808 2.97143 9.88523C2.97143 10.4567 3.2 10.7424 3.65714 10.7424C4.05714 10.7424 4.34286 10.4567 4.34286 9.88523C4.34286 8.22808 4.34286 6.5138 4.34286 4.85665C4.34286 4.68523 4.34286 4.5138 4.34286 4.34237C5.65714 4.34237 6.85714 4.34237 8.17143 4.34237C8.05714 4.45666 8 4.45665 7.94286 4.5138C7.48571 4.9138 7.37143 5.25665 7.65714 5.59951C7.94286 5.94237 8.28571 5.94237 8.74286 5.54237C9.31428 5.08523 9.88571 4.62808 10.4571 4.17094C10.8 3.88523 10.8571 3.48523 10.5143 3.14237C9.88571 2.57094 9.2 1.99951 8.51428 1.48523C8.22857 1.25665 7.88571 1.37094 7.65714 1.59951C7.37143 1.88523 7.42857 2.17094 7.65714 2.45665C7.71428 2.62808 7.88571 2.74237 8.05714 2.9138ZM4.34286 19.7138C4.34286 18.4567 4.34286 17.2567 4.34286 15.9995C4.45714 16.1138 4.45714 16.1709 4.51428 16.1709C4.85714 16.6281 5.2 16.6852 5.54286 16.3995C5.88571 16.1138 5.88571 15.7709 5.54286 15.3138C5.08571 14.7424 4.62857 14.1709 4.11428 13.5995C3.77143 13.1995 3.42857 13.1995 3.08571 13.5995C2.57143 14.2281 2.05714 14.8567 1.54286 15.4852C1.25714 15.8281 1.37143 16.1709 1.65714 16.3995C2 16.6852 2.28571 16.5709 2.57143 16.2852C2.68571 16.1709 2.74286 16.0567 2.85714 15.9424C2.85714 16.0567 2.91429 16.0567 2.91429 16.1138C2.91429 17.3709 2.91429 18.6281 2.91429 19.9424C2.91429 20.8567 3.08571 21.0281 4 21.0281C5.88571 21.0281 7.82857 21.0281 9.71428 21.0281C9.88571 21.0281 10.0571 21.0852 10.1714 20.9709C10.4 20.7995 10.6286 20.5709 10.6857 20.3424C10.7429 19.9995 10.5143 19.7709 10.1714 19.6567C10 19.5995 9.82857 19.6567 9.71428 19.6567C7.94286 19.7138 6.17143 19.7138 4.34286 19.7138Z" fill="#888888"/>
</svg>
