<svg width="18" height="22" viewBox="0 0 18 22" fill="none" xmlns="http://www.w3.org/2000/svg">
<path d="M12.4444 -0.000488281C12.4444 0.929274 12.438 1.83284 12.4444 2.73642C12.4509 3.63999 13.0019 4.38642 13.8574 4.62868C14.0583 4.68761 14.2722 4.70725 14.4796 4.70725C15.3481 4.7138 16.2102 4.7138 17.0981 4.7138C17.1046 4.77927 17.1111 4.84475 17.1111 4.90368C17.1111 10.1811 17.1111 15.4584 17.1111 20.7358C17.1111 21.5019 16.625 21.9995 15.8731 21.9995C10.9991 21.9995 6.11852 21.9995 1.24444 21.9995C0.492592 21.9995 0 21.5019 0 20.7358C0 14.2471 0 7.75844 0 1.26975C0 0.490583 0.486111 -0.000488281 1.25741 -0.000488281C4.9713 -0.000488281 8.69167 -0.000488281 12.4444 -0.000488281ZM11.8741 6.61261C11.7769 6.50785 11.6926 6.3638 11.563 6.30487C11.375 6.21975 11.2 6.31142 11.0963 6.49475C10.8565 6.92035 10.6102 7.33939 10.3704 7.76499C10.2278 8.0138 10.2667 8.24296 10.4676 8.36737C10.675 8.49177 10.8954 8.4132 11.0444 8.1513C11.2778 7.75189 11.5046 7.34594 11.738 6.94654C11.7833 6.86142 11.8157 6.7632 11.8741 6.61261ZM13.7343 8.53106C13.6306 8.55725 13.5981 8.55725 13.5722 8.57035C13.0667 8.85844 12.5546 9.13999 12.062 9.45428C11.8935 9.55904 11.887 9.76201 11.9907 9.9388C12.0944 10.1156 12.2824 10.1876 12.4509 10.0959C12.95 9.82749 13.4361 9.53939 13.9157 9.2382C14.0713 9.13999 14.1037 8.95011 14.013 8.79951C13.9481 8.68166 13.812 8.60308 13.7343 8.53106ZM5.1787 13.9132C5.18518 13.5334 4.86759 13.3501 4.58889 13.5007C4.14167 13.7495 3.70093 14.0049 3.26667 14.2733C3.0463 14.4043 2.99444 14.6203 3.10463 14.8168C3.21481 15.0132 3.43519 15.0721 3.64907 14.9477C4.0963 14.6989 4.53704 14.4436 4.9713 14.1751C5.075 14.1162 5.13333 13.9721 5.1787 13.9132ZM14.1037 14.4632C14.0713 14.4174 14.0389 14.2799 13.9481 14.2275C13.4815 13.9394 13.0083 13.6578 12.5222 13.3959C12.3343 13.2912 12.1528 13.3632 12.0426 13.5465C11.9324 13.7299 11.9519 13.9328 12.1333 14.0442C12.613 14.3453 13.0991 14.6334 13.6046 14.8953C13.8315 15.0132 14.0972 14.8037 14.1037 14.4632ZM11.8611 16.9709C11.8352 16.8531 11.8287 16.8007 11.8093 16.7614C11.537 16.2703 11.2648 15.7793 10.9731 15.3013C10.863 15.118 10.662 15.1049 10.4741 15.2096C10.2926 15.3144 10.2278 15.5043 10.312 15.6745C10.5778 16.1787 10.863 16.6698 11.1546 17.1543C11.2454 17.3049 11.4333 17.3507 11.5824 17.259C11.712 17.187 11.7898 17.0495 11.8611 16.9709ZM5.72963 17.2918C5.775 17.2656 5.91111 17.2263 5.96296 17.1346C6.24815 16.6632 6.52685 16.1852 6.79259 15.7007C6.8963 15.5108 6.80556 15.2882 6.62407 15.1965C6.43611 15.1049 6.24167 15.1311 6.13148 15.3144C5.8463 15.7793 5.57407 16.2507 5.3213 16.7287C5.1787 16.9971 5.37315 17.2918 5.72963 17.2918ZM8.16667 6.65844C8.16667 6.9138 8.16667 7.16261 8.16667 7.41796C8.17315 7.68642 8.32222 7.85666 8.54907 7.8632C8.77593 7.86975 8.93796 7.69296 8.94444 7.43106C8.95093 6.93344 8.95093 6.43582 8.94444 5.9382C8.94444 5.6763 8.78241 5.50606 8.54907 5.50606C8.32222 5.51261 8.17315 5.68285 8.16667 5.9513C8.16018 6.18046 8.16667 6.41618 8.16667 6.65844ZM3.49352 12.1781C3.75278 12.1781 4.01204 12.1846 4.2713 12.1781C4.50463 12.1715 4.66018 12.0078 4.66667 11.7983C4.67315 11.5757 4.51111 11.3989 4.26481 11.3989C3.75278 11.3924 3.24722 11.3924 2.73518 11.3989C2.48889 11.3989 2.32685 11.5692 2.32685 11.7918C2.32685 12.0144 2.48889 12.1715 2.73518 12.1781C2.99444 12.1846 3.24722 12.1781 3.49352 12.1781ZM13.6111 12.1781C13.8509 12.1781 14.0972 12.1781 14.337 12.1781C14.6028 12.1715 14.7713 12.0209 14.7778 11.7918C14.7843 11.5626 14.6093 11.3989 14.35 11.3924C13.8574 11.3858 13.3648 11.3858 12.8722 11.3924C12.613 11.3924 12.4444 11.5561 12.4444 11.7918C12.4509 12.0209 12.613 12.1715 12.8852 12.1781C13.125 12.1846 13.3713 12.1781 13.6111 12.1781ZM8.94444 16.8924C8.94444 16.6501 8.94444 16.4013 8.94444 16.159C8.93796 15.8906 8.78889 15.7203 8.56204 15.7138C8.33519 15.7073 8.17315 15.8775 8.16667 16.1459C8.16018 16.6436 8.16018 17.1412 8.16667 17.6388C8.16667 17.9007 8.3287 18.0709 8.56204 18.0709C8.78889 18.0644 8.93796 17.8942 8.94444 17.6257C8.94444 17.3834 8.94444 17.1412 8.94444 16.8924ZM6.98704 11.3924C6.77963 11.3989 6.60463 11.5757 6.61111 11.7918C6.61111 12.0078 6.78611 12.1781 7 12.1781C7.22037 12.1781 7.40185 11.9882 7.38889 11.7721C7.37593 11.5561 7.20093 11.3858 6.98704 11.3924ZM8.54907 11.3924C8.33519 11.3989 8.16667 11.5757 8.16667 11.7852C8.16667 12.0013 8.34167 12.1781 8.54907 12.1781C8.76944 12.1781 8.95093 11.9948 8.94444 11.7721C8.93796 11.5626 8.75648 11.3924 8.54907 11.3924ZM10.1176 11.3924C9.9037 11.3858 9.7287 11.5561 9.72222 11.7721C9.71574 11.9948 9.89722 12.1846 10.1176 12.1781C10.325 12.1781 10.5 12.0013 10.5 11.7852C10.5 11.5757 10.3315 11.3989 10.1176 11.3924Z" fill="#888888"/>
<path d="M16.4569 3.92811C15.7634 3.92811 15.018 3.94775 14.2726 3.92156C13.7087 3.90192 13.2356 3.39775 13.2226 2.82156C13.2032 2.08823 13.2161 1.34834 13.2161 0.654297C14.2921 1.7412 15.381 2.8412 16.4569 3.92811Z" fill="#888888"/>
</svg>
