<svg width="20" height="22" viewBox="0 0 20 22" fill="none" xmlns="http://www.w3.org/2000/svg">
<path d="M19.0508 7.7148C18.9921 10.2006 18.6138 12.6211 17.6158 14.9111C16.1547 18.2646 13.6892 20.5677 10.2778 21.8661C9.57339 22.1336 8.90809 21.9639 8.24278 21.6769C4.21832 19.961 1.75929 16.9141 0.637393 12.7385C-0.00834712 10.3441 -0.1388 7.904 0.135151 5.43781C0.161241 5.17031 0.200377 4.90281 0.239513 4.64184C0.337352 3.99593 0.696097 3.5327 1.29618 3.27826C3.80739 2.22784 6.3186 1.17742 8.82981 0.133529C9.31901 -0.0687247 9.79516 -0.0295787 10.2713 0.172675C12.4433 1.08608 14.6154 1.98644 16.7939 2.89332C17.094 3.01728 17.394 3.14124 17.6941 3.27173C18.3333 3.54575 18.7051 4.03508 18.7768 4.72013C18.8877 5.71835 18.9595 6.71658 19.0508 7.7148ZM1.37445 7.72132C1.42663 9.60685 1.69406 11.4859 2.20935 13.0713C3.35081 16.6009 5.59459 19.0997 9.06463 20.4699C9.33206 20.5742 9.58644 20.6134 9.86691 20.5025C13.1021 19.2498 15.3329 16.9989 16.5657 13.7563C17.1136 12.3144 17.4071 10.8204 17.5245 9.28064C17.6354 7.81919 17.6028 6.36426 17.3875 4.91586C17.3614 4.72013 17.2701 4.60922 17.094 4.53745C14.635 3.51966 12.1759 2.48881 9.71689 1.47102C9.59948 1.41882 9.42337 1.42535 9.29944 1.47102C6.84041 2.48881 4.38138 3.51966 1.92235 4.54397C1.73319 4.62227 1.64188 4.74623 1.62231 4.94196C1.53752 5.87494 1.45924 6.79487 1.37445 7.72132Z" fill="#888888"/>
<path d="M9.33105 2.0409C9.44179 1.99531 9.60496 1.98277 9.71582 2.02821C12.0118 2.98075 14.3017 3.93992 16.5977 4.89246C16.7933 4.97074 16.8652 5.07571 16.8848 5.27137C17.2304 8.38327 17.0089 11.4239 15.6914 14.3075C14.4782 16.9693 12.4623 18.7958 9.74902 19.8593C9.6187 19.9114 9.42309 19.8986 9.28613 19.8466C5.69882 18.4308 3.55265 15.7556 2.57422 12.0761C2.19593 10.6277 2.03913 9.14595 2 7.64539C2.06521 6.84306 2.12424 6.04019 2.18945 5.23133C2.20258 5.0686 2.26102 4.97716 2.42383 4.91199C4.72625 3.95947 7.02864 2.99343 9.33105 2.0409ZM6.01172 8.82117C5.43868 8.82117 5 9.27389 5 9.86512V14.038C5.00035 14.6289 5.43891 15.0819 6.01172 15.0819H12.7529C13.3257 15.0819 13.7633 14.6288 13.7637 14.038V11.6337C12.8613 11.8595 11.9931 11.7429 11.3281 11.3397L11.3359 11.3456L10.8994 11.952L13.0225 14.1776L10.3936 12.2294L9.38184 12.9257L8.33691 12.2294L5.74121 14.1776L7.86523 11.9169L5.26953 9.82996L9.38184 12.1259L10.9355 11.0477L10.9414 11.0516C10.388 10.5491 10.0566 9.78908 10.1016 8.82117H6.01172ZM12.7686 6.99989C11.6161 6.99989 10.6817 7.9344 10.6816 9.0868C10.6818 10.2392 11.6162 11.1737 12.7686 11.1737C13.9208 11.1736 14.8554 10.2391 14.8555 9.0868C14.8554 7.93447 13.9209 7 12.7686 6.99989ZM12.7686 8.25086C12.9981 8.25086 13.1855 8.43935 13.1855 8.66883V8.98133H13.29C13.3422 8.98133 13.3945 9.03369 13.3945 9.08582V9.81629C13.3944 9.8684 13.3421 9.92078 13.29 9.92078H12.2471C12.195 9.92078 12.1427 9.8684 12.1426 9.81629V9.08582C12.1427 9.03369 12.1949 8.98133 12.2471 8.98133H12.3516V8.66883C12.3516 8.43936 12.5391 8.25088 12.7686 8.25086ZM12.7686 9.19032C12.6852 9.19033 12.6124 9.26318 12.6123 9.34657C12.6123 9.39872 12.6539 9.46142 12.7061 9.48231L12.6641 9.7118H12.873L12.8311 9.48231C12.8936 9.46143 12.9248 9.40915 12.9248 9.34657C12.9247 9.26316 12.852 9.19032 12.7686 9.19032ZM12.7686 8.45985C12.6538 8.45986 12.5596 8.55413 12.5596 8.66883V8.98133H12.9775V8.66883C12.9775 8.55411 12.8833 8.45985 12.7686 8.45985Z" fill="#888888"/>
</svg>
