<svg width="22" height="24" viewBox="0 0 22 24" fill="none" xmlns="http://www.w3.org/2000/svg">
<path d="M0.00712121 11.9995C0.0142454 10.6662 -1.16105e-07 10.7971 0.00712049 10.0468C0.0213617 7.40354 0.0142413 4.75324 0.0142413 2.10994C0.0142413 0.679617 0.719182 -0.000488281 2.17891 -0.000488281C7.85403 -0.000488281 13.5292 -0.000488281 19.2043 -0.000488281C20.6213 -0.000488281 21.3262 0.700651 21.3262 2.10293C21.3262 4.76726 21.3191 7.43159 21.3333 10.0889C21.3333 10.8181 21.3333 10.9995 21.3333 11.9995C21.3333 12.9995 21.3333 13.237 21.3262 14.0013C21.312 16.6305 21.3191 19.2598 21.3191 21.8821C21.3191 23.3054 20.6142 23.9995 19.1544 23.9995C13.4793 23.9995 7.80418 23.9995 2.12906 23.9995C0.719182 23.9995 0.0142411 23.2984 0.00712049 21.8891C0.00712049 19.2248 0.0142412 16.5604 0 13.9031C0 13.1669 -1.82788e-06 13.3328 0.00712121 11.9995ZM10.6097 23.2703C13.4579 23.2703 16.2991 23.2703 19.1473 23.2703C20.2154 23.2703 20.5786 22.9057 20.5786 21.84C20.5786 19.1616 20.5786 16.4833 20.5786 13.7979C20.5786 12.7462 20.2012 12.3606 19.1473 12.3606C13.4935 12.3606 7.83267 12.3606 2.17891 12.3606C1.12506 12.3606 0.747664 12.7462 0.747664 13.7979C0.747664 16.4763 0.747664 19.1546 0.747664 21.84C0.747664 22.9057 1.11082 23.2703 2.17891 23.2703C4.99155 23.2703 7.80419 23.2703 10.6097 23.2703ZM19.4535 6.16253C19.4464 3.75061 17.4455 1.78742 15.0102 1.80144C12.5964 1.81546 10.6097 3.77164 10.5955 6.15551C10.5812 8.55341 12.5821 10.5306 15.0316 10.5306C17.4882 10.5306 19.4606 8.58847 19.4535 6.16253ZM5.80329 5.34219C6.70761 5.34219 7.61905 5.35622 8.52337 5.33518C9.32087 5.32116 9.76947 4.86542 9.79083 4.08715C9.80508 3.70153 9.8122 3.3159 9.78371 2.93027C9.74099 2.26419 9.29239 1.80845 8.61593 1.80144C6.75034 1.78041 4.88474 1.78041 3.01914 1.80144C2.34268 1.80845 1.90832 2.26419 1.87272 2.93729C1.85136 3.30188 1.85848 3.67348 1.8656 4.03807C1.89408 4.90749 2.3142 5.33518 3.19003 5.34219C4.06587 5.3492 4.93458 5.34219 5.80329 5.34219ZM5.80329 7.01792C4.87762 7.01792 3.95194 7.00389 3.03338 7.02493C2.32844 7.03895 1.91544 7.45963 1.87984 8.13974C1.85848 8.56042 1.85848 8.98111 1.87984 9.40179C1.91544 10.1029 2.35692 10.5236 3.08322 10.5306C4.91322 10.5376 6.74321 10.5376 8.57321 10.5306C9.30663 10.5306 9.76235 10.0819 9.79796 9.35972C9.8122 9.06524 9.80508 8.76375 9.79796 8.46927C9.79796 7.41055 9.3992 7.02493 8.30975 7.02493C7.47664 7.01792 6.63641 7.01792 5.80329 7.01792Z" fill="#888888"/>
<path d="M5.19764 22.19C4.29332 22.19 3.38189 22.176 2.47757 22.197C2.05033 22.204 1.85808 22.0498 1.87232 21.6151C1.89368 21.0402 1.85808 20.4582 1.89368 19.8833C1.95064 18.8806 2.74815 18.1164 3.7664 18.0954C4.74192 18.0743 5.72457 18.0743 6.70009 18.0954C7.67561 18.1164 8.466 18.8246 8.55857 19.7851C8.61553 20.4302 8.58705 21.0822 8.59417 21.7273C8.59417 22.0919 8.37343 22.197 8.03876 22.197C7.0846 22.183 6.13756 22.19 5.19764 22.19Z" fill="#888888"/>
<path d="M7.15141 15.4302C7.13005 16.4819 6.26133 17.2952 5.18612 17.2812C4.11803 17.2672 3.28492 16.4188 3.29204 15.353C3.29916 14.2873 4.20348 13.4389 5.28581 13.467C6.34678 13.502 7.17277 14.3644 7.15141 15.4302Z" fill="#888888"/>
<path d="M15.0972 15.2484C16.3433 15.2484 17.5894 15.2484 18.8284 15.2484C19.1132 15.2484 19.455 15.2204 19.4408 15.6341C19.4265 15.9987 19.1132 15.9846 18.8426 15.9846C16.3362 15.9846 13.8297 15.9846 11.3233 15.9846C11.0242 15.9846 10.6967 15.9846 10.7109 15.592C10.7251 15.2484 11.0384 15.2414 11.3161 15.2484C12.5765 15.2555 13.8368 15.2484 15.0972 15.2484Z" fill="#888888"/>
<path d="M15.1018 19.7767C13.8415 19.7767 12.5811 19.7767 11.3137 19.7767C11.0146 19.7767 10.6728 19.7697 10.7226 19.3911C10.7369 19.2508 11.1072 19.0615 11.3137 19.0615C13.8201 19.0405 16.3266 19.0475 18.833 19.0475C19.125 19.0475 19.4596 19.0265 19.4383 19.4401C19.424 19.8118 19.1036 19.7767 18.833 19.7767C17.5869 19.7767 16.3479 19.7767 15.1018 19.7767Z" fill="#888888"/>
<path d="M15.0449 21.6771C13.7988 21.6771 12.5526 21.6771 11.3137 21.6771C11.0146 21.6771 10.6728 21.6771 10.7226 21.2915C10.7369 21.1512 11.1072 20.9619 11.3137 20.9619C13.8201 20.9409 16.3266 20.9479 18.833 20.9479C19.125 20.9479 19.4525 20.9339 19.4383 21.3405C19.424 21.7192 19.0965 21.6771 18.833 21.6771C17.5727 21.6771 16.3123 21.6771 15.0449 21.6771Z" fill="#888888"/>
<path d="M15.0901 17.877C13.8439 17.877 12.605 17.877 11.3589 17.877C11.0669 17.877 10.718 17.9051 10.7109 17.5195C10.6966 17.1408 11.0384 17.1408 11.3375 17.1408C13.8439 17.1408 16.3504 17.1408 18.8569 17.1408C19.1274 17.1408 19.4407 17.1198 19.4479 17.4914C19.455 17.8981 19.1203 17.87 18.8284 17.87C17.5751 17.877 16.3362 17.877 15.0901 17.877Z" fill="#888888"/>
<path d="M14.2629 6.99835C15.0676 6.19905 15.7512 5.51193 16.4419 4.83183C16.6412 4.63551 16.862 4.36907 17.1539 4.67056C17.4103 4.937 17.1753 5.14734 16.983 5.32963C16.2425 6.05882 15.4948 6.78099 14.7614 7.5242C14.4481 7.83971 14.1917 7.88879 13.8784 7.53822C13.5936 7.22271 13.2589 6.95628 12.9955 6.63375C12.8958 6.51456 12.9456 6.27617 12.9314 6.08686C13.1236 6.09388 13.3729 6.03077 13.4868 6.12893C13.7574 6.36732 13.9781 6.67582 14.2629 6.99835Z" fill="#888888"/>
</svg>
