<svg width="24" height="24" viewBox="0 0 24 24" fill="none" xmlns="http://www.w3.org/2000/svg">
<path d="M18.2002 12.5994C21.0002 12.9494 22.9002 15.3494 22.7002 17.9994C22.5002 20.7494 20.2502 22.7494 17.5002 22.6994C14.9502 22.6494 12.7502 20.4994 12.6002 17.8994C12.5002 15.1994 14.4502 12.8994 17.1002 12.5994C17.1002 12.5494 17.1002 12.4494 17.1002 12.3994C17.1002 9.29944 17.1002 6.24944 17.1002 3.14944C17.1002 2.64944 16.9002 2.44944 16.4002 2.44944C12.0002 2.44944 7.55017 2.44944 3.15017 2.44944C2.70017 2.44944 2.45017 2.64944 2.45017 3.09944C2.45017 8.64944 2.45017 14.1994 2.45017 19.7494C2.45017 20.1994 2.65017 20.3994 3.10017 20.3994C6.00017 20.3994 8.90017 20.3994 11.8002 20.3994C11.9002 20.3994 11.9502 20.3994 12.0502 20.3994C12.3502 20.4494 12.5502 20.6994 12.5502 20.9494C12.5502 21.2494 12.3502 21.4494 12.0502 21.4994C12.0002 21.4994 11.9002 21.4994 11.8502 21.4994C8.95017 21.4994 6.05017 21.4994 3.15017 21.4994C2.05017 21.4994 1.35017 20.7994 1.35017 19.6994C1.35017 14.1494 1.35017 8.59944 1.35017 3.04944C1.30017 1.99944 2.00017 1.29944 3.10017 1.29944C7.50017 1.29944 11.9502 1.29944 16.3502 1.29944C17.4502 1.29944 18.1502 1.99944 18.1502 3.09944C18.1502 6.14944 18.1502 9.19944 18.1502 12.2994C18.2002 12.3994 18.2002 12.4994 18.2002 12.5994ZM16.9502 18.3494C16.9002 18.2994 16.8502 18.1994 16.8002 18.1494C16.4502 17.7994 16.0502 17.3994 15.7002 17.0494C15.3502 16.7494 14.8502 16.8994 14.7502 17.2994C14.7002 17.5494 14.8002 17.6994 14.9502 17.8994C15.4502 18.3994 15.9502 18.8994 16.4502 19.3994C16.8502 19.7994 17.1002 19.7994 17.5002 19.3994C18.4002 18.4994 19.3502 17.5494 20.2502 16.6494C20.3002 16.5994 20.4002 16.4994 20.4502 16.4494C20.6002 16.1994 20.5502 15.9494 20.3502 15.7494C20.1502 15.5494 19.8502 15.5494 19.6502 15.6994C19.5502 15.7494 19.5002 15.8494 19.4502 15.8994C18.6002 16.6994 17.8002 17.4994 16.9502 18.3494Z" fill="#888888"/>
<path d="M5.90039 7.19949C5.90039 5.04949 7.60039 3.34949 9.75039 3.34949C11.9004 3.34949 13.6004 5.04949 13.6504 7.19949C13.6504 9.34949 11.9504 11.0495 9.80039 11.0495C7.65039 11.0495 5.90039 9.34949 5.90039 7.19949ZM8.20039 7.89949C7.75039 6.94949 7.85039 6.09949 8.55039 5.49949C9.20039 4.94949 10.1004 4.89949 10.8004 5.39949C11.1504 5.64949 11.3504 5.94949 11.5004 6.34949C11.6504 6.89949 11.6004 7.39949 11.3004 7.89949C11.6004 8.09949 11.9004 8.24949 12.2004 8.44949C12.8004 7.39949 12.5004 5.89949 11.5004 5.09949C10.4504 4.24949 8.90039 4.29949 7.90039 5.24949C6.80039 6.29949 6.95039 7.79949 7.35039 8.44949C7.60039 8.24949 7.90039 8.09949 8.20039 7.89949ZM11.4504 9.34949C10.5504 8.49949 8.80039 8.59949 8.10039 9.34949C9.05039 10.1495 10.4504 10.1495 11.4504 9.34949ZM9.75039 7.59949C10.1504 7.59949 10.4504 7.29949 10.4504 6.89949C10.4504 6.49949 10.1504 6.19949 9.75039 6.19949C9.35039 6.19949 9.05039 6.49949 9.05039 6.89949C9.05039 7.29949 9.35039 7.59949 9.75039 7.59949Z" fill="#888888"/>
<path d="M9.20059 11.7994C10.8506 11.7994 12.5006 11.7994 14.1506 11.7994C14.3006 11.7994 14.4506 11.7994 14.5506 11.8994C14.7506 11.9994 14.8506 12.2494 14.8006 12.4994C14.7506 12.7494 14.5506 12.8994 14.3006 12.9494C14.2506 12.9494 14.1506 12.9494 14.1006 12.9494C10.8506 12.9494 7.55059 12.9494 4.30059 12.9494C4.25059 12.9494 4.15059 12.9494 4.10059 12.9494C3.80059 12.8994 3.60059 12.6494 3.60059 12.3994C3.60059 12.0994 3.85059 11.8994 4.10059 11.8494C4.20059 11.8494 4.25059 11.8494 4.35059 11.8494C5.95059 11.7994 7.55059 11.7994 9.20059 11.7994Z" fill="#888888"/>
<path d="M8.05025 15.1995C6.75025 15.1995 5.45025 15.1995 4.15025 15.1995C3.70025 15.1995 3.40025 14.7995 3.60025 14.4495C3.70025 14.1995 3.90025 14.0995 4.15025 14.0995C4.65025 14.0995 5.15025 14.0995 5.65025 14.0995C7.70025 14.0995 9.80025 14.0995 11.8503 14.0995C12.0003 14.0995 12.1503 14.0995 12.2503 14.1995C12.4503 14.2995 12.6003 14.5995 12.5003 14.7995C12.5003 14.9995 12.2503 15.1495 12.0003 15.1995C11.5003 15.1995 11.0503 15.1995 10.5503 15.1995C9.70025 15.1995 8.90025 15.1995 8.05025 15.1995Z" fill="#888888"/>
<path d="M7.00008 17.8994C7.40008 17.6494 7.75008 17.4994 8.20008 17.4994C8.85008 17.4994 9.45008 18.0494 9.55008 18.6994C9.60008 18.9494 9.40008 19.2494 9.15008 19.2994C8.90008 19.3994 8.60008 19.2494 8.50008 18.9994C8.45008 18.9494 8.45008 18.8494 8.40008 18.7994C8.30008 18.5994 8.15008 18.5494 7.95008 18.6494C7.80008 18.7494 7.65008 18.7994 7.50008 18.8994C6.80008 19.2994 6.20008 19.0494 5.90008 18.2994C5.85008 18.0994 5.75008 17.8494 5.70008 17.5994C5.50008 17.6994 5.30008 17.7494 5.20008 17.8994C5.00008 18.0994 4.80008 18.3494 4.65008 18.5994C4.45008 18.8994 4.15008 19.0494 3.85008 18.8494C3.55008 18.6994 3.50008 18.3494 3.70008 18.0494C4.05008 17.4994 4.45008 16.9994 5.05008 16.6994C5.20008 16.6494 5.35008 16.5994 5.55008 16.5494C6.10008 16.4494 6.55008 16.6994 6.75008 17.1994C6.85008 17.3994 6.90008 17.5994 7.00008 17.8994Z" fill="#888888"/>
</svg>
