<svg width="24" height="22" viewBox="0 0 24 22" fill="none" xmlns="http://www.w3.org/2000/svg">
<path fill-rule="evenodd" clip-rule="evenodd" d="M1.2 -0.000488281C0.537258 -0.000488281 0 0.53677 0 1.19951V19.9995C0 21.1041 0.895429 21.9995 2 21.9995H21.7838C22.8884 21.9995 23.7838 21.1041 23.7838 19.9995V15.2303V1.99951C23.7838 0.894942 22.8884 -0.000488281 21.7838 -0.000488281H1.2ZM4.88219 5.93982C4.84038 5.93982 4.79857 5.93559 4.75676 5.93136V6.10054C4.76233 6.11605 4.76884 6.13108 4.77534 6.14612C4.78835 6.1762 4.80136 6.20628 4.80693 6.24011C4.88775 6.74752 4.97042 7.25492 5.05309 7.76232L5.05315 7.76271L5.05316 7.76273L5.05317 7.76279L5.05318 7.76286L5.05319 7.76292C5.21856 8.77793 5.38394 9.79294 5.53445 10.808C5.65152 11.6031 6.28288 11.9837 6.87242 11.9711C7.78615 11.9529 8.69774 11.9564 9.61025 11.9598C9.97547 11.9612 10.3408 11.9626 10.7065 11.9626H10.8529C11.271 8.87931 14.6661 7.35246 17.1664 9.04849C17.3008 8.22616 17.4339 7.40384 17.5671 6.58083L17.5676 6.57786C17.6788 5.89068 17.7901 5.20302 17.9023 4.51448H19.027V3.56708H17.1037C17.006 4.18301 16.9058 4.79638 16.805 5.41318L16.719 5.93982H16.5936H4.88219ZM14.8921 9.3107C16.6231 9.31493 18.0113 10.7318 18.0029 12.4828C17.9946 14.2211 16.5897 15.6253 14.8671 15.6169C13.1528 15.6084 11.7605 14.1915 11.7688 12.4617C11.7772 10.7149 13.1737 9.30225 14.8921 9.3107ZM14.8712 14.09L16.8949 12.0429C16.6984 11.8399 16.4852 11.62 16.2677 11.3958C15.8162 11.8568 15.3564 12.322 14.8882 12.7956L14.888 12.7958C14.6509 12.556 14.4159 12.3172 14.1842 12.0817L14.1841 12.0816L14.1834 12.081L14.1834 12.0809C13.9577 11.8516 13.7351 11.6254 13.5166 11.4043C13.2953 11.6323 13.0782 11.8519 12.8695 12.0631L12.8695 12.0631L12.869 12.0636L12.8688 12.0638L12.8685 12.0641C13.3157 12.5137 13.7667 12.9708 14.2127 13.4229C14.4338 13.647 14.6537 13.8699 14.8712 14.09ZM5.73923 14.6568H11.434C11.3341 14.4431 11.2361 14.2294 11.1388 14.0171L11.1386 14.0167L11.1382 14.0158C11.0931 13.9176 11.0482 13.8196 11.0033 13.7221H5.73923V14.6568ZM5.7311 16.7293C5.7311 16.116 6.2203 15.6169 6.82238 15.6169C7.42447 15.6169 7.91784 16.116 7.92203 16.725C7.92621 17.3341 7.43283 17.8374 6.82656 17.8374C6.22448 17.8374 5.7311 17.3425 5.7311 16.7293ZM15.8909 16.4416C15.1968 16.615 14.4986 16.6107 13.7961 16.4162C13.654 16.8645 13.8254 17.3509 14.2059 17.63C14.5906 17.9092 15.1132 17.905 15.4937 17.6216C15.8616 17.3467 16.0247 16.8603 15.8909 16.4416Z" fill="#888888"/>
</svg>
