<svg width="24" height="25" viewBox="0 0 24 25" fill="none" xmlns="http://www.w3.org/2000/svg">
<path d="M12.2887 1.45568C9.24529 1.3658 6.28252 2.42942 4.00883 4.4281L4.76222 0.35183L2.80648 0L1.48224 7.15508L8.73432 8.46084L9.0908 6.53061L5.36676 5.8596C7.15079 4.31537 9.43719 3.45449 11.81 3.43358C14.1829 3.41267 16.4845 4.23311 18.2962 5.74564C20.1079 7.25818 21.3092 9.36231 21.6817 11.6753C22.0542 13.9882 21.5731 16.3563 20.326 18.3487C19.0788 20.3411 17.1483 21.8255 14.8859 22.5318C12.6234 23.2381 10.1792 23.1193 7.99799 22.1972C5.81675 21.275 4.04336 19.6107 3.00045 17.507C1.95754 15.4034 1.71439 13.0001 2.31525 10.7344L0.390755 10.2363C-0.237453 12.5989 -0.105669 15.0958 0.767853 17.3812C1.64137 19.6666 3.21339 21.6273 5.26614 22.9917C7.31889 24.3561 9.75076 25.0567 12.2249 24.9964C14.699 24.9361 17.0928 24.118 19.0749 22.6552C21.0569 21.1925 22.529 19.1576 23.2872 16.8325C24.0454 14.5073 24.0521 12.007 23.3066 9.67793C22.561 7.34883 21.1 5.3062 19.1259 3.83303C17.1518 2.35985 14.7624 1.52904 12.2887 1.45568Z" fill="#F38020"/>
<path fill-rule="evenodd" clip-rule="evenodd" d="M19.3526 10.3167L17.5647 8.55213L10.5509 15.4751L7.76155 12.7233L5.97119 14.4897L10.5546 19.0139L12.3449 17.2469L12.3382 17.2397L19.3526 10.3167Z" fill="#F38020"/>
</svg>
