<svg width="25" height="25" viewBox="0 0 25 25" fill="none" xmlns="http://www.w3.org/2000/svg">
<g clip-path="url(#clip0_922_1994)">
<path opacity="0.502" d="M15.6245 21.8753H18.7496V25H15.6245V21.8753Z" fill="#0074BF"/>
<path opacity="0.702" d="M12.5002 21.8753H15.6249V25H12.5002V21.8753ZM9.37549 21.8753H12.5002V25H9.37549V21.8753Z" fill="#0074BF"/>
<path opacity="0.502" d="M6.25 21.8753H9.3751V25H6.25V21.8753Z" fill="#0074BF"/>
<path opacity="0.702" d="M18.75 18.7502H21.8751V21.8753H18.75V18.7502Z" fill="#0082BF"/>
<path opacity="0.8" d="M15.6245 18.7502H18.7496V21.8753H15.6245V18.7502Z" fill="#0082BF"/>
<path d="M12.5002 18.7502H15.6249V21.8753H12.5002V18.7502ZM9.37549 18.7502H12.5002V21.8753H9.37549V18.7502Z" fill="#0082BF"/>
<path opacity="0.8" d="M6.25 18.7502H9.3751V21.8753H6.25V18.7502Z" fill="#0082BF"/>
<path opacity="0.702" d="M3.12451 18.7502H6.24962V21.8753H3.12451V18.7502Z" fill="#0082BF"/>
<path opacity="0.502" d="M21.8755 15.6247H25.0002V18.7498H21.8755V15.6247Z" fill="#008FBF"/>
<path opacity="0.8" d="M18.75 15.6247H21.8751V18.7498H18.75V15.6247Z" fill="#008FBF"/>
<path d="M15.6249 15.6247H18.75V18.7498H15.6249V15.6247ZM12.5002 15.6247H15.6249V18.7498H12.5002V15.6247ZM9.37549 15.6247H12.5002V18.7498H9.37549V15.6247Z" fill="#008FBF"/>
<path d="M6.25 15.6247H9.3751V18.7498H6.25V15.6247Z" fill="#008FBF"/>
<path opacity="0.8" d="M3.12451 15.6247H6.24962V18.7498H3.12451V15.6247Z" fill="#008FBF"/>
<path opacity="0.502" d="M0 15.6247H3.12469V18.7498H0V15.6247Z" fill="#008FBF"/>
<path opacity="0.702" d="M21.8755 12.5H25.0002V15.6247H21.8755V12.5Z" fill="#009DBF"/>
<path d="M18.7504 12.5H21.8755V15.6247H18.7504V12.5ZM15.6249 12.5H18.75V15.6247H15.6249V12.5ZM12.5002 12.5H15.6249V15.6247H12.5002V12.5ZM9.37549 12.5H12.5002V15.6247H9.37549V12.5Z" fill="#009DBF"/>
<path d="M6.25003 12.5H9.37514V15.6247H6.25003V12.5ZM3.12451 12.5H6.24962V15.6247H3.12451V12.5Z" fill="#009DBF"/>
<path opacity="0.702" d="M0 12.5H3.12469V15.6247H0V12.5Z" fill="#009DBF"/>
<path opacity="0.702" d="M21.8755 9.37531H25.0002V12.5H21.8755V9.37531Z" fill="#00ABBF"/>
<path d="M18.7504 9.37531H21.8755V12.5H18.7504V9.37531ZM15.6249 9.37531H18.75V12.5H15.6249V9.37531ZM12.5002 9.37531H15.6249V12.5H12.5002V9.37531ZM9.37549 9.37531H12.5002V12.5H9.37549V9.37531Z" fill="#00ABBF"/>
<path d="M6.25003 9.37531H9.37514V12.5H6.25003V9.37531ZM3.12451 9.37531H6.24962V12.5H3.12451V9.37531Z" fill="#00ABBF"/>
<path opacity="0.702" d="M0 9.37531H3.12469V12.5H0V9.37531Z" fill="#00ABBF"/>
<path opacity="0.502" d="M21.8755 6.25019H25.0002V9.37529H21.8755V6.25019Z" fill="#00B9BF"/>
<path opacity="0.8" d="M18.75 6.25019H21.8751V9.37529H18.75V6.25019Z" fill="#00B9BF"/>
<path d="M15.6249 6.25019H18.75V9.37529H15.6249V6.25019ZM12.5002 6.25019H15.6249V9.37529H12.5002V6.25019ZM9.37549 6.25019H12.5002V9.37529H9.37549V6.25019Z" fill="#00B9BF"/>
<path d="M6.25 6.25019H9.3751V9.37529H6.25V6.25019Z" fill="#00B9BF"/>
<path opacity="0.8" d="M3.12451 6.25019H6.24962V9.37529H3.12451V6.25019Z" fill="#00B9BF"/>
<path opacity="0.502" d="M0 6.25021H3.12469V9.37531H0V6.25021Z" fill="#00B9BF"/>
<path opacity="0.702" d="M18.75 3.12469H21.8751V6.24979H18.75V3.12469Z" fill="#00C6BF"/>
<path opacity="0.8" d="M15.6245 3.12469H18.7496V6.24979H15.6245V3.12469Z" fill="#00C6BF"/>
<path d="M12.5002 3.12469H15.6249V6.24979H12.5002V3.12469ZM9.37549 3.12469H12.5002V6.24979H9.37549V3.12469Z" fill="#00C6BF"/>
<path opacity="0.8" d="M6.25 3.12469H9.3751V6.24979H6.25V3.12469Z" fill="#00C6BF"/>
<path opacity="0.702" d="M3.12451 3.12469H6.24962V6.24979H3.12451V3.12469Z" fill="#00C6BF"/>
<path opacity="0.502" d="M15.6245 -1.52588e-05H18.7496V3.12467H15.6245V-1.52588e-05Z" fill="#00D4BF"/>
<path opacity="0.702" d="M12.5002 -1.52588e-05H15.6249V3.12467H12.5002V-1.52588e-05ZM9.37549 -1.52588e-05H12.5002V3.12467H9.37549V-1.52588e-05Z" fill="#00D4BF"/>
<path opacity="0.502" d="M6.25 -1.52588e-05H9.3751V3.12467H6.25V-1.52588e-05Z" fill="#00D4BF"/>
<path d="M8.22784 11.5141L9.09861 9.56515C9.41613 9.06572 9.37399 8.45363 9.02684 8.10649C9.01516 8.09481 9.00348 8.08355 8.99096 8.0727C8.97886 8.06185 8.96635 8.051 8.95383 8.04099C8.92821 8.02045 8.90147 8.00137 8.87372 7.98383C8.81445 7.94738 8.75135 7.91757 8.68554 7.89496C8.61962 7.87201 8.55161 7.85657 8.48235 7.84822C8.41309 7.8403 8.34299 7.83988 8.27373 7.84697C8.20447 7.85407 8.13604 7.86825 8.07012 7.89037C7.99543 7.91331 7.92284 7.94335 7.85357 7.97924C7.7844 8.01546 7.71851 8.05762 7.65664 8.10524C7.59483 8.15329 7.53731 8.20662 7.48474 8.26463C7.43249 8.3227 7.38544 8.38525 7.34413 8.45155C7.30324 8.51789 6.15208 11.2328 5.70856 12.4829C5.26504 13.7329 5.44194 16.0257 7.15262 17.7397C8.96676 19.5538 11.5933 19.9681 13.2685 18.711C13.286 18.7022 13.3035 18.6926 13.3202 18.683C13.3373 18.6734 13.354 18.663 13.3703 18.6522C13.387 18.6417 13.4028 18.6305 13.4187 18.6188C13.4345 18.6075 13.45 18.5954 13.465 18.5829L18.6275 14.272C18.8782 14.0646 19.2491 13.6378 18.9162 13.1505C18.5912 12.6752 17.9753 12.9986 17.7241 13.1592L14.753 15.3197C14.7392 15.331 14.723 15.3397 14.7059 15.3447C14.6883 15.3497 14.6704 15.3514 14.6524 15.3493C14.6345 15.3472 14.617 15.3414 14.6015 15.3326C14.5857 15.3239 14.5719 15.3118 14.5611 15.2972C14.4856 15.2045 14.4722 14.9588 14.5907 14.8616L19.1453 10.9963C19.5387 10.642 19.5934 10.1268 19.2746 9.77377C18.9638 9.42788 18.4697 9.43831 18.073 9.79589L13.9724 13.0015C13.9532 13.0174 13.931 13.0291 13.9073 13.0357C13.8835 13.0424 13.8584 13.0445 13.8338 13.0412C13.8092 13.0378 13.7858 13.0299 13.7646 13.017C13.7433 13.0044 13.7245 12.9877 13.7103 12.9677C13.6294 12.8768 13.5981 12.722 13.6895 12.631L18.3333 8.12444C18.4205 8.04307 18.491 7.94544 18.5403 7.83738C18.5895 7.72889 18.6175 7.61165 18.6216 7.49274C18.6258 7.37383 18.6066 7.25491 18.5649 7.14351C18.5232 7.03169 18.4602 6.92947 18.3792 6.84227C18.3387 6.79929 18.2937 6.76091 18.2457 6.72753C18.1974 6.69395 18.1458 6.6653 18.0917 6.64199C18.0375 6.61904 17.9812 6.60152 17.9236 6.58942C17.866 6.57774 17.8072 6.5719 17.7483 6.57231C17.6883 6.57148 17.6282 6.57649 17.5694 6.58775C17.451 6.60942 17.3382 6.65423 17.2372 6.7196C17.1867 6.75214 17.1396 6.78969 17.0962 6.83142L12.351 11.2888C12.2375 11.4022 12.0155 11.2888 11.9884 11.1561C11.9859 11.1444 11.9851 11.1323 11.9855 11.1202C11.9859 11.1081 11.988 11.096 11.9917 11.0847C11.9951 11.073 12.0001 11.0618 12.0063 11.0518C12.0126 11.0413 12.0201 11.0317 12.0289 11.0234L15.6609 6.88775C15.7489 6.80597 15.8194 6.70728 15.8683 6.59759C15.9172 6.48789 15.9435 6.36945 15.9455 6.24937C15.9501 6.00696 15.8558 5.77289 15.6847 5.6014C15.5132 5.4295 15.2796 5.33437 15.0371 5.33813C14.7947 5.34188 14.564 5.44369 14.3979 5.6206L8.88999 11.7102C8.69264 11.9075 8.40182 11.9175 8.2633 11.8028C8.24202 11.7861 8.2245 11.7652 8.21156 11.7419C8.19821 11.7185 8.18987 11.6926 8.18653 11.6659C8.18319 11.6388 8.18528 11.6117 8.19237 11.5858C8.19946 11.56 8.21156 11.5353 8.22784 11.5141Z" fill="white"/>
</g>
<defs>
<clipPath id="clip0_922_1994">
<rect width="25" height="25" fill="white"/>
</clipPath>
</defs>
</svg>
