<svg width="25" height="25" viewBox="0 0 25 25" fill="none" xmlns="http://www.w3.org/2000/svg">
<path d="M24.9999 12.4824C24.9993 12.3026 24.9952 12.1238 24.9871 11.9458V1.79986L22.1904 4.6048C19.9014 1.79479 16.4193 0 12.519 0C8.4601 0 4.85416 1.94308 2.57471 4.95224L7.15891 9.59824C7.60817 8.76494 8.24638 8.04922 9.0159 7.50866C9.81622 6.88228 10.9502 6.37013 12.5189 6.37013C12.7084 6.37013 12.8546 6.39234 12.9621 6.43418C14.9057 6.58803 16.5904 7.66378 17.5823 9.22515L14.3374 12.4796C18.4475 12.4634 23.0906 12.4539 24.9996 12.4817" fill="#1C3AA9"/>
<path d="M12.4459 0.000247955C12.2667 0.000844935 12.0884 0.00499397 11.9109 0.0130532H1.79461L4.59135 2.81799C1.78955 5.11367 0 8.606 0 12.5177C0 16.5885 1.93743 20.205 4.93778 22.4911L9.5702 17.8935C8.73934 17.4429 8.02571 16.8029 7.48672 16.0311C6.8622 15.2284 6.35152 14.0911 6.35152 12.5179C6.35152 12.3278 6.37366 12.1811 6.41538 12.0733C6.56878 10.1241 7.64139 8.43443 9.1982 7.43957L12.4431 10.694C12.427 6.57186 12.4175 1.91512 12.4452 0.00060606" fill="#4285F4"/>
<path d="M0.000976562 12.5176C0.0015718 12.6974 0.00570871 12.8762 0.0137444 13.0542V23.2001L2.81049 20.3952C5.09947 23.2052 8.5816 25 12.4819 25C16.5408 25 20.1467 23.0569 22.4262 20.0478L17.842 15.4018C17.3927 16.2351 16.7545 16.9508 15.985 17.4913C15.1847 18.1177 14.0507 18.6299 12.482 18.6299C12.2925 18.6299 12.1463 18.6077 12.0388 18.5658C10.0952 18.412 8.41052 17.3362 7.41856 15.7749L10.6635 12.5204C6.55339 12.5366 1.91025 12.5461 0.00133419 12.5183" fill="#ABABAB"/>
</svg>
