<svg width="24" height="24" viewBox="0 0 24 24" fill="none" xmlns="http://www.w3.org/2000/svg">
<path d="M13.8 14.75C12.65 13.85 11.2 13.95 10.2 14.8C9.75 14.4 9.25 14 8.75 13.6C7.65 12.65 6.5 11.7 5.4 10.75C5.3 10.65 5.25 10.55 5.25 10.4C5.25 7.7 5.25 5.05 5.25 2.35C5.25 1.75 5.5 1.5 6.1 1.5C10 1.5 13.95 1.5 17.9 1.5C18.45 1.5 18.75 1.8 18.75 2.35C18.75 5 18.75 7.7 18.75 10.35C18.75 10.45 18.7 10.55 18.65 10.65C17.05 12 15.5 13.35 13.9 14.7C13.85 14.7 13.8 14.7 13.8 14.75ZM12 3.85C13.55 3.85 15.1 3.85 16.65 3.85C16.95 3.85 17.1 3.7 17.1 3.5C17.1 3.25 16.95 3.15 16.65 3.1C16.6 3.1 16.55 3.1 16.55 3.1C13.5 3.1 10.45 3.1 7.45 3.1C7.35 3.1 7.25 3.1 7.15 3.15C6.95 3.2 6.9 3.35 6.9 3.5C6.9 3.7 7.05 3.8 7.2 3.85C7.25 3.85 7.35 3.85 7.4 3.85C8.95 3.85 10.45 3.85 12 3.85ZM8.2 7.6C8.4 7.6 8.6 7.6 8.8 7.6C9.25 7.6 9.55 7.3 9.55 6.85C9.55 6.45 9.55 6.05 9.55 5.65C9.55 5.2 9.25 4.9 8.8 4.9C8.4 4.9 7.95 4.9 7.55 4.9C7.1 4.9 6.8 5.2 6.8 5.65C6.8 6.05 6.8 6.5 6.8 6.9C6.8 7.3 7.1 7.6 7.5 7.6C7.8 7.6 8 7.6 8.2 7.6ZM8.25 11.15C8.45 11.15 8.65 11.15 8.85 11.15C9.25 11.15 9.6 10.85 9.6 10.45C9.6 10.05 9.6 9.6 9.6 9.2C9.6 8.8 9.3 8.5 8.9 8.45C8.45 8.45 8.05 8.45 7.6 8.45C7.2 8.45 6.9 8.8 6.9 9.2C6.9 9.6 6.9 10 6.9 10.4C6.9 10.85 7.2 11.15 7.65 11.15C7.85 11.15 8.05 11.15 8.25 11.15ZM13.75 7.4C14.45 7.4 15.1 7.4 15.8 7.4C16.1 7.4 16.4 7.4 16.7 7.4C16.9 7.4 17.05 7.25 17.05 7.05C17.05 6.85 16.95 6.7 16.7 6.65C16.65 6.65 16.55 6.65 16.5 6.65C14.65 6.65 12.8 6.65 10.9 6.65C10.8 6.65 10.7 6.65 10.6 6.7C10.4 6.75 10.3 6.95 10.35 7.15C10.4 7.35 10.55 7.4 10.75 7.4C11.85 7.4 12.8 7.4 13.75 7.4ZM13.8 10.95C14.5 10.95 15.2 10.95 15.9 10.95C16.2 10.95 16.45 10.95 16.75 10.95C16.95 10.95 17.1 10.8 17.1 10.6C17.1 10.4 17 10.25 16.75 10.2C16.7 10.2 16.6 10.2 16.55 10.2C15.1 10.2 13.65 10.2 12.2 10.2C11.75 10.2 11.3 10.2 10.85 10.2C10.6 10.2 10.45 10.3 10.4 10.5C10.35 10.75 10.55 10.95 10.85 10.95C11.85 10.95 12.8 10.95 13.8 10.95ZM12.35 5.8C12.85 5.8 13.4 5.8 13.9 5.8C14.15 5.8 14.3 5.65 14.35 5.45C14.35 5.25 14.2 5.1 13.95 5.1C12.95 5.1 11.9 5.1 10.9 5.1C10.65 5.1 10.5 5.25 10.5 5.45C10.5 5.65 10.65 5.8 10.95 5.8C11.35 5.8 11.85 5.8 12.35 5.8ZM12.4 9.4C12.9 9.4 13.4 9.4 13.9 9.4C14.2 9.4 14.35 9.25 14.35 9.05C14.35 8.85 14.2 8.7 13.9 8.7C12.9 8.7 11.85 8.7 10.85 8.7C10.55 8.7 10.4 8.85 10.4 9.1C10.4 9.3 10.55 9.45 10.85 9.45C11.4 9.4 11.9 9.4 12.4 9.4Z" fill="#1E62B9"/>
<path d="M21.5 22.35C21.25 22.4 20.95 22.5 20.7 22.5C14.9 22.5 9.10004 22.5 3.30004 22.5C3.05004 22.5 2.85004 22.45 2.60004 22.4V22.35C3.05004 21.9 3.55004 21.5 4.00004 21.1C6.15004 19.25 8.35004 17.35 10.5 15.5C11.2 14.9 11.9 14.7 12.8 15.05C13 15.15 13.15 15.25 13.3 15.35C16 17.65 18.7 19.9 21.4 22.2C21.45 22.25 21.45 22.25 21.5 22.3C21.5 22.25 21.5 22.3 21.5 22.35Z" fill="#1E62B9"/>
<path d="M1.95002 8.75C4.50002 10.9 7.10002 13.05 9.65002 15.25C7.10002 17.45 4.55002 19.65 2.00002 21.85C1.75002 21.55 1.65002 21.2 1.65002 20.85C1.65002 19.6 1.65002 18.3 1.65002 17.05C1.65002 14.6 1.65002 12.15 1.65002 9.65C1.65002 9.35 1.75002 9.05 1.80002 8.75C1.85002 8.75 1.90002 8.75 1.95002 8.75Z" fill="#1E62B9"/>
<path d="M22.05 21.75C19.5 19.6 16.95 17.4 14.35 15.25C16.9 13.05 19.45 10.9 22.05 8.75C22.25 9.05 22.3 9.35 22.3 9.7C22.3 12 22.3 14.3 22.3 16.55C22.3 18 22.3 19.4 22.3 20.85C22.3 21.15 22.25 21.45 22.05 21.75Z" fill="#1E62B9"/>
<path d="M2.40002 8.20002C3.10002 7.80002 3.80002 8.00002 4.50002 7.95002C4.50002 8.60002 4.50002 9.25002 4.50002 9.95002C3.80002 9.35002 3.10002 8.80002 2.40002 8.20002Z" fill="#1E62B9"/>
<path d="M19.5 7.95002C20.2 8.00002 20.85 7.80002 21.5 8.20002C20.8 8.75002 20.15 9.35002 19.5 9.90002C19.5 9.25002 19.5 8.60002 19.5 7.95002Z" fill="#1E62B9"/>
<path d="M7.65002 6.85002C7.65002 6.45002 7.65002 6.05002 7.65002 5.65002C8.05002 5.65002 8.45002 5.65002 8.85002 5.65002C8.85002 6.05002 8.85002 6.45002 8.85002 6.85002C8.45002 6.85002 8.05002 6.85002 7.65002 6.85002Z" fill="#1E62B9"/>
<path d="M7.65002 10.4C7.65002 10 7.65002 9.60001 7.65002 9.20001C8.05002 9.20001 8.45002 9.20001 8.85002 9.20001C8.85002 9.60001 8.85002 10 8.85002 10.4C8.45002 10.4 8.05002 10.4 7.65002 10.4Z" fill="#1E62B9"/>
</svg>
