<svg width="22" height="22" viewBox="0 0 22 22" fill="none" xmlns="http://www.w3.org/2000/svg">
<path d="M11.5093 10.248C11.5093 9.7354 11.5093 9.24777 11.5093 8.75389C13.4848 8.81016 14.5038 7.27226 14.5038 5.98442C14.4976 4.69034 13.4348 3.16494 11.5093 3.24621C11.5093 2.25845 11.5093 1.2707 11.5093 0.264183C11.5593 0.257932 11.6093 0.25168 11.6593 0.25168C13.9974 0.25168 16.3293 0.245428 18.6674 0.25168C20.124 0.25168 21.2181 1.17067 21.4619 2.57729C21.4869 2.72732 21.4931 2.88987 21.4931 3.04616C21.4931 5.39677 21.4931 7.74738 21.4931 10.098C21.4931 10.1418 21.4931 10.1855 21.4931 10.2543C21.2556 10.2543 21.043 10.2543 20.8242 10.2543C19.7552 10.2543 18.6861 10.2793 17.6171 10.248C16.9232 10.223 16.5293 10.8607 16.8544 11.4546C17.1045 11.911 17.042 12.3861 16.7169 12.7924C16.3855 13.1988 15.9479 13.3488 15.4416 13.2176C14.9352 13.0863 14.6038 12.7487 14.5351 12.2298C14.4976 11.9735 14.5538 11.6797 14.6538 11.4421C14.9352 10.7794 14.6226 10.2605 13.8911 10.2605C13.0972 10.248 12.3095 10.248 11.5093 10.248Z" fill="#4D4D4D"/>
<path d="M11.4966 11.761C12.003 11.761 12.4907 11.761 12.997 11.761C12.9533 12.6925 13.2596 13.4864 13.966 14.0928C14.5162 14.568 15.1663 14.7868 15.8915 14.7493C17.3107 14.6805 18.5985 13.4739 18.4985 11.7672C19.4925 11.7672 20.4865 11.7672 21.4992 11.7672C21.4992 11.811 21.4992 11.8485 21.4992 11.8798C21.4992 14.2366 21.5055 16.5997 21.4992 18.9566C21.493 20.282 20.6803 21.3385 19.4362 21.6573C19.2049 21.7136 18.9611 21.7448 18.7173 21.7448C16.3479 21.7511 13.9848 21.7511 11.6154 21.7511C11.5842 21.7511 11.5529 21.7448 11.5029 21.7448C11.5029 21.6573 11.5029 21.576 11.5029 21.4885C11.5029 20.2757 11.5029 19.0691 11.5029 17.8563C11.5029 17.1311 10.9778 16.7998 10.3151 17.1124C9.8087 17.3499 9.27106 17.2687 8.88346 16.8998C8.50211 16.5372 8.38958 15.9746 8.60214 15.4995C8.80844 15.0243 9.30232 14.7118 9.82121 14.7618C10.0088 14.7805 10.2026 14.8493 10.3776 14.9243C10.9465 15.1806 11.4966 14.8493 11.5029 14.2179C11.4966 13.4114 11.4966 12.5987 11.4966 11.761Z" fill="#4D4D4D"/>
<path d="M9.9963 0.251709C9.9963 0.357987 9.9963 0.451761 9.9963 0.545536C9.9963 1.7396 10.0213 2.93366 9.98379 4.12772C9.96504 4.82165 10.5902 5.22175 11.1904 4.89042C11.6467 4.64035 12.1219 4.69662 12.5282 5.02795C12.9221 5.34679 13.0783 5.77815 12.9596 6.28453C12.8345 6.80967 12.4969 7.141 11.9718 7.21602C11.7155 7.25353 11.4217 7.19727 11.1841 7.09724C10.5152 6.81592 9.9963 7.1285 9.9963 7.85369C9.9963 8.64139 9.9963 9.4291 9.9963 10.2356C9.49617 10.2356 9.00229 10.2356 8.50841 10.2356C8.56467 8.23504 6.98301 7.21602 5.69518 7.24728C4.34483 7.27854 2.90695 8.41008 3.00073 10.2356C2.01297 10.2356 1.02521 10.2356 0.0186997 10.2356C0.012448 10.1793 0.00619647 10.123 0.00619647 10.0668C0.00619647 7.74116 -5.51579e-05 5.4093 0.00619647 3.0837C0.00619647 1.62707 0.925186 0.533032 2.32555 0.282967C2.48809 0.257961 2.65063 0.251709 2.81318 0.251709C5.15754 0.251709 7.5019 0.251709 9.84626 0.251709C9.88377 0.251709 9.92753 0.251709 9.9963 0.251709Z" fill="#4D4D4D"/>
<path d="M0 11.7484C0.456369 11.7484 0.887731 11.7484 1.32535 11.7484C2.17557 11.7484 3.03204 11.7234 3.88226 11.7547C4.58869 11.7859 4.96379 11.1295 4.63871 10.5481C4.36989 10.073 4.48242 9.5041 4.85752 9.12275C5.22636 8.74766 5.78276 8.64138 6.25788 8.85393C6.733 9.06649 7.03933 9.56037 6.98932 10.0793C6.97056 10.2606 6.90805 10.4418 6.83303 10.6106C6.56421 11.192 6.9018 11.7422 7.53946 11.7422C8.35217 11.7484 9.16489 11.7422 9.98385 11.7422C9.98385 12.2423 9.98385 12.7299 9.98385 13.2426C9.02735 13.2051 8.21464 13.5239 7.60198 14.2741C7.15811 14.8242 6.96431 15.4619 6.99557 16.1683C7.05184 17.3249 8.03334 18.8128 9.98385 18.744C9.98385 19.7318 9.98385 20.7195 9.98385 21.726C9.93384 21.726 9.88382 21.7323 9.82756 21.7323C7.48945 21.7323 5.15759 21.7385 2.81948 21.7323C1.36911 21.7448 0.26882 20.8196 0.0250065 19.4192C0.0062516 19.2942 0 19.1691 0 19.0441C0 16.6247 0 14.2053 0 11.7484Z" fill="#4D4D4D"/>
</svg>
