<svg width="22" height="24" viewBox="0 0 22 24" fill="none" xmlns="http://www.w3.org/2000/svg">
<g clip-path="url(#clip0_70_2084)">
<path d="M20.1083 21.5682C20.0704 21.5932 20.0313 21.6056 19.9905 21.6056C19.9303 21.6056 19.878 21.5841 19.8341 21.541C19.7899 21.4978 19.7678 21.4413 19.7678 21.3713C19.7678 21.3058 19.7869 21.2501 19.8249 21.2041C19.8628 21.1581 19.9148 21.1351 19.9808 21.1351C20.0229 21.1351 20.0594 21.1438 20.0902 21.1611C20.1406 21.1893 20.1719 21.2385 20.1841 21.3087L20.0827 21.3071C20.0766 21.2745 20.0638 21.2527 20.044 21.2414C20.0277 21.231 20.0088 21.2256 19.9895 21.2257C19.9597 21.2257 19.9352 21.2381 19.9161 21.2625C19.8972 21.2871 19.8877 21.3242 19.8877 21.3736C19.8877 21.4228 19.8981 21.4585 19.9192 21.4807C19.9402 21.5029 19.9654 21.514 19.9948 21.514C20.0218 21.514 20.0422 21.5067 20.0561 21.492C20.0699 21.4773 20.0788 21.4587 20.0827 21.4365H20.1813C20.1706 21.4991 20.1463 21.5431 20.1083 21.5682ZM19.7475 21.1401C19.6841 21.2047 19.6525 21.2814 19.6525 21.3702C19.6525 21.4622 19.6847 21.5404 19.7491 21.6045C19.8132 21.669 19.8904 21.7011 19.9809 21.7011C20.0712 21.7011 20.1482 21.6687 20.212 21.6041C20.243 21.5736 20.2675 21.5371 20.284 21.4969C20.3005 21.4567 20.3086 21.4136 20.308 21.3702C20.308 21.2818 20.2762 21.2051 20.2125 21.1401C20.1484 21.0739 20.0712 21.0408 19.9808 21.0408C19.8897 21.0408 19.8119 21.0739 19.7474 21.1401M20.2588 21.6553C20.1816 21.73 20.0889 21.7673 19.9808 21.7673C19.8691 21.7673 19.7748 21.7291 19.6985 21.6525C19.6218 21.5761 19.5835 21.4819 19.5835 21.3702C19.5835 21.2541 19.625 21.1576 19.7075 21.0808C19.7851 21.0088 19.8763 20.973 19.9808 20.973C20.0904 20.973 20.184 21.0117 20.2615 21.0895C20.3391 21.167 20.3781 21.2605 20.3781 21.3702C20.3781 21.483 20.3383 21.578 20.2588 21.6553ZM21.108 17.3913C21.1065 17.3533 21.1033 17.3154 21.0985 17.2777C21.0956 17.2541 21.0912 17.2307 21.0853 17.2076C21.0761 17.1547 21.0628 17.1027 21.0454 17.0519L21.045 17.051C21.008 16.9456 20.9517 16.8479 20.8789 16.7631C20.8096 16.6832 20.7262 16.6166 20.6327 16.5669L20.6299 16.5652C20.5461 16.5218 20.4564 16.491 20.3636 16.4738C20.3393 16.4695 20.3167 16.4672 20.2941 16.4646C20.3997 16.0124 20.2675 15.6671 20.1822 15.5057C20.1888 15.4992 20.1957 15.4929 20.202 15.4868C20.3147 15.3779 20.4105 15.2738 20.4911 15.1692L20.5063 15.1483C20.5651 15.0638 20.6106 14.9708 20.6412 14.8725C20.6618 14.8056 20.6758 14.7369 20.6829 14.6673L20.6837 14.6674L20.6843 14.6637L20.6847 14.6549L20.6873 14.6357H20.6858L20.6869 14.6143H20.6875L20.6878 14.6014C20.6883 14.5887 20.6886 14.5756 20.6886 14.5617C20.6892 14.5361 20.6891 14.5095 20.6878 14.4803C20.6816 14.3403 20.6562 14.1582 20.5643 13.9611C20.5145 13.8544 20.4491 13.7558 20.3703 13.6683C20.2812 13.57 20.1766 13.4869 20.0606 13.4224L20.0613 13.4227C20.0525 13.4177 20.0456 13.413 20.0375 13.4083C19.7871 13.0395 19.501 12.7537 19.2473 12.5368C19.1312 12.4379 19.0114 12.3436 18.8882 12.2539C18.7845 12.1777 18.6971 12.1175 18.6484 12.0815L18.6489 12.0817C18.5373 11.9999 18.4544 11.9507 18.4147 11.9283C18.3231 11.8728 18.2553 11.8284 18.2142 11.7974C18.195 11.7836 18.1771 11.7682 18.1607 11.7513L18.1576 11.7472C18.157 11.7464 18.1535 11.7395 18.1487 11.7148C18.1436 11.6902 18.1381 11.648 18.1357 11.5871C18.1314 11.4915 18.1347 11.3513 18.1452 11.1661C18.1619 10.8684 18.1958 10.4577 18.2308 9.90096C18.2423 9.72389 18.244 9.55704 18.2375 9.39985C18.2271 9.14781 18.1945 8.91952 18.1418 8.71251L18.1416 8.71135C18.1301 8.66434 18.1165 8.61816 18.1024 8.57255L18.1022 8.57213L18.1019 8.57156C18.0913 8.53758 18.082 8.51193 18.0762 8.4956L18.0766 8.49651C18.0659 8.46605 18.0547 8.43581 18.0428 8.40578L18.0424 8.40455C18.0364 8.3897 18.0288 8.37065 18.0187 8.3469L18.0185 8.34632L18.0183 8.34599C17.9976 8.29671 17.9748 8.24834 17.95 8.201L17.9427 8.18715L17.929 8.16257L17.9192 8.14607C17.8705 8.06596 17.8168 7.98895 17.7586 7.91548C17.7184 7.73435 17.6652 7.55635 17.5995 7.38286C17.527 7.19341 17.4299 6.98319 17.2917 6.77585C17.2419 6.7022 17.1878 6.63158 17.1296 6.56438L17.1494 6.54376C17.1773 6.51457 17.8409 5.81964 18.3606 4.91779C19.329 3.2368 19.0066 2.20908 18.5659 1.64298L18.5533 1.62715L18.5401 1.6123C18.1151 1.13989 17.5371 0.855187 16.822 0.766445C15.3412 0.58228 13.6666 1.30888 13.2275 1.51556L12.4294 0.633909L12.4264 0.63061C12.3561 0.553554 12.278 0.483937 12.1935 0.422857C12.1086 0.36187 12.0182 0.309122 11.9233 0.265331C11.7325 0.176754 11.5233 0.121414 11.3006 0.0937023C10.8539 0.038692 10.3524 0.0920529 9.80693 0.231929C8.98945 0.442816 8.07134 0.851228 7.11167 1.4269C6.1525 2.00273 5.15291 2.74657 4.18244 3.63176C2.99646 4.71333 2.01691 5.85692 1.30318 6.94228C0.94656 7.48504 0.656168 8.01337 0.440416 8.51449C0.225076 9.01593 0.0834674 9.48991 0.0288694 9.92851C-0.0107182 10.2473 -0.00436767 10.5485 0.0596323 10.8262C0.087104 10.9463 0.12716 11.0631 0.179137 11.1749C0.244595 11.3173 0.331454 11.449 0.436704 11.5652L0.439344 11.568L1.368 12.5407L1.36264 12.55C1.35258 12.5675 1.34318 12.5853 1.33328 12.6031C1.31901 12.6295 1.30458 12.6558 1.29081 12.6825C1.28157 12.7008 1.27258 12.7189 1.26384 12.7373C1.22818 12.8101 1.19528 12.8841 1.1652 12.9594L1.1431 13.0155C1.13229 13.0442 1.12198 13.0737 1.11167 13.1027C1.10524 13.1217 1.09864 13.1406 1.09254 13.1596C1.08281 13.1893 1.0739 13.2193 1.06491 13.2495C1.06244 13.2579 1.05963 13.266 1.05724 13.2744C1.05419 13.285 1.05138 13.2958 1.0485 13.3065C1.03984 13.3373 1.03225 13.3686 1.02458 13.3998C1.02013 13.4185 1.01526 13.4373 1.01089 13.4563L1.00223 13.4975C0.998189 13.5167 0.994725 13.536 0.990849 13.5556C0.98755 13.573 0.983674 13.5906 0.980704 13.6083C0.973777 13.6475 0.968086 13.6874 0.96256 13.727C0.961076 13.7388 0.958849 13.7503 0.957447 13.7621L0.957034 13.7654L0.956127 13.7761C0.952993 13.8019 0.950766 13.8281 0.947962 13.8544C0.944168 13.8954 0.940869 13.9365 0.938643 13.978C0.937323 13.9961 0.936498 14.0146 0.935674 14.0331C0.935096 14.0474 0.934024 14.0614 0.933529 14.0757C0.932705 14.1046 0.933117 14.1339 0.932952 14.1633C0.932952 14.1807 0.932787 14.1983 0.932952 14.2161C0.933117 14.2266 0.932787 14.237 0.932952 14.2474V14.2535C0.933529 14.2723 0.934272 14.2911 0.934684 14.3098C0.935674 14.3306 0.93757 14.3508 0.938808 14.3712C0.939715 14.3865 0.940127 14.4017 0.941034 14.4168C0.942354 14.4303 0.943014 14.4404 0.943921 14.4492C0.94557 14.4684 0.947467 14.4879 0.949529 14.507C0.951509 14.5291 0.9539 14.5527 0.957199 14.5796L0.957447 14.5819V14.5815L0.961076 14.6073C0.964045 14.629 0.967509 14.651 0.970808 14.6726C0.973447 14.6921 0.976911 14.7139 0.981364 14.7413L0.986808 14.7693C0.989282 14.7825 0.992003 14.7956 0.994478 14.8085L0.994725 14.8095L0.995055 14.8113L0.998601 14.828C1.0019 14.846 1.00644 14.8685 1.01336 14.8995L1.01831 14.9203C1.02326 14.9399 1.02689 14.9547 1.02961 14.965L1.03448 14.985C1.03613 14.9916 1.03778 14.9975 1.04 15.0069L1.04479 15.0252L1.04891 15.0406L1.05254 15.0545L1.0579 15.0727L1.06293 15.0916C1.06738 15.1063 1.07225 15.1208 1.0767 15.1356C1.08207 15.1528 1.08883 15.1756 1.09881 15.2062L1.09716 15.2012L1.09905 15.207C1.10136 15.2143 1.10326 15.2191 1.10541 15.2252C1.11431 15.2507 1.12141 15.2701 1.12495 15.2802L1.12553 15.2813V15.2815C1.1313 15.2982 1.13996 15.3226 1.15217 15.3543L1.15233 15.3548L1.1525 15.3556L1.15233 15.3547L1.15332 15.3577L1.15291 15.3563L1.15827 15.3694C1.16594 15.389 1.17213 15.4041 1.17724 15.4157L1.18318 15.4305L1.18417 15.433C1.19354 15.4558 1.20316 15.4785 1.21303 15.5011L1.21246 15.4999L1.21905 15.5141C1.22524 15.5277 1.23085 15.5405 1.23604 15.5509C1.24099 15.5609 1.24512 15.5699 1.24866 15.5772L1.24817 15.5761L1.24883 15.5777C1.25666 15.5939 1.26607 15.6148 1.27926 15.6408L1.28025 15.6433L1.28108 15.6446L1.2866 15.6555C1.29221 15.6662 1.29757 15.6766 1.30244 15.6856C1.3092 15.6986 1.31538 15.7095 1.32017 15.7189L1.32116 15.721C1.32833 15.734 1.33831 15.7531 1.35184 15.7776L1.35275 15.7792L1.35374 15.781L1.35934 15.7904C1.36495 15.8003 1.37031 15.8097 1.37534 15.8182C1.38409 15.8329 1.39217 15.846 1.39844 15.857L1.40042 15.8601L1.40083 15.861C1.40743 15.8717 1.41749 15.8886 1.43167 15.9114L1.43299 15.9135L1.43712 15.9201C1.44404 15.9311 1.45081 15.9415 1.45699 15.9511C1.46722 15.9661 1.47621 15.9798 1.48396 15.9915L1.48264 15.9895C1.49114 16.002 1.50268 16.0198 1.51852 16.0422L1.51976 16.0441L1.5205 16.0455L1.5191 16.0431L1.52075 16.0456L1.52198 16.0474L1.52157 16.0471L1.52215 16.0479L1.5224 16.0481C1.52982 16.0587 1.53741 16.0691 1.54499 16.0797C1.55538 16.0943 1.56536 16.1077 1.57427 16.1196L1.57369 16.1188C1.58219 16.1303 1.59283 16.1447 1.60561 16.1617L1.60842 16.1653C1.61815 16.1779 1.62738 16.1896 1.63646 16.2011C1.64817 16.2158 1.65938 16.2295 1.66978 16.2423L1.67332 16.2468C1.68042 16.2554 1.68875 16.2657 1.69996 16.2789L1.70491 16.2848L1.70475 16.2849L1.7064 16.2869L1.70936 16.2901C1.72611 16.3097 1.7412 16.3266 1.75629 16.3434L1.77229 16.3618L1.77246 16.3621L1.77312 16.3627L1.77435 16.364L1.77394 16.3637C1.78145 16.372 1.7906 16.3824 1.80198 16.3945L1.80561 16.3985V16.3988L1.80627 16.3993L1.8085 16.4015L1.80792 16.401C1.82607 16.4206 1.84388 16.4387 1.86178 16.4569C1.8692 16.4643 1.87646 16.4726 1.88396 16.4798L1.88479 16.4806C1.88866 16.4843 1.89732 16.4934 1.91134 16.5074L1.91407 16.5099L1.92207 16.5182C1.94359 16.5393 1.96611 16.5596 1.98837 16.5801L1.99349 16.5852L1.99497 16.5864L1.99547 16.5869L1.99629 16.5877C2.00207 16.5928 2.01114 16.6012 2.02442 16.6132L2.02582 16.6147C2.05404 16.6396 2.08263 16.6642 2.11159 16.6883L2.11324 16.6897L2.12941 16.703L2.14037 16.712L2.14004 16.7116L2.15654 16.7247C2.1807 16.744 2.20437 16.7627 2.22722 16.7801L2.23365 16.7852L2.23662 16.7874C2.24536 16.7939 2.2518 16.7986 2.25534 16.8014L2.2598 16.8049L2.26326 16.8073C2.26986 16.8121 2.27646 16.8167 2.28338 16.8215C2.30359 16.8361 2.3238 16.8504 2.34417 16.8645L2.36132 16.8765L2.3633 16.878L2.3845 16.8924L2.38541 16.8928L2.39621 16.8997C2.41683 16.9137 2.43893 16.9274 2.4607 16.9414C2.47225 16.9487 2.48264 16.9556 2.4946 16.9629L2.51316 16.9742L2.52363 16.9803L2.53048 16.9844C2.56454 17.0048 2.59646 17.0232 2.62574 17.0394L2.62854 17.0408L2.64668 17.0507L2.648 17.0516C2.68842 17.0732 2.72693 17.0929 2.7633 17.111L2.76957 17.114L2.78945 17.1236L2.78961 17.1233C2.80932 17.1329 2.82837 17.1411 2.84792 17.1499C2.85699 17.1542 2.86631 17.1584 2.87547 17.1624C2.88652 17.1674 2.89807 17.1733 2.90912 17.178L2.91852 17.182L2.92124 17.1831L2.92569 17.1851C2.94466 17.1931 2.96314 17.1999 2.98178 17.2075L2.99134 17.2111C3.01229 17.2196 3.03332 17.2285 3.05419 17.2363L3.05914 17.2381L3.07464 17.2437C3.08446 17.2472 3.09452 17.2503 3.10433 17.2539L3.11365 17.2569C3.14359 17.2676 3.17361 17.2785 3.20413 17.2883L3.2113 17.2905L3.21394 17.2913L3.21493 17.2919C3.26186 17.3065 3.3087 17.3199 3.35547 17.3325L3.35728 17.333L3.3652 17.335L3.36248 17.3344C3.4038 17.3452 3.44454 17.3546 3.48479 17.3636H3.48528L3.50021 17.3676L3.51588 17.3709C3.55431 17.3793 3.59341 17.3861 3.63291 17.3929L3.64404 17.396L3.67176 17.4002C3.69551 17.4041 3.71926 17.4071 3.74301 17.4103L3.75324 17.4382L3.75365 17.4395C3.81884 17.6175 3.88911 17.7936 3.96437 17.9676C5.07827 21.05 8.15736 23.4395 11.6709 23.8764C15.1847 24.3132 18.9354 21.9778 20.4635 18.822C20.5269 18.7056 20.5872 18.5876 20.6443 18.4681C20.7958 18.312 20.9135 18.1502 20.9917 17.9787C21.0852 17.7771 21.1167 17.5649 21.108 17.3913Z" fill="#59473D"/>
<path d="M18.018 8.34509L18.0183 8.34592L18.0185 8.34625L18.018 8.34509ZM2.51339 16.9744L2.51314 16.9742H2.51298L2.51339 16.9744ZM1.51834 16.0421L1.5185 16.0425V16.0422L1.51834 16.0421ZM1.51883 16.0431L1.51908 16.0432L1.5185 16.0425L1.51883 16.0431ZM1.05285 15.0559L1.05252 15.0545L1.05228 15.0542L1.05285 15.0559ZM1.01343 14.9L1.01335 14.8995L1.01318 14.8992L1.01343 14.9ZM1.60889 16.1658L1.61005 16.1673L1.6084 16.1653L1.60749 16.1641L1.60889 16.1658Z" fill="#59473D"/>
<path d="M18.1027 1.98661C17.9325 1.79742 17.7357 1.6549 17.5219 1.54934C17.4825 1.53425 17.4425 1.52061 17.4021 1.50843C17.3823 1.49523 17.362 1.48286 17.3415 1.47074C17.1524 1.39833 16.9523 1.35107 16.7465 1.32459C15.7257 1.19321 14.5634 1.56484 13.8988 1.82876C13.8623 1.84402 13.8256 1.85927 13.7884 1.87494C13.6337 1.94104 13.48 2.00964 13.3274 2.08072C13.3131 2.08732 13.2987 2.09424 13.2844 2.10101L13.0226 1.79676L12.9475 1.7095L12.9151 1.67156L12.23 0.876181L12.1705 0.807068L12.0969 0.721707L12.0838 0.724593L11.89 0.76847L11.6662 0.819109C11.5425 0.761707 11.3955 0.720717 11.2254 0.699521C10.8846 0.656635 10.4519 0.696057 9.95908 0.82348C9.46613 0.949996 8.91347 1.16278 8.32732 1.45474C7.15495 2.038 5.8498 2.93721 4.59388 4.08294C4.16851 4.4704 3.76058 4.87657 3.37128 5.30026C3.02063 5.68108 2.68763 6.07779 2.37335 6.48913C1.76526 7.28723 1.2992 8.06348 1.00155 8.75585C0.802789 9.21721 0.67982 9.64113 0.634871 10.0039C0.601717 10.2677 0.610377 10.4984 0.654583 10.689C0.668851 10.7506 0.68782 10.8067 0.709181 10.8602C0.753634 10.9728 0.812026 11.0699 0.887407 11.153L1.64724 11.9491L1.72873 12.0343L1.73409 12.0285C1.75718 12.0017 1.78102 11.9749 1.80502 11.9488L1.81153 11.9418C1.82027 11.9323 1.82935 11.9235 1.83817 11.9145C1.86093 11.8905 1.88406 11.8669 1.90753 11.8436C1.92213 11.8292 1.93689 11.8153 1.95182 11.8013C1.96625 11.7877 1.98036 11.7735 1.99504 11.7601C2.00163 11.754 2.00848 11.7485 2.01524 11.7425C2.03067 11.7285 2.04667 11.7147 2.06267 11.7008C2.09797 11.6702 2.13396 11.6403 2.17062 11.6113L2.17656 11.6067C2.21587 11.576 2.25574 11.546 2.29615 11.5168C2.32147 11.4988 2.34728 11.4809 2.37335 11.4634C2.38902 11.4529 2.40444 11.4425 2.42019 11.4322C2.44683 11.4149 2.47405 11.3981 2.50126 11.3815C2.51718 11.3719 2.5326 11.3623 2.54836 11.3531C2.57689 11.3364 2.60584 11.3206 2.63462 11.3047C2.65005 11.2965 2.66522 11.2878 2.68064 11.2796L2.69796 11.2706L2.7006 11.269C2.7251 11.2564 2.75009 11.2448 2.775 11.2327C2.78902 11.2261 2.80229 11.2191 2.81656 11.2127C2.83735 11.2028 2.85862 11.1937 2.87982 11.1845C2.89813 11.1765 2.91636 11.1683 2.93499 11.1606L2.95553 11.1515C3.00242 11.1323 3.04974 11.1143 3.09747 11.0974C3.11256 11.0919 3.12823 11.0873 3.14341 11.082C3.1599 11.0766 3.17623 11.0711 3.19297 11.0658L3.21227 11.0592C3.22217 11.0561 3.23207 11.0528 3.24188 11.0499C3.26225 11.0439 3.28287 11.0385 3.30324 11.0326L3.31842 11.0284C3.34209 11.0217 3.36568 11.0151 3.38959 11.009C3.41186 11.0033 3.43413 10.9985 3.45673 10.9934C3.48445 10.9869 3.51224 10.9807 3.54011 10.9749C3.55182 10.9727 3.56337 10.9701 3.57508 10.9678C3.58671 10.9657 3.59883 10.9639 3.61054 10.9618C3.63792 10.9568 3.66555 10.9522 3.69302 10.9479C3.71743 10.9443 3.74168 10.9411 3.76601 10.9377C3.78572 10.9352 3.80502 10.9325 3.82456 10.9303C3.83256 10.9295 3.84048 10.9289 3.84848 10.9282C3.85747 10.9272 3.86605 10.9258 3.87504 10.9251L3.88972 10.9243C3.99662 10.92 4.10368 10.9218 4.21038 10.9298L4.22811 10.9309C4.34588 10.9406 4.47314 10.9592 4.60683 10.9876C4.63875 10.9944 4.67058 11.001 4.70357 11.009C4.71034 10.9965 4.71726 10.9836 4.72419 10.9711C4.79495 10.8441 4.86654 10.7203 4.93895 10.5987C5.36205 9.88929 5.8159 9.26917 6.27916 8.72847C6.43322 8.54843 6.59224 8.3727 6.75603 8.20146C7.42044 7.50752 8.08881 6.96715 8.69994 6.54991C8.8309 6.46054 8.96363 6.37379 9.09805 6.28971C9.26463 6.18564 9.4339 6.08592 9.60568 5.99066C9.7301 5.92169 9.8559 5.85523 9.983 5.79132C10.1607 5.70179 10.3411 5.61774 10.524 5.53927C10.6346 5.49197 10.7462 5.44698 10.8587 5.40435C10.8084 5.39907 10.7573 5.39503 10.705 5.3923C10.6563 5.38975 10.6068 5.38876 10.5568 5.38868L10.5191 5.38876C10.3672 5.39017 10.2157 5.40265 10.0657 5.42612C10.0316 5.43148 9.99726 5.4375 9.96246 5.44435C10.2019 5.32051 10.452 5.21852 10.7098 5.1396C10.8707 5.09012 11.0279 5.05136 11.1789 5.02183C11.485 4.96282 11.7961 4.93431 12.1079 4.93672C12.2146 4.93779 12.3128 4.94241 12.4011 4.94901C12.7097 4.9721 12.8957 5.01936 12.8957 5.01936C12.8519 4.95767 12.7967 4.90389 12.7367 4.85696C12.6274 4.77235 12.5017 4.71173 12.3913 4.66876C12.3262 4.6433 12.2597 4.62133 12.1922 4.60294C12.2442 4.59404 12.2956 4.58645 12.3462 4.57969C12.3991 4.5725 12.4522 4.56635 12.5054 4.56121C12.8812 4.52635 13.26 4.5435 13.6312 4.61218C13.9835 4.67734 14.1956 4.76591 14.1956 4.76591C14.1454 4.66802 14.0709 4.58447 13.9894 4.51387C13.9324 4.46493 13.8715 4.42058 13.8074 4.38125C14.1688 4.46481 14.5199 4.58798 14.8543 4.74851C14.9244 4.78231 14.9936 4.81793 15.0618 4.85532C15.2344 4.94942 15.3297 5.01705 15.3297 5.01705C15.3008 4.9156 15.2423 4.81969 15.174 4.73367C15.1568 4.71206 15.1394 4.69078 15.1216 4.67057L15.1298 4.67437C15.1361 4.67643 15.1497 4.68063 15.1686 4.68707C15.1823 4.69169 15.1988 4.69738 15.2187 4.70455C15.2938 4.73185 15.4086 4.77771 15.5435 4.84476L15.5631 4.85457C15.5814 4.86398 15.6001 4.87354 15.6189 4.88344C15.6652 4.90785 15.7131 4.93499 15.7619 4.96402C15.8341 5.00699 15.9045 5.053 15.9728 5.10191C16.0243 5.13878 16.0754 5.17845 16.1263 5.22084C16.179 5.26499 16.2299 5.31138 16.2787 5.35989C16.2884 5.36971 16.2984 5.37927 16.3081 5.38942C16.3442 5.42653 16.379 5.46562 16.4127 5.5062C16.478 5.58393 16.5368 5.66685 16.5886 5.75412C16.6537 5.8635 16.7063 5.97986 16.7455 6.10101C16.7476 6.1081 16.7496 6.11544 16.7515 6.12245C16.7806 6.09119 16.8319 6.03503 16.8987 5.95833C17.4533 5.3208 19.0867 3.25012 18.1027 1.98661Z" fill="#141C26"/>
<path d="M20.5433 17.4564L20.5436 17.4563C20.5436 17.4563 20.5627 17.3129 20.4869 17.1847L20.4853 17.1811C20.4809 17.1738 20.4763 17.1666 20.4713 17.1597L20.4663 17.1523C20.4574 17.1408 20.4479 17.1298 20.4376 17.1195C20.418 17.0988 20.3958 17.0806 20.3716 17.0654C20.3576 17.0563 20.3431 17.0481 20.328 17.0408C20.285 17.0202 20.2335 17.0046 20.1723 16.9956C20.1221 16.9891 20.0714 16.9869 20.0208 16.989C19.9983 16.9897 19.9761 16.9902 19.9518 16.9925L19.9408 16.9932L19.9448 17.0079L19.9556 17.0485L19.9612 17.0708C19.9691 17.1024 19.9786 17.1428 19.9884 17.1883C19.9855 17.1971 19.9821 17.2057 19.9783 17.2142L19.9746 17.223C19.9467 17.2879 19.8709 17.4375 19.7021 17.6321C19.6733 17.6651 19.6415 17.6997 19.6074 17.7354C19.1364 18.222 18.117 18.9149 15.9727 19.3025C15.245 19.4052 14.5741 19.4108 14.0011 19.3396C13.1537 19.2342 12.5189 18.9635 12.2235 18.5994C12.1979 18.5682 12.1744 18.5359 12.1521 18.5035C12.1357 18.4797 12.12 18.4554 12.1051 18.4306C12.0998 18.4215 12.0949 18.4124 12.0898 18.4034C11.9686 18.1881 11.9067 17.9445 11.9107 17.6974C11.9148 17.4097 12.0045 17.1345 12.1564 16.923C12.2796 16.7514 12.4434 16.6218 12.6351 16.5619C12.732 16.5316 12.8337 16.5196 12.935 16.5266C12.9563 16.5281 12.9845 16.5311 13.0196 16.5354C13.0901 16.5443 13.1885 16.5581 13.3091 16.5736L13.3494 16.5787C13.7518 16.6287 14.3927 16.6893 15.1676 16.6419C16.5776 16.5561 18.4333 16.1124 20.1184 14.5928L20.1231 14.5869V14.5843C20.1287 14.457 20.1117 14.2271 19.9509 14.0483C19.9213 14.0156 19.8884 13.9861 19.8527 13.9601C19.8309 13.9439 19.8082 13.929 19.7846 13.9156C19.7598 13.9019 19.7372 13.888 19.7153 13.8741C19.687 13.8565 19.6593 13.8379 19.6324 13.8182L19.6287 13.8128C19.6173 13.795 19.6052 13.7777 19.5936 13.7599C19.1565 13.0978 18.5543 12.7136 18.3142 12.5375C18.2009 12.4542 18.1288 12.4163 18.1288 12.4163C17.6088 12.0996 17.5325 11.9945 17.5812 11.1343C17.5985 10.8245 17.6321 10.4173 17.6666 9.86542C17.6709 9.79648 17.6736 9.72746 17.6747 9.65841C17.675 9.64232 17.6753 9.62674 17.6753 9.61098C17.6759 9.54942 17.675 9.48785 17.6727 9.42632L17.6721 9.40925L17.6707 9.39103C17.667 9.32618 17.6618 9.26142 17.6553 9.1968C17.6504 9.15087 17.6442 9.10508 17.6368 9.05948C17.6332 9.03688 17.6287 9.01511 17.6246 8.99309C17.62 8.96879 17.6151 8.94457 17.6097 8.92043C17.6048 8.89722 17.5995 8.87409 17.5938 8.85107L17.5936 8.8509L17.5938 8.85066V8.8509C17.5868 8.82319 17.5787 8.79688 17.5711 8.77065C17.5683 8.76101 17.566 8.75103 17.5629 8.74179C17.56 8.73288 17.5569 8.7248 17.5541 8.71589L17.5511 8.70715L17.5423 8.68191L17.542 8.68026C17.5348 8.65989 17.5272 8.6401 17.5198 8.62088L17.5175 8.61445L17.51 8.59614L17.501 8.57362L17.4989 8.56934V8.56876C17.4832 8.5323 17.467 8.49692 17.4497 8.46377L17.4359 8.43927C17.4167 8.4078 17.3965 8.37696 17.3754 8.34682L17.3671 8.33445L17.3568 8.32084C17.3419 8.30055 17.3271 8.28076 17.3123 8.2622L17.2919 8.23663C17.2725 8.2135 17.2526 8.19086 17.232 8.16876V8.16859L17.2316 8.16521L17.231 8.16109L17.2299 8.15531L17.2284 8.14707L17.2271 8.1389L17.2245 8.12571L17.2233 8.11762L17.2196 8.09907L17.2182 8.09247C17.209 8.04714 17.1989 8.00202 17.1878 7.95713L17.187 7.95317C17.1835 7.94006 17.1801 7.92628 17.1764 7.9121L17.1749 7.90674C17.1709 7.89152 17.1668 7.87635 17.1625 7.86121L17.162 7.86022C17.151 7.82119 17.1393 7.78237 17.1269 7.74377C17.1228 7.73057 17.1179 7.71672 17.1131 7.70303C17.1035 7.67393 17.0935 7.64501 17.083 7.61626C17.0767 7.59919 17.0699 7.58228 17.0632 7.5648C17.0524 7.53672 17.0411 7.50887 17.0292 7.48125C17.0215 7.46261 17.0129 7.44422 17.0047 7.42542C16.9832 7.37786 16.9603 7.33089 16.9363 7.28455C16.921 7.25596 16.9052 7.22769 16.8888 7.19977C16.878 7.18179 16.8676 7.16364 16.8568 7.14558C16.8378 7.11531 16.8173 7.08571 16.7967 7.0561C16.7863 7.0415 16.7766 7.02624 16.7657 7.01156C16.7561 6.99886 16.7453 6.98707 16.7354 6.9747C16.7116 6.94435 16.6882 6.914 16.6622 6.88546L16.6591 6.88232L16.6443 6.8683C16.6109 6.83235 16.5758 6.79738 16.538 6.76521L16.5312 6.75944C16.5145 6.74532 16.4974 6.73168 16.4799 6.71853L16.4781 6.71705L16.4718 6.71251C16.4568 6.70121 16.4413 6.69041 16.4257 6.67985L16.4174 6.67408L16.4207 6.6768C16.4042 6.66459 16.3742 6.64876 16.3348 6.63119C16.3199 6.62467 16.3049 6.61835 16.2898 6.61222C16.2087 6.57964 16.099 6.54278 15.969 6.50822C15.9609 6.50591 15.9523 6.50393 15.9444 6.50195C15.7847 6.4605 15.6225 6.42953 15.4587 6.40925C15.4379 6.40661 15.4166 6.40554 15.3956 6.40331C15.3872 6.40249 15.3786 6.40183 15.3701 6.40092C15.2692 6.39053 15.1678 6.38544 15.0664 6.38567L15.0604 6.38591C14.9289 6.38715 14.7973 6.39804 14.6718 6.42286C14.7013 6.37395 14.781 6.31985 14.861 6.27466C14.9258 6.23848 14.9925 6.20567 15.0606 6.17635C15.0036 6.18063 14.9452 6.18872 14.8869 6.19812C14.8682 6.20125 14.8492 6.20381 14.8304 6.20727C14.818 6.2095 14.8059 6.21197 14.7937 6.2142L14.783 6.21643C14.7727 6.21849 14.7628 6.22063 14.7527 6.22278C14.4596 6.28521 14.1775 6.39078 14.0206 6.45478C13.9984 6.46385 13.9789 6.4721 13.9617 6.47927L13.9518 6.4834C13.9362 6.48529 13.9203 6.48769 13.9046 6.48958L13.905 6.48909C14.0206 6.27523 14.1913 6.16002 14.3212 6.09915C14.3439 6.08851 14.3656 6.07894 14.3852 6.07152C14.3927 6.06863 14.3988 6.06682 14.4053 6.06435C14.4241 6.05775 14.4401 6.05255 14.4539 6.04851C14.4846 6.0396 14.5046 6.03564 14.5046 6.03564C14.4906 6.03597 14.4776 6.03779 14.464 6.03853C14.4525 6.03936 14.441 6.04035 14.4296 6.04125C14.4127 6.04249 14.3956 6.0434 14.3789 6.04496C14.3689 6.04595 14.3584 6.0462 14.3484 6.04719C14.0243 6.08232 13.7362 6.19218 13.4892 6.32868C13.3305 6.41651 13.1802 6.51871 13.0403 6.63399C13.0062 6.64109 12.9714 6.64835 12.9361 6.65585C12.5818 6.73148 12.177 6.82888 11.7514 6.95952C11.5906 7.00878 11.431 7.06174 11.2727 7.11837C11.0524 7.19793 10.8351 7.28532 10.621 7.38039C9.9676 7.6721 9.32372 8.05931 8.78269 8.5789C8.76323 8.59762 8.74277 8.61519 8.72364 8.63424C8.67672 8.68155 8.6308 8.72984 8.58591 8.77907C8.56735 8.79903 8.54789 8.81783 8.52966 8.83812C8.50681 8.86336 8.4857 8.89057 8.46343 8.91647C8.36126 9.0343 8.26527 9.15735 8.17585 9.28513C8.10843 9.38211 8.04504 9.48182 7.98583 9.58402L7.97849 9.59622C7.8513 9.81719 7.74362 10.0488 7.65667 10.2885C7.59863 10.4485 7.54941 10.6115 7.50921 10.7768L7.50442 10.7953C7.46981 10.9422 7.44187 11.0906 7.42071 11.24C7.41651 11.2701 7.41172 11.2999 7.40768 11.3305C7.39811 11.4069 7.39061 11.4847 7.38418 11.5636C7.37824 11.6367 7.37367 11.7098 7.37049 11.783L7.36974 11.8002C7.36834 11.8365 7.36628 11.8724 7.36554 11.9093C7.36471 11.9513 7.36504 11.9941 7.36504 12.0369C7.36488 12.0468 7.36488 12.0567 7.3648 12.0668C7.36491 12.1514 7.3667 12.236 7.37016 12.3206L7.37106 12.3343C7.37477 12.4197 7.38079 12.5069 7.38822 12.5949C7.39135 12.6314 7.3944 12.668 7.39811 12.705C7.39902 12.7139 7.3996 12.723 7.40042 12.7321C7.40257 12.7527 7.40504 12.7734 7.40735 12.7939C7.41816 12.8911 7.43127 12.9901 7.44653 13.0905C7.45057 13.1184 7.45436 13.1462 7.4589 13.1742C7.47292 13.262 7.48818 13.3505 7.50558 13.4406C7.50558 13.4406 7.48983 13.3251 7.49964 13.1552C7.50211 13.1161 7.50574 13.0743 7.51102 13.0298C7.52315 12.9333 7.54376 12.8269 7.5789 12.717C7.58756 12.6902 7.59729 12.6632 7.60776 12.636C7.61205 12.6241 7.61733 12.6125 7.62211 12.6005C7.6429 12.5503 7.66624 12.4999 7.69444 12.45C7.70079 12.4855 7.70764 12.5208 7.71473 12.5566L7.71704 12.5682L7.71679 12.5843L7.71605 12.6553C7.71502 12.7877 7.71656 12.9201 7.72067 13.0525C7.7304 13.3721 7.75795 13.758 7.82706 14.0867C7.82706 14.0867 7.84001 13.4889 7.94121 13.4213C7.94121 13.4213 8.11811 14.5283 8.28232 14.9462C8.3036 15.0003 8.32479 15.0435 8.34525 15.0704L8.34104 14.9607L8.31762 14.3454C8.31762 14.3454 8.31869 14.3224 8.32092 14.2822C8.4507 14.5469 8.59124 14.8062 8.7422 15.0595C8.78616 15.1331 8.83094 15.2071 8.87745 15.2819C8.57329 15.5494 8.29205 15.9279 8.09016 16.3805C8.05758 16.4536 8.02741 16.5277 7.99968 16.6028C7.95042 16.738 7.909 16.8758 7.87564 17.0158C7.87201 17.0308 7.86822 17.0458 7.865 17.061C7.85461 17.1071 7.84479 17.1533 7.83613 17.2003L7.83547 17.2047C7.82698 17.2517 7.81948 17.2993 7.81279 17.3471C7.81065 17.3626 7.80867 17.3782 7.80694 17.3935C7.80249 17.4276 7.79869 17.462 7.79539 17.4963C7.7935 17.5138 7.79209 17.5312 7.79053 17.5489C7.78767 17.5838 7.78536 17.6187 7.7836 17.6536C7.7798 17.7203 7.77796 17.7871 7.77807 17.8539L7.77824 17.8605C7.77824 17.8999 7.77939 17.9392 7.78088 17.9789C7.78253 18.0189 7.78492 18.0589 7.78781 18.0992L7.78888 18.1154L7.78945 18.1255C7.79325 18.1744 7.79853 18.2233 7.80446 18.2727C7.80636 18.2883 7.80908 18.3039 7.81115 18.3197C7.81576 18.3533 7.8203 18.3871 7.82616 18.4212C7.82912 18.4399 7.83284 18.4591 7.83605 18.4779C7.84199 18.509 7.84768 18.5401 7.85436 18.5713C7.85865 18.5914 7.86327 18.6114 7.86756 18.6315C7.88643 18.7139 7.90805 18.7956 7.93238 18.8765C7.9384 18.8966 7.94451 18.917 7.95094 18.9372C7.96117 18.969 7.97213 19.0011 7.9831 19.0328C7.98987 19.052 7.99622 19.0711 8.00323 19.0902C8.01618 19.1255 8.03003 19.1608 8.0443 19.1962C8.05065 19.2121 8.05642 19.2278 8.0631 19.2437C8.10675 19.3485 8.15473 19.4514 8.20694 19.5522C8.21502 19.5673 8.22368 19.5827 8.2316 19.598C8.2509 19.6341 8.27061 19.6702 8.29106 19.7063C8.30195 19.7251 8.31325 19.7439 8.32463 19.763C8.34393 19.7955 8.36339 19.8282 8.38401 19.8608C8.39655 19.8809 8.40974 19.9012 8.42277 19.9214C8.45716 19.9741 8.49252 20.0262 8.52884 20.0775C8.55077 20.1087 8.57354 20.1399 8.59704 20.1709C8.61222 20.1914 8.62731 20.2118 8.64298 20.2323C8.66772 20.2642 8.69296 20.296 8.71902 20.3278C8.73453 20.3472 8.75003 20.3667 8.76603 20.386C8.79506 20.4206 8.82525 20.4554 8.85576 20.4899C8.87011 20.5062 8.88364 20.5226 8.89824 20.5388C8.94401 20.5896 8.99086 20.6403 9.03985 20.6908L9.03968 20.6905C9.01544 20.6542 8.99309 20.6166 8.97271 20.578L8.97131 20.5757C8.96422 20.5624 8.95671 20.5476 8.94904 20.5321L8.94657 20.5278C8.93807 20.5106 8.92982 20.4933 8.92183 20.4759L8.92009 20.4728C8.91072 20.4523 8.90171 20.4317 8.89304 20.4109C8.82096 20.2375 8.75086 19.9969 8.75993 19.7285C8.7878 19.7659 8.81626 19.8019 8.84446 19.8386C8.90069 19.9527 8.9589 20.0658 9.01906 20.1779C9.09684 20.322 9.17855 20.4639 9.26409 20.6035C9.37288 20.7796 9.49238 20.9559 9.61585 21.108L9.6156 21.1078C9.61502 21.1068 9.47193 20.808 9.42401 20.612C9.41057 20.5569 9.40422 20.5095 9.41115 20.4798L9.44578 20.5154C9.45725 20.5274 9.46888 20.539 9.48042 20.5509C9.50327 20.5813 9.53214 20.6196 9.56438 20.662L9.58071 20.6834C9.59671 20.7044 9.61321 20.7263 9.63102 20.7495L9.63201 20.7508L9.69634 20.8341C9.89774 21.093 10.1656 21.4238 10.3567 21.6055C10.4205 21.6662 10.4756 21.7103 10.5169 21.7293L10.2412 21.2354C10.8652 21.7432 13.44 22.3951 15.9767 21.6674C16.288 21.5786 16.5931 21.4694 16.89 21.3404C17.0739 21.2611 17.2543 21.1739 17.4307 21.0792L17.4566 21.0648C17.5826 20.9956 17.7065 20.9227 17.8281 20.846L17.8309 20.8443C18.0827 20.6857 18.3238 20.5109 18.5528 20.3208L18.5532 20.3207L18.5538 20.3202C18.5622 20.3128 18.5709 20.3055 18.5797 20.2981C18.7212 20.1746 18.8569 20.0447 18.9863 19.9086C19.1468 19.7395 19.2975 19.5614 19.4376 19.3751L19.4475 19.3622C19.4806 19.318 19.513 19.274 19.5444 19.2303L19.5533 19.2175C19.5636 19.2026 19.5726 19.1883 19.5828 19.1735C19.6263 19.1114 19.6687 19.0486 19.7102 18.9852L19.7396 18.9398C19.7606 18.9067 19.7808 18.8736 19.801 18.8408C19.8163 18.8152 19.8319 18.7895 19.8467 18.7641C19.8632 18.7364 19.8797 18.7087 19.8958 18.6812C19.9238 18.6318 19.9513 18.5822 19.9783 18.5322C19.9888 18.5127 19.9987 18.4936 20.0088 18.4743C20.0291 18.4359 20.0489 18.398 20.0677 18.3604C20.0765 18.3429 20.0853 18.3254 20.0938 18.308L20.1015 18.2915C20.1246 18.2448 20.1472 18.1979 20.1692 18.1508L20.1733 18.1409C20.2453 18.0746 20.3109 18.0017 20.3692 17.9231C20.3767 17.9132 20.3843 17.9033 20.3911 17.8935C20.5042 17.7303 20.5412 17.586 20.5433 17.4564ZM5.38995 15.6226C5.38764 15.6111 5.38566 15.5996 5.38368 15.5882L5.38566 15.5874C5.35572 15.4211 5.33294 15.2535 5.31737 15.0852C5.31638 15.073 5.31465 15.0612 5.31333 15.0491C5.28512 15.0579 5.25329 15.0953 5.22129 15.1463C5.20877 15.1666 5.19694 15.1873 5.18583 15.2083C5.10005 15.3694 5.02286 15.5927 5.02286 15.5927C5.02929 15.516 5.03707 15.4394 5.0462 15.363C5.04727 15.3539 5.04859 15.3451 5.04974 15.3359C5.05923 15.2568 5.07028 15.1769 5.08199 15.0976C5.08331 15.0879 5.08488 15.0784 5.08628 15.069C5.09997 14.9796 5.11449 14.8907 5.12958 14.8049L5.13535 14.7719L5.13651 14.7662L5.14178 14.7363C5.15612 14.6561 5.17124 14.5761 5.18714 14.4962C5.19828 14.4399 5.20917 14.3865 5.21956 14.3363L5.22286 14.3202C5.22442 14.3123 5.22616 14.3051 5.22764 14.2976C5.22929 14.2902 5.23077 14.2827 5.23226 14.275L5.23284 14.2723C5.23556 14.2598 5.23844 14.2469 5.24092 14.2351L5.24174 14.2318C5.24405 14.22 5.24636 14.21 5.24867 14.199C5.25255 14.1817 5.25618 14.1641 5.2598 14.1479L5.26079 14.1434C5.26376 14.1303 5.26649 14.117 5.26921 14.1051C5.27317 14.0879 5.27679 14.0721 5.27993 14.0571L5.28009 14.0567L5.28034 14.0563C5.28216 14.0477 5.28397 14.0403 5.28578 14.0323L5.28611 14.0309C5.28785 14.0238 5.28941 14.0163 5.29098 14.0099L5.30055 13.9688L5.30294 13.959L5.30385 13.9554L5.30657 13.9439L5.30846 13.9359L5.30888 13.9347L5.30756 13.9358L5.29024 13.9514C5.27498 13.965 5.25931 13.9783 5.24504 13.9933L5.22929 14.0107C5.21212 14.0297 5.19594 14.0496 5.18079 14.0703L5.17271 14.0804C5.15374 14.1068 5.13618 14.1345 5.11943 14.1627V14.1627L5.11721 14.1664V14.1666L5.11036 14.1791C5.10649 14.186 5.10286 14.1931 5.09914 14.2C5.0895 14.2177 5.07943 14.2348 5.07077 14.2526L5.07036 14.2532L5.07003 14.2538L5.06962 14.2553L5.06624 14.262L5.0631 14.2687C5.04988 14.2963 5.03737 14.3242 5.02558 14.3523C4.98812 14.4417 4.95644 14.5333 4.93073 14.6267C4.91968 14.6666 4.91193 14.6977 4.90846 14.713L4.9083 14.7143L4.90583 14.7246L4.90682 14.7126C4.90813 14.6889 4.91086 14.6653 4.91275 14.6418C4.91638 14.5923 4.91952 14.5426 4.92496 14.4934C4.92933 14.452 4.93568 14.4115 4.94154 14.3704L4.94731 14.332C4.94978 14.313 4.95242 14.294 4.95556 14.2752C4.95828 14.2577 4.96216 14.2403 4.96545 14.2231L4.96562 14.2218L4.96933 14.2024L4.9704 14.1971C4.97575 14.1677 4.98128 14.1383 4.98698 14.1089L4.98995 14.0943L4.99053 14.0916L4.9949 14.0709C4.99655 14.0622 4.99902 14.0538 5.00075 14.0456C5.00776 14.0146 5.01527 13.9843 5.02253 13.9537L5.02376 13.9486C5.02912 13.9258 5.03407 13.9029 5.03993 13.8804L5.04009 13.8794L5.04067 13.878L5.04248 13.8714C5.05444 13.8252 5.06772 13.7801 5.081 13.7346L5.08793 13.7095C5.09049 13.7012 5.09263 13.6923 5.09535 13.6839C5.11721 13.6102 5.14071 13.5373 5.16562 13.4662L5.16884 13.4573C5.19028 13.3968 5.21189 13.3373 5.23457 13.2786L5.23704 13.2719C5.24735 13.2461 5.25791 13.2214 5.26797 13.1958L5.26962 13.1921C5.28512 13.1541 5.30038 13.1158 5.31622 13.079V13.0784L5.31655 13.078L5.31836 13.0733C5.32257 13.0641 5.33238 13.0417 5.34764 13.0088L5.34789 13.0082L5.34995 13.0037C5.35589 12.9907 5.3615 12.9781 5.36727 12.9649L5.39531 12.9025L5.40364 12.8845L5.40389 12.8836L5.56455 12.5948C5.57123 12.5826 5.57783 12.5706 5.58426 12.5584L5.58764 12.5526L5.59589 12.5377C5.61337 12.5057 5.63094 12.4734 5.64809 12.4422L5.72174 12.3095C5.76892 12.2246 5.80933 12.1526 5.83391 12.1091C5.84234 12.0942 5.8507 12.0793 5.85898 12.0643L5.86013 12.0621H5.85997L5.85939 12.0616L5.85791 12.0605C5.85164 12.0563 5.8029 12.0226 5.72257 11.974C5.54628 11.8681 5.36228 11.7756 5.17213 11.6973C5.10126 11.668 5.02944 11.6411 4.95679 11.6166C4.9375 11.6102 4.91721 11.605 4.89774 11.5989C4.83506 11.5791 4.77073 11.5614 4.70492 11.5457L4.70112 11.5449C4.65593 11.534 4.61106 11.5227 4.56471 11.5142C4.52828 11.507 4.49168 11.5008 4.45494 11.4954C4.43729 11.493 4.41906 11.4916 4.40133 11.49L4.34846 11.4846C4.29861 11.4804 4.24863 11.4778 4.19861 11.4767C4.17436 11.4761 4.15003 11.4754 4.12578 11.4759C4.01692 11.4784 3.91003 11.488 3.80504 11.5029L3.78591 11.5059C3.59952 11.5336 3.41661 11.5811 3.24026 11.6475C3.18129 11.6698 3.12306 11.6937 3.06591 11.7199C3.04969 11.7275 3.03355 11.7353 3.0175 11.7433C2.99795 11.7528 2.97807 11.7621 2.95877 11.772C2.78724 11.8605 2.62578 11.9674 2.47721 12.0907L2.47193 12.095C2.30784 12.231 2.16062 12.3862 2.03341 12.5572C1.9998 12.602 1.96757 12.6478 1.93675 12.6946C1.87863 12.7835 1.82581 12.8758 1.77857 12.971C1.76191 13.0046 1.74558 13.0383 1.73032 13.0726C1.72743 13.079 1.72488 13.0858 1.72216 13.0923C1.62287 13.3193 1.55562 13.559 1.52232 13.8045C1.51555 13.8537 1.51013 13.9031 1.50607 13.9527L1.50467 13.9713C1.49819 14.0599 1.49599 14.1487 1.49807 14.2375C1.49816 14.2455 1.4989 14.253 1.49915 14.2608C1.50038 14.2991 1.50187 14.3372 1.50467 14.3751L1.50682 14.3951L1.50921 14.4213C1.51168 14.4513 1.51457 14.4811 1.51803 14.5104L1.51927 14.5171V14.519L1.51943 14.5194C1.5215 14.5341 1.52405 14.549 1.52611 14.5639C1.52999 14.5905 1.5337 14.6173 1.53807 14.6437C1.54162 14.6629 1.54583 14.6817 1.54954 14.7008C1.55449 14.7254 1.55886 14.7503 1.56455 14.7747C1.56908 14.7948 1.57444 14.8145 1.57939 14.8341L1.58269 14.8479L1.58813 14.8686L1.59218 14.8842L1.59712 14.9033C1.60282 14.9237 1.6095 14.9442 1.61552 14.9645C1.62211 14.9859 1.62846 15.0079 1.63556 15.0289C1.64232 15.0498 1.65007 15.0704 1.65758 15.0911L1.66368 15.1076C1.66879 15.1224 1.67399 15.1374 1.67993 15.1521C1.68801 15.173 1.69692 15.1939 1.70558 15.2149C1.71358 15.2338 1.72141 15.2531 1.72974 15.272C1.73453 15.2828 1.73964 15.2935 1.74459 15.3038C1.74978 15.3142 1.7544 15.3249 1.75927 15.3353C1.77786 15.3751 1.79774 15.4143 1.8189 15.4528C1.82797 15.4695 1.83655 15.4861 1.8457 15.5026C1.85791 15.5243 1.87094 15.5457 1.88389 15.5672C1.89296 15.5822 1.90187 15.5975 1.91127 15.6127C1.92504 15.6346 1.93931 15.6557 1.95383 15.677C1.96315 15.6913 1.97246 15.7053 1.98195 15.7191C1.99721 15.7408 2.01304 15.7623 2.02896 15.7839C2.05458 15.819 2.08131 15.8533 2.10912 15.8867C2.1182 15.8981 2.12727 15.9095 2.13708 15.9207C2.15539 15.9425 2.17444 15.9639 2.19374 15.9853C2.20265 15.9953 2.21172 16.0053 2.22112 16.0154C2.24108 16.0372 2.2617 16.0587 2.28273 16.0794C2.2918 16.0882 2.3003 16.0973 2.30937 16.1061C2.33956 16.1354 2.37027 16.1641 2.4015 16.1923C2.42508 16.2132 2.44908 16.2338 2.47358 16.2541C2.48166 16.2607 2.48941 16.2676 2.4975 16.2741C2.5229 16.2949 2.54879 16.3147 2.57486 16.3346C2.58228 16.34 2.59003 16.3459 2.59729 16.3514C2.62459 16.3713 2.65197 16.3907 2.67985 16.4097L2.70055 16.4239C2.72941 16.4432 2.75869 16.4621 2.78822 16.4802L2.8071 16.4916C2.83762 16.5103 2.86896 16.5277 2.90038 16.5452L2.91655 16.5542C2.94912 16.5719 2.98211 16.5886 3.01519 16.6049L3.02937 16.6116C3.06352 16.6281 3.09791 16.6438 3.13288 16.659L3.14525 16.6643C3.18096 16.6793 3.217 16.6935 3.25329 16.7074L3.26343 16.711C3.30096 16.7247 3.33832 16.7377 3.37651 16.75L3.38426 16.7525C3.40282 16.7583 3.42187 16.7632 3.44059 16.7688C3.46096 16.7747 3.48133 16.7811 3.50195 16.7867L3.50772 16.7883C3.54813 16.7988 3.58879 16.8084 3.62978 16.8172L3.63333 16.8182C3.6335 16.8182 3.63391 16.8182 3.63399 16.8184C3.67539 16.8271 3.71729 16.8351 3.75952 16.8417L3.76141 16.8423C3.89274 16.8634 4.02544 16.8748 4.15844 16.8764C4.19053 16.877 4.22261 16.8773 4.25486 16.877C4.36082 16.8735 4.46648 16.8638 4.57131 16.8479C4.71072 16.8268 4.84858 16.7965 4.98401 16.7572C5.22607 16.6869 5.43993 16.5931 5.56776 16.4977C5.56776 16.4977 5.48364 16.1253 5.41255 15.7469C5.40484 15.7055 5.3973 15.6641 5.38995 15.6226Z" fill="#856249"/>
<path d="M16.4172 6.67379L16.4176 6.67396L16.4165 6.67322L16.4172 6.67379Z" fill="#856249"/>
<path d="M11.4335 1.63123L11.4027 1.254L11.5916 0.835851L11.6662 0.819109C11.5425 0.761707 11.3955 0.720717 11.2254 0.699521C10.8846 0.656635 10.4519 0.696057 9.95908 0.82348C9.46613 0.949996 8.91347 1.16278 8.32732 1.45474C7.15495 2.038 5.8498 2.93721 4.59388 4.08294C4.16851 4.4704 3.76058 4.87657 3.37128 5.30026C3.02063 5.68108 2.68763 6.07779 2.37335 6.48913C1.76526 7.28723 1.2992 8.06348 1.00155 8.75585C0.802789 9.21721 0.67982 9.64113 0.634871 10.0039C0.601717 10.2677 0.610377 10.4984 0.654583 10.689C0.668851 10.7506 0.68782 10.8067 0.709181 10.8602C0.753634 10.9728 0.812026 11.0699 0.887407 11.153L1.64724 11.9491L1.72873 12.0343L1.73409 12.0285C1.75718 12.0017 1.78102 11.9749 1.80502 11.9488L1.81153 11.9418C1.82027 11.9323 1.82935 11.9235 1.83817 11.9145C1.86093 11.8905 1.88406 11.8669 1.90753 11.8436C1.92213 11.8292 1.93689 11.8153 1.95182 11.8013C1.96625 11.7877 1.98036 11.7735 1.99504 11.7601C2.00163 11.754 2.00848 11.7485 2.01524 11.7425C2.03067 11.7285 2.04667 11.7147 2.06267 11.7008C2.09797 11.6702 2.13396 11.6403 2.17062 11.6113L2.17656 11.6067C2.21587 11.576 2.25574 11.546 2.29615 11.5168C2.32147 11.4988 2.34728 11.4809 2.37335 11.4634C2.38902 11.4529 2.40444 11.4425 2.42019 11.4322C2.44683 11.4149 2.47405 11.3981 2.50126 11.3815C2.51718 11.3719 2.5326 11.3623 2.54836 11.3531C2.57689 11.3364 2.60584 11.3206 2.63462 11.3047C2.65005 11.2965 2.66522 11.2878 2.68064 11.2796L2.69796 11.2706L2.69904 11.2674C2.88097 10.7638 3.15347 10.217 3.50671 9.6474C3.94069 8.94769 4.49516 8.21383 5.15355 7.48294C5.58412 7.00566 6.03781 6.54975 6.51297 6.11684C7.14803 5.53804 7.79528 5.02158 8.4338 4.57416C8.84443 4.28559 9.26861 4.01681 9.70489 3.76872C9.74431 3.74645 9.78382 3.72327 9.82299 3.70167C9.9319 3.64147 10.0417 3.58294 10.1524 3.52608C10.3811 3.40734 10.6138 3.29651 10.8501 3.19379L10.7387 3.06002L10.7202 3.038L9.79751 1.9283L9.8046 1.25226L9.79594 1.24245L10.3505 1.07709L11.4335 1.63123Z" fill="#3478AD"/>
<path d="M20.5433 17.4564L20.5436 17.4563C20.5436 17.4563 20.5628 17.3129 20.487 17.1847L20.4853 17.1811C20.481 17.1738 20.4763 17.1666 20.4713 17.1597L20.4664 17.1523C20.4575 17.1408 20.4479 17.1298 20.4377 17.1195C20.418 17.0988 20.3958 17.0807 20.3717 17.0654C20.3577 17.0563 20.3431 17.0481 20.3281 17.0408C20.2851 17.0202 20.2335 17.0046 20.1723 16.9957C20.1221 16.9891 20.0714 16.9869 20.0208 16.9891C19.9983 16.9897 19.9761 16.9902 19.9518 16.9925L19.9408 16.9932L19.9449 17.0079L19.9557 17.0485L19.9612 17.0708C19.9691 17.1025 19.9787 17.1428 19.9884 17.1883C19.9855 17.1971 19.9822 17.2058 19.9784 17.2142L19.9747 17.223C19.9468 17.2879 19.871 17.4375 19.7022 17.6321C19.6734 17.6651 19.6415 17.6997 19.6074 17.7354C19.1365 18.222 18.1171 18.9149 15.9728 19.3025C15.2451 19.4052 14.5742 19.4108 14.0011 19.3396C13.1538 19.2342 12.5189 18.9635 12.2236 18.5994C12.198 18.5682 12.1745 18.5359 12.1521 18.5035C12.1357 18.4797 12.12 18.4554 12.1051 18.4306C12.0999 18.4215 12.095 18.4124 12.0899 18.4034C11.9686 18.1881 11.9068 17.9445 11.9107 17.6974C11.9149 17.4098 12.0045 17.1345 12.1564 16.923C12.2796 16.7514 12.4434 16.6218 12.6351 16.5619C12.732 16.5316 12.8338 16.5196 12.9351 16.5266C12.9563 16.5281 12.9846 16.5311 13.0197 16.5354C13.0901 16.5443 13.1885 16.5581 13.3092 16.5736L13.3494 16.5787C13.7519 16.6287 14.3927 16.6893 15.1676 16.6419C16.5776 16.5561 18.4334 16.1124 20.1185 14.5928L20.1231 14.5869V14.5843C20.1287 14.457 20.1117 14.2272 19.9509 14.0484C19.9213 14.0156 19.8884 13.9861 19.8528 13.9601C19.831 13.9439 19.8082 13.9291 19.7846 13.9156C19.7599 13.9019 19.7372 13.888 19.7154 13.8741C19.687 13.8565 19.6594 13.8379 19.6325 13.8182L19.6288 13.8128C19.6174 13.795 19.6053 13.7777 19.5936 13.7599C19.1565 13.0978 18.5544 12.7136 18.3142 12.5375C18.201 12.4542 18.1289 12.4163 18.1289 12.4163C17.6089 12.0996 17.5326 11.9945 17.5813 11.1343C17.5986 10.8245 17.6321 10.4173 17.6667 9.86542C17.671 9.79649 17.6736 9.72747 17.6747 9.65841C17.675 9.64233 17.6754 9.62674 17.6754 9.61099C17.676 9.54943 17.6751 9.48786 17.6727 9.42633L17.6721 9.40926L17.6707 9.39103C17.667 9.32619 17.6619 9.26143 17.6553 9.19681C17.6504 9.15087 17.6443 9.10508 17.6368 9.05949C17.6332 9.03689 17.6288 9.01512 17.6246 8.9931C17.6201 8.9688 17.6151 8.94458 17.6098 8.92044C17.6049 8.89722 17.5996 8.8741 17.5939 8.85107L17.5936 8.85091L17.5939 8.85066V8.85091C17.5869 8.8232 17.5788 8.79689 17.5711 8.77066C17.5683 8.76101 17.5661 8.75103 17.5629 8.7418C17.5601 8.73289 17.5569 8.72481 17.5541 8.7159L17.5512 8.70716L17.5423 8.68192L17.5421 8.68027C17.5348 8.6599 17.5272 8.64011 17.5199 8.62089L17.5176 8.61446L17.5101 8.59615L17.501 8.57363L17.4989 8.56934V8.56877C17.4833 8.53231 17.467 8.49693 17.4497 8.46378L17.4359 8.43928C17.4168 8.4078 17.3966 8.37697 17.3754 8.34683L17.3672 8.33446L17.3568 8.32085C17.342 8.30056 17.3272 8.28077 17.3123 8.26221L17.2919 8.23664C17.2726 8.2135 17.2526 8.19087 17.2321 8.16877V8.1686C17.2082 8.14336 17.1835 8.11901 17.1578 8.09561C17.1302 8.07831 17.1018 8.06232 17.0726 8.04769C17.0635 8.04291 17.0542 8.03928 17.0447 8.03516C17.0263 8.02638 17.0075 8.01835 16.9885 8.01107C16.9775 8.00695 16.9669 8.00365 16.9561 7.99994C16.9393 7.99441 16.9224 7.98932 16.9054 7.98468C16.8942 7.982 16.8831 7.97955 16.8718 7.97734C16.8446 7.97143 16.817 7.96725 16.7893 7.96481C16.7731 7.96316 16.7568 7.9625 16.7406 7.96184C16.7297 7.96144 16.7189 7.96133 16.708 7.96151C16.6914 7.96181 16.6748 7.96264 16.6582 7.96398C16.6481 7.96481 16.6378 7.96563 16.6277 7.9667L16.6054 7.97C16.5953 7.97182 16.5851 7.97289 16.5747 7.97495C16.5658 7.97644 16.5568 7.97792 16.548 7.97973C16.5274 7.98402 16.5069 7.9893 16.4867 7.99516L16.4688 7.99978C16.4152 8.01578 16.3615 8.03631 16.3086 8.06039L16.2909 8.06881C16.2702 8.07829 16.2496 8.08827 16.2289 8.09883L16.2052 8.11161C16.1865 8.12134 16.1677 8.13165 16.1492 8.14213L16.1238 8.15697C16.1054 8.16769 16.0869 8.17858 16.0685 8.18996L16.0435 8.20538C16.0244 8.21734 16.0051 8.22971 15.9858 8.24225L15.9645 8.25619C15.9428 8.27037 15.921 8.28489 15.8992 8.29965L15.8862 8.30839C15.8618 8.32505 15.8368 8.34221 15.8119 8.35936L15.8111 8.36011L15.8073 8.36241H15.8076C15.7612 8.39425 15.715 8.42683 15.6682 8.45932C15.6291 8.48662 15.5891 8.51392 15.549 8.54105L15.5297 8.55433C15.4893 8.58147 15.4485 8.60794 15.4075 8.63433L15.3869 8.6472C15.3456 8.67277 15.3043 8.69776 15.2626 8.72143L15.2406 8.73363C15.1988 8.75712 15.1562 8.7794 15.1131 8.80044L15.0916 8.8105C15.0481 8.83112 15.0037 8.8505 14.9587 8.8674L14.9402 8.8745C14.8938 8.89171 14.8467 8.90676 14.799 8.91961L14.7865 8.9225C14.7359 8.93553 14.6853 8.94592 14.6333 8.95301C14.5464 8.96403 14.4588 8.96937 14.3712 8.96901C14.2273 8.96917 14.0836 8.95836 13.9413 8.93668C13.893 8.92927 13.8449 8.92111 13.7968 8.91219C13.7797 8.90889 13.7626 8.90633 13.7457 8.90303C13.6203 8.87862 13.4942 8.84951 13.3672 8.81891C13.3137 8.80621 13.2604 8.79334 13.2068 8.78031C13.1208 8.75936 13.0339 8.73907 12.9469 8.71928C12.9296 8.71524 12.913 8.71095 12.8956 8.70716L12.8964 8.70707L12.8595 8.69932C12.8402 8.69512 12.8209 8.69099 12.8018 8.68662L12.7465 8.67565L12.7368 8.67367L12.7304 8.67244L12.6796 8.66237C12.6401 8.65495 12.6004 8.64786 12.5606 8.64126C12.5488 8.6392 12.537 8.63771 12.5253 8.6359C12.4959 8.63122 12.4664 8.62685 12.4369 8.62279C12.4221 8.62064 12.4069 8.61924 12.3922 8.61743L12.3889 8.6171C12.3632 8.61375 12.3375 8.61078 12.3116 8.60819C12.2946 8.60654 12.2773 8.60514 12.2603 8.60349C12.2527 8.60291 12.2449 8.6025 12.237 8.60184C12.2195 8.60052 12.2017 8.59903 12.184 8.59804C12.1402 8.59503 12.0963 8.59333 12.0523 8.59293C12.0443 8.59293 12.0362 8.59277 12.0281 8.5926C12.0207 8.59252 12.013 8.59219 12.0055 8.59219C11.9718 8.59226 11.9381 8.59303 11.9045 8.5945C11.8957 8.59474 11.8865 8.59466 11.8775 8.59532C11.8343 8.5972 11.7912 8.60041 11.7482 8.60497C11.737 8.60613 11.7258 8.60786 11.7144 8.60893C11.6863 8.61223 11.6583 8.61602 11.6302 8.62031L11.6176 8.62213C11.6023 8.62444 11.5867 8.62732 11.5714 8.63004C11.5426 8.63532 11.514 8.64085 11.4852 8.64712C11.4685 8.65083 11.4519 8.65446 11.4354 8.65866C11.4069 8.66543 11.3782 8.6731 11.3495 8.68118C11.3016 8.69421 11.2542 8.70927 11.2075 8.72629C11.1934 8.73124 11.1794 8.73561 11.1653 8.74114C11.1192 8.75802 11.0738 8.77645 11.029 8.79639C10.6716 9.00217 10.3647 9.28299 10.1206 9.6105C10.0393 9.71967 9.96501 9.83387 9.89812 9.95244C9.82769 10.0778 9.76569 10.2078 9.71256 10.3415C9.67063 10.4459 9.63419 10.5524 9.60336 10.6606C9.60138 10.6678 9.59973 10.6752 9.59775 10.6826C9.55487 10.839 9.52454 10.9985 9.50703 11.1597C9.50208 11.2041 9.49763 11.2485 9.49466 11.2931C9.48731 11.4129 9.48745 11.533 9.49507 11.6528C9.49548 11.6636 9.49647 11.6747 9.49722 11.6854C9.49928 11.7161 9.50035 11.7464 9.50365 11.7772C9.51247 11.8625 9.5246 11.9478 9.54175 12.0324C9.54777 12.0638 9.55627 12.0931 9.56377 12.1233C9.57086 12.1522 9.57722 12.1819 9.58497 12.21V12.2098C9.64219 12.4156 9.72553 12.6131 9.83297 12.7976C10.2223 13.4703 10.8625 13.8726 11.3263 14.0884C11.5105 14.1694 11.6989 14.2406 11.8907 14.3015C11.8907 14.3015 11.8815 14.3073 11.8672 14.317C11.7484 14.3472 11.6308 14.382 11.5147 14.4211C11.4077 14.4572 11.3019 14.4968 11.1976 14.5399C10.8966 14.6646 10.5548 14.842 10.252 15.087C10.2141 15.1175 10.1769 15.1492 10.1403 15.1819C10.078 15.2383 10.0185 15.2977 9.96196 15.3599C9.95544 15.367 9.94851 15.3737 9.94233 15.3809C9.93367 15.3905 9.92517 15.4004 9.91676 15.4102C9.89524 15.4353 9.87388 15.461 9.85326 15.4872L9.82851 15.5187C9.8013 15.5547 9.77466 15.5911 9.74959 15.629C9.72484 15.6661 9.70117 15.7044 9.67874 15.7433C9.49928 16.0565 9.3975 16.4316 9.42876 16.8789L9.42967 16.8743L9.43025 16.871L9.43355 16.8543L9.43454 16.8506C9.43585 16.8438 9.43783 16.8357 9.4399 16.827L9.44113 16.8214C9.44361 16.8112 9.44649 16.7995 9.44979 16.7868L9.45202 16.7786L9.46423 16.7344H9.46447C9.46884 16.7187 9.47437 16.7018 9.4799 16.6844L9.48344 16.6738C9.4893 16.656 9.49573 16.6375 9.50274 16.6184L9.50645 16.6093C9.51297 16.5911 9.52023 16.5726 9.52806 16.5535L9.53177 16.5447C9.54027 16.5241 9.54967 16.5028 9.5594 16.4812L9.56567 16.4677C9.57614 16.4455 9.58678 16.4231 9.59866 16.4004L9.60023 16.3977C9.61796 16.3638 9.63792 16.3293 9.65919 16.2945C9.66719 16.2813 9.67487 16.2682 9.68377 16.255L9.69054 16.244L9.6907 16.2437C9.72469 16.1926 9.7617 16.1435 9.80155 16.0968C9.80732 16.09 9.8135 16.0832 9.81969 16.0764C9.83429 16.0599 9.84955 16.0434 9.86538 16.0272C9.8719 16.0208 9.87825 16.014 9.88476 16.0077C9.90645 15.9865 9.92864 15.9658 9.95223 15.9458L9.95421 15.9439C9.95421 15.9439 9.54678 16.8654 9.72394 17.5962C9.72394 17.5962 9.72377 17.594 9.72377 17.5901V17.5856C9.72361 17.5815 9.72361 17.5768 9.72361 17.5706C9.72361 17.5694 9.72361 17.5679 9.72344 17.5666C9.72361 17.5592 9.72361 17.5505 9.72394 17.5401C9.72394 17.5387 9.72394 17.5376 9.7241 17.536C9.7241 17.5253 9.72493 17.5132 9.72542 17.4997L9.72567 17.4959C9.72748 17.462 9.73012 17.4282 9.73359 17.3945L9.73408 17.39C9.7359 17.3717 9.73853 17.3526 9.74126 17.3326C9.74142 17.3308 9.74183 17.329 9.74208 17.3272C9.74513 17.306 9.74868 17.284 9.7528 17.2613L9.75379 17.2559L9.75594 17.2446V17.2441C9.76089 17.2185 9.76691 17.1924 9.77367 17.166C9.77416 17.1644 9.77449 17.1625 9.77491 17.1608C9.78183 17.135 9.78926 17.1088 9.79759 17.0826L9.80534 17.0585L9.81095 17.0418V17.0414C9.8187 17.0199 9.82711 16.9983 9.83627 16.9768L9.83767 16.9734L9.83775 16.9732C9.85419 16.9351 9.87303 16.8981 9.89416 16.8625C9.91107 16.8339 9.9288 16.806 9.94893 16.7795L9.94975 16.7782C9.94975 16.7782 9.92649 17.0051 9.93251 17.2752C9.93457 17.348 9.93861 17.4208 9.94464 17.4934C9.94467 17.4935 9.94469 17.4936 9.94472 17.4937C9.93276 17.6859 9.9361 17.8787 9.9547 18.0703C9.98711 18.4023 10.066 18.7536 10.205 19.1234C10.205 19.1234 10.0776 18.6982 10.2611 18.2728C10.2777 18.3116 10.2954 18.3505 10.3139 18.3898C10.329 18.516 10.3545 18.6951 10.3916 18.8924C10.427 19.2211 10.5843 20.2072 11.2542 20.9008C11.2542 20.9008 11.0011 20.5722 11.0404 20.1445C11.0668 20.2007 11.093 20.2514 11.1179 20.295C11.2326 20.5095 11.4605 20.9091 11.709 21.186C11.709 21.186 11.5074 20.7955 11.5544 20.7114C11.5544 20.7114 12.2118 21.5288 12.4209 21.6086L12.146 21.1527L12.1398 21.1393C13.0951 21.832 14.4058 22.0892 16.0269 21.6377C16.3201 21.5553 16.6083 21.456 16.89 21.3404C17.0739 21.2611 17.2543 21.1739 17.4307 21.0792L17.4566 21.0648C17.5827 20.9956 17.7066 20.9227 17.8282 20.846L17.8309 20.8443C18.0827 20.6857 18.3239 20.5109 18.5529 20.3208L18.5533 20.3207L18.5539 20.3202C18.5623 20.3128 18.5709 20.3055 18.5798 20.2981C18.7212 20.1746 18.8569 20.0447 18.9864 19.9086C19.1468 19.7395 19.2975 19.5614 19.4377 19.3751L19.4476 19.3622C19.4806 19.318 19.5131 19.274 19.5445 19.2303L19.5534 19.2175C19.5636 19.2026 19.5727 19.1883 19.5828 19.1735C19.6263 19.1114 19.6688 19.0486 19.7102 18.9852L19.7396 18.9398C19.7606 18.9067 19.7808 18.8736 19.8011 18.8408C19.8163 18.8152 19.832 18.7895 19.8467 18.7641C19.8632 18.7364 19.8797 18.7087 19.8958 18.6812C19.9239 18.6318 19.9514 18.5822 19.9784 18.5322C19.9888 18.5127 19.9987 18.4936 20.0089 18.4743C20.0292 18.4359 20.049 18.398 20.0678 18.3604C20.0765 18.3429 20.0853 18.3254 20.0938 18.308L20.1015 18.2915C20.1246 18.2449 20.1472 18.198 20.1692 18.1508L20.1733 18.1409C20.2453 18.0746 20.311 18.0017 20.3693 17.9231C20.3767 17.9132 20.3844 17.9033 20.3912 17.8935C20.5042 17.7303 20.5413 17.586 20.5433 17.4564ZM5.31338 15.0491C5.28517 15.0579 5.25334 15.0953 5.22134 15.1463C5.20882 15.1666 5.19699 15.1873 5.18588 15.2084C5.1001 15.3694 5.02291 15.5927 5.02291 15.5927C5.02934 15.516 5.03712 15.4394 5.04625 15.363C5.04732 15.3539 5.04864 15.3451 5.04979 15.3359C5.05928 15.2568 5.07033 15.1769 5.08204 15.0976C5.08336 15.0879 5.08493 15.0785 5.08633 15.0691C5.10002 14.9796 5.11453 14.8907 5.12963 14.8049L5.1354 14.7719L5.13656 14.7662L5.14183 14.7364C5.15617 14.6562 5.17129 14.5761 5.18719 14.4962C5.19833 14.4399 5.20922 14.3865 5.21961 14.3364L5.22291 14.3202C5.22447 14.3123 5.22621 14.3051 5.22769 14.2976C5.22934 14.2902 5.23082 14.2827 5.23231 14.275L5.23289 14.2724C5.23561 14.2598 5.23849 14.247 5.24097 14.2351L5.24179 14.2318C5.2441 14.22 5.24641 14.21 5.24872 14.199C5.2526 14.1817 5.25623 14.1641 5.25985 14.1479L5.26084 14.1434C5.26381 14.1303 5.26654 14.1171 5.26926 14.1051C5.27322 14.0879 5.27684 14.0721 5.27998 14.0571L5.28014 14.0567L5.28039 14.0563C5.28221 14.0477 5.28402 14.0403 5.28583 14.0324L5.28616 14.031C5.2879 14.0238 5.28946 14.0163 5.29103 14.0099L5.3006 13.9688L5.30299 13.959L5.3039 13.9554L5.30662 13.9439L5.30851 13.9359L5.30893 13.9347L5.30761 13.9358L5.29029 13.9514C5.27503 13.9651 5.25936 13.9783 5.24509 13.9933L5.22934 14.0107C5.21217 14.0297 5.19599 14.0496 5.18084 14.0703L5.17276 14.0804C5.15379 14.1068 5.13623 14.1345 5.11948 14.1627V14.1627L5.11726 14.1665V14.1666L5.11041 14.1792C5.10654 14.186 5.10291 14.1931 5.09919 14.2C5.08955 14.2177 5.07948 14.2348 5.07082 14.2526L5.07041 14.2532L5.07008 14.2538L5.06967 14.2553L5.06629 14.262L5.06315 14.2687C5.04993 14.2963 5.03742 14.3242 5.02563 14.3524C4.98817 14.4417 4.95649 14.5333 4.93078 14.6267C4.91973 14.6666 4.91198 14.6978 4.90851 14.713L4.90835 14.7143L4.90588 14.7246L4.90686 14.7126C4.90818 14.6889 4.91091 14.6653 4.9128 14.6418C4.91643 14.5924 4.91957 14.5426 4.92501 14.4934C4.92938 14.452 4.93573 14.4115 4.94159 14.3704L4.94736 14.332C4.94983 14.313 4.95247 14.294 4.95561 14.2752C4.95833 14.2577 4.96221 14.2404 4.9655 14.2231L4.96567 14.2218L4.96938 14.2024L4.97045 14.1971C4.9758 14.1677 4.98133 14.1383 4.98703 14.1089L4.99 14.0943L4.99058 14.0916L4.99495 14.0709C4.9966 14.0622 4.99907 14.0538 5.0008 14.0456C5.00781 14.0146 5.01532 13.9843 5.02258 13.9537L5.02381 13.9486C5.02917 13.9258 5.03412 13.9029 5.03998 13.8804L5.04014 13.8794L5.04072 13.878L5.04253 13.8714C5.05449 13.8252 5.06777 13.7801 5.08105 13.7346L5.08798 13.7095C5.09054 13.7012 5.09268 13.6923 5.0954 13.6839C5.11726 13.6102 5.14076 13.5373 5.16567 13.4662L5.16889 13.4573C5.19033 13.3968 5.21194 13.3373 5.23462 13.2786L5.23709 13.2719C5.2474 13.2461 5.25796 13.2214 5.26802 13.1958L5.26967 13.1921C5.28517 13.1541 5.30043 13.1158 5.31627 13.079V13.0785L5.3166 13.078L5.31841 13.0733C5.32262 13.0641 5.33243 13.0418 5.34769 13.0088L5.34794 13.0082L5.35 13.0037C5.35594 12.9907 5.36155 12.9781 5.36732 12.9649L5.39536 12.9025L5.40369 12.8845C5.39049 12.8773 5.37672 12.871 5.36311 12.8641L5.35544 12.8603L5.34101 12.8531C5.25225 12.8106 5.15958 12.7768 5.06431 12.7522L5.04905 12.7484C4.95041 12.7238 4.84957 12.7092 4.74802 12.7047C4.71645 12.7033 4.68485 12.703 4.65326 12.7036C4.60542 12.7046 4.55841 12.7086 4.51206 12.7138C4.49722 12.7157 4.48295 12.7182 4.4686 12.7201C4.44567 12.7236 4.42299 12.728 4.40014 12.7321C4.39132 12.734 4.382 12.7351 4.37317 12.7371C4.32622 12.747 4.27979 12.7592 4.23404 12.7736C4.22002 12.7781 4.206 12.7816 4.19239 12.7864C4.15157 12.8008 4.11157 12.8164 4.07231 12.8338C4.05664 12.8408 4.04221 12.8488 4.02695 12.8559C4.00905 12.8648 3.99132 12.8742 3.97375 12.8832L3.95561 12.8926C3.91842 12.9135 3.88208 12.9359 3.84666 12.9597C3.82588 12.9734 3.80567 12.9872 3.78596 13.0018C3.77383 13.011 3.76229 13.0206 3.75008 13.03C3.70186 13.0686 3.65597 13.1101 3.61268 13.1542C3.58645 13.1802 3.56089 13.2067 3.53697 13.2345L3.52476 13.2484C3.51214 13.2634 3.50043 13.2794 3.48864 13.2951L3.48674 13.2973L3.48526 13.2994C3.47726 13.31 3.4686 13.3201 3.46076 13.3309L3.45763 13.3351L3.45458 13.3393L3.45433 13.3397L3.45416 13.34C3.40587 13.4078 3.36325 13.4796 3.32674 13.5544C3.32138 13.5651 3.3166 13.5762 3.31148 13.5871C3.29446 13.6239 3.27888 13.6614 3.2648 13.6994C3.25928 13.7146 3.25309 13.7293 3.2479 13.7446L3.24765 13.7448V13.7448L3.24748 13.7452C3.23462 13.784 3.22324 13.8234 3.2135 13.8641L3.20979 13.8791L3.20625 13.8983L3.20575 13.8999C3.19915 13.9293 3.19272 13.9587 3.1881 13.9886C3.18571 14.0032 3.18423 14.0182 3.18233 14.0331L3.18167 14.0373C3.17977 14.0531 3.17821 14.0691 3.17656 14.0851C3.17515 14.0971 3.17342 14.1093 3.17243 14.1215C3.16897 14.1686 3.16748 14.216 3.16856 14.2642C3.16955 14.3013 3.17284 14.3379 3.17631 14.3745L3.17656 14.3766L3.17779 14.3937C3.17977 14.4139 3.18332 14.4338 3.18629 14.4539C3.21829 14.6789 3.30177 14.8935 3.43025 15.0809C3.5459 15.2527 3.69519 15.3993 3.86909 15.5118C3.96867 15.5756 4.07541 15.6276 4.18711 15.6666C4.29515 15.7048 4.40798 15.7326 4.52559 15.7454C4.55198 15.7481 4.57878 15.7501 4.60559 15.752C4.64575 15.7547 4.68575 15.7564 4.72666 15.7556C4.76427 15.7547 4.80089 15.75 4.83792 15.7465C4.85903 15.7445 4.8808 15.7444 4.90167 15.7414C4.95486 15.734 5.00699 15.7232 5.05837 15.7104L5.06992 15.7078C5.09136 15.7022 5.11115 15.6945 5.13185 15.688C5.19603 15.6685 5.2588 15.6447 5.31973 15.6167L5.33293 15.6108C5.34983 15.6036 5.3674 15.5966 5.38373 15.5882L5.38571 15.5874C5.35577 15.4211 5.33299 15.2535 5.31742 15.0852C5.31643 15.073 5.3147 15.0612 5.31338 15.0491Z" fill="#FCE9C9"/>
<path d="M11.6699 1.7522L11.698 1.76655L11.6976 1.76275L11.6699 1.7522Z" fill="#4D94C3"/>
<path d="M19.9613 17.0707C19.9594 17.0633 19.9576 17.0559 19.9558 17.0485L19.945 17.008C19.8988 16.8581 19.8403 16.7411 19.7883 16.6577C19.7217 16.55 19.6666 16.4968 19.6666 16.4968C19.6903 16.4146 19.7074 16.3306 19.7177 16.2457C19.7578 15.9042 19.6664 15.6384 19.5932 15.4885C19.5829 15.4673 19.5719 15.4463 19.5604 15.4258C19.5076 15.4633 19.4543 15.5003 19.401 15.5363C18.3886 16.2218 17.2492 16.6617 16.0154 16.8507C15.1651 16.981 14.2707 16.9932 13.3406 16.88L13.3569 16.8847C13.3569 16.8847 12.7963 16.9614 12.6443 17.4991L12.6538 17.5046L12.6074 17.8653C12.6238 18.3536 12.8471 18.6593 13.1012 18.8201C13.3654 18.9209 13.6843 18.9977 14.0384 19.0417C14.6548 19.1183 15.3623 19.098 16.0845 18.9834L16.0882 18.9828L16.0919 18.9823C17.0524 18.8536 18.4082 18.3407 19.3773 17.6786C19.5981 17.5277 19.7989 17.3695 19.9704 17.2059L19.9768 17.1996L19.9885 17.1883C19.9801 17.149 19.971 17.1098 19.9613 17.0707Z" fill="white"/>
<path d="M18.1288 12.4163C17.6088 12.0996 17.5325 11.9945 17.5812 11.1342C17.5985 10.8245 17.6321 10.4173 17.6666 9.86538C17.6709 9.79645 17.6736 9.72742 17.6746 9.65837C17.675 9.64229 17.6753 9.6267 17.6753 9.61094C17.6759 9.54938 17.675 9.48781 17.6727 9.42629L17.6721 9.40921L17.6707 9.39099C17.667 9.32614 17.6618 9.26138 17.6553 9.19676C17.6504 9.15083 17.6442 9.10504 17.6368 9.05944C17.6332 9.03684 17.6287 9.01507 17.6246 8.99305C17.62 8.96875 17.615 8.94453 17.6097 8.92039C17.6048 8.89718 17.5995 8.87405 17.5938 8.85103L17.5936 8.85086L17.5938 8.85062C17.5204 8.74048 17.4309 8.64194 17.3284 8.55824L17.3082 8.54315L17.3041 8.5401L17.2889 8.52872L17.2837 8.52484C17.2689 8.5133 17.2532 8.50216 17.2378 8.49185C17.2213 8.48082 17.2045 8.47015 17.1875 8.45985C17.0338 8.36633 16.8624 8.30761 16.679 8.28039C16.5751 8.26542 16.47 8.26007 16.3651 8.26439C16.3151 8.2662 16.2645 8.27057 16.2136 8.27659C16.076 8.29303 15.94 8.32173 15.8075 8.36237C15.7612 8.3942 15.715 8.42678 15.6681 8.45928C15.629 8.48657 15.589 8.51387 15.5489 8.54101L15.5296 8.55429C15.4892 8.58142 15.4484 8.60789 15.4074 8.63429L15.3868 8.64715C15.3456 8.67272 15.3042 8.69771 15.2625 8.72138L15.2406 8.73358C15.1987 8.75708 15.1562 8.77936 15.113 8.80039L15.0915 8.81045C15.048 8.83107 15.0036 8.85045 14.9587 8.86736L14.9401 8.87445C14.8938 8.89166 14.8467 8.90672 14.7989 8.91956L14.7864 8.92245C14.7358 8.93548 14.6853 8.94587 14.6332 8.95297C14.5463 8.96398 14.4588 8.96932 14.3711 8.96897C14.2272 8.96912 14.0835 8.95831 13.9413 8.93664C13.893 8.92923 13.8448 8.92106 13.7968 8.91214C13.7796 8.90884 13.7626 8.90629 13.7456 8.90299C13.6203 8.87857 13.4941 8.84946 13.3671 8.81886C13.3136 8.80616 13.2604 8.7933 13.2068 8.78026C13.1207 8.75932 13.0338 8.73903 12.9468 8.71923C12.9296 8.71519 12.913 8.7109 12.8955 8.70711C12.8225 8.71107 12.7493 8.71824 12.6757 8.72748L12.6597 8.72946C12.4418 8.75839 12.2273 8.80938 12.0197 8.88163C12.008 8.88567 11.9962 8.88905 11.9846 8.89334C11.9515 8.90513 11.9186 8.91808 11.8856 8.93103C11.8415 8.94851 11.7974 8.96674 11.7536 8.98612C11.4465 9.12171 11.1483 9.30612 10.8709 9.54059C10.7601 9.6346 10.6546 9.7348 10.555 9.84072C10.4069 9.9986 10.2726 10.169 10.1537 10.35C10.1472 10.3599 10.1408 10.3698 10.1346 10.3799C10.0727 10.4755 10.0156 10.5741 9.9633 10.6754C9.94466 10.7112 9.92585 10.7471 9.9087 10.7832L9.90523 10.7902C9.85013 10.9072 9.80151 11.0271 9.75958 11.1494C9.75719 11.1566 9.75513 11.1639 9.75307 11.171C9.74713 11.1887 9.74259 11.2063 9.73707 11.2238C9.70089 11.3373 9.67077 11.4527 9.64684 11.5695C9.64453 11.5822 9.64165 11.5949 9.6395 11.6076C9.63274 11.6435 9.62631 11.6795 9.62053 11.7154C9.60077 11.8464 9.58947 11.9785 9.58672 12.1109C9.58573 12.1439 9.58449 12.1771 9.5849 12.2098C9.64213 12.4155 9.72547 12.6131 9.8329 12.7976C10.2223 13.4702 10.8624 13.8726 11.3263 14.0884C11.5105 14.1694 11.6989 14.2405 11.8906 14.3015L11.8956 14.31H11.8958L11.8967 14.3097L11.9093 14.3C11.9343 14.281 11.9592 14.2619 11.985 14.2431C11.9941 14.2361 12.0034 14.2295 12.0126 14.2227C12.0486 14.1963 12.0849 14.1705 12.1216 14.1453C12.1493 14.126 12.1777 14.1064 12.2068 14.0873C12.2163 14.0807 12.2261 14.0746 12.2358 14.0682C12.2651 14.0488 12.2948 14.0294 12.3254 14.0103L12.3555 13.9914L12.449 13.9343C12.4598 13.9279 12.4708 13.9214 12.4816 13.9148C12.5133 13.8965 12.5453 13.8777 12.5781 13.859C12.59 13.8527 12.6018 13.846 12.6136 13.8392C12.6459 13.8211 12.6788 13.8031 12.7123 13.7852C12.7255 13.7782 12.7388 13.771 12.7524 13.764C12.7854 13.7465 12.8187 13.7292 12.8526 13.7121L12.8963 13.6901C12.9301 13.6733 12.9642 13.6566 12.9985 13.6401C13.0148 13.6322 13.0313 13.6246 13.0477 13.6168C13.0815 13.6009 13.1156 13.585 13.1503 13.5693C13.1683 13.561 13.1872 13.553 13.2058 13.5446C13.2398 13.5294 13.274 13.5146 13.3084 13.5001C13.3287 13.491 13.3497 13.4825 13.3703 13.4739C13.404 13.4599 13.438 13.4458 13.4726 13.4318C13.4956 13.4227 13.519 13.4137 13.5423 13.4043C13.5757 13.3914 13.6092 13.3783 13.6434 13.3654C13.6689 13.3555 13.6951 13.3459 13.7208 13.3366C13.7539 13.3244 13.7867 13.3123 13.8205 13.3003L13.907 13.2704C13.9393 13.2592 13.9718 13.2478 14.0048 13.2372C14.0364 13.2265 14.0684 13.2163 14.1004 13.2061C14.132 13.1958 14.1635 13.1856 14.1956 13.1756C14.2308 13.1647 14.2665 13.154 14.3025 13.1432C14.3325 13.1344 14.3627 13.1251 14.3933 13.1163C14.4321 13.105 14.4719 13.0941 14.5113 13.083C14.531 13.0777 14.5502 13.0716 14.5701 13.0665C14.724 12.6789 15.1809 11.7179 15.9637 11.6128C16.0406 11.6017 16.1181 11.596 16.1958 11.5954C16.2138 11.5952 16.2331 11.5939 16.2502 11.5943C16.2412 11.5385 16.2341 11.4805 16.2304 11.4201C16.2059 11.006 16.3332 10.6618 16.5146 10.6508C16.6552 10.6394 16.767 10.8447 16.7861 10.9165C16.8395 11.0425 16.8769 11.2033 16.8877 11.3817C16.8974 11.5446 16.8823 11.6951 16.8512 11.8205C16.867 11.8368 16.8801 11.8549 16.8943 11.8722C17.0736 12.0947 17.1039 12.4034 17.0965 12.622C17.1662 12.615 17.2378 12.6088 17.3093 12.6027L17.364 12.5976L17.3753 12.5966C17.3856 12.5955 17.3959 12.5949 17.4062 12.5941C17.4948 12.5868 17.5843 12.5799 17.6751 12.5735L17.6793 12.5733C17.8849 12.5589 18.0962 12.5468 18.3141 12.5375C18.2009 12.4542 18.1288 12.4162 18.1288 12.4162M20.0984 18.2135C19.775 18.5008 19.4206 18.7511 19.0416 18.9597C18.8698 19.054 18.6937 19.1402 18.5138 19.218C18.1638 19.3703 17.8015 19.4923 17.4307 19.5828C16.7103 19.7583 16.2022 19.7587 16.2022 19.7587C16.5962 19.9766 17.0948 19.9786 17.4369 19.9441C17.6723 19.9206 17.8341 19.8801 17.8341 19.8801C17.8275 20.0152 17.8104 20.1496 17.783 20.282C17.7565 20.4108 17.7181 20.5368 17.6683 20.6585L17.6646 20.6684L17.6642 20.669C17.6096 20.8014 17.5398 20.9271 17.4562 21.0434C17.4477 21.0552 17.4393 21.0678 17.4307 21.0792L17.4566 21.0647C17.5826 20.9956 17.7065 20.9226 17.8281 20.8459L17.8308 20.8443C18.0826 20.6857 18.3238 20.5108 18.5528 20.3208L18.5532 20.3206L18.5538 20.3201C18.5622 20.3127 18.5709 20.3055 18.5797 20.298C18.7212 20.1746 18.8569 20.0446 18.9863 19.9086C19.1468 19.7395 19.2975 19.5614 19.4376 19.3751L19.4475 19.3622C19.4806 19.3179 19.513 19.274 19.5444 19.2302L19.5533 19.2175C19.5635 19.2025 19.5726 19.1883 19.5828 19.1735C19.6262 19.1114 19.6687 19.0486 19.7102 18.9851L19.7395 18.9398C19.7606 18.9067 19.7808 18.8735 19.801 18.8408C19.8162 18.8152 19.8319 18.7895 19.8467 18.7641C19.8632 18.7364 19.8797 18.7087 19.8957 18.6811C19.9238 18.6318 19.9513 18.5821 19.9783 18.5322C19.9888 18.5126 19.9987 18.4936 20.0088 18.4743C20.0291 18.4359 20.0489 18.3979 20.0677 18.3604C20.0765 18.3428 20.0853 18.3253 20.0938 18.3079L20.1014 18.2914C20.1246 18.2448 20.1471 18.1979 20.1692 18.1507C20.1455 18.1723 20.1219 18.1928 20.0984 18.2134M11.5146 14.4211C11.4076 14.4571 11.3018 14.4967 11.1975 14.5399C10.8965 14.6646 10.5547 14.842 10.252 15.087C10.214 15.1175 10.1768 15.1492 10.1403 15.1818C10.078 15.2382 10.0184 15.2976 9.96189 15.3598C9.95538 15.3669 9.94845 15.3737 9.94226 15.3808C9.9336 15.3904 9.92511 15.4004 9.9167 15.4101C9.89517 15.4353 9.87381 15.4609 9.85319 15.4872L9.82845 15.5187C9.80123 15.5546 9.77459 15.5911 9.74952 15.6289C9.72478 15.666 9.70111 15.7044 9.67868 15.7432C9.49921 16.0565 9.39744 16.4316 9.4287 16.8788L9.4296 16.8742L9.43018 16.8709L9.43348 16.8542L9.43447 16.8505C9.43579 16.8438 9.43777 16.8357 9.43983 16.8269L9.44107 16.8213C9.44354 16.8112 9.44643 16.7995 9.44973 16.7868L9.45196 16.7785L9.46416 16.7343H9.46441C9.46878 16.7187 9.47431 16.7017 9.47983 16.6843L9.48338 16.6737C9.48923 16.656 9.49567 16.6374 9.50268 16.6184L9.50639 16.6092C9.5129 16.5911 9.52016 16.5726 9.528 16.5535L9.53171 16.5446C9.5402 16.524 9.5496 16.5027 9.55934 16.4811L9.5656 16.4676C9.57608 16.4455 9.58672 16.4231 9.59859 16.4004L9.60016 16.3977C9.61789 16.3638 9.63785 16.3292 9.65913 16.2944C9.66713 16.2812 9.6748 16.2682 9.68371 16.255L9.69047 16.2439L9.69064 16.2437C9.72462 16.1925 9.76164 16.1435 9.80148 16.0967C9.80725 16.09 9.81344 16.0832 9.81963 16.0763C9.83422 16.0599 9.84948 16.0434 9.86532 16.0272C9.87183 16.0208 9.87818 16.014 9.8847 16.0076C9.90639 15.9865 9.92857 15.9657 9.95216 15.9457L9.95414 15.9438C9.95414 15.9438 9.54672 16.8654 9.72387 17.5962C9.72387 17.5962 9.72371 17.594 9.72371 17.5901V17.5855C9.72354 17.5814 9.72354 17.5768 9.72354 17.5705C9.72354 17.5694 9.72354 17.5679 9.72338 17.5666C9.72354 17.5592 9.72354 17.5504 9.72387 17.54C9.72387 17.5387 9.72387 17.5375 9.72404 17.536C9.72404 17.5253 9.72486 17.5131 9.72536 17.4997L9.7256 17.4958C9.72741 17.462 9.73005 17.4282 9.73352 17.3945L9.73402 17.39C9.73583 17.3716 9.73847 17.3526 9.74119 17.3325C9.74136 17.3308 9.74177 17.329 9.74202 17.3272C9.74507 17.306 9.74861 17.2839 9.75274 17.2613L9.75373 17.2559L9.75587 17.2445V17.244C9.76082 17.2185 9.76684 17.1924 9.7736 17.166C9.7741 17.1643 9.77443 17.1625 9.77484 17.1607C9.78177 17.1349 9.78919 17.1088 9.79752 17.0825L9.80527 17.0585L9.81088 17.0417V17.0414C9.81864 17.0199 9.82705 16.9982 9.8362 16.9768L9.8376 16.9733L9.83769 16.9732C9.85412 16.9351 9.87297 16.8981 9.8941 16.8624C9.91101 16.8339 9.92874 16.8059 9.94886 16.7794L9.94969 16.7781C9.94969 16.7781 9.92643 17.0051 9.93245 17.2751C9.9345 17.3479 9.93855 17.4207 9.94457 17.4933C9.96197 17.2162 10.0117 16.942 10.0928 16.6763C10.1144 16.6062 10.1379 16.538 10.1629 16.4707C10.1663 16.461 10.1697 16.4513 10.1734 16.4416C10.225 16.3059 10.2839 16.1731 10.3498 16.0437C10.3546 16.0348 10.3591 16.026 10.3637 16.0171C10.4248 15.8997 10.4913 15.7851 10.563 15.6738L10.5783 15.6499C10.6049 15.6094 10.632 15.5703 10.6592 15.5315C10.6663 15.5212 10.6732 15.5103 10.6803 15.5002C10.687 15.4911 10.6933 15.482 10.6998 15.473C10.7344 15.4251 10.7692 15.3785 10.8044 15.3335L10.8211 15.3123C10.8576 15.266 10.8941 15.2208 10.9307 15.1776L10.9327 15.1753C10.9775 15.1223 11.0235 15.0702 11.0704 15.0191C11.1039 14.9827 11.1371 14.9478 11.17 14.9141C11.1823 14.9015 11.1951 14.889 11.2078 14.8762C11.2806 14.8027 11.3556 14.7315 11.4327 14.6626C11.6446 14.473 11.8096 14.3558 11.8671 14.317C11.7484 14.3473 11.6308 14.382 11.5146 14.4212" fill="#EFCFA5"/>
<path d="M16.9325 12.3803C16.9325 12.3803 16.9302 12.3568 16.9218 12.3213C16.8887 12.1865 16.7555 11.8687 16.2312 11.9191C15.683 11.9718 15.4989 12.4142 15.4517 12.5649C15.442 12.5963 15.4377 12.6159 15.4377 12.6159L15.4526 12.6286C15.5221 12.5695 15.6547 12.5765 15.7751 12.6529C15.8264 12.685 15.8703 12.7278 15.9037 12.7783V12.7785C15.9501 12.8499 15.9629 12.9268 15.9301 12.9839C15.9232 12.9963 15.9144 13.0066 15.9044 13.0156C15.9044 13.0156 15.9255 13.0238 15.961 13.0341C16.1134 13.0791 16.5358 13.1677 16.7643 12.8725C16.7754 12.8583 16.7866 12.8451 16.7967 12.8292C16.7517 12.8062 16.7266 12.7403 16.7265 12.662C16.7261 12.622 16.7318 12.5822 16.7434 12.5439C16.7809 12.4198 16.8657 12.3466 16.9325 12.3803ZM14.2148 16.4071C13.9141 16.4692 13.6122 16.5246 13.3091 16.5736L13.3493 16.5787C13.7518 16.6287 14.3926 16.6892 15.1676 16.6419C16.5775 16.556 18.4333 16.1124 20.1184 14.5928L20.123 14.5869V14.5842C20.1286 14.457 20.1116 14.2271 19.9508 14.0483C19.9212 14.0156 19.8883 13.986 19.8527 13.9601C19.8464 13.9564 19.8405 13.9523 19.834 13.9486C19.7898 13.9238 19.7511 13.8988 19.7153 13.874C19.6869 13.8565 19.6593 13.8378 19.6324 13.8181L19.6287 13.8128C19.522 13.9648 19.4022 14.1073 19.2706 14.2383C19.2221 14.2861 19.1723 14.3326 19.1215 14.3779C18.6565 14.7967 18.0558 15.1455 17.4073 15.4327C16.3297 15.91 15.1252 16.2197 14.2147 16.4071M5.2902 13.9514C5.27494 13.965 5.25927 13.9783 5.245 13.9933L5.22925 14.0106C5.21208 14.0296 5.1959 14.0495 5.18075 14.0702L5.17267 14.0804C5.1537 14.1068 5.13614 14.1345 5.11939 14.1626V14.1627L5.11717 14.1664V14.1666L5.11032 14.1791C5.10645 14.1859 5.10282 14.193 5.09911 14.2C5.08946 14.2176 5.07939 14.2348 5.07073 14.2525L5.07032 14.2532L5.06999 14.2537L5.06958 14.2552L5.0662 14.2619L5.06306 14.2687C5.04984 14.2962 5.03733 14.3241 5.02554 14.3523C4.98808 14.4416 4.9564 14.5333 4.93069 14.6267C4.91964 14.6665 4.91189 14.6977 4.90842 14.713L4.90826 14.7143L4.90579 14.7245L4.90677 14.7125C4.90809 14.6889 4.91082 14.6653 4.91271 14.6418C4.91634 14.5923 4.91948 14.5426 4.92492 14.4933C4.92929 14.4519 4.93564 14.4114 4.9415 14.3704L4.94727 14.3319C4.94974 14.313 4.95238 14.294 4.95552 14.2752C4.95824 14.2576 4.96212 14.2403 4.96541 14.2231L4.96558 14.2217L4.96929 14.2024L4.97036 14.1971C4.97571 14.1676 4.98124 14.1382 4.98694 14.1088L4.98991 14.0942L4.99049 14.0915L4.99486 14.0708C4.99651 14.0622 4.99898 14.0537 5.00071 14.0456C5.00772 14.0146 5.01523 13.9842 5.02249 13.9536L5.02372 13.9485C5.02908 13.9257 5.03403 13.9028 5.03989 13.8804L5.04005 13.8794L5.04063 13.8779L5.04245 13.8713C5.0544 13.8251 5.06768 13.78 5.08096 13.7346L5.08789 13.7095C5.09045 13.7012 5.09259 13.6923 5.09531 13.6838C5.11717 13.6101 5.14067 13.5373 5.16558 13.4661L5.1688 13.4572C5.19024 13.3968 5.21185 13.3372 5.23453 13.2786L5.237 13.2719C5.24731 13.2461 5.25787 13.2213 5.26793 13.1958L5.26958 13.192C5.28508 13.154 5.30034 13.1158 5.31618 13.079V13.0784L5.31651 13.0779L5.31832 13.0733C5.32253 13.0641 5.33234 13.0417 5.3476 13.0087L5.34785 13.0081L5.34991 13.0037C5.35585 12.9906 5.36146 12.978 5.36723 12.9648L5.39527 12.9025L5.4036 12.8844C5.3904 12.8772 5.37663 12.8709 5.36302 12.8641L5.35535 12.8603L5.34092 12.853C5.25216 12.8105 5.15949 12.7767 5.06422 12.7521L5.04896 12.7483C4.95032 12.7238 4.84948 12.7091 4.74793 12.7046C4.71636 12.7033 4.68476 12.7029 4.65317 12.7036C4.60533 12.7045 4.55832 12.7086 4.51197 12.7137C4.49713 12.7155 4.48286 12.7182 4.46851 12.72C4.44558 12.7235 4.4229 12.728 4.40005 12.7321C4.39123 12.734 4.38191 12.7351 4.37308 12.737C4.32613 12.7469 4.2797 12.7591 4.23395 12.7736C4.21993 12.778 4.20591 12.7816 4.1923 12.7864C4.15148 12.8007 4.11148 12.8164 4.07222 12.8338C4.05655 12.8407 4.04212 12.8487 4.02686 12.8561C4.00896 12.8647 3.99123 12.8742 3.97366 12.8833L3.95552 12.8925C3.91833 12.9134 3.88199 12.9358 3.84657 12.9596C3.82579 12.9733 3.80558 12.9872 3.78587 13.0017C3.77374 13.0109 3.7622 13.0205 3.74999 13.0299C3.70177 13.0686 3.65588 13.1101 3.61259 13.1542C3.58637 13.18 3.56111 13.2068 3.53688 13.2344L3.52467 13.2483C3.51205 13.2634 3.50034 13.2793 3.48855 13.2951L3.48665 13.2973L3.48517 13.2993C3.47717 13.3099 3.46851 13.32 3.46067 13.3309L3.45754 13.3351L3.45449 13.3393L3.45424 13.3397L3.45407 13.3399C3.40574 13.4078 3.36335 13.4797 3.32665 13.5547C3.32129 13.5654 3.31651 13.5761 3.31164 13.587C3.29449 13.6236 3.27906 13.6612 3.26471 13.6993C3.25919 13.7145 3.253 13.7292 3.24781 13.7445L3.24756 13.7447V13.7448C3.25053 13.7547 3.25383 13.764 3.2568 13.7737C3.26727 13.8077 3.27791 13.8407 3.28913 13.8727L3.293 13.8837L3.29721 13.8948C3.34017 14.0145 3.39174 14.1309 3.45152 14.2431C3.45754 14.2541 3.46348 14.2655 3.46933 14.276L3.47354 14.2838L3.47915 14.2931C3.50625 14.3412 3.53508 14.3884 3.56558 14.4344C3.59935 14.4856 3.63549 14.5352 3.67387 14.5831L3.68954 14.602C3.6935 14.6068 3.69721 14.6111 3.70067 14.615C3.71098 14.6268 3.71733 14.6336 3.71733 14.6337C3.71337 14.617 3.71139 14.6005 3.70793 14.5835C3.68418 14.4665 3.67069 14.3476 3.6676 14.2283V14.2213L3.66727 14.2079C3.66553 14.1345 3.66746 14.061 3.67304 13.9878C3.69182 14.054 3.71281 14.1194 3.73597 14.1841L3.74059 14.1974L3.74249 14.2023C3.79351 14.3406 3.8564 14.4742 3.93045 14.6017C4.00517 14.7304 4.07362 14.8215 4.11453 14.8716C4.12707 14.8873 4.14013 14.9024 4.1537 14.9172C4.12534 14.7931 4.10885 14.6666 4.10447 14.5394C4.10243 14.4981 4.1016 14.4566 4.10199 14.4152C4.10273 14.3629 4.10546 14.3115 4.10974 14.2608C4.13251 14.3475 4.15865 14.4278 4.18661 14.5036L4.18859 14.5093C4.28904 14.7816 4.41308 14.9818 4.49869 15.1004L4.50842 15.1135C4.52352 15.1337 4.53647 15.1506 4.54826 15.1658C4.55642 15.176 4.56409 15.1859 4.57053 15.1933C4.58015 15.2051 4.59011 15.2167 4.60038 15.228L4.59684 15.2102C4.59302 15.1925 4.58936 15.1747 4.58587 15.1569C4.57406 15.094 4.56525 15.0306 4.55948 14.9669C4.55508 14.9253 4.55191 14.8836 4.54999 14.8419C4.54868 14.8029 4.54841 14.764 4.54917 14.725L4.54983 14.7041C4.55049 14.6841 4.5509 14.664 4.55197 14.6442L4.55271 14.6319L4.55354 14.6231C4.55659 14.5721 4.56096 14.5216 4.56731 14.4721C4.58369 14.5275 4.60204 14.5822 4.62232 14.6363L4.62405 14.6409L4.62686 14.6486L4.63181 14.6624C4.6594 14.7349 4.69028 14.8061 4.72434 14.8758C4.7495 14.9279 4.77515 14.976 4.79989 15.0199C4.81432 15.0447 4.82801 15.068 4.8417 15.0904C4.8704 15.1372 4.90086 15.1829 4.933 15.2274L4.94282 15.2408C4.96065 15.2651 4.9791 15.289 4.99816 15.3125C5.01506 15.333 5.02702 15.3464 5.03238 15.3523L5.03543 15.3556L5.04616 15.3629C5.04723 15.3539 5.04855 15.345 5.0497 15.3359C5.05919 15.2567 5.07024 15.1769 5.08195 15.0975C5.08327 15.0879 5.08484 15.0784 5.08624 15.069C5.09993 14.9795 5.11445 14.8906 5.12954 14.8048L5.13531 14.7718L5.13647 14.7662L5.14174 14.7363C5.15608 14.6561 5.17121 14.576 5.18711 14.4961C5.19824 14.4398 5.20913 14.3864 5.21952 14.3363L5.22282 14.3201C5.22438 14.3122 5.22612 14.305 5.2276 14.2975C5.22925 14.2902 5.23073 14.2826 5.23222 14.2749L5.2328 14.2723C5.23552 14.2598 5.2384 14.2469 5.24088 14.235L5.2417 14.2317C5.24401 14.2199 5.24632 14.2099 5.24863 14.199C5.25251 14.1817 5.25614 14.164 5.25976 14.1478L5.26075 14.1434C5.26372 14.1303 5.26645 14.117 5.26917 14.105C5.27313 14.0879 5.27675 14.072 5.27989 14.057L5.28005 14.0566L5.2803 14.0562C5.28212 14.0476 5.28393 14.0402 5.28574 14.0323L5.28607 14.0309C5.28781 14.0237 5.28937 14.0162 5.29094 14.0099L5.30051 13.9687L5.3029 13.959L5.30381 13.9553L5.30653 13.9438L5.30842 13.9358L5.30884 13.9346L5.30752 13.9357L5.2902 13.9514ZM16.7012 17.8904C16.8341 17.8444 16.9499 17.8073 17.0397 17.7681C17.2198 17.6914 17.3164 17.6397 17.3104 17.6207C17.3043 17.6011 17.1957 17.6159 17.0044 17.6591C16.9087 17.6815 16.7926 17.701 16.6593 17.7309C16.593 17.7469 16.5197 17.7559 16.4438 17.7706C16.3673 17.7839 16.2869 17.8007 16.202 17.8098C16.0345 17.8335 15.8429 17.8551 15.6394 17.8788C15.5391 17.8871 15.4357 17.8956 15.3293 17.9041C15.2218 17.9095 15.1115 17.915 14.9982 17.9205C14.5456 17.9337 14.046 17.9133 13.5376 17.8198C13.2696 17.7726 12.9113 17.6509 12.6536 17.5045L12.6441 17.4991C12.7961 16.9614 13.3567 16.8847 13.3567 16.8847L13.3404 16.8799L13.3122 16.8767C13.2307 16.8666 13.159 16.8569 13.0975 16.8486C13.0537 16.8427 13.0151 16.8374 12.9827 16.8334C12.9514 16.8295 12.929 16.8272 12.9161 16.8264C12.5784 16.8032 12.3935 17.0891 12.3295 17.213C12.3204 17.2309 12.312 17.2493 12.3035 17.268C12.252 17.3867 12.2216 17.5135 12.2137 17.6427C12.197 17.8954 12.2621 18.1729 12.4557 18.4091C12.5849 18.5685 12.8095 18.7089 13.101 18.82C12.8469 18.6592 12.6236 18.3535 12.6072 17.8652C12.8951 17.9889 13.2305 18.0646 13.4824 18.1094C14.0221 18.2089 14.5428 18.2208 15.0109 18.192C15.1279 18.1822 15.2417 18.1737 15.3522 18.1625C15.4629 18.1481 15.5703 18.1343 15.6744 18.1208C15.877 18.0866 16.0639 18.0536 16.2394 18.0149C16.3268 17.9985 16.4081 17.9745 16.4848 17.9536C16.5617 17.9313 16.6345 17.9145 16.7012 17.8904Z" fill="#EFCFA5"/>
<path d="M16.2536 11.5968C16.5355 11.6033 16.727 11.6928 16.8546 11.8231C16.8857 11.6975 16.9009 11.5471 16.8909 11.3841C16.8801 11.2057 16.8428 11.0449 16.7895 10.9189C16.7705 10.8471 16.6585 10.6418 16.5179 10.6532C16.3364 10.6641 16.2094 11.0085 16.2339 11.4225C16.2374 11.4829 16.2443 11.5409 16.2536 11.5968ZM16.7298 12.6645C16.73 12.7428 16.7551 12.8087 16.8 12.8316C16.8674 12.8655 16.9515 12.7917 16.9888 12.6677C16.9924 12.6568 16.9944 12.646 16.9968 12.6354V12.6351C17.0207 12.5224 16.9964 12.4133 16.9356 12.3828C16.8688 12.349 16.7841 12.4224 16.7468 12.5462C16.7346 12.5866 16.7295 12.6268 16.7298 12.6645ZM15.4497 12.8643C15.4796 12.913 15.5246 12.96 15.5821 12.9967C15.7039 13.0739 15.8391 13.0804 15.9077 13.0182C15.9178 13.0091 15.9266 12.9986 15.9335 12.9864C15.9663 12.9292 15.9534 12.8523 15.9073 12.7808L15.9071 12.7807C15.8736 12.7302 15.8298 12.6874 15.7784 12.6553C15.6581 12.5789 15.5255 12.5719 15.456 12.6311C15.4443 12.6407 15.4345 12.6522 15.4268 12.6651C15.3953 12.7205 15.407 12.7944 15.4497 12.8641V12.8643ZM20.1231 14.5874V14.585L20.1152 14.5964C20.1163 14.5954 20.1176 14.5945 20.1186 14.5935L20.1231 14.5874Z" fill="#59473D"/>
<path d="M19.9768 17.2001L19.9704 17.2062C19.7989 17.3698 19.5979 17.5283 19.3773 17.6791C18.4082 18.3411 17.0524 18.854 16.0917 18.9827L16.088 18.9833L16.0844 18.9839C15.3621 19.0986 14.6547 19.1188 14.0383 19.0421C13.684 18.998 13.3653 18.9213 13.101 18.8205C12.8098 18.7094 12.5851 18.5689 12.4557 18.4097C12.2621 18.1734 12.197 17.8959 12.2138 17.6432C12.2218 17.5141 12.2522 17.3873 12.3037 17.2686C12.312 17.2498 12.3206 17.2314 12.3296 17.2136C12.3936 17.0897 12.5785 16.8037 12.9163 16.8267C12.9291 16.8278 12.9516 16.83 12.9827 16.8339C13.0152 16.8379 13.0538 16.8432 13.0977 16.8491C13.159 16.8573 13.2309 16.8671 13.3124 16.8771C13.3219 16.8784 13.3311 16.8793 13.3404 16.8804C14.2705 16.9935 15.1649 16.9815 16.0153 16.8512C17.249 16.6621 18.3886 16.2222 19.4008 15.5368C19.4544 15.5006 19.5076 15.4637 19.5602 15.4262L20.1151 14.5963C18.4311 16.1133 16.5769 16.5565 15.1676 16.6423C14.3926 16.6897 13.7517 16.6292 13.3495 16.5792C13.336 16.5775 13.3226 16.5758 13.3091 16.574C13.1884 16.5587 13.0901 16.5448 13.0198 16.5359C12.9847 16.5315 12.9563 16.5285 12.935 16.527C12.8337 16.52 12.7321 16.532 12.6352 16.5624C12.4435 16.6224 12.2796 16.7519 12.1565 16.9235C12.0044 17.135 11.9149 17.4102 11.9108 17.6979C11.9078 17.9347 11.9629 18.1795 12.09 18.4039C12.0949 18.4129 12.0998 18.422 12.1051 18.4312C12.1198 18.4558 12.1357 18.48 12.1522 18.5038C12.1744 18.5364 12.1979 18.5686 12.2237 18.5999C12.5189 18.9639 13.1539 19.2347 14.0011 19.3401C14.5743 19.4113 15.2452 19.4056 15.9729 19.303C18.1172 18.9153 19.1366 18.2225 19.6073 17.7358C19.6417 17.7003 19.6733 17.6657 19.7022 17.6326C19.8709 17.438 19.9469 17.2883 19.9746 17.2235L19.9784 17.2147C19.9855 17.198 19.9883 17.1891 19.9884 17.1887L19.9768 17.2001Z" fill="#59473D"/>
<path d="M13.1528 9.76378C13.0852 9.72692 13.0114 9.70069 12.9369 9.68222C12.8704 9.66601 12.8026 9.65517 12.7343 9.6498C12.4833 9.62786 12.2662 9.67042 12.2662 9.67042C12.2197 9.68098 12.1751 9.69302 12.132 9.70622C11.791 9.80964 11.5537 9.9872 11.3877 10.1921C11.2535 10.3578 11.1662 10.5415 11.1104 10.7188C11.092 10.7788 11.076 10.8395 11.0626 10.9009C11.0355 11.031 11.0198 11.1632 11.0156 11.2961C11.0113 11.4449 11.0229 11.5407 11.0229 11.5407C11.079 11.4176 11.1409 11.2973 11.2083 11.18C11.3671 10.9033 11.5393 10.6805 11.7133 10.5014C12.0524 10.1526 12.3978 9.96857 12.6655 9.87182C12.9547 9.76733 13.1528 9.76378 13.1528 9.76378ZM17.2257 9.27817L17.2144 9.26316C17.1748 9.21282 17.1279 9.16875 17.0752 9.13244C16.9457 9.04337 16.7671 8.99694 16.5194 9.04774C16.5194 9.04774 16.2253 9.11718 16.0534 9.30951C16.0534 9.30951 16.5659 9.09063 17.1084 9.47628C17.1579 9.51141 17.2074 9.55215 17.257 9.59793C17.3105 9.6475 17.361 9.70021 17.4082 9.75578C17.4082 9.75578 17.3867 9.51941 17.252 9.31578C17.2437 9.30289 17.235 9.29035 17.2257 9.27817Z" fill="#E1B27E"/>
<path d="M13.2148 13.0309C13.4249 12.9666 13.6374 12.9104 13.8518 12.8625C13.8914 12.6852 13.9012 12.4655 13.8732 12.2309C13.8083 11.6808 13.5601 11.2594 13.3192 11.2892C13.0781 11.3189 12.9358 11.789 13.0008 12.3388C13.0337 12.6157 13.113 12.8603 13.2147 13.0308" fill="#59473D"/>
<path d="M12.0968 0.72168L11.5914 0.835907L11.6974 1.76275L10.3505 1.07714L9.7959 1.2425L9.80456 1.25232L11.4409 3.11739L11.4566 3.10749L11.4777 3.0943C11.5286 3.0618 11.5797 3.02947 11.6311 2.99756C11.649 2.98634 11.6669 2.97471 11.6849 2.96366C11.7591 2.91813 11.8333 2.87343 11.908 2.82898L11.2129 2.03277L12.3376 2.58271L12.3419 2.58032C12.3757 2.56176 12.4093 2.54312 12.4432 2.52473L12.3395 1.72168L12.8498 2.31195L12.856 2.30898C12.8992 2.28721 12.9415 2.26659 12.984 2.24556L12.9972 2.23921L13.0178 2.22881C13.0252 2.22535 13.0326 2.22164 13.0398 2.21801C13.0578 2.20927 13.0764 2.19987 13.0942 2.19112C13.0978 2.18931 13.1013 2.18782 13.105 2.18601C13.1646 2.15736 13.2244 2.12905 13.2844 2.10106L12.0968 0.72168Z" fill="#FACE56"/>
<path d="M11.5949 0.865094L11.5916 0.835815L11.5949 0.865259V0.865094Z" fill="#4D94C3"/>
<path d="M11.5916 0.835934L11.6663 0.819109C11.5426 0.761707 11.3956 0.720717 11.2254 0.699521C10.8847 0.656635 10.452 0.696057 9.95913 0.82348C9.46618 0.949996 8.91352 1.16278 8.32738 1.45474C7.15501 2.038 5.84985 2.93721 4.59394 4.08294C4.16857 4.4704 3.76063 4.87657 3.37134 5.30026L4.89695 7.16872C5.3239 6.69818 5.77295 6.24819 6.2426 5.82026C6.89027 5.22983 7.55055 4.70307 8.20342 4.24525C8.83608 3.80204 9.4609 3.42579 10.0625 3.12138L9.79756 1.9283L9.80466 1.25226L9.796 1.24245L10.3506 1.07709L11.4335 1.63132L11.4028 1.254L11.5916 0.835934Z" fill="#4D94C3"/>
<path d="M11.5915 0.835815L11.4027 1.25388L11.4334 1.63111L11.6975 1.76266L11.5915 0.835815ZM11.2129 2.0326L12.3376 2.58254L11.908 2.82881L11.2129 2.0326ZM12.3395 1.72151L12.4432 2.52456L12.8498 2.31177L12.3395 1.72151Z" fill="#141C26"/>
<path d="M16.5948 1.42466C16.6627 1.42192 16.7307 1.42123 16.7987 1.42259C16.988 1.42647 17.1657 1.44882 17.3342 1.49088C17.3433 1.49327 17.3527 1.49459 17.3616 1.49699L17.3637 1.49756L17.3703 1.49896L17.3868 1.50375L17.4021 1.50837C17.3823 1.49517 17.362 1.4828 17.3415 1.47068C17.1524 1.39826 16.9523 1.35101 16.7465 1.32453C15.7256 1.19315 14.5634 1.56478 13.8988 1.8287C13.8623 1.84395 13.8256 1.85921 13.7884 1.87488C13.6336 1.94098 13.4799 2.00958 13.3274 2.08066C13.313 2.08725 13.2987 2.09418 13.2844 2.10094C13.225 2.12882 13.1656 2.1567 13.105 2.18589C13.1013 2.18762 13.0979 2.18919 13.0942 2.19101C13.0764 2.19975 13.0579 2.20915 13.0398 2.21789C13.0326 2.22159 13.0253 2.22519 13.0179 2.2287L12.9973 2.23909L12.984 2.24544C12.9416 2.26647 12.8993 2.28709 12.856 2.30886L12.8499 2.31183C12.8485 2.31266 12.8472 2.31323 12.846 2.31389C12.8353 2.31901 12.8252 2.32404 12.8146 2.32923L12.8092 2.33187L12.7859 2.34416C12.6735 2.40179 12.5617 2.46063 12.4506 2.52066L12.4432 2.52461C12.4094 2.54301 12.3758 2.56173 12.3419 2.5802L12.3376 2.58259C12.2275 2.64351 12.1181 2.7057 12.0094 2.76915C11.998 2.77575 11.9866 2.7821 11.9751 2.78886L11.9461 2.80593C11.937 2.81113 11.9282 2.81666 11.9195 2.82202L11.908 2.82886C11.8334 2.87331 11.7591 2.91802 11.6849 2.96354C11.6669 2.97459 11.649 2.98622 11.631 2.99736C11.5797 3.02936 11.5286 3.06169 11.4776 3.09418L11.4566 3.10738L11.4409 3.11727C11.0633 3.36014 10.694 3.61582 10.3338 3.88387C10.3046 3.90564 10.2756 3.92775 10.2463 3.94985C9.65579 4.39439 9.08556 4.87134 8.53909 5.36676C7.96218 5.88997 7.41249 6.43373 6.89323 6.97995C6.6488 7.22455 6.40876 7.4735 6.17323 7.72668C5.77769 8.15266 5.56194 8.416 5.57084 8.42193C5.57439 8.42581 5.60919 8.39348 5.67097 8.33171C5.61983 8.39109 5.5687 8.4503 5.51855 8.50927C6.38082 7.58993 7.33719 6.64849 8.36408 5.76148C8.98792 5.22317 9.63699 4.70499 10.3076 4.22416V4.22433C10.6935 3.94705 11.0884 3.68239 11.4915 3.43076C11.54 3.40057 11.589 3.37138 11.6376 3.34152C11.6651 3.3247 11.6927 3.30771 11.7205 3.29096C11.7725 3.25962 11.8248 3.2287 11.8769 3.19769C11.9281 3.16758 11.9792 3.13748 12.0305 3.10771C12.0574 3.09228 12.0842 3.0767 12.1111 3.06144C12.1763 3.02426 12.2417 2.98756 12.3073 2.95134C12.3463 2.92973 12.3857 2.90787 12.4249 2.88659L12.4252 2.88643C12.5486 2.81935 12.6729 2.75386 12.798 2.68997C12.8082 2.68461 12.8187 2.67942 12.8292 2.67414L12.8877 2.64445C12.9136 2.63125 12.9392 2.61789 12.9652 2.60494C12.9751 2.60016 12.9846 2.59505 12.9944 2.5901L12.9986 2.5882C13.0162 2.57946 13.0335 2.57113 13.051 2.56263L13.062 2.55744L13.0681 2.55414L13.2305 2.47546C13.2402 2.47101 13.2501 2.46581 13.2602 2.46119C13.2775 2.4527 13.2946 2.44503 13.3121 2.4367C13.3741 2.40739 13.4362 2.37833 13.4984 2.34952C13.5153 2.34185 13.5326 2.33344 13.5493 2.32585L13.5757 2.31406L13.6282 2.29047C13.7004 2.25781 13.7722 2.22556 13.8426 2.19496C13.9071 2.16692 13.9696 2.14127 14.0325 2.1148C14.3877 1.96552 14.7215 1.83991 15.0318 1.74012C15.6282 1.54886 16.143 1.44404 16.5948 1.42466Z" fill="white"/>
</g>
<defs>
<clipPath id="clip0_70_2084">
<rect width="21.1134" height="24" fill="white"/>
</clipPath>
</defs>
</svg>
