<svg width="32" height="40" viewBox="0 0 32 40" fill="none" xmlns="http://www.w3.org/2000/svg">
<path d="M0.00784516 22.9087C0.00784516 19.1446 0.00784516 16.8721 0.00784516 13.108C0.00784516 12.1303 0.56486 11.411 1.52198 11.1526C1.74165 11.0967 1.98486 11.0618 2.21237 11.0618C8.44152 11.0548 14.6628 11.0548 20.892 11.0618C22.1865 11.0618 23.0965 11.8859 23.0965 13.0521C23.1044 15.5103 23.0965 16.4909 23.0965 18.9491C23.0965 24.047 23.0965 29.145 23.0965 34.2429C23.0965 35.2206 22.5238 35.9539 21.551 36.2053C21.3313 36.2612 21.0881 36.2891 20.8528 36.2891C14.6471 36.2961 8.44152 36.2961 2.2359 36.2891C0.902207 36.2891 0 35.472 0 34.2709C0.00784528 30.4788 0.00784516 26.6938 0.00784516 22.9087ZM0.619777 15.2897C0.619777 15.3666 0.619777 15.4224 0.619777 15.4713C0.619777 21.7355 0.619777 28.0067 0.619777 34.2709C0.619777 35.1508 1.25524 35.7234 2.25944 35.7234C8.44937 35.7234 14.6315 35.7234 20.8214 35.7234C21.857 35.7234 22.4846 35.1578 22.4846 34.2359C22.4846 27.9927 22.4846 21.7565 22.4846 15.5132C22.4846 15.4364 22.4767 15.3666 22.4689 15.2897C15.1806 15.2897 7.91589 15.2897 0.619777 15.2897ZM16.7889 12.8895C15.8788 12.8895 14.9688 12.8895 14.0509 12.8895C13.9568 12.8895 13.8312 12.8615 13.7606 12.8964C13.6429 12.9593 13.4782 13.064 13.4703 13.1618C13.4703 13.2526 13.6273 13.3643 13.7371 13.4481C13.7763 13.4761 13.8705 13.4551 13.9411 13.4551C15.8239 13.4551 17.7068 13.4551 19.5897 13.4551C19.6603 13.4551 19.7466 13.4761 19.7936 13.4481C19.9035 13.3643 20.0682 13.2666 20.0682 13.1688C20.0682 13.078 19.9035 12.9733 19.7858 12.8964C19.7309 12.8615 19.6367 12.8895 19.5583 12.8895C18.6325 12.8895 17.7068 12.8895 16.7889 12.8895ZM3.53038 13.4551C3.61667 13.4481 3.73435 13.4831 3.78927 13.4481C3.8991 13.3713 4.05601 13.2596 4.05601 13.1688C4.04817 13.078 3.89126 12.9523 3.76573 12.9104C3.64021 12.8685 3.45977 12.8685 3.33424 12.9104C3.20872 12.9523 3.06751 13.064 3.03612 13.1688C2.98905 13.3364 3.13811 13.4342 3.3264 13.4621C3.39701 13.4621 3.46761 13.4551 3.53038 13.4551ZM5.47601 13.4551C5.53092 13.4551 5.59369 13.4551 5.6486 13.4551C5.86043 13.4481 6.01733 13.3573 6.00949 13.1548C6.00164 12.9663 5.85258 12.8895 5.6486 12.8825C5.53092 12.8825 5.41324 12.8755 5.29556 12.8825C5.10728 12.8895 4.97391 12.9802 4.96606 13.1478C4.95822 13.3364 5.09943 13.4272 5.29556 13.4412C5.35833 13.4621 5.42109 13.4551 5.47601 13.4551ZM7.36672 13.4551C7.49224 13.4551 7.53932 13.4551 7.59423 13.4551C7.80606 13.4481 7.97081 13.3713 7.96296 13.1688C7.96296 12.9663 7.79821 12.8895 7.58639 12.8895C7.46086 12.8895 7.3118 12.8545 7.20981 12.9034C7.09213 12.9593 6.95092 13.078 6.93523 13.1758C6.92738 13.2596 7.08429 13.3713 7.18628 13.4412C7.2412 13.4831 7.35103 13.4551 7.36672 13.4551Z" fill="#1E62B9"/>
<rect x="2.19995" y="17.6905" width="18.7" height="1.10565" fill="#1E62B9"/>
<rect x="2.19995" y="19.9019" width="18.7" height="1.10565" fill="#1E62B9"/>
<rect x="2.19995" y="22.1132" width="18.7" height="1.10565" fill="#1E62B9"/>
<rect x="2.19995" y="30.9584" width="18.7" height="2.21131" rx="1.10565" fill="#1E62B9"/>
<rect x="2.19995" y="24.3243" width="18.7" height="5.52827" fill="#1E62B9"/>
<path d="M32.0001 4.85259C31.9678 4.91673 31.9247 4.98087 31.9032 5.0557C31.4511 6.70203 30.407 7.76038 28.7278 8.17731C28.6632 8.188 28.5986 8.22007 28.5233 8.24145C28.5233 8.39111 28.5233 8.54078 28.5233 8.67976C28.5233 15.4254 28.5233 19.9488 28.5233 26.7052C28.5233 27.5177 28.3295 27.7101 27.4899 27.7101C22.3328 27.7101 29.5097 27.7101 23.3527 27.7101C23.2235 27.7101 23.0835 27.7101 22.9221 27.7101C22.9221 27.2504 22.9221 26.8121 22.9221 26.331C29.1007 26.331 20.9238 26.331 27.1239 26.331C27.1239 19.5426 27.1239 15.0085 27.1239 8.14523C26.5211 8.04902 25.8753 7.86728 25.2402 7.86728C17.3716 7.8459 12.703 7.85659 4.82371 7.85659C4.66225 7.85659 4.51155 7.85659 4.30703 7.85659C4.30703 12.2717 4.30703 7.79298 4.30703 12.1867C3.83341 12.1867 3.39208 12.1867 2.91846 12.1867C2.91846 12.0264 2.91846 11.8767 2.91846 11.7377C2.91846 5.91147 2.91846 8.93633 2.91846 3.11005C2.91846 2.25481 3.10145 2.06239 3.95181 2.06239C11.6374 2.06239 16.1122 2.06239 23.7978 2.07308C24.0992 2.07308 24.2714 1.98755 24.4544 1.74167C25.4878 0.362611 26.8871 -0.236053 28.5878 0.0846597C30.3639 0.416063 31.4619 1.54925 31.914 3.29179C31.9355 3.35593 31.9678 3.42007 32.0001 3.4949C32.0001 3.9439 32.0001 4.3929 32.0001 4.85259ZM4.32856 6.44546C12.0895 6.44546 16.6074 6.44546 24.3898 6.44546C23.7763 5.51539 23.5718 4.52118 23.7225 3.46283C16.1768 3.46283 11.8634 3.46283 4.33932 3.46283C4.32856 4.46773 4.32856 5.45125 4.32856 6.44546ZM27.8559 1.3782C26.3274 1.35682 25.068 2.56484 25.0464 4.08288C25.0249 5.64368 26.252 6.89446 27.8236 6.91584C29.3198 6.92653 30.6007 5.67575 30.6223 4.17909C30.6438 2.65036 29.4059 1.39958 27.8559 1.3782Z" fill="#1E62B9"/>
<path d="M26.5 3.31708L28.7 5.52839M28.7 3.31708L26.5 5.52839" stroke="#1E62B9" stroke-width="0.5" stroke-linecap="round" stroke-linejoin="round"/>
<path d="M19.5828 31.8531C19.3156 31.7517 19.0312 31.9533 19.0399 32.2379L19.172 36.5488C19.1811 36.8455 19.5003 37.0293 19.7626 36.8889L20.9906 36.2315L22.6747 38.9525L24.337 37.7059L22.4365 35.0212L23.6762 34.0554C23.9218 33.8641 23.8631 33.4785 23.5714 33.3677L19.5828 31.8531Z" fill="#5995E1"/>
</svg>
