<svg width="28" height="28" viewBox="0 0 28 28" fill="none" xmlns="http://www.w3.org/2000/svg">
<circle cx="14" cy="14" r="14" fill="#1E62B9"/>
<g clip-path="url(#clip0_59_4615)">
<path d="M11.4251 18.6542C11.3501 18.6542 11.3043 18.6542 11.2543 18.6542C10.4959 18.6542 9.73344 18.6542 8.97511 18.6542C7.73761 18.6542 6.82511 17.7417 6.82094 16.5084C6.82094 14.3542 6.81678 12.1959 6.82094 10.0417C6.82094 8.82086 7.73344 7.90836 8.95011 7.90836C10.4293 7.9042 11.9084 7.90836 13.3876 7.90836C13.4459 7.90836 13.5001 7.90836 13.5834 7.90836C13.5834 7.84586 13.5834 7.7917 13.5834 7.73753C13.5834 7.3542 13.5793 6.9667 13.5876 6.58336C13.5918 6.38336 13.7418 6.2292 13.9334 6.20003C14.1209 6.17086 14.3168 6.2792 14.3834 6.46253C14.4084 6.53336 14.4126 6.6167 14.4126 6.6917C14.4168 7.0417 14.4126 7.38753 14.4126 7.73753C14.4126 7.78753 14.4126 7.83753 14.4126 7.90836C14.4834 7.90836 14.5376 7.90836 14.5959 7.90836C16.0709 7.90836 17.5418 7.9042 19.0168 7.90836C20.0418 7.91253 20.8501 8.51253 21.1001 9.45836C21.1501 9.64586 21.1751 9.85003 21.1751 10.0459C21.1793 12.2084 21.1793 14.3667 21.1793 16.5292C21.1793 17.7459 20.2584 18.6584 19.0418 18.6625C18.2751 18.6625 17.5126 18.6625 16.7459 18.6625C16.6959 18.6625 16.6459 18.6625 16.5709 18.6625C16.6126 18.7292 16.6376 18.7709 16.6668 18.8125C17.1668 19.5709 17.6668 20.3334 18.1668 21.0917C18.2126 21.1584 18.2584 21.2334 18.2793 21.3125C18.3293 21.5042 18.2334 21.7 18.0626 21.7834C17.8876 21.8709 17.6668 21.825 17.5459 21.6584C17.4293 21.5 17.3251 21.3292 17.2168 21.1667C16.6959 20.375 16.1751 19.5875 15.6584 18.7959C15.5918 18.6959 15.5251 18.6625 15.4084 18.6625C14.4709 18.6667 13.5334 18.6667 12.5959 18.6625C12.4793 18.6625 12.4126 18.6959 12.3459 18.7959C11.7418 19.725 11.1293 20.6459 10.5209 21.5709C10.4418 21.6917 10.3501 21.7959 10.2001 21.8209C10.0376 21.85 9.90011 21.7959 9.80011 21.6667C9.70011 21.5375 9.68344 21.3917 9.75011 21.2417C9.77928 21.175 9.82094 21.1167 9.86261 21.0542C10.3584 20.3042 10.8501 19.55 11.3459 18.8C11.3668 18.75 11.3918 18.7125 11.4251 18.6542ZM14.0001 17.8125C15.6668 17.8125 17.3334 17.8125 19.0001 17.8125C19.8209 17.8125 20.3459 17.2875 20.3459 16.4667C20.3459 14.3375 20.3459 12.2084 20.3459 10.0792C20.3459 9.25836 19.8209 8.73336 19.0001 8.73336C15.6668 8.73336 12.3376 8.73336 9.00428 8.73336C8.18344 8.73336 7.65844 9.26253 7.65844 10.0834C7.65844 12.2125 7.65844 14.3417 7.65844 16.4709C7.65844 17.2917 8.18344 17.8167 9.00428 17.8167C10.6668 17.8125 12.3334 17.8125 14.0001 17.8125Z" fill="white"/>
<path d="M14.0001 10.9667C15.6084 10.9667 17.2168 10.9667 18.8251 10.9667C19.1501 10.9667 19.3501 11.1958 19.2834 11.4833C19.2459 11.6417 19.1418 11.7458 18.9793 11.7833C18.9084 11.8 18.8334 11.8042 18.7626 11.8042C15.5876 11.8042 12.4084 11.8042 9.23342 11.8042C8.91675 11.8042 8.75008 11.6917 8.70842 11.4542C8.66675 11.2125 8.83758 10.9917 9.07925 10.9708C9.13758 10.9667 9.19175 10.9667 9.25008 10.9667C10.8334 10.9667 12.4168 10.9667 14.0001 10.9667Z" fill="white"/>
<path d="M14.0001 13.6917C12.3917 13.6917 10.7834 13.6917 9.17507 13.6917C8.85423 13.6917 8.65423 13.4709 8.71673 13.1917C8.75423 13.0167 8.86257 12.9084 9.03757 12.8709C9.10423 12.8584 9.1709 12.8542 9.23757 12.8542C12.4126 12.8542 15.5917 12.8542 18.7667 12.8542C19.0792 12.8542 19.2417 12.9625 19.2876 13.1917C19.3376 13.4459 19.1667 13.6792 18.9042 13.6917C18.7126 13.7 18.5209 13.6959 18.3251 13.6959C16.8834 13.6917 15.4417 13.6917 14.0001 13.6917Z" fill="white"/>
<path d="M11.5625 14.7458C12.3542 14.7458 13.1458 14.7458 13.9375 14.7458C14.0917 14.7458 14.225 14.7792 14.325 14.9042C14.5125 15.1375 14.3958 15.4875 14.1083 15.5667C14.05 15.5834 13.9833 15.5875 13.925 15.5875C12.3458 15.5875 10.7708 15.5875 9.19166 15.5875C9.14166 15.5875 9.08749 15.5834 9.03749 15.575C8.82916 15.5292 8.69166 15.35 8.70416 15.1458C8.71666 14.9333 8.88332 14.7625 9.09582 14.7542C9.38749 14.7459 9.67916 14.75 9.97082 14.75C10.5 14.7458 11.0333 14.7458 11.5625 14.7458Z" fill="white"/>
</g>
<defs>
<clipPath id="clip0_59_4615">
<rect width="16" height="16" fill="white" transform="translate(6 6)"/>
</clipPath>
</defs>
</svg>
