<svg width="24" height="24" viewBox="0 0 24 24" fill="none" xmlns="http://www.w3.org/2000/svg">
<path d="M12.1618 0C12.704 0.194201 13.1167 0.598786 13.5455 0.954821C13.9582 1.29467 14.4032 1.40796 14.913 1.2704C15.1639 1.20566 15.4147 1.14902 15.6656 1.09238C15.8355 1.06001 16.0054 1.02765 16.1753 1.01146C16.6689 0.954821 17.0088 1.18139 17.203 1.61834C17.3567 1.97438 17.5024 2.3385 17.6237 2.70263C17.8018 3.2205 18.1497 3.55226 18.6757 3.69791C18.9589 3.77883 19.2421 3.87593 19.5172 3.97303C20.3102 4.25624 20.5368 4.67701 20.3668 5.51045C20.3102 5.77748 20.2697 6.0445 20.205 6.31153C20.0755 6.84558 20.1969 7.30681 20.5287 7.73567C20.7957 8.09171 21.0627 8.44774 21.3136 8.81187C21.6291 9.265 21.621 9.72623 21.2731 10.1713C21.0546 10.4464 20.8442 10.7215 20.6096 10.9885C20.2374 11.4093 20.116 11.8867 20.2455 12.437C20.3345 12.8092 20.4073 13.1814 20.4478 13.5617C20.5044 14.1443 20.3021 14.468 19.76 14.6945C19.5172 14.7997 19.2664 14.8726 18.9993 14.9697C19.0398 15.0425 19.0722 15.1153 19.1126 15.1881C20.0755 16.8469 21.0465 18.5057 22.0095 20.1726C22.0499 20.2454 22.0985 20.3183 22.1308 20.3992C22.3008 20.7633 22.147 21.0384 21.7424 21.0627C21.087 21.1032 20.4316 21.1274 19.7842 21.1517C19.1531 21.176 18.6676 21.443 18.3358 21.9852C18.0041 22.5192 17.6642 23.0533 17.3324 23.5873C17.0331 24.0485 16.7094 24.0485 16.4343 23.5711C15.4309 21.8476 14.4275 20.1322 13.4322 18.4086C13.3837 18.3196 13.3271 18.2387 13.2623 18.1335C13.1652 18.2063 13.0843 18.263 13.0115 18.3277C12.2994 18.9022 11.822 18.9184 11.0776 18.3844C10.7215 18.1254 10.7215 18.1335 10.503 18.5057C9.53204 20.1888 8.55295 21.8719 7.58194 23.555C7.55767 23.5954 7.53339 23.6359 7.50912 23.6763C7.26637 24.0566 6.9427 24.0647 6.69995 23.6925C6.36819 23.1827 6.03643 22.673 5.72894 22.1551C5.34863 21.5158 4.81458 21.1922 4.06205 21.1922C3.47945 21.1922 2.89684 21.1436 2.30615 21.1194C1.78828 21.0951 1.62645 20.8119 1.88538 20.3587C2.58936 19.1288 3.30143 17.9069 4.0135 16.6851C4.29671 16.1996 4.57183 15.7141 4.85504 15.2286C4.9845 15.002 4.96832 14.9777 4.71748 14.8887C4.47473 14.7997 4.23198 14.7107 4.00541 14.5974C3.57655 14.3871 3.44708 14.0067 3.50372 13.5617C3.55227 13.1652 3.63319 12.7768 3.7222 12.3884C3.83548 11.8786 3.71411 11.4336 3.38235 11.0452C3.13959 10.762 2.90494 10.4707 2.67837 10.1713C2.32233 9.71814 2.33042 9.24882 2.646 8.78759C2.88066 8.44774 3.1315 8.11598 3.39853 7.8004C3.76266 7.36345 3.88403 6.87795 3.74647 6.31962C3.65746 5.9555 3.58464 5.59137 3.54418 5.21915C3.48754 4.65273 3.68174 4.34525 4.21579 4.11868C4.55564 3.97303 4.91168 3.85974 5.26771 3.74646C5.80177 3.58463 6.14971 3.25287 6.32773 2.72691C6.41674 2.45988 6.51384 2.20094 6.61903 1.94201C6.93461 1.11666 7.32301 0.914363 8.17264 1.10856C8.51249 1.18948 8.85234 1.26231 9.20028 1.33513C9.52395 1.39987 9.79907 1.33513 10.0742 1.12475C10.5516 0.768712 11.0614 0.453136 11.555 0.121376C11.6359 0.0728253 11.733 0.0404585 11.822 0C11.911 0 12.0405 0 12.1618 0ZM11.9515 16.3938C15.9407 16.3533 19.0236 13.1895 18.967 9.20027C18.9103 5.45381 15.7384 2.35469 12.0162 2.37896C8.04317 2.39514 4.83885 5.61564 4.96832 9.63722C5.09779 13.3675 8.09981 16.3857 11.9515 16.3938Z" fill="#1E62B9"/>
<path d="M17.8828 9.43494C17.8747 12.5017 15.4714 15.1234 12.2752 15.2852C8.91716 15.4552 6.11743 12.8173 6.03651 9.53204C5.9556 6.19826 8.54494 3.59273 11.6845 3.46326C15.0264 3.3338 17.907 5.97978 17.8828 9.43494ZM9.54022 12.5422C9.52404 12.9629 9.71824 13.1005 10.05 12.9467C10.4465 12.7525 10.8349 12.5341 11.2314 12.3399C11.7493 12.0728 12.2752 12.0728 12.7931 12.3399C13.1653 12.5341 13.5294 12.7445 13.9097 12.9144C14.0392 12.971 14.2496 13.0034 14.3548 12.9306C14.4438 12.8739 14.4762 12.6554 14.46 12.5179C14.4114 12.0971 14.3305 11.6844 14.2658 11.2718C14.1687 10.6811 14.3386 10.1794 14.7594 9.7667C15.0507 9.4754 15.3582 9.20028 15.6414 8.8928C15.7385 8.78761 15.8275 8.59341 15.7951 8.47203C15.7708 8.36684 15.5685 8.27783 15.431 8.24546C15.0992 8.17264 14.7594 8.13218 14.4195 8.09172C13.9745 8.04317 13.5618 7.9137 13.2543 7.58194C13.1248 7.44438 13.0197 7.29064 12.9306 7.12881C12.7203 6.74041 12.5422 6.33582 12.3319 5.94742C12.1538 5.62375 11.903 5.63184 11.7088 5.94742C11.6764 6.00406 11.6441 6.06879 11.6117 6.13353C11.4418 6.47338 11.2799 6.82132 11.1019 7.15308C10.8349 7.66286 10.4222 7.96225 9.84771 8.05126C9.44312 8.11599 9.03045 8.15645 8.62586 8.24546C8.48021 8.27783 8.27792 8.37493 8.22937 8.49631C8.18891 8.6015 8.30219 8.80379 8.40738 8.90898C8.6825 9.21647 8.99808 9.49158 9.28938 9.78289C9.71824 10.2117 9.87198 10.7215 9.76679 11.3203C9.66969 11.7411 9.60496 12.1699 9.54022 12.5422Z" fill="#1E62B9"/>
</svg>
