<svg width="25" height="24" viewBox="0 0 25 24" fill="none" xmlns="http://www.w3.org/2000/svg">
<path d="M13.3938 24C12.7688 24 12.1438 24 11.5188 24C11.4625 23.9813 11.4125 23.9563 11.3562 23.95C10.0625 23.8125 8.8 23.5187 7.625 22.9625C3.70625 21.1 1.35625 18.0375 0.63125 13.75C0.5875 13.4937 0.54375 13.2375 0.5 12.9812C0.5 12.3062 0.5 11.6375 0.5 10.9625C0.51875 10.9187 0.54375 10.875 0.55 10.825C0.6375 10.3187 0.6875 9.8 0.80625 9.3C1.95 4.45 5.825 0.8875 10.75 0.13125C11.0063 0.09375 11.2625 0.04375 11.5125 0C12.1375 0 12.7625 0 13.3875 0C13.4187 0.0125 13.45 0.0375 13.4812 0.04375C13.9312 0.10625 14.3812 0.14375 14.825 0.23125C19.8188 1.225 23.6313 5.23125 24.3687 10.25C24.4062 10.5188 24.4562 10.7937 24.5 11.0625C24.5 11.7063 24.5 12.3438 24.5 12.9875C24.4813 13.0312 24.4563 13.0813 24.45 13.125C24.2563 15.075 23.6562 16.8875 22.5688 18.5187C20.575 21.5062 17.8062 23.3062 14.25 23.8687C13.9625 23.9125 13.675 23.9562 13.3938 24ZM15.2812 10.0875C15.8062 10.0875 16.3 10.0812 16.7875 10.0875C17.1438 10.0938 17.3813 9.925 17.5375 9.625C17.6938 9.31875 17.7125 9.0125 17.4937 8.71875C16.1062 6.8375 14.7188 4.95 13.3188 3.06875C13.2313 2.95 13.0875 2.85625 12.9438 2.80625C12.4688 2.6375 12.1687 2.75625 11.825 3.2C10.4062 5.0125 8.9875 6.825 7.56875 8.6375C7.3125 8.9625 7.30625 9.3125 7.4625 9.66875C7.6125 10.0125 7.90625 10.0938 8.25625 10.0813C8.73125 10.0688 9.20625 10.0813 9.70625 10.0813C9.70625 10.1875 9.70625 10.2688 9.70625 10.3562C9.70625 11.7625 9.70625 13.1687 9.70625 14.575C9.70625 15.2812 10.0188 15.5875 10.7188 15.5875C11.9 15.5875 13.075 15.5875 14.2563 15.5875C14.9813 15.5875 15.275 15.2937 15.2812 14.5625C15.2812 13.1625 15.2812 11.7687 15.2812 10.3687C15.2812 10.2937 15.2812 10.2062 15.2812 10.0875ZM15.15 16.8C13.3687 16.8 11.6125 16.8 9.85 16.8C9.85 17.35 9.85 17.8813 9.85 18.4312C11.6188 18.4312 13.3812 18.4312 15.15 18.4312C15.15 17.8875 15.15 17.35 15.15 16.8ZM10.55 19.65C10.55 20.2125 10.55 20.75 10.55 21.2875C11.8625 21.2875 13.15 21.2875 14.45 21.2875C14.45 20.7375 14.45 20.1938 14.45 19.65C13.1438 19.65 11.8562 19.65 10.55 19.65Z" fill="#1E62B9"/>
<path d="M15.2313 8.44377C14.9688 8.44377 14.75 8.44377 14.5375 8.44377C13.975 8.44377 13.6313 8.78752 13.6313 9.35002C13.6313 10.8125 13.6313 12.2688 13.6313 13.7313C13.6313 13.7938 13.6313 13.8563 13.6313 13.925C12.875 13.925 12.1313 13.925 11.3625 13.925C11.3625 13.8313 11.3625 13.75 11.3625 13.6688C11.3625 12.2563 11.3625 10.8438 11.3625 9.43127C11.3625 8.76252 11.05 8.45002 10.3688 8.45002C10.2063 8.45002 10.0438 8.45002 9.8313 8.45002C10.775 7.25002 11.6875 6.08127 12.6125 4.90002C13.4813 6.07502 14.3438 7.23752 15.2313 8.44377Z" fill="#1E62B9"/>
</svg>
